<svg xmlns="http://www.w3.org/2000/svg" viewBox="0 0 4680 3120"><defs><style>.cls-1,.cls-3{fill:#fff;}.cls-1{opacity:0;}.cls-2{fill:#e6f4ff;}.cls-4{fill:#97daff;}.cls-5{fill:#c0e6ff;}.cls-6{fill:#06b3ff;}.cls-7{fill:#231f20;}.cls-8{fill:#feb84f;}.cls-9{fill:#73d4ff;}.cls-10{fill:#0a5c60;}.cls-11{fill:#b3d0d1;}.cls-12{fill:#3ea399;}.cls-13{fill:#8bc3c0;}.cls-14{fill:#62b5ad;}.cls-15{fill:#2c8790;}.cls-16{fill:#38a8ad;}.cls-17{fill:#89c2c1;}.cls-18{fill:#199;}.cls-19{fill:#083b96;}.cls-20{fill:#ef523f;}.cls-21{fill:#ef9218;}.cls-22{fill:#a53a2f;}.cls-23{fill:#ffaf98;}.cls-24{fill:#ff6845;}.cls-25{fill:#110300;}.cls-26{fill:#111;}.cls-27{fill:#f98e70;}.cls-28{fill:#2e5abb;}.cls-29{opacity:0.1;}.cls-30{fill:#ef441d;}.cls-31{fill:#ff807d;}.cls-32{fill:#330a02;}</style></defs><title>08</title><g id="_08" data-name="08"><rect id="_08-2" data-name="08" class="cls-1" width="4680" height="3120"/><path class="cls-2" d="M3374.22,1331.42q-8.94-8.93-18.29-17.76-23.52-22.25-44.56-43.8-29.05-29.68-53.9-58.24c-183.67-210.45-209-378.35-282.73-568.54-7.94-20.57-16.49-41.41-25.87-62.61q-8.41-19.05-17.8-38.48c-43.48-89.94-140.62-180.14-263.44-237.1a662.35,662.35,0,0,0-66.14-26.53c-194.64-66.09-435.26-45.81-629.94,171.12a818.8,818.8,0,0,0-54.45,67.65,977.22,977.22,0,0,0-54.84,84.77c-35.65,61.61-71.3,116.73-106.61,166q-28.85,40.41-57.38,75.69C1602,963.07,1510.21,1041,1431.08,1091.68c-21.85,14-42.73,25.94-62.48,36.13-50.43,26-93.45,40.51-126.18,48.57-79,19.5-147.93,69.27-189.58,140.59-36.61,62.65-60.51,146-32.25,246a394.61,394.61,0,0,0,24,62.94c38.65,80.75,111.85,170.58,236.72,267.68,67.79,52.71,145.18,98.89,229.43,139q35.82,17.11,73.3,32.72c50.63,21.15,103.27,40.35,157.37,57.71,49.42,15.82,100.1,30.11,151.56,42.9,95.38,23.73,193.57,42.33,292,56.31q33.21,4.77,66.45,8.75c233.3,28.29,464.55,31.14,659.14,14.75q31.18-2.64,61-5.92c151.28-16.61,276-45.48,355.64-83.26,65.09-30.9,117.94-69.85,158.58-114.76a400.72,400.72,0,0,0,50.95-70,386,386,0,0,0,47.2-138.24c18.64-131.39-26.6-279.19-134.51-417.55A906.5,906.5,0,0,0,3374.22,1331.42Z"/><path class="cls-3" d="M3614.68,1322.41a1718.93,1718.93,0,0,1-237.28,113.9,1649.09,1649.09,0,0,1-234.22,71.2c-144.66,32.45-292.79,45.85-452.87,41-130.58-4-268.33-20.39-421.09-50.14-133.64-26-262.28-59.08-375.77-88.24-164.4-42.24-306.38-78.71-424.44-86.09-104.15-6.51-200.55,1.61-286.5,24.14-69,18.07-131.44,45.42-185.64,81.27-92.73,61.34-128.75,125.67-130.24,128.38a9.39,9.39,0,0,0,16.45,9.06c.35-.63,35.86-63.66,125.17-122.45,52.46-34.53,113-60.88,179.87-78.32,83.8-21.85,177.91-29.71,279.72-23.34,116.28,7.27,257.46,43.54,420.94,85.54,113.74,29.22,242.66,62.35,376.85,88.48,153.77,30,292.5,46.46,424.11,50.48,161.67,4.94,311.33-8.6,457.55-41.4a1669.13,1669.13,0,0,0,236.89-72,1736.62,1736.62,0,0,0,239.88-115.15,9.39,9.39,0,0,0-9.38-16.26Z"/><path class="cls-3" d="M3651.48,1589.2a1718.93,1718.93,0,0,1-237.28,113.9A1650.38,1650.38,0,0,1,3180,1774.3c-144.66,32.45-292.79,45.85-452.87,41-130.59-4-268.33-20.39-421.1-50.15-133.63-26-262.27-59.07-375.76-88.23-164.4-42.24-306.38-78.72-424.45-86.1-104.15-6.5-200.54,1.62-286.49,24.14-69,18.08-131.45,45.43-185.64,81.28-92.73,61.34-128.75,125.67-130.24,128.38a9.39,9.39,0,0,0,16.45,9.05c.35-.63,35.85-63.66,125.17-122.44,52.46-34.53,113-60.89,179.87-78.33,83.8-21.85,177.9-29.7,279.71-23.33,116.29,7.26,257.47,43.54,420.95,85.54,113.74,29.22,242.66,62.34,376.84,88.48,153.78,30,292.51,46.46,424.11,50.48,161.68,4.93,311.34-8.61,457.56-41.41a1668.19,1668.19,0,0,0,236.89-72,1738.32,1738.32,0,0,0,239.88-115.15,9.39,9.39,0,1,0-9.38-16.26Z"/><rect class="cls-4" x="2294.16" y="701.99" width="789.15" height="1039.25"/><path class="cls-3" d="M2335.19,1690.28H3043V760.46H2335.19Zm7.28-922.54h693.25V1683H2342.47Z"/><path class="cls-5" d="M1363.82,431.2h0a34.07,34.07,0,0,0-34.07,34.07V2754a34.07,34.07,0,0,0,34.07,34.08h0A34.08,34.08,0,0,0,1397.9,2754V465.27A34.07,34.07,0,0,0,1363.82,431.2Z"/><path class="cls-5" d="M2223.46,431.2h0a34.07,34.07,0,0,0-34.08,34.07V2754a34.08,34.08,0,0,0,34.08,34.08h0a34.07,34.07,0,0,0,34.07-34.08V465.27A34.07,34.07,0,0,0,2223.46,431.2Z"/><path class="cls-5" d="M3395.18,591.81H1106.46a34.07,34.07,0,0,0-34.07,34.07h0A34.07,34.07,0,0,0,1106.46,660H3395.18a34.08,34.08,0,0,0,34.08-34.08h0A34.07,34.07,0,0,0,3395.18,591.81Z"/><rect class="cls-5" x="1072.39" y="1796.17" width="2356.87" height="68.15" rx="34.08"/><path class="cls-5" d="M3152.78,431.2h0a34.07,34.07,0,0,0-34.08,34.07V2754a34.08,34.08,0,0,0,34.08,34.08h0a34.07,34.07,0,0,0,34.07-34.08V465.27A34.07,34.07,0,0,0,3152.78,431.2Z"/><path class="cls-5" d="M1563.71,633.24a21.84,21.84,0,0,0-21.83,21.83V880.63a21.83,21.83,0,1,0,43.66,0V655.07A21.83,21.83,0,0,0,1563.71,633.24Z"/><rect class="cls-5" x="1988.15" y="633.24" width="43.66" height="269.21" rx="21.83"/><rect class="cls-4" x="1480.31" y="838.18" width="616.04" height="310.44" rx="58.51"/><path class="cls-6" d="M1567.46,993.14v-.26c9.23-3.38,14.82-10.79,14.82-19.24,0-6.89-2.73-12.09-7.28-15.47-5.45-4.42-12.73-6.37-24-6.37a109.56,109.56,0,0,0-20.66,1.82v86.19a134.38,134.38,0,0,0,17.55,1c14.3,0,24.18-2.59,30.28-8.19a23.58,23.58,0,0,0,7.41-17.54C1585.53,1002.11,1575.78,995.22,1567.46,993.14Zm-25.86-31.85a48.51,48.51,0,0,1,10-.78c11.44,0,19.23,4,19.23,14.3,0,8.45-7,14.69-19,14.69H1541.6Zm9.49,70.71a61.93,61.93,0,0,1-9.49-.51V998.08H1551c12.35,0,22.63,4.94,22.63,16.9C1573.58,1027.71,1562.79,1032,1551.09,1032Z"/><path class="cls-6" d="M1653.76,1004.32c0,19.36-8.31,27.95-21.31,27.95-11.7,0-20.41-8.32-20.41-27.95V952.45H1600.6v51.61c0,27.16,13.52,37.44,31.46,37.44,19,0,33.14-11.06,33.14-38V952.45h-11.44Z"/><path class="cls-6" d="M1711.08,990.41c-12.09-4.68-17.42-8.71-17.42-16.9,0-6,4.55-13.13,16.51-13.13a34.9,34.9,0,0,1,16.64,4.16l3.11-9.23c-3.89-2.21-10.39-4.29-19.36-4.29-17,0-28.34,10.14-28.34,23.79,0,12.35,8.84,19.76,23.14,24.83,11.83,4.55,16.51,9.22,16.51,17.41,0,8.85-6.76,15-18.33,15a40.08,40.08,0,0,1-20.28-5.72l-2.86,9.5c4.68,3.12,13.91,5.59,22.36,5.59,20.67,0,30.68-11.7,30.68-25.22C1733.44,1003.28,1725.9,996.13,1711.08,990.41Z"/><path class="cls-6" d="M1802.7,990.41c-12.09-4.68-17.42-8.71-17.42-16.9,0-6,4.55-13.13,16.51-13.13a34.9,34.9,0,0,1,16.64,4.16l3.12-9.23c-3.9-2.21-10.4-4.29-19.37-4.29-17,0-28.34,10.14-28.34,23.79,0,12.35,8.85,19.76,23.14,24.83,11.83,4.55,16.51,9.22,16.51,17.41,0,8.85-6.76,15-18.33,15a40.08,40.08,0,0,1-20.28-5.72l-2.85,9.5c4.67,3.12,13.91,5.59,22.35,5.59,20.67,0,30.68-11.7,30.68-25.22C1825.06,1003.28,1817.52,996.13,1802.7,990.41Z"/><polygon class="cls-6" points="1830.51 962.07 1857.16 962.07 1857.16 1040.06 1868.6 1040.06 1868.6 962.07 1895.38 962.07 1895.38 952.45 1830.51 952.45 1830.51 962.07"/><path class="cls-6" d="M1937.09,951c-23.4,0-40.69,18.2-40.69,46,0,26.51,16.25,44.46,39.39,44.46,22.36,0,40.69-16,40.69-46.15C1976.48,969.35,1961,951,1937.09,951Zm-.65,81.25c-17.81,0-28-16.78-28-35.49,0-19.24,9.36-36.53,28.08-36.53s28,18.2,28,35.62C1964.52,1015.76,1954.38,1032.27,1936.44,1032.27Z"/><path class="cls-6" d="M2037.43,959.08c-5.2-4.68-13.39-7.28-24.57-7.28a131.09,131.09,0,0,0-21.71,1.69v86.57h11.31V1005a38.93,38.93,0,0,0,9.1.78c11,0,20.8-3.25,26.78-9.62,4.42-4.55,6.76-10.79,6.76-18.72S2042.24,963.24,2037.43,959.08Zm-25.61,37.57a37.93,37.93,0,0,1-9.36-.91V961.68a47.46,47.46,0,0,1,10.66-.91c12.48,0,20.67,5.59,20.67,17.16C2033.79,990,2025.47,996.65,2011.82,996.65Z"/><path class="cls-4" d="M2025.86,1425.93v-42.11a41.05,41.05,0,0,0-41.06-41H1672.33a41.05,41.05,0,0,0-41.06,41v146.34a41.05,41.05,0,0,0,41.06,41H1984.8a41.05,41.05,0,0,0,41.06-41v-40.45l19-11,36.2-20.9-36.2-20.9Z"/><path class="cls-3" d="M2013.6,1401.41V1359.3a41.06,41.06,0,0,0-41.06-41.06H1660.07A41.06,41.06,0,0,0,1619,1359.3v146.34a41.05,41.05,0,0,0,41.06,41h312.47a41.05,41.05,0,0,0,41.06-41v-40.45l19-11,36.2-20.9-36.2-20.9Z"/><path class="cls-7" d="M2015.16,1359.3a42.67,42.67,0,0,0-42.62-42.62H1660.07a42.67,42.67,0,0,0-42.62,42.62v146.34a42.67,42.67,0,0,0,42.62,42.61h312.47a42.67,42.67,0,0,0,42.62-42.61v-39.55l56.8-32.79-56.8-32.79Zm50.55,74-53.67,31v41.35a39.54,39.54,0,0,1-39.5,39.49H1660.07a39.54,39.54,0,0,1-39.5-39.49V1359.3a39.54,39.54,0,0,1,39.5-39.49h312.47a39.54,39.54,0,0,1,39.5,39.49v43Z"/><circle class="cls-8" cx="1691.52" cy="1435.7" r="23.07" transform="translate(-282.21 2449.04) rotate(-67.5)"/><circle class="cls-8" cx="1817.36" cy="1435.7" r="23.07"/><circle class="cls-8" cx="1934.82" cy="1435.7" r="23.07"/><rect class="cls-5" x="1427.04" y="2147.06" width="1439.94" height="77.83"/><path class="cls-9" d="M2866.47,2228.25l84.83-81.19,2.89-90.85L2867,2147.06C2864.55,2149.5,2866.47,2228.25,2866.47,2228.25Z"/><path class="cls-4" d="M1427,2147.06H2867l89.8-92.3L1521.09,2053S1441.63,2135.71,1427,2147.06Z"/><rect class="cls-5" x="1471.68" y="2210.28" width="54.94" height="567.7"/><rect class="cls-9" x="1623.18" y="2210.28" width="58.08" height="525.2"/><rect class="cls-5" x="2812.6" y="2210.28" width="54.94" height="567.7"/><rect class="cls-9" x="2896.16" y="2127.25" width="54.94" height="567.7"/><path class="cls-5" d="M1237.31,1042.58c14.52-20.34,16.2-46.78,2.08-66.15-18.15-24.88-55.4-28.62-83.2-8.35-1.19.87-2.3,1.81-3.41,2.73-4.7-11.08-13.17-19.32-24.13-21.81-15.14-3.44-30.74,5-40.39,20.08a57,57,0,0,0-61.19-10.22,96.06,96.06,0,0,0-189.22-16,55.91,55.91,0,0,0-32.11-10.36c-34.41,0-62.31,32.16-62.31,71.84a79.78,79.78,0,0,0,8.62,36.33c-42.19,5.21-67.48,11.84-67.48,19.06,0,16.73,135.63,30.29,302.93,30.29s302.93-13.56,302.93-30.29C1290.43,1053.36,1270.81,1047.46,1237.31,1042.58Z"/><path class="cls-5" d="M3807.23,953.38c5.37-6.21,8.27-13.63,7.59-21.37-1.63-18.72-23.36-32.11-48.52-29.91a59.81,59.81,0,0,0-11.67,2.21,41.39,41.39,0,0,0-22.27-16.19c-12.26-3.59-24.91-1.11-35.22,5.67-4.38-21.57-19.28-39.65-40.66-45.92a57.11,57.11,0,0,0-42.45,4.38A99.37,99.37,0,0,0,3415.94,849a71.15,71.15,0,0,0-97.12,99.12c-19,5.68-29.73,12.13-29.73,19,0,22.85,119.34,41.37,266.55,41.37s266.56-18.52,266.56-41.37C3822.2,962.26,3816.89,957.66,3807.23,953.38Z"/><path class="cls-5" d="M2820.75,312.57a88.9,88.9,0,1,0-148.91-82,49.36,49.36,0,0,0-17.86-3.39c-23.21,0-42.86,16.07-49.77,38.33a61,61,0,0,0-32.88-9.26c-29.28,0-53,19.14-53,42.75a35.75,35.75,0,0,0,4.61,17.39c-38.84,6.14-62.76,14.47-62.76,23.65,0,18.89,101.07,34.2,225.73,34.2s225.73-15.31,225.73-34.2C2911.63,328.77,2875.91,318.81,2820.75,312.57Z"/><circle class="cls-5" cx="823.98" cy="1409.68" r="53.7" transform="translate(-215.17 150.19) rotate(-9.22)"/><circle class="cls-5" cx="886.17" cy="703.06" r="33.92" transform="translate(-47.61 64.59) rotate(-4.07)"/><circle class="cls-5" cx="1100.98" cy="2003.24" r="33.92"/><circle class="cls-5" cx="3540.23" cy="1237.27" r="59.36" transform="translate(-152.47 583.06) rotate(-9.22)"/><circle class="cls-5" cx="3649.05" cy="580.11" r="35.33"/><circle class="cls-5" cx="3610.89" cy="2155.87" r="35.33"/><circle class="cls-5" cx="3932.54" cy="1717.85" r="62.89"/><path class="cls-10" d="M3632.26,2292.42c-1.53-.1-37.7-1.56-98.3,69.26-35.12,41-71.49,98.24-108.11,170-45.68,89.54-91.9,202.19-137.38,334.84a3.39,3.39,0,0,0,2.11,4.3,3.47,3.47,0,0,0,1.1.18,3.37,3.37,0,0,0,3.2-2.29c45-131.32,90.77-243,136-331.9,36.18-71.19,72.1-128,106.74-168.93,17-20.07,42.87-46.91,69.58-60.76,15.78-8.19,24.49-7.93,24.68-7.93a3.39,3.39,0,0,0,.41-6.76Z"/><path class="cls-10" d="M3237.08,2293.57a3.38,3.38,0,0,0-4.28,2.15c-7.46,22.51-24.12,85.11-33.76,160.89a974,974,0,0,0-7.42,162.56c2.69,65.35,12.71,127,29.79,183.33a3.38,3.38,0,0,0,3.24,2.4,3.74,3.74,0,0,0,1-.14,3.4,3.4,0,0,0,2.26-4.23c-16.9-55.72-26.82-116.8-29.5-181.54a968.12,968.12,0,0,1,7.35-161.36c9.57-75.29,26.09-137.44,33.49-159.78A3.39,3.39,0,0,0,3237.08,2293.57Z"/><path class="cls-8" d="M3221.44,2275.14c-10.11,9.52-11.78,26.92-3.73,38.88s22.77,13.92,32.88,4.41,11.77-26.93,3.73-38.88S3231.55,2265.62,3221.44,2275.14Z"/><path class="cls-8" d="M3618.58,2261.37c-12-5.56-25.6,1.46-30.31,15.7s1.24,30.27,13.28,35.83,25.6-1.46,30.3-15.69S3630.61,2266.93,3618.58,2261.37Z"/><path class="cls-10" d="M3105.68,2538.08c-7.94-11.78-15.71-22.66-21.89-30.61-9.3-12-10.71-12.14-12.07-12.29a3.08,3.08,0,0,0-1.45,5.93c5.39,4.13,50.32,63.14,93.91,149.07,69.3,136.6,78.59,229.54,74.17,283.46a3.09,3.09,0,0,0,2.82,3.32h.25a3.08,3.08,0,0,0,3.07-2.83c8.21-100.41-37.26-213.52-76.85-290.73A1046.59,1046.59,0,0,0,3105.68,2538.08Zm-34.61-36.78h0Z"/><ellipse class="cls-8" cx="3071.4" cy="2498.24" rx="26.89" ry="31.8"/><path class="cls-11" d="M3411.07,2365.2a56.3,56.3,0,0,0-7.09-4.85c1.72-14.5-2.79-22.7-8.66-27.33-8.48-6.73-19.77-5.47-27.93,1.72-180.14,159.21-199.14,415.42-199.81,421.91-15.13,145.74,33.19,112.77,54.57,137.68a28.87,28.87,0,0,1,3.8,5.65c18.6,35.62,30.61,46.54,65.3,47.4s34.25-115,49.35-171.84,95.63-348.4,92.36-374.78C3430.8,2383.39,3418.93,2371.4,3411.07,2365.2Z"/><path class="cls-12" d="M3246.43,2698.64l-3.72,12.25c-1.27,4.07-2.35,8.21-3.53,12.31-2.37,8.2-4.46,16.48-6.54,24.77l-2.84,12.5c-.49,2.07-.92,4.17-1.34,6.26l-1.27,6.29c-.89,4.18-1.64,8.39-2.36,12.6l-1.07,6.32-.92,6.35a357.36,357.36,0,0,0-4.08,51.14,215.13,215.13,0,0,0,1.39,25.63c.28,2.13.57,4.25.9,6.36s.71,4.22,1.19,6.3c.22,1.05.45,2.09.73,3.12s.52,2.08.84,3.1a42.6,42.6,0,0,0,2.13,6,71.56,71.56,0,0,1-2.44-12.45c-.29-2.1-.46-4.21-.65-6.31s-.27-4.22-.37-6.32a232.43,232.43,0,0,1,.42-25.32l.18-3.16.27-3.15c.18-2.1.33-4.21.54-6.31l.7-6.29.35-3.14.44-3.14c.59-4.18,1.12-8.36,1.83-12.53l1-6.25,1.14-6.23c6.15-33.21,15-65.92,25.17-98.18,1.2-4,2.59-8.06,3.88-12.08s2.61-8,4-12.06l4.13-12,2.06-6,2.14-6c5.61-16,11.64-31.82,17.72-47.66,12.24-31.63,25.25-63,38.21-94.47q-24.23,44.94-44.34,92A1011.46,1011.46,0,0,0,3246.43,2698.64Z"/><path class="cls-13" d="M3404,2360.35c1.72-14.5-2.79-22.7-8.66-27.33-8.48-6.73-19.77-5.47-27.93,1.72-180.14,159.21-199.14,415.42-199.81,421.91-15.13,145.74,33.19,112.77,54.57,137.68-16.65-201.35,136.74-446.28,188.92-529.13A56.3,56.3,0,0,0,3404,2360.35Z"/><path class="cls-13" d="M3585.51,2498.6a32.74,32.74,0,0,0-18.94-3.81c-69.91,5.65-137.06,68.43-170.34,110.44-33.71,42.49-27.38,116.48-27.08,119.71l-9-56.82c-48.76,75.29-48,173.57-48,173.57l-13.41-35.53c-10,33.74-6.42,139-6.42,139,62-12.54,101.44-68.5,102.66-70.24-16.91,10.49-29.77-2.08-29.77-2.08,95.84-23.25,112.88-162.69,130.43-214.47S3546,2569,3581,2535.57c16.14-15.35,16-25.28,11.09-31.52A21.87,21.87,0,0,0,3585.51,2498.6Z"/><path class="cls-14" d="M3423.14,2676.05c-41.24,68.75-130.79,269.14-130.79,269.14,62-12.54,101.44-68.5,102.66-70.24-16.91,10.49-29.77-2.08-29.77-2.08,95.84-23.25,112.88-162.69,130.43-214.47S3546,2569,3581,2535.57c16.14-15.35,16-25.28,11.09-31.52C3507.66,2531.48,3461.22,2612.59,3423.14,2676.05Z"/><path class="cls-12" d="M3454.53,2624.85l-7.49,11c-2.48,3.69-4.86,7.44-7.29,11.17s-4.78,7.49-7.15,11.25c-18.94,30.11-36.27,61.19-52.8,92.65-8.17,15.77-16.21,31.62-24,47.6s-15.35,32-22.61,48.25-14.39,32.48-21.27,48.85-13.49,32.85-19.6,49.53q22.8-48.14,46.09-95.92c7.86-15.89,15.63-31.81,23.67-47.6l12-23.71c4.07-7.87,8.11-15.75,12.26-23.57s8.23-15.68,12.37-23.51,8.41-15.58,12.69-23.33,8.57-15.49,12.88-23.22,8.76-15.39,13.24-23c9-15.27,18.06-30.46,27.65-45.34s19.44-29.62,29.82-44c-11.67,13.39-22.44,27.56-32.83,42C3459.63,2617.56,3457,2621.17,3454.53,2624.85Z"/><path class="cls-15" d="M3187.37,2727.42,3176,2776.13s3.51-78.27-1.74-89.16-57.43-81.35-81.5-89.13c-20.71-6.69-65.31-11.05-77.52-12.14h0c-2-.2-3.11-.28-3.11-.28l26.3,63.19,64,22.83-53.44-1.05s44.68,104.17,50.82,108.85,65.75,41.46,65.75,41.46l-58.73-16.58s31.55,86,48.19,97.39c16.27,11.13,60.94,35.13,63.06,36.26a.08.08,0,0,0,.06,0s19.72-75.66,11.4-115.06S3187.37,2727.42,3187.37,2727.42Z"/><path class="cls-16" d="M3015.22,2585.7h0c-2-.2-3.11-.28-3.11-.28l26.3,63.19,64,22.83-53.44-1.05s44.68,104.17,50.82,108.85,65.75,41.46,65.75,41.46l-58.73-16.58s31.55,86,48.19,97.39c16.27,11.13,60.94,35.13,63.06,36.26-13.82-61.3-59.07-188-109.24-266.21C3077.29,2622.44,3041.34,2597.88,3015.22,2585.7Z"/><path class="cls-10" d="M3205.24,2875.94c-3-10.1-6.31-20.11-9.7-30.08-1.69-5-3.44-10-5.21-14.91s-3.67-9.88-5.56-14.79c-3.8-9.82-7.69-19.61-11.91-29.26s-8.49-19.28-13.14-28.73q-3.45-7.11-7.08-14.12c-2.45-4.66-5-9.3-7.54-13.88s-5.29-9.12-8.12-13.56c-1.42-2.22-2.89-4.41-4.45-6.54-.78-1.06-1.57-2.12-2.43-3.13-.42-.5-.86-1-1.33-1.46a3.56,3.56,0,0,0-1.62-1.1,3.65,3.65,0,0,1,1.48,1.22c.41.51.8,1,1.17,1.58.74,1.07,1.42,2.19,2.09,3.31,1.33,2.26,2.58,4.56,3.82,6.86,2.46,4.62,4.74,9.34,7,14.05s4.44,9.48,6.56,14.27,4.25,9.56,6.3,14.38c8.19,19.27,15.74,38.79,22.86,58.46q2.64,7.39,5.19,14.81c1.72,4.94,3.42,9.88,5.06,14.85,3.33,9.91,6.39,19.91,9.49,29.9s6.23,20,9.49,29.93,6.6,19.92,10.38,29.81a287.57,287.57,0,0,0-5-31.25C3210.85,2896.25,3208.21,2886,3205.24,2875.94Z"/><path class="cls-15" d="M1269.24,2556.87s15.09-84.93-6.38-129-65.32-92.57-65.32-92.57L1170,2374s-3.51-67.17-19-88.44-218.05-106.07-250.6-101.19a8.73,8.73,0,0,0-3.57,1.24C871,2199.09,910.29,2312.73,937,2334l128.54-11.55-102.4,42.91,9.79,22.45,135.1-25.1-97.09,59.24,77.27,109.7,103,7.62-75,30s20.91,103.12,41,124.65,76.3,70.9,76.3,70.9L1158,2732.7s42.6,139.05,94,148.12a3.29,3.29,0,0,0,.85.17s94.86-170.47,43.29-392Z"/><path class="cls-16" d="M896.73,2185.58C871,2199.09,910.29,2312.73,937,2334l128.54-11.55-102.4,42.91,9.79,22.45,135.1-25.1-97.09,59.24,77.27,109.7,103,7.62-75,30s20.91,103.12,41,124.65,76.3,70.9,76.3,70.9L1158,2732.7s42.6,139.05,94,148.12c24.67-176.86,0-301.34-61.92-432.27C1140,2342.62,979.4,2235.62,896.73,2185.58Z"/><path class="cls-10" d="M1267.69,2709.87l-.25-7.55-.26-7.55L1267,2691c-.06-1.25-.16-2.51-.24-3.77l-1-15.09-.27-3.77c-.1-1.25-.25-2.51-.38-3.76l-.77-7.53-.78-7.52c-.14-1.26-.25-2.51-.41-3.77l-.51-3.75a553.46,553.46,0,0,0-10.89-59.58,443,443,0,0,0-18-57.88,354.7,354.7,0,0,0-26.73-54.38,262.41,262.41,0,0,0-17.42-24.77l-2.38-2.94-2.48-2.86c-1.62-1.92-3.37-3.75-5.08-5.59s-3.55-3.58-5.44-5.25c-.91-.86-1.88-1.67-2.86-2.46-.47-.41-1-.77-1.51-1.14-.26-.18-.5-.38-.77-.54l-.83-.45.76.55c.24.19.46.42.69.63a18.38,18.38,0,0,1,1.34,1.31c.87.89,1.73,1.79,2.53,2.75,1.67,1.85,3.21,3.82,4.75,5.77s3,3.93,4.45,6l2.16,3,2,3.11a284.69,284.69,0,0,1,15,25.69,404.92,404.92,0,0,1,23.07,54.71A520,520,0,0,1,1240.9,2585c.52,2.42,1.13,4.82,1.58,7.26l1.43,7.29,1.42,7.29c.51,2.42.83,4.88,1.25,7.32.78,4.9,1.67,9.77,2.4,14.67l2,14.74c2.44,19.68,4.35,39.45,5.31,59.29,1.24,19.84,1.45,39.74,1.55,59.65,0,10-.32,19.91-.39,29.89l-1.14,29.9-1.66,29.94-1.09,15c-.32,5-.68,10-1,15a806.86,806.86,0,0,0,14.49-119.47l.52-15.07.23-7.55c0-2.51,0-5,0-7.54l0-15.11C1267.87,2714.91,1267.78,2712.39,1267.69,2709.87Z"/><path class="cls-15" d="M1022.61,2691.28l21.23,62s-51.17-88.74-64.91-96.85-123.62-47.06-156.88-37.82c-28.6,7.93-83.13,36.12-98,43.94l0,0c-2.42,1.24-3.78,2-3.78,2l74.91,50.11,89.9-22.17-62.38,38.35s125,81.62,135.39,82.23,105.09-3,105.09-3l-79.43,25.18s97.06,71.35,124.28,71.56c26.62.22,95.07-6.4,98.31-6.72a.16.16,0,0,0,.11,0s-30.63-97.84-68-135S1022.61,2691.28,1022.61,2691.28Z"/><path class="cls-16" d="M724.07,2662.58l0,0c-2.42,1.24-3.78,2-3.78,2l74.91,50.11,89.9-22.17-62.38,38.35s125,81.62,135.39,82.23,105.09-3,105.09-3l-79.43,25.18s97.06,71.35,124.28,71.56c26.62.22,95.07-6.4,98.31-6.72-59.17-57.25-200.75-163.25-313.78-212.22C821.58,2657.13,762.8,2656.68,724.07,2662.58Z"/><path class="cls-10" d="M1147.6,2841.33q-31.95-26.64-65.88-50.77c-11.31-8-22.75-15.85-34.4-23.37s-23.38-14.91-35.38-21.87q-9-5.24-18.07-10.27t-18.42-9.66c-6.18-3.13-12.47-6.08-18.82-8.85-3.18-1.39-6.39-2.71-9.66-3.88-1.64-.59-3.28-1.15-5-1.63-.84-.24-1.68-.45-2.54-.61-.43-.07-.86-.14-1.3-.17a2.33,2.33,0,0,0-1.28.2,2.25,2.25,0,0,1,1.26-.06c.43.08.84.19,1.25.3.82.25,1.63.55,2.43.86,1.6.63,3.17,1.33,4.73,2.07,3.1,1.48,6.16,3.07,9.2,4.69,6.08,3.25,12,6.73,18,10.22s11.8,7.13,17.62,10.81,11.64,7.37,17.39,11.15c11.48,7.61,22.92,15.28,34.17,23.22s22.42,16,33.46,24.21q33.12,24.66,64.93,51c10.65,8.72,21.32,17.41,32.12,26s21.67,17.11,33,25.24a362.76,362.76,0,0,0-28.07-30.8C1168.49,2859.58,1158.2,2850.28,1147.6,2841.33Z"/><path class="cls-13" d="M1744.38,2280.1c-9.61-4.44-20.41-5.75-31-4.87-114,9.22-222.57,97.26-276.18,155.93-54.29,59.35-42.7,161.38-42.14,165.83l-15.68-78.26c-78.29,104.93-75.32,240.6-75.32,240.6l-22.49-48.77c-15.79,46.78-8.09,192.06-8.09,192.06,101-18.58,164.43-96.64,166.39-99.06-27.43,14.83-48.64-2.26-48.64-2.26,156.06-34.06,181.48-226.92,209.22-298.76s80.55-124.45,137.24-171.32c26.09-21.51,25.66-35.22,17.57-43.74A35.11,35.11,0,0,0,1744.38,2280.1Z"/><path class="cls-14" d="M1482.37,2528.4c-66.13,95.74-208.87,374.22-208.87,374.22,101-18.58,164.43-96.64,166.39-99.06-27.43,14.83-48.64-2.26-48.64-2.26,156.06-34.06,181.48-226.92,209.22-298.76s80.55-124.45,137.24-171.32c26.09-21.51,25.66-35.22,17.57-43.74C1617.86,2327.07,1543.45,2440,1482.37,2528.4Z"/><path class="cls-12" d="M1534.25,2455.2l-11.86,15.15c-4,5-7.72,10.24-11.58,15.37l-5.75,7.71-5.64,7.8c-15.18,20.7-29.44,42-43.6,63.41-3.52,5.36-7,10.73-10.47,16.14l-10.3,16.25c-3.42,5.42-6.74,10.9-10.11,16.35l-5,8.19-5,8.24c-6.62,11-13.11,22-19.58,33.1s-12.81,22.2-19,33.42q-4.68,8.4-9.3,16.83c-3.06,5.63-6.18,11.23-9.2,16.87s-6.11,11.27-9.1,16.93l-8.9,17c-5.88,11.39-11.79,22.75-17.5,34.22s-11.38,23-16.95,34.49c-11,23.13-21.91,46.32-31.9,69.92q36.51-67.6,74-134.51l18.9-33.36c3.13-5.57,6.35-11.08,9.52-16.63s6.38-11.07,9.61-16.58c12.83-22.1,25.75-44.14,39-66l4.92-8.21,5-8.18c3.34-5.44,6.64-10.91,10-16.33l10.09-16.28,10.21-16.2,5.09-8.11,5.18-8c3.46-5.36,6.87-10.76,10.39-16.08,7.05-10.64,14-21.33,21.19-31.9,28.58-42.31,58.64-83.62,91.38-123-18.18,18.06-35.14,37.34-51.55,57.06C1542.32,2445.22,1538.24,2450.18,1534.25,2455.2Z"/><path class="cls-17" d="M1622.23,2794c-13.83-7.22-69.53-34.19-145.06-27.08-73.47,7-86.26,49-86.91,51.34l2.45-37.76c-60.69,42.89-76,91.13-77.71,111.42-.49,5.35,0,8.78.86,9.6,41.73,41.53,151.74-4,151.74-4l-17.54-30.64s38.35,23.18,103.45,27.15c60.91,3.7,118.53,81.75,136.64,43.95a46.3,46.3,0,0,0,3.18-9.62C1706.62,2869.78,1636.06,2801.17,1622.23,2794Z"/><path class="cls-12" d="M1521.27,2817c-99.7-11.56-173,43.27-206.27,75-.49,5.35,0,8.78.86,9.6,41.73,41.53,151.74-4,151.74-4l-17.54-30.64s38.35,23.18,103.45,27.15c60.91,3.7,118.53,81.75,136.64,43.95C1666,2894.83,1614.09,2827.71,1521.27,2817Z"/><path class="cls-18" d="M1424.78,2820.07a217.73,217.73,0,0,0-61.17,27.52c-4.68,3.07-9.3,6.24-13.71,9.67s-8.72,7-12.86,10.72-8.1,7.66-11.84,11.79c-1.86,2.07-3.68,4.17-5.42,6.35-.86,1.09-1.7,2.2-2.51,3.33a18,18,0,0,0-2.16,3.56,9,9,0,0,1,1.26-1.63q.69-.77,1.41-1.5c1-1,2-2,3-2.88q3-2.85,6.12-5.52c4.18-3.56,8.45-7,12.86-10.24a266.64,266.64,0,0,1,27.39-17.91,258.33,258.33,0,0,1,124.24-34.12c21.8-.42,43.66,1.85,65.47,5.67a224.28,224.28,0,0,0-65.4-12.42A217.27,217.27,0,0,0,1424.78,2820.07Z"/><path class="cls-10" d="M1038.16,2594.85c-88.68-90.74-177.41-161.24-178.3-161.94a4.82,4.82,0,1,0-6,7.56c.88.7,89.2,70.87,177.45,161.19,51.74,53,93.32,102.35,123.59,146.83,37.53,55.15,57.58,102.65,59.6,141.2a4.82,4.82,0,0,0,4.81,4.57h.25a4.83,4.83,0,0,0,4.57-5.07c-2.11-40.34-22.73-89.51-61.28-146.15C1132.27,2698.07,1090.31,2648.21,1038.16,2594.85Z"/><circle class="cls-8" cx="856.87" cy="2436.69" r="38.87" transform="translate(-1638.41 3104.01) rotate(-85.6)"/><path class="cls-10" d="M1427.2,2336.51c-46.45,42.73-85,99.14-114.42,167.67-23.52,54.67-41.38,117.15-53.09,185.7-19.93,116.6-15.06,211.79-15,212.74a4.82,4.82,0,0,0,4.81,4.56h.26a4.84,4.84,0,0,0,4.56-5.08c0-.94-4.85-95.23,14.92-210.81,11.59-67.76,29.24-129.47,52.45-183.41,28.93-67.23,66.63-122.49,112-164.27a4.82,4.82,0,0,0-6.53-7.1Z"/><circle class="cls-8" cx="1445.02" cy="2326.82" r="38.87" transform="translate(-918.89 3710.33) rotate(-88.5)"/><path class="cls-10" d="M1700.48,2607.79c-46,3.49-96.44,22.13-149.93,55.38-42.55,26.45-87.16,62.17-132.6,106.19-77.24,74.84-130.9,148.83-131.43,149.57a4.82,4.82,0,0,0,1.09,6.73,4.76,4.76,0,0,0,2.81.91,4.82,4.82,0,0,0,3.92-2c.53-.73,53.77-74.13,130.43-148.38,44.93-43.52,89-78.8,130.94-104.87,52.13-32.4,101.09-50.54,145.5-53.92a4.82,4.82,0,0,0-.73-9.61Z"/><circle class="cls-8" cx="1725.62" cy="2609.36" r="38.87" transform="translate(-1228.79 3637.95) rotate(-75.72)"/><path class="cls-19" d="M2692.83,2612.3s-57,9.3-50.58,51.75l.64,7,38.89,37.15s114.41,36.5,59.89-64Z"/><path class="cls-19" d="M2712.75,1241s-47.38-60-134.32-78.59c-32.42-7-70.29-8.17-113.3,1.69-51.14,11.63-109.51,38.86-174.35,90.52,0,0,33,330.45,1,487.47s-150.91,301.74-131.07,408.44a33.09,33.09,0,0,0,4.75,5.53c14.1,14,64.24,50.84,213.17,69.17,179.5,22.09,404.38,8.65,495.21-100.6,3.28-3.93,6.35-8,9.29-12.19,0,0,10.68-24.38-33.55-126.49S2711.5,1421.27,2712.75,1241Z"/><path class="cls-8" d="M2542.64,2352.05c-4.41-5.54-8.85-11.23-13.18-16.88-29.66-38.55-55.89-77-55.89-77,32.66-126.91,95.3-616.45,95.3-616.45-1.21-.9-2.46-1.8-3.66-2.62-82.71-56.94-187.79,20.86-187.79,20.86s-97.37,581.38-63.77,631.73c14.42,21.67,112.64,141.84,198.24,241.23,8.69,10.1,17.26,20,25.6,29.51,53.83,61.62,98,109.05,105.4,108.66,10.17-.5,24-15.55,35-30.05,10.44-13.76,18.39-27,18.39-27s-118.8-218.43-153.49-261.77C2542.76,2352.2,2542.72,2352.13,2542.64,2352.05Z"/><path class="cls-20" d="M2795.57,2632.73c-14.64-6.18-38.27-4.73-63.33,1.54,0,0,22.12,42.91-3.51,60.35s-57.17,4.47-57.17,4.47,2.16,60.5,10.63,92.46-2.37,112.7-1.7,127a13.64,13.64,0,0,0,1.56,5.5c5.58,10.92,24.48,17.27,24.48,17.27s112.84-213.14,117.29-289.2C2823.82,2652.08,2814,2640.49,2795.57,2632.73Z"/><path class="cls-3" d="M2795.57,2632.73c-17.19,51.27-46.66,144.34-52.69,159.23S2701,2883.72,2682.05,2924c5.58,10.92,24.48,17.27,24.48,17.27s112.84-213.14,117.29-289.2C2823.82,2652.08,2814,2640.49,2795.57,2632.73Z"/><path class="cls-7" d="M2796.48,2630.56l-2.34-1-.81,2.4c-6.85,20.43-15.63,47.45-24.13,73.59-12.81,39.4-24.91,76.62-28.5,85.5-6.9,17.1-51.84,112.91-60.78,131.94l-.49,1,.52,1c6,11.64,25,18.16,25.83,18.43l1.89.64.94-1.77c.28-.53,28.57-54.06,57-116.19,38.3-83.6,58.66-142.13,60.52-174l0-.94-.6-.72C2825.2,2650.07,2815.25,2638.45,2796.48,2630.56Zm-91.07,307.79c-4.56-1.8-16.16-6.95-20.71-14.43,10-21.36,53.54-114.18,60.36-131.08,3.66-9,15.78-46.33,28.62-85.82,8.16-25.09,16.59-51,23.3-71.1a80.06,80.06,0,0,1,24.42,17C2816.4,2724.68,2716.35,2917.45,2705.41,2938.35Z"/><path class="cls-7" d="M2706.67,2751.5a4.81,4.81,0,0,0-5.75-3.61l-28.07,6.41a4.8,4.8,0,0,0,2.13,9.36l28.08-6.41a4.81,4.81,0,0,0,3.61-5.75Z"/><path class="cls-7" d="M2701.43,2768.28l-28.07,6.41a4.8,4.8,0,0,0,2.13,9.36l28.08-6.42a4.8,4.8,0,1,0-2.14-9.35Z"/><path class="cls-7" d="M2709.22,2793.54a4.8,4.8,0,0,0-5.75-3.61l-28.07,6.41a4.8,4.8,0,0,0,2.13,9.36l28.08-6.42a4.8,4.8,0,0,0,3.61-5.74Z"/><path class="cls-21" d="M2542.64,2352l.19-8.14a41.75,41.75,0,0,0-13.37-8.73h0c-29.64-38.55-55.85-77-55.85-77,32.66-126.91,95.3-616.45,95.3-616.45-1.21-.9-2.46-1.8-3.66-2.62-6.71,4.91-61.29,5.05-68.5,13.82-5.73,7-87.92,556.45-80.47,587.75,2.15,9.06,22.57,43.51,51.31,88.89a258.88,258.88,0,0,1,38.86,112.52c3.17,31.36,5.84,64.75,5.48,90.84,8.69,10.1,17.26,20,25.6,29.51l3-120.91c56.28,84.73,115.15,170.23,137.48,199.52,10.44-13.76,18.39-27,18.39-27s-119.24-219.24-153.68-262Z"/><polygon class="cls-19" points="2539.68 2837.68 2603.77 2837.08 2615.08 2737.55 2539.79 2735.1 2539.68 2837.68"/><path class="cls-8" d="M2581.65,1584.17c-16.79-1.33-29.46.7-33.59,6.15-2.85,3.75-5.11,18.63-6.9,41.44-1,12.63-1.87,27.71-2.58,44.66-5.84,134.2-4.36,386.81-7.48,488.58-4.25,137.82,8.46,606.48,8.46,606.48l3.78.47,67,8.53s74.84-289.36,82.28-373.12S2730,1693.85,2730,1693.85C2725.44,1625,2633.61,1588.38,2581.65,1584.17Z"/><path class="cls-20" d="M2636.65,2898.48l-4.41-3.26-34.66-70.14c-13.18-14.36-36.38-6.88-46.74-2.47-3.33,1.42-6.25,4.39-8.36,8.47L2510,2893.85l-4.64,1.47c-6.88,2.2-12.39,10.17-13.65,20.42-2,16.45,1,34.81,1,34.81s145.95,16.19,151.91.69c3.16-8.28,3.07-21,2.29-31C2646.15,2910.85,2642.33,2902.68,2636.65,2898.48Z"/><path class="cls-3" d="M2638.79,2900.06l-6.55-4.84L2510,2893.85l-5.59,1.78c-5.91,1.88-10.82,8.37-12.26,17-2.84,17.14.52,37.87.52,37.87s145.95,16.19,151.91.69c3.66-9.6,3-25.17,1.88-35.63C2645.77,2908.88,2642.9,2903.11,2638.79,2900.06Z"/><path class="cls-7" d="M2640.08,2898.31l-7.11-5.26-123.29-1.38-5.93,1.88c-6.82,2.18-12.22,9.55-13.75,18.78-2.86,17.29.39,37.71.53,38.57l.26,1.63,1.64.18c.37,0,37,4.08,73.84,6.17,14.69.83,27.47,1.25,38.21,1.25,5.12,0,9.78-.1,13.95-.29,22.71-1,27-4.73,28.18-7.82h0c3.76-9.84,3.17-25.35,2-36.62C2647.88,2908.1,2644.68,2901.72,2640.08,2898.31Zm2.47,52.15c-.53,1.38-6.72,8-76,4.08-32.28-1.83-64.37-5.16-72-6-.7-5.18-2.58-21.68-.29-35.53,1.27-7.64,5.5-13.66,10.78-15.34l5.26-1.68,121.18,1.37,6,4.42c3.64,2.69,6.18,7.93,6.81,14C2645.86,2931.1,2645.24,2943.4,2642.55,2950.46Z"/><path class="cls-7" d="M2586.7,2836.63h-28.79a4.8,4.8,0,0,0-4.8,4.8h0a4.8,4.8,0,0,0,4.8,4.8h28.79a4.8,4.8,0,0,0,4.8-4.8h0A4.8,4.8,0,0,0,2586.7,2836.63Z"/><path class="cls-7" d="M2587.29,2852.47h-28.8a4.8,4.8,0,1,0,0,9.6h28.8a4.8,4.8,0,0,0,0-9.6Z"/><path class="cls-7" d="M2585.53,2868.3h-28.8a4.8,4.8,0,1,0,0,9.6h28.8a4.8,4.8,0,1,0,0-9.6Z"/><path class="cls-21" d="M2581.65,1584.17c-12.78,11.92-87.16-1.72-101.39,18.2-9.74,13.64-9.53,52.77-20,70.51,0,0,28.2,28.41,43.91,30,20.62,2.07,41.73,36.37,55.76,79.09,24.68,75.18,3.74,336.29,44.86,395l1.22,1.76a306.62,306.62,0,0,1,55.21,165.34c4,120.15-6.39,331.91-117.51,427.53a3.83,3.83,0,0,1-.39.32l67,8.53s74.84-289.36,82.28-373.12S2730,1693.85,2730,1693.85C2725.44,1625,2633.61,1588.38,2581.65,1584.17Z"/><path class="cls-22" d="M2858.84,1131.48c-29.79-30.4-94.34-27.81-94.34-27.81s-10.29-87.74-89.39-63c0,0,63-33,42.76-85.89s-86-36.62-86-36.6c6.9-1.73-.65-44.25-1.83-48.42-6.66-23.53-20.74-43.53-37.74-62-15.84-17.25-36.32-28.43-58.26-34.76-17-4.91-44.29-7.53-68.6-2.18-15.61,3.43-31.89,7.51-45.19,13.61-24.23,11.12-63,26.14-85.41,96.92,0,0-44.46,69,29.41,127.36,0,0-99.35,28.24-25.08,117.16,0,0-73.87,5.44-89,66.92,0,0-.59,32,12.44,50.58,0,0-100.42,14.94-92.56,95.74S2286.6,1459.9,2377.8,1462.5s405.28,3.4,481.19-181.43c0,0,29.54-41.91-20-79.93C2839,1201.14,2888.63,1161.89,2858.84,1131.48Z"/><path class="cls-22" d="M2843.89,1199.54a169.59,169.59,0,0,0,14.92-16.55c12.27-15.62,18.34-29.6,18-41.56-.23-9.24-4.31-17.07-12.13-23.29-31.57-25.1-83-19.35-97.05-17.2,2.58-9.45,6.64-36-19.77-59.14-22.58-19.83-49.06-13.8-63.41-8.09,7.24-8.13,17.82-21.07,25.82-35.93,14.23-26.42,15.56-49.25,4-67.86-11.79-18.91-30.06-27.24-52.8-24.07a91.18,91.18,0,0,0-25.63,7.8,117.6,117.6,0,0,0,5.75-34c.52-21.38-4.59-53.43-31.85-84.73-21.68-24.89-54.79-36.73-95.77-34.21a210.29,210.29,0,0,0-55.74,11.37l1.55,4a205,205,0,0,1,54.56-11.1c27.57-1.67,65.94,2.65,92.14,32.74s31.26,61,30.79,81.6c-.5,22.35-7.34,37.77-7.41,37.93l-2.81,6.24,5.89-3.5a87.72,87.72,0,0,1,29.12-9.89c21.24-3,37.56,4.48,48.54,22.08,16.46,26.4,3.75,63.91-35.79,105.63l-1.28,1.35-11.39,12.29,14.14-9c.38-.25,38.54-24,68.76,2.56,12.69,11.14,19.49,24.22,20.22,38.88a47,47,0,0,1-2.74,18.89l-1.6,3.74,4-.77c.63-.12,62.59-11.7,97.11,15.74,6.77,5.38,10.3,12.11,10.5,20,.68,26.26-34.57,57.67-34.93,58l-4.11,3.62,5.48.16c.19,0,19.25.74,29,16.06,9.36,14.67,7.49,37.51-5.55,67.9-20,46.53-37.82,60.17-49.28,63.43-9,2.55-14.38-1.14-14.59-1.29l-2.54,3.51a19.86,19.86,0,0,0,11,3,26.49,26.49,0,0,0,7.09-1c22.49-6.21,40.84-39.29,52.28-65.94,13.64-31.79,15.4-56,5.23-71.94C2863.74,1204.67,2850.86,1200.76,2843.89,1199.54Z"/><path class="cls-22" d="M2418.69,722.49a2.16,2.16,0,0,0,.17,4.32c23.93-1,39.09,31.3,43.29,41.57a159.54,159.54,0,0,0-47.71,5.45c-25.57,6.95-60.22,23.89-80.06,65.18-17.82,37.07-23.76,73-17.19,104a105.81,105.81,0,0,0,42.1,64.89c-13.45,4.33-53.28,19.54-60,49.48-4.46,20,6.9,42.19,33.77,66.11a244.71,244.71,0,0,0-28.57,1.21c-25.39,2.65-43.75,9-54.59,19a32.82,32.82,0,0,0-11.15,24.16c-.88,37.32,12.29,62.21,18.73,72.1-12.4-2.44-42.69-6.2-67.2,8.37-15.77,9.37-26.21,24.69-31,45.53-7.15,30.89-2.32,60.29,14,85,24.18,36.72,72,62.44,138.18,74.39a1.72,1.72,0,0,0,.39,0,2.16,2.16,0,0,0,.38-4.29c-65-11.74-111.83-36.81-135.34-72.52-15.85-24.06-20.34-51.53-13.37-81.67,4.54-19.64,14.3-34,29-42.77,29.36-17.47,69.11-6.76,69.5-6.65a2.17,2.17,0,0,0,2.25-3.46c-7.7-9.32-22-36.77-21.15-74a28.69,28.69,0,0,1,9.75-21.07c24.32-22.37,85.52-18.94,86.14-18.9a2.16,2.16,0,0,0,1.52-3.81c-28.86-24.32-41.3-46.48-37-65.86,3.79-17,20.1-29,33.12-36a144.67,144.67,0,0,1,28.1-11.51,2.16,2.16,0,0,0,.64-3.89,101.71,101.71,0,0,1-44-64.77c-6.37-30-.54-65,16.86-101.21,15.34-31.92,41.3-53.06,77.15-62.83a152.52,152.52,0,0,1,49.74-5.13,2.17,2.17,0,0,0,2.26-2.86C2466.74,768.07,2450.24,721.23,2418.69,722.49Z"/><path class="cls-22" d="M2468.53,718.74a2.17,2.17,0,0,0-1,2.89c14,28.76-3.52,47.45-3.7,47.64a2.16,2.16,0,0,0,3.12,3c.19-.21,19.79-21.09,4.47-52.53A2.17,2.17,0,0,0,2468.53,718.74Z"/><path class="cls-22" d="M2689.7,893.13c-23.61-6.31-43.54,8.9-53.32,17.79,7.25-13.95,26.83-43.25,52.74-50.29a2.17,2.17,0,0,0-1.13-4.18c-33.64,9.15-58.16,54.1-59,61.13a2.54,2.54,0,0,0,1.24,2.72,2.4,2.4,0,0,0,1.1.27,2.84,2.84,0,0,0,1.85-.75c.55-.45,1.26-1.15,2.25-2.1,7.68-7.42,28.08-27.1,53.12-20.42a2.16,2.16,0,1,0,1.12-4.17Z"/><path class="cls-20" d="M2418.89,1163.76c-9.62,9.63,29.08,477.94,29.08,477.94,89.38,33.69,197.33,22.69,197.33,22.69,31.63-108.64-42.53-499.83-42.53-499.83C2543.64,1137.74,2418.89,1163.76,2418.89,1163.76Z"/><path class="cls-3" d="M2506.73,1252c-67.33-1.24-124.42-71.47-125-72.18l-3.37,2.7a256.12,256.12,0,0,0,37.73,36.36c21.25,16.71,54.21,36.77,90.54,37.44l1.92,0c32.61,0,62.55-15.52,89-46.15l-3.27-2.83C2568.2,1237.54,2538.75,1252.58,2506.73,1252Z"/><path class="cls-3" d="M2560.69,1301.36c-37.5,14-74.54,5.35-99-4.37a196.76,196.76,0,0,1-44.8-24.87l-2.69,3.38c.75.59,18.56,14.62,45.77,25.46,15.69,6.25,36.41,12.06,59.2,12.06a122.34,122.34,0,0,0,43-7.61c73.74-27.53,92.92-54.87,93.71-56l-3.58-2.43C2652.14,1247.23,2632.88,1274.41,2560.69,1301.36Z"/><path class="cls-3" d="M2578.44,1364.45c-37.51,14-74.54,5.35-99-4.37a196.6,196.6,0,0,1-44.8-24.87l-2.68,3.39c.74.59,18.55,14.61,45.77,25.45,15.69,6.25,36.41,12.06,59.19,12.06a122.43,122.43,0,0,0,43-7.61c73.73-27.53,92.92-54.86,93.7-56l-3.57-2.44C2669.89,1310.32,2650.62,1337.5,2578.44,1364.45Z"/><path class="cls-3" d="M2586.32,1425.57c-37.5,14-74.54,5.35-99-4.37a196.32,196.32,0,0,1-44.8-24.87l-2.69,3.39c.75.59,18.56,14.61,45.77,25.45,15.69,6.25,36.42,12.06,59.2,12.06a122.2,122.2,0,0,0,43-7.61c73.73-27.52,92.92-54.86,93.7-56l-3.58-2.43C2677.78,1371.45,2658.51,1398.62,2586.32,1425.57Z"/><path class="cls-3" d="M2588.3,1492.61c-37.51,14-74.54,5.35-99-4.37a196.76,196.76,0,0,1-44.8-24.87l-2.69,3.38c.75.59,18.56,14.62,45.77,25.46,15.69,6.24,36.42,12.06,59.2,12.06a122.43,122.43,0,0,0,43-7.61c73.73-27.53,92.92-54.87,93.7-56l-3.58-2.43C2679.75,1438.48,2660.48,1465.66,2588.3,1492.61Z"/><path class="cls-3" d="M2588.3,1553.73c-37.51,14-74.54,5.35-99-4.37a196.76,196.76,0,0,1-44.8-24.87l-2.69,3.38c.75.6,18.56,14.62,45.77,25.46,15.69,6.25,36.42,12.06,59.2,12.06a122.43,122.43,0,0,0,43-7.61c73.73-27.53,92.92-54.87,93.7-56l-3.58-2.43C2679.75,1499.6,2660.48,1526.78,2588.3,1553.73Z"/><path class="cls-3" d="M2590.27,1620.77c-37.51,14-74.54,5.35-99-4.38a195.66,195.66,0,0,1-44.79-24.87l-2.69,3.39c.74.59,18.55,14.62,45.77,25.45,15.69,6.25,36.41,12.07,59.19,12.07a122.43,122.43,0,0,0,43-7.61c73.73-27.53,92.92-54.87,93.7-56l-3.57-2.43C2681.72,1566.64,2662.45,1593.82,2590.27,1620.77Z"/><path class="cls-23" d="M2546.25,1025.74c-12.67-30.66-59.87-17-91.11-7.62-24.34,7.3-29.21,71.95-30.2,100.12a78.25,78.25,0,0,0,1.58,18.35,36.07,36.07,0,0,0,1.89,7c57.2,126.27,143,31.33,143,31.33l-23.94-141.82Z"/><path class="cls-24" d="M2455.14,1018.12c-24.34,7.3-29.21,71.95-30.2,100.12a78.25,78.25,0,0,0,1.58,18.35c32.95-10.5,86-37.1,121-103.46l-1.26-7.39C2533.58,995.08,2486.38,1008.74,2455.14,1018.12Z"/><path class="cls-23" d="M2550.51,871.16c-34.2-42.67-153.64-41.57-160.41,3.11,0,0-3.76,13.69-7.34,33.94-7.77,43.67-14.9,117.92,17.66,151.4,47.65,49,123.62-10.52,146.41-34,21.64-22.41,36.47-103.49,8.22-148A62.34,62.34,0,0,0,2550.51,871.16Z"/><path class="cls-23" d="M2410.11,991.49c-3.38,8,10.71,13.46,21.53,6.56l-1.49-37.87S2413.5,983.5,2410.11,991.49Z"/><path class="cls-25" d="M2430.61,996.42c-6.35,4.05-14,3.41-17.48.48a3.75,3.75,0,0,1-1.25-4.66c3.27-7.71,19.67-30.71,19.84-30.94a1.92,1.92,0,1,0-3.13-2.24c-.69,1-16.82,23.58-20.25,31.68a7.6,7.6,0,0,0,2.31,9.1,16.19,16.19,0,0,0,10.31,3.28,21.92,21.92,0,0,0,11.72-3.45,1.93,1.93,0,1,0-2.07-3.25Z"/><path class="cls-26" d="M2486.46,928c-5.05-4.12-12.79-9-21.27-9.46-9.23-.44-19.21,6.77-25.38,12.22a3.12,3.12,0,0,0,2.23,5.45l15.59-3.49a36.4,36.4,0,0,1,12.7-.56l14.13,1.88A3.41,3.41,0,0,0,2486.46,928Z"/><path class="cls-26" d="M2461.07,942.79c-2.61,0-4.76,5.48-4.8,12.28s2.05,12.3,4.66,12.32,4.76-5.48,4.8-12.27S2463.68,942.81,2461.07,942.79Z"/><circle class="cls-27" cx="2501.04" cy="991.71" r="23.83" transform="matrix(0.58, -0.82, 0.82, 0.58, 249.61, 2464.72)"/><path class="cls-22" d="M2444.1,825.59s-5,136.86,84.74,138.37c41.47.69,52.59-56.36,52.59-56.36S2520.13,754.78,2444.1,825.59Z"/><path class="cls-22" d="M2331.61,877.53c-31.06,82.64,32.79,68.55,32.79,68.55,35.47-14.73,86.81-119.63,86.81-119.63C2426.34,789.06,2362.68,794.9,2331.61,877.53Z"/><path class="cls-28" d="M2763.48,1277.77c-7.79-37.5-14.23-64.39-16.29-66.85-6.82-8.22-38.74-46.07-102-60.61,0,0-26.39,53.75-15.48,82.48s71.06,65.6,71.06,65.6,6.86,259.62,26,299.22l23.23,6.86s47.86-21.86,53.32-65.6c3.16-25.29-13.76-128.19-29.94-212.11C2770,1309.34,2766.6,1292.7,2763.48,1277.77Z"/><path class="cls-28" d="M2449.72,1174.32c-51.18,11.62-94.09,28.69-158.95,80.34,0,0,33,330.44,1,487.48s-150.91,301.72-131.08,408.44a26.42,26.42,0,0,0,3.2,3.93c.31.32.62.67,1,1.06.12.15.32.35.51.54l.51-.12c115.56-32,324.87,14.78,324.87,14.78,29.66-164,28.18-358.78,15.75-534.53C2491.81,1427.87,2461.68,1246.24,2449.72,1174.32Z"/><path class="cls-28" d="M2778.33,1710.84c-35-171.26-66.14-373.28-65.4-477.74,0,0-51.8-59.17-138.72-77.72-2.34,3.94,2.1,16.49,2.18,21.87,0,5.61,49.46,238,48.88,393s-12.78,529.07,14.58,605.08c0,0-2.73,18,117.51-18.75,5.69-1.71,11.62-3.59,17.85-5.57,44.59-14.23,76.24-22.1,98.61-26.31,3.28-3.94,6.36-8,9.32-12.16,0,0,10.64-24.4-33.56-126.52C2831,1943.06,2803.67,1835.06,2778.33,1710.84Z"/><path class="cls-28" d="M2446.58,1443.23l-13.88,2.64-100.9,19.19s-37.69-192-35-207,101.93-15.74,106-107.3c0,0-155.76,27.32-169.42,51.92s-24.6,349.82,2.73,384c25.46,31.86,154.33-1.64,208.19-26.28,3.94-1.77,7.44-3.5,10.47-5.14C2454.8,1555.29,2498.5,1488.32,2446.58,1443.23Z"/><path d="M2440.45,1444.4c-4.67.88-7.17,4.9-8.87,9.34-16.66,43.46-6.47,80.82,12.75,106.69,3.94-1.77,7.44-3.5,10.47-5.14,0,0,40.85-62.6-3.36-107.5A12.22,12.22,0,0,0,2440.45,1444.4Z"/><path class="cls-26" d="M2418.12,928.42c-5-4.12-12.79-9-21.27-9.46-9.23-.43-19.21,6.78-25.38,12.22a3.12,3.12,0,0,0,2.24,5.45l15.59-3.49a36.1,36.1,0,0,1,12.69-.55l14.13,1.88A3.42,3.42,0,0,0,2418.12,928.42Z"/><path class="cls-26" d="M2392.73,943.23c-2.61,0-4.76,5.48-4.79,12.27s2,12.31,4.66,12.32,4.76-5.48,4.79-12.27S2395.35,943.24,2392.73,943.23Z"/><path class="cls-26" d="M2461.26,1027.07c-38.94-18.91-57.57,2.42-58.34,3.34a2.16,2.16,0,0,0,.25,3,2.17,2.17,0,0,0,3-.25c.69-.81,17.37-19.62,53.16-2.24a2.16,2.16,0,0,0,1.88-3.89Z"/><path class="cls-26" d="M2441.78,1033.23c-15.78-6.39-23.59,1.39-23.92,1.72a.84.84,0,0,0,0,1.18.81.81,0,0,0,.58.23.84.84,0,0,0,.59-.24,13.77,13.77,0,0,1,5.47-2.93c3.34-1,8.94-1.53,16.64,1.59a.83.83,0,0,0,.62-1.55Z"/><path class="cls-22" d="M2519,970.08c-13.32,2.32-27.53-3.84-42.24-18.33-14.14-13.93-31-40.51-31.13-88a218.78,218.78,0,0,1,6.16-51.77l-4.17-1.14a223.31,223.31,0,0,0-6.31,52.81c.07,38.85,11.28,70.39,32.41,91.21,13.54,13.33,26.86,20,39.71,20a36.44,36.44,0,0,0,6.34-.55c24.08-4.22,37.15-31.06,37.69-32.2l-3.9-1.86C2553.44,940.53,2540.88,966.25,2519,970.08Z"/><path class="cls-19" d="M2306.38,1254.22c6.42,120,20.46,177,26.42,196.47a10.68,10.68,0,0,0,11,7.53c80.43-6,92.8-15.75,92.8-15.75C2319,1433.32,2306.26,1251.86,2306.38,1254.22Z"/><path class="cls-19" d="M2265.83,1531.07s34.6-63.54,106.41-76.92l-39.44-3.46S2278.77,1468.63,2265.83,1531.07Z"/><path class="cls-19" d="M2278.75,1454s38.05-25.19,55.74-13.93l-7.5-15S2301.8,1427.24,2278.75,1454Z"/><path class="cls-19" d="M2239.73,1893.53s38.27-49.3,63.29-161.9,141.31-170.46,141.31-170.46c-25.73,11.3-142.78,36.53-142.78,36.53C2311.11,1719.12,2239.73,1893.53,2239.73,1893.53Z"/><path class="cls-19" d="M2761.3,1279.37s15.82,59.67-30.75,71.87c0,0,21-.35,42.75-24.48-3.35-17.42-6.7-34.06-9.82-49Z"/><polygon class="cls-19" points="2643.67 1207.55 2622.52 1226.78 2691.26 1229.63 2688 1218.25 2643.67 1207.55"/><path class="cls-3" d="M2645.15,1150.3s-62-50.11-85.56-48.87c-7.55.4,28.41,135.83,33.38,175.59s32.3,293.18,32.3,293.18,64.29-272.09,59.32-324.27l-41-28.44,44.36.76Z"/><path class="cls-19" d="M2629.84,1534.43c6.3,8,94.84,122.55,139.56,140.82l-18.47-112.18S2639.6,1545.05,2629.84,1534.43Z"/><path class="cls-19" d="M2629.5,1534a3,3,0,0,0,.34.4C2629.54,1534.05,2629.42,1533.9,2629.5,1534Z"/><path class="cls-28" d="M2692.54,1424.09c-47.82,8.19-54.66,98.38-54.66,98.38,60.13,87.46,112.06,82,112.06,82,53.29-75.15,26-129.81,26-129.81C2755.4,1443.22,2692.54,1424.09,2692.54,1424.09Z"/><path class="cls-19" d="M2692.88,1440.76c-2.75.12,52.71,15.92,76.88,34C2769.76,1474.8,2766.46,1437.46,2692.88,1440.76Z"/><path class="cls-15" d="M2649.49,1372.9l-80.5-13a13,13,0,0,0-14.84,10.73l-28.87,179.38a13,13,0,0,0,10.73,14.85l80.5,12.95a12.94,12.94,0,0,0,14.84-10.73l28.87-179.38A13,13,0,0,0,2649.49,1372.9Z"/><path d="M2650.11,1369.06l-80.5-13a16.86,16.86,0,0,0-19.31,14l-28.87,179.39a16.84,16.84,0,0,0,14,19.3l80.5,13a17.5,17.5,0,0,0,2.68.22,16.89,16.89,0,0,0,16.63-14.18l28.87-179.38a16.84,16.84,0,0,0-14-19.31Zm6.26,18.07-28.87,179.39a9.05,9.05,0,0,1-10.37,7.49l-80.5-13a9.06,9.06,0,0,1-7.5-10.38L2558,1371.3a9,9,0,0,1,10.37-7.5l80.5,13a9.06,9.06,0,0,1,7.5,10.38Z"/><path class="cls-19" d="M2703.18,1291.7s-15,111.44-10.76,147.57l26.9,6.15S2697,1409.29,2703.18,1291.7Z"/><g class="cls-29"><path class="cls-3" d="M2504,1622.48c-1.48,7.48,25.38,400.14-340.07,532-.27.12-.58.2-.86.32,0,0,.67.27,1.91.74a8.54,8.54,0,0,1,1,.42c115.56-32,324.87,14.78,324.87,14.78,29.66-164,28.18-358.78,15.75-534.53C2505,1627.35,2504,1622.48,2504,1622.48Z"/></g><g class="cls-29"><path class="cls-3" d="M2778.33,1710.84c-20.66,27.36-51.21,80.57-48.49,153.14,4.1,108.75,49,202.56,17.66,261-6.55,12.2-1.83,22.92,9.86,31.53,5.69-1.71,11.62-3.59,17.85-5.57,44.59-14.23,76.24-22.1,98.61-26.31,3.28-3.94,6.36-8,9.32-12.16,0,0,10.64-24.4-33.56-126.52C2831,1943.06,2803.67,1835.06,2778.33,1710.84Z"/></g><path d="M2681.72,1439.43c-13.33-4.89-60.87,87.47-18.17,105,41.06,16.87,60.75-25.88,60.19-66.94C2723.21,1438.55,2682.63,1439.76,2681.72,1439.43Z"/><path class="cls-23" d="M2655.12,1455.64c1.15.07,1.8.09,1.8.09Z"/><path class="cls-23" d="M2700.89,1456l-28.06-16.17s-74.51-9.91-74.68,1.7c-.15,10.41,47.12,13.59,57,14.14l1.8.09s-.65,0-1.8-.09c-12-.59-80.3-3.55-72,6.86,7.56,9.49,51,12.18,65.42,12.82,2.9.1,4.64.18,4.64.18s-1.73,0-4.64-.18c-15.4-.5-63.62-1.37-58.48,7.47,6.11,10.5,56.17,10.86,56.17,10.86-12.76-.07-57.87,3.21-54.31,11s32.35-1.59,45.09,11.83c8.2,8.63,25.49,13.86,36.77,16.48a22.72,22.72,0,0,0,19.47-4.39C2740.19,1490.55,2700.89,1456,2700.89,1456Z"/><path class="cls-23" d="M2648.54,1475.32c2.91.13,4.64.18,4.64.18S2651.44,1475.42,2648.54,1475.32Z"/><path class="cls-30" d="M2701.87,1454.86l-28.3-16.35-.25-.15-.29,0c-6.64-.89-65.14-8.39-74.72-.13a4.35,4.35,0,0,0-1.64,3.28c-.05,3.34,2.51,8,23.6,11.84-35.94.18-38.14,4.43-39,6a3.58,3.58,0,0,0,.66,4.07c4.15,5.21,18,8.45,32.46,10.45-12.48.65-23.54,2.27-25.71,5.86a3.57,3.57,0,0,0,.07,3.8c3.43,5.89,18.36,8.79,32.2,10.22-13.35,1.39-27.41,3.89-30.14,8.11a3.46,3.46,0,0,0-.27,3.42c1.94,4.24,8.52,4.4,16.85,4.59,9.68.22,21.73.5,28.51,7.65,8.24,8.67,25,14,37.51,16.9a24.38,24.38,0,0,0,20.75-4.68c15.36-12.45,23.3-25.9,23.58-40C2718.18,1469.45,2702.53,1455.44,2701.87,1454.86Zm-9.55,72.59a21.44,21.44,0,0,1-18.21,4.1c-10-2.32-27.88-7.49-36-16.07-7.63-8-20.36-8.33-30.59-8.57-6.72-.15-13.06-.3-14.22-2.85a.51.51,0,0,1,.06-.58c3.37-5.21,38-8.34,52.34-8.34a3.36,3.36,0,0,0,.55,0h0l0-3h0c-.33,0-12.7-.12-25.65-1.48-22.45-2.37-28-6.43-29.25-8.64-.27-.48-.17-.65-.1-.77,2.67-4.4,32.27-5.28,55.62-4.54,3.52.16,5.82.23,6.28.24l.11-3c-1.5-.07-3.91-.17-6.94-.26-19.84-1-55.76-4.3-62-12.17-.32-.4-.43-.68-.34-.86,2.32-4.5,37.12-5.37,70.33-3.64l2.58.14.15-3-3.44-.17c-27.15-1.5-54-6.44-53.93-12.55a1.46,1.46,0,0,1,.62-1.08c7.21-6.23,54.2-1.58,72.09.78l27.67,16c1.33,1.23,15.17,14.45,14.79,32.57C2714.53,1502.89,2707,1515.58,2692.32,1527.45Z"/><path class="cls-31" d="M2583.45,912.7c-26.85,12.53-50.73,13.65-71,3.35-22.16-11.29-36.16-34.5-44-52a184.61,184.61,0,0,1-11.91-36,2.67,2.67,0,0,0-5.25,1,187.41,187.41,0,0,0,12.24,37c8.2,18.31,22.92,42.65,46.49,54.67a69.55,69.55,0,0,0,32,7.58c13.61,0,28.22-3.61,43.7-10.84a2.67,2.67,0,1,0-2.26-4.84Z"/><path class="cls-3" d="M2377.82,898.64a41.29,41.29,0,0,0,7,82,40.41,40.41,0,0,0,7.06-.61,41.29,41.29,0,0,0-14.09-81.37Zm13.43,77.53A37.39,37.39,0,1,1,2421.71,933,37.44,37.44,0,0,1,2391.25,976.17Z"/><path class="cls-3" d="M2514.43,931.54a41.29,41.29,0,1,0-40.71,48.34,41.51,41.51,0,0,0,7.07-.61,41.28,41.28,0,0,0,33.64-47.73Zm-10.12,28.59a37.4,37.4,0,1,1,6.28-27.93h0A37.2,37.2,0,0,1,2504.31,960.13Z"/><rect class="cls-3" x="2424.51" y="938.55" width="9.34" height="3.9" transform="translate(-73.48 217.88) rotate(-5.06)"/><rect class="cls-3" x="2535.12" y="916.86" width="3.9" height="55.18" transform="translate(539.87 2771.99) rotate(-62.88)"/><path class="cls-23" d="M2606.1,928.62c-26.19-15.17-59,31.54-63.11,30.77l11.92,50.3C2628.79,997.51,2632.29,943.8,2606.1,928.62Z"/><path class="cls-25" d="M2607.13,926.84c-20.88-12.1-44.68,11.54-57.46,24.24-2.7,2.67-5.74,5.69-6.8,6.25a2.06,2.06,0,0,0-.27,4.08c2,.39,3.87-1.35,10-7.41,12-11.92,34.34-34.11,52.5-23.59,10.45,6.05,15.65,18.47,13.24,31.63-4.15,22.67-28,39.72-63.74,45.61a2.06,2.06,0,0,0,.34,4.1l.33,0c37.56-6.19,62.64-24.48,67.12-48.94C2625.08,947.89,2619.11,933.78,2607.13,926.84Z"/><path class="cls-27" d="M2560.16,984.39l36.65-40.13C2575.15,949.62,2560.16,984.39,2560.16,984.39Z"/><path class="cls-32" d="M2596.32,942.26c-22.4,5.54-37.42,39.86-38.05,41.32a2.05,2.05,0,0,0,1.08,2.7,1.93,1.93,0,0,0,.81.17,2,2,0,0,0,1.89-1.24c.15-.34,14.83-33.9,35.26-39a2.06,2.06,0,0,0-1-4Z"/><path class="cls-27" d="M2565.74,974.88s32.36,13.54,26.29-27.09Z"/><path class="cls-32" d="M2591.72,945.75a2.06,2.06,0,0,0-1.73,2.34c1.84,12.3.28,20.48-4.65,24.33-6.92,5.4-18.69.6-18.8.55a2.07,2.07,0,0,0-2.7,1.11,2.05,2.05,0,0,0,1.11,2.69,33.58,33.58,0,0,0,11.78,2.34,17.76,17.76,0,0,0,11.13-3.44c6.19-4.82,8.28-14.3,6.2-28.19A2.06,2.06,0,0,0,2591.72,945.75Z"/><path class="cls-31" d="M2563,862.23c-15,10.2-29.5,13.06-43,8.49-9.44-3.2-23.64-12-37.72-35.7a164.39,164.39,0,0,1-13.44-28.78,2.67,2.67,0,0,0-5.07,1.69c.75,2.27,18.94,55.79,54.51,67.85a44.93,44.93,0,0,0,14.51,2.41c10.76,0,21.87-3.85,33.2-11.53a2.68,2.68,0,0,0-3-4.43Z"/><path class="cls-22" d="M2364.58,1006.75c-.36-.08-37-7.67-50.59-34.27a1.95,1.95,0,1,0-3.47,1.77c6,11.75,17.11,21.75,32.18,28.94,1.62.78,3.21,1.48,4.74,2.11-16.08-.72-37.9.13-41.24,9.7a2,2,0,0,0,1.2,2.48,2.05,2.05,0,0,0,.64.11,2,2,0,0,0,1.84-1.31c3-8.72,34.79-8.12,54.08-5.69a1.95,1.95,0,0,0,.62-3.84Z"/><polygon class="cls-19" points="2360.67 1231.42 2419.24 1232.87 2425.03 1206.84 2361.9 1219.87 2360.67 1231.42"/><path class="cls-3" d="M2425.44,1103.93s-32.49,17.8-39.94,35.19-23.6,80.75-23.6,80.75l54.66,5-34.79,24.85s116.73,260.57,121.7,307.77c0,0-2.43-192.24-19.83-253.11C2483.64,1304.35,2443.72,1122.21,2425.44,1103.93Z"/><path class="cls-23" d="M2537.77,1493.48c-7.9.73-13.48,1.45-13.48,1.45S2529.87,1494.45,2537.77,1493.48Z"/><path class="cls-23" d="M2524.13,1476.91l-.17,0Z"/><path class="cls-23" d="M2537.77,1493.48c-7.9,1-13.48,1.45-13.48,1.45s5.58-.72,13.48-1.45c18.68-2.3,50.32-7.37,51.74-15.51,2-11.25-61.74-1.62-65.38-1.06l-.17,0,.17,0c3.25-.5,53.26-8.41,55.41-17.31,2.22-9.19-73-4-73-4s26.81-20.4,19.8-24c-17.18-8.8-74.55,29.84-74.55,29.84-.94,3.09-29.73,53-5.58,82.75,0,0,106.59-3.65,125-20.83,0,0,11-11.66-18.11-9.6-11.06,1.87-20.32,2.66-20.32,2.66a202.89,202.89,0,0,1,20.32-2.66c15.26-2.59,34-7.25,36.45-14.78C2592.58,1489.69,2557.75,1491.63,2537.77,1493.48Z"/><path class="cls-23" d="M2553,1513.77a202.89,202.89,0,0,0-20.32,2.66S2542,1515.64,2553,1513.77Z"/><path class="cls-30" d="M2565.15,1490.51c24.53-5.23,25.44-10.46,25.76-12.29a4,4,0,0,0-1.15-3.6c-3.78-3.85-18.1-4-32.49-2.95,11.91-3.15,22.56-7.19,23.65-11.73a3,3,0,0,0-.68-2.74c-5.55-6.57-51.85-4.39-69.21-3.32,6.57-5.3,18.34-15.58,17.88-20.76a3.39,3.39,0,0,0-1.93-2.78c-17.72-9.08-73.62,28.34-76,29.93l-.41.3-.15.47c-.08.24-.57,1.25-1.08,2.31-2.77,5.71-9.24,19.08-12.41,34.61-4,19.65-1.26,35.51,8.17,47.14l.44.55.71,0c4.38-.15,107.33-3.88,125.93-21.28.16-.17,3.83-4.11,1.86-7.76-1.09-2-3.69-3.38-7.83-4,14.64-3.53,22.92-7.93,24.63-13.12a4.33,4.33,0,0,0-.75-4.32C2587.15,1491.55,2576.81,1490.43,2565.15,1490.51Zm23,8c-2.17,6.56-19.48,11.11-35.11,13.79q-8.54.6-20.55,2.69l.36,2.83c.11,0,9.41-.81,20.41-2.67,14.22-1,17.54,1.38,18.28,2.75,1,1.8-1.36,4.4-1.36,4.4h0c-17,15.89-114,20.06-123.3,20.42-16.73-21.41-6.54-54.27,5-78.16.53-1.09.85-1.75,1-2.2,2.35-1.56,15.57-10.23,30.35-17.9,21.14-11,35.8-15,42.39-11.61.34.17.37.31.39.49.29,3.26-10.14,13.29-20.4,21.1l-3.79,2.88,4.75-.33c48-3.31,69.29-.52,71.43,2,.12.13.11.17.09.23-1.35,5.62-31.78,12.74-53.49,16.12l-.91.14h0l.44,2.82,1.12-.18c22.77-3.48,57.39-6.68,62.43-1.55a1.15,1.15,0,0,1,.37,1.11c-1.07,6.13-26.13,11.27-48.4,14.11-7.75.69-13.79,1.44-15.59,1.67l.3,2.84c.1,0,6.05-.52,14.29-1.55,20.89-1.88,45.38-2.49,49.19,2.14A1.5,1.5,0,0,1,2588.14,1498.54Z"/></g></svg>