<svg xmlns="http://www.w3.org/2000/svg" viewBox="0 0 4680 3120"><defs><style>.cls-1,.cls-15{fill:#fff;}.cls-1{opacity:0;}.cls-2{fill:#2c5cc6;}.cls-3{fill:#ffe6eb;}.cls-4{fill:#ffcad2;}.cls-5{fill:#ffb8c0;}.cls-6{fill:#0c083f;}.cls-7{fill:#fcfaeb;}.cls-8{opacity:0.33;}.cls-9{fill:#fff5bb;}.cls-10{fill:#efefef;}.cls-11{fill:#ff8931;}.cls-12{fill:#f77116;}.cls-13{fill:#c15206;}.cls-14{fill:#ffe48f;}.cls-16{fill:#d4d4d4;}.cls-17{fill:#fff4d7;}.cls-18{fill:#ffc950;}.cls-19{fill:#f9a319;}.cls-20{fill:#fff0b3;}.cls-21{opacity:0.38;}.cls-22{fill:#8e8c87;}.cls-23{fill:#010021;}.cls-24{fill:#ffd8d2;}.cls-25{opacity:0.51;}.cls-26{fill:#ff9688;}.cls-27{fill:#f22a72;}.cls-28{fill:#0c0a5b;}.cls-29{fill:#991c31;}.cls-30{fill:#2d0a03;}</style></defs><title>03</title><g id="_03" data-name="03"><rect id="_03-2" data-name="03" class="cls-1" width="4680" height="3120"/><rect class="cls-2" x="1959.46" y="1871.54" width="99.5" height="616.32" rx="49.75"/><rect class="cls-3" x="810.48" y="445.47" width="559.26" height="186.35" rx="37.9"/><rect class="cls-3" x="810.48" y="1837.15" width="559.26" height="186.35" rx="37.9"/><rect class="cls-3" x="892.89" y="678.61" width="476.85" height="186.35" rx="37.9"/><rect class="cls-4" x="1011.2" y="911.75" width="358.54" height="186.35" rx="37.9"/><rect class="cls-5" x="892.89" y="1375.07" width="476.85" height="186.35" rx="37.9"/><rect class="cls-3" x="1011.2" y="1608.21" width="358.54" height="186.35" rx="37.9"/><rect class="cls-5" x="1090.11" y="1144.89" width="279.63" height="186.35" rx="37.9"/><path class="cls-2" d="M3489.69,2031.48H3100.32V1921.29a49.75,49.75,0,0,0-99.5,0v110.19H2073.17V1921.29a49.75,49.75,0,0,0-99.5,0v110.19H1522.59a37.9,37.9,0,0,0-37.89,37.89v14.36a37.89,37.89,0,0,0,37.89,37.89h451.08v316.49a49.75,49.75,0,1,0,99.5,0V2121.62h927.65v316.49a49.75,49.75,0,0,0,99.5,0V2121.62h389.37a37.88,37.88,0,0,0,37.88-37.89v-14.36A37.89,37.89,0,0,0,3489.69,2031.48Z"/><rect class="cls-6" x="1470.5" y="2031.48" width="2042.87" height="90.14" rx="40"/><path class="cls-6" d="M3036.37,1871.54h0a49.75,49.75,0,0,0-49.75,49.75v516.82a49.75,49.75,0,0,0,49.75,49.75h0a49.74,49.74,0,0,0,49.74-49.75V1921.29A49.75,49.75,0,0,0,3036.37,1871.54Z"/><rect class="cls-2" x="1427.72" y="365.57" width="2071.68" height="1633.76" rx="96.84"/><rect class="cls-2" x="1491.32" y="410.21" width="1944.33" height="1532.37" rx="96.84"/><rect class="cls-6" x="1427.72" y="365.57" width="2050.37" height="1608.14" rx="96.84"/><rect class="cls-7" x="1490.66" y="409.51" width="1924.33" height="1508.35" rx="96.84"/><g class="cls-8"><rect class="cls-9" x="1786.22" y="611.83" width="1354.53" height="1061.72" rx="96.84"/></g><path class="cls-10" d="M1578.51,771.79c0,119.78,97.38,217.82,220.62,225.83V913.9c-75-7.76-133.32-68.42-133.32-142.11s58.36-134.36,133.32-142.12V546C1675.89,554,1578.51,652,1578.51,771.79Z"/><path class="cls-10" d="M1954.2,718.23a137,137,0,0,1,10.86,53.56c0,79-67,143-149.62,143a156.9,156.9,0,0,1-16.31-.85v83.72c5.39.35,10.82.54,16.31.54,130.85,0,236.92-101.35,236.92-226.37a217.15,217.15,0,0,0-18.35-87.5Z"/><path class="cls-10" d="M1815.44,545.41c-5.49,0-10.92.2-16.31.55v83.71a159.71,159.71,0,0,1,16.31-.85c62.81,0,116.57,37,138.76,89.41L2034,684.29C1998.19,602.71,1913.82,545.41,1815.44,545.41Z"/><path class="cls-11" d="M1564.65,771.79c0,119.78,97.38,217.82,220.62,225.83V913.9c-75-7.76-133.32-68.42-133.32-142.11s58.35-134.36,133.32-142.12V546C1662,554,1564.65,652,1564.65,771.79Z"/><path class="cls-12" d="M1940.33,718.23a137,137,0,0,1,10.87,53.56c0,79-67,143-149.63,143a156.71,156.71,0,0,1-16.3-.85v83.72c5.39.35,10.82.54,16.3.54,130.85,0,236.93-101.35,236.93-226.37a217,217,0,0,0-18.36-87.5Z"/><path class="cls-13" d="M1801.57,545.41c-5.48,0-10.91.2-16.3.55v83.71a159.51,159.51,0,0,1,16.3-.85c62.82,0,116.58,37,138.76,89.41l79.81-33.94C1984.33,602.71,1900,545.41,1801.57,545.41Z"/><rect class="cls-11" x="2098.18" y="533.17" width="645.57" height="70.68" rx="21.1"/><rect class="cls-14" x="2260.32" y="1147.1" width="477.42" height="70.68" rx="21.1"/><rect class="cls-14" x="2267.43" y="1282.31" width="477.42" height="477.42" rx="21.1"/><rect class="cls-13" x="2131.15" y="656.42" width="90.21" height="90.21"/><rect class="cls-12" x="2131.15" y="794.97" width="90.21" height="90.21"/><rect class="cls-11" x="2131.15" y="950.21" width="90.21" height="90.21"/><path class="cls-13" d="M2683.13,695.68H2251.82a2.5,2.5,0,0,1,0-5h431.31a2.5,2.5,0,0,1,0,5Z"/><path class="cls-14" d="M1919.71,1266.1a33.23,33.23,0,0,0-11.37,2v-89.79a16.4,16.4,0,0,0-16.39-16.4h-90.58a33.16,33.16,0,1,0-60.73,0h-90.58a16.41,16.41,0,0,0-16.4,16.4V1259a33.15,33.15,0,1,0,0,63.54v97.7a16.4,16.4,0,0,0,16.4,16.39h82.78a33.15,33.15,0,1,0,65.63,6.63,33.73,33.73,0,0,0-.66-6.63H1892a16.39,16.39,0,0,0,16.39-16.39v-89.8a33.15,33.15,0,1,0,11.37-64.3Z"/><path class="cls-14" d="M1919.71,1550.69a33.23,33.23,0,0,0-11.37,2V1462.9a16.39,16.39,0,0,0-16.39-16.4h-94.14a33.73,33.73,0,0,1,.66,6.63,33.15,33.15,0,1,1-65.63-6.63h-82.78a16.4,16.4,0,0,0-16.4,16.4v80.65a33.15,33.15,0,1,0-9.47,64.92,33.21,33.21,0,0,0,9.47-1.38v97.69a16.4,16.4,0,0,0,16.4,16.4h82.78a33.15,33.15,0,1,0,65.63,6.63,33.73,33.73,0,0,0-.66-6.63H1892a16.39,16.39,0,0,0,16.39-16.4V1615a33.15,33.15,0,1,0,11.37-64.3Z"/><path class="cls-14" d="M2204.38,1550.69a33.13,33.13,0,0,0-11.36,2V1462.9a16.4,16.4,0,0,0-16.4-16.4h-94.14a33.73,33.73,0,0,1,.66,6.63,33.15,33.15,0,1,1-65.63-6.63h-82.78a16.39,16.39,0,0,0-16.39,16.4v89.79a33.15,33.15,0,1,1,0,62.3v89.79a16.39,16.39,0,0,0,16.39,16.4h82.78a33.15,33.15,0,1,0,65.63,6.63,33.73,33.73,0,0,0-.66-6.63h94.14a16.4,16.4,0,0,0,16.4-16.4V1615a33.15,33.15,0,1,0,11.36-64.3Z"/><path class="cls-13" d="M2683.13,843.73H2251.82a2.5,2.5,0,0,1,0-5h431.31a2.5,2.5,0,0,1,0,5Z"/><path class="cls-13" d="M2683.13,997.81H2251.82a2.5,2.5,0,0,1,0-5h431.31a2.5,2.5,0,0,1,0,5Z"/><path class="cls-11" d="M1902.66,1266.1a33.13,33.13,0,0,0-11.36,2v-89.79a16.41,16.41,0,0,0-16.4-16.4h-90.58a33.16,33.16,0,1,0-60.73,0H1633a16.4,16.4,0,0,0-16.39,16.4V1259a33.15,33.15,0,1,0,0,63.54v97.7a16.39,16.39,0,0,0,16.39,16.39h82.78a33.15,33.15,0,1,0,65.63,6.63,33.73,33.73,0,0,0-.66-6.63h94.14a16.4,16.4,0,0,0,16.4-16.39v-89.8a33.15,33.15,0,1,0,11.36-64.3Z"/><path class="cls-12" d="M1902.66,1550.69a33.13,33.13,0,0,0-11.36,2V1462.9a16.4,16.4,0,0,0-16.4-16.4h-94.14a33.73,33.73,0,0,1,.66,6.63,33.15,33.15,0,1,1-65.63-6.63H1633a16.39,16.39,0,0,0-16.39,16.4v80.65a33.15,33.15,0,1,0-9.48,64.92,33.33,33.33,0,0,0,9.48-1.38v97.69a16.39,16.39,0,0,0,16.39,16.4h82.78a33.15,33.15,0,1,0,65.63,6.63,33.73,33.73,0,0,0-.66-6.63h94.14a16.4,16.4,0,0,0,16.4-16.4V1615a33.15,33.15,0,1,0,11.36-64.3Z"/><path class="cls-13" d="M2187.33,1550.69a33.13,33.13,0,0,0-11.36,2V1462.9a16.4,16.4,0,0,0-16.4-16.4h-94.14a33.16,33.16,0,1,1-65,0h-82.78a16.39,16.39,0,0,0-16.39,16.4v89.79a33.15,33.15,0,1,1,0,62.3v89.79a16.39,16.39,0,0,0,16.39,16.4h82.78a33.15,33.15,0,1,0,65,0h94.14a16.4,16.4,0,0,0,16.4-16.4V1615a33.15,33.15,0,1,0,11.36-64.3Z"/><rect class="cls-14" x="1982.22" y="1213.17" width="148.93" height="138.29" rx="30"/><path class="cls-14" d="M3357.7,686.24a18.91,18.91,0,0,0-24.08-12l-24.23,8.23a171,171,0,0,0-70.9-71l5.81-14.5a19.1,19.1,0,0,0-10.54-24.87L3212,563.37a19.09,19.09,0,0,0-24.78,10.72l-7.45,18.63a171.82,171.82,0,0,0-85.27,10.81l-10-21a18.92,18.92,0,0,0-25.41-8.83l-21.18,10.35a19.27,19.27,0,0,0-8.92,25.59l12.79,26.71a173.7,173.7,0,0,0-37.33,48.36l-20.2-8.09a19.1,19.1,0,0,0-24.78,10.73l-8.79,22a19.09,19.09,0,0,0,10.53,24.86l24.62,9.86a173.19,173.19,0,0,0,.65,48.21l-22.16,7.54a19.27,19.27,0,0,0-12.06,24.28l7.42,22.38a18.92,18.92,0,0,0,24.08,12l22.8-7.75a171.51,171.51,0,0,0,48.11,54.58l-7.08,17.7a19.08,19.08,0,0,0,10.53,24.86l21.79,8.72a19.09,19.09,0,0,0,24.79-10.72l5.43-13.58a170.52,170.52,0,0,0,75.22,3.84l9.5,19.85a18.93,18.93,0,0,0,25.41,8.83l21.18-10.35a19.27,19.27,0,0,0,8.92-25.59l-6.75-14.09a173.66,173.66,0,0,0,51.93-46.72l19.7,7.89A19.1,19.1,0,0,0,3340,865.21l8.79-22a19.09,19.09,0,0,0-10.53-24.86l-15.28-6.12a173.72,173.72,0,0,0,5.31-70.93l24.82-8.44a19.27,19.27,0,0,0,12.05-24.28ZM3245,799.4c-20.09,50.18-76.74,74.7-126.54,54.76s-73.87-76.77-53.78-126.95,76.74-74.7,126.53-54.76S3265.13,749.22,3245,799.4Z"/><path class="cls-14" d="M3188.66,1125.7H3172.2a173.57,173.57,0,0,0-21.43-67.83l19.91-17.06a19.28,19.28,0,0,0,2.17-27l-15.21-18a18.92,18.92,0,0,0-26.81-2.19l-19.43,16.65a171,171,0,0,0-92.22-39.58V955a19.09,19.09,0,0,0-19-19.16h-23.47a19.09,19.09,0,0,0-19,19.16v20.07a171.79,171.79,0,0,0-75.14,41.72l-17.11-15.72a18.91,18.91,0,0,0-26.87,1.24l-15.82,17.48a19.27,19.27,0,0,0,1.23,27.08l21.8,20a173.77,173.77,0,0,0-16.68,58.78h-21.76a19.09,19.09,0,0,0-19,19.16v23.66a19.09,19.09,0,0,0,19,19.16h26.51a173.72,173.72,0,0,0,18.53,44.53l-17.78,15.23a19.27,19.27,0,0,0-2.16,27l15.2,18a18.92,18.92,0,0,0,26.81,2.18l18.29-15.67a171.39,171.39,0,0,0,65,32.79v19.07a19.09,19.09,0,0,0,19,19.16h23.47a19.09,19.09,0,0,0,19-19.16v-14.63a170.53,170.53,0,0,0,71.26-24.39l16.2,14.89a18.91,18.91,0,0,0,26.87-1.24l15.82-17.48a19.27,19.27,0,0,0-1.23-27.08l-11.5-10.57a173.79,173.79,0,0,0,30.85-62.67h21.21a19.1,19.1,0,0,0,19-19.16v-23.66A19.1,19.1,0,0,0,3188.66,1125.7ZM2998,1240.56c-53.64,0-97.12-43.82-97.12-97.87s43.48-97.87,97.12-97.87,97.12,43.82,97.12,97.87S3051.63,1240.56,2998,1240.56Z"/><path class="cls-14" d="M3331.79,1488.24a19.1,19.1,0,0,0-22.84-14.41l-16,3.69a173.67,173.67,0,0,0-36.1-61.3l15.58-21.08a19.27,19.27,0,0,0-3.95-26.82l-18.85-14.15a18.91,18.91,0,0,0-26.62,3.88l-15.2,20.58a171,171,0,0,0-98.75-17.9l-3.5-15.23a19.1,19.1,0,0,0-22.84-14.41l-22.87,5.26a19.09,19.09,0,0,0-14.24,22.94l4.5,19.56a171.75,171.75,0,0,0-63.87,57.51l-20.2-11.49a18.92,18.92,0,0,0-25.91,7.24l-11.5,20.57a19.27,19.27,0,0,0,7.28,26.12l25.73,14.64a173.73,173.73,0,0,0-3.08,61l-21.21,4.88a19.1,19.1,0,0,0-14.23,23l5.3,23a19.09,19.09,0,0,0,22.83,14.41l25.84-5.94a173.16,173.16,0,0,0,28,39.23l-13.91,18.83a19.27,19.27,0,0,0,4,26.82l18.85,14.15a18.92,18.92,0,0,0,26.62-3.88l14.31-19.38a171.39,171.39,0,0,0,70.65,17.4l4.28,18.58a19.09,19.09,0,0,0,22.83,14.41l22.88-5.26a19.09,19.09,0,0,0,14.23-22.94l-3.27-14.26a170.33,170.33,0,0,0,64-39.75l19.14,10.89a18.91,18.91,0,0,0,25.9-7.24l11.5-20.58a19.27,19.27,0,0,0-7.27-26.11l-13.58-7.72a173.6,173.6,0,0,0,16-68l20.68-4.76a19.1,19.1,0,0,0,14.24-23Zm-182.9,140.28c-52.27,12-104.47-20.93-116.59-73.6s20.43-105.13,72.7-117.15,104.47,20.92,116.59,73.6S3201.16,1616.49,3148.89,1628.52Z"/><path class="cls-15" d="M1737.7,2373.61c-18.42-9.65-36.74-11.47-57.86-13.44-17.88-1.68-35.58-10.35-52.95-15.26-93.5-26.38-223.4-37-333.45-23.32a636.52,636.52,0,0,0-76.78,14.12c-21.49,5.37-38.54,13.46-60.86,16.62-13.12,1.85-26.35,3.73-38.71,7.76-21.19,6.92-39.07,20.26-49.31,36.77-25.46,41.08-1.34,85.87,41.36,111.26,5.15,3.06,10.47,5.93,15.91,8.64,61.75,30.81,137.1,44.39,208.45,50.94,82.67,7.58,170,4.82,251.12-10.77,56.34-10.81,128.4-31.53,161.93-72.08,15-18.08,22.13-39.49,22.5-64.16.09-5.81-.16-11.69-2-17.31C1762.93,2390.83,1751.18,2380.67,1737.7,2373.61Z"/><path d="M1422,2573.25c-29.34,0-59-1.34-88.59-4.06-87.87-8.06-156.23-24.77-209-51.08-5.79-2.89-11-5.74-16-8.7-26.39-15.69-44.81-38.15-50.55-61.61-4.32-17.69-1.32-35.58,8.69-51.73,10.39-16.76,28.66-30.39,50.12-37.4,12.53-4.09,26-6,39-7.83,13.6-1.92,25.07-5.64,37.21-9.58,7.46-2.42,15.17-4.93,23.5-7a640.63,640.63,0,0,1,77-14.15c105.93-13.17,237-4,334,23.37,6,1.69,12.08,3.85,18,5.94,11.36,4,23.1,8.18,34.7,9.26,20.32,1.91,39.51,3.7,58.42,13.61,15.6,8.17,26.28,19,30.07,30.64,2,6,2.16,12.38,2.08,17.79-.39,25.68-7.86,47-22.84,65.1-27,32.61-81.74,57-162.8,72.6C1533.56,2568.27,1478.35,2573.25,1422,2573.25Zm-27-256.09a829.06,829.06,0,0,0-101.36,5.92,638.76,638.76,0,0,0-76.61,14.08c-8.22,2.06-15.89,4.54-23.3,7-12.27,4-23.85,7.74-37.71,9.7-12.86,1.82-26.17,3.7-38.45,7.71-20.8,6.79-38.48,20-48.5,36.13-9.58,15.45-12.45,32.54-8.33,49.44,5.55,22.68,23.47,44.46,49.17,59.74,4.92,2.93,10.09,5.74,15.82,8.59,52.41,26.15,120.42,42.76,207.91,50.78,86.24,7.91,172.93,4.2,250.71-10.74,80.36-15.43,134.55-39.51,161.05-71.56,14.54-17.58,21.79-38.26,22.16-63.23.08-5.17-.09-11.2-1.93-16.82-3.55-10.83-13.71-21.1-28.62-28.91-18.37-9.64-37.28-11.41-57.3-13.28-12-1.12-23.89-5.34-35.42-9.42-5.86-2.08-11.91-4.22-17.79-5.88C1559.16,2327.36,1475.34,2317.16,1395,2317.16Z"/><path class="cls-16" d="M1467,2403.45c-16.81-27.3-51.82-43.83-86.17-56.46q-21.11-7.77-42.82-14.35c-12-3.66-27.21-10.13-40-11.27-12.41-1.1-28.41,3.45-40.53,5.61q-20.64,3.69-40.88,8.73c-21.49,5.37-38.54,13.46-60.86,16.62-13.12,1.85-26.35,3.73-38.71,7.76-21.19,6.92-39.07,20.26-49.31,36.77-25.46,41.08-1.34,85.87,41.36,111.26,5.15,3.06,10.47,5.93,15.91,8.64,61.75,30.81,137.1,44.39,208.45,50.94,6.1.56,50.26,6.28,49.2.58-.27-1.45-1.49-2.64-2.42-3.9-5.08-6.79-2-15.58,2.15-22.76,12.2-20.84,32.84-37.69,54.79-52.43,10-6.73,20.45-13.16,29-21.07.82-.76,1.63-1.53,2.42-2.31,8.12-8,14.15-17.21,11.52-27.47C1477.18,2426.56,1473.71,2414.3,1467,2403.45Z"/><path class="cls-15" d="M1745.34,2363.14c-25.21-21.42-67.72-40.42-117.51-54.47-93.5-26.38-223.4-37-333.45-23.32-119.59,14.88-208.53,56.34-229.07,102.37-12.86,28.81,2.28,58.9,44.77,84.16,71,42.23,207.4,67.3,338.38,63,81.25-2.69,157.63-16.39,215.8-37,1.69-.6,3.37-1.21,5-1.82,35.5-13.08,63-29.12,80.26-46.54C1776.72,2422,1778.34,2391.17,1745.34,2363.14Z"/><path d="M1418.91,2536.83c-122.38,0-244-24.65-309.6-63.66-42.69-25.38-58.81-56-45.37-86.06,10.34-23.18,37.36-45.18,78.14-63.62,41.31-18.68,93.91-32.38,152.12-39.63,105.92-13.17,237-4,334,23.37,51.75,14.6,93.69,34.05,118.07,54.76h0c16,13.63,24.51,28.29,25.17,43.57s-6.37,30.33-20.87,45c-17.45,17.63-45.39,33.85-80.81,46.9q-2.49.92-5,1.82c-60.1,21.29-136.9,34.46-216.25,37.08C1438.66,2536.67,1428.77,2536.83,1418.91,2536.83Zm-23-255.91a829,829,0,0,0-101.35,5.92c-57.92,7.21-110.22,20.82-151.25,39.38-40.1,18.14-66.61,39.62-76.64,62.11-12.74,28.54,3,57.76,44.16,82.26,70.45,41.89,206.11,67.11,337.57,62.75,79-2.61,155.53-15.72,215.35-36.91,1.69-.59,3.35-1.19,5-1.8,35-12.91,62.58-28.88,79.72-46.2,13.89-14,20.62-28.41,20-42.74s-8.73-28.35-24.11-41.41h0c-24.07-20.44-65.6-39.67-116.95-54.16C1560.1,2291.12,1476.27,2280.92,1395.92,2280.92Z"/><path class="cls-15" d="M1725.52,2361.5c-23.85-19.16-64-36.17-111.1-48.76-88.39-23.64-211.15-33.23-315.12-21.07-113,13.21-197,50.2-216.33,91.32-12.12,25.74,2.22,52.64,42.4,75.25,67.17,37.79,196.06,60.29,319.82,56.5,76.78-2.34,148.93-14.54,203.88-32.91q2.4-.79,4.74-1.61c33.52-11.67,59.51-26,75.79-41.55C1755.24,2414.16,1756.74,2386.58,1725.52,2361.5Z"/><path d="M1417.94,2516.16c-115.78,0-231-22.11-293.06-57-40.2-22.62-55.4-49.8-42.82-76.54,9.71-20.63,35.15-40.21,73.57-56.63,39-16.65,88.61-28.84,143.56-35.27,100-11.69,223.86-3.41,315.49,21.11,48.86,13.07,88.45,30.45,111.47,48.94,15.14,12.17,23.12,25.24,23.71,38.86.58,13.45-6,26.85-19.57,39.82-16.43,15.7-42.76,30.14-76.15,41.76q-2.36.83-4.75,1.62c-56.73,19-129.24,30.67-204.17,33C1436.15,2516,1427,2516.16,1417.94,2516.16Zm-23.4-228.72a825.14,825.14,0,0,0-95.12,5.22c-54.76,6.4-104.21,18.55-143,35.12-38,16.22-63.05,35.46-72.55,55.64-12.07,25.66,2.84,51.92,42,73.95,66.69,37.52,195,60.18,319.3,56.38,74.74-2.29,147-14,203.59-32.87q2.38-.8,4.73-1.61c33.12-11.53,59.2-25.81,75.42-41.32,13.14-12.55,19.51-25.43,19-38.28-.56-13-8.29-25.6-23-37.39-22.8-18.32-62.13-35.57-110.73-48.57C1550.29,2296.62,1470.72,2287.44,1394.54,2287.44Z"/><circle class="cls-17" cx="3908.2" cy="1251.37" r="56.09"/><path class="cls-17" d="M3725.37,476.94a40.5,40.5,0,1,0,40.5,40.5A40.5,40.5,0,0,0,3725.37,476.94Z"/><circle class="cls-17" cx="2835.19" cy="2207.48" r="40.5" transform="translate(-737.11 1820.24) rotate(-31.72)"/><circle class="cls-17" cx="993.74" cy="2179.7" r="40.5" transform="translate(-589 381.5) rotate(-16.85)"/><path class="cls-18" d="M3313.74,2468.85c-18.59-9.74-37.08-11.57-58.4-13.56-18-1.69-35.89-10.45-53.43-15.4-94.36-26.62-225.45-37.35-336.51-23.53a643.83,643.83,0,0,0-77.48,14.24c-21.69,5.42-38.89,13.59-61.42,16.77-13.24,1.88-26.59,3.77-39.06,7.84-21.39,7-39.44,20.44-49.76,37.1-25.7,41.46-1.36,86.67,41.73,112.29,5.19,3.09,10.57,6,16.06,8.72,62.31,31.09,138.36,44.8,210.36,51.4,83.43,7.65,171.53,4.86,253.43-10.86,56.86-10.92,129.57-31.82,163.41-72.74,15.09-18.26,22.33-39.86,22.71-64.76.08-5.86-.17-11.79-2-17.46C3339.2,2486.23,3327.34,2476,3313.74,2468.85Z"/><path class="cls-19" d="M3040.58,2499c-17-27.55-52.3-44.24-87-57q-21.29-7.83-43.21-14.47c-12.16-3.69-27.45-10.22-40.33-11.37-12.52-1.12-28.67,3.48-40.9,5.66q-20.84,3.72-41.25,8.8c-21.69,5.42-38.89,13.59-61.42,16.77-13.24,1.88-26.59,3.77-39.06,7.84-21.39,7-39.44,20.44-49.76,37.1-25.7,41.46-1.36,86.67,41.73,112.29,5.19,3.09,10.57,6,16.06,8.72,62.31,31.09,138.36,44.8,210.36,51.4,6.16.57,50.72,6.34,49.65.59-.27-1.47-1.5-2.67-2.44-3.93-5.13-6.85-2.07-15.73,2.17-23,12.31-21,33.14-38,55.29-52.92,10.11-6.78,20.64-13.27,29.3-21.26.84-.76,1.66-1.54,2.45-2.33,8.19-8.09,14.28-17.37,11.63-27.72C3050.82,2522.29,3047.32,2509.92,3040.58,2499Z"/><path class="cls-7" d="M3321.45,2458.29c-25.45-21.62-68.34-40.79-118.59-55-94.36-26.63-225.45-37.35-336.51-23.53-120.68,15-210.45,56.85-231.17,103.31-13,29.07,2.3,59.43,45.18,84.93,71.68,42.61,209.3,67.91,341.48,63.54,82-2.72,159.08-16.55,217.79-37.34q2.55-.9,5.06-1.83c35.82-13.2,63.6-29.39,81-47C3353.11,2517.72,3354.75,2486.58,3321.45,2458.29Z"/><path class="cls-14" d="M2653,2478.32c-12.23,26,2.25,53.12,42.79,75.94,67.78,38.13,197.86,60.84,322.76,57,2.85-.08,5.69-.19,8.54-.3l-205.31-217.2C2733.18,2410.87,2669.58,2443.09,2653,2478.32Z"/><path class="cls-20" d="M2871.32,2386.16c-17.23,2-33.78,4.58-49.54,7.62L3027.09,2611c48.57-1.95,95.1-7.79,136.42-16.59l-201.84-213.53A825.84,825.84,0,0,0,2871.32,2386.16Z"/><path class="cls-14" d="M3301.45,2456.63c-24.07-19.33-64.63-36.5-112.12-49.2-64.51-17.26-147.16-27.09-227.66-26.57l201.84,213.53a560.15,560.15,0,0,0,60.79-16.32q2.41-.81,4.78-1.63c33.83-11.78,60.06-26.23,76.48-41.93C3331.44,2509.77,3333,2481.94,3301.45,2456.63Z"/><path class="cls-20" d="M2974.58,2613.43a8,8,0,0,1-5.91-2.61l-179.43-197a8,8,0,0,1,11.83-10.78l179.42,197a8,8,0,0,1-5.91,13.38Z"/><path class="cls-18" d="M3251.3,2421.17c-18.58-9.74-37.07-11.57-58.39-13.57-18-1.68-35.9-10.44-53.43-15.39-94.37-26.63-225.46-37.35-336.51-23.53a644,644,0,0,0-77.49,14.24c-21.69,5.42-38.89,13.59-61.41,16.77-13.24,1.87-26.6,3.77-39.07,7.84-21.39,7-39.43,20.44-49.76,37.1-25.69,41.46-1.36,86.67,41.73,112.29,5.2,3.09,10.57,6,16.06,8.72,62.31,31.09,138.36,44.8,210.36,51.4,83.43,7.65,171.54,4.86,253.43-10.86,56.86-10.92,129.58-31.83,163.41-72.75,15.1-18.25,22.33-39.85,22.71-64.75.09-5.87-.17-11.79-2-17.46C3276.77,2438.55,3264.91,2428.3,3251.3,2421.17Z"/><path class="cls-19" d="M2978.14,2451.29c-17-27.55-52.3-44.24-87-57q-21.28-7.83-43.21-14.48c-12.16-3.68-27.45-10.22-40.32-11.36-12.52-1.12-28.68,3.48-40.9,5.66q-20.84,3.72-41.26,8.8c-21.69,5.42-38.89,13.59-61.41,16.77-13.24,1.87-26.6,3.77-39.07,7.84-21.39,7-39.43,20.44-49.76,37.1-25.69,41.46-1.36,86.67,41.73,112.29,5.2,3.09,10.57,6,16.06,8.72,62.31,31.09,138.36,44.8,210.36,51.4,6.16.56,50.73,6.34,49.65.58-.27-1.46-1.5-2.66-2.44-3.93-5.12-6.85-2.07-15.72,2.17-23,12.31-21,33.14-38,55.29-52.91,10.11-6.79,20.64-13.27,29.31-21.26.83-.76,1.65-1.54,2.45-2.33,8.18-8.09,14.27-17.37,11.62-27.72C2988.39,2474.6,2984.89,2462.24,2978.14,2451.29Z"/><path class="cls-7" d="M3259,2410.6c-25.44-21.61-68.34-40.78-118.58-55-94.37-26.63-225.46-37.35-336.51-23.54-120.69,15-210.45,56.86-231.18,103.31-13,29.07,2.3,59.44,45.18,84.93,71.68,42.62,209.3,67.92,341.48,63.54,82-2.71,159.08-16.54,217.79-37.33l5.07-1.83c35.82-13.2,63.59-29.4,81-47C3290.68,2470,3292.32,2438.89,3259,2410.6Z"/><path class="cls-14" d="M2590.56,2430.64c-12.22,26,2.25,53.12,42.79,75.93,67.79,38.14,197.86,60.85,322.76,57q4.28-.13,8.54-.31L2759.34,2346.1C2670.74,2363.18,2607.14,2395.41,2590.56,2430.64Z"/><path class="cls-20" d="M2808.88,2338.48c-17.22,2-33.77,4.57-49.54,7.62l205.31,217.19c48.57-1.95,95.1-7.78,136.43-16.58l-201.85-213.54A828.45,828.45,0,0,0,2808.88,2338.48Z"/><path class="cls-14" d="M3239,2409c-24.07-19.33-64.63-36.5-112.12-49.21-64.51-17.25-147.16-27.08-227.66-26.57l201.85,213.54a562.88,562.88,0,0,0,60.78-16.32q2.41-.81,4.78-1.64c33.83-11.77,60.06-26.22,76.48-41.92C3269,2462.09,3270.51,2434.26,3239,2409Z"/><path class="cls-20" d="M2912.14,2565.75a8,8,0,0,1-5.91-2.61l-179.43-197a8,8,0,1,1,11.83-10.78l179.43,197a8,8,0,0,1-5.92,13.39Z"/><path class="cls-18" d="M3510.09,2459.41c-15.77-8.93-28.48-24.23-42.45-35.92-75.2-62.92-190.41-126.36-297.39-159.21a645.11,645.11,0,0,0-76.53-18.72c-22-3.93-41-3.52-62.9-9.83-12.85-3.72-25.81-7.45-38.85-8.84-22.37-2.39-44.35,2.5-60.59,13.48-40.41,27.31-36.71,78.52-7.89,119.53,3.48,4.94,7.2,9.78,11.09,14.53,44.13,53.87,107.9,97.51,170.89,133,73,41.13,154.52,74.65,235.67,93.82,56.35,13.32,131.25,24,178.87.52,21.25-10.48,36.69-27.22,47.23-49.79,2.48-5.31,4.67-10.83,5.3-16.76,1.4-13.25-5.23-27.46-14.72-39.54C3544.85,2479.19,3528.73,2470,3510.09,2459.41Z"/><path class="cls-19" d="M3240.24,2323.77q-16.23-15.87-33.51-30.9c-9.58-8.34-20.86-20.56-32.14-26.88-11-6.14-27.58-8.56-39.63-11.57q-20.53-5.15-41.24-8.86c-22-3.93-41-3.52-62.9-9.83-12.85-3.72-25.81-7.45-38.85-8.84-22.37-2.39-44.35,2.5-60.59,13.48-40.41,27.31-36.71,78.52-7.89,119.53,3.48,4.94,7.2,9.78,11.09,14.53,44.13,53.87,107.9,97.51,170.89,133,5.39,3,43.68,26.55,45.06,20.86.35-1.45-.27-3.05-.62-4.59-1.87-8.34,4.55-15.19,11.39-20.06,19.84-14.16,45.8-21.15,72.1-25.65,12-2.06,24.26-3.67,35.44-7.4,1.07-.36,2.14-.74,3.19-1.13,10.78-4,20.14-10,21.95-20.53,2.08-12.11,3.95-24.82,2.28-37.58C3292.06,2379.27,3266.65,2349.59,3240.24,2323.77Z"/><path class="cls-7" d="M3483.48,2390.51c-75.2-62.92-190.42-126.36-297.4-159.21-116.26-35.7-215.28-34.27-253.21-.36-23.73,21.21-22.23,55.17,6.46,96,48,68.22,163.17,147.64,285.56,197.75,75.93,31.08,151.92,50,214,55.08,1.8.14,3.59.28,5.37.4,38.08,2.62,70.06-.79,93.13-9.71,36.36-14.05,50.6-41.8,31.79-81.24C3554.8,2459.06,3523.51,2424,3483.48,2390.51Z"/><path class="cls-14" d="M2951.08,2233.87c-21.78,18.7-19.69,49.39,8,86.8,46.23,62.54,155.62,136.5,271.14,184.14q3.95,1.64,7.91,3.22l-98.42-282.21C3051.85,2205.15,2980.63,2208.52,2951.08,2233.87Z"/><path class="cls-20" d="M3188,2239.15c-16.54-5.22-32.69-9.65-48.32-13.33L3238.1,2508c45.12,18.1,90,31.82,131.27,40.71l-96.76-277.45A828.88,828.88,0,0,0,3188,2239.15Z"/><path class="cls-14" d="M3469.45,2388.72c-51.8-42.15-123.18-84.95-196.84-117.43l96.76,277.45a560.71,560.71,0,0,0,62.13,10c1.69.17,3.37.33,5,.47,35.68,3.11,65.53.66,86.94-6.94,33.74-12,46.51-36.76,28.12-72.75C3537.55,2452,3507.58,2419.75,3469.45,2388.72Z"/><path class="cls-20" d="M3192.46,2489.48a8,8,0,0,1-7.6-5.51l-83.07-253.18a8,8,0,1,1,15.21-5L3200.07,2479a8,8,0,0,1-7.61,10.5Z"/><path class="cls-18" d="M1679.25,2420.23c-18.58-9.74-37.07-11.57-58.39-13.57-18-1.68-35.9-10.44-53.43-15.39-94.36-26.63-225.45-37.35-336.51-23.53a644,644,0,0,0-77.49,14.24c-21.69,5.42-38.89,13.59-61.41,16.77-13.24,1.87-26.6,3.77-39.07,7.84-21.38,7-39.43,20.44-49.76,37.1-25.69,41.46-1.36,86.67,41.73,112.29,5.2,3.09,10.57,6,16.06,8.72,62.32,31.09,138.36,44.8,210.36,51.4,83.43,7.65,171.54,4.86,253.43-10.86,56.86-10.92,129.58-31.83,163.41-72.75,15.1-18.25,22.34-39.85,22.71-64.75.09-5.86-.17-11.79-2-17.46C1704.72,2437.61,1692.86,2427.36,1679.25,2420.23Z"/><path class="cls-19" d="M1406.09,2450.35c-17-27.55-52.29-44.24-87-57q-21.3-7.83-43.22-14.48c-12.16-3.68-27.45-10.22-40.32-11.36-12.52-1.12-28.67,3.48-40.9,5.66q-20.84,3.72-41.26,8.8c-21.69,5.42-38.89,13.59-61.41,16.77-13.24,1.87-26.6,3.77-39.07,7.84-21.38,7-39.43,20.44-49.76,37.1-25.69,41.46-1.36,86.67,41.73,112.29,5.2,3.09,10.57,6,16.06,8.72,62.32,31.09,138.36,44.8,210.36,51.4,6.16.56,50.73,6.34,49.66.58-.28-1.46-1.5-2.66-2.45-3.93-5.12-6.85-2.06-15.72,2.18-23,12.3-21,33.13-38,55.28-52.91,10.11-6.79,20.64-13.27,29.31-21.26.83-.76,1.65-1.54,2.45-2.33,8.18-8.09,14.28-17.37,11.62-27.72C1416.34,2473.66,1412.84,2461.3,1406.09,2450.35Z"/><path class="cls-7" d="M1687,2409.66c-25.44-21.61-68.34-40.78-118.58-55-94.37-26.63-225.46-37.35-336.51-23.54-120.69,15-210.45,56.86-231.18,103.31-13,29.07,2.31,59.44,45.18,84.93,71.68,42.62,209.3,67.92,341.49,63.54,82-2.71,159.08-16.54,217.78-37.33l5.07-1.83c35.82-13.2,63.6-29.4,81-47C1718.63,2469.1,1720.27,2438,1687,2409.66Z"/><path class="cls-14" d="M1018.51,2429.7c-12.22,26,2.25,53.12,42.8,75.93,67.78,38.14,197.85,60.85,322.75,57q4.28-.13,8.54-.31l-205.31-217.19C1098.69,2362.24,1035.09,2394.47,1018.51,2429.7Z"/><path class="cls-20" d="M1236.84,2337.54c-17.23,2-33.78,4.57-49.55,7.62l205.31,217.19c48.57-1.95,95.1-7.78,136.43-16.58l-201.85-213.54A828.12,828.12,0,0,0,1236.84,2337.54Z"/><path class="cls-14" d="M1667,2408c-24.07-19.33-64.63-36.5-112.12-49.21-64.51-17.25-147.16-27.08-227.66-26.57L1529,2545.77a562.25,562.25,0,0,0,60.78-16.32c1.61-.54,3.21-1.09,4.78-1.64,33.83-11.77,60.06-26.22,76.48-41.92C1697,2461.15,1698.47,2433.32,1667,2408Z"/><path class="cls-20" d="M1340.1,2564.81a8,8,0,0,1-5.92-2.61l-179.43-197a8,8,0,1,1,11.83-10.78l179.43,197a8,8,0,0,1-5.91,13.39Z"/><path class="cls-18" d="M1743.85,2374.77c-18.58-9.74-37.07-11.56-58.39-13.56-18-1.69-35.9-10.45-53.43-15.39-94.36-26.63-225.45-37.35-336.51-23.54a643.47,643.47,0,0,0-77.48,14.24c-21.69,5.43-38.9,13.59-61.42,16.78-13.24,1.87-26.6,3.77-39.06,7.84-21.39,7-39.44,20.43-49.77,37.1-25.69,41.46-1.35,86.66,41.73,112.28,5.2,3.09,10.57,6,16.06,8.72,62.32,31.09,138.37,44.8,210.36,51.4,83.43,7.65,171.54,4.87,253.44-10.86,56.85-10.91,129.57-31.82,163.41-72.74,15.09-18.25,22.33-39.85,22.7-64.75.09-5.87-.16-11.8-2-17.47C1769.32,2392.16,1757.46,2381.9,1743.85,2374.77Z"/><path class="cls-19" d="M1470.7,2404.89c-17-27.55-52.3-44.23-87-57q-21.3-7.83-43.22-14.48c-12.15-3.69-27.45-10.22-40.32-11.37-12.52-1.11-28.67,3.48-40.9,5.66q-20.83,3.72-41.25,8.8c-21.69,5.43-38.9,13.59-61.42,16.78-13.24,1.87-26.6,3.77-39.06,7.84-21.39,7-39.44,20.43-49.77,37.1-25.69,41.46-1.35,86.66,41.73,112.28,5.2,3.09,10.57,6,16.06,8.72,62.32,31.09,138.37,44.8,210.36,51.4,6.17.57,50.73,6.35,49.66.59-.27-1.46-1.5-2.67-2.45-3.93-5.12-6.85-2.06-15.72,2.18-23,12.31-21,33.14-38,55.29-52.91,10.1-6.79,20.63-13.28,29.3-21.26.83-.77,1.65-1.55,2.45-2.34,8.19-8.09,14.28-17.37,11.62-27.72C1480.94,2428.21,1477.44,2415.84,1470.7,2404.89Z"/><path class="cls-7" d="M1751.56,2364.21c-25.44-21.61-68.34-40.79-118.58-55-94.36-26.62-225.45-37.34-336.51-23.53-120.69,15-210.45,56.85-231.18,103.31-13,29.07,2.31,59.44,45.18,84.93,71.68,42.62,209.31,67.92,341.49,63.54,82-2.72,159.08-16.55,217.79-37.34q2.55-.9,5.06-1.83c35.82-13.2,63.6-29.39,81-47C1783.23,2423.64,1784.87,2392.5,1751.56,2364.21Z"/><path class="cls-14" d="M1083.11,2384.25c-12.22,26,2.25,53.12,42.8,75.93,67.78,38.14,197.85,60.84,322.75,57,2.86-.09,5.7-.2,8.54-.31l-205.31-217.2C1163.3,2316.79,1099.69,2349,1083.11,2384.25Z"/><path class="cls-20" d="M1301.44,2292.08c-17.23,2-33.78,4.58-49.55,7.62l205.31,217.2c48.57-2,95.11-7.79,136.43-16.58l-201.84-213.54A830.84,830.84,0,0,0,1301.44,2292.08Z"/><path class="cls-14" d="M1731.56,2362.56c-24.07-19.34-64.62-36.5-112.12-49.21-64.51-17.26-147.15-27.09-227.65-26.57l201.84,213.54a561.57,561.57,0,0,0,60.78-16.33q2.41-.81,4.79-1.63c33.83-11.77,60.06-26.23,76.48-41.92C1761.56,2415.69,1763.07,2387.86,1731.56,2362.56Z"/><path class="cls-20" d="M1404.7,2519.36a8,8,0,0,1-5.92-2.62l-179.42-197a8,8,0,1,1,11.83-10.77l179.42,197a8,8,0,0,1-5.91,13.39Z"/><path class="cls-18" d="M1673.37,2265.72c-18.58-9.73-37.07-11.56-58.39-13.56-18-1.69-35.9-10.45-53.43-15.39-94.37-26.63-225.46-37.35-336.51-23.54a644,644,0,0,0-77.49,14.24c-21.69,5.43-38.89,13.59-61.41,16.78-13.24,1.87-26.6,3.77-39.07,7.84-21.39,7-39.43,20.43-49.76,37.1-25.69,41.46-1.36,86.66,41.73,112.28,5.2,3.09,10.57,6,16.06,8.72,62.31,31.09,138.36,44.8,210.36,51.4,83.43,7.66,171.54,4.87,253.43-10.86,56.86-10.91,129.58-31.82,163.41-72.74,15.1-18.25,22.33-39.85,22.71-64.75.09-5.87-.17-11.8-2-17.47C1698.84,2283.11,1687,2272.85,1673.37,2265.72Z"/><path class="cls-19" d="M1400.21,2295.84c-17-27.55-52.3-44.23-87-57Q1292,2231,1270,2224.38c-12.16-3.69-27.45-10.22-40.32-11.37-12.52-1.11-28.68,3.48-40.9,5.66q-20.83,3.72-41.26,8.8c-21.69,5.43-38.89,13.59-61.41,16.78-13.24,1.87-26.6,3.77-39.07,7.84-21.39,7-39.43,20.43-49.76,37.1-25.69,41.46-1.36,86.66,41.73,112.28,5.2,3.09,10.57,6,16.06,8.72,62.31,31.09,138.36,44.8,210.36,51.4,6.16.57,50.73,6.35,49.65.59-.27-1.46-1.5-2.66-2.44-3.93-5.12-6.85-2.07-15.72,2.17-23,12.31-21,33.14-38,55.29-52.91,10.11-6.79,20.64-13.28,29.31-21.26.83-.77,1.65-1.55,2.45-2.34,8.18-8.09,14.27-17.37,11.62-27.72C1410.46,2319.16,1407,2306.8,1400.21,2295.84Z"/><path class="cls-7" d="M1681.08,2255.16c-25.45-21.61-68.34-40.79-118.58-55-94.37-26.63-225.46-37.35-336.51-23.54-120.69,15-210.45,56.85-231.18,103.31-13,29.07,2.3,59.44,45.18,84.93,71.68,42.62,209.3,67.92,341.48,63.54,82-2.72,159.08-16.55,217.79-37.34q2.57-.9,5.07-1.83c35.82-13.2,63.59-29.39,81-47C1712.75,2314.59,1714.39,2283.45,1681.08,2255.16Z"/><path class="cls-14" d="M1012.63,2275.2c-12.22,26,2.25,53.12,42.79,75.93,67.79,38.14,197.86,60.84,322.76,57,2.85-.09,5.7-.2,8.54-.31l-205.31-217.2C1092.81,2207.74,1029.21,2240,1012.63,2275.2Z"/><path class="cls-20" d="M1231,2183c-17.22,2-33.77,4.58-49.54,7.62l205.31,217.2c48.57-1.95,95.1-7.79,136.43-16.58L1321.3,2177.73A831,831,0,0,0,1231,2183Z"/><path class="cls-14" d="M1661.08,2253.51c-24.07-19.34-64.63-36.5-112.12-49.21-64.51-17.26-147.16-27.09-227.66-26.57l201.85,213.54a562.82,562.82,0,0,0,60.78-16.33q2.41-.81,4.78-1.63c33.83-11.77,60.06-26.23,76.48-41.92C1691.07,2306.65,1692.58,2278.81,1661.08,2253.51Z"/><path class="cls-20" d="M1334.21,2410.31a8,8,0,0,1-5.91-2.62l-179.43-197a8,8,0,1,1,11.83-10.77l179.43,197a8,8,0,0,1-5.92,13.39Z"/><path class="cls-18" d="M2058.86,2453.89c-18.59-9.74-37.07-11.57-58.39-13.56-18-1.69-35.9-10.45-53.43-15.4-94.37-26.62-225.46-37.34-336.51-23.53a643.63,643.63,0,0,0-77.49,14.24c-21.69,5.42-38.89,13.59-61.42,16.78-13.24,1.87-26.59,3.77-39.06,7.84-21.39,7-39.44,20.43-49.76,37.1-25.7,41.45-1.36,86.66,41.73,112.28,5.2,3.09,10.57,6,16.06,8.72,62.31,31.09,138.36,44.8,210.36,51.4,83.43,7.65,171.53,4.86,253.43-10.86,56.86-10.92,129.58-31.82,163.41-72.74,15.09-18.26,22.33-39.85,22.71-64.76.09-5.86-.17-11.79-2-17.46C2084.32,2471.27,2072.46,2461,2058.86,2453.89Z"/><path class="cls-19" d="M1785.7,2484c-17-27.55-52.3-44.24-87-57q-21.29-7.83-43.21-14.48c-12.16-3.69-27.45-10.22-40.33-11.37-12.52-1.12-28.67,3.48-40.89,5.66q-20.85,3.72-41.26,8.8c-21.69,5.42-38.89,13.59-61.42,16.78-13.24,1.87-26.59,3.77-39.06,7.84-21.39,7-39.44,20.43-49.76,37.1-25.7,41.45-1.36,86.66,41.73,112.28,5.2,3.09,10.57,6,16.06,8.72,62.31,31.09,138.36,44.8,210.36,51.4,6.16.57,50.72,6.34,49.65.59-.27-1.46-1.5-2.67-2.44-3.93-5.13-6.85-2.07-15.73,2.17-23,12.31-21,33.14-38,55.29-52.91,10.11-6.79,20.64-13.28,29.3-21.26q1.26-1.16,2.46-2.34c8.18-8.09,14.27-17.37,11.62-27.72C1796,2507.33,1792.45,2495,1785.7,2484Z"/><path class="cls-7" d="M2066.57,2443.33c-25.45-21.62-68.34-40.79-118.59-55-94.36-26.62-225.45-37.35-336.51-23.53-120.68,15-210.45,56.85-231.17,103.31-13,29.07,2.3,59.44,45.18,84.93,71.68,42.62,209.3,67.91,341.48,63.54,82-2.72,159.08-16.55,217.79-37.34q2.55-.9,5.07-1.83c35.81-13.2,63.59-29.39,81-47C2098.23,2502.76,2099.87,2471.62,2066.57,2443.33Z"/><path class="cls-14" d="M1398.12,2463.36c-12.22,26,2.25,53.13,42.79,75.94,67.79,38.14,197.86,60.84,322.76,57,2.85-.08,5.7-.19,8.54-.3l-205.31-217.2C1478.3,2395.91,1414.7,2428.13,1398.12,2463.36Z"/><path class="cls-20" d="M1616.44,2371.2c-17.22,2-33.78,4.58-49.54,7.62L1772.21,2596c48.57-1.95,95.1-7.79,136.43-16.59L1706.79,2365.9A828.33,828.33,0,0,0,1616.44,2371.2Z"/><path class="cls-14" d="M2046.57,2441.67c-24.07-19.33-64.63-36.5-112.12-49.2-64.51-17.26-147.16-27.09-227.66-26.57l201.85,213.53a560.57,560.57,0,0,0,60.78-16.32q2.41-.81,4.78-1.63c33.83-11.77,60.06-26.23,76.48-41.93C2076.56,2494.81,2078.07,2467,2046.57,2441.67Z"/><path class="cls-20" d="M1719.7,2598.47a8,8,0,0,1-5.91-2.61l-179.43-197a8,8,0,1,1,11.83-10.77l179.43,197a8,8,0,0,1-5.92,13.38Z"/><path class="cls-18" d="M2166.38,2396c-18.59-9.74-37.08-11.57-58.4-13.57-18-1.68-35.89-10.44-53.43-15.39-94.36-26.63-225.45-37.35-336.51-23.53a643.83,643.83,0,0,0-77.48,14.24c-21.69,5.42-38.89,13.59-61.42,16.77-13.24,1.87-26.59,3.77-39.06,7.84-21.39,7-39.44,20.44-49.76,37.1-25.7,41.46-1.36,86.67,41.73,112.29,5.19,3.09,10.57,6,16.06,8.72,62.31,31.09,138.36,44.8,210.36,51.4,83.43,7.65,171.53,4.86,253.43-10.86,56.86-10.92,129.57-31.83,163.41-72.74,15.09-18.26,22.33-39.86,22.71-64.76.09-5.86-.17-11.79-2-17.46C2191.84,2413.38,2180,2403.13,2166.38,2396Z"/><path class="cls-19" d="M1893.22,2426.12c-17-27.55-52.3-44.24-87-57q-21.29-7.83-43.21-14.48c-12.16-3.68-27.45-10.22-40.33-11.36-12.52-1.12-28.67,3.48-40.89,5.66q-20.85,3.72-41.26,8.8c-21.69,5.42-38.89,13.59-61.42,16.77-13.24,1.87-26.59,3.77-39.06,7.84-21.39,7-39.44,20.44-49.76,37.1-25.7,41.46-1.36,86.67,41.73,112.29,5.19,3.09,10.57,6,16.06,8.72,62.31,31.09,138.36,44.8,210.36,51.4,6.16.56,50.72,6.34,49.65.58-.27-1.46-1.5-2.66-2.44-3.93-5.13-6.85-2.07-15.72,2.17-23,12.31-21,33.14-38,55.29-52.91,10.11-6.79,20.64-13.27,29.3-21.26.84-.76,1.66-1.54,2.45-2.33,8.19-8.09,14.28-17.37,11.63-27.72C1903.46,2449.43,1900,2437.07,1893.22,2426.12Z"/><path class="cls-7" d="M2174.09,2385.43c-25.45-21.61-68.34-40.78-118.59-55-94.36-26.63-225.45-37.35-336.51-23.54-120.68,15-210.45,56.86-231.17,103.31-13,29.07,2.3,59.44,45.18,84.93,71.68,42.62,209.3,67.92,341.48,63.54,82-2.71,159.08-16.54,217.79-37.33l5.06-1.83c35.82-13.2,63.6-29.4,81-47C2205.75,2444.87,2207.39,2413.72,2174.09,2385.43Z"/><path class="cls-14" d="M2154.09,2383.78c-24.07-19.33-64.63-36.5-112.12-49.21-64.51-17.25-147.16-27.08-227.66-26.57a828.3,828.3,0,0,0-90.35,5.31c-17.22,2-33.78,4.57-49.54,7.62-88.6,17.08-152.2,49.31-168.78,84.54-12.23,26,2.25,53.12,42.79,75.93,67.78,38.14,197.86,60.85,322.76,57q4.27-.13,8.53-.31c48.58-1.95,95.11-7.78,136.43-16.58a562.45,562.45,0,0,0,60.79-16.32q2.42-.81,4.78-1.64c33.83-11.77,60.06-26.22,76.48-41.92C2184.08,2436.92,2185.59,2409.09,2154.09,2383.78Z"/><path class="cls-18" d="M2194.15,2322.88c-18.59-9.73-37.08-11.56-58.4-13.56-18-1.69-35.89-10.45-53.43-15.39-94.36-26.63-225.45-37.35-336.51-23.54a643.83,643.83,0,0,0-77.48,14.24c-21.69,5.43-38.89,13.59-61.42,16.78-13.24,1.87-26.59,3.77-39.06,7.84-21.39,7-39.44,20.43-49.76,37.1-25.7,41.46-1.36,86.66,41.73,112.28,5.19,3.09,10.57,6,16.06,8.72,62.31,31.09,138.36,44.8,210.36,51.4,83.43,7.66,171.53,4.87,253.43-10.86,56.86-10.91,129.57-31.82,163.41-72.74,15.09-18.25,22.33-39.85,22.71-64.75.09-5.87-.17-11.8-2-17.47C2219.61,2340.27,2207.75,2330,2194.15,2322.88Z"/><path class="cls-19" d="M1921,2353c-17-27.55-52.3-44.23-87-57q-21.29-7.83-43.21-14.48c-12.16-3.69-27.45-10.22-40.33-11.37-12.52-1.11-28.67,3.48-40.9,5.66q-20.83,3.72-41.25,8.8c-21.69,5.43-38.89,13.59-61.42,16.78-13.24,1.87-26.59,3.77-39.06,7.84-21.39,7-39.44,20.43-49.76,37.1-25.7,41.46-1.36,86.66,41.73,112.28,5.19,3.09,10.57,6,16.06,8.72,62.31,31.09,138.36,44.8,210.36,51.4,6.16.57,50.72,6.35,49.65.59-.27-1.46-1.5-2.67-2.44-3.93-5.13-6.85-2.07-15.72,2.17-23,12.31-21,33.14-38,55.29-52.91,10.11-6.79,20.64-13.28,29.3-21.26.84-.77,1.65-1.55,2.45-2.34,8.19-8.09,14.28-17.37,11.63-27.72C1931.23,2376.32,1927.73,2364,1921,2353Z"/><path class="cls-7" d="M2201.86,2312.32c-25.45-21.61-68.34-40.79-118.59-55-94.36-26.62-225.45-37.34-336.51-23.53-120.68,15-210.45,56.85-231.17,103.31-13,29.07,2.3,59.44,45.18,84.93,71.68,42.62,209.3,67.92,341.48,63.54,82-2.72,159.08-16.55,217.79-37.34q2.55-.9,5.06-1.83c35.82-13.2,63.6-29.39,81-47C2233.52,2371.75,2235.16,2340.61,2201.86,2312.32Z"/><path class="cls-14" d="M1533.41,2332.36c-12.23,26,2.25,53.12,42.79,75.93,67.78,38.14,197.86,60.84,322.76,57,2.85-.09,5.69-.2,8.53-.31l-205.3-217.2C1613.59,2264.9,1550,2297.12,1533.41,2332.36Z"/><path class="cls-20" d="M1751.73,2240.19c-17.23,2-33.78,4.58-49.54,7.62l205.3,217.2c48.58-2,95.11-7.79,136.43-16.58l-201.84-213.54A830.84,830.84,0,0,0,1751.73,2240.19Z"/><path class="cls-14" d="M2181.86,2310.67c-24.07-19.34-64.63-36.5-112.12-49.21-64.51-17.26-147.16-27.09-227.66-26.57l201.84,213.54a561.57,561.57,0,0,0,60.78-16.33q2.41-.81,4.79-1.63c33.83-11.77,60.06-26.23,76.48-41.92C2211.85,2363.81,2213.36,2336,2181.86,2310.67Z"/><path class="cls-20" d="M1855,2467.47a8,8,0,0,1-5.92-2.62l-179.42-197a8,8,0,0,1,11.83-10.77l179.42,197a8,8,0,0,1-5.91,13.39Z"/><path class="cls-18" d="M2103.44,2226.94c-18.58-9.74-37.07-11.57-58.39-13.56-18-1.69-35.9-10.45-53.43-15.4-94.36-26.62-225.45-37.35-336.51-23.53a643.47,643.47,0,0,0-77.48,14.24c-21.69,5.42-38.9,13.59-61.42,16.77-13.24,1.87-26.6,3.77-39.06,7.84-21.39,7-39.44,20.44-49.77,37.1-25.69,41.46-1.35,86.67,41.73,112.29,5.2,3.09,10.57,6,16.06,8.72,62.32,31.09,138.37,44.8,210.36,51.4,83.43,7.65,171.54,4.86,253.43-10.86,56.86-10.92,129.58-31.82,163.42-72.74,15.09-18.26,22.33-39.86,22.7-64.76.09-5.86-.16-11.79-2-17.46C2128.91,2244.32,2117.05,2234.07,2103.44,2226.94Z"/><path class="cls-19" d="M1830.28,2257.06c-17-27.55-52.29-44.24-87-57q-21.3-7.83-43.22-14.48c-12.15-3.68-27.45-10.22-40.32-11.36-12.52-1.12-28.67,3.48-40.9,5.66q-20.84,3.72-41.25,8.8c-21.69,5.42-38.9,13.59-61.42,16.77-13.24,1.87-26.6,3.77-39.06,7.84-21.39,7-39.44,20.44-49.77,37.1-25.69,41.46-1.35,86.67,41.73,112.29,5.2,3.09,10.57,6,16.06,8.72,62.32,31.09,138.37,44.8,210.36,51.4,6.17.56,50.73,6.34,49.66.58-.28-1.46-1.5-2.66-2.45-3.93-5.12-6.85-2.06-15.72,2.18-23,12.31-21,33.13-38,55.29-52.92,10.1-6.79,20.63-13.27,29.3-21.26.83-.76,1.65-1.54,2.45-2.33,8.19-8.09,14.28-17.37,11.62-27.72C1840.53,2280.38,1837,2268,1830.28,2257.06Z"/><path class="cls-7" d="M2111.15,2216.37c-25.44-21.61-68.34-40.78-118.58-55-94.36-26.63-225.45-37.35-336.51-23.53-120.69,15-210.45,56.85-231.18,103.3-13,29.07,2.31,59.44,45.18,84.93,71.68,42.62,209.3,67.92,341.49,63.54,82-2.71,159.08-16.54,217.79-37.33q2.55-.9,5.06-1.83c35.82-13.2,63.6-29.4,81-47C2142.82,2275.81,2144.46,2244.66,2111.15,2216.37Z"/><path class="cls-14" d="M1442.7,2236.41c-12.22,26,2.25,53.12,42.8,75.94,67.78,38.13,197.85,60.84,322.75,57,2.86-.09,5.7-.19,8.54-.31l-205.31-217.19C1522.89,2169,1459.28,2201.18,1442.7,2236.41Z"/><path class="cls-20" d="M1661,2144.25c-17.23,2-33.78,4.58-49.55,7.62l205.31,217.19c48.57-1.94,95.11-7.78,136.43-16.58l-201.84-213.54A828.3,828.3,0,0,0,1661,2144.25Z"/><path class="cls-14" d="M2091.15,2214.72c-24.07-19.33-64.62-36.5-112.12-49.2-64.51-17.26-147.15-27.09-227.65-26.58l201.84,213.54a561.63,561.63,0,0,0,60.78-16.32q2.41-.81,4.79-1.63c33.83-11.78,60.06-26.23,76.48-41.93C2121.15,2267.86,2122.66,2240,2091.15,2214.72Z"/><path class="cls-20" d="M1764.29,2371.52a8,8,0,0,1-5.92-2.61l-179.42-197a8,8,0,1,1,11.82-10.78l179.43,197a8,8,0,0,1-5.91,13.38Z"/><path class="cls-18" d="M2031.78,2156.86c-18.59-9.74-37.08-11.57-58.4-13.56-18-1.69-35.9-10.45-53.43-15.4-94.36-26.63-225.45-37.35-336.51-23.53a643.83,643.83,0,0,0-77.48,14.24c-21.69,5.42-38.89,13.59-61.42,16.77-13.24,1.87-26.59,3.77-39.06,7.84-21.39,7-39.44,20.44-49.76,37.1-25.7,41.46-1.36,86.67,41.73,112.29,5.19,3.09,10.56,6,16,8.72,62.32,31.09,138.37,44.8,210.37,51.4,83.43,7.65,171.53,4.86,253.43-10.86,56.85-10.92,129.57-31.82,163.41-72.74,15.09-18.26,22.33-39.86,22.71-64.76.08-5.86-.17-11.79-2-17.46C2057.24,2174.24,2045.38,2164,2031.78,2156.86Z"/><path class="cls-19" d="M1758.62,2187c-17-27.55-52.3-44.24-87-57q-21.3-7.83-43.21-14.48c-12.16-3.68-27.45-10.22-40.33-11.36-12.52-1.12-28.67,3.48-40.9,5.66q-20.84,3.72-41.25,8.8c-21.69,5.42-38.89,13.59-61.42,16.77-13.24,1.87-26.59,3.77-39.06,7.84-21.39,7-39.44,20.44-49.76,37.1-25.7,41.46-1.36,86.67,41.73,112.29,5.19,3.09,10.56,6,16,8.72,62.32,31.09,138.37,44.8,210.37,51.4,6.16.56,50.72,6.34,49.65.58-.27-1.46-1.5-2.66-2.45-3.93-5.12-6.85-2.06-15.72,2.18-23,12.31-21,33.14-38,55.29-52.92,10.11-6.79,20.63-13.27,29.3-21.26.84-.76,1.65-1.54,2.45-2.33,8.19-8.09,14.28-17.37,11.63-27.72C1768.86,2210.29,1765.36,2197.93,1758.62,2187Z"/><path class="cls-7" d="M2039.49,2146.29c-25.45-21.61-68.35-40.78-118.59-55-94.36-26.63-225.45-37.35-336.51-23.54-120.68,15-210.45,56.86-231.18,103.31-13,29.07,2.31,59.44,45.19,84.93,71.68,42.62,209.3,67.92,341.48,63.54,82-2.71,159.08-16.54,217.79-37.33l5.06-1.83c35.82-13.2,63.6-29.4,81-47C2071.15,2205.73,2072.79,2174.58,2039.49,2146.29Z"/><path class="cls-14" d="M1371,2166.33c-12.23,26,2.24,53.12,42.79,75.93,67.78,38.14,197.86,60.85,322.76,57q4.28-.14,8.53-.31l-205.3-217.19C1451.22,2098.88,1387.62,2131.1,1371,2166.33Z"/><path class="cls-20" d="M1589.36,2074.17c-17.23,2-33.78,4.57-49.54,7.62L1745.12,2299c48.57-1.94,95.11-7.78,136.43-16.58l-201.84-213.54A828.3,828.3,0,0,0,1589.36,2074.17Z"/><path class="cls-14" d="M2019.49,2144.64c-24.07-19.33-64.63-36.5-112.12-49.2-64.51-17.26-147.16-27.09-227.66-26.58l201.84,213.54a561.63,561.63,0,0,0,60.78-16.32l4.79-1.63c33.83-11.78,60.06-26.23,76.48-41.93C2049.48,2197.78,2051,2170,2019.49,2144.64Z"/><path class="cls-20" d="M1692.62,2301.44a8,8,0,0,1-5.92-2.61l-179.42-197a8,8,0,1,1,11.83-10.78l179.42,197a8,8,0,0,1-5.91,13.38Z"/><path class="cls-18" d="M2170.57,2087.88c-18.58-9.74-37.07-11.57-58.39-13.56-18-1.69-35.9-10.45-53.43-15.4-94.37-26.62-225.46-37.34-336.51-23.53a644,644,0,0,0-77.49,14.24c-21.69,5.42-38.89,13.59-61.41,16.78-13.24,1.87-26.6,3.77-39.07,7.83-21.39,7-39.43,20.44-49.76,37.1-25.69,41.46-1.36,86.67,41.73,112.29,5.2,3.09,10.57,6,16.06,8.72,62.31,31.09,138.36,44.8,210.36,51.4,83.43,7.65,171.54,4.86,253.43-10.86,56.86-10.92,129.58-31.82,163.41-72.74,15.1-18.26,22.34-39.85,22.71-64.76.09-5.86-.17-11.79-2-17.46C2196,2105.26,2184.18,2095,2170.57,2087.88Z"/><path class="cls-19" d="M1897.41,2118c-17-27.55-52.3-44.24-87-57q-21.29-7.82-43.21-14.47c-12.16-3.69-27.45-10.22-40.32-11.37-12.52-1.12-28.68,3.48-40.9,5.66q-20.84,3.72-41.26,8.8c-21.69,5.42-38.89,13.59-61.41,16.78-13.24,1.87-26.6,3.77-39.07,7.83-21.39,7-39.43,20.44-49.76,37.1-25.69,41.46-1.36,86.67,41.73,112.29,5.2,3.09,10.57,6,16.06,8.72,62.31,31.09,138.36,44.8,210.36,51.4,6.16.57,50.73,6.34,49.65.59-.27-1.46-1.5-2.67-2.44-3.93-5.12-6.85-2.07-15.73,2.17-23,12.31-21,33.14-38,55.29-52.92,10.11-6.78,20.64-13.27,29.31-21.25.83-.77,1.65-1.55,2.45-2.34,8.18-8.09,14.27-17.37,11.62-27.72C1907.66,2141.32,1904.16,2129,1897.41,2118Z"/><path class="cls-7" d="M2178.28,2077.32c-25.44-21.62-68.34-40.79-118.58-55-94.37-26.63-225.46-37.35-336.51-23.53-120.69,15-210.45,56.85-231.18,103.31-13,29.07,2.3,59.43,45.18,84.93,71.68,42.61,209.3,67.91,341.48,63.54,82-2.72,159.08-16.55,217.79-37.34q2.57-.9,5.07-1.83c35.82-13.2,63.59-29.39,81-47C2210,2136.75,2211.59,2105.61,2178.28,2077.32Z"/><path class="cls-14" d="M2158.28,2075.66c-24.07-19.33-64.63-36.5-112.12-49.2-64.51-17.26-147.16-27.09-227.66-26.57a828.48,828.48,0,0,0-90.35,5.3c-17.22,2-33.77,4.58-49.54,7.62-88.6,17.09-152.2,49.31-168.78,84.54-12.22,26,2.25,53.12,42.79,75.94,67.79,38.14,197.86,60.84,322.76,57,2.85-.08,5.7-.19,8.54-.3,48.57-2,95.1-7.79,136.43-16.59a560.57,560.57,0,0,0,60.78-16.32q2.41-.81,4.78-1.63c33.83-11.78,60.06-26.23,76.48-41.93C2188.27,2128.8,2189.78,2101,2158.28,2075.66Z"/><path class="cls-18" d="M2157.06,2013c-18.59-9.74-37.07-11.57-58.39-13.56-18.05-1.69-35.9-10.45-53.43-15.4-94.37-26.62-225.46-37.35-336.51-23.53a643.63,643.63,0,0,0-77.49,14.24c-21.69,5.42-38.89,13.59-61.42,16.77-13.24,1.88-26.59,3.77-39.06,7.84-21.39,7-39.44,20.44-49.76,37.1-25.7,41.46-1.36,86.67,41.73,112.29,5.19,3.09,10.57,6,16.06,8.72,62.31,31.09,138.36,44.8,210.36,51.4,83.43,7.65,171.53,4.86,253.43-10.86,56.86-10.92,129.58-31.82,163.41-72.74,15.09-18.26,22.33-39.86,22.71-64.76.09-5.86-.17-11.79-2-17.46C2182.52,2030.35,2170.66,2020.1,2157.06,2013Z"/><path class="cls-19" d="M1883.9,2043.09c-17-27.55-52.3-44.24-87-57q-21.29-7.83-43.21-14.47c-12.16-3.69-27.45-10.22-40.33-11.37-12.52-1.12-28.67,3.48-40.89,5.66q-20.85,3.72-41.26,8.8c-21.69,5.42-38.89,13.59-61.42,16.77-13.24,1.88-26.59,3.77-39.06,7.84-21.39,7-39.44,20.44-49.76,37.1-25.7,41.46-1.36,86.67,41.73,112.29,5.19,3.09,10.57,6,16.06,8.72,62.31,31.09,138.36,44.8,210.36,51.4,6.16.57,50.72,6.34,49.65.59-.27-1.47-1.5-2.67-2.44-3.93-5.13-6.85-2.07-15.73,2.17-23,12.31-21,33.14-38,55.29-52.92,10.11-6.78,20.64-13.27,29.3-21.26.84-.76,1.66-1.54,2.45-2.33,8.19-8.09,14.28-17.37,11.63-27.72C1894.14,2066.41,1890.65,2054,1883.9,2043.09Z"/><path class="cls-7" d="M2164.77,2002.41c-25.45-21.62-68.34-40.79-118.59-55-94.36-26.63-225.45-37.35-336.51-23.53-120.68,15-210.45,56.85-231.17,103.31-13,29.07,2.3,59.43,45.18,84.93,71.68,42.61,209.3,67.91,341.48,63.54,82-2.72,159.08-16.55,217.79-37.34q2.55-.9,5.06-1.83c35.82-13.2,63.6-29.39,81-47C2196.43,2061.84,2198.07,2030.7,2164.77,2002.41Z"/><path class="cls-14" d="M2144.77,2000.75c-24.07-19.33-64.63-36.5-112.12-49.2-64.51-17.26-147.16-27.09-227.66-26.57a825.84,825.84,0,0,0-90.35,5.3c-17.22,2-33.78,4.58-49.54,7.62-88.6,17.09-152.2,49.31-168.78,84.54-12.23,26,2.25,53.12,42.79,75.94,67.79,38.13,197.86,60.84,322.76,57,2.85-.08,5.7-.19,8.54-.3,48.57-1.95,95.1-7.79,136.43-16.59a560.57,560.57,0,0,0,60.78-16.32q2.41-.81,4.78-1.63c33.83-11.78,60.06-26.23,76.48-41.93C2174.76,2053.89,2176.27,2026.06,2144.77,2000.75Z"/><path class="cls-18" d="M2030,1941.32c-18.58-9.74-37.07-11.57-58.39-13.56-18-1.69-35.9-10.45-53.43-15.4-94.36-26.62-225.45-37.35-336.51-23.53a644,644,0,0,0-77.49,14.24c-21.69,5.42-38.89,13.59-61.41,16.77-13.24,1.88-26.6,3.77-39.07,7.84-21.38,7-39.43,20.44-49.76,37.1-25.69,41.46-1.36,86.67,41.73,112.29,5.2,3.09,10.57,6,16.06,8.72,62.32,31.09,138.37,44.8,210.36,51.4,83.43,7.65,171.54,4.86,253.43-10.86,56.86-10.92,129.58-31.82,163.41-72.74,15.1-18.26,22.34-39.86,22.71-64.76.09-5.86-.16-11.79-2-17.46C2055.48,1958.7,2043.62,1948.45,2030,1941.32Z"/><path class="cls-19" d="M1756.85,1971.44c-17-27.55-52.29-44.24-87-57q-21.3-7.83-43.22-14.48c-12.15-3.68-27.45-10.21-40.32-11.36-12.52-1.12-28.67,3.48-40.9,5.66q-20.84,3.72-41.26,8.8c-21.69,5.42-38.89,13.59-61.41,16.77-13.24,1.88-26.6,3.77-39.07,7.84-21.38,7-39.43,20.44-49.76,37.1-25.69,41.46-1.36,86.67,41.73,112.29,5.2,3.09,10.57,6,16.06,8.72,62.32,31.09,138.37,44.8,210.36,51.4,6.16.56,50.73,6.34,49.66.59-.28-1.47-1.5-2.67-2.45-3.93-5.12-6.85-2.06-15.73,2.18-23,12.31-21,33.13-38,55.29-52.92,10.1-6.78,20.63-13.27,29.3-21.26.83-.76,1.65-1.54,2.45-2.33,8.19-8.09,14.28-17.37,11.62-27.72C1767.1,1994.76,1763.6,1982.39,1756.85,1971.44Z"/><path class="cls-7" d="M2037.72,1930.75c-25.44-21.61-68.34-40.78-118.58-55-94.37-26.63-225.45-37.35-336.51-23.53-120.69,15-210.45,56.85-231.18,103.3-13,29.08,2.31,59.44,45.18,84.94,71.68,42.61,209.3,67.91,341.49,63.54,82-2.72,159.08-16.55,217.78-37.34q2.56-.9,5.07-1.83c35.82-13.2,63.6-29.4,81-47C2069.39,1990.19,2071,1959,2037.72,1930.75Z"/><path class="cls-14" d="M1369.27,1950.79c-12.22,26,2.25,53.12,42.8,75.94,67.78,38.13,197.85,60.84,322.75,57,2.86-.09,5.7-.19,8.54-.3l-205.31-217.2C1449.46,1883.34,1385.85,1915.56,1369.27,1950.79Z"/><path class="cls-20" d="M1587.6,1858.63c-17.23,2-33.78,4.58-49.55,7.62l205.31,217.2c48.57-1.95,95.1-7.79,136.43-16.59l-201.85-213.53A825.65,825.65,0,0,0,1587.6,1858.63Z"/><path class="cls-14" d="M2017.72,1929.1c-24.07-19.33-64.63-36.5-112.12-49.2-64.51-17.26-147.16-27.09-227.66-26.57l201.85,213.53a561.63,561.63,0,0,0,60.78-16.32q2.42-.81,4.79-1.63c33.83-11.78,60.06-26.23,76.48-41.93C2047.71,1982.24,2049.23,1954.41,2017.72,1929.1Z"/><path class="cls-20" d="M1690.86,2085.9a8,8,0,0,1-5.92-2.61l-179.43-197a8,8,0,0,1,11.83-10.78l179.43,197a8,8,0,0,1-5.91,13.38Z"/><path class="cls-18" d="M2635.52,2502.51c-18.58-9.73-37.07-11.56-58.39-13.56-18.05-1.69-35.9-10.45-53.43-15.39-94.37-26.63-225.46-37.35-336.51-23.54a644,644,0,0,0-77.49,14.24c-21.69,5.43-38.89,13.59-61.41,16.78-13.24,1.87-26.6,3.77-39.07,7.84-21.38,7-39.43,20.43-49.76,37.1-25.69,41.46-1.36,86.66,41.73,112.28,5.2,3.09,10.57,6,16.06,8.72,62.31,31.09,138.36,44.8,210.36,51.4,83.43,7.65,171.54,4.87,253.43-10.86,56.86-10.91,129.58-31.82,163.41-72.74,15.1-18.25,22.33-39.85,22.71-64.75.09-5.87-.17-11.8-2-17.47C2661,2519.9,2649.13,2509.64,2635.52,2502.51Z"/><path class="cls-19" d="M2362.36,2532.63c-17-27.55-52.3-44.23-87-57q-21.29-7.83-43.21-14.48c-12.16-3.69-27.45-10.22-40.32-11.37-12.52-1.11-28.68,3.48-40.9,5.66q-20.84,3.72-41.26,8.8c-21.69,5.43-38.89,13.59-61.41,16.78-13.24,1.87-26.6,3.77-39.07,7.84-21.38,7-39.43,20.43-49.76,37.1-25.69,41.46-1.36,86.66,41.73,112.28,5.2,3.09,10.57,6,16.06,8.72,62.31,31.09,138.36,44.8,210.36,51.4,6.16.57,50.73,6.35,49.65.59-.27-1.46-1.5-2.67-2.44-3.93-5.12-6.85-2.07-15.72,2.17-23,12.31-21,33.14-38,55.29-52.91,10.11-6.79,20.64-13.28,29.31-21.26.83-.77,1.65-1.55,2.45-2.34,8.18-8.09,14.27-17.37,11.62-27.72C2372.61,2556,2369.11,2543.58,2362.36,2532.63Z"/><path class="cls-7" d="M2643.23,2492c-25.44-21.61-68.34-40.79-118.58-55-94.37-26.62-225.46-37.34-336.51-23.53-120.69,15-210.45,56.85-231.18,103.31-13,29.07,2.3,59.44,45.18,84.93,71.68,42.62,209.3,67.92,341.48,63.54,82-2.72,159.08-16.55,217.79-37.34q2.57-.9,5.07-1.83c35.82-13.2,63.59-29.39,81-47C2674.9,2551.38,2676.54,2520.24,2643.23,2492Z"/><path class="cls-14" d="M1974.78,2512c-12.22,26,2.25,53.12,42.79,75.93,67.79,38.14,197.86,60.84,322.76,57,2.85-.09,5.7-.2,8.54-.31l-205.31-217.2C2055,2444.53,1991.36,2476.75,1974.78,2512Z"/><path class="cls-20" d="M2193.1,2419.82c-17.22,2-33.77,4.58-49.54,7.62l205.31,217.2c48.57-1.95,95.1-7.79,136.43-16.58l-201.85-213.54A831,831,0,0,0,2193.1,2419.82Z"/><path class="cls-14" d="M2623.23,2490.3c-24.07-19.34-64.63-36.5-112.12-49.21-64.51-17.26-147.16-27.09-227.66-26.57l201.85,213.54a562.82,562.82,0,0,0,60.78-16.33q2.41-.81,4.78-1.63c33.83-11.77,60.06-26.23,76.48-41.92C2653.22,2543.44,2654.73,2515.6,2623.23,2490.3Z"/><path class="cls-20" d="M2296.36,2647.1a8,8,0,0,1-5.91-2.62l-179.43-197a8,8,0,1,1,11.83-10.77l179.43,197a8,8,0,0,1-5.92,13.39Z"/><path class="cls-18" d="M2595.2,2435.51c-18.59-9.74-37.07-11.56-58.39-13.56-18-1.69-35.9-10.45-53.43-15.39-94.37-26.63-225.46-37.35-336.51-23.54a643.63,643.63,0,0,0-77.49,14.24c-21.69,5.43-38.89,13.59-61.42,16.78-13.24,1.87-26.59,3.77-39.06,7.84-21.39,7-39.44,20.43-49.76,37.1-25.7,41.46-1.36,86.66,41.73,112.28,5.2,3.09,10.57,6,16.06,8.72,62.31,31.09,138.36,44.8,210.36,51.4,83.43,7.65,171.53,4.87,253.43-10.86,56.86-10.91,129.58-31.82,163.41-72.74,15.09-18.25,22.33-39.85,22.71-64.75.09-5.87-.17-11.8-2-17.47C2620.66,2452.9,2608.8,2442.64,2595.2,2435.51Z"/><path class="cls-19" d="M2322,2465.63c-17-27.55-52.3-44.23-87-57q-21.29-7.83-43.21-14.48c-12.16-3.69-27.45-10.22-40.33-11.37-12.51-1.11-28.67,3.48-40.89,5.66q-20.85,3.72-41.26,8.8c-21.69,5.43-38.89,13.59-61.42,16.78-13.24,1.87-26.59,3.77-39.06,7.84-21.39,7-39.44,20.43-49.76,37.1-25.7,41.46-1.36,86.66,41.73,112.28,5.2,3.09,10.57,6,16.06,8.72,62.31,31.09,138.36,44.8,210.36,51.4,6.16.57,50.73,6.35,49.65.59-.27-1.46-1.5-2.67-2.44-3.93-5.12-6.85-2.07-15.72,2.17-23,12.31-21,33.14-38,55.29-52.91,10.11-6.79,20.64-13.28,29.31-21.26.83-.77,1.65-1.55,2.45-2.34,8.18-8.09,14.27-17.37,11.62-27.72C2332.29,2489,2328.79,2476.58,2322,2465.63Z"/><path class="cls-7" d="M2602.91,2425c-25.45-21.61-68.34-40.79-118.59-55-94.36-26.62-225.45-37.34-336.51-23.53-120.68,15-210.44,56.85-231.17,103.31-13,29.07,2.3,59.44,45.18,84.93,71.68,42.62,209.3,67.92,341.48,63.54,82-2.72,159.08-16.55,217.79-37.34,1.71-.6,3.39-1.21,5.07-1.83,35.81-13.2,63.59-29.39,81-47C2634.58,2484.38,2636.21,2453.24,2602.91,2425Z"/><path class="cls-14" d="M1934.46,2445c-12.22,26,2.25,53.12,42.79,75.93,67.79,38.14,197.86,60.84,322.76,57,2.85-.09,5.7-.2,8.54-.31l-205.31-217.2C2014.64,2377.53,1951,2409.75,1934.46,2445Z"/><path class="cls-20" d="M2152.78,2352.82c-17.22,2-33.78,4.58-49.54,7.62l205.31,217.2c48.57-1.95,95.1-7.79,136.43-16.58l-201.85-213.54A830.84,830.84,0,0,0,2152.78,2352.82Z"/><path class="cls-14" d="M2582.91,2423.3c-24.07-19.34-64.63-36.5-112.12-49.21-64.51-17.26-147.16-27.09-227.66-26.57L2445,2561.06a562.82,562.82,0,0,0,60.78-16.33q2.41-.81,4.78-1.63c33.83-11.77,60.06-26.23,76.48-41.92C2612.9,2476.44,2614.41,2448.6,2582.91,2423.3Z"/><path class="cls-20" d="M2256,2580.1a7.94,7.94,0,0,1-5.91-2.62l-179.43-197a8,8,0,1,1,11.83-10.77l179.43,197a8,8,0,0,1-5.92,13.39Z"/><path class="cls-18" d="M2608.24,2370.23c-18.58-9.74-37.07-11.57-58.39-13.57-18-1.68-35.9-10.44-53.43-15.39-94.37-26.63-225.46-37.35-336.51-23.53a644,644,0,0,0-77.49,14.24c-21.69,5.42-38.89,13.59-61.41,16.77-13.24,1.87-26.6,3.77-39.07,7.84-21.38,7-39.43,20.44-49.76,37.1-25.69,41.46-1.36,86.67,41.73,112.29,5.2,3.09,10.57,6,16.06,8.72,62.32,31.09,138.36,44.8,210.36,51.4,83.43,7.65,171.54,4.86,253.43-10.86,56.86-10.92,129.58-31.83,163.41-72.75,15.1-18.25,22.34-39.85,22.71-64.75.09-5.87-.17-11.79-2-17.46C2633.71,2387.61,2621.85,2377.36,2608.24,2370.23Z"/><path class="cls-19" d="M2335.08,2400.34c-17-27.54-52.29-44.23-87-57q-21.3-7.83-43.22-14.48c-12.16-3.68-27.45-10.22-40.32-11.36-12.52-1.12-28.67,3.48-40.9,5.66q-20.83,3.72-41.26,8.8c-21.69,5.42-38.89,13.59-61.41,16.77-13.24,1.87-26.6,3.77-39.07,7.84-21.38,7-39.43,20.44-49.76,37.1-25.69,41.46-1.36,86.67,41.73,112.29,5.2,3.09,10.57,6,16.06,8.72,62.32,31.09,138.36,44.8,210.36,51.4,6.16.56,50.73,6.34,49.66.58-.28-1.46-1.5-2.66-2.45-3.93-5.12-6.85-2.06-15.72,2.18-23,12.3-21,33.13-38,55.28-52.91,10.11-6.79,20.64-13.28,29.31-21.26.83-.76,1.65-1.54,2.45-2.33,8.18-8.09,14.28-17.37,11.62-27.72C2345.33,2423.66,2341.83,2411.3,2335.08,2400.34Z"/><path class="cls-7" d="M2616,2359.66c-25.44-21.61-68.34-40.78-118.58-55-94.37-26.63-225.46-37.35-336.51-23.54-120.69,15-210.45,56.86-231.18,103.31-13,29.07,2.31,59.44,45.18,84.93,71.68,42.62,209.3,67.92,341.49,63.54,82-2.71,159.08-16.54,217.78-37.33l5.07-1.83c35.82-13.2,63.6-29.4,81-47C2647.62,2419.1,2649.26,2388,2616,2359.66Z"/><path class="cls-14" d="M1947.5,2379.7c-12.22,26,2.25,53.12,42.8,75.93,67.78,38.14,197.85,60.85,322.75,57q4.27-.13,8.54-.31l-205.31-217.19C2027.68,2312.24,1964.08,2344.47,1947.5,2379.7Z"/><path class="cls-20" d="M2165.82,2287.53c-17.22,2-33.77,4.58-49.54,7.63l205.31,217.19c48.57-1.95,95.1-7.78,136.43-16.58l-201.85-213.54A831,831,0,0,0,2165.82,2287.53Z"/><path class="cls-14" d="M2596,2358c-24.07-19.33-64.63-36.5-112.12-49.21-64.51-17.25-147.16-27.08-227.66-26.57L2458,2495.77a562.25,562.25,0,0,0,60.78-16.32q2.41-.81,4.78-1.64c33.83-11.77,60.06-26.22,76.48-41.92C2625.94,2411.15,2627.46,2383.32,2596,2358Z"/><path class="cls-20" d="M2269.09,2514.81a8,8,0,0,1-5.92-2.61l-179.43-197a8,8,0,1,1,11.83-10.77l179.43,197a8,8,0,0,1-5.91,13.39Z"/><g class="cls-21"><path class="cls-22" d="M3608,606.17c6.12,18.65,14.23,33.47,24.19,45.85l-29.79-64.37C3604.16,593.88,3606,600.06,3608,606.17Z"/><path class="cls-22" d="M3924.85,2629c-7.1-9.22-11.92-17.89-17.37-28.31a399.4,399.4,0,0,1-20.76-46.79c3.15-4.6,5.18-9.43,5.48-14.41,0-.12,0-.24,0-.37.35-8.65-8.81-30.65-18.46-32.84-4.12-.94-8.71.38-13.31,2.8-.76-49.87-43.48-105.43-61.9-145.88a1461.79,1461.79,0,0,1-71.73-192.39c-60.3-204.58-54.39-405.87-53.75-617.77.15-48.12,2.07-101.41-8.75-148.6-3.41-14.87-9.94-28.54-17.16-42a267.91,267.91,0,0,0,35.33-23.5c.76-.49,1.5-1,2.23-1.49a107.59,107.59,0,0,0,18.16-16.63q3.95-4,7.7-8.11c42.9-47.74,54.69-110.6,49.92-172.53a403.91,403.91,0,0,0-12.86-73.26,77.21,77.21,0,0,0,5-6.06c11.93-16,17.25-36.21,18.09-56.15a142.83,142.83,0,0,0-12.66-64.89c22.09-25.3,31.31-52.46,30.91-79.23a81.81,81.81,0,0,0,7.5-23.61c4.27-27.61-5-56.28-21.57-78.77s-40-39.24-65.07-51.59c-32.23-15.89-58.41-30.73-77.65-54.65L3644,677.6a207.88,207.88,0,0,1-30.16-34.94c-22.33-33.28-28.92-70.8-36.1-108.22l24.63,53.21c-13.89-49.47-21.63-102-52.86-142.53-24.27-39.08-69.21-58.1-115.17-57.74-31.3.25-62.51,5.43-92.89,12.62q-2.72.64-5.46,1.34l-3.38.87c-2.6.69-5.21,1.42-7.81,2.18-1.32.39-2.64.79-4,1.21-2.47.77-4.93,1.59-7.36,2.46-.88.31-1.76.63-2.63,1-1.46.54-2.92,1.11-4.36,1.69q-3.32,1.35-6.54,2.83a122.47,122.47,0,0,0-11.86,6.22c-1.08.64-2.14,1.3-3.19,2-36.23,23.5-27.07,69.69-10.75,104.75-3.95-.22-8,.14-11.36,1.88l12.29.1.64,1.33c-.32,3.62-.6,7.21-.85,10.73-3.07.52-6.6,1.65-8.74,4-.18.21-.35.42-.5.63h-1a14.17,14.17,0,0,0-.09,1.84l-.12.21h.13c.12,5.67,3.63,11.06,9.12,11.95-2.14,41.29,3.39,94.47,50.22,108.55a81.53,81.53,0,0,1,9,3.26c6.26,30.66,8.29,63.08-3.73,91.76-17.33,41.34-59.82,66.34-84.27,103.91-15.41,23.67-23.22,53-17.74,80.72a85,85,0,0,0,3.14,11.47c-12.52,19.38-26.14,39.73-42.32,56.84l-47.28,4.47a14.75,14.75,0,0,0-12.61,10.06l-2.21.21a14.74,14.74,0,0,0-13.33,15.46,18.7,18.7,0,0,0-10.94,11c-47.26.27-91.9-27.31-126.93-57.28-48.26-41.3-99.14-89.16-138.36-139.25-15.58-19.89-27.57-43.05-39.71-65.25q-15.76-28.86-30.06-58.49c-3.75-7.78-6.24-16-15.12-19.15-3.41-1.2-7.61-1.36-10.86.43-4.37,2.4-4.58,6-4.25,10.48a177.7,177.7,0,0,0,5.71,33.19c.26,1,2.13,5.76.23,5.88-1.1.07-2-2.7-2.34-3.5q-8.7-19.29-18.8-37.91c-2.2-4.06-16-33.82-22.62-25.31a9.22,9.22,0,0,0-1.49,5.12c-1.39,17.95,3,32.31,9,48.91L2688.79,707c-1.24-3.44-2.9-7.3-6.37-8.44-6.75-2.21-10.85,7.31-11,14.39a124.73,124.73,0,0,0,10.11,51q-6.57-14.25-13.13-28.49c-2.21-4.8-4.92-9.62-6.72-14.58-1.12-3.1-1.82-6.9-6.17-6.55a7.52,7.52,0,0,0-5.79,4.32,16.54,16.54,0,0,0-1.37,7.38c0,9.57,3.38,18.89,7.72,27.46s9.7,16.61,14.13,25.14c-6-9-11.56-18.37-16.65-27.94-2.7-5.1-6-10.86-11.68-11.95a3.3,3.3,0,0,0-1.79,0,3.59,3.59,0,0,0-1.44,1.27c-2.73,3.7-3.5,8.49-3.73,13.1-3.15,65.39,58.21,114.88,96.13,159.8,26.74,31.7,48,67.57,71.94,101.46,62.95,89.14,159.32,196.81,270.92,228a63.63,63.63,0,0,0,17.56,6.62,112.39,112.39,0,0,0,26.61,2.18l4.26,45.16c-1.17-.08-2.35-.14-3.53-.2-2.74-.13-5.83-.11-7.77,1.84-2.74,2.77-2.68,8.82-6.58,9-23.36,1.24-11.92,114.12,16.57,125.14a45.86,45.86,0,0,0,14.37,2.56l7.67,81.34a18.67,18.67,0,0,0,20.33,16.85l28-2.65c-26.31,82.94-47.88,156.09-50.4,166.3-27.69,111.82-42.73,226.83-45.84,342.31-4.69,174,17.72,349.06,64.72,515.84-2-.31-4.06-.63-6.08-1-8.53-1.52-5.41,24.8-4.65,28.54,2.57,12.7,10.85,18.2,22.47,21.66,0,5.53-.12,11.05-.33,16.57-.19,4.69-.46,9.48-2.26,13.81-4.49,10.77-15.36,14.82-26.57,15.36.45-7.5-1.45-16.17-8.6-15.28-5.75.71-7.57,7.23-7.79,13.84q-1.48-.32-2.88-.69c-2.07-.55-4.13-1.17-6.18-1.81,1.18-7.94-.17-19.27-8.29-18.26-5.62.7-7.48,6.92-7.77,13.36a71.88,71.88,0,0,0-9.87-1.88,35.94,35.94,0,0,0-21.68,4.28,22.79,22.79,0,0,0-11.39,23.06,19.08,19.08,0,0,0-2.58,9.36c-.61,11.76,5.85,23.43,13.73,31.72,7.59,8,17.14,13.84,27,18.73,48.65,24.13,106.94,28,160.43,26.79,17.92-.4,36-2.27,52.67-8.18,17.62-6.24,20.47-26.06,15.17-42.39a59.7,59.7,0,0,0-.84-22.12c-2.47-11.66-3.08-21.78-3.5-33.81a409,409,0,0,1,1.33-50.12,31.54,31.54,0,0,0,10.39-10.73c.06-.12.13-.24.19-.37,4.49-8.46,6.31-34.55-1.85-41.13a15.32,15.32,0,0,0-7.41-3c1.7-13.27.69-26.87-.17-40.28-6-93.78-4-188.5,8.49-281.69a1388.71,1388.71,0,0,1,50.37-227.28Q3399.9,2046,3422,2099c71,170.74,168.85,330.69,287.08,471.75a86.47,86.47,0,0,0,16,15.09c-.75,6.25,8.39,19.93,10.16,22.16,5.42,6.86,11.88,9.36,19.39,9.55q5.76,11.44,10.86,23.22c1.82,4.21,3.6,8.55,3.84,13.12.53,10-5.51,17.55-13.55,22.77-3-5.26-7.41-9.23-12.24-6.14-4,2.58-3.84,7.62-2.12,12.69a66.34,66.34,0,0,1-6.88,1.71l-1.9.34c-2.72-6.93-8.14-14.11-14.18-10.24-4,2.57-3.84,7.59-2.14,12.64a79.39,79.39,0,0,0-13.7,3.26,35.1,35.1,0,0,0-17.29,12.93A22.27,22.27,0,0,0,3685,2729a18.63,18.63,0,0,0,1.67,9.35c4.44,10.63,15.06,18.17,25.5,22.14,10.06,3.83,21,5,31.71,5.1,53.05.71,106-20.53,152.65-44.19,15.62-7.93,30.76-17.21,42.95-29.46,12.89-13,7-31.61-4.55-43.76A58.17,58.17,0,0,0,3924.85,2629Z"/></g><path class="cls-18" d="M2656.17,2279.81c-18.58-9.74-37.07-11.57-58.39-13.57-18.05-1.69-35.9-10.44-53.43-15.39-94.37-26.63-225.46-37.35-336.51-23.53a642,642,0,0,0-77.49,14.24c-21.69,5.42-38.89,13.59-61.41,16.77-13.24,1.87-26.6,3.77-39.07,7.84-21.38,7-39.43,20.44-49.76,37.1-25.69,41.46-1.36,86.67,41.73,112.28,5.2,3.09,10.57,6,16.06,8.73,62.31,31.08,138.36,44.79,210.36,51.4,83.43,7.65,171.54,4.86,253.43-10.86,56.86-10.92,129.58-31.83,163.41-72.75,15.1-18.25,22.33-39.85,22.71-64.75.09-5.87-.17-11.8-2-17.46C2681.64,2297.19,2669.78,2286.94,2656.17,2279.81Z"/><path class="cls-19" d="M2383,2309.92c-17-27.54-52.3-44.23-87-57q-21.28-7.83-43.21-14.48c-12.16-3.69-27.45-10.22-40.32-11.36-12.52-1.12-28.68,3.47-40.9,5.66q-20.84,3.72-41.26,8.8c-21.69,5.42-38.89,13.59-61.41,16.77-13.24,1.87-26.6,3.77-39.07,7.84-21.38,7-39.43,20.44-49.76,37.1-25.69,41.46-1.36,86.67,41.73,112.28,5.2,3.09,10.57,6,16.06,8.73,62.31,31.08,138.36,44.79,210.36,51.4,6.16.56,50.73,6.34,49.65.58-.27-1.46-1.5-2.66-2.44-3.93-5.12-6.85-2.07-15.72,2.17-23,12.31-21,33.14-38,55.29-52.91,10.11-6.79,20.64-13.28,29.31-21.26.83-.77,1.65-1.54,2.45-2.33,8.18-8.09,14.27-17.37,11.62-27.72C2393.26,2333.24,2389.76,2320.88,2383,2309.92Z"/><path class="cls-7" d="M2663.88,2269.24c-25.44-21.61-68.34-40.79-118.58-55-94.37-26.63-225.46-37.35-336.51-23.54-120.69,15-210.45,56.86-231.18,103.31-13,29.07,2.3,59.44,45.18,84.93,71.68,42.62,209.3,67.92,341.48,63.54,82-2.71,159.08-16.54,217.79-37.33l5.07-1.83c35.82-13.2,63.59-29.4,81-47C2695.55,2328.68,2697.19,2297.53,2663.88,2269.24Z"/><path class="cls-14" d="M1995.43,2289.28c-12.22,26,2.25,53.12,42.79,75.93,67.79,38.14,197.86,60.85,322.76,57q4.28-.13,8.54-.31l-205.31-217.2C2075.61,2221.82,2012,2254.05,1995.43,2289.28Z"/><path class="cls-20" d="M2213.75,2197.11c-17.22,2-33.77,4.58-49.54,7.62l205.31,217.2c48.57-1.95,95.1-7.78,136.43-16.58L2304.1,2191.81A831,831,0,0,0,2213.75,2197.11Z"/><path class="cls-14" d="M2643.88,2267.59c-24.07-19.34-64.63-36.5-112.12-49.21-64.51-17.25-147.16-27.08-227.66-26.57L2506,2405.35a562.88,562.88,0,0,0,60.78-16.32q2.42-.81,4.78-1.64c33.83-11.77,60.06-26.22,76.48-41.92C2673.87,2320.73,2675.38,2292.89,2643.88,2267.59Z"/><path class="cls-20" d="M2317,2424.39a8,8,0,0,1-5.91-2.61l-179.43-197A8,8,0,1,1,2143.5,2214l179.43,197a8,8,0,0,1-5.92,13.39Z"/><path class="cls-6" d="M3742.51,736.65c-38.52-33.21-84.32-59.72-112.66-102-37.64-56.1-30.55-124.29-57-183.68-21.57-48.45-71.43-72-122.53-71.59-31.3.24-62.51,5.43-92.89,12.62-19.38,4.59-39.74,10.85-56.54,21.75-42.36,27.48-22.67,86-2,121.45,20.15,34.61,35.69,70.32,45.7,109.09q1.42,5.52,2.7,11.12c7.46,32.84,10.91,68.29-2.1,99.34-17.33,41.34-59.82,66.34-84.27,103.91-15.41,23.67-23.22,53-17.74,80.72s25.44,53,52.41,61.38c12.24,3.8,25.28,4.13,37.79,6.89,35,7.69,64.65,35.76,74.29,70.24,3,10.91,4.29,22.5,9.58,32.51,4.86,9.19,12.79,16.37,21,22.69,21.11,16.16,46.77,28.32,73.32,26.85s53.22-19.64,58.14-45.76c-.73,3.89,58.42-4.14,63.68-4.42,28.82-1.55,51.78-5.35,78.73-17.39,21.2-9.48,42.59-20.83,56.46-39.46,11.93-16,17.25-36.21,18.09-56.15a142.83,142.83,0,0,0-12.66-64.89C3831.4,866.23,3802.11,788.05,3742.51,736.65Z"/><path class="cls-23" d="M3645.34,800.5c-32.74-21.7-74.11-31.87-99.35-62-16.41-19.56-23.66-45-30.49-69.58L3452.62,442.5c-14.88-53.59-44.94-62.34-95.16-50.46-19.38,4.59-39.74,10.85-56.54,21.75-42.36,27.48-22.67,86-2,121.45,20.15,34.61,35.69,70.32,45.7,109.09q1.42,5.52,2.7,11.12c7.46,32.84,10.91,68.29-2.1,99.34-17.33,41.34-59.82,66.34-84.27,103.91-15.41,23.67-23.22,53-17.74,80.72s25.44,53,52.41,61.38c12.24,3.8,25.28,4.13,37.79,6.89,35,7.69,64.65,35.76,74.29,70.24,3,10.91,4.29,22.5,9.58,32.51,4.86,9.19,12.79,16.37,21,22.69,67.23,51.47,102.12,8.45,161.4-22.61,26.79-14,49-17.4,64.43-47.83,14.94-29.53,7.29-65.87,24.37-95.18,6.41-11,15.71-20.31,20.77-32,7.59-17.53,4.55-37.93-1.9-55.91A160.85,160.85,0,0,0,3645.34,800.5Z"/><path class="cls-6" d="M3762.53,892.64a1.51,1.51,0,0,1-1.43-1,1.49,1.49,0,0,1,1-1.89c24.89-8.14,44.55-32.6,48.92-60.87,4-25.63-3.8-53.93-21.3-77.65-14.88-20.17-36.58-37.37-64.52-51.14C3678.3,677,3641,654.83,3622.56,598.67c-5.32-16.19-9.6-33.17-13.73-49.6-12.54-49.78-25.5-101.26-69-136a1.5,1.5,0,0,1,1.87-2.35c44.33,35.36,57.42,87.34,70.08,137.61,4.12,16.37,8.38,33.31,13.67,49.4,18.1,55.16,53.31,76.08,101.08,99.62,28.37,14,50.44,31.49,65.61,52,18,24.36,25.93,53.48,21.84,79.89-4.54,29.35-25,54.78-51,63.26A1.48,1.48,0,0,1,3762.53,892.64Z"/><path class="cls-24" d="M3251.29,943.18c-28.74,44.68-62.47,97.82-120,104.87-52.27,6.41-102.19-23.58-140.57-56.42-48.27-41.3-99.15-89.16-138.37-139.25-15.58-19.89-27.57-43-39.71-65.25q-15.77-28.86-30.06-58.49c-3.75-7.78-6.24-16-15.11-19.15-3.42-1.2-7.62-1.36-10.87.43-4.37,2.4-4.58,6-4.24,10.48a177.82,177.82,0,0,0,5.7,33.19c.26.95,2.13,5.76.24,5.88-1.1.07-2-2.7-2.35-3.5q-8.7-19.29-18.8-37.92c-2.2-4-16-33.81-22.62-25.3a9.22,9.22,0,0,0-1.49,5.12c-1.39,17.94,3,32.31,9,48.91q-8.64-23.89-17.27-47.78c-1.24-3.44-2.9-7.3-6.37-8.44-6.75-2.22-10.85,7.31-11,14.39a124.76,124.76,0,0,0,10.11,51q-6.55-14.25-13.13-28.49c-2.21-4.8-4.92-9.62-6.72-14.58-1.12-3.11-1.81-6.91-6.17-6.55a7.52,7.52,0,0,0-5.79,4.32,16.51,16.51,0,0,0-1.37,7.38c0,9.57,3.38,18.88,7.72,27.46s9.7,16.61,14.13,25.14q-9-13.56-16.65-27.94c-2.7-5.1-6-10.86-11.68-12a3.26,3.26,0,0,0-1.78,0,3.48,3.48,0,0,0-1.45,1.27c-2.73,3.7-3.5,8.48-3.72,13.09-3.16,65.4,58.21,114.89,96.12,159.81,26.75,31.69,48,67.57,71.95,101.46,70.1,99.27,181.64,221.54,309.52,235.51,65.05,7.1,124-20.64,172.35-61.56,23.32-19.74,44.16-42.56,62-66,43.82-57.58,127-188.17,79.73-262.19C3389.74,769.31,3278,901.6,3251.29,943.18Z"/><g class="cls-25"><path class="cls-26" d="M3181,1206.21a114.11,114.11,0,0,0-35.68-12.61c-15.66-2.59-30.77-.77-45.64,4.45-8.54,3-27.56,11-23.68,23.75a9.58,9.58,0,0,0,2.35,3.57c7.6,8.21,18.18,13.2,29.09,15.64s22.2,2.47,33.36,2c10.62-.47,21.43-1.46,31.2-5.64,6.73-2.87,17.16-9.34,19.27-17C3193.51,1212.23,3188.23,1210.1,3181,1206.21Z"/></g><path class="cls-24" d="M3469.42,604.49c-1.93-9.26-3.9-18.93-2.64-28.42,1.17-8.78,5.59-10.69,10.13-17.42,7.8-11.53,11.06-28.41,1-39.7-8.34-9.39-23.71-8-35.14-2.66-5.65,2.62-7.67,5.89-12,10-18.88,17.93-38.42,4.44-55.87-8a179.58,179.58,0,0,1-36.87-34.7c-3.72-4.7-22.18-38.14-29.46-26.31-15.09,24.55-16.8,61.37-18.66,89.44-2.77,41.83,1.4,98.46,50,113.06,15.85,4.76,27.15,12.15,33.54,28.52,5.63,14.4,6.5,30.14,7.32,45.56l3.33,63.3c.44,8.19-1.71,17.61,5.15,23a53.21,53.21,0,0,0,22.36,9.92c11.36,2.23,23.13.85,34.48-1.48,16.44-3.37,33.08-9.19,46.44-19a69.6,69.6,0,0,0,15.61-15.51c2.39-3.32,4.5-7,4.78-11.09.22-3.41-.86-6.76-1.92-10C3493.15,717.94,3481.27,661.15,3469.42,604.49Z"/><g class="cls-25"><path class="cls-26" d="M3467.87,596.59c-.76-3-2.44-6.65-5.55-6.47a194,194,0,0,1-56.9,54.66,115.89,115.89,0,0,1-17.67,9.31q-3.91,1.59-8,2.8a117.54,117.54,0,0,1-34.83,4.53c5,.05,11,4.43,14.61,7.43,13.22,10.81,17.11,27.94,19.74,44q1.2,7.38,1.69,14.84c.22,3.29,1.22,8.09.23,11.3,4.9-15.88,14.18-30.14,22.57-44.43a522,522,0,0,1,29.74-45.75c6.92-9.37,14.41-18.51,23.83-25.4,2.85-2.09,6.52-4,9.78-2.66,2.07.86,3.39,2.84,4.6,4.71l4.4,6.84c-2.51-3.9-2.79-11.27-3.7-15.77Q3470.4,606.52,3467.87,596.59Z"/></g><path class="cls-27" d="M3606.05,846.24c-16.07-13-36.8-15.51-53.66-26.09-17-10.7-27.64-44.07-34.6-61.72-3-7.64-5.29-15.82-5.51-24.08-.19-7.17,4.16-14.23,3.7-20.82a12.53,12.53,0,0,0-2.05-5.55c-7.22-11.83-17.74-13.66-30.21-10.74q-49.69,11.61-100.23,19a37.85,37.85,0,0,0-8.23,1.83c-8.76,3.36-13.83,12.94-14.86,22.28-.53,4.85-.21,10.19,2.11,14.58s6.06,7.58,7.78,12.38c4.4,12.22,0,29.8-4.34,41.41-5.21,13.9-15.61,25.56-25,36.84-41.06,49.45-84.55,107.29-81.09,174.13,2.71,52.31,12.46,102.59,18.26,153.74,3.52,31,5.58,62.3,3.76,94.58,99.72-9.27,200.81-.36,300.79-4.68,4.06-.18,8.25-.4,11.86-2.26,7.52-3.87,10-13.28,11.62-21.6q21.89-110.64,37.44-222.42C3651.62,959.48,3657.48,887.84,3606.05,846.24Z"/><path class="cls-15" d="M3741.42,2202.58c-10.75-34.52-21-69.33-26.89-105-5.47-33-7.23-66.45-12-99.53-10.26-71.85-34.33-140.89-58.28-209.4-3.93-11.24-8.55-23.36-18.74-29.5-7.31-4.41-16.23-4.92-24.75-5.31-29.46-1.37-90.31-8.22-107.76,22.35-14.56,25.53-12.92,80.94-15.68,110-6.21,65.14,2.48,120.14,27,184.69,37.84,99.57,79,198.07,127.83,292.79,14.27,27.66,28.28,55.46,42.94,82.93,18.63,34.9,38.22,69.38,60.47,102.13,10.82,15.93,22.27,31.45,34.61,46.24q9,10.74,18.6,20.91c6.87,7.23,7.72,12.79,10.79,22a20.62,20.62,0,0,0,12,12.55c5.7,2.18,12,1.69,18.09,1,18.36-2.09,37.43-6,53.14-16.22q1.27-.82,2.43-1.62c6.41-4.38,10.37-8.42,10.39-17,0-9.05-3-18-6.66-26.16A3359.82,3359.82,0,0,1,3741.42,2202.58Z"/><path d="M3821.39,2653.44a28.46,28.46,0,0,1-10.29-1.68,22,22,0,0,1-12.91-13.48c-.5-1.5-.94-2.91-1.36-4.25-2.15-6.85-3.57-11.37-9.09-17.17-6.2-6.52-12.48-13.58-18.66-21-11.63-13.93-23-29.09-34.7-46.35-19.27-28.37-38-59.91-60.56-102.28-10.46-19.6-20.76-39.7-30.72-59.14q-6.1-11.91-12.23-23.8C3588,2281.13,3547.32,2188,3503,2071.36c-25.1-66-33.2-121.45-27.11-185.36.67-7,1.09-15.76,1.53-25,1.41-29.37,3.15-65.93,14.35-85.55,16.25-28.48,68.66-25.43,100-23.61,3.29.19,6.37.37,9.16.5,8.27.38,17.65.82,25.45,5.52,10.29,6.2,15.05,17.87,19.39,30.29,23.61,67.57,48,137.43,58.34,209.68,2.11,14.72,3.65,29.76,5.13,44.29,1.86,18.16,3.79,36.93,6.82,55.22,6.1,36.74,17,73.36,26.84,104.8h0a3371,3371,0,0,0,147.55,387.61c4.66,10.28,6.81,18.79,6.79,26.78,0,8.94-4.06,13.46-11,18.23-.78.54-1.61,1.08-2.46,1.64-17.08,11.1-37.72,14.62-53.79,16.45A75.07,75.07,0,0,1,3821.39,2653.44Zm-259.32-899.7c-27.13,0-56.7,3.89-67.72,23.2-10.83,19-12.56,55.15-13.95,84.21-.44,9.27-.86,18-1.54,25.13-6.05,63.42,2,118.45,26.92,184,44.3,116.58,84.9,209.57,127.76,292.64q6.14,11.9,12.23,23.81c9.95,19.43,20.25,39.52,30.7,59.1,22.56,42.27,41.18,73.72,60.39,102,11.67,17.18,23,32.27,34.52,46.11,6.14,7.36,12.38,14.37,18.54,20.85,6,6.3,7.57,11.34,9.77,18.33.41,1.32.85,2.71,1.35,4.2a19,19,0,0,0,11.13,11.63c5.37,2.05,11.54,1.57,17.39.91,15.75-1.79,35.94-5.22,52.49-16,.84-.54,1.64-1.07,2.41-1.6,6.44-4.4,9.71-8.05,9.73-15.75s-2.05-15.67-6.52-25.54A3373.4,3373.4,0,0,1,3740,2203c-9.82-31.53-20.81-68.27-26.94-105.2-3.05-18.38-5-37.2-6.84-55.4-1.49-14.51-3-29.51-5.12-44.17-10.27-72-34.64-141.69-58.2-209.12-4.16-11.88-8.67-23-18.11-28.71-7.15-4.31-16.12-4.73-24-5.09-2.8-.13-5.89-.31-9.2-.51C3582.93,1754.33,3572.69,1753.74,3562.07,1753.74Z"/><path class="cls-23" d="M3941.86,2632.77c-14.15-8.73-34,.86-46.63,8.68-17.12,10.64-33.32,22.71-50.68,33s-36.17,18.68-56.17,21.17c-13.44,1.68-27.1-2.12-40.08.27-14.13,2.61-30,3.71-42.65,11.1-.56,3.28-3.34,6.1-4.07,9.88-1,5.16-1.08,8.38,1.07,13.53,4.44,10.63,15.06,18.17,25.5,22.14,10.06,3.83,20.95,5,31.71,5.1,53,.71,106-20.53,152.65-44.19,15.62-7.93,30.76-17.21,42.95-29.46C3971.41,2667.91,3958.65,2643.12,3941.86,2632.77Z"/><path class="cls-27" d="M3923.46,2592.74a399.29,399.29,0,0,1-31.66-80.86,929.28,929.28,0,0,0-83.24,48.58c-16.09,10.55-32.88,22-52.08,23.18a451.73,451.73,0,0,1,24.94,49.17c1.82,4.21,3.6,8.55,3.84,13.12,1,18.22-19.76,28.19-34.78,31-10.66,2-21.69,2.43-31.93,6a35.22,35.22,0,0,0-17.29,12.93,22.13,22.13,0,0,0,4.84,30.49c6,4.47,13.5,6.35,20.86,7.67,77.05,13.81,155.84-19,215.68-65.95,6-4.72,8.85-10.45,9.45-16.51,1-10.26-4.31-21.5-11.27-30.53C3933.72,2611.82,3928.91,2603.16,3923.46,2592.74Z"/><path class="cls-28" d="M3567.49,1379.81c-85.63-40.55-171.3-81.12-258.61-118-22.81-9.38-145.67,401.43-151.92,426.69-27.69,111.82-42.73,226.83-45.84,342.31-4.72,175.19,18,351.44,65.67,519.25,20.06,70.58,144.88,59.18,160.42-8.62,3.64-15.91,2.36-32.47,1.32-48.76-6-93.78-4.05-188.5,8.49-281.69a1385.6,1385.6,0,0,1,75.26-299.94c36.54-97.6,93.56-186.08,132.9-282.82,14.83-36.45,35.27-80.15,37.4-119.87,1.84-34.27-10-67.53-.31-102.33C3596.89,1389.5,3579.87,1385.68,3567.49,1379.81Z"/><path class="cls-2" d="M3742.79,2162.86c-60.31-204.58-54.39-405.87-53.76-617.77.15-48.12,2.07-101.41-8.75-148.6-9.33-40.7-42-72.41-48.32-114.57-2.69-17.94-20.73-14.28-35.18-14.59-100-2.15-199.94-4.29-299.91-2.13-26,.79,32.77,449.39,37.63,476.41,21.54,119.62,56.64,236.87,103.43,349.43,71,170.74,168.85,330.69,287.08,471.75,44.76,53.4,92.65,11.34,135.87-22.84,5-4,10.19-8.39,12.12-14.49,17.54-55.3-37-123-58.49-170.21A1460.32,1460.32,0,0,1,3742.79,2162.86Z"/><path class="cls-6" d="M3889.72,2498.33c-12.27-2.79-28.76,14.4-37.22,21.26a294,294,0,0,1-109.08,55.35c-7.9,2.08,5.57,22.34,7.75,25.1,7.57,9.57,17.13,10.68,28.8,8.81a221.65,221.65,0,0,0,74.4-26.31c16.92-9.64,52.47-28.81,53.8-51,0-.12,0-.24,0-.37C3908.53,2522.51,3899.37,2500.52,3889.72,2498.33Z"/><path class="cls-23" d="M3288.44,2670.8c-20.5,2.24-40.8,6.21-61.35,8s-41.64,1.24-61.2-5.31c-13.14-4.4-24.07-14-37.1-17.49-14.19-3.85-29.34-9.87-44.27-8.64-2,2.77-5.78,4.15-8.13,7.32-3.2,4.32-4.71,7.24-5,13-.61,11.76,5.86,23.43,13.73,31.72,7.59,8,17.14,13.84,27,18.73,48.64,24.13,106.94,28,160.42,26.79,17.92-.4,36-2.27,52.67-8.18,21.82-7.73,21-36.25,10.1-53.23C3326.12,2669.11,3303.53,2669.16,3288.44,2670.8Z"/><path class="cls-27" d="M3244.31,2557.71c-19.51,2.61-40.06,5.71-58.31-1.66a463.69,463.69,0,0,1,1.25,56.41c-.18,4.69-.46,9.48-2.26,13.81-7.18,17.23-30.72,17.27-45.83,13.23-10.73-2.86-21.09-7.36-32.12-8.59a35.94,35.94,0,0,0-21.68,4.28,22.64,22.64,0,0,0-9,30.27c3.55,6.78,9.65,11.84,15.86,16.31,65,46.84,152.22,51.42,228.21,34.6,7.65-1.69,12.79-5.72,16-11,5.49-9,5.54-21.75,3.12-33.16-2.47-11.66-3.08-21.78-3.5-33.81a409,409,0,0,1,6.58-88.63A951.63,951.63,0,0,0,3244.31,2557.71Z"/><path class="cls-6" d="M3346.11,2536c-10.36-8.36-34.35,1.25-45.71,4.23a307.34,307.34,0,0,1-130.64,5.46c-8.53-1.52-5.41,24.8-4.65,28.54,2.62,13,11.21,18.45,23.25,21.9a228.64,228.64,0,0,0,83.6,7.68c20.77-1.91,63.89-4.82,75.81-26.31.07-.12.13-.24.19-.37C3352.45,2568.67,3354.27,2542.58,3346.11,2536Z"/><path class="cls-6" d="M3792.32,2556.44a1.49,1.49,0,0,1-1.25-.67c-70.27-105.5-142.93-214.59-204.85-328.08-47.84-87.69-87.87-185.25-119-290-43.23-145.52-65.1-296.62-83.8-438.92-4.48-34.1-8.74-68.73-12.68-102.92-2-17.13-3.89-34.47-5.71-51.54-.35-3.29-1.09-7.35-1.88-11.64-2.32-12.71-5-27.11-.85-36.16a1.5,1.5,0,0,1,2.73,1.24c-3.72,8.2-1.06,22.71,1.07,34.38.8,4.35,1.55,8.46,1.91,11.86,1.83,17.06,3.75,34.39,5.71,51.51,3.93,34.18,8.2,68.8,12.68,102.88,18.68,142.18,40.53,293.15,83.7,438.45,31.05,104.52,71,201.88,118.73,289.38,61.86,113.38,134.48,222.41,204.72,327.86a1.5,1.5,0,0,1-1.25,2.33Z"/><path class="cls-23" d="M3759.47,2662.56c-8.2,5.25,1.06,20.71,5.15,25.83,4.87,6.11,10.62-2.35,10.85-7.32,0-.21,0-.43,0-.67C3775.27,2673.59,3768,2657.11,3759.47,2662.56Z"/><path class="cls-23" d="M3734.39,2667.06c-8.2,5.25,1.06,20.71,5.15,25.83,4.87,6.11,10.62-2.35,10.86-7.32,0-.21,0-.43,0-.67C3750.19,2678.09,3742.9,2661.61,3734.39,2667.06Z"/><path class="cls-23" d="M3149.82,2626.35c-9.88,1.22-8.16,19.58-6.65,26.12,1.8,7.8,10.85,2.52,13.26-2,.1-.19.2-.4.29-.62C3159.54,2643.51,3160.09,2625.08,3149.82,2626.35Z"/><path class="cls-23" d="M3124.68,2619.43c-9.88,1.22-8.16,19.58-6.65,26.12,1.8,7.79,10.85,2.52,13.25-2a4.94,4.94,0,0,0,.3-.61C3134.4,2636.59,3135,2618.16,3124.68,2619.43Z"/><path class="cls-29" d="M3393.53,787.91c-7.18,0-17.22-.89-22.07-8.14a1.5,1.5,0,1,1,2.5-1.66c4.22,6.31,13.56,7,23,6.74,34.83-.82,69.58-6.14,102.18-11.51,8.59-1.41,16.74-3.13,22.23-8.57a1.5,1.5,0,1,1,2.12,2.13c-6.12,6.07-14.78,7.91-23.86,9.4-32.71,5.39-67.57,10.72-102.6,11.55C3396,787.88,3394.81,787.91,3393.53,787.91Z"/><path class="cls-29" d="M3404,841.92c-18.88,0-37-2.19-52.52-9.07a1.5,1.5,0,1,1,1.22-2.74c26.43,11.68,60.77,9.47,93.67,6.21,31.35-3.11,63.4-10.75,98-23.36a1.5,1.5,0,0,1,1,2.82c-34.84,12.7-67.14,20.39-98.73,23.52C3432.47,840.71,3418,841.92,3404,841.92Z"/><path class="cls-29" d="M3436.73,907.87c-20.28,0-41.86-.77-65.05-2.3-23.64-1.56-47.76-5.16-64-20.85a1.5,1.5,0,0,1,2.08-2.16c15.59,15,39.09,18.5,62.16,20,128.24,8.46,195.23-9.26,234.45-23.33q2.82-1,5.62-2.06c4.64-1.75,9.3-3.61,13.87-5.51a1.5,1.5,0,1,1,1.15,2.77c-4.59,1.92-9.29,3.78-14,5.54q-2.82,1.07-5.67,2.09c-34.93,12.52-73,20.29-116.52,23.75C3473.77,907.19,3455.83,907.87,3436.73,907.87Z"/><path class="cls-29" d="M3421.69,984.78c-24.29,0-50.12-.76-77.89-2.29-28.23-1.55-57-5.14-76.46-20.76a1.5,1.5,0,1,1,1.88-2.34c18.77,15.09,47,18.58,74.74,20.1,153.72,8.47,234-9.27,281.05-23.34q3.38-1,6.74-2.07c5.56-1.75,11.16-3.61,16.62-5.52a1.5,1.5,0,0,1,1,2.84c-5.49,1.91-11.12,3.78-16.71,5.54-2.25.71-4.52,1.4-6.78,2.08-41.81,12.51-87.42,20.28-139.45,23.73C3466,984.11,3444.55,984.78,3421.69,984.78Z"/><path class="cls-29" d="M3413.09,1063c-24.28,0-50.12-.76-77.89-2.29-28.23-1.56-57-5.15-76.45-20.77a1.5,1.5,0,1,1,1.88-2.33c18.77,15.08,47,18.58,74.74,20.1,153.72,8.46,234-9.27,281.05-23.35,2.25-.67,4.5-1.36,6.73-2.06,5.57-1.76,11.16-3.61,16.63-5.52a1.5,1.5,0,0,1,1,2.83c-5.5,1.92-11.12,3.79-16.72,5.55q-3.37,1.06-6.77,2.08c-41.81,12.51-87.42,20.27-139.45,23.73C3457.44,1062.29,3436,1063,3413.09,1063Z"/><path class="cls-29" d="M3424.53,1147.13c-24.28,0-50.12-.76-77.9-2.29-28.22-1.56-57-5.15-76.45-20.77a1.5,1.5,0,1,1,1.88-2.33c18.77,15.08,47,18.57,74.74,20.1,153.72,8.46,234-9.27,281-23.35q3.38-1,6.74-2.06c5.56-1.76,11.16-3.61,16.62-5.52a1.5,1.5,0,1,1,1,2.83c-5.49,1.92-11.12,3.79-16.71,5.55-2.25.71-4.52,1.4-6.78,2.08-41.81,12.51-87.42,20.27-139.45,23.73C3468.87,1146.45,3447.39,1147.13,3424.53,1147.13Z"/><path class="cls-29" d="M3424.53,1217.25c-24.28,0-50.12-.77-77.9-2.29-28.22-1.56-57-5.15-76.45-20.77a1.5,1.5,0,1,1,1.88-2.34c18.77,15.09,47,18.58,74.74,20.11,153.72,8.46,234-9.27,281-23.35q3.38-1,6.74-2.07c5.57-1.75,11.16-3.61,16.62-5.51a1.5,1.5,0,0,1,1,2.83c-5.49,1.92-11.11,3.78-16.71,5.54-2.25.71-4.52,1.41-6.78,2.09-41.81,12.51-87.42,20.27-139.45,23.73C3468.87,1216.57,3447.39,1217.25,3424.53,1217.25Z"/><path class="cls-23" d="M3403.25,534.17c-24.37,0-54.87-15.36-73.66-37.37-14.14-16.57-20-35-16.42-51.79a1.5,1.5,0,0,1,2.94.62c-3.36,15.9,2.24,33.38,15.76,49.22,19,22.21,50.08,37.46,74,36.25a1.5,1.5,0,0,1,.15,3C3405.13,534.15,3404.19,534.17,3403.25,534.17Z"/><path class="cls-15" d="M3337.66,529.93c-5.87.57-12.19,2.34-15.56,7.18a3.33,3.33,0,0,0-.69,1.59c-.08,1.19.76,1.07,1.39,2.09,10.22,16.52,32.64,9.75,42-3.81A40.51,40.51,0,0,0,3337.66,529.93Z"/><path class="cls-23" d="M3347.3,530.5c-3.82-2-12.17-1-15.59,1.66-4.83,3.84-2.06,11.78,2,15.07,3.09,2.52,7.76,3.65,11.28,1.35a11,11,0,0,0,4.16-5.59q.2-.57.39-1.23C3350.55,538.06,3351,532.46,3347.3,530.5Z"/><path d="M3364.19,538.81a2,2,0,0,1-1.56-.74c-2-2.42-6.28-4.4-12.83-5.87a31.32,31.32,0,0,0-26.06,5.87,2,2,0,0,1-2.8-.33,2,2,0,0,1,.32-2.81,35.33,35.33,0,0,1,29.42-6.63c7.55,1.7,12.48,4.07,15.06,7.25a2,2,0,0,1-1.55,3.26Z"/><path class="cls-15" d="M3290.6,531.18a11,11,0,0,0-4.8.93c-2.14,1.06-4.84,3.9-5.31,6.28-.41,2.07.6,5,1.51,6.84a10.43,10.43,0,0,0,11.17,6c5.9-1,11.13-6.21,11.74-12.25S3295,531.16,3290.6,531.18Z"/><path d="M3322,520.31a4.51,4.51,0,0,1-2.79-8c4-3.14,9.31-5.07,15.79-5.72a89.76,89.76,0,0,1,28.13,1.58,4.5,4.5,0,1,1-1.91,8.79,81,81,0,0,0-25.33-1.41c-4.74.47-8.48,1.76-11.1,3.83A4.51,4.51,0,0,1,3322,520.31Z"/><path d="M3280.43,541.28a2,2,0,0,1-1.75-3l.14-.25a14,14,0,0,1,1.84-2.79c2.64-2.94,6.87-4.17,10-4.68,6.56-1.09,12.78.61,17.07,4.67a2,2,0,0,1-2.75,2.91c-3.37-3.2-8.35-4.52-13.66-3.64-2.45.41-5.76,1.33-7.63,3.41a10.4,10.4,0,0,0-1.31,2l-.14.25A2,2,0,0,1,3280.43,541.28Z"/><g class="cls-25"><ellipse class="cls-26" cx="3398.6" cy="566.53" rx="30.98" ry="29.26" transform="translate(-5.93 36.79) rotate(-0.62)"/></g><path class="cls-26" d="M3306.09,562.3c-3.08,3.85-6.72,9-4,14,2.24,4,7.29,5.94,11.46,7.21l-.84-39.43C3312.72,551.09,3310.68,556.58,3306.09,562.3Z"/><path class="cls-30" d="M3313.59,585a1.29,1.29,0,0,1-.43-.07c-4.73-1.43-9.89-3.49-12.34-7.91-3.45-6.21,1.65-12.58,4.1-15.64h0c4.41-5.5,6.3-10.68,6.33-17.32a1.5,1.5,0,0,1,1.49-1.49h0a1.5,1.5,0,0,1,1.5,1.46l.84,39.44a1.51,1.51,0,0,1-1.5,1.53Zm-6.32-21.75c-3.78,4.72-5.88,8.62-3.83,12.31,1.63,2.94,5.08,4.65,8.61,5.86l-.53-24.78a34,34,0,0,1-4.26,6.61Z"/><path class="cls-26" d="M3312.7,541.82l.05,2.23C3312.76,543.32,3312.74,542.58,3312.7,541.82Z"/><path class="cls-30" d="M3312.75,545.55a1.5,1.5,0,0,1-1.5-1.47l-.05-2.22a1.5,1.5,0,0,1,3-.11c0,.79.06,1.55.05,2.3a1.5,1.5,0,0,1-1.49,1.5Z"/><path class="cls-23" d="M3292.86,533c-6.32,0-11.57,4.66-9.29,11.28,1.76,5.08,8.67,9.82,13.39,5.14a9.34,9.34,0,0,0,1.86-2.91C3301.44,540.57,3300.84,533.05,3292.86,533Z"/><path d="M3302.82,525.12a4.77,4.77,0,0,1-1.12-.14,69.92,69.92,0,0,0-8.84-1.68c-5.3-.66-9.23-.29-12,1.12a4.5,4.5,0,0,1-4.1-8c4.49-2.3,10-2.95,17.22-2a78.26,78.26,0,0,1,9.95,1.89,4.5,4.5,0,0,1-1.11,8.86Z"/><g class="cls-25"><path class="cls-26" d="M3332.81,596.4c-3.38,1.32-6.35,3.57-9.94,4.33-4.93,1-9.57.24-14.5.13-.31.89.38,1.75.94,2.5,3.63,4.89,10.89,6.44,16.59,5.23a11.93,11.93,0,0,0,7.95-5.43,14.22,14.22,0,0,0,1.67-5.12C3335.88,595.32,3335.1,595.51,3332.81,596.4Z"/></g><path d="M3316.41,602.17a29.94,29.94,0,0,1-7.4-.85,1.5,1.5,0,0,1,.76-2.9c6.44,1.67,19,.89,25.46-6.1a1.5,1.5,0,1,1,2.2,2C3332.11,600.1,3323.54,602.17,3316.41,602.17Z"/><path d="M3320.92,610.37a22.48,22.48,0,0,1-8.64-1.83.39.39,0,0,1-.2-.5.37.37,0,0,1,.49-.2c6.3,2.66,12.66,2.33,17.46-.9A16.66,16.66,0,0,0,3337,596.5a.37.37,0,0,1,.44-.29.38.38,0,0,1,.29.44,17.39,17.39,0,0,1-7.23,10.91A16.89,16.89,0,0,1,3320.92,610.37Z"/><path class="cls-11" d="M3492.25,995.3A14.81,14.81,0,0,0,3476.12,982l-319.35,30.25a14.81,14.81,0,0,0-13.34,16.13l43.28,458.58a14.81,14.81,0,0,0,16.13,13.35L3522.18,1470a14.81,14.81,0,0,0,13.35-16.13Z"/><path class="cls-18" d="M3477.42,1005.57a14.79,14.79,0,0,0-16.13-13.35L3142,1022.46a14.8,14.8,0,0,0-13.34,16.13l43.27,458.59a14.81,14.81,0,0,0,16.14,13.34l319.34-30.24a14.8,14.8,0,0,0,13.34-16.13Z"/><path class="cls-11" d="M3465.35,1024.15A18.67,18.67,0,0,0,3445,1007.3l-276.51,26.19,46,488.06,276.52-26.19a18.67,18.67,0,0,0,16.81-20.37Z"/><path class="cls-12" d="M3133.35,1036.82a18.68,18.68,0,0,0-16.82,20.37L3159.07,1508a18.68,18.68,0,0,0,20.33,16.85l35.16-3.33-46-488.06Z"/><path class="cls-24" d="M3759.63,1045.07c-20.57-67.89-76.51-208.93-162.29-213.73-96-5.38-55.07,159.37-37.42,204.5,19,48.49,41.8,105.8,14.43,155.66-24.87,45.3-77.26,67.87-125.3,79.62-60.41,14.77-127.53,27.87-189.72,30.4-42.51,1.73-82.32-11.36-124.52-13.37-2.74-.13-5.83-.11-7.76,1.84-2.75,2.77-2.68,8.82-6.59,9-23.36,1.24-11.92,114.12,16.57,125.14,14.89,5.76,40.94.63,56.23-1.88,27-4.45,52.27-12.55,79.77-9.41,99.44,11.36,210.34-.18,307.61-25.67,54.07-14.16,108.12-40.34,145.9-82.37,42.9-47.74,54.69-110.6,49.92-172.53A413,413,0,0,0,3759.63,1045.07Z"/><g class="cls-25"><path class="cls-26" d="M3724.32,1253.27a112.29,112.29,0,0,0-32.72,17.46c-12.22,9.61-20.92,21.75-27,36-3.49,8.16-10.36,27.2,1.43,32.85a9.47,9.47,0,0,0,4.13.68c10.94-.07,21.56-4.41,30.53-10.69s16.49-14.43,23.52-22.84c6.69-8,13.13-16.47,16.6-26.3,2.38-6.77,4.63-18.6.49-25.22C3736.93,1248.23,3731.9,1250.64,3724.32,1253.27Z"/></g><path class="cls-26" d="M3453.36,538.1c-.67,6.64.72,14.35,4.67,19.83l11.6-33.18C3461.2,518.74,3454.05,531.24,3453.36,538.1Z"/><path class="cls-30" d="M3458,559.43a1.48,1.48,0,0,1-1.22-.62c-3.87-5.38-5.72-13.18-4.95-20.86h0c.49-4.87,4.15-13,9.75-15.5a8.59,8.59,0,0,1,8.9,1.08,1.51,1.51,0,0,1,.54,1.72l-11.61,33.18a1.48,1.48,0,0,1-1.2,1Zm-3.18-21.18a30.13,30.13,0,0,0,2.81,16.19l10.16-29.05a5.31,5.31,0,0,0-5-.21c-4.34,2-7.59,8.94-8,13.07Z"/></g></svg>