<svg id="_01" data-name="01" xmlns="http://www.w3.org/2000/svg" xmlns:xlink="http://www.w3.org/1999/xlink" viewBox="0 0 4680 3120"><defs><style>.cls-1{fill:none;}.cls-2,.cls-4{fill:#fff;}.cls-2{opacity:0;}.cls-3{fill:#e7e6f6;}.cls-5{fill:#fab953;}.cls-6{fill:#9b9bce;}.cls-7{fill:#5a6aff;}.cls-8{fill:#1f32a0;}.cls-9{opacity:0.8;}.cls-10{fill:#2b39ff;}.cls-11{fill:#cfcdf1;}.cls-12{clip-path:url(#clip-path);}.cls-13{opacity:0.5;}.cls-14{fill:#ffdeb3;}.cls-15{fill:#ffc783;}.cls-16{fill:#ed9021;}.cls-17{opacity:0.4;}.cls-18{fill:#444;}.cls-19{fill:#9090bf;}.cls-20{fill:#a7a7d8;}.cls-21{clip-path:url(#clip-path-2);}.cls-22{opacity:0.3;}.cls-23{fill:#fc966a;}.cls-24{fill:#d82762;}.cls-25{fill:#ffc1af;}.cls-26{clip-path:url(#clip-path-3);}.cls-27{fill:#d8d8d8;}.cls-28{fill:#913d1c;}.cls-29{clip-path:url(#clip-path-4);}.cls-30{fill:#772c15;}.cls-31{clip-path:url(#clip-path-5);}.cls-32{fill:#842117;}.cls-33{fill:#662714;}.cls-34{clip-path:url(#clip-path-6);}.cls-35{fill:#f46938;}.cls-36{clip-path:url(#clip-path-7);}.cls-37{fill:#c11b5b;}.cls-38{clip-path:url(#clip-path-8);}.cls-39{clip-path:url(#clip-path-9);}.cls-40{clip-path:url(#clip-path-10);}.cls-41{clip-path:url(#clip-path-11);}.cls-42{clip-path:url(#clip-path-12);}.cls-43{clip-path:url(#clip-path-13);}.cls-44{fill:#415bc4;}.cls-45{clip-path:url(#clip-path-14);}.cls-46{clip-path:url(#clip-path-15);}.cls-47{clip-path:url(#clip-path-16);}.cls-48{clip-path:url(#clip-path-17);}.cls-49{clip-path:url(#clip-path-18);}.cls-50{fill:#8597ff;}</style><clipPath id="clip-path"><rect class="cls-1" x="1011.6" y="1049.76" width="2102.43" height="1231" rx="36.75"/></clipPath><clipPath id="clip-path-2"><polygon class="cls-1" points="1741.04 1583.4 1693.14 1984.26 1912.48 1984.26 1945.25 1865.77 1965.42 1984.26 2199.89 1984.26 2131.82 1626.26 1741.04 1583.4"/></clipPath><clipPath id="clip-path-3"><path class="cls-1" d="M2379.52,1109.43s-11.35-34.67.63-54.2,54.2-45.38,60.5-39.71-17,37.18-17,37.18,31.51,31.52,12,66.18-43.49,38.45-43.49,38.45Z"/></clipPath><clipPath id="clip-path-4"><path class="cls-1" d="M1863.28,770.86s9.21-37.47,50.62-35.5,69.68,9.21,76.91,11.84-14.46,9.2-14.46,9.2,65.07,5.26,75.59,19.72-15.12,30.24-9.2,34.18,7.88,14.46,6.57,23.66-19.06,21.7-21.69,23-175.51,46.67-175.51,46.67S1768.63,797.81,1863.28,770.86Z"/></clipPath><clipPath id="clip-path-5"><path class="cls-1" d="M2029.08,847.86v68.7a71.42,71.42,0,0,1-69.48,71.17l2.44,21.11.86,7.31s-25.84,25.84-35.29,29-56.73-22.69-55.47-37.82c.93-11.19,1.87-51,2.29-71a37.05,37.05,0,0,1-21.1-6.81c-15.43-10.74-20.37-30.33-11-43.74s29-15.53,44.32-5.22v-8.62L1898,839s32.78,1.89,47.27,3.78,1.26-8.19,1.26-8.19,47.27,5,61.77,1.26a144.77,144.77,0,0,1,16.51-3.46A30.11,30.11,0,0,1,2029.08,847.86Z"/></clipPath><clipPath id="clip-path-6"><path class="cls-1" d="M1985.59,932.32s-22.06,3.78-37.82,0,3.79,26.47,21.43,23.95S1985.59,932.32,1985.59,932.32Z"/></clipPath><clipPath id="clip-path-7"><path class="cls-1" d="M1904.07,1064.05l7.57,22.69-21.85,256.31,25.21,95.81,54.62-88.24-27.73-263,5-26s-14.28-16-21-12.61S1904.07,1064.05,1904.07,1064.05Z"/></clipPath><clipPath id="clip-path-8"><path class="cls-1" d="M2474.69,1156.5s-110.93,267.24-213.46,245.38q-15.21-3.26-28.39-7.39c-73-22.59-102.23-61.76-107.05-68.82-.48-.73-.71-1.11-.71-1.11l14.4,158.93,2.6,28.89,15,165.13-437,5s-50.85-559.69-25.64-603.38c9.61-16.64,48-28.12,71-33.62,37.42-8.9,74-18.5,74-18.5s58.81,247.09,80.67,341.2,74-344.55,74-344.55,50.44,10.35,84,21.85c12.63,4.29,31.32,25.83,38.66,33.62,26.9,28.56,146.22,147.91,146.22,147.91l100.85-122.7Z"/></clipPath><clipPath id="clip-path-9"><path class="cls-1" d="M1720.87,1434.65l118.5,209.26-121,70.59S1553.22,1519.11,1552,1437.18s93.28-393.3,175.22-371.87,30.66,140.34,13,229.84S1720.87,1434.65,1720.87,1434.65Z"/></clipPath><clipPath id="clip-path-10"><path class="cls-1" d="M1838.11,1642.65s18.9-1.26,31.51,27.73,50.42,64.29,34,64.29a48.9,48.9,0,0,1-27.73-8.83s7.57,25.22-1.26,30.26-24-3.78-36.55,10.08-41.6,18.91-41.6,18.91-32.78-2.52-35.3-22.69-11.34-69.33-11.34-69.33Z"/></clipPath><clipPath id="clip-path-11"><path class="cls-1" d="M2673.3,2652.28c-4.76,38.64-11.2,79.09-17.62,83.1-12.6,7.87-258.61,28.5-284.59,24s87.55-69.72,103.82-77.73c2.17-1.07,4-3.47,5.45-6.84C2512.11,2685.6,2571.08,2690.13,2673.3,2652.28Z"/></clipPath><clipPath id="clip-path-12"><path class="cls-1" d="M2911.09,2399.81c-35.36,16.33-71.92,34.79-73.78,42.13-3.65,14.39,51.71,255,63.93,278.34s39.7-104.63,42.37-122.57c.37-2.39,2.1-4.82,4.86-7.28C2928.49,2563.49,2906.2,2508.71,2911.09,2399.81Z"/></clipPath><clipPath id="clip-path-13"><path class="cls-1" d="M2949.14,2088.49s-338.49-36.55-394.17,23.63-75.09,319-76.51,332.77c-2.86,27.52-11.32,179-11.32,179l229.94,15.91L2754,2328.17s86.92,32.54,222.74,43.83,279.67-55.1,296.72-113.78-9.52-173.69-9.52-173.69Z"/></clipPath><clipPath id="clip-path-14"><path class="cls-1" d="M3207.85,2133.68s187.17-18.34,239.43,117.78-98.67,233.16-221.74,265.58-224.18,61.22-224.18,61.22l-60.14-196.59s236.46-100.38,273.69-137.75S3207.85,2133.68,3207.85,2133.68Z"/></clipPath><clipPath id="clip-path-15"><path class="cls-1" d="M3013.86,1719.5s-160.84-6.31-222.51,151.91S2843.51,2071,2843.51,2071l6.74,23.1s47.7,36.33,75.51,40,320.3,11,320.3,11l76.44-142.67S3376.34,1659.27,3013.86,1719.5Z"/></clipPath><clipPath id="clip-path-16"><path class="cls-1" d="M3093.28,1471.6s18.49-61.33-56-60.59-80.72,35.1-104.73,40.31-86.65,63.68,4.23,94.57,175.45,59.53,175.45,59.53S3226.57,1514.25,3093.28,1471.6Z"/></clipPath><clipPath id="clip-path-17"><path class="cls-1" d="M3103.67,1646.27a46.75,46.75,0,0,1-27.87,1.79l-2.64,15.29,28.36,53s-16.33,65.71-78.89,49.73c-11.72-3-40.19-34.53-40.19-34.53a175.56,175.56,0,0,0,3.5-24.73,122.35,122.35,0,0,0-.88-27.36c-17.3,3.42-66.95-13.64-67.65-67.59s13.87-88.29,13.87-88.29,65.85,17.84,131.51-11.36c-4.65,31.17,17.92,66.43,22.72,73.5,19.54-5.54,39,1.55,44.75,16.88C3136.37,1619,3124.45,1638.51,3103.67,1646.27Z"/></clipPath><clipPath id="clip-path-18"><polygon class="cls-1" points="2972.82 1927.54 3038.77 2191.59 3136.11 2206.97 3135.3 2231.65 2680.55 2216.81 2600.18 1932.96 2619.37 1916.01 2972.82 1927.54"/></clipPath></defs><title>01</title><rect id="_01-2" data-name="01" class="cls-2" width="4680" height="3120"/><path class="cls-3" d="M2962.31,686l-161.49-13.73a705.68,705.68,0,0,1-205.36-49.17l-521-211.2c-348-141.07-745.51,15-904.56,355.14-83.87,179.38-175.3,374.94-257.83,551.49-150.59,322.17-38,706,262.78,895.8l165.26,104.28a705.78,705.78,0,0,0,694.5,33.25l321.58-162.21a706,706,0,0,1,269.79-74l324.62-22.16c335.12-22.88,607.69-278.76,651.67-611.77h0C3655,1082.46,3363.56,720.08,2962.31,686Z"/><circle class="cls-4" cx="2227.31" cy="828.67" r="35.92"/><circle class="cls-4" cx="2331.3" cy="828.67" r="35.92" transform="translate(-128.03 557.79) rotate(-13.28)"/><circle class="cls-4" cx="2435.29" cy="828.67" r="35.92" transform="translate(127.32 1964.72) rotate(-45)"/><circle class="cls-4" cx="2539.28" cy="828.67" r="35.92" transform="translate(-122.46 605.57) rotate(-13.28)"/><circle class="cls-4" cx="2643.27" cy="828.67" r="35.92" transform="translate(188.24 2111.79) rotate(-45)"/><circle class="cls-4" cx="2747.26" cy="828.67" r="35.92"/><circle class="cls-4" cx="2851.25" cy="828.67" r="35.92"/><circle class="cls-4" cx="2227.31" cy="926.99" r="35.92"/><circle class="cls-4" cx="2331.3" cy="926.99" r="35.92" transform="translate(-150.61 560.42) rotate(-13.28)"/><circle class="cls-4" cx="2435.29" cy="926.99" r="35.92" transform="translate(57.8 1993.52) rotate(-45)"/><circle class="cls-4" cx="2539.28" cy="926.99" r="35.92" transform="translate(-145.05 608.2) rotate(-13.28)"/><circle class="cls-4" cx="2643.27" cy="926.99" r="35.92" transform="translate(118.71 2140.58) rotate(-45)"/><circle class="cls-4" cx="2747.26" cy="926.99" r="35.92"/><circle class="cls-4" cx="2851.25" cy="926.99" r="35.92"/><circle class="cls-4" cx="2227.31" cy="1025.31" r="35.92"/><circle class="cls-4" cx="2331.3" cy="1025.31" r="35.92" transform="translate(-173.2 563.05) rotate(-13.28)"/><circle class="cls-4" cx="2435.29" cy="1025.31" r="35.92" transform="translate(-11.72 2022.31) rotate(-45)"/><circle class="cls-4" cx="2539.28" cy="1025.31" r="35.92" transform="translate(-167.64 610.83) rotate(-13.28)"/><circle class="cls-4" cx="2643.27" cy="1025.31" r="35.92" transform="translate(49.19 2169.38) rotate(-45)"/><circle class="cls-4" cx="2747.26" cy="1025.31" r="35.92"/><circle class="cls-4" cx="2851.25" cy="1025.31" r="35.92"/><circle class="cls-4" cx="2227.31" cy="1123.63" r="35.92"/><circle class="cls-4" cx="2331.3" cy="1123.63" r="35.92" transform="translate(-225.58 723.79) rotate(-16.85)"/><circle class="cls-4" cx="2435.29" cy="1123.63" r="35.92" transform="matrix(0.85, -0.53, 0.53, 0.85, -227.02, 1448.12)"/><circle class="cls-4" cx="2539.28" cy="1123.63" r="35.92" transform="translate(-216.65 784.06) rotate(-16.85)"/><circle class="cls-4" cx="2643.27" cy="1123.63" r="35.92" transform="matrix(0.85, -0.53, 0.53, 0.85, -195.96, 1557.46)"/><circle class="cls-4" cx="2747.26" cy="1123.63" r="35.92"/><circle class="cls-4" cx="2851.25" cy="1123.63" r="35.92"/><circle class="cls-4" cx="2227.31" cy="1221.95" r="35.92"/><circle class="cls-4" cx="2331.3" cy="1221.95" r="35.92" transform="translate(-290.16 985.16) rotate(-22.5)"/><circle class="cls-4" cx="2435.29" cy="1221.95" r="35.92" transform="translate(-282.24 1024.96) rotate(-22.5)"/><circle class="cls-4" cx="2539.28" cy="1221.95" r="35.92" transform="translate(-274.33 1064.76) rotate(-22.5)"/><circle class="cls-4" cx="2643.27" cy="1221.95" r="35.92" transform="translate(-266.41 1104.55) rotate(-22.5)"/><circle class="cls-4" cx="2747.26" cy="1221.95" r="35.92"/><circle class="cls-4" cx="2851.25" cy="1221.95" r="35.92"/><circle class="cls-4" cx="2227.31" cy="1320.27" r="35.92"/><circle class="cls-4" cx="2331.3" cy="1320.27" r="35.92" transform="translate(-327.79 992.65) rotate(-22.5)"/><circle class="cls-4" cx="2435.29" cy="1320.27" r="35.92" transform="translate(-319.87 1032.44) rotate(-22.5)"/><circle class="cls-4" cx="2539.28" cy="1320.27" r="35.92" transform="translate(-311.95 1072.24) rotate(-22.5)"/><circle class="cls-4" cx="2643.27" cy="1320.27" r="35.92" transform="translate(-304.04 1112.03) rotate(-22.5)"/><circle class="cls-4" cx="2747.26" cy="1320.27" r="35.92"/><circle class="cls-4" cx="2851.25" cy="1320.27" r="35.92"/><circle class="cls-4" cx="2227.31" cy="1418.59" r="35.92"/><circle class="cls-4" cx="2331.3" cy="1418.59" r="35.92" transform="translate(-320.27 2063.97) rotate(-45)"/><circle class="cls-4" cx="2435.29" cy="1418.59" r="35.92" transform="translate(-260.78 597.46) rotate(-13.28)"/><circle class="cls-4" cx="2539.28" cy="1418.59" r="35.92" transform="translate(-259.35 2211.04) rotate(-45)"/><circle class="cls-4" cx="2643.27" cy="1418.59" r="35.92" transform="translate(-255.21 645.25) rotate(-13.28)"/><circle class="cls-4" cx="2747.26" cy="1418.59" r="35.92"/><circle class="cls-4" cx="2851.25" cy="1418.59" r="35.92"/><path class="cls-5" d="M3450.17,1406.9c-17,18.32-36.07,40.12-52.76,63-12,16.44-22.72,33.47-30.57,50.2-35,74.61-25.7,164.37-15.51,247.83.27,2.18.72,4.67,2.44,5.72,2.24,1.36,4.87-.62,6.79-2.48,22.41-21.87,45-42.37,66.56-64.79,38.6-40.07,74.92-83.44,103.22-133.33,44.3-78.1,67.59-176,43.59-264.46C3529.32,1335.5,3486.71,1367.47,3450.17,1406.9Z"/><path class="cls-5" d="M3073.86,1569.51c.43,56.58,1.67,114,16.24,168.17s44.23,105.63,89,132c24.29,14.28,51.61,20.52,77.43,30.92s48.88,26.11,64.54,51.81c8.16-77.08-26.3-160.07-63.26-223C3214.45,1655.51,3149.26,1597.08,3073.86,1569.51Z"/><path class="cls-5" d="M3386.53,1909c-2.47,10.42-19.65,54.13-8.71,60.91,4.44,2.74,74.55-27.37,85.77-30.13C3523,1925.1,3580,1893.25,3621,1843.08c43.95-53.75,67-124.25,89-192.79-75.14,18.8-151.83,39.72-215.91,87.45C3438.09,1779.4,3403.48,1837.23,3386.53,1909Z"/><path d="M3442.89,1887.31c-21,18.65-42.76,37.93-58.17,63.42-25.35,41.94-30,94.65-34.08,141.15l4,.35c4-46.07,8.64-98.28,33.51-139.43,15.1-25,36.61-44,57.41-62.5l119.74-106.18-2.65-3Z"/><path d="M3332.9,2076.47c.89-22.9,1.81-46.58.28-69.77-3-45.14-15.11-91.11-37.08-140.54-20.73-46.62-47.44-90.06-70.84-126.41l-3.36,2.16c23.32,36.22,49.93,79.5,70.54,125.87,21.78,49,33.8,94.53,36.75,139.19,1.51,23,.6,46.55-.29,69.35-1.28,33.11-2.61,67.35,3.48,100.36l3.94-.72C3330.3,2143.38,3331.62,2109.37,3332.9,2076.47Z"/><path d="M3351.07,1803.69c-7.53,48.88-8.27,99.18-9,147.81l-2.71,184.11,4,.06,2.71-184.11c.71-48.5,1.45-98.65,8.94-147.26,14.33-93.06,52.67-178.75,89.75-261.62l-3.65-1.64C3403.93,1624.15,3365.48,1710.1,3351.07,1803.69Z"/><path class="cls-6" d="M3226.4,2342.07s244.15-2.85,244.26-4.3L3486.9,2091H3207S3226.36,2341.59,3226.4,2342.07Z"/><path class="cls-4" d="M3214.49,2174.87c3.54-1.53,7.06-3.11,10.59-4.62,52.3-22.36,105.07-43.39,158.31-61.67q21.84-8.89,43.73-17.58H3207Z"/><path class="cls-6" d="M3198.47,2045.6v67.67a40.76,40.76,0,0,0,7.29.7h279l6.73-69H3205.76A42.4,42.4,0,0,0,3198.47,2045.6Z"/><ellipse class="cls-3" cx="3294.05" cy="2485.96" rx="582.38" ry="68.07"/><rect class="cls-7" x="803.57" y="2375.3" width="2586.54" height="109.66" rx="12"/><path class="cls-8" d="M1350,2413.13H1085.29a17,17,0,0,0,0,34H1350a17,17,0,0,0,0-34Z"/><g class="cls-9"><path class="cls-4" d="M1350,2413.13H1102.94a17,17,0,1,0,0,34H1350a17,17,0,0,0,0-34Z"/></g><path class="cls-8" d="M1609,2416.91H1450.2a15.13,15.13,0,1,0,0,30.25H1609a15.13,15.13,0,1,0,0-30.25Z"/><g class="cls-9"><path class="cls-4" d="M1609,2416.91h-137.4a15.13,15.13,0,1,0,0,30.25H1609a15.13,15.13,0,1,0,0-30.25Z"/></g><rect class="cls-10" x="939.71" y="948.42" width="2238.65" height="1429.41" rx="36.75"/><rect class="cls-11" x="1011.6" y="1049.76" width="2102.43" height="1231" rx="36.75"/><g class="cls-12"><rect class="cls-4" x="1051.35" y="1816.07" width="2475.39" height="181.52" transform="translate(-668.7 2263.86) rotate(-46.68)"/><rect class="cls-4" x="1273.13" y="2040.56" width="2428.68" height="90.76" transform="translate(-736.72 2464.43) rotate(-46.68)"/><rect class="cls-4" x="622.16" y="1471.81" width="2428.68" height="80.68" transform="translate(-523.62 1810.73) rotate(-46.68)"/></g><g class="cls-9"><rect class="cls-4" x="1893.9" y="986.24" width="177.73" height="26.47" rx="5.25"/></g><g class="cls-9"><circle class="cls-4" cx="2128.36" cy="997.58" r="15.13"/></g><g class="cls-13"><rect x="1225.05" y="1055.35" width="1656.23" height="1205.81" rx="83.73"/></g><rect class="cls-4" x="1150.67" y="1045.26" width="1656.23" height="1205.81" rx="83.73"/><rect class="cls-5" x="1150.67" y="1045.26" width="1656.23" height="1205.81" rx="83.73"/><rect class="cls-14" x="2191.38" y="1327.55" width="476.47" height="286.41" rx="12"/><rect class="cls-15" x="2191.38" y="1683.29" width="476.47" height="113.44" rx="12"/><rect class="cls-14" x="2191.38" y="1867.33" width="476.47" height="113.44" rx="12"/><rect class="cls-15" x="2191.38" y="2051.37" width="476.47" height="113.44" rx="12"/><path class="cls-4" d="M2723.17,1045.26H1234.4a83.73,83.73,0,0,0-83.73,83.73v10.11H2806.9V1129A83.73,83.73,0,0,0,2723.17,1045.26Z"/><rect class="cls-16" x="1150.67" y="1139.1" width="1656.23" height="103.22"/><circle class="cls-5" cx="1221.29" cy="1092.18" r="24.91"/><circle class="cls-5" cx="1294.95" cy="1092.18" r="24.91"/><circle class="cls-5" cx="1368.61" cy="1092.18" r="24.91" transform="matrix(0.96, -0.29, 0.29, 0.96, -257.77, 443.46)"/><path class="cls-14" d="M2717.73,1067.27H2448.67a15.38,15.38,0,0,0-14.2,9.47l-26,62.36h349.48l-26-62.36A15.38,15.38,0,0,0,2717.73,1067.27Z"/><path class="cls-5" d="M2406.64,1067.27H2137.58a15.38,15.38,0,0,0-14.2,9.47l-26,62.36h349.48l-26-62.36A15.38,15.38,0,0,0,2406.64,1067.27Z"/><path class="cls-14" d="M2093.56,1067.27H1824.5a15.38,15.38,0,0,0-14.2,9.47l-26,62.36h349.48l-26-62.36A15.38,15.38,0,0,0,2093.56,1067.27Z"/><path class="cls-5" d="M1782.47,1067.27H1513.41a15.38,15.38,0,0,0-14.2,9.47l-26,62.36h349.48l-26-62.36A15.38,15.38,0,0,0,1782.47,1067.27Z"/><rect class="cls-4" x="1343.7" y="1163.08" width="1414.24" height="50"/><polygon class="cls-4" points="1207.51 1164.21 1181.01 1190.71 1207.51 1217.21 1210.34 1214.38 1186.67 1190.71 1210.34 1167.04 1207.51 1164.21"/><polygon class="cls-4" points="1281 1167.04 1304.66 1190.71 1281 1214.38 1283.82 1217.21 1310.32 1190.71 1283.82 1164.21 1281 1167.04"/><rect class="cls-4" x="1183.84" y="1188.71" width="34.27" height="4"/><rect class="cls-4" x="1270.04" y="1188.71" width="34.27" height="4"/><g class="cls-17"><rect class="cls-18" x="1386.54" y="1301.07" width="1140.89" height="830.62" rx="57.68"/></g><rect class="cls-11" x="1333.59" y="1237.07" width="1140.89" height="830.62" rx="57.68"/><path class="cls-4" d="M2416.8,1237.07H1391.27a57.68,57.68,0,0,0-57.68,57.68v7H2474.48v-7A57.69,57.69,0,0,0,2416.8,1237.07Z"/><rect class="cls-19" x="1333.59" y="1301.71" width="1140.89" height="71.1"/><rect class="cls-20" x="1440.28" y="1512.61" width="974.01" height="473.85" rx="59.09"/><polygon class="cls-8" points="1741.04 1583.4 1693.14 1984.26 1912.48 1984.26 1945.25 1865.77 1965.42 1984.26 2199.89 1984.26 2131.82 1626.26 1741.04 1583.4"/><g class="cls-21"><g class="cls-22"><path class="cls-4" d="M2227.82,2324.67l-8.7-45.32-17.73-90.55-4.44-22.64-4.51-22.62-9.05-45.24-18.11-90.48-18.45-90.41c-6.18-30.13-12.23-60.29-18.56-90.39l-18.83-90.34-9.57-45.13-4.8-22.57-4.86-22.55,4.28,22.67,4.34,22.66,8.7,45.31,17.74,90.55c5.85,30.2,12,60.34,18,90.51l18.11,90.48,18.45,90.41,9.23,45.2,4.62,22.6,4.7,22.59,18.83,90.33,9.58,45.14,4.79,22.56,4.87,22.55-4.28-22.67Z"/></g><g class="cls-22"><path class="cls-4" d="M1810,1724.65l-7.85,41.68-15.36,83.41c-5.17,27.8-10.07,55.64-15.09,83.46l-15,83.49-14.64,83.54-7.31,41.77-3.65,20.89-3.57,20.9-14.26,83.61-7,41.83-3.47,20.92-3.41,20.93,4-20.82,3.93-20.84,7.85-41.68,15.36-83.41,3.84-20.86,3.75-20.87,7.5-41.74,15-83.48,14.64-83.54c4.85-27.85,9.83-55.68,14.53-83.56l14.26-83.61,7-41.84,3.48-20.91,3.4-20.93-4,20.82Z"/></g><g class="cls-13"><polygon points="1914.99 2027.12 2068.78 2042.25 1952.81 1827.95 1914.99 2027.12"/></g></g><path class="cls-23" d="M2463.34,1037.58l-52.31.63-29,53.57-6.31,64.92,73.75-1.89,34-35.73a29.83,29.83,0,0,0,4.75-34.48Z"/><rect class="cls-24" x="2435.61" y="741.56" width="12.61" height="403.38" rx="2.5"/><path class="cls-25" d="M2477.56,1019.63a4.39,4.39,0,0,0-5.56-2.73l-43.06,14.7a4.38,4.38,0,0,0-2.73,5.55l4.3,12.6a4.38,4.38,0,0,0,5.55,2.73l43.07-14.7a4.39,4.39,0,0,0,2.73-5.56Z"/><path class="cls-25" d="M2489.47,1041.6a4.38,4.38,0,0,0-5.55-2.73l-49.58,16.92a4.4,4.4,0,0,0-2.73,5.56l4.3,12.59a4.39,4.39,0,0,0,5.56,2.73l49.58-16.92a4.39,4.39,0,0,0,2.72-5.56Z"/><rect class="cls-25" x="2451.86" y="1067.3" width="50.82" height="22.06" rx="4.38" transform="translate(-215.53 858.13) rotate(-18.85)"/><path class="cls-25" d="M2475.54,1089.79h24.31a4.38,4.38,0,0,1,4.38,4.38v13.31a4.37,4.37,0,0,1-4.37,4.37h-24.31a4.37,4.37,0,0,1-4.37-4.37v-13.31a4.37,4.37,0,0,1,4.37-4.37Z" transform="translate(-222.24 862.7) rotate(-18.85)"/><path class="cls-25" d="M2440.65,1015.52c-6.3-5.67-48.53,20.17-60.5,39.71s-.63,54.2-.63,54.2l12.6,47.9s24-3.78,43.49-38.45-12-66.18-12-66.18S2447,1021.19,2440.65,1015.52Z"/><g class="cls-26"><path class="cls-23" d="M2449.71,1037.36c1.55-8.24,8.06-14.55,11.71-22.1s2.56-19.14-5.55-21.23l-17.39,8.68c2.34,15-11.26,27.25-23.06,36.86-2,1.58-4,3.29-4.88,5.62-2.09,5.29,2.13,10.72,5.35,15.4a52.45,52.45,0,0,1-26.25,79.35c-6.74,2.3-15.8,5.74-14.74,12.78a10.94,10.94,0,0,0,2.69,5.2c7.88,9.5,20.91,13.11,33.23,13.7,10.95.52,22.8-1.31,30.68-8.92,4.62-4.45,7.41-10.42,10.06-16.25,10.5-23.1,20.6-49.65,10.84-73.08C2457.41,1061.39,2447.31,1050.11,2449.71,1037.36Z"/></g><path class="cls-4" d="M1855.33,1021.19,1825.92,1033s87.4,398.33,92.44,400.85,62.19-185.72,62.19-185.72l19.33-221.86-54.63-5Z"/><polygon class="cls-27" points="1875.5 1007.74 1848.61 1030.43 1872.98 1088.42 1926.77 1051.02 1970.46 1080.02 1978.87 1026.23 1953.66 1018.67 1875.5 1007.74"/><polygon class="cls-4" points="1876.34 1001.86 1849.45 1024.55 1873.82 1082.54 1927.61 1045.14 1971.31 1074.13 1979.71 1020.35 1954.5 1012.79 1876.34 1001.86"/><path class="cls-28" d="M2051.94,776.12c-10.52-14.46-75.59-19.72-75.59-19.72s21.69-6.58,14.46-9.2-35.5-9.86-76.91-11.84-50.61,35.5-50.61,35.5c-94.66,26.95-11.18,132.78-11.18,132.78S2025,858.28,2027.62,857s20.38-13.8,21.69-23-.66-19.72-6.57-23.66S2062.46,790.58,2051.94,776.12Z"/><g class="cls-29"><path class="cls-30" d="M2047.85,805.57c-8-.13-16,1.24-24,.81-26.5-1.4-50.37-22.2-76.64-18.52-6.25.88-12.63,3.42-16.32,8.53-3.07,4.26-4,9.9-7.56,13.77-3,3.28-7.55,4.8-12,5.4-15.86,2.18-31.15-5.58-46.61-9.71-3.51-.94-7.16-1.69-10.75-1.15a22,22,0,0,0-10.24,4.95c-12.84,10.24-18.13,28-16.38,44.29s9.68,31.43,19.34,44.72c3.87,5.32,8.06,12.81,3.77,17.81l-19.6-6.09c-.43,4.17,4.83,6.28,9,6.92a304.15,304.15,0,0,0,159-18.13c23-9.2,45.14-21.51,62.16-39.45,6-6.31,11.4-13.49,13.72-21.87s1-18.15-5-24.43C2064.32,807.65,2055.84,805.71,2047.85,805.57Z"/><path class="cls-30" d="M2023.28,719.09c-9.3-4.93-19.67-7.42-30-9.41-23.63-4.53-47.87-6.63-71.79-4.08s-47.56,9.87-67.65,23.11c-6.55,4.31-13.4,11-11.79,18.68l17.75,20.71c9.24-9.91,22.94-14.42,36.35-16.36,46.15-6.65,93.72,12.8,139.26,2.82,4.13-.91,8.86-2.67,9.94-6.75a10.46,10.46,0,0,0-.8-6.33C2040.78,731.66,2032.57,724,2023.28,719.09Z"/></g><path class="cls-25" d="M2008.28,835.89c-14.5,3.78-61.77-1.26-61.77-1.26s13.24,10.08-1.26,8.19S1898,839,1898,839l-11.34,32.9v8.62c-15.36-10.31-35.07-8.07-44.32,5.22s-4.42,33,11,43.74a37.05,37.05,0,0,0,21.1,6.81c-.42,20-1.36,59.8-2.29,71-1.26,15.13,46,41,55.47,37.82s35.29-29,35.29-29l-.86-7.31-2.44-21.11a71.42,71.42,0,0,0,69.48-71.17v-68.7a30.11,30.11,0,0,0-4.29-15.43A144.77,144.77,0,0,0,2008.28,835.89Z"/><g class="cls-31"><path class="cls-23" d="M2034.38,790.67c-10.84-5.38-22.89-7.8-34.89-9.37a273.09,273.09,0,0,0-107.87,7.57c-11.91,3.3-24.16,7.78-32.33,17s-10.6,24.66-2.25,33.77L1888.81,882l14.78-26.64a12.75,12.75,0,0,1,2.76-3.8c3.85-3.19,9.54-1,14.26.7a50.36,50.36,0,0,0,47.39-8.16c9.78,8.26,24,7.83,36.76,6.6q15.12-1.46,30.16-3.56c9.36-1.32,20-3.67,24.57-11.94,3.24-5.84,2.42-13.18-.1-19.37C2054.83,804.66,2045.22,796,2034.38,790.67Z"/></g><path class="cls-23" d="M1873.12,901.29a15.89,15.89,0,0,0-8.5-2.49,17.21,17.21,0,0,0-8.22,1.94,10.81,10.81,0,0,0-3.21,2.6,7.13,7.13,0,0,0-1.63,3.7,6.51,6.51,0,0,1,1.73-3.61,9,9,0,0,1,3.35-2.19,14,14,0,0,1,7.76-.44A15,15,0,0,1,1871,904a5.63,5.63,0,0,1-1.08,10.08,14.91,14.91,0,0,1-7.16,1.76,13.93,13.93,0,0,1-7.5-2.09,9.07,9.07,0,0,1-2.8-2.85,6.57,6.57,0,0,1-.92-3.9,7.22,7.22,0,0,0,.8,4,10.84,10.84,0,0,0,2.59,3.21,17.05,17.05,0,0,0,7.62,3.64,15.83,15.83,0,0,0,8.82-.62,10.73,10.73,0,0,0,4-2.68,8,8,0,0,0,1.06-9.79A10.82,10.82,0,0,0,1873.12,901.29Z"/><path class="cls-32" d="M1941.37,853a20.13,20.13,0,0,0-6.69-2.21,17.92,17.92,0,0,0-7,.38,22.79,22.79,0,0,0-6.18,2.6,25.45,25.45,0,0,0-2.71,1.86,22.07,22.07,0,0,0-2.49,2.24,2,2,0,0,0,2.73,2.9l.11-.09a19.07,19.07,0,0,1,2.15-1.6,22.37,22.37,0,0,1,2.38-1.35,18.55,18.55,0,0,1,5-1.63,12.66,12.66,0,0,1,5,.16,14.43,14.43,0,0,1,4.53,2l.25.15.19.1a3,3,0,0,0,2.67-5.47Z"/><path class="cls-32" d="M2013.47,852.55a26.5,26.5,0,0,0-2.76-1.78,22.9,22.9,0,0,0-6.27-2.4,17.74,17.74,0,0,0-7-.17,20.1,20.1,0,0,0-6.62,2.41l-.19.11a3,3,0,0,0,3.22,5.17l.24-.15a14.28,14.28,0,0,1,4.47-2.1,12.58,12.58,0,0,1,5-.31,18.32,18.32,0,0,1,5.09,1.47,23.35,23.35,0,0,1,2.42,1.28,19.48,19.48,0,0,1,2.19,1.52l.12.1a2,2,0,0,0,2.64-3A23.49,23.49,0,0,0,2013.47,852.55Z"/><path class="cls-23" d="M1963.71,907.18c.82,5.24,1.89,11.5,12.91,9,15-3.47-3.11-33.17-3.11-33.17C1966.45,877.21,1962.89,901.93,1963.71,907.18Z"/><path class="cls-33" d="M2003.61,874.71a8.07,8.07,0,1,0,8.46,7.65A8.06,8.06,0,0,0,2003.61,874.71Z"/><path class="cls-33" d="M1928.69,876.72a8.07,8.07,0,1,0,8.46,7.65A8.07,8.07,0,0,0,1928.69,876.72Z"/><path class="cls-33" d="M1947.77,932.32c-15.75-3.78,3.79,26.47,21.43,23.95s16.39-23.95,16.39-23.95S1963.53,936.1,1947.77,932.32Z"/><g class="cls-34"><path class="cls-4" d="M1964.47,917.2c-16.88,0-30.57,5.78-30.57,12.92S1947.59,943,1964.47,943s30.57-5.79,30.57-12.92S1981.35,917.2,1964.47,917.2Z"/></g><circle class="cls-35" cx="1910.59" cy="915.93" r="20.17"/><path class="cls-23" d="M1915.63,970.77c-9.76-9.76,19.94,38.8,46.41,38.07l-2.44-21.11S1925.71,980.85,1915.63,970.77Z"/><g class="cls-13"><path d="M1867.57,859.66c-1.44-2.46-2.8-5-4.11-7.58l-3.92-8a26.71,26.71,0,0,0,1,9.12,35.42,35.42,0,0,0,3.6,8.49,30.43,30.43,0,0,0,5.81,7.23q.88.76,1.77,1.5c.64.46,1.29.88,1.94,1.3l1,.6c.35.17.7.35,1,.5.71.32,1.41.63,2.13.88-1.94-2.42-3.89-4.52-5.54-6.9A79.88,79.88,0,0,1,1867.57,859.66Z"/></g><g class="cls-13"><path d="M1877,789.83c-.55.08-1.08.18-1.59.29,0,.51-.09,1-.12,1.52Z"/><path d="M1888,771.71a20.06,20.06,0,0,0-9.37,8.11,25.3,25.3,0,0,0-3.22,10.3c.51-.11,1-.21,1.59-.29l-1.71,1.81c0-.51.07-1,.12-1.52-.92.19-1.8.41-2.69.68a38.58,38.58,0,0,0-4.06,1.48,28.5,28.5,0,0,0-7.38,4.52,20.38,20.38,0,0,0-3,3.17,16.33,16.33,0,0,0-2.23,3.71,17.65,17.65,0,0,0-1.52,8.26,21.19,21.19,0,0,1,3-7.45A20.05,20.05,0,0,1,1863,799a29.88,29.88,0,0,1,6.94-3.48,37.2,37.2,0,0,1,7.51-1.83l1.58-.22.14-1.59a25,25,0,0,1,2.85-10.09,17.48,17.48,0,0,1,7.42-7,31.31,31.31,0,0,1,10.46-3,59.72,59.72,0,0,1,11.36-.2,37.58,37.58,0,0,0-11.47-2A29.56,29.56,0,0,0,1888,771.71Z"/></g><path class="cls-23" d="M1933.1,871.55a4.74,4.74,0,0,0-1-.91,7.81,7.81,0,0,0-5.6-1.55,8.55,8.55,0,0,0-7.37,7.45c1.54-.91,2.89-1.71,4.17-2.34a10.93,10.93,0,0,1,3.65-1.14c.14,0,.29-.06.43-.07l.44,0a3.88,3.88,0,0,1,.9,0l1,.12c.31.1.64.18,1,.26a5.81,5.81,0,0,1,1,.32c.36.13.73.24,1.11.36a18.47,18.47,0,0,0,2.4.86,11.38,11.38,0,0,0-1.18-2.4C1933.71,872.23,1933.41,871.88,1933.1,871.55Z"/><path class="cls-23" d="M2008.74,867.46a4.8,4.8,0,0,0-1-.92,7.79,7.79,0,0,0-5.6-1.55,8.58,8.58,0,0,0-7.37,7.45c1.55-.91,2.89-1.71,4.18-2.34a11,11,0,0,1,3.64-1.14l.43-.06.45,0a3.05,3.05,0,0,1,.9,0l.94.12c.32.1.65.18,1,.25a5.22,5.22,0,0,1,1,.33c.35.12.72.24,1.1.35a19,19,0,0,0,2.4.86,10.92,10.92,0,0,0-1.18-2.4C2009.34,868.13,2009.05,867.79,2008.74,867.46Z"/><path class="cls-24" d="M1946.93,1061.53s-14.28-16-21-12.61-21.85,15.13-21.85,15.13l7.57,22.69-21.85,256.31,25.21,95.81,54.62-88.24-27.73-263Z"/><g class="cls-36"><path class="cls-37" d="M1963.3,1369.44c-9.52-7.29-20.59-13-28-22.4-9.72-12.46-11.35-29.22-12.61-45q-1.65-20.79-3.31-41.58c-2.6-32.79-5.21-65.75-2.35-98.51,1.27-14.54,3.61-29.24,1.11-43.61-.84-4.84-2.21-9.9-.61-14.54,2-5.92,8.32-9.31,14.41-10.75s12.51-1.54,18.39-3.69c-8.22-2.63-18.62,1-24.91-4.85-5.06-4.74-4.24-13-2.15-19.55s5.12-13.53,3.21-20.19l-20-12.9c-10.87,1.3-23.06,3.37-29.31,12.36-5,7.18-4.59,16.63-6.07,25.25-2.41,14-10,26.44-16.86,38.91-9.8,17.92-18.28,37-20.86,57.23-2.77,21.77,1.4,43.74,3.32,65.61,4.45,50.89-3.32,102-3,153.11.09,16.49,1.82,34.77,13.92,46,6.33,5.86,14.74,9,23.13,10.94a116.64,116.64,0,0,0,90.93-16.53c9-6.09,17.79-14.58,18.78-25.43C1981.49,1387.38,1972.81,1376.73,1963.3,1369.44Z"/></g><path class="cls-8" d="M2262.91,1227.09s-119.32-119.35-146.22-147.91c-7.34-7.79-26-29.33-38.66-33.62-33.6-11.5-84-21.85-84-21.85s-52.09,438.67-74,344.55-80.67-341.2-80.67-341.2-36.54,9.6-74,18.5c-23,5.5-61.4,17-71,33.62-25.21,43.69,25.64,603.38,25.64,603.38l437-5-15-165.13-2.6-28.89-14.4-158.93s.23.38.71,1.11c4.82,7.06,34.06,46.23,107.05,68.82q13.2,4.13,28.39,7.39c102.53,21.86,213.46-245.38,213.46-245.38l-110.93-52.11Z"/><g class="cls-38"><g class="cls-13"><path d="M2073.84,1601.4a565.09,565.09,0,0,1-173.3-56c-37.46-19.27-73.74-43.72-96.88-78.91-16.31-24.81-25.28-53.78-30.89-82.94-12.18-63.22-9.42-128.3-16-192.34s-24.31-130.3-69.35-176.31l-135.15,29.82a1063.21,1063.21,0,0,1-44,450.6c-19.29,59.66-43.62,126.13-15.77,182.3,29.19,58.87,102.6,78.85,167.92,86,156.68,17.13,314.92-2.93,470.56-27.79,31.87-5.1,64.93-10.87,91.29-29.49,9.26-6.54,18.1-16,17.83-27.32-.17-7.07-3.93-13.55-8.21-19.18C2196.93,1613.84,2131,1610.06,2073.84,1601.4Z"/></g></g><g class="cls-13"><path d="M1915,1359.43c-21.86-130.55-84.46-327.29-84.46-327.29s-50.42,3.76-85.72,22.25l75.64,141.18,25.2.84-16.38,32.77s74,155.89,97.49,155.89,86.13-156.73,86.13-156.73l-19.32-26,31.92-4.66,35.93-153c-33.61-15.94-76.27-17.17-76.27-17.17S1936.86,1490,1915,1359.43Z"/></g><path class="cls-20" d="M1915,1359.43c-21.86-130.55-75.63-331.07-75.63-331.07s-50.43,3.76-85.72,22.24l75.63,141.19,25.21.84-16.39,32.77s65.14,159.67,88.67,159.67,95-160.51,95-160.51l-19.31-26,31.91-4.65,35.93-153c-33.61-15.94-76.26-17.17-76.26-17.17S1936.86,1490,1915,1359.43Z"/><path class="cls-20" d="M2094.88,1463.22a12.44,12.44,0,0,0-5.17-1.14,12.61,12.61,0,0,0-5.27,24.08l57.64,26.22-2.6-28.89Z"/><polygon class="cls-24" points="1876.35 1477.52 1945.25 1690.98 1916.68 1701.06 1836.01 1485.91 1773.74 1506.66 1661.47 1544.1 1573.81 1573.32 1651.13 1793.49 1671.3 1800.22 1703.32 1789.23 1909.72 1718.43 1960.38 1701.06 1884.74 1472.47 1876.35 1477.52"/><g class="cls-13"><path d="M1890.64,1697.91a851,851,0,0,1-114.31-185.7c-.83-1.84-1.66-3.71-2.59-5.55l-112.27,37.44a31.25,31.25,0,0,0,4.41,18.45c3.23,5.27,8,9.51,10.94,15,10.29,19-5.11,40.92-11.54,61.52a75.24,75.24,0,0,0,12.63,68c8.8,11.1,20.82,19.74,27.35,32.3,8,15.4,6.08,34.29-1.94,49.92l206.41-70.8C1902.69,1712.38,1896.46,1705.1,1890.64,1697.91Z"/></g><polygon class="cls-4" points="1841.05 1497.68 1914.16 1701.89 1945.25 1690.97 1879.7 1485.92 1841.05 1497.68"/><g class="cls-13"><path d="M1872.77,1521q-2.41-7-5.24-13.93a147.36,147.36,0,0,0-6.31-13.57,145.6,145.6,0,0,0,3.35,14.59q2,7.17,4.42,14.21t5.23,13.94a147.45,147.45,0,0,0,6.32,13.57,141.64,141.64,0,0,0-3.34-14.59C1875.87,1530.41,1874.38,1525.68,1872.77,1521Z"/></g><g class="cls-13"><path d="M1922.91,1661.73c-1-3.39-2.14-6.76-3.2-10.14l-3.43-10.07c-1.22-3.33-2.37-6.68-3.67-10s-2.58-6.61-3.95-9.89a92.8,92.8,0,0,0-4.59-9.67c1,3.42,1.81,6.87,2.73,10.3s1.85,6.85,2.85,10.25,2,6.79,3,10.19l3.23,10.13,3.41,10.06c1.2,3.34,2.34,6.69,3.61,10,2.47,6.65,5.07,13.26,8,19.75-1.39-7-3.17-13.88-5.08-20.71C1925,1668.51,1923.91,1665.13,1922.91,1661.73Z"/></g><path class="cls-8" d="M1740.2,1295.15c17.64-89.5,68.91-208.41-13-229.84S1550.7,1355.24,1552,1437.18s166.39,277.32,166.39,277.32l121-70.59-118.5-209.26S1722.55,1384.65,1740.2,1295.15Z"/><g class="cls-39"><g class="cls-13"><path d="M1601.48,1638.34l-112.83,71.81c-21.07,17.16-17.06,53,1.94,72.4s47.51,25.91,74.57,28.35c74.74,6.72,150.43-10.7,218.48-42.33s128.93-77.07,184.49-127.51Q1784.86,1635.5,1601.48,1638.34Z"/></g></g><path class="cls-25" d="M1838.11,1642.65l-88.24,50.42s8.82,49.16,11.34,69.33,35.3,22.69,35.3,22.69,29-5,41.6-18.91,27.73-5,36.55-10.08,1.26-30.26,1.26-30.26a48.9,48.9,0,0,0,27.73,8.83c16.39,0-21.42-35.3-34-64.29S1838.11,1642.65,1838.11,1642.65Z"/><g class="cls-40"><path class="cls-23" d="M1920.11,1731.12l-7.27-3.47c-2.54,3-7.24,3.42-10.93,2s-6.62-4.27-9.43-7.05l-26-25.68a2.71,2.71,0,0,0-1-.73c-1.81-.56-2.32,2.42-1.75,4.23,6.27,19.81,16.89,39.67,13.37,60.15-.2,1.12-.4,2.39.3,3.29a3.75,3.75,0,0,0,1.61,1,31.42,31.42,0,0,0,43.28-28C1922.38,1734.75,1922,1732.19,1920.11,1731.12Z"/><path class="cls-23" d="M1850.09,1756c-2-1.41-4.18-2.91-6.6-2.66a8.68,8.68,0,0,0-3.89,1.69,36.6,36.6,0,0,0-9.74,9.64c-2.14,3.11-4.06,6.79-7.58,8.15-3.08,1.19-6.52.25-9.83.23-8.39,0-15.55,5.89-23.63,8.18-10.21,2.9-21-.18-31.21-3.25.52,5.51,5.09,9.7,9.68,12.79,25.36,17.08,61.56,16.06,85.91-2.43,2.47-1.87,5-4.36,4.9-7.46l14.19-20.69C1865.91,1765.16,1856.69,1760.68,1850.09,1756Z"/><path class="cls-23" d="M1722.75,1697.13c-3.46,6.16-5.82,15.16-.09,19.3,3.55,2.57,8.45,1.71,12.67.57,47-12.75,84.86-47.35,115.91-84.8l-42.67-12.11C1775.83,1641,1741.79,1663.26,1722.75,1697.13Z"/></g><g class="cls-13"><path class="cls-4" d="M1671.28,1423.59a95.48,95.48,0,0,0-26.34,11.94,2,2,0,0,0,1.14,3.65,2,2,0,0,0,1.14-.36c.42-.29,42.78-29,72.32-2.67a2,2,0,1,0,2.66-3C1709,1421.35,1691.35,1418,1671.28,1423.59Z"/></g><g class="cls-13"><path class="cls-4" d="M1687.8,1391.13a87.66,87.66,0,0,0-26.73-3,2,2,0,0,0,.27,4c.49,0,48.72-2.8,55,32a2,2,0,0,0,2,1.64l.36,0a2,2,0,0,0,1.61-2.33C1717.42,1407.45,1706.18,1396.3,1687.8,1391.13Z"/></g><g class="cls-13"><path d="M2123.42,1316.16l2.37,9.51c4.82,7.06,34.06,46.23,107.05,68.82L2110,1243.88Z"/></g><g class="cls-13"><path class="cls-4" d="M2264.11,1225.49a2,2,0,0,0-2.8.4c-.83,1.12-20.51,27.5-22.23,43a2,2,0,0,0,1.76,2.21h.23a2,2,0,0,0,2-1.78c1.6-14.41,21.27-40.77,21.46-41A2,2,0,0,0,2264.11,1225.49Z"/></g><path class="cls-4" d="M1955,878.64a2,2,0,1,0-4,.61v.08a36.58,36.58,0,0,1,.37,6,38,38,0,0,1-.57,6,25.75,25.75,0,0,1-4.45,10.89,20.91,20.91,0,0,1-9.25,6.94,34.59,34.59,0,0,1-11.85,2.13,32.36,32.36,0,0,1-11.85-1.91,25.53,25.53,0,0,1-5.22-2.82,24.12,24.12,0,0,1-4.35-4,31.15,31.15,0,0,1-5.72-10.59,43.33,43.33,0,0,1-2.12-12v-.08a1.6,1.6,0,0,0-3.2.06,43.56,43.56,0,0,0,.63,6.63A44.78,44.78,0,0,0,1895,893a34.56,34.56,0,0,0,6.25,11.77,27.93,27.93,0,0,0,4.94,4.65,29.08,29.08,0,0,0,6,3.28,35.79,35.79,0,0,0,13.18,2.25,38.57,38.57,0,0,0,13.15-2.28,25.5,25.5,0,0,0,6-3.27,24.79,24.79,0,0,0,4.92-4.84,29.63,29.63,0,0,0,5.25-12.47,41.55,41.55,0,0,0,.68-6.66,39.65,39.65,0,0,0-.38-6.74Z"/><path class="cls-4" d="M2042,877.26a2,2,0,1,0-4,.6V878a37,37,0,0,1,.38,5.93,38.42,38.42,0,0,1-.55,6,26,26,0,0,1-4.33,10.82,20.65,20.65,0,0,1-9,7,33.45,33.45,0,0,1-11.69,2.23,30.61,30.61,0,0,1-11.74-1.72,21.09,21.09,0,0,1-9.31-6.82,28.83,28.83,0,0,1-5-10.74,42,42,0,0,1-1.2-12v-.08a1.6,1.6,0,0,0-3.2-.18,43.69,43.69,0,0,0,.13,6.59,44.55,44.55,0,0,0,1.07,6.47,32,32,0,0,0,5.53,12,24.43,24.43,0,0,0,10.75,8,34.2,34.2,0,0,0,13.07,2.06,37.07,37.07,0,0,0,13-2.41,24.33,24.33,0,0,0,10.72-8.2,29.51,29.51,0,0,0,5.11-12.38,41.69,41.69,0,0,0,.66-6.58,42.18,42.18,0,0,0-.38-6.68Z"/><path class="cls-4" d="M1983.5,884.64c-18.85-12.59-31.43.63-31.55.77a2,2,0,0,0,2.93,2.72c.42-.45,10.45-10.81,26.4-.16a2,2,0,0,0,2.22-3.33Z"/><path class="cls-25" d="M2480.36,2674.79c-1.5,3.37-3.28,5.77-5.45,6.84-16.27,8-129.77,73.22-103.82,77.73s272-16.11,284.59-24c6.42-4,12.86-44.46,17.62-83.1,4.58-37.12,7.62-72.6,7.62-72.6l-194.81,11.25S2489.9,2653,2480.36,2674.79Z"/><path class="cls-5" d="M2480.36,2674.79c-1.5,3.37-3.28,5.77-5.45,6.84-16.27,8-129.77,73.22-103.82,77.73s272-16.11,284.59-24c6.42-4,12.86-44.46,17.62-83.1C2571.08,2690.13,2512.11,2685.6,2480.36,2674.79Z"/><g class="cls-41"><path class="cls-4" d="M2678.89,2702.78c-60.5,22.69-352.95,47.9-352.95,47.9l100.84,85.72,287.41-75.63S2739.4,2680.09,2678.89,2702.78Z"/></g><path class="cls-25" d="M2960.71,2377.76c-12.71,5.44-31,13.46-49.62,22.06-35.35,16.31-71.93,34.79-73.77,42.13-3.65,14.39,51.71,255,63.91,278.33s39.71-104.63,42.38-122.55c.38-2.4,2.1-4.84,4.87-7.29,5.44-4.79,14.85-9.56,25.29-13.87,23.72-9.78,52.81-17.17,52.81-17.17l-48.68-189S2971.19,2373.22,2960.71,2377.76Z"/><path class="cls-23" d="M2960.71,2377.76l13.06,198.81c23.72-9.78,52.81-17.17,52.81-17.17l-48.68-189S2971.19,2373.22,2960.71,2377.76Z"/><path class="cls-5" d="M2911.09,2399.81c-35.36,16.33-71.92,34.79-73.78,42.13-3.65,14.39,51.71,255,63.93,278.34s39.7-104.63,42.37-122.57c.37-2.39,2.1-4.82,4.86-7.28C2928.49,2563.49,2906.2,2508.71,2911.09,2399.81Z"/><g class="cls-42"><path class="cls-4" d="M2845.29,2395.2c-12.61-2.52-60.51,216.82-60.51,216.82l131.1,201.69s32.77-30.25,12.61-75.63S2845.29,2395.2,2845.29,2395.2Z"/></g><path class="cls-8" d="M2949.14,2088.49s-338.49-36.55-394.17,23.63-75.09,319-76.51,332.77c-2.86,27.52-11.32,179-11.32,179l229.94,15.91L2754,2328.17s86.92,32.54,222.74,43.83,279.67-55.1,296.72-113.78-9.52-173.69-9.52-173.69Z"/><g class="cls-43"><g class="cls-13"><path d="M3137.74,2211.16c-138.66,83.2-398.34,65.55-398.34,65.55l-184,410.94,537-80.67L3352,2397.73s37.82-237,27.74-247.07S3276.4,2128,3137.74,2211.16Z"/></g></g><path class="cls-44" d="M3207.85,2133.68s44.28,72.88,7.06,110.24-273.69,137.75-273.69,137.75l60.14,196.59s101.11-28.81,224.18-61.22,274-129.47,221.74-265.58S3207.85,2133.68,3207.85,2133.68Z"/><g class="cls-45"><path class="cls-4" d="M2919.19,2455.48c-3.82.7-5.86,1-5.87,1a2,2,0,0,0,.32,4,2,2,0,0,0,.34,0s2.07-.35,5.93-1.06a2,2,0,1,0-.72-3.93Z"/><path class="cls-4" d="M3173.18,2378.4c-3.62,1.63-7.34,3.28-11.07,4.89a2,2,0,0,0,.8,3.84,2,2,0,0,0,.79-.17c3.74-1.62,7.49-3.27,11.13-4.91a2,2,0,1,0-1.65-3.65Z"/><path class="cls-4" d="M3083.05,2413.19q-5.78,1.92-11.49,3.74a2,2,0,0,0,.61,3.9,2.2,2.2,0,0,0,.61-.09q5.73-1.83,11.53-3.75a2,2,0,0,0-1.26-3.8Z"/><path class="cls-4" d="M3060,2420.55q-5.85,1.8-11.58,3.51a2,2,0,0,0,.57,3.91,1.93,1.93,0,0,0,.58-.08q5.74-1.71,11.6-3.52a2,2,0,1,0-1.17-3.82Z"/><path class="cls-4" d="M3151,2388c-3.66,1.52-7.41,3-11.16,4.55a2,2,0,0,0,.74,3.85,1.94,1.94,0,0,0,.74-.14c3.77-1.5,7.54-3,11.22-4.57A2,2,0,1,0,3151,2388Z"/><path class="cls-4" d="M3036.85,2427.45c-3.93,1.13-7.82,2.22-11.64,3.28a2,2,0,0,0,1.07,3.86c3.84-1.07,7.73-2.16,11.67-3.3a2,2,0,1,0-1.1-3.84Z"/><path class="cls-4" d="M3128.58,2397c-3.71,1.42-7.51,2.86-11.31,4.26a2,2,0,0,0,.7,3.88,1.87,1.87,0,0,0,.69-.13c3.81-1.41,7.63-2.85,11.35-4.28a2,2,0,1,0-1.43-3.73Z"/><path class="cls-4" d="M3105.91,2405.34c-3.75,1.34-7.59,2.68-11.4,4a2,2,0,0,0,.65,3.89,1.89,1.89,0,0,0,.65-.11c3.83-1.31,7.68-2.66,11.45-4a2,2,0,0,0-1.35-3.77Z"/><path class="cls-4" d="M3013.54,2433.91q-6,1.61-11.7,3.08a2,2,0,0,0,.5,3.93,2.2,2.2,0,0,0,.5-.06q5.74-1.49,11.73-3.08a2,2,0,0,0-1-3.87Z"/><path class="cls-4" d="M3349.22,2153.44c1,3.9,1.77,7.83,2.4,11.69a2,2,0,0,0,2,1.67l.32,0a2,2,0,0,0,1.65-2.3c-.64-4-1.47-8-2.46-12a2,2,0,1,0-3.88,1Z"/><path class="cls-4" d="M2942.91,2450.78c-4.4.92-8.37,1.73-11.88,2.43a2,2,0,0,0,.39,4,1.72,1.72,0,0,0,.39,0c3.52-.7,7.51-1.51,11.92-2.43a2,2,0,1,0-.82-3.92Z"/><path class="cls-4" d="M3345.93,2142a2,2,0,0,0,1.9,1.38,1.87,1.87,0,0,0,.62-.1,2,2,0,0,0,1.29-2.52c-1.24-3.79-2.64-7.66-4.17-11.49a2,2,0,0,0-3.72,1.49C3343.35,2134.47,3344.73,2138.25,3345.93,2142Z"/><path class="cls-4" d="M2990.11,2440c-4,1-8,2-11.76,2.87a2,2,0,0,0,.47,3.95,2,2,0,0,0,.47-.06c3.8-.91,7.74-1.87,11.79-2.87a2,2,0,1,0-1-3.89Z"/><path class="cls-4" d="M2966.57,2445.58c-4.13,1-8.08,1.84-11.81,2.66a2,2,0,0,0,.42,4,1.54,1.54,0,0,0,.43-.05c3.75-.82,7.71-1.71,11.85-2.66a2,2,0,1,0-.89-3.9Z"/><path class="cls-4" d="M3237.34,2345c-3.37,2-6.87,4.1-10.39,6.11a2,2,0,0,0,1,3.74,2,2,0,0,0,1-.27c3.55-2,7.07-4.1,10.47-6.16a2,2,0,1,0-2.07-3.42Z"/><path class="cls-4" d="M3350.52,2222.61A2,2,0,0,0,3348,2224c-1.12,3.73-2.43,7.49-3.9,11.18a2,2,0,0,0,1.12,2.6,2.11,2.11,0,0,0,.74.14,2,2,0,0,0,1.85-1.26c1.52-3.8,2.87-7.67,4-11.51A2,2,0,0,0,3350.52,2222.61Z"/><path class="cls-4" d="M3341.94,2245.11a2,2,0,0,0-2.68.9c-1.74,3.48-3.66,7-5.72,10.44a2,2,0,0,0,.69,2.74,1.91,1.91,0,0,0,1,.29,2,2,0,0,0,1.72-1c2.11-3.53,4.09-7.14,5.87-10.71A2,2,0,0,0,3341.94,2245.11Z"/><path class="cls-4" d="M3329.85,2266a2,2,0,0,0-2.79.5c-2.23,3.2-4.63,6.42-7.14,9.58a2,2,0,0,0,3.13,2.49c2.57-3.23,5-6.52,7.29-9.79A2,2,0,0,0,3329.85,2266Z"/><path class="cls-4" d="M3338.89,2120.9a2,2,0,0,0,.85-.2,2,2,0,0,0,1-2.66c-1.69-3.6-3.54-7.26-5.49-10.89a2,2,0,0,0-3.52,1.9c1.91,3.56,3.73,7.16,5.4,10.7A2,2,0,0,0,3338.89,2120.9Z"/><path class="cls-4" d="M3195,2368.09c-3.56,1.76-7.21,3.52-10.87,5.25a2,2,0,0,0,.85,3.81,2,2,0,0,0,.86-.19c3.68-1.74,7.35-3.51,10.93-5.28a2,2,0,0,0-1.77-3.59Z"/><path class="cls-4" d="M3354.88,2174.81A2,2,0,0,0,3353,2177c.27,3.39.4,6.82.4,10.18,0,.57,0,1.14,0,1.72a2,2,0,0,0,2,2h0a2,2,0,0,0,2-2c0-.59,0-1.18,0-1.77,0-3.46-.14-7-.41-10.49A2,2,0,0,0,3354.88,2174.81Z"/><path class="cls-4" d="M3354.92,2199a2,2,0,0,0-2.2,1.77c-.42,3.92-1,7.86-1.81,11.73a2,2,0,0,0,1.57,2.36,2.58,2.58,0,0,0,.39,0,2,2,0,0,0,2-1.61c.81-4,1.44-8,1.87-12.09A2,2,0,0,0,3354.92,2199Z"/><path class="cls-4" d="M3277,2317.78c-3.09,2.43-6.32,4.87-9.59,7.25a2,2,0,1,0,2.36,3.23c3.3-2.41,6.57-4.88,9.7-7.33a2,2,0,0,0-2.47-3.15Z"/><path class="cls-4" d="M3257.6,2332c-3.25,2.22-6.63,4.46-10,6.65a2,2,0,0,0,2.16,3.37c3.45-2.21,6.86-4.47,10.14-6.71a2,2,0,0,0-2.26-3.31Z"/><path class="cls-4" d="M3216.43,2357c-3.48,1.89-7.06,3.8-10.66,5.66a2,2,0,0,0,.92,3.78,2,2,0,0,0,.92-.23c3.62-1.87,7.23-3.79,10.73-5.69a2,2,0,0,0-1.91-3.52Z"/><path class="cls-4" d="M3327.45,2099.6a1.94,1.94,0,0,0,1-.29,2,2,0,0,0,.68-2.74c-2-3.41-4.23-6.87-6.5-10.29a2,2,0,0,0-3.34,2.2c2.24,3.38,4.4,6.8,6.42,10.15A2,2,0,0,0,3327.45,2099.6Z"/><path class="cls-4" d="M3295.36,2302.25c-2.88,2.65-5.91,5.32-9,7.94a2,2,0,0,0,1.3,3.53,2.05,2.05,0,0,0,1.29-.47c3.14-2.66,6.21-5.37,9.13-8.06a2,2,0,0,0-2.71-2.94Z"/><path class="cls-4" d="M3312.21,2285.2c-2.6,2.91-5.37,5.85-8.21,8.72a2,2,0,0,0,0,2.83,2,2,0,0,0,1.41.58,2,2,0,0,0,1.42-.59c2.89-2.93,5.7-5.92,8.35-8.88a2,2,0,1,0-3-2.66Z"/><path class="cls-4" d="M3312.31,2071.59a2,2,0,0,0-3.21,2.39q1.8,2.42,3.53,4.81a2,2,0,0,0,1.62.83,2,2,0,0,0,1.17-.37,2,2,0,0,0,.45-2.79Q3314.13,2074,3312.31,2071.59Z"/></g><path class="cls-24" d="M3013.86,1719.5s-160.84-6.31-222.51,151.91S2843.51,2071,2843.51,2071l6.74,23.1s47.7,36.33,75.51,40,320.3,11,320.3,11l76.44-142.67S3376.34,1659.27,3013.86,1719.5Z"/><g class="cls-46"><g class="cls-13"><rect class="cls-4" x="2903.27" y="1810.3" width="57.99" height="17.65" rx="3.5" transform="translate(-480.12 1306.27) rotate(-23.27)"/></g><g class="cls-13"><rect class="cls-4" x="3084.8" y="1810.3" width="57.99" height="17.65" rx="3.5" transform="translate(-465.36 1377.98) rotate(-23.27)"/></g><g class="cls-13"><rect class="cls-4" x="2927.23" y="1952.75" width="57.99" height="17.65" rx="3.5" transform="translate(-534.44 1327.33) rotate(-23.27)"/></g><g class="cls-13"><rect class="cls-4" x="3198.25" y="1923.75" width="57.99" height="17.65" rx="3.5" transform="translate(-500.95 1432.03) rotate(-23.27)"/></g><g class="cls-13"><rect class="cls-4" x="2754.53" y="1959.05" width="57.99" height="17.65" rx="3.5" transform="translate(-550.98 1259.62) rotate(-23.27)"/></g><g class="cls-13"><rect class="cls-4" x="2867.98" y="2072.5" width="57.99" height="17.65" rx="3.5" transform="translate(-586.57 1313.66) rotate(-23.27)"/></g><g class="cls-13"><rect class="cls-4" x="3049.5" y="2072.5" width="57.99" height="17.65" rx="3.5" transform="translate(-571.81 1385.37) rotate(-23.27)"/></g><g class="cls-13"><rect class="cls-4" x="3081.01" y="1713.24" width="57.99" height="17.65" rx="3.5" transform="translate(-427.32 1368.59) rotate(-23.27)"/></g><g class="cls-13"><rect class="cls-4" x="3190.68" y="2047.29" width="57.99" height="17.65" rx="3.5" transform="translate(-550.36 1439.08) rotate(-23.27)"/></g><g class="cls-13"><rect class="cls-4" x="3265.06" y="1819.13" width="57.99" height="17.65" rx="3.5" transform="translate(-454.18 1449.9) rotate(-23.27)"/></g><g class="cls-13"><rect class="cls-4" x="3059" y="1942.52" width="57.99" height="17.65" rx="3.5" transform="translate(-519.69 1378.54) rotate(-23.27)"/></g><g class="cls-13"><polygon points="2890.67 2148.13 2890.67 1870.81 2787.3 2125.44 2890.67 2148.13"/></g></g><path class="cls-28" d="M3093.28,1471.6s18.49-61.33-56-60.59-80.72,35.1-104.73,40.31-86.65,63.68,4.23,94.57,175.45,59.53,175.45,59.53S3226.57,1514.25,3093.28,1471.6Z"/><g class="cls-47"><path class="cls-30" d="M3180.57,1530.88c-7.87-38.17-50.68-65.23-88.54-56,10.76-18.72,18.11-41.48,10.75-61.78s-34.73-33.42-51.8-20.2c25.4,16.83,32.53,55.79,14.73,80.53-1-19.88-21.2-36.59-40.9-33.78a44.19,44.19,0,0,1,22.66,39.38c-12.84,1.89-25.51-3.33-37.75-7.66-24.78-8.76-51.64-14.25-77.36-8.82s-49.94,23.76-56.3,49.27l-14.81,11.88-11.59,2.29a1403.52,1403.52,0,0,1,154.76,91c18,12.21,36,25,56.41,32.57s44,9.53,63.53,0c8.12-3.94,15.74-10.4,17.81-19.18,2.35-10-2.87-19.91-5.51-29.79-3.91-14.61-2.19-30.07-3.69-45.12s-7.55-31.3-21.18-37.86C3134.79,1509,3162.44,1514.31,3180.57,1530.88Z"/></g><path class="cls-25" d="M3085.51,1585.72c-4.8-7.07-27.37-42.33-22.72-73.5-65.66,29.2-131.51,11.36-131.51,11.36s-14.57,34.34-13.87,88.29,50.35,71,67.65,67.59a122.35,122.35,0,0,1,.88,27.36,175.56,175.56,0,0,1-3.5,24.73s28.47,31.54,40.19,34.53c62.56,16,78.89-49.73,78.89-49.73l-28.36-53,2.64-15.29a46.75,46.75,0,0,0,27.87-1.79c20.78-7.76,32.7-27.31,26.59-43.67C3124.54,1587.27,3105.05,1580.18,3085.51,1585.72Z"/><g class="cls-48"><path class="cls-23" d="M3041,1445.46c-18.05-3-36.58,1.14-53.78,7.39a223.94,223.94,0,0,0-65.33,37.21l-15.7,27.43c13.9,14.6,33.76,22.42,53.73,25.22s40.27,1,60.32-1.11c3.52-.37,7.15-.74,10.53.32,3.19,1,5.85,3.2,8.42,5.35l44.28,37q1.23-37.77,2.45-75.53c.35-10.71.65-21.74-3.07-31.79C3076.51,1459.82,3059.05,1448.47,3041,1445.46Z"/></g><path class="cls-23" d="M3100.92,1619.93a9.87,9.87,0,0,1-3.06,3.14,15.5,15.5,0,0,1-8.22,2.36,16.36,16.36,0,0,1-7.92-1.87c-2.3-1.25-3.94-3.2-4.16-5.28s1-4.33,3-6a16.47,16.47,0,0,1,7.34-3.51,15.45,15.45,0,0,1,8.53.55,9.81,9.81,0,0,1,3.65,2.42,7.08,7.08,0,0,1,1.89,4,7.81,7.81,0,0,0-1.78-4.06,12,12,0,0,0-3.53-2.82,18.59,18.59,0,0,0-9-2,17.22,17.22,0,0,0-9.21,2.76,11.59,11.59,0,0,0-3.6,3.76,8.63,8.63,0,0,0,1.14,10.52,11.8,11.8,0,0,0,4.31,2.91,17.38,17.38,0,0,0,9.59.73,18.56,18.56,0,0,0,8.33-3.91,11.71,11.71,0,0,0,2.85-3.5,7.74,7.74,0,0,0,.88-4.34A7.09,7.09,0,0,1,3100.92,1619.93Z"/><path class="cls-23" d="M3025.48,1671c-15.21,8.86-40.42,8.44-40.42,8.44a122.35,122.35,0,0,1,.88,27.36C3024.94,1699.08,3040.69,1662.16,3025.48,1671Z"/><path class="cls-32" d="M3037.86,1551.24a19.49,19.49,0,0,0-7.28-2,24.7,24.7,0,0,0-7.26.55,26.92,26.92,0,0,0-3.43,1,24.39,24.39,0,0,0-3.34,1.44,2,2,0,0,0,1.69,3.61l.13,0a21.86,21.86,0,0,1,2.8-.94,23.67,23.67,0,0,1,3-.6,19.84,19.84,0,0,1,5.86,0,13.85,13.85,0,0,1,5.23,1.89,16.1,16.1,0,0,1,4.14,3.64l.19.22.13.13a3,3,0,0,0,4.27-4.34A22.09,22.09,0,0,0,3037.86,1551.24Z"/><path class="cls-32" d="M2967.49,1544.94a19.39,19.39,0,0,0-7.28-2,24.72,24.72,0,0,0-7.26.55,26.78,26.78,0,0,0-3.42,1,24.39,24.39,0,0,0-3.34,1.44,2,2,0,0,0,1.69,3.61l.13,0a20.41,20.41,0,0,1,2.8-.94,25.23,25.23,0,0,1,3-.61,20.18,20.18,0,0,1,5.86,0,14,14,0,0,1,5.23,1.88,15.89,15.89,0,0,1,4.13,3.64l.2.23.13.13a3,3,0,0,0,4.26-4.34A21.75,21.75,0,0,0,2967.49,1544.94Z"/><path class="cls-23" d="M2976.08,1585s-25.67,28.13-10.32,35c11.3,5.06,13.77-1.45,15.75-6.91S2984.88,1580.32,2976.08,1585Z"/><path class="cls-33" d="M2950.6,1576.11a8.83,8.83,0,1,0,8.38,9.26A8.82,8.82,0,0,0,2950.6,1576.11Z"/><path class="cls-33" d="M3017.46,1578.31a8.83,8.83,0,1,0,8.37,9.27A8.85,8.85,0,0,0,3017.46,1578.31Z"/><path class="cls-35" d="M3004.17,1632.88a2,2,0,0,0-2.74.68c-8.72,14.4-24.1,7.17-24.76,6.85a2,2,0,1,0-1.75,3.59,28.92,28.92,0,0,0,11.42,2.44c6.06,0,13.3-2.21,18.51-10.81A2,2,0,0,0,3004.17,1632.88Z"/><path class="cls-25" d="M3174.65,2031.12l2,10.21L3062.26,2108s-7.54,6.49-44.64-11.15-37.47,30.93-37.47,30.93l11.27,53s174.32,14.93,252.25-2.45,79.56-38.1,78.83-175.92C3246.08,1948.78,3174.65,2031.12,3174.65,2031.12Z"/><polygon class="cls-7" points="2972.82 1927.54 2619.37 1916.01 2600.18 1932.96 2680.55 2216.81 3135.3 2231.65 3136.11 2206.97 3038.77 2191.59 2972.82 1927.54"/><g class="cls-49"><path class="cls-50" d="M3066,1983.21c-21.81-24.86-54.37-39.75-87.42-40.74s-66.18,11.71-90.6,34c-48.68,44.46-58.46,118.24-100.59,168.95-25,30.08-60.3,50.4-97.6,62.13s-76.69,15.38-115.78,16.27l34.79,21.42c29,21.34,66,27.85,101.58,33.76,32.34,5.37,64.68,10.75,97.2,14.87,43,5.46,86.84,8.7,129.6,1.5s84.76-25.7,113.66-58c20.61-23.07,33.68-52.07,41.78-81.92,10.54-38.81,13-80.52,1.68-119.1C3088.55,2016.94,3079.3,1998.41,3066,1983.21Z"/></g><polygon class="cls-10" points="2972.82 1927.54 2619.37 1916.01 2600.18 1932.96 2958.13 1944.64 3022.34 2227.96 3135.3 2231.65 3136.11 2206.97 3038.77 2191.59 2972.82 1927.54"/><path class="cls-4" d="M2811.07,2045.27c-14.43-4.89-29.52-5-42.51-.35s-22.56,13.75-26.52,25.46-2,24.6,5.6,36.33,19.55,20.66,34,25.54A69.6,69.6,0,0,0,2804,2136a59.74,59.74,0,0,0,20.17-3.4c13.15-4.72,22.57-13.76,26.53-25.46s2-24.61-5.61-36.34S2825.49,2050.15,2811.07,2045.27ZM2743.93,2071h0Zm102.93,34.84c-3.56,10.53-12.11,18.69-24.09,23-12.13,4.35-26.29,4.22-39.87-.37s-24.9-13.1-31.9-23.93c-6.9-10.68-8.74-22.36-5.18-32.88s12.12-18.68,24.09-23a55.89,55.89,0,0,1,18.83-3.17,65.65,65.65,0,0,1,21.05,3.55c13.57,4.59,24.9,13.09,31.89,23.92C2848.59,2083.66,2850.43,2095.34,2846.86,2105.86Z"/><path class="cls-23" d="M3177.48,2045.68s42.69-.38,67,14.1C3244.12,2023.24,3189,2036.21,3177.48,2045.68Z"/><g class="cls-13"><path d="M2961.56,1757.51s5.22,68.23,83,50.12S2991.84,1817.87,2961.56,1757.51Z"/></g><g class="cls-13"><path d="M3174.15,1858.1a2,2,0,0,0-2.29,1.67c-11.47,72.19-3.42,149.44-3.34,150.21a2,2,0,0,0,2,1.79h.21a2,2,0,0,0,1.78-2.2c-.09-.77-8.07-77.51,3.31-149.17A2,2,0,0,0,3174.15,1858.1Z"/></g><circle class="cls-35" cx="3042.58" cy="1613.89" r="20.25"/></svg>