<svg xmlns="http://www.w3.org/2000/svg" viewBox="0 0 4680 3120"><defs><style>.cls-1,.cls-3{fill:#fff;}.cls-1{opacity:0;}.cls-2{fill:#d2dbff;}.cls-4{fill:#fbc220;}.cls-5{fill:#ffc4a6;}.cls-6{fill:#fc937e;}.cls-7{fill:#d88500;}.cls-8{fill:#231f20;}.cls-9{fill:#fb4e5d;}.cls-10{fill:#da254e;}.cls-11{opacity:0.2;}.cls-12{fill:#352a42;}.cls-13{fill:#ffd8c7;}.cls-14{fill:#a86300;}.cls-15{fill:#4052f2;}.cls-16{fill:#56d1d1;}.cls-17{fill:#00b6bf;}.cls-18{opacity:0.57;}.cls-19{fill:#00c1aa;}.cls-20{fill:#697df4;}.cls-21{fill:#5e72ef;}.cls-22{fill:#524666;}.cls-23{fill:#9b4838;}.cls-24{fill:#7c271c;}.cls-25{fill:#3c5fef;}.cls-26{fill:#ff8f9d;}.cls-27{opacity:0.5;}.cls-28{fill:#d8d8d8;}.cls-29{fill:#4c4648;}.cls-30{opacity:0.48;}.cls-31{fill:#d1594a;}</style></defs><title>05</title><g id="_05" data-name="05"><rect id="_05-2" data-name="05" class="cls-1" width="4680" height="3120"/><circle class="cls-2" cx="2552.84" cy="1644.15" r="895.43"/><path class="cls-3" d="M3099.08,1100.33a759.18,759.18,0,1,0,163.19,242.05A758.89,758.89,0,0,0,3099.08,1100.33Zm150.6,829.54a750.34,750.34,0,1,1,58.76-291.08A745.45,745.45,0,0,1,3249.68,1929.87Z"/><path class="cls-3" d="M3026.68,1172.72a657.1,657.1,0,1,0,141.25,209.51A656.9,656.9,0,0,0,3026.68,1172.72ZM3155.34,1890a647.57,647.57,0,1,1,50.72-251.23A643.29,643.29,0,0,1,3155.34,1890Z"/><path class="cls-4" d="M3331.72,1967.34c-18.91-142.63-61-311.41-110.28-340.06,0,0-56.37-34-76.6-38.3-3.68-.77-17.74-7.36-38.47-17.6-76.7-37.78-244.82-125.1-317.25-150.33L2601.79,1451c-36.77,10.14-104.29,28.15-116.56,27.38-17-1.07-93.6,12.79-93.6,12.79s-52.16-21.31-72.35-2.13-101.09,155.29-102.16,238.29,162.78,649,214.9,672.39,252.17,177.65,434.1,117c147.56-49.2,363.72-192.19,444.07-310.86,18.71-27.65,30.07-54,31.48-77.47.7-11.85.84-25.58.43-40.83C3341.19,2053.3,3337.57,2011.56,3331.72,1967.34Z"/><path class="cls-5" d="M2846.24,1346.24l-207.13,138.12c-11.35,37.36-17.37,102,.29,156.7,26.41,81.92,71.11,249,71.11,249s16.55-173.55,56.18-182.81,184.6-81.69,141.51-276.45C2897,1380.29,2874.07,1355.15,2846.24,1346.24Z"/><path class="cls-6" d="M2707.7,1353c-40.66,33.88-82,114.16-80.53,187.2,0,0,130.23,19.87,220.59-157.08l-32.55-38S2748.36,1319.12,2707.7,1353Z"/><path class="cls-7" d="M3103.89,1128.09l2.52-7.95c13.57-42.93-13.11-88.64-57.39-96.85-49.43-9.16-108.3,8-108.3,8l-30.39,53.11-29.92,55.1c4.14,37.06,2.38,63.68,2.38,63.68s-31.5,134.38-45.14,169.49c69.46,76.94,218.44,35.1,285.17,2.13,84.45-41.71,22.8-106.26,22.8-106.26s48.4-37,30.37-95.82S3103.89,1128.09,3103.89,1128.09Z"/><path class="cls-8" d="M2933.94,998.67a136.79,136.79,0,0,0-32.33-85.19c-63.8-75.57-170.44-123.71-170.44-123.71-32.42-14.41-66.86-15.39-104.27-10.67-22.75,2.82-52,5.4-71.58,18.51a70.59,70.59,0,0,0-9.82,8,109.86,109.86,0,0,0-13.18,15.62c-2.87,4-12.17,24.78-15.66,25.62,234.55-57.7,327.53,65.38,327.53,65.38s10.24.73,40.26,30.75,11.21,80,11.21,80l34.61,26.53c.27-1.16.52-2.35.77-3.58,2.51-13,3.1-30,2.92-45.86C2934,999.58,2933.94,999.12,2933.94,998.67Z"/><path class="cls-9" d="M2649.5,1670c-2.61-15.61-3.46-31.46-4.3-47.27q-3.81-71.88-7.63-143.77c-.14-2.52-.31-5.17-1.55-7.35a4,4,0,0,0-.27-.44,15.28,15.28,0,0,0-5.11-4.28c-8.21-5-21.51-17.34-30.93-18.81-9.68-1.51-26.92,6.93-36.49,9.47l-78,20.77c77,138.62,151,277.5,227.93,416.12-17.46-56.56-32-113.38-49.44-169.94C2658.15,1706.57,2652.59,1688.55,2649.5,1670Z"/><path class="cls-9" d="M2761,1706.44c-64.08,70.45-48.57,186.51-48.57,186.51,21.73-174.93,114.28-197.64,164.66-220.39S2979.48,1510,2979.48,1510l-100.76-22.76A511,511,0,0,1,2761,1706.44Z"/><path class="cls-7" d="M3099.26,2124.29c-44.59-12.53-79.54-308.89-80.64-318.14l24,342.2s160.28,65.29,267.54,57.49c18.71-27.65,30.07-54,31.48-77.47.7-11.85.84-25.58.43-40.83C3274.1,2129,3135,2134.37,3099.26,2124.29Z"/><path class="cls-10" d="M3047.3,1542.93a3.41,3.41,0,0,0-4,2.66c-5.51,27.05-25.76,54.29-61.91,83.26-31.56,25.3-69.76,47.61-103.46,67.29-31.26,18.25-58.26,34-71.75,47.51-37.18,37.17-81.31,150.95-92,179.42l-145.23-218L2447.7,1481.73a3.42,3.42,0,0,0-6,3.27L2563,1708.42a1.91,1.91,0,0,0,.16.27l149,223.76a3.42,3.42,0,0,0,2.85,1.52,2.88,2.88,0,0,0,.41,0,3.43,3.43,0,0,0,2.8-2.23c.52-1.42,52.08-142.59,92.73-183.24,12.87-12.86,39.51-28.42,70.36-46.44,33.9-19.8,72.33-42.24,104.29-67.85,37.44-30,58.49-58.55,64.33-87.23A3.42,3.42,0,0,0,3047.3,1542.93Z"/><path class="cls-10" d="M2717.94,1929.09a3.42,3.42,0,0,0-3.4-3.44h0a3.42,3.42,0,0,0-3.42,3.4c0,1.14-.59,115.81,5.64,239.94,8.4,167.09,24.54,270.86,48,308.45a3.42,3.42,0,1,0,5.8-3.62C2715.91,2386.25,2717.91,1933.65,2717.94,1929.09Z"/><path class="cls-7" d="M2375.72,1784s80.66-64.11,22.75-217.15Z"/><circle class="cls-7" cx="2647.64" cy="1953.39" r="25.47" transform="translate(-377.97 660.56) rotate(-13.28)"/><circle class="cls-7" cx="2777.11" cy="1953.39" r="25.47"/><circle class="cls-7" cx="2777.11" cy="2057.39" r="25.47"/><circle class="cls-7" cx="2647.64" cy="2053.15" r="25.47" transform="translate(-400.89 663.23) rotate(-13.28)"/><circle class="cls-7" cx="2649.76" cy="2159.27" r="25.47" transform="translate(-359.17 3781.02) rotate(-67.5)"/><circle class="cls-7" cx="2785.6" cy="2150.78" r="25.47" transform="translate(-704.95 2599.67) rotate(-45)"/><g class="cls-11"><path class="cls-3" d="M3221.44,1627.28s-56.37-34-76.6-38.3c-3.68-.77-17.74-7.36-38.47-17.6-10.25,71.68-20.43,190,18.78,217.19,57.21,39.69,73.54,114.39,100.39,147.07,19.4,23.62,62.59,50.85,102.51,6C3309.14,1799,3263.22,1656,3221.44,1627.28Z"/></g><g class="cls-11"><ellipse class="cls-3" cx="3134.08" cy="1881.17" rx="30.68" ry="46.69" transform="translate(-502.12 2254.41) rotate(-36.83)"/></g><path class="cls-7" d="M2735.83,672a72.83,72.83,0,0,0-52.24-6.38c-30.31,7.53-53.66,32-63.19,61.32a90.68,90.68,0,0,0-1.85,50c1.79,7.11,12.79,4.1,11-3-6.35-25.25,1-53,17.87-72.69,19.28-22.5,51.93-34.23,79.85-20.83,15.63,7.51,28.09,20,40.18,32.09,5.18,5.21,13.24-2.85,8.06-8.06C2763.49,692.43,2751,680.07,2735.83,672Z"/><path class="cls-7" d="M2479.51,1150.79s-62.61,72.14-36.05,118.63,41.76,54.07,41.76,54.07-50.31,54.09-7.6,85.42c34.54,25.31,79,48.15,141.91,51L2504.83,1143C2496.4,1142.34,2487.94,1144.7,2479.51,1150.79Z"/><path class="cls-7" d="M3046.11,859.12c8.64-9.93,16.6-55.75-14.61-95.59s-106.23-9.31-106.23-9.31-13.29-41.83-62.41-67.73-97,14.61-97,14.61c-7.31-6-59.75-28.54-106.24,4-32,22.42-34.4,55.57-32.77,74,37.41-4.7,73,2.11,105.43,16.51,0,0,133.36,62.58,190,161.69,0,0,14.94,56.52,8.7,88.61,12.69,6.53,36.09,11.35,79.24,7.12,94.94-9.31,113.54-81.68,102.24-131.46S3037.48,869.09,3046.11,859.12Z"/><path class="cls-5" d="M2927.51,1116.9c-23.77-7.56-44.61,39.23-44.61,39.23l-.1,47-21.2,84.48,35.61-15.83a66,66,0,0,0,33.16-32.69l28.47-61.7C2965.33,1147.16,2951.28,1124.47,2927.51,1116.9Z"/><polygon class="cls-6" points="2901.98 1232.94 2921.63 1176.53 2889.36 1207.54 2901.98 1232.94"/><path class="cls-5" d="M2635.72,917.37s-187.93,15.39-133.92,252.23q8.58,48,18.42,95.86c9.61,46.89,16.75,94.54,43.05,135.59,14.17,22.12,43.62,77.28,72.32,82.65,7.44,1.4,16.23,2.8,24.42,4a83.79,83.79,0,0,0,57.37-12.18c15.82-10.11,31.19-22,45.8-31.46,20.68-13.4,40.65-28.18,58.33-45.4,18.39-17.89,21.16-38.09,29.14-61.6,6.44-19,12.4-38.11,17.42-57.52,11.27-43.59,23.79-94.94,12.34-140.06C2858.1,1051.53,2825.49,897.33,2635.72,917.37Z"/><path class="cls-6" d="M2669.31,945.4l-176.57,162,14.58,102s61.56-19.44,69.66-51.83c0,0,64-3.24,66.41-76.95,0,0,83.43-10.53,89.1-62.37,0,0,10.53,20.25,27.54,25.92,0,0,4.86,45.36,53.45,51.84,0,0,23.87,68.36,63.56,75.65l27-11.8L2771.37,956.74Z"/><path class="cls-7" d="M2895.66,1023s15.46-29.59-2.57-72.08-51.89-44.39-51.89-44.39-73.28-85.73-231.42-76.57q-13.65.78-28.18,2.55c-63.41,7.8-132.53,26.56-168.28,84-22.9,36.84-47,72.22-33.64,117.42.75,2.49,6.5,19.11,10.44,28.66,1.69,4.08,3,6.86,3.53,6.7-.43.27-137.16,82.84-7.7,123.58,47.94,15.06,87.92,8.41,118.35-4.59.3-.11.57-.25.85-.36A186.38,186.38,0,0,0,2562,1149.1a121.84,121.84,0,0,0,9.32-10.3c73.38-6.43,54.07-87.54,54.07-87.54,83.66,29.61,105.55-87.51,105.55-87.51,0,61.77,41.19,56.62,41.19,56.62,1.28,48.92,61.78,61.8,61.78,61.8-9.67,29.79,17.44,68.62,50.1,77.8a51.16,51.16,0,0,0,15.32,2c15-.36,30.16-7.81,42.7-25.73C2987.05,1071.87,2895.66,1023,2895.66,1023Z"/><ellipse class="cls-8" cx="2595.06" cy="1204.78" rx="11.41" ry="26.68"/><path class="cls-8" d="M2736.76,1178.1c-6.29,0-11.4,12-11.4,26.68s5.11,26.68,11.4,26.68,11.41-12,11.41-26.68S2743.06,1178.1,2736.76,1178.1Z"/><polygon class="cls-6" points="2617.64 1306.53 2667.53 1323.16 2660.88 1241.11 2617.64 1306.53"/><path class="cls-8" d="M2667.89,1322.08l-48.48-16.16,42.42-64.18a1.14,1.14,0,1,0-1.9-1.26l-43.24,65.42a1.11,1.11,0,0,0-.13,1,1.15,1.15,0,0,0,.72.71l49.89,16.63a1.14,1.14,0,1,0,.72-2.16Z"/><path class="cls-8" d="M2794,1149.19c-65.37,8.85-98.88-22.88-99.27-23.26a2.28,2.28,0,1,0-3.19,3.26c1.23,1.21,27.39,26.15,79.42,26.15a177.66,177.66,0,0,0,23.66-1.63,2.28,2.28,0,0,0-.62-4.52Z"/><path class="cls-8" d="M2638.55,1122c-.33.33-33.69,32.14-99.28,23.26a2.28,2.28,0,1,0-.61,4.52,175.72,175.72,0,0,0,23.65,1.64c52,0,78.19-25,79.42-26.16a2.28,2.28,0,1,0-3.18-3.26Z"/><path class="cls-8" d="M2703.3,1365.89a318.92,318.92,0,0,1-34.42,1.18c-17.7-.35-35.55-5-53.05-7.16a131.23,131.23,0,0,0-16-1.15c2.44,4.15,5,8.93,7.84,13.83,4.94,8.63,10.61,17.58,17.45,24a37.92,37.92,0,0,0,8.15,6.08c6.93,3.77,15.08,4.74,23,4.3,13-.72,25.06-4.94,36.39-11.14a166.44,166.44,0,0,0,25.17-17.5c6.77-5.54,13.26-11.48,19.55-17.33-4.08,3.81-17.87,4.26-27.26,4.55C2707.33,1365.68,2704.93,1365.75,2703.3,1365.89Z"/><path class="cls-3" d="M2668.88,1367.07c-17.7-.35-35.55-5-53.05-7.16a51.62,51.62,0,0,0,27,17.4c23.37,6.49,48.44-1.93,67.24-11.73-2.77.1-5.17.17-6.8.31A318.92,318.92,0,0,1,2668.88,1367.07Z"/><path class="cls-9" d="M2625.14,1396.62a37.92,37.92,0,0,0,8.15,6.08c6.93,3.77,15.08,4.74,23,4.3,13-.72,25.06-4.94,36.39-11.14-4.09-1.95-10.52-3.87-20.51-5.28C2654.8,1388.16,2637.07,1392.51,2625.14,1396.62Z"/><path class="cls-6" d="M2908.19,1430.81c-19.22-9.6-52,44.74-43,87.29s62.48,159.38,62.48,159.38l19-6.49C2957.59,1596.19,2927.4,1440.42,2908.19,1430.81Z"/><path class="cls-12" d="M3062.69,1178.69c-15.76-13.61-47.64-33-95.63-24.63a36,36,0,0,0-27.67,22.89c-10.4,27.9-26.29,80.47-6.5,98.78,27.45,25.39,38.43,43.91,38.43,43.91s-147.54,176.36-168.81,164.7c0,0-46.67-11.67-60.39-8.24s-42.55,67.94-38.43,85.1c2.86,11.91,21.93,40.36,42.28,59.86a29.51,29.51,0,0,0,43.43-3.06l74.87-93.86,165.85-195.28a31.89,31.89,0,0,0,6.25-11.51l33.8-113A24.55,24.55,0,0,0,3062.69,1178.69Z"/><path class="cls-5" d="M3068.75,1211.22a9,9,0,0,0-4.1-.8c-6.16.36-10.67,8.91-12.36,31-2.07,26.76,2.76,71.37,2.76,71.37l-20.61,61.76-4.46-8.71-24.35-47.53-90.57-1.39-48,46.66-1.37,20.59-38.43,30.2L2813.48,1439l-15.09,24.71,13.73,8.23,22-4.1s39.78-6.2,59-1.37,37.06,43.9,37.06,43.9-19.9,80.29-20.6,94.7,23.34,52.15,23.34,52.15l-23.34,54.9-87.84,624.47s-9.84,78.78,27.52,119.63c17.55,19.19,45.52,30,89.84,20.36,24.3-5.29,43.45-17.92,58.47-35.18,70.69-81.06,50.63-264,50.63-264l-3.79-50.08L3010,1673.27l53.3-212.25,20.56-90.6,2.76-52.13S3077,1214.66,3068.75,1211.22Z"/><path class="cls-6" d="M2977.29,1374.21a26.14,26.14,0,0,0-18.37-9.8c-18.78-1.55-30.07-6.07-36.48-9.91a10.93,10.93,0,0,0-13.36,1.63c-9.58,9.67-42.34,27.4-42.34,27.4l72,4.41,60,36-2.75-26.08Z"/><path class="cls-6" d="M2963.68,1453.17,2904,1416.61a29.42,29.42,0,0,0-17-4.3l-60.37,3.23a1.14,1.14,0,0,0-1.08,1.2,1.16,1.16,0,0,0,1.2,1.08l60.37-3.24a27.22,27.22,0,0,1,15.69,4l59.72,36.57a1.16,1.16,0,0,0,.59.16,1.14,1.14,0,0,0,.6-2.11Z"/><path class="cls-6" d="M3052.29,1241.41c-2.07,26.76,2.75,71.37,2.75,71.37l-20.6,61.76-4.46-8.73,0,.23,8.39,16.77s23.54-62.46,23.31-66.66-.7-57.33-1.86-76.44c-.66-10.71,2.19-21.71,4.84-29.3C3058.5,1210.78,3054,1219.32,3052.29,1241.41Z"/><path class="cls-6" d="M3044.38,2127.34c-23.61,3.19-89.86,16.28-92.21,62.5-2.87,56.31-.73,106.19-.73,106.19l-92.64,57,95.4,54.3s-14,75.71-105,48.92c17.55,19.19,45.52,30,89.84,20.36,24.3-5.29,43.45-17.92,58.47-35.18,70.69-81.06,50.63-264,50.63-264Z"/><path class="cls-13" d="M3008,1915.89c-1.08-27.77-2.47-55.53-4.63-83.24-1.81-23.17-4.21-46.57-12-68.48-14.39-40.61-28.9,14.56-32.53,29.5a446.22,446.22,0,0,0,11.63,249.82c5.17,14.87,11.33,29.73,19.46,43.18,6.67,11,23.71,5.8,23.31-7.07l-3.37-107.75C3009.29,1953.2,3008.71,1934.54,3008,1915.89Z"/><path class="cls-7" d="M3071.6,1047v-11.4C3064.26,1035.75,3064.26,1046.86,3071.6,1047Z"/><path class="cls-7" d="M3135.08,970.65c2.29-17.56.67-35.88-7-52a63.12,63.12,0,0,0-16.49-21.24c-7.84-6.48-16.85-11.17-25.24-16.86-9.43-6.38-15.51-16.17-24.78-22.59-8.35-5.78-19.79-6.53-27.56.52-5.45,4.93,2.63,13,8.06,8.06,6.31-5.72,15.11,2,19.38,6.46,5.88,6.2,11.39,12.07,18.48,16.94,13.46,9.24,28.06,15.94,36.39,30.76,14.62,26,9.39,62.11-5.2,87-8.46,14.43-21.8,27.59-39.48,27.9a81.18,81.18,0,0,1,24.62,4.38C3119,1026.46,3131.8,995.83,3135.08,970.65Z"/><path class="cls-7" d="M3110.72,1046.81a75.18,75.18,0,0,0-14.5-6.81,49.2,49.2,0,0,1-24.62,7c23.75.52,50.3,14.45,56.25,39.09,4.92,20.39-9.55,46.47-31.87,47.33-7.31.28-7.35,11.68,0,11.39,22.13-.85,39.27-19.45,43.2-40.53C3143.59,1080.7,3130.62,1059,3110.72,1046.81Z"/><path class="cls-7" d="M3071.6,1035.62V1047a49.2,49.2,0,0,0,24.62-7A81.18,81.18,0,0,0,3071.6,1035.62Z"/><path class="cls-7" d="M3164.8,1117c-15.63-5.37-45.63-10-53.51,9.47-2.75,6.8,8.27,9.76,11,3,2.39-5.9,13.36-5.51,18.4-5.4a70.05,70.05,0,0,1,22.45,4.38,72.81,72.81,0,0,1,36,28.71c16.47,25.85,12.57,61.79-7.9,84.38-6.64,7.33-14.86,12.62-23.2,17.79q-15,9.3-30,18.57c-6.22,3.85-.51,13.72,5.75,9.84q15.39-9.51,30.77-19c8.67-5.39,17.32-11,24.3-18.59,12.38-13.4,19.65-30.69,21.58-48.75C3224.46,1163.65,3200.25,1129.23,3164.8,1117Z"/><path class="cls-7" d="M3147.81,1271.94c-5.64-4.59-13.75,3.43-8.06,8.06,16.12,13.14,39.32,27.21,34.82,51.36-4,21.55-25.29,32.63-45.89,30-7.26-.91-7.19,10.49,0,11.4,24.89,3.15,50.83-11.68,56.58-37,2.72-11.94.88-24.74-6.12-34.91C3171.08,1289.21,3158.7,1280.81,3147.81,1271.94Z"/><path class="cls-7" d="M2524,843.76c-39.7-12.4-85.5-1.23-115.11,28-16.79,16.58-27,38.2-35.86,59.72-4.86,11.78-9.57,23.66-11.35,36.36a99.77,99.77,0,0,0,1,32.84c4.83,25.18,18.59,48.19,36.13,66.6,5.07,5.32,13.12-2.75,8.06-8.06-14.29-15-25.61-33-31.2-53.09a92.89,92.89,0,0,1-3.42-30.48c.68-11.36,4.2-22.16,8.33-32.68,8-20.26,16.84-41.3,31.34-57.84a103,103,0,0,1,46.65-30.06,104.36,104.36,0,0,1,62.38-.33C2527.94,856.94,2530.94,845.94,2524,843.76Z"/><path class="cls-7" d="M2496,1324.38c-10-1.14-20-2.22-30-3.44-8.35-1-16.25-2.79-23.16-7.82-12.36-9-19.52-24.1-22.29-38.79-5.38-28.54,6.19-59.14,29-76.93,5.78-4.5-2.34-12.52-8.06-8.06-20.54,16-32.34,41.38-33.52,67.17-1.18,25.94,9.61,56.11,33.46,69.21,7.63,4.19,16,5.59,24.52,6.61,10,1.2,20,2.3,30,3.45C2503.25,1336.62,2503.19,1325.21,2496,1324.38Z"/><path class="cls-7" d="M2538.57,1428.62c-17.18-1.81-35.07-2.43-51.93-6.4-14.7-3.46-26.79-11.49-33-25.62-11.62-26.57,4.85-55.93,30.88-65.65,6.81-2.55,3.86-13.57-3-11-23.92,8.94-42.84,31.1-43.13,57.38a57.91,57.91,0,0,0,11.59,35.28c8.35,11,20.32,17.47,33.62,20.6,17.85,4.19,36.77,4.88,55,6.8C2545.86,1440.78,2545.81,1429.38,2538.57,1428.62Z"/><path class="cls-14" d="M2509.39,1099.44l-4.86,2a37,37,0,0,0,4.87,4.16A33.47,33.47,0,0,0,2509.39,1099.44Z"/><path class="cls-14" d="M2590.07,1005.87c1.45,1,2.95,1.86,4.46,2.7-.05-1.74-.11-3.46-.17-5.16Z"/><path class="cls-14" d="M2688.43,956.28a62.72,62.72,0,0,1-33,48.66c-19.69,10.21-44.15,8.14-62.47-4a2.87,2.87,0,0,0-4.29,2.46c1,28.09,2.58,63-17.4,85.55-15,16.9-44.93,26.53-62.7,8.46-1.62-1.64-5.11-.52-4.87,2,1.32,13.64-7,25.86-18.39,32.73-12.38,7.48-27.37,9.51-41.54,10.62-25.71,2-59.45-3-68.2-31.76-1.06-3.5-6.56-2-5.49,1.52,9.76,32.11,46.56,38.32,75.51,35.79,15.56-1.35,32.21-3.82,45.31-13,9.9-6.94,17.42-17.69,18.51-29.73a37,37,0,0,1-4.87-4.16l4.86-2a33.47,33.47,0,0,1,0,6.17c19.15,13.79,47.06,6,63.22-9.82,22.56-22.06,22.85-57.45,21.91-87.22-1.51-.84-3-1.74-4.46-2.7l4.29-2.46c.06,1.7.12,3.42.17,5.16,19.44,10.76,43.88,11.61,63.77,1.29,20.14-10.45,33.52-31.19,35.83-53.58C2694.5,952.63,2688.8,952.66,2688.43,956.28Z"/><path class="cls-14" d="M2794.8,997.2a42.31,42.31,0,0,0-1.4,4.79,31.15,31.15,0,0,0,4.91-1.28Z"/><path class="cls-14" d="M2849.8,1045.79c-.54,1.84-1,3.71-1.47,5.59A42.2,42.2,0,0,0,2854,1049Z"/><path class="cls-14" d="M2929.62,1105.1c-3.16,10.94-12.27,18.89-23.06,22.07-11.57,3.41-23.59.55-33.28-6.4-23.38-16.76-25.5-47.92-18-73.46.74-2.51-2.05-4.3-4.18-3.22-13.47,6.82-30.93,4.83-42-5.74-10.57-10.12-13.75-26-8.84-39.63a2.88,2.88,0,0,0-3.51-3.51c-14.2,5-29.64-2.89-37.15-15.31-9.22-15.24-6.48-34.53-.55-50.4,1.28-3.44-4.22-4.92-5.5-1.51-6.72,18-9.12,40.55,2.65,57.1,8.33,11.73,22.89,19.44,37.16,16.9a42.31,42.31,0,0,1,1.4-4.79l3.51,3.51a31.15,31.15,0,0,1-4.91,1.28c-3.37,14.75,1.29,31.22,12.77,41.36s27.9,12.86,42.16,8c.44-1.88.93-3.75,1.47-5.59L2854,1049a42.2,42.2,0,0,1-5.65,2.37c-6.47,27.79-1.42,59.71,24.5,75.93,22,13.76,54.64,5.79,62.29-20.7C2936.14,1103.08,2930.64,1101.58,2929.62,1105.1Z"/><path class="cls-14" d="M2555,948.66c3.74,18.37.49,38.56-10.35,54.08-4.82,6.89-11.61,13.08-20,15.11-9.08,2.21-18.27-1.13-24.49-7.91-2.19-2.39-6.13.7-4.47,3.46,12.06,20-7.19,40.68-23.52,50.43-7.92,4.73-18.42,9-27.66,5.76-8-2.79-11.64-11.59-20.54-12.7-3.63-.46-3.6,5.25,0,5.7,5.16.64,8.57,6.25,12.5,9.13a24.6,24.6,0,0,0,13.67,4.61c10.86.44,21.56-4.89,30.16-11,14.18-10.15,27.73-27.17,24.25-44.73a31.51,31.51,0,0,1-8.42-6.58l4.48-3.45a31.38,31.38,0,0,1,3.94,10c13.93,7.41,31.16,2,41.77-10.71,14.26-17.14,18.52-41.19,14.14-62.69C2559.73,943.55,2554.24,945.07,2555,948.66Z"/><path class="cls-14" d="M2496.13,1014a31.51,31.51,0,0,0,8.42,6.58,31.38,31.38,0,0,0-3.94-10Z"/><path class="cls-14" d="M2649.39,886.53c3,19.63-6.25,39.57-21.44,51.89-20,16.23-44.25,12-67.42,6.22-3.56-.89-5.08,4.6-1.51,5.49,14.37,3.58,29.26,7.21,44.17,5.18A58.07,58.07,0,0,0,2632,942.45c16.87-13.77,26.19-35.78,22.91-57.44C2654.34,881.4,2648.84,882.93,2649.39,886.53Z"/><path class="cls-14" d="M2520.41,1388.72a8.57,8.57,0,0,0-7.71,3.4,31.76,31.76,0,0,0,7,2.19C2519.9,1392.45,2520.16,1390.58,2520.41,1388.72Z"/><path class="cls-14" d="M2564.06,1420.86c-8.94,7.88-21.62,3.87-30.24-2.3a107.73,107.73,0,0,1-12.33-10.66c-2-2-4.46-4.24-5.24-7.05-.84-3,.61-6.81,4.16-6.43,3.18.33,3.9-5,.76-5.6-14.18-2.72-24.26-16.16-23.84-30.48a36.49,36.49,0,0,1,7.24-20.16,40.77,40.77,0,0,1,8.53-8.62c2.5-1.86,5.54-3.12,7.82-5.25,3.77-3.54,3.41-8.51-.24-11.94-4.5-4.23-10.4-6.77-15-11.06a70.25,70.25,0,0,1-19.39-32.61,67.46,67.46,0,0,1,1.92-42.26c1.33-3.43-4.18-4.91-5.49-1.52-9.49,24.57-3.87,53.19,12.52,73.5a68.7,68.7,0,0,0,14.31,13.3c2.58,1.79,7.58,3.49,7.42,6.83-.16,3.16-6.6,5.84-9.14,7.93-10.72,8.81-17.64,22.92-16,36.92a36.47,36.47,0,0,0,20.84,28.72,8.57,8.57,0,0,1,7.71-3.4c-.25,1.86-.51,3.73-.76,5.59a31.76,31.76,0,0,1-7-2.19,11.33,11.33,0,0,0-2.39,8.06c.81,7.93,9.34,14.08,14.92,18.82,11.8,10,29.44,17.72,42.86,5.89C2570.85,1422.47,2566.81,1418.45,2564.06,1420.86Z"/><path class="cls-14" d="M2784.42,775.77l-5.49,1.52A2.85,2.85,0,0,0,2784.42,775.77Z"/><path class="cls-14" d="M2778.93,777.29l5.49-1.52a114.7,114.7,0,0,0-5.84-13.23A49.1,49.1,0,0,0,2778.93,777.29Z"/><path class="cls-14" d="M2778.58,762.54c-10.36-19.95-26.92-37.21-48.92-43.54-23.77-6.83-51.9.92-65.62,22.25-2,3.09,2.94,6,4.92,2.87,12.61-19.6,39-26,60.49-19.23,24.09,7.53,41,29.49,49.48,52.4A49.1,49.1,0,0,1,2778.58,762.54Z"/><path class="cls-14" d="M2975.16,896a50.56,50.56,0,0,0,8.85-4.79c-3.16-.36-6.36-.61-9.61-.8C2974.65,892.3,2974.91,894.17,2975.16,896Z"/><path class="cls-14" d="M3021.48,1024.82c-1.49,1-3,1.9-4.58,2.76v-4.92q2.32,1,4.58,2.16c19.57-12.83,31.92-35.36,32.69-58.8.83-25.51-13.43-49.47-34.59-63.16-11.08-7.17-23-10.21-35.57-11.62a50.56,50.56,0,0,1-8.85,4.79c-.25-1.86-.51-3.73-.76-5.59,3.25.19,6.45.44,9.61.8,19.06-12.88,28.5-37.76,23.88-60.48-5.62-27.67-33-43.09-59.94-40.08a55.91,55.91,0,0,0-32.9,15c.08,2.46.09,4.93,0,7.38l-5.31-1.44a51.89,51.89,0,0,1,5.29-5.94c-.93-30.62-12.77-61.81-39-79.4-25.74-17.27-61.54-17.82-83.3,6.17a55.34,55.34,0,0,0-14.19,30.07,114.7,114.7,0,0,1,5.84,13.23c-5-28.22,19.54-54.36,47-56.34,29.73-2.15,56.15,17.58,68.41,43.66,7.31,15.56,10,32.9,9.58,50-.09,3.1,3.73,3.51,5.31,1.44,14.51-19.14,43.52-23.58,64.42-12.94,22.22,11.31,28.91,37.51,20.83,60-4.53,12.63-13.79,23.7-26.3,28.94-2.87,1.2-2.64,5.4.76,5.6,16.82,1,32,3.93,45.84,14.08a70.11,70.11,0,0,1,25.72,36c8.6,29.06-5.51,61.93-31.94,76.39-1.72.94-2,4.06,0,4.92,23.94,10.3,41.86,32.85,45.62,58.79,3.94,27.25-8.73,55.72-31,71.68-2.95,2.12-.11,7.06,2.88,4.92,23.78-17,37.55-46.68,33.91-75.92C3062.14,1060.65,3045.08,1036.85,3021.48,1024.82Z"/><path class="cls-14" d="M2909.76,811.64l5.31,1.44c.07-2.45.06-4.92,0-7.38A51.89,51.89,0,0,0,2909.76,811.64Z"/><path class="cls-14" d="M3016.9,1027.58c1.57-.86,3.09-1.79,4.58-2.76q-2.25-1.15-4.58-2.16Z"/><path class="cls-14" d="M2971.4,1048.6c-3.25-1.68-6.14,3.23-2.88,4.92,16.27,8.38,35.52,22.13,34.29,42.73-.6,10.18-5.22,22.62-11.74,30.55-3.09,3.76-7.33,6.81-12.4,6.44-4.34-.32-9.15-2.84-9.52-7.62-.29-3.63-6-3.66-5.7,0,.77,9.89,11.49,15.22,20.59,12.79,12.38-3.31,18.23-18.09,21.81-29,4.28-13.07,3.25-26.19-4.94-37.47C2993.45,1061.64,2982.56,1054.34,2971.4,1048.6Z"/><path class="cls-14" d="M3101.65,1279.47c-1.44,1.7-2.89,3.39-4.38,5l-2-4.87a38,38,0,0,1,6.39-.18,220.8,220.8,0,0,0,23-32.75c7.3-12.76,14.59-27.18,14.24-42.27-.56-24-24.7-41.9-47.89-35.52-3.53,1-2,6.47,1.52,5.49a32.77,32.77,0,0,1,29.08,6.46c9.54,7.7,13,19.39,11,31.32-2.11,13-8.87,25.09-15.61,36.22a214.27,214.27,0,0,1-23.82,32.07c-1.46,1.63-.63,5.17,2,4.86,22.26-2.58,44.73,17.42,42.41,40.36-2.15,21.35-25.48,37.25-46.08,32.44-3.57-.83-5.1,4.67-1.52,5.5,23.82,5.56,50.09-12.1,53.15-36.63C3146.22,1303,3125.1,1280.69,3101.65,1279.47Z"/><path class="cls-14" d="M3095.26,1279.65l2,4.87c1.49-1.66,2.94-3.35,4.38-5A38,38,0,0,0,3095.26,1279.65Z"/><path class="cls-14" d="M2608.47,851.1c-6.22,7-12.93,14.93-22,18.31-7.76,2.9-17,2-22.5-4.66-1.65-2-4.81-.27-4.86,2-.65,30-28.87,56.15-58.92,54.14-6.69-.45-13.39-1.1-16.77,5.91-3.48,7.19-4.21,16.26-6.41,23.93-4.66,16.29-12.29,33.16-27.69,41.88-14.34,8.12-36.43,4.48-41.25-13.32-1-3.54-6.46-2-5.49,1.51,3.82,14.11,18.46,22.66,32.67,21.91,16.19-.85,29.61-12.81,37.47-26.23,5-8.58,8.18-18.14,10.75-27.7,1.24-4.63,2.33-9.3,3.46-13.95.49-2,.81-4.69,2-6.41,2.33-3.23,6.5-2.22,9.81-1.95,15.8,1.3,31.14-4.33,43.28-14.33a61.84,61.84,0,0,0,22.27-39.41,20.54,20.54,0,0,1-4.4-4l4.87-2a56.48,56.48,0,0,1-.47,6c6,4.06,14,4.8,21.09,3,11.31-2.91,19.63-12.17,27.06-20.58C2614.93,852.4,2610.91,848.35,2608.47,851.1Z"/><path class="cls-14" d="M2560,868.78a20.54,20.54,0,0,0,4.4,4,56.48,56.48,0,0,0,.47-6Z"/><path class="cls-14" d="M2841.8,952a36.33,36.33,0,0,0-6.93,8,35.38,35.38,0,0,0,10.38-3.56Z"/><path class="cls-14" d="M2871.35,1010.34c-13.49,2.49-28.18-4.59-34.09-17.13s-1.83-28.22,8.57-37.17c2.54-2.18-.7-5.94-3.45-4.48-11.75,6.24-27.29,3.82-36.19-6.26-9.78-11.07-9.5-27.48-6.81-41.12.71-3.58-4.78-5.11-5.49-1.51-3.18,16.1-3,35.15,9.21,47.67,8.25,8.44,20.44,11.74,31.77,9.7a36.33,36.33,0,0,1,6.93-8l3.45,4.47a35.38,35.38,0,0,1-10.38,3.56c-6.74,10.6-8.11,24.5-2.53,36.05,7.21,14.9,24.54,22.7,40.52,19.74C2876.47,1015.17,2874.94,1009.67,2871.35,1010.34Z"/><path class="cls-14" d="M2500.38,1182.36a68.49,68.49,0,0,1-49.53,14c-3.65-.39-3.62,5.31,0,5.7a73.18,73.18,0,0,0,52.4-14.78C2506.12,1185.08,2503.28,1180.12,2500.38,1182.36Z"/><path class="cls-15" d="M2731.17,789.77c-32.42-14.41-66.86-15.39-104.27-10.67-22.75,2.82-52,5.4-71.58,18.51a70.59,70.59,0,0,0-9.82,8c44.86-6.93,119.47-15.27,171.65,5.15,72.51,28.39,192.26,96.2,216.79,187.89a136.79,136.79,0,0,0-32.33-85.19C2837.81,837.91,2731.17,789.77,2731.17,789.77Z"/><polygon class="cls-15" points="731.16 1997.76 714.3 1963.6 697.44 1997.76 659.74 2003.24 687.02 2029.83 680.58 2067.37 714.3 2049.65 748.02 2067.37 741.58 2029.83 768.86 2003.24 731.16 1997.76"/><path class="cls-16" d="M1182.06,2341.8q-20.44-2.76-43.14-5C950.62,2318,793,2422,768.25,2491.39c-10.18,28.48,4.22,39.93,27.09,43.92,32.86,5.77,83.29-3.82,103.74-.31,50,8.57-15.37,106,57.14,114.31,40.25,4.59,89.84-19.44,122.64-40.95,50.88-33.36,97.91-87.05,155.19-109,98.14-37.66,180.39,7.92,180.39,7.92C1399,2406.08,1338.18,2362.75,1182.06,2341.8Z"/><path class="cls-16" d="M1249.92,1532C1182.35,1433,1143.3,1358.11,989,1387.44q-16.32,3.11-34.43,7.8S928.8,1421,938.7,1470.56s80.29,202.2,150.67,243.81,147.66,138.75,172.44,206.15c16.17,44,42.06,213.95,65,334.87,12.18,64.26,23.54,114.68,32.14,125,5.11,6.14,11,4.84,16.67-3.6,6.12-9.08,12.06-26.43,16.63-51.72,11.78-65.29,14.58-183.49-11.5-349C1335.14,1686.64,1322.26,1638.06,1249.92,1532Z"/><path class="cls-17" d="M1284.93,1837.45c-78.92-121-219.59-188.72-236.76-223-15.18-30.36-76.71-154.76-59.17-227q-16.32,3.11-34.43,7.8S928.8,1421,938.7,1470.56s80.29,202.2,150.67,243.81,147.66,138.75,172.44,206.15c16.17,44,42.06,213.95,65,334.87l48.81,121.4L1405,2449.9s-4.31-51.29-12.76-124.83C1374.46,2171,1338.35,1919.32,1284.93,1837.45Z"/><path class="cls-16" d="M1314.42,2035.78c-11.58-44.28-24.57-88.66-45.37-129.61-14.62-28.81-34.13-73.46-65.91-86.88-26.87-11.36-59.81-.64-87-1.78-27.92-1.16-55.61-8-82.27-15.91-36.83-11-89-21-118.44,6.58a62.2,62.2,0,0,0-14.33,20.6c-38.74,87.77,31.62,147.33,68.66,217.5,20.22,38.35,33.71,80.1,44.3,122C1061.2,2355,1385,2459.85,1390.57,2461.65h0l0,0c-6.26-53.24-14.1-106.35-22.58-159.27C1353.78,2212.94,1337.4,2123.47,1314.42,2035.78Z"/><path class="cls-17" d="M995,1989.51c-44.51-41.48-67.86-121.75-79.6-181.33a62.2,62.2,0,0,0-14.33,20.6c-38.74,87.77,31.62,147.33,68.66,217.5,20.22,38.35,33.71,80.1,44.3,122C1061.2,2355,1385,2459.85,1390.57,2461.65h0c-3.6-2.79-234.48-180.61-274.21-219C1076.38,2203.88,1071.21,2060.53,995,1989.51Z"/><g class="cls-18"><path class="cls-3" d="M1225.15,1863.26c-49.48-37.5-62.9-18.61-164.07-26.19-55.15-4.14,36.23,81.63,85.72,119.13s57.72,114.77,88.7,73.89S1274.64,1900.76,1225.15,1863.26Z"/></g><g class="cls-18"><path class="cls-3" d="M1020,2541.49c-34.55,14.05-76.77,46.51-68.77,66.2s52.25,5.93,86.81-8.11,76.85-60.74,68.85-80.43S1054.53,2527.45,1020,2541.49Z"/></g><path class="cls-3" d="M1236.59,2161.24c-32.55-52.52-72-106.6-117.18-160.73-76.94-92.14-144.91-153.34-145.59-154a3.42,3.42,0,1,0-4.56,5.09c.67.61,68.34,61.54,145,153.33,45,53.87,84.21,107.68,116.58,159.92,40.42,65.22,70.21,128.16,88.54,187.06a3.41,3.41,0,0,0,3.26,2.41,3.29,3.29,0,0,0,1-.16,3.42,3.42,0,0,0,2.25-4.28C1307.37,2290.46,1277.33,2227,1236.59,2161.24Z"/><path class="cls-3" d="M1083.81,1832.5a3.43,3.43,0,0,0-2,4.4c.32.86,32,87.34,30,163.1a3.42,3.42,0,0,0,3.33,3.51h.09a3.42,3.42,0,0,0,3.42-3.33c2.05-77.1-30.07-164.78-30.4-165.66A3.42,3.42,0,0,0,1083.81,1832.5Z"/><path class="cls-3" d="M1180.79,1932.41a3.42,3.42,0,0,0-6.64,1.65c.29,1.13,28.11,114.15,14.5,165.3a3.42,3.42,0,0,0,2.42,4.19,3.37,3.37,0,0,0,.88.11,3.42,3.42,0,0,0,3.31-2.54c5.92-22.27,5.28-57.48-1.92-104.63C1188,1961.56,1180.86,1932.69,1180.79,1932.41Z"/><path class="cls-3" d="M1264.77,2051.12a3.42,3.42,0,1,0-6.62,1.71c.22.87,22.08,87.92-3.69,147.42a3.42,3.42,0,0,0,6.28,2.72c7.72-17.84,16.1-49.56,12.15-99.44A338,338,0,0,0,1264.77,2051.12Z"/><path class="cls-3" d="M1066,1941.74c-.6-.29-60.56-29.3-124.51-39.88a3.42,3.42,0,1,0-1.11,6.75c62.93,10.41,122,39,122.62,39.28a3.39,3.39,0,0,0,1.5.35,3.42,3.42,0,0,0,1.5-6.5Z"/><path class="cls-3" d="M1151.53,2041c-4.39-1.47-107.91-35.88-161-33a3.42,3.42,0,0,0,.38,6.83c21.36-1.16,55.49,4.1,98.71,15.21,32.81,8.44,59.52,17.36,59.78,17.44a3.46,3.46,0,0,0,1.09.18,3.42,3.42,0,0,0,1.09-6.66Z"/><path class="cls-3" d="M1228.9,2150.94c-4.37-1.91-107.67-46.87-162.15-51.69a3.42,3.42,0,0,0-.6,6.81c22,2,56.61,11.39,100.08,27.31,33,12.08,59.66,23.72,59.93,23.84a3.46,3.46,0,0,0,1.37.28,3.42,3.42,0,0,0,1.37-6.55Z"/><path class="cls-3" d="M1293.77,2271.87c-5.09-2.33-125.08-57.16-148.29-63a3.42,3.42,0,0,0-1.66,6.64c22.6,5.65,145.87,62,147.11,62.54a3.42,3.42,0,1,0,2.84-6.22Z"/><path class="cls-17" d="M1138.92,2336.79C950.62,2318,793,2422,768.25,2491.39c-10.18,28.48,4.22,39.93,27.09,43.92,26.83-37.32,92.47-118.91,162.87-134.57,91.93-20.41,264.55-11.23,339.11,26.58s93.25,34.33,93.25,34.33-108.35-68.48-208.51-119.85Q1161.62,2339,1138.92,2336.79Z"/><path class="cls-3" d="M1326,2453.3A434.71,434.71,0,0,0,1169.73,2424a478.82,478.82,0,0,0-129.92,18.13c-73.71,20.64-121.39,52.1-121.86,52.41a3.42,3.42,0,0,0,1.9,6.27,3.38,3.38,0,0,0,1.89-.58c.47-.31,47.42-31.25,120.15-51.58a473.08,473.08,0,0,1,128-17.81,427.85,427.85,0,0,1,153.66,28.82,3.42,3.42,0,1,0,2.47-6.38Z"/><path class="cls-3" d="M1007.71,2453.45A224.67,224.67,0,0,0,978,2496.94c-17.91,34.14-23,66.82-14.65,94.49a3.41,3.41,0,0,0,3.27,2.43,3.32,3.32,0,0,0,1-.14,3.42,3.42,0,0,0,2.29-4.26c-18.9-62.89,42.22-130.71,42.84-131.39a3.42,3.42,0,0,0-5-4.62Z"/><path class="cls-3" d="M1102.1,2429.17a254.61,254.61,0,0,0-33.78,35c-15.71,19.6-34.88,49.79-37,82.35a3.42,3.42,0,0,0,3.19,3.63h.23a3.41,3.41,0,0,0,3.4-3.2c3.85-59.08,67.64-111.93,68.29-112.46a3.42,3.42,0,1,0-4.33-5.29Z"/><path class="cls-3" d="M1192.87,2425.49a174.15,174.15,0,0,0-38.69,21c-25.84,18.68-40.06,41.3-41.12,65.41a3.41,3.41,0,0,0,3.26,3.57h.15a3.42,3.42,0,0,0,3.42-3.27c2.36-53.35,74.56-80,75.29-80.28a3.42,3.42,0,0,0-2.31-6.44Z"/><path class="cls-3" d="M1044,2441.22c-.66-.33-16.41-8.08-47.55-12.91-28.52-4.42-76-7.07-140.05,5.38a3.42,3.42,0,0,0,1.31,6.72c62.88-12.22,109.36-9.69,137.28-5.4,30.23,4.63,45.8,12.25,46,12.33a3.42,3.42,0,0,0,4.59-1.53A3.42,3.42,0,0,0,1044,2441.22Z"/><path class="cls-3" d="M1152,2424c-.67-.43-67.67-43-154-49.92a3.42,3.42,0,1,0-.55,6.81c84.56,6.83,150.19,48.44,150.85,48.86a3.42,3.42,0,0,0,4.72-1A3.42,3.42,0,0,0,1152,2424Z"/><path class="cls-3" d="M1138,2355.11a3.42,3.42,0,0,0-2.74,6.27c73.39,32,106.16,74.29,106.54,74.79a3.42,3.42,0,0,0,2.73,1.35,3.36,3.36,0,0,0,2.06-.69,3.42,3.42,0,0,0,.66-4.79C1245.85,2430.25,1213.17,2387.91,1138,2355.11Z"/><path class="cls-3" d="M1158.35,1574.49c-76.42-94-149.66-145.52-150.39-146a3.42,3.42,0,0,0-3.91,5.61c.72.51,73.17,51.42,149,144.74,44.53,54.8,81.45,113.26,109.74,173.75,35.34,75.57,57.22,154.54,65,234.72a3.42,3.42,0,0,0,3.39,3.09h.34a3.43,3.43,0,0,0,3.07-3.74c-7.9-81-30-160.68-65.66-237C1240.45,1688.67,1203.23,1629.73,1158.35,1574.49Z"/><path class="cls-3" d="M1078.18,1403.22a3.42,3.42,0,1,0-5.79,3.64,506.39,506.39,0,0,1,25.12,46.53c11.71,24.59,26.24,60.47,29,91.75a3.41,3.41,0,0,0,3.4,3.12h.3a3.42,3.42,0,0,0,3.11-3.71c-2.27-26-12.24-57.63-29.64-94.17A512,512,0,0,0,1078.18,1403.22Z"/><path class="cls-3" d="M1165.51,1463.06a3.42,3.42,0,1,0-5.85,3.55c.55.9,54.33,90.56,39.21,171.39a3.41,3.41,0,0,0,2.73,4,3.55,3.55,0,0,0,.64.06,3.42,3.42,0,0,0,3.35-2.79c8.17-43.69-3.17-89.29-14.13-119.85C1179.62,1486.4,1166.08,1464,1165.51,1463.06Z"/><path class="cls-3" d="M1266.28,1596.49a3.42,3.42,0,1,0-6.48,2.18c.32,1,31.84,96.43,7.48,158.49a3.42,3.42,0,1,0,6.36,2.5c10.64-27.1,12.63-62.83,5.91-106.18A384.66,384.66,0,0,0,1266.28,1596.49Z"/><path class="cls-3" d="M1162.19,1580.47c-3.71-2.23-91.59-54.49-155.3-50.28a3.42,3.42,0,1,0,.45,6.82c25.36-1.67,59.52,6.29,98.77,23a482.69,482.69,0,0,1,52.56,26.29,3.38,3.38,0,0,0,1.75.49,3.42,3.42,0,0,0,1.77-6.35Z"/><path class="cls-3" d="M1236.31,1689.27a441.46,441.46,0,0,0-54.77-31.75c-41.82-20.31-76.43-28.3-102.85-23.75a3.42,3.42,0,0,0,1.16,6.74c59.87-10.31,151.6,53.7,152.52,54.35a3.42,3.42,0,1,0,3.94-5.59Z"/><polygon class="cls-15" points="3319.46 688.1 3286.42 755.04 3212.55 765.77 3266 817.88 3253.38 891.46 3319.46 856.72 3385.53 891.46 3372.91 817.88 3426.37 765.77 3352.5 755.04 3319.46 688.1"/><polygon class="cls-9" points="2162.9 1135.85 2140 1089.45 2117.1 1135.85 2065.9 1143.29 2102.95 1179.4 2094.2 1230.4 2140 1206.32 2185.8 1230.4 2177.05 1179.4 2214.11 1143.29 2162.9 1135.85"/><polygon class="cls-9" points="1173.53 506.64 1150.63 460.24 1127.73 506.64 1076.53 514.08 1113.58 550.2 1104.83 601.2 1150.63 577.12 1196.43 601.2 1187.68 550.2 1224.73 514.08 1173.53 506.64"/><polygon class="cls-9" points="2888.77 336.36 2865.87 289.96 2842.97 336.36 2791.77 343.8 2828.82 379.92 2820.07 430.92 2865.87 406.84 2911.67 430.92 2902.93 379.92 2939.98 343.8 2888.77 336.36"/><polygon class="cls-4" points="3974.86 1741.12 3954.55 1699.98 3934.24 1741.12 3888.84 1747.72 3921.69 1779.75 3913.94 1824.97 3954.55 1803.62 3995.16 1824.97 3987.41 1779.75 4020.26 1747.72 3974.86 1741.12"/><polygon class="cls-19" points="1538.73 692.99 1523.43 662 1508.14 692.99 1473.93 697.96 1498.68 722.08 1492.84 756.14 1523.43 740.06 1554.02 756.14 1548.18 722.08 1572.93 697.96 1538.73 692.99"/><polygon class="cls-15" points="2227.22 1371.45 2211.92 1340.46 2196.63 1371.45 2162.42 1376.42 2187.17 1400.55 2181.33 1434.61 2211.92 1418.53 2242.51 1434.61 2236.67 1400.55 2261.42 1376.42 2227.22 1371.45"/><polygon class="cls-4" points="2574.93 532.42 2559.64 501.43 2544.34 532.42 2510.14 537.39 2534.89 561.52 2529.04 595.58 2559.64 579.5 2590.22 595.58 2584.38 561.52 2609.13 537.39 2574.93 532.42"/><polygon class="cls-4" points="1032.74 1108.07 1006.8 1055.5 980.86 1108.07 922.85 1116.5 964.82 1157.42 954.91 1215.19 1006.8 1187.91 1058.69 1215.19 1048.78 1157.42 1090.76 1116.5 1032.74 1108.07"/><path class="cls-20" d="M3854.84,1093.41H3359.45a58.84,58.84,0,0,0-58.83,58.84v254a58.83,58.83,0,0,0,58.83,58.84h19.22l12.94,22.42,22.3,38.61,22.29-38.61,12.94-22.42h405.7a58.83,58.83,0,0,0,58.83-58.84v-254A58.84,58.84,0,0,0,3854.84,1093.41Z"/><path class="cls-3" d="M3826,1074.17H3330.58a58.83,58.83,0,0,0-58.83,58.83v254a58.83,58.83,0,0,0,58.83,58.83h19.22l12.94,22.42,22.3,38.61,22.29-38.61,12.94-22.42H3826a58.83,58.83,0,0,0,58.83-58.83V1133A58.83,58.83,0,0,0,3826,1074.17Z"/><path class="cls-8" d="M3826,1073H3330.58a60,60,0,0,0-60,60v254a60,60,0,0,0,60,60h18.56l35.9,62.17,35.89-62.17h405a60,60,0,0,0,60-60V1133A60,60,0,0,0,3826,1073Zm57.69,314a57.76,57.76,0,0,1-57.69,57.69H3419.61L3385,1504.63l-34.58-59.89h-19.88a57.76,57.76,0,0,1-57.69-57.69V1133a57.76,57.76,0,0,1,57.69-57.69H3826a57.76,57.76,0,0,1,57.69,57.69Z"/><path class="cls-15" d="M3806.77,1231.25a48.05,48.05,0,1,0-54.58,2.1c-17.72,12.92-29.67,37.36-29.67,65.4q0,1.24,0,2.46h117q0-1.21,0-2.46C3839.55,1269.11,3826.19,1243.48,3806.77,1231.25Z"/><path class="cls-15" d="M3808.74,1231.16a49.19,49.19,0,1,0-58.52,2.25c-17.83,13.77-28.84,38.63-28.84,65.34,0,.84,0,1.66,0,2.49l0,1.11h119.19l0-1.11c0-.83,0-1.65,0-2.49C3840.69,1270.11,3828.49,1244.39,3808.74,1231.16Zm29.66,68.92H3723.67c0-.45,0-.89,0-1.33,0-26.64,11.19-51.35,29.21-64.48l1.35-1-1.41-.9a46.9,46.9,0,1,1,53.28-2.06l-1.32,1,1.4.88c19.89,12.53,32.24,38,32.24,66.54C3838.41,1299.19,3838.41,1299.63,3838.4,1300.08Z"/><rect class="cls-2" x="3330.64" y="1151.7" width="358.47" height="40.73"/><rect class="cls-2" x="3327.92" y="1216.88" width="358.47" height="88.26"/><rect class="cls-2" x="3331.41" y="1337.32" width="520.79" height="23.29"/><path class="cls-20" d="M2334.68,552.06H1878.09a58.81,58.81,0,0,0-58.82,58.82V767.75a58.81,58.81,0,0,0,58.82,58.82h368.73l12,20.86,24.33,42.16,24.34-42.16,12.05-20.86h15.09a58.82,58.82,0,0,0,58.83-58.82V610.88A58.82,58.82,0,0,0,2334.68,552.06Z"/><path class="cls-3" d="M2363.55,528H1907a58.81,58.81,0,0,0-58.82,58.82V743.69A58.81,58.81,0,0,0,1907,802.51h368.73l12,20.86,24.34,42.16,24.33-42.16,12.05-20.86h15.09a58.82,58.82,0,0,0,58.83-58.82V586.82A58.82,58.82,0,0,0,2363.55,528Z"/><path class="cls-8" d="M2363.55,526.86H1907a60,60,0,0,0-60,60V743.69a60,60,0,0,0,60,60H2275l37,64.16,37-64.16h14.43a60,60,0,0,0,60-60V586.82A60,60,0,0,0,2363.55,526.86Zm57.69,216.83a57.75,57.75,0,0,1-57.69,57.68H2347.8l-35.72,61.88-35.73-61.88H1907a57.75,57.75,0,0,1-57.68-57.68V586.82A57.75,57.75,0,0,1,1907,529.14h456.59a57.75,57.75,0,0,1,57.69,57.68Z"/><rect class="cls-2" x="1919.71" y="579.07" width="430.5" height="29.35"/><rect class="cls-15" x="1919.71" y="639.62" width="174.7" height="107.57"/><path class="cls-15" d="M1918.57,748.34h177V638.48h-177Zm2.28-107.58h172.42v105.3H1920.85Z"/><path class="cls-8" d="M2349.61,649.13H2132.18a1.14,1.14,0,1,0,0,2.28h217.43a1.14,1.14,0,0,0,0-2.28Z"/><path class="cls-8" d="M2349.61,685.75H2132.18a1.14,1.14,0,1,0,0,2.28h217.43a1.14,1.14,0,0,0,0-2.28Z"/><path class="cls-8" d="M2349.61,724.66H2132.18a1.14,1.14,0,1,0,0,2.28h217.43a1.14,1.14,0,0,0,0-2.28Z"/><path class="cls-20" d="M1865.87,978h-597.6a68.78,68.78,0,0,0-68.78,68.79v292.5a68.78,68.78,0,0,0,68.78,68.79H1510l17.62,30.52,27.53,47.67,27.52-47.67,17.62-30.52h265.55a68.79,68.79,0,0,0,68.79-68.79v-292.5A68.78,68.78,0,0,0,1865.87,978Z"/><path class="cls-3" d="M1918.8,953.89H1321.2a68.78,68.78,0,0,0-68.78,68.79v292.5A68.78,68.78,0,0,0,1321.2,1384H1563l17.62,30.52,27.53,47.67,27.52-47.67,17.63-30.52H1918.8a68.79,68.79,0,0,0,68.79-68.79v-292.5A68.79,68.79,0,0,0,1918.8,953.89Z"/><path class="cls-8" d="M1918.8,952.75H1321.2a70,70,0,0,0-69.92,69.93v292.5a70,70,0,0,0,69.92,69.93h241.1l45.81,79.33,45.8-79.33H1918.8a70,70,0,0,0,69.93-69.93v-292.5A70,70,0,0,0,1918.8,952.75Zm67.65,362.43a67.72,67.72,0,0,1-67.65,67.65H1652.6l-44.49,77.05-44.49-77.05H1321.2a67.72,67.72,0,0,1-67.64-67.65v-292.5A67.71,67.71,0,0,1,1321.2,955h597.6a67.72,67.72,0,0,1,67.65,67.65Z"/><path class="cls-4" d="M1452.63,1156.11a70.39,70.39,0,1,0-80,3.08c-26,18.91-43.47,54.73-43.47,95.79,0,1.21,0,2.41,0,3.61h171.33c0-1.2.05-2.4.05-3.61C1500.64,1211.56,1481.06,1174,1452.63,1156.11Z"/><rect class="cls-2" x="1539.31" y="1053.06" width="376.44" height="72.14"/><rect class="cls-8" x="1536.74" y="1152.58" width="382.9" height="2.28"/><rect class="cls-8" x="1536.74" y="1185.16" width="382.9" height="2.28"/><rect class="cls-8" x="1536.74" y="1218.19" width="382.9" height="2.28"/><rect class="cls-8" x="1536.74" y="1251.22" width="382.9" height="2.28"/><rect class="cls-15" x="1740.41" y="1285.69" width="175.97" height="27.82"/><path class="cls-15" d="M1739.27,1314.66h178.25v-30.11H1739.27Zm2.28-27.83h173.69v25.55H1741.55Z"/><g class="cls-18"><path class="cls-3" d="M1278.1,2010.41c-21.26,0-25.17,46.17-25.17,83.47s27.32,94.07,48.58,94.07,12-51.61,12-88.91S1299.36,2010.41,1278.1,2010.41Z"/></g><g class="cls-18"><path class="cls-3" d="M1141.19,1423.27c-43.14-35-94.6-34.69-113-12s25.39,27.35,68.53,62.39,77.8,104.35,96.21,81.69S1184.33,1458.3,1141.19,1423.27Z"/></g><path class="cls-6" d="M1989.92,1954.31c-35.32-.88-37.09-72.42-37.09-72.42l-20-13.24-.32,11.94,32.45,79.41,88.94-5.42S2025.25,1955.19,1989.92,1954.31Z"/><path class="cls-16" d="M3749.73,1575.31c-10.2-2.42-22.77-3.83-38-4-190.5-2.57-258.71,258.72-293.47,296s-83.66,25.75-105.54,149.3c-13.32,75.24,4.84,193.43,21.1,274.38,4.84,24.13,36.27,30.65,50.25,10.38,14.23-20.66,30.63-39.79,47.51-58.32q11-12.14,22.42-24c35.36-36.86,72.48-72,106.65-110,16.89-18.78,33.63-38.35,46.39-60.25,16.83-28.93,12-55.38,13.75-87.46a185.39,185.39,0,0,1,9.16-48.85c9.47-28.39,23.93-54.37,30.3-83.88C3673.27,1768.31,3867.14,1603.35,3749.73,1575.31Z"/><path class="cls-17" d="M3749.73,1575.31c10.59,36.61-12,75-68.15,145.68-63.61,80.16-89.67,171.34-98.19,193.39s-10.53,106.71-27.55,146.28-129.77,112.24-129.77,112.24l27.92,46.22c35.36-36.86,72.48-72,106.65-110,16.89-18.78,33.63-38.35,46.39-60.25,16.83-28.93,12-55.38,13.75-87.46a185.39,185.39,0,0,1,9.16-48.85c9.47-28.39,23.93-54.37,30.3-83.88C3673.27,1768.31,3867.14,1603.35,3749.73,1575.31Z"/><path class="cls-3" d="M3720,1602.91c-.18.13-19.16,13.21-47.9,39.13a916.79,916.79,0,0,0-109.56,119,1001.05,1001.05,0,0,0-120.86,201.78c-40.44,90-67.94,186.76-81.74,287.55a3.41,3.41,0,0,0,2.92,3.85,3.89,3.89,0,0,0,.47,0,3.44,3.44,0,0,0,3.39-3c13.7-100.08,41-196.13,81.12-285.5a993.65,993.65,0,0,1,119.94-200.35c80.86-104.65,155.35-156.35,156.09-156.86a3.42,3.42,0,1,0-3.87-5.64Z"/><path class="cls-3" d="M3562.62,1990.65c-47,7.24-90.86,36-119.33,58.82a418.16,418.16,0,0,0-51,48.21,3.42,3.42,0,1,0,5.2,4.44,411.18,411.18,0,0,1,50.14-47.4c50.36-40.37,90.87-53.45,116-57.31a3.42,3.42,0,1,0-1-6.76Z"/><path class="cls-3" d="M3593.88,1856.62c-31.08,6.15-65.88,25.54-103.43,57.62a465.52,465.52,0,0,0-47.1,46.33,3.42,3.42,0,0,0,5.21,4.43c.74-.88,75.14-87.52,146.65-101.67a3.42,3.42,0,0,0-1.33-6.71Z"/><path class="cls-3" d="M3706.51,1701.11c-91.1,17.61-163.4,86-164.12,86.68a3.42,3.42,0,0,0,4.73,5c.7-.68,71.61-67.7,160.68-84.91a3.42,3.42,0,0,0-1.29-6.72Z"/><path class="cls-3" d="M3569.73,1657.26a3.41,3.41,0,0,0-4.77.79c-25.29,35.32-37.86,80.21-44,111.65a402.39,402.39,0,0,0-7.24,60.32,3.43,3.43,0,0,0,3.34,3.5h.08a3.43,3.43,0,0,0,3.42-3.34c0-1,2.85-102.4,49.92-168.15A3.42,3.42,0,0,0,3569.73,1657.26Z"/><path class="cls-3" d="M3460.53,1833.19a3.43,3.43,0,0,0-4.61,1.46c-13.52,26.08-24,65.57-31.07,117.35-5.27,38.45-6.61,69.72-6.63,70a3.42,3.42,0,0,0,3.28,3.56h.14a3.42,3.42,0,0,0,3.42-3.27c.05-1.24,5.48-123.86,36.93-184.52A3.41,3.41,0,0,0,3460.53,1833.19Z"/><g class="cls-18"><path class="cls-3" d="M3442.43,1896.3c-18.76-10.83-47.77,17.73-71,57.92s-27.14,111.41-8.39,122.24,21.12-57.76,44.33-98S3461.18,1907.13,3442.43,1896.3Z"/></g><path class="cls-16" d="M3867.84,2016.19c-44.3-14.83-117.51,2.69-117.51,2.69-259.39,95.22-342.55,283.69-368.73,381.12-6.16,22.85,17.37,42.58,38.72,32.36a351.43,351.43,0,0,1,132.17-33.91c129.05-7.74,227.16,51.68,238.77,8.48,16.66-62.15-71.25-106.12-75.8-154.62s151.57-69.71,181.89-172.79C3908.19,2042.67,3892.49,2024.42,3867.84,2016.19Z"/><path class="cls-3" d="M3789.13,2078.52c-50.87,21.81-136.56,71.19-255.89,182.63-71.28,66.57-121.5,124.6-122,125.18a3.42,3.42,0,0,0,.36,4.82,3.38,3.38,0,0,0,2.23.83,3.42,3.42,0,0,0,2.59-1.18c.5-.58,50.52-58.38,121.55-124.7,118.57-110.74,203.49-159.71,253.85-181.29a3.42,3.42,0,0,0-2.69-6.29Z"/><path class="cls-3" d="M3738.46,2187c-72.94,6.13-154.29,28.61-155.1,28.84a3.42,3.42,0,0,0,.91,6.71,3.57,3.57,0,0,0,.92-.12c.81-.23,81.53-22.54,153.84-28.61a3.42,3.42,0,0,0-.57-6.82Z"/><path class="cls-3" d="M3818.26,2128.16c-76.79-10.09-135.66,11.93-136.25,12.16a3.42,3.42,0,0,0,1.22,6.61,3.46,3.46,0,0,0,1.22-.22c.57-.22,57.92-21.62,132.92-11.77a3.42,3.42,0,1,0,.89-6.78Z"/><path class="cls-3" d="M3708.51,2053.78c-61.27,51.16-80.91,126.87-81.1,127.63a3.42,3.42,0,0,0,6.63,1.67c.19-.74,19.34-74.36,78.86-124a3.42,3.42,0,0,0-4.39-5.25Z"/><path class="cls-3" d="M3813.75,2025.75c-55.66,22.15-79.72,78.65-80.72,81a3.42,3.42,0,0,0,6.32,2.63c.23-.56,24-56.25,76.93-77.32a3.42,3.42,0,0,0-2.53-6.35Z"/><path class="cls-17" d="M3867.84,2016.19c.33,42.81-10.22,120.37-85.44,152.53-106.5,45.54-114.24,83.32-93.62,106.53s53.25,129.69-128,97.05c0,0-8.54,11.79-8.29,26.15,129.05-7.74,227.16,51.68,238.77,8.48,16.66-62.15-71.25-106.12-75.8-154.62s151.57-69.71,181.89-172.79C3908.19,2042.67,3892.49,2024.42,3867.84,2016.19Z"/><g class="cls-18"><path class="cls-3" d="M3610.19,2241.72s-45.79,52.76-13.93,89.59,64.7,9,75.65-4S3646,2209.86,3610.19,2241.72Z"/></g><path class="cls-3" d="M2376.88,1746.79c-17.57-1-26.7,15-41.49,20.87-9,3.58-14.25-1.09-19.86-7.65-4.79-5.6-10.64-11.14-18.36-11.82-15.11-1.31-17.44,14-21.84,24.56-2,4.81-5.44,8.19-11,6.45-6.09-1.92-5.61-8.79-8.72-13.39a10.09,10.09,0,0,0-8.29-4.77c-4.89,0-8.28,3.68-11.64,6.72l-25.19,22.81c-5.45,4.93,2.63,13,8.06,8.06l20.74-18.79,5.19-4.69a14.82,14.82,0,0,0,2-2.45l-.06-.15-.07,0c-.21.08-.27-.72.07,0q.14,0,.06.15a3.11,3.11,0,0,1,.12.3c1.06,2.83,1.8,5.92,3.31,8.55,5.92,10.28,21.63,12.84,30.21,4.45,4-4,6-9.45,7.66-14.7,1.13-3.53,2.23-10.22,6.38-11.57,6.94-2.27,13.43,9,17.4,13,5.17,5.16,11.72,8.32,19.13,7.66,8.63-.76,16.11-5.49,22.76-10.71,6.87-5.39,14.06-12,23.35-11.49C2384.21,1758.62,2384.18,1747.22,2376.88,1746.79Z"/><path class="cls-3" d="M2246.5,1772.55l.06.15Q2246.64,1772.54,2246.5,1772.55Z"/><path class="cls-3" d="M2385.8,1851.12c-8.38-.69-16.17,2-23.92,4.8-6.66,2.45-14.2,5.4-21.41,3.76-6.88-1.56-9.07-7.82-12.49-13.19-3.16-5-7.32-9.16-13.16-10.72-11.77-3.13-21.86,5.12-33.2,6s-14.86-14.65-23.87-19.26c-5.92-3-12.51-2-18,1.43-5.27,3.28-9.52,8.79-16,9.69-7.23,1-4.15,12,3,11,5.9-.83,10.44-4.59,15-8.14,3.45-2.69,7.65-6.24,11.91-3.12s6.65,8.38,10.11,12.18a22.25,22.25,0,0,0,15,7.61c5.56.4,11.07-1.3,16.28-3,4.89-1.64,10.58-4.32,15.87-3.5,5.66.87,8,7.1,10.59,11.41,3.46,5.73,8,10.3,14.54,12.31,17.65,5.45,32.55-9.19,49.76-7.77C2393.11,1863.12,2393.07,1851.72,2385.8,1851.12Z"/><polygon class="cls-15" points="1375.57 2398.77 1723.88 2761.68 2922.33 2580.93 2532.75 2264.06 1375.57 2398.77"/><polygon class="cls-12" points="1375.57 2479.61 1716.11 2830.04 1723.88 2761.68 1375.57 2398.77 1375.57 2479.61"/><polygon class="cls-12" points="1716.11 2830.04 2917.56 2641.71 2922.33 2580.93 1723.88 2761.68 1716.11 2830.04"/><polygon class="cls-21" points="1723.88 2761.68 2922.33 2580.93 2532.75 2264.06 1723.88 2761.68"/><polygon class="cls-2" points="1500.07 2437.11 1762.32 2708.23 2803.4 2547.53 2519.47 2315.85 1500.07 2437.11"/><polygon class="cls-3" points="2053.69 2565.36 2129.18 2621.29 2443.6 2571.33 2364.31 2520.28 2053.69 2565.36"/><path class="cls-8" d="M2050.79,2564.62l78.09,57.87,317.84-50.5-82.15-52.9Zm78.68,55.47-72.88-54,307.46-44.62,76.42,49.2Z"/><polygon class="cls-3" points="1538.04 2448.54 1689.76 2603.06 2657.83 2452.27 2509.83 2333.12 1538.04 2448.54"/><rect class="cls-8" x="2282.89" y="2352.81" width="83.92" height="4.56" transform="translate(-261.7 290.84) rotate(-6.78)"/><rect class="cls-8" x="2193.2" y="2363.09" width="90.3" height="4.56" transform="translate(-263.52 280.71) rotate(-6.78)"/><rect class="cls-8" x="2107.47" y="2373.5" width="86.34" height="4.56" transform="translate(-265.36 270.43) rotate(-6.78)"/><rect class="cls-8" x="2366.24" y="2343.13" width="80.19" height="4.56" transform="translate(-259.56 299.83) rotate(-6.77)"/><rect class="cls-8" x="1925.48" y="2394.66" width="94.11" height="4.56" transform="translate(-269.1 249.55) rotate(-6.78)"/><rect class="cls-8" x="2581.24" y="2356.34" width="4.56" height="72.22" transform="translate(-900.17 2904.6) rotate(-51.16)"/><rect class="cls-8" x="1830.41" y="2405.85" width="95.74" height="4.56" transform="translate(-271.08 238.51) rotate(-6.78)"/><polygon class="cls-8" points="2445.88 2338.42 2446.42 2342.95 2509.14 2335.5 2553.96 2371.58 2556.82 2368.03 2510.51 2330.74 2445.88 2338.42"/><rect class="cls-8" x="2018.96" y="2383.85" width="89.13" height="4.56" transform="translate(-267.19 260.22) rotate(-6.78)"/><rect class="cls-8" x="1967.78" y="2550.21" width="93.29" height="4.56" transform="translate(-369.06 340.68) rotate(-8.86)"/><rect class="cls-8" x="1727.6" y="2417.6" width="103.51" height="4.56" transform="translate(-273.16 226.91) rotate(-6.78)"/><rect class="cls-8" x="2059.96" y="2535.98" width="91.71" height="4.56" transform="translate(-365.78 354.59) rotate(-8.86)"/><rect class="cls-8" x="2236.44" y="2509.08" width="84.13" height="4.56" transform="translate(-359.58 380.86) rotate(-8.86)"/><polygon class="cls-8" points="2610.22 2416.87 2652.38 2450.81 2564.67 2464.47 2565.37 2468.98 2663.28 2453.73 2613.08 2413.32 2610.22 2416.87"/><rect class="cls-8" x="1868.07" y="2565.15" width="100.86" height="4.56" transform="translate(-372.51 326.09) rotate(-8.86)"/><rect class="cls-8" x="2319.54" y="2495.83" width="87.99" height="4.56" transform="translate(-356.08 393.22) rotate(-8.85)"/><rect class="cls-8" x="2487.35" y="2470.46" width="78.14" height="4.56" transform="translate(-350.24 417.97) rotate(-8.85)"/><rect class="cls-8" x="2406.52" y="2482.77" width="81.78" height="4.56" transform="translate(-353.07 405.97) rotate(-8.85)"/><rect class="cls-8" x="2150.6" y="2522.23" width="86.85" height="4.56" transform="translate(-362.61 368.01) rotate(-8.86)"/><rect class="cls-8" x="1610.81" y="2492.25" width="4.56" height="65.46" transform="translate(-1306.97 1853.53) rotate(-44.48)"/><polygon class="cls-8" points="1627.82 2435.58 1533.16 2446.83 1588.53 2503.22 1591.78 2500.03 1542.92 2450.26 1628.36 2440.11 1627.82 2435.58"/><rect class="cls-8" x="1771.26" y="2580.46" width="97.99" height="4.56" transform="translate(-376.04 311.14) rotate(-8.86)"/><polygon class="cls-8" points="1690.57 2600.63 1637.65 2546.73 1634.4 2549.93 1688.96 2605.49 1772.2 2592.53 1771.49 2588.02 1690.57 2600.63"/><rect class="cls-8" x="1627.74" y="2429.64" width="100.57" height="4.56" transform="translate(-275.29 215.04) rotate(-6.78)"/><rect class="cls-8" x="2322.02" y="2393.74" width="82.86" height="4.56" transform="translate(-302.58 341.97) rotate(-7.78)"/><rect class="cls-8" x="1876.25" y="2453.82" width="94.52" height="4.56" transform="translate(-314.76 282.98) rotate(-7.78)"/><rect class="cls-8" x="2482.61" y="2372.47" width="73.12" height="4.56" transform="translate(-298.26 362.86) rotate(-7.78)"/><rect class="cls-8" x="1774.96" y="2467.13" width="102.2" height="4.56" transform="translate(-317.46 269.91) rotate(-7.78)"/><rect class="cls-8" x="2233.65" y="2405.38" width="89.16" height="4.56" transform="translate(-304.94 330.54) rotate(-7.78)"/><rect class="cls-8" x="2404.14" y="2382.77" width="79.17" height="4.56" transform="translate(-300.35 352.74) rotate(-7.78)"/><rect class="cls-8" x="2149.21" y="2417.17" width="85.25" height="4.56" transform="translate(-307.33 318.96) rotate(-7.78)"/><rect class="cls-8" x="1589.75" y="2493.41" width="87.69" height="4.56" transform="translate(-322.79 244.1) rotate(-7.78)"/><rect class="cls-8" x="2062" y="2428.9" width="88" height="4.56" transform="translate(-309.7 307.45) rotate(-7.78)"/><rect class="cls-8" x="1969.91" y="2441.14" width="92.92" height="4.56" transform="translate(-312.19 295.43) rotate(-7.78)"/><rect class="cls-8" x="1676.59" y="2480.76" width="99.29" height="4.56" transform="translate(-320.22 256.52) rotate(-7.78)"/><rect class="cls-8" x="1819.21" y="2514.06" width="102.2" height="4.56" transform="translate(-323.4 276.33) rotate(-7.78)"/><rect class="cls-8" x="2526.81" y="2418.58" width="85.23" height="4.56" transform="translate(-304.04 370.08) rotate(-7.78)"/><rect class="cls-8" x="1635.63" y="2540.23" width="86.07" height="4.56" transform="translate(-328.71 250.63) rotate(-7.78)"/><rect class="cls-8" x="1720.85" y="2527.69" width="99.29" height="4.56" transform="translate(-326.17 262.94) rotate(-7.78)"/><rect class="cls-8" x="2193.47" y="2464.1" width="85.25" height="4.56" transform="translate(-313.27 325.38) rotate(-7.78)"/><rect class="cls-8" x="2277.91" y="2452.3" width="89.16" height="4.56" transform="translate(-310.88 336.97) rotate(-7.78)"/><rect class="cls-8" x="2106.26" y="2475.82" width="88" height="4.56" transform="translate(-315.65 313.87) rotate(-7.78)"/><rect class="cls-8" x="1920.51" y="2500.75" width="94.52" height="4.56" transform="translate(-320.7 289.4) rotate(-7.78)"/><rect class="cls-8" x="2014.17" y="2488.06" width="92.92" height="4.56" transform="translate(-318.13 301.85) rotate(-7.78)"/><rect class="cls-8" x="2366.28" y="2440.67" width="82.86" height="4.56" transform="translate(-308.52 348.4) rotate(-7.78)"/><rect class="cls-8" x="2448.39" y="2429.7" width="79.17" height="4.56" transform="translate(-306.3 359.16) rotate(-7.78)"/><rect class="cls-8" x="1744.29" y="2526.65" width="4.56" height="73.66" transform="translate(-1282.88 1896.85) rotate(-43.32)"/><rect class="cls-8" x="1650.29" y="2428.13" width="4.56" height="71.35" transform="translate(-1240.1 1805.18) rotate(-43.32)"/><rect class="cls-8" x="1696.89" y="2480.97" width="4.56" height="64.51" transform="translate(-1261.32 1850.67) rotate(-43.32)"/><rect class="cls-8" x="1749.41" y="2416.56" width="4.56" height="69.19" transform="translate(-1204.41 1869.73) rotate(-43.32)"/><rect class="cls-8" x="1795.28" y="2467.53" width="4.56" height="64.51" transform="translate(-1225.28 1914.48) rotate(-43.32)"/><rect class="cls-8" x="1841.9" y="2513.52" width="4.56" height="71.4" transform="translate(-1246.5 1959.98) rotate(-43.32)"/><rect class="cls-8" x="1942.36" y="2500.01" width="4.56" height="69.07" transform="translate(-1209.06 2024.9) rotate(-43.32)"/><rect class="cls-8" x="1851.43" y="2404.66" width="4.56" height="66.96" transform="translate(-1167.68 1936.2) rotate(-43.32)"/><rect class="cls-8" x="1896.53" y="2453.7" width="4.56" height="64.51" transform="translate(-1188.2 1980.19) rotate(-43.32)"/><rect class="cls-8" x="2035.27" y="2487.51" width="4.56" height="66.91" transform="translate(-1174.42 2084.94) rotate(-43.32)"/><rect class="cls-8" x="1990.19" y="2440.91" width="4.56" height="64.51" transform="translate(-1153.91 2040.96) rotate(-43.32)"/><rect class="cls-8" x="1945.79" y="2393.64" width="4.56" height="64.9" transform="translate(-1133.71 1997.66) rotate(-43.32)"/><rect class="cls-8" x="2126.61" y="2475.23" width="4.56" height="64.8" transform="translate(-1140.38 2143.94) rotate(-43.32)"/><rect class="cls-8" x="2082.26" y="2428.34" width="4.56" height="64.51" transform="translate(-1120.19 2100.7) rotate(-43.32)"/><rect class="cls-8" x="2038.56" y="2382.82" width="4.56" height="62.88" transform="translate(-1100.31 2058.09) rotate(-43.32)"/><rect class="cls-8" x="2213.12" y="2463.6" width="4.56" height="62.79" transform="translate(-1108.13 2199.84) rotate(-43.32)"/><rect class="cls-8" x="2169.45" y="2416.43" width="4.56" height="64.51" transform="translate(-1088.26 2157.28) rotate(-43.32)"/><rect class="cls-8" x="2126.41" y="2372.57" width="4.56" height="60.96" transform="matrix(0.73, -0.69, 0.69, 0.73, -1068.68, 2115.35)"/><rect class="cls-8" x="2296.91" y="2452.33" width="4.56" height="60.85" transform="translate(-1076.9 2254.02) rotate(-43.32)"/><rect class="cls-8" x="2253.91" y="2404.9" width="4.56" height="64.51" transform="translate(-1057.34 2212.1) rotate(-43.32)"/><rect class="cls-8" x="2211.51" y="2362.64" width="4.56" height="59.1" transform="translate(-1038.04 2170.75) rotate(-43.32)"/><rect class="cls-8" x="2300.51" y="2352.25" width="4.56" height="57.16" transform="translate(-1006 2228.77) rotate(-43.32)"/><rect class="cls-8" x="2384.55" y="2440.54" width="4.56" height="58.81" transform="translate(-1044.23 2310.66) rotate(-43.32)"/><rect class="cls-8" x="2342.25" y="2392.83" width="4.56" height="64.51" transform="translate(-1024.98 2269.37) rotate(-43.32)"/><rect class="cls-8" x="2424.35" y="2381.62" width="4.56" height="64.51" transform="translate(-994.92 2322.68) rotate(-43.32)"/><rect class="cls-8" x="2466.01" y="2429.58" width="4.56" height="56.92" transform="translate(-1013.87 2363.27) rotate(-43.32)"/><rect class="cls-8" x="2383.23" y="2342.6" width="4.56" height="55.35" transform="translate(-976.21 2282.6) rotate(-43.32)"/><rect class="cls-8" x="2502.79" y="2370.91" width="4.56" height="64.51" transform="translate(-966.2 2373.58) rotate(-43.32)"/><rect class="cls-8" x="2462.27" y="2333.38" width="4.56" height="53.63" transform="translate(-947.76 2334.05) rotate(-43.32)"/><rect class="cls-8" x="2543.83" y="2419.12" width="4.56" height="55.12" transform="translate(-984.87 2413.61) rotate(-43.32)"/><polygon class="cls-20" points="1320.4 1711.13 1375.57 2398.77 2532.75 2264.06 2495.55 1611.06 1320.4 1711.13"/><polygon class="cls-12" points="1376.86 1753.21 1427.23 2333.35 1754.31 2298.19 2228.09 2247.23 2483.99 2219.69 2450.03 1668.8 1376.86 1753.21"/><path class="cls-22" d="M1427.23,2333.35s-21.3-547.94,312.21-609.45l-362.58,29.31Z"/><polygon class="cls-12" points="1300.03 1759.07 1352.89 2448.03 1375.57 2479.61 1375.57 2398.77 1320.4 1711.13 1300.03 1759.07"/><path class="cls-23" d="M2259.21,1966.52c-.22-.13-.48-.29-.7-.45-12.22-7.66-26.83-13.22-39.4-21.16a75.31,75.31,0,0,1-13.28-10.32c-22-22.07.59-29.52-18.33-59.2-.5-.8-1-1.6-1.6-2.42-7.73-11.26-17.26-18.28-26.12-25.78-16.1-13.66-29.93-28.86-26.42-73.88,2.46-31.55,1.93-65-3.38-97.87-1.55-9.71-3.55-19.37-6-28.92-7.62-29.69-19.72-58.36-37.73-84.26-43.49-62.53-112.66-83.71-181.5-74.66a128.08,128.08,0,0,0-30.34,8.05,174.53,174.53,0,0,0-32.9,17.55c-41.87,28.2-75.2,73.68-86.28,110-16.32,53.46-8.75,87.56-44.09,112s-20.83,81.54-58,94.24a71.2,71.2,0,0,0-19.28,10.14,90.81,90.81,0,0,0-23.14,25.42,113.57,113.57,0,0,0-16,44.7c-2.85,22,1.89,45.12-9.41,65.15a79.68,79.68,0,0,1-4.43,7c-7.77,11.12-18.07,20.56-28.7,28.84-.16.11-.32.25-.5.38-9.57,7.41-11.83,22.78-9.85,34,4.11,23.14,28.89,31.5,49.49,32.85,34.88,2.28,67.07,3.69,92.78-17.57,20.38-16.85,43.29-11.08,64.7-26.56,25.21-18.24,47.19-77.24,65.58-102.86,29.89-41.67-70.66-137.71,41.24-178.6s113-162.63,113-162.63,40.49,26.85,63.81,65.33a118.78,118.78,0,0,1,12.31,27c.61,2,1.16,4,1.62,6,12.7,55.28-28,121.07-31.14,183.46-1.12,21.82,24.09,95.61,69.34,143.11,23.76,24.94,97.3,43,131,35.95a4.86,4.86,0,0,1,.55-.11c2.78-.59,14-2.64,27.62-5.24C2282.08,2038.06,2292.15,1987.45,2259.21,1966.52Z"/><path class="cls-23" d="M2264.31,1982.64a50.12,50.12,0,0,1-28.61-16.32c-8.11-9.21-11.46-20.37-12.06-32.42-.65-13.07.2-26.6-5.83-38.65-4.88-9.76-13.89-16.36-22.91-22-8.85-5.53-18.9-10.51-25.2-19.13-7.22-9.89-7.54-22.61-6.75-34.35.89-13.36,3.25-26.55,3.06-40a180.88,180.88,0,0,0-5.87-42c-8.07-31.65-22.89-61.13-37.65-90.09-3.33-6.53-13.17-.77-9.84,5.76,13.52,26.53,27,53.38,35.1,82.16a172.54,172.54,0,0,1,6.87,44.21c.18,13.43-2.18,26.61-3.07,40-.86,12.75-.05,26.22,6.61,37.48,5.64,9.53,14.81,15.91,24.05,21.6,8.74,5.37,18.78,10.54,24.32,19.56,7.35,12,4.78,27.18,6.06,40.53,2.55,26.65,21.92,49.69,48.69,54.7C2268.45,1995,2271.52,1984,2264.31,1982.64Z"/><path class="cls-23" d="M1864.42,1500.15c-41.38,9.33-78,35-102.3,69.56a166.86,166.86,0,0,0-25.65,57.13c-5.07,21.15-7.15,43.1-14.49,63.67-3.31,9.27-8,18.28-14.57,25.64-6.79,7.56-15.29,12.94-24.07,17.89-16.7,9.41-36.06,18.12-45.38,36-9.45,18.09-6,38.87-7.82,58.41-.89,9.32-3.69,18.68-11.14,24.87-4.64,3.85-10.37,6.24-15.51,9.3a67.65,67.65,0,0,0-13,10c-18.43,18.32-23.83,44-17.83,68.75,3.17,13.1,5.93,25.34,2.81,38.77a63,63,0,0,1-19.14,32.56c-5.44,5,2.64,13,8.06,8.06,16.37-14.89,25.65-37.46,23.81-59.61-1-12.32-6.19-23.93-6.83-36.26a58.15,58.15,0,0,1,29.25-53.25c9.65-5.54,19.21-10.47,24.77-20.62,9.54-17.4,5.57-38.42,7.52-57.34,1-9.69,4-19,10.68-26.26,6.25-6.86,14.21-11.7,22.22-16.21,17.53-9.87,35.06-18.76,46.59-36,12-17.86,16-39.68,19.94-60.43s8.18-41.23,18-60.19c21.55-41.71,61.2-73.11,107.09-83.45C1874.6,1509.53,1871.57,1498.54,1864.42,1500.15Z"/><path class="cls-24" d="M1927.15,1554.61c-19.81-10.78-43.09-1.68-59.18,11.66s-26.51,32-34.53,50.87c-8.59,20.25-14.55,41.46-22.19,62.06-8.37,22.58-18.49,44.78-32.59,64.41a151.93,151.93,0,0,1-23.91,26.37c-9,7.75-19.23,13.8-28.08,21.67-15.6,13.87-20.47,32.9-24.81,52.53s-9.27,39.44-28.28,49.66c-9.33,5-19.95,8.32-27.52,16.09-7.2,7.39-10.42,17.46-11.15,27.57-1,13.73,2.95,27,6.33,40.19,3.49,13.59,5.67,27.09,2.78,41-5.06,24.41-21.89,45.55-44.86,55.36-3.36,1.44-.46,6.35,2.88,4.92,19.11-8.16,34.25-24,42.45-43a81.21,81.21,0,0,0,6.6-27.9c.65-12.43-2.43-24.51-5.54-36.43-5.89-22.62-10.66-50.58,13.42-64.24,9.22-5.24,19.52-8.4,27.58-15.54,6.52-5.78,10.89-13.4,14-21.44,7-18.11,7.63-38.25,15.92-55.93,9.8-20.94,32.2-30.39,48.16-45.84,33-32,48.36-76.16,62.66-118.62,7.51-22.29,15.64-45.17,29.93-64.15s42.58-39.66,67-26.35C1927.49,1561.29,1930.37,1556.37,1927.15,1554.61Z"/><path class="cls-24" d="M1951.06,1599.94c-11.21.79-19.09,9.17-23.08,19.17-5.32,13.33-6.53,28.23-10.9,41.93-8.11,25.45-24.39,50.87-52,57.37-3.57.84-2,6.34,1.52,5.5,24.07-5.67,41.28-25.45,50.78-47.41,5.39-12.47,8.76-25.63,11.57-38.89,2.62-12.37,6.41-30.86,22.12-32C1954.69,1605.38,1954.72,1599.68,1951.06,1599.94Z"/><path class="cls-24" d="M2078.87,1698.93c-15.28.07-27.71-10.81-35-23.45-8.37-14.42-11.07-31.3-15.95-47-3.9-12.57-9.46-25.18-18.83-34.67-11-11.09-25-13.07-39.5-16.63-3.56-.87-5.08,4.62-1.51,5.5,7.77,1.91,15.93,2.94,23.39,6a43.18,43.18,0,0,1,17.9,14.17c9.5,12.49,13.41,27.91,17.44,42.78,4,14.63,8.39,29.48,18.13,41.41,8.43,10.31,20.37,17.73,34,17.67C2082.53,1704.61,2082.54,1698.91,2078.87,1698.93Z"/><path class="cls-24" d="M2184.05,1945.56c-11.59-18.27-7.29-41.34-14.17-61.16a46.49,46.49,0,0,0-16.81-22.65c-9.17-6.76-19.68-11.32-28.13-19.1a81.76,81.76,0,0,1-25.79-55.25,79.72,79.72,0,0,1,5.45-32.9c4.39-11.53,10.47-22.41,13.87-34.31,2.71-9.46,3.54-19.82,1-29.41-2.7-10.14-9.2-17-18.09-22.25-4.86-2.84-9.86-5.38-13.83-9.46a44.62,44.62,0,0,1-8.89-14.41c-4.12-10.15-6.05-21-9.57-31.38-7.82-23-22-44.38-42.41-58-20.72-13.81-47.66-18.53-71.32-10-3.42,1.23-1.95,6.74,1.52,5.5,21.84-7.86,46.18-3.8,65.57,8.56,18.94,12.08,32.43,31.63,40.09,52.5,6.52,17.74,7.92,40,23.06,53.25,8.11,7.07,19.52,9.83,25.23,19.54,5.46,9.27,5.34,21.1,2.89,31.28-5.18,21.54-18.83,39.63-20.23,62.28a87.73,87.73,0,0,0,14.57,53.38,82.71,82.71,0,0,0,19.45,20.57c8.7,6.46,19.06,10.66,27,18.15,15.41,14.55,13.13,38,16.84,57.11,2.11,10.93,6.43,20.82,14,29.08,8.1,8.83,18.39,15.19,28.09,22.08,10.05,7.13,20.92,15.7,25.24,27.72,3.71,10.32,2.51,22.68-6.38,29.9-2.85,2.31,1.2,6.32,4,4,15.57-12.65,10.93-35.7-.35-49.42C2221.26,1972.9,2196.63,1965.39,2184.05,1945.56Z"/><path class="cls-24" d="M2117.1,1637c-17.12-5-23.11-23.46-28.11-38.6-4.75-14.36-11-27.86-20.1-40-16.82-22.58-41.95-41.86-70.2-46.77-15.41-2.68-31.64-.79-44.31,9-2.86,2.21,0,7.16,2.88,4.92,24.26-18.7,57.92-6.5,80.09,9.51a124.4,124.4,0,0,1,30.58,31.87c8.82,13.3,13.41,27.69,18.77,42.56,5.14,14.26,13.42,28.57,28.88,33.08C2119.11,1643.56,2120.62,1638.07,2117.1,1637Z"/><path class="cls-24" d="M1911.44,1502.08c-13.14-.12-25.15,6-35.45,13.7-11.4,8.55-21.92,18.5-32.29,28.27a257,257,0,0,0-28.61,31,128,128,0,0,0-19.56,35.63c-4.3,12.51-6.14,25.69-7.8,38.76-3.33,26.35-5.89,54.85-26.48,74-17.43,16.26-42.91,25.4-53,48.5-5.63,12.87-5.58,27.21-10,40.42-3.88,11.45-12.08,19.25-22.34,25.15-17.38,10-39.69,14.9-52.09,31.86-17.44,23.86,1.77,52.18-1.74,78.14-3,22.21-21,38.85-34.4,55.41-6.55,8.08-12.76,16.58-16.68,26.28-3.21,7.93-7.45,21.29.46,27.84,3.12,2.58,6.67,2.31,9-1,2.1-3-2.83-5.86-4.92-2.87-.53.75-2.77-5.41-2.76-6.57a35,35,0,0,1,1-7.49,56.85,56.85,0,0,1,5.72-14.61c4.87-8.84,11.35-16.65,17.84-24.33,12.51-14.81,26.85-30.43,30.1-50.28,2.1-12.89-1.08-25.68-3.45-38.29s-3.89-26.12,3.45-37.48c10.66-16.5,32.9-21.6,49.23-30.49,8.27-4.51,16.06-10.18,21.42-18.05,7.09-10.4,8.4-23.21,10.76-35.24,2.58-13.13,7.44-24,17.37-33.15,8.44-7.78,18.39-13.66,27.63-20.4,9.06-6.61,17.37-14,23.31-23.65,6.17-10,9.64-21.38,11.89-32.82,4.8-24.42,4.5-50.08,14-73.42,11.52-28.27,34.53-49.92,56.79-69.91,11.42-10.26,23.13-21.82,37.94-27,12.7-4.4,29.15-2.93,37.53,8.75,2.12,3,7.06.11,4.92-2.88C1933.5,1506.63,1922.75,1502.18,1911.44,1502.08Z"/><path class="cls-24" d="M1913.29,1584.56c-24.61,5.1-41.16,26.36-52.36,47.43-12.42,23.34-21,48.46-31.1,72.82-10.55,25.43-23.22,49.35-42.19,69.55-16.24,17.27-35.22,34.64-36.7,59.9-1,16.48,4.07,33.57-6,48.24-8,11.75-21.47,18.83-33.76,25.29-3.25,1.71-.37,6.63,2.88,4.92,10.61-5.58,21.45-11.53,29.91-20.18,8.66-8.84,12.94-19.68,13.24-32,.37-14.6-2.66-28.89,3.34-42.81,5.06-11.71,13.94-21.31,22.63-30.44,8.42-8.85,16.87-17.57,24-27.51a218.44,218.44,0,0,0,20-34.89c11.33-24.18,19.71-49.61,30.76-73.91,11.42-25.1,27.38-54.8,56.83-60.91C1918.39,1589.31,1916.87,1583.81,1913.29,1584.56Z"/><path class="cls-24" d="M2065.15,1714.12l-52.67,162.54s52.3,58.79,107.17,47.66c0,0-44.64-78.43-51.19-108.14C2061.63,1785.15,2065.15,1714.12,2065.15,1714.12Z"/><path class="cls-9" d="M2140.18,1929.18c-11.53-7.86-30.81-11.79-44.72-12.71q-96-6.35-192.13-8.72-48.07-1.18-96.16-1.38c-27.69-.12-34.25,18.48-38.11,43.88-13.65,89.75-27.27,180.49-19.79,271,1.83,22.2,5.08,44.78,15.16,64.64,1.66,3.27,3.66,6.61,6.89,8.33,3.46,1.85,7.64,1.48,11.54,1.06l480.82-51.65,8-.86C2241.93,2145,2216.3,2055,2171,1963.45,2165.13,1951.54,2151.16,1936.66,2140.18,1929.18Z"/><ellipse class="cls-23" cx="1866.66" cy="1818.22" rx="82.25" ry="110.48"/><path class="cls-5" d="M2019.67,1879.33a6.2,6.2,0,0,0-1.84-2.54c-1.52-1-3.56-.58-5.35-.13-22.08,5.55-45.62,2.93-67.32-4-7.31-2.32-25.77-10.4-29,1.41a21.13,21.13,0,0,0-.24,7.36q1,11.71,2,23.43c.42,5,.94,10.27,3.82,14.39s7,34.91,11.32,37.5c20.35,12.32,33.58,5.66,52.13,20.55,3.83,3.07,8.15,5.93,13,6.35,8.83.76,16.27-6.53,20.94-14.07,3.55-5.73,14.94-8.75,16.89-15.2,2.59-8.58-4.87-20.77-5-29.74C2030.8,1909,2026.56,1893.44,2019.67,1879.33Z"/><path class="cls-6" d="M1997.66,1879.61c-17.16,4.28-66.37-8-81.38-15.2-.19-.09-.34-.2-.53-.3,0,4.06.1,8.4.25,12.94,17.07,7.39,56.16,23.65,73.53,23.22,13.42-.32,25.63-6.19,33.82-12.94-1.74-5.29-3.61-10.15-5.42-14.47C2011.59,1879.65,2002.54,1878.38,1997.66,1879.61Z"/><path class="cls-5" d="M1892.58,1595.35s-72.3,158.42-36.15,213.71,93.26,76.53,144.18,76.8c8,.05,14.4-4.49,18.2-11.3,2.68-4.78,4.5-10.08,6.84-15,2.51-5.32,5.13-10.58,7.54-15.93,4.93-10.91,9.42-22,13.28-33.35,11-32.31,17.3-73.13,16.23-100.07C2060.57,1656.49,2028.68,1550.7,1892.58,1595.35Z"/><path class="cls-9" d="M1762.86,1907.64c-43.47,7.8-92.29,15.5-114.2,60.18-5.75,11.72-7.7,24.89-9.48,37.83q-9.67,70.21-15.73,140.87c-3.51,41-6.1,82.26-2.51,123.25.89,10.2,2.3,20.77,7.83,29.4,6,9.35,16.12,15.25,26.36,19.57a142.24,142.24,0,0,0,63.91,10.91c16.15-1,32.89-5.17,44.74-16.19,7.39-6.86,12.35-15.86,17.19-24.7l122.45-223.64c3.91-7.15,7.87-14.4,9.83-22.31,1.68-6.76,1.86-13.79,2-20.76q1.63-69.45,3.28-138.91C1918.49,1885.56,1776.18,1905.24,1762.86,1907.64Z"/><path class="cls-10" d="M1653.59,2072.21s-8.11,87.88,13.52,77.07,44.61-43.94,44.61-43.94C1688.74,2122.91,1653.59,2072.21,1653.59,2072.21Z"/><path class="cls-8" d="M1948,1855c-41.43,1-68.88-11-84.6-21.26-16.94-11.06-24.3-22.51-24.44-22.74a2.28,2.28,0,0,0-3.87,2.41c.31.5,7.82,12.33,25.58,24,15.64,10.26,42.43,22.21,82.4,22.21,1.65,0,3.34,0,5-.06a2.29,2.29,0,0,0,2.23-2.34A2.26,2.26,0,0,0,1948,1855Z"/><polygon class="cls-6" points="1982.04 1807.66 2012.38 1797.43 1985.1 1762.3 1982.04 1807.66"/><path class="cls-8" d="M1961.71,1824.12c-6.13.19-13.32-.06-20.69,1,7.12,5.69,17.49,10.14,26,13.34,1.23.45,2.45.88,3.7,1.27,8.1,2.51,16.75,3.52,25,1.78a45.4,45.4,0,0,0,11.27-4.15c7.76-4,14.71-9.84,21.37-15.58l-44.16,1.52Z"/><path class="cls-8" d="M1986,1761.6a1.14,1.14,0,1,0-1.8,1.39l26.3,33.87-28.82,9.72a1.14,1.14,0,0,0,.36,2.22,1.19,1.19,0,0,0,.37-.06l30.33-10.23a1.16,1.16,0,0,0,.73-.75,1.12,1.12,0,0,0-.19-1Z"/><path class="cls-3" d="M1985.56,1831.27c16.4,0,30.76-5,33.38-9.15-15,.49-44.44,1.16-63.26,1.78C1960.84,1827,1972.05,1831.27,1985.56,1831.27Z"/><path class="cls-6" d="M1974.09,1635.84c0-.51-.07-1-.12-1.53C1974,1634.31,1974,1634.85,1974.09,1635.84Z"/><path class="cls-6" d="M1943,1567.41c-98.53,14.62-102.59,187.07-102.59,187.07s55.16-1.61,81.83-23.55c26.35-21.67,55.5-54.49,51.86-95.09-.1-1-.12-1.53-.12-1.53,0,.51.08,1,.12,1.53,1,9.45,10.21,60.71,88.29,91.28,0,0,1.94-45-4.08-65.49S2041.52,1552.78,1943,1567.41Z"/><path class="cls-8" d="M1951.82,1716.34c-2.88,0-5.22,7.51-5.22,16.77s2.34,16.77,5.22,16.77,5.22-7.51,5.22-16.77S1954.7,1716.34,1951.82,1716.34Z"/><path class="cls-8" d="M2030.08,1715.6c-2.88,0-5.22,7.5-5.22,16.77s2.34,16.77,5.22,16.77,5.21-7.51,5.21-16.77S2033,1715.6,2030.08,1715.6Z"/><path class="cls-8" d="M2053.24,1676.82c-42-2.24-54.23,19.79-54.73,20.73a1.13,1.13,0,0,0,1,1.67,1.13,1.13,0,0,0,1-.6s3-5.48,10.94-10.57c7.32-4.71,20.5-10.09,41.66-9a1.14,1.14,0,1,0,.12-2.28Z"/><path class="cls-8" d="M1915.24,1677.57a1.14,1.14,0,1,0,.12,2.27c40.41-2.16,52.47,19.3,52.6,19.53a1.14,1.14,0,0,0,1,.6,1.17,1.17,0,0,0,.54-.14,1.14,1.14,0,0,0,.47-1.54C1969.47,1697.35,1957.23,1675.32,1915.24,1677.57Z"/><path class="cls-9" d="M1970.72,1839.77c8.1,2.51,16.75,3.52,25,1.78a45.4,45.4,0,0,0,11.27-4.15,59,59,0,0,0-15.22-1.82C1982.76,1835.58,1974.91,1837.25,1970.72,1839.77Z"/><path class="cls-8" d="M1961.66,1848.92c-9.36,0-17,3.46-17,7.73s7.6,7.74,17,7.74,17-3.47,17-7.74S1971,1848.92,1961.66,1848.92Z"/><path class="cls-6" d="M1876.09,1808.12l-.23-.11A.18.18,0,0,0,1876.09,1808.12Z"/><path class="cls-6" d="M1876.09,1808.12a.18.18,0,0,1-.23-.11l.23.11c.53-.15,2.26-2.16,7.5-15.82,7-18.21-3.24-49.64-3.24-49.64s-30.18,51.39-31.93,63.36,67.86,58.39,67.86,58.39,2.73-20-5.25-32C1903.46,1821.1,1878.62,1809.3,1876.09,1808.12Z"/><polygon class="cls-20" points="1964.98 1959.89 1948.38 1960.85 1966.33 2008.67 2089.57 2215.99 2035.78 1955.76 1964.98 1959.89"/><polygon class="cls-25" points="1964.98 1959.89 1948.38 1960.85 1966.33 2008.67 2089.57 2215.99 1979.26 2007.48 1964.98 1959.89"/><path class="cls-10" d="M1639.52,2228.16c15.28-23.31,31.94-32.61,45.18-49.31l30.51-38.49-68,52.27Z"/><path class="cls-10" d="M1809.86,1899l-19.34,3.36s14.62,42.72,6.16,85-50.08,106.67-50.08,106.67,95.62-92.36,101.47-137.89S1809.86,1899,1809.86,1899Z"/><polygon class="cls-10" points="1878.27 1987.81 1887.6 2016.81 1949.02 2028.24 1941.25 1995.72 1878.27 1987.81"/><polygon class="cls-10" points="1934.28 2056.9 1929.2 2077.22 2089.56 2215.99 1945.14 2046.9 1934.28 2056.9"/><path class="cls-3" d="M1964.09,2001.24l-45.51-118.3-50,7.24,15.25,115.28,55.25,7.62-4.76,43.82L2089.56,2216l-116-195.25A129.42,129.42,0,0,1,1964.09,2001.24Z"/><polygon class="cls-10" points="2071.09 1965.27 2074.2 1985.48 2106.07 1987.03 2103.85 1976.88 2071.09 1965.27"/><polygon class="cls-3" points="2103.85 1976.88 2071.76 1915 2019 1875.26 2089.56 2215.99 2109.57 2004.5 2075.27 1976.88 2103.85 1976.88"/><path class="cls-10" d="M1915.69,2043.37,1779.33,2294.6l80.75-9.14s-24.88-5.63-5.63-83.58S1915.69,2043.37,1915.69,2043.37Z"/><path class="cls-10" d="M1855.5,2180.55c-68.6,51.2-11.93,107.38-11.93,107.38l399.59-43.39C1913.67,2278.6,1855.5,2180.55,1855.5,2180.55Z"/><path class="cls-10" d="M2243.16,2244.54q8.4-.87,17-1.85Z"/><polygon class="cls-10" points="2181.04 2252.55 2217.47 2247.28 2141.34 2003.55 2181.04 2252.55"/><path class="cls-26" d="M1708.4,1927.14c-47.35,19.59-55.51,81.62-55.51,81.62s-3.81,26.12,7.62,30.47,9.79-44.62,58.77-55.5,58.22-58.23,58.77-64.21S1755.74,1907.55,1708.4,1927.14Z"/><g class="cls-27"><path class="cls-26" d="M1998,2171.69c-20.45-12-31.2-37.28-48-53.36-7.78-7.42-15.33-10.51-22.52-10.43-21.37.24-38.66,19-40.83,39.67-4.88,46.5,54,65.86,88.59,76.26,14.43,4.33,61.81,17.84,66.92-6.88C2046.71,2194.43,2012.9,2180.49,1998,2171.69Z"/></g><path class="cls-5" d="M1796.21,1841.22c-4.45,4.71-9,19.69-9.35,26.16-.3,4.66,1.62,8.48,3.76,12.61a80,80,0,0,0,17.28,22.45c6.2,5.64,13.56,10.67,16.55,18.49,2,5.13,1.73,10.81,1.32,16.28a293,293,0,0,1-6.93,44.91c-.48,2-1,4.19,0,6a8.57,8.57,0,0,0,3.6,3.13c17.85,10.37,36.63,23.09,56.17,31.2a124.4,124.4,0,0,0,13.7,4.86l.75.21c0-.23,0-.46,0-.71-1.33-28.09-2.35-62.76,2.71-90.32,2.07-11.21,5.2-22.63,3.15-33.85-3.86-21.27-25.31-37.34-28-58a3.72,3.72,0,0,1,5.75-3.54,25.13,25.13,0,0,1,7.29,8.16c.27.44.53.87.75,1.3,2.85,5.32,4.75,11.17,8.28,16.05a6.92,6.92,0,0,0,.57.8,19.54,19.54,0,0,0,3.87,3.78,14.52,14.52,0,0,0,10.06,3.2,10.38,10.38,0,0,0,2.64-.64c0-15.07-.77-31-8.91-43.63C1874.24,1788.33,1819.84,1816.12,1796.21,1841.22Z"/><path class="cls-6" d="M1876.61,1841.12a25.13,25.13,0,0,1,7.29,8.16c.27.44.53.87.75,1.3,2.85,5.32,4.75,11.17,8.28,16.05,1.5,1.58,3,3.13,4.44,4.58l10.06,3.2c-3-12.63-14.46-41.81-23.64-44.3-11.72-3.19-20-9.84-27.15,8.53,0,0,1.32,41,25.28,61.5,0,0,8.52,3.47,5.06,32.74-3.06,25.73-12.47,72.62-8.39,89.58a124.4,124.4,0,0,0,13.7,4.86c.23-.16.48-.32.71-.5-1.33-28.09-2.35-62.76,2.71-90.32,2.07-11.21,5.2-22.63,3.15-33.85-3.86-21.27-25.31-37.34-28-58A3.72,3.72,0,0,1,1876.61,1841.12Z"/><path class="cls-3" d="M1817.18,1988.4l-102.75,152.75c-4.09,32.93,19.18,57.71,45.32,74.77a196.61,196.61,0,0,0,20.54,11.81,266.38,266.38,0,0,0,27.64,12.11c40.49-75.38,106.59-194.65,106.59-194.65l.16-5.6a159,159,0,0,0-22.14-17.06Z"/><path class="cls-28" d="M1714.43,2141.15c-9.3,67.66,93.5,98.69,93.5,98.69-98.47-52.45,10.9-251.72,10.9-251.72C1813,1986.43,1714.43,2141.15,1714.43,2141.15Z"/><path class="cls-8" d="M1882.59,2057.91a9.47,9.47,0,1,0,9.46,9.47A9.46,9.46,0,0,0,1882.59,2057.91Z"/><path class="cls-8" d="M1863.92,2092.69a9.46,9.46,0,1,0,9.46,9.46A9.46,9.46,0,0,0,1863.92,2092.69Z"/><circle class="cls-8" cx="1843.81" cy="2138.92" r="9.46"/><path class="cls-8" d="M1876.17,2022.67a1.12,1.12,0,0,0-1.53.5l-102.9,200.26a1.13,1.13,0,0,0,.49,1.53,1.11,1.11,0,0,0,.52.13,1.15,1.15,0,0,0,1-.62l102.89-200.26A1.14,1.14,0,0,0,1876.17,2022.67Z"/><path class="cls-8" d="M1867.93,2018.33a1.14,1.14,0,0,0-1.55.45l-107.63,196.79a1.14,1.14,0,0,0,.45,1.55,1.18,1.18,0,0,0,.55.14,1.14,1.14,0,0,0,1-.59l107.63-196.8A1.13,1.13,0,0,0,1867.93,2018.33Z"/><path class="cls-23" d="M1842.26,1743.55C2020.54,1727,1959,1559.75,1959,1559.75,1796.7,1586,1842.26,1743.55,1842.26,1743.55Z"/><path class="cls-23" d="M1952,1561.6s29.62,155.55,140.52,165.78C2092.54,1727.38,2083.78,1532.54,1952,1561.6Z"/><path class="cls-24" d="M1941.61,1583c-13.69-3.36-30.88-6.35-41.42,5.6-11.13,12.6-10.16,32.48-11.43,48.12-1.3,16-5.21,35.81-20.94,44-11.41,6-35.68,1.34-35.91,20.38-.05,3.67,5.65,3.67,5.69,0,.13-10.34,13.74-10.81,21.09-11.85a34.08,34.08,0,0,0,17.2-7.09c10-8.08,15.15-20.88,17.16-33.27,2.58-16,.61-33.47,6.71-48.71,7-17.6,25.06-15.46,40.34-11.71C1943.66,1589.39,1945.18,1583.9,1941.61,1583Z"/><path class="cls-24" d="M2055.09,1666.19c-7.19-3.88-13.87-8.66-18-15.91s-5.38-15.77-6.33-23.9c-1.52-13.14-2.43-27.18-10.28-38.39-8.75-12.5-25.27-16.41-38.22-7.79-3,2-.18,7,2.88,4.92,7.58-5,17.4-5.42,24.91.07,6.53,4.78,9.91,12.7,11.89,20.3,4,15.28,2.15,31.87,9.49,46.28,7.53,14.77,23.25,20.18,37,27.41,7.46,3.93,15.39,8.91,19.18,16.77,3.41,7.09,3.3,16.06-2.78,21.6-2.71,2.48,1.33,6.5,4,4,9-8.2,8.24-22.42,1.65-31.89C2082.12,1677.57,2067.51,1672.9,2055.09,1666.19Z"/><path class="cls-24" d="M1955.19,1601.72c-10.75-4.25-20.36,4.25-23.88,13.9-5,13.61-3.17,29.07-3.35,43.25-.17,13-1.73,27.31-10.23,37.75s-22.25,13.44-34.92,15.29c-3.62.52-2.08,6,1.51,5.49,11.25-1.63,22.9-4.23,32-11.46,8.8-7,13.56-17.53,15.67-28.37,2.57-13.23,1.26-26.7,1.7-40.08.34-10.28,3.11-37,20-30.28C1957.09,1608.56,1958.57,1603.05,1955.19,1601.72Z"/><ellipse class="cls-8" cx="1840.64" cy="1766.84" rx="37.71" ry="50.75"/><ellipse class="cls-29" cx="1839.15" cy="1766.48" rx="23.38" ry="37.59"/><path class="cls-3" d="M1930.58,1690.58a46.63,46.63,0,1,0,46.62,46.63A46.69,46.69,0,0,0,1930.58,1690.58Zm0,88.7a42.07,42.07,0,1,1,42.06-42.07A42.11,42.11,0,0,1,1930.58,1779.28Z"/><path class="cls-3" d="M2035.67,1690.58a46.63,46.63,0,1,0,46.62,46.63A46.69,46.69,0,0,0,2035.67,1690.58Zm0,88.7a42.07,42.07,0,1,1,42.06-42.07A42.11,42.11,0,0,1,2035.67,1779.28Z"/><rect class="cls-3" x="1974.92" y="1734.93" width="16.4" height="4.56"/><g class="cls-30"><path class="cls-31" d="M1904.76,1487.6a128.08,128.08,0,0,0-30.34,8.05,79.72,79.72,0,0,0,12.7,16.21l.38.39a84.23,84.23,0,0,0,66.89,23c10-1.09,20.06-4,30-2.48,11.08,1.71,19.9,8.43,26.63,17.46,6.63,8.87,11.28,19.9,14.15,30.55,5.82,21.47,8.46,45.16,23.12,61.89,9,10.21,22.06,15.73,35.56,16.64a56.73,56.73,0,0,0,33.94-8.16,45.75,45.75,0,0,0,6.16-4.58c-7.62-29.69-19.72-58.36-37.73-84.26C2042.77,1499.73,1973.6,1478.55,1904.76,1487.6Z"/></g><path class="cls-20" d="M3547.47,2190.27H3051.24a67.54,67.54,0,0,0-67.53,67.53v91.67l-29.5,17-35.37,20.42,35.37,20.43,29.5,17v83.19a67.53,67.53,0,0,0,67.53,67.53h496.23a67.52,67.52,0,0,0,67.53-67.53V2257.8A67.53,67.53,0,0,0,3547.47,2190.27Z"/><path class="cls-3" d="M3531.69,2156.55H3035.46a67.52,67.52,0,0,0-67.53,67.53v91.67l-29.5,17-35.37,20.42,35.37,20.42,29.5,17v83.2a67.52,67.52,0,0,0,67.53,67.53h496.23a67.52,67.52,0,0,0,67.53-67.53V2224.08A67.52,67.52,0,0,0,3531.69,2156.55Z"/><path class="cls-8" d="M3531.69,2155.41H3035.46a68.75,68.75,0,0,0-68.67,68.67v91l-66,38.11,66,38.11v82.54a68.75,68.75,0,0,0,68.67,68.67h496.23a68.75,68.75,0,0,0,68.67-68.67V2224.08A68.74,68.74,0,0,0,3531.69,2155.41Zm66.39,318.44a66.46,66.46,0,0,1-66.39,66.39H3035.46a66.46,66.46,0,0,1-66.39-66.39V2390l-63.73-36.79,63.73-36.8v-92.32a66.46,66.46,0,0,1,66.39-66.39h496.23a66.46,66.46,0,0,1,66.39,66.39Z"/><circle class="cls-9" cx="3436.16" cy="2355.19" r="116.29"/><rect class="cls-2" x="3035.29" y="2258.32" width="234.05" height="54.34"/><rect class="cls-8" x="3033.2" y="2348.39" width="236.14" height="2.28"/><rect class="cls-8" x="3033.2" y="2383.32" width="236.14" height="2.28"/><rect class="cls-8" x="3033.2" y="2418.26" width="236.14" height="2.28"/><rect class="cls-8" x="3033.2" y="2453.19" width="236.14" height="2.28"/></g></svg>