<svg xmlns="http://www.w3.org/2000/svg" viewBox="0 0 4680 3120"><defs><style>.cls-1,.cls-10{fill:#fff;}.cls-1{opacity:0;}.cls-2{fill:#e8e8e8;}.cls-3{fill:#d1d1d1;}.cls-4{fill:#e0e0e0;}.cls-5{fill:#a3a3a3;}.cls-6{fill:#ededed;}.cls-7{fill:#f7f7f7;}.cls-8{fill:#ffc968;}.cls-9{fill:#373660;}.cls-11{fill:#ff6d60;}.cls-12{fill:#4d5282;}.cls-13{fill:#ffcfbf;}.cls-14{fill:#bd2710;}.cls-15{fill:#ffa28e;}.cls-16{fill:#e53e38;}.cls-17{fill:#ffa647;}.cls-18{fill:#ed9636;}</style></defs><title>05</title><g id="_05" data-name="05"><rect class="cls-1" width="4680" height="3120"/><rect class="cls-2" x="861.46" y="2610.75" width="2696.2" height="156.09"/><rect class="cls-2" x="1038.39" y="2011.11" width="537.63" height="177.22"/><rect class="cls-2" x="1038.39" y="2188.34" width="537.63" height="177.22"/><rect class="cls-2" x="1038.39" y="2365.56" width="537.63" height="177.23"/><rect class="cls-2" x="1038.39" y="2542.79" width="537.63" height="177.22"/><polygon class="cls-3" points="1576.02 2720.01 1693.09 2641.97 1693.09 1969.92 1576.02 2011.11 1576.02 2720.01"/><polygon class="cls-4" points="1038.39 2011.11 1576.02 2011.11 1693.09 1969.92 1168.46 1969.92 1038.39 2011.11"/><path class="cls-3" d="M1379,2085.54H1235.4a14.18,14.18,0,0,0-14.19,14.18h0a14.19,14.19,0,0,0,14.19,14.19H1379a14.18,14.18,0,0,0,14.18-14.19h0A14.18,14.18,0,0,0,1379,2085.54Z"/><path class="cls-3" d="M1379,2261.86H1235.4a14.19,14.19,0,0,0-14.19,14.19h0a14.18,14.18,0,0,0,14.19,14.18H1379a14.18,14.18,0,0,0,14.18-14.18h0A14.18,14.18,0,0,0,1379,2261.86Z"/><rect class="cls-3" x="1221.21" y="2438.19" width="171.99" height="28.36" rx="14.18"/><rect class="cls-3" x="1221.21" y="2618.85" width="171.99" height="28.36" rx="14.18"/><rect class="cls-5" x="1038.39" y="2187.24" width="537.63" height="2.2"/><rect class="cls-5" x="1038.39" y="2357.42" width="537.63" height="2.2"/><rect class="cls-5" x="1038.39" y="2527.6" width="537.63" height="2.2"/><rect class="cls-3" x="1111.62" y="792.31" width="648.6" height="985.02"/><rect class="cls-6" x="1142.42" y="822.07" width="587" height="921.78"/><rect class="cls-7" x="1178.09" y="844.27" width="523.07" height="899.42"/><rect class="cls-3" x="1094.13" y="1739.65" width="678.2" height="37.68"/><rect class="cls-3" x="1177.56" y="1126.03" width="524.8" height="6.73"/><rect class="cls-3" x="1177.56" y="1345.39" width="524.8" height="6.73"/><rect class="cls-3" x="1177.56" y="1552.62" width="524.8" height="6.73"/><rect class="cls-3" x="1373.2" y="812.05" width="6.06" height="317.35"/><rect class="cls-3" x="1255.38" y="812.05" width="6.06" height="317.35"/><rect class="cls-3" x="1608.84" y="812.05" width="6.06" height="317.35"/><rect class="cls-3" x="1491.02" y="813.84" width="6.06" height="317.35"/><rect class="cls-3" x="1430.54" y="1126.69" width="17.49" height="622.38"/><rect class="cls-8" x="2059.22" y="382.79" width="1143.54" height="681.13"/><circle class="cls-9" cx="2253.1" cy="550.38" r="64.08"/><circle class="cls-8" cx="2253.1" cy="527.27" r="16.63"/><path class="cls-8" d="M2251.88,552a38.53,38.53,0,0,0-36.8,50,64,64,0,0,0,72.84,2.2,38.52,38.52,0,0,0-36-52.15Z"/><circle class="cls-9" cx="2253.1" cy="783.69" r="64.08"/><circle class="cls-8" cx="2253.1" cy="760.58" r="16.63"/><path class="cls-8" d="M2251.88,785.32a38.53,38.53,0,0,0-36.8,49.95,64,64,0,0,0,72.84,2.2,38.52,38.52,0,0,0-36-52.15Z"/><rect x="2386.18" y="537.27" width="295.74" height="6.5"/><rect x="2386.18" y="783.73" width="295.74" height="6.5"/><path class="cls-9" d="M2908.66,2712.53H3101.9l54.35-449s-310.71-.56-312-1.84Z"/><polygon class="cls-10" points="2944.92 2593.86 2931.55 2486.48 2917.8 2379.14 2910.92 2325.47 2903.87 2271.83 2910.37 2325.54 2917.06 2379.24 2930.43 2486.62 2944.18 2593.95 2951.06 2647.62 2958.11 2701.27 2951.6 2647.55 2944.92 2593.86"/><polygon class="cls-10" points="3013.11 2590.51 3011.41 2486.54 3009.34 2382.57 3008.3 2330.59 3007.08 2278.61 3007.75 2330.6 3008.59 2382.59 3010.28 2486.56 3012.36 2590.52 3013.4 2642.51 3014.62 2694.49 3013.95 2642.5 3013.11 2590.51"/><polygon class="cls-10" points="3093.73 2383.67 3084.12 2485.74 3074.89 2587.84 3070.28 2638.9 3065.85 2689.97 3070.83 2638.95 3075.64 2587.91 3085.24 2485.85 3094.47 2383.74 3099.08 2332.69 3103.52 2281.62 3098.53 2332.64 3093.73 2383.67"/><polygon class="cls-10" points="3063.59 2323.38 2999.55 2323.25 2935.51 2323.38 2903.49 2323.54 2871.47 2323.81 2903.49 2324.09 2935.51 2324.25 2999.55 2324.38 3063.59 2324.25 3095.61 2324.09 3127.63 2323.81 3095.61 2323.54 3063.59 2323.38"/><polygon class="cls-10" points="3063.59 2403.24 2999.55 2403.11 2935.51 2403.24 2903.49 2403.4 2871.47 2403.67 2903.49 2403.95 2935.51 2404.11 2999.55 2404.24 3063.59 2404.11 3095.61 2403.95 3127.63 2403.67 3095.61 2403.4 3063.59 2403.24"/><polygon class="cls-10" points="3063.59 2483.1 2999.55 2482.97 2935.51 2483.1 2903.49 2483.26 2871.47 2483.53 2903.49 2483.81 2935.51 2483.97 2999.55 2484.1 3063.59 2483.97 3095.61 2483.81 3127.63 2483.53 3095.61 2483.26 3063.59 2483.1"/><polygon class="cls-10" points="3063.59 2562.96 2999.55 2562.83 2935.51 2562.96 2903.49 2563.12 2871.47 2563.39 2903.49 2563.67 2935.51 2563.83 2999.55 2563.96 3063.59 2563.83 3095.61 2563.67 3127.63 2563.39 3095.61 2563.12 3063.59 2562.96"/><polygon class="cls-10" points="3063.59 2642.82 2999.55 2642.69 2935.51 2642.82 2903.49 2642.98 2871.47 2643.26 2903.49 2643.53 2935.51 2643.69 2999.55 2643.82 3063.59 2643.69 3095.61 2643.53 3127.63 2643.26 3095.61 2642.98 3063.59 2642.82"/><ellipse class="cls-11" cx="2927.11" cy="1866.01" rx="81.3" ry="189.69" transform="translate(-340.82 695.3) rotate(-12.81)"/><ellipse class="cls-11" cx="2788.37" cy="2217.2" rx="151.95" ry="89.85" transform="translate(63.05 4511.46) rotate(-78.58)"/><ellipse class="cls-11" cx="3206.85" cy="1993.66" rx="226.95" ry="113.6" transform="translate(-408.06 3084.98) rotate(-48.67)"/><ellipse class="cls-11" cx="3252.38" cy="2214.79" rx="160.04" ry="67.04" transform="translate(-480.78 971.11) rotate(-15.83)"/><path class="cls-12" d="M2908.28,2068.92c-15.94-13.5-34.34-18.88-56.26-16.46-22.15,1.65-40.87,11.49-55.65,29.23-23,27.65-36.49,73.76-40,137a599,599,0,0,0,1.64,86.63,3.25,3.25,0,0,0,3.22,2.91l.36,0a3.26,3.26,0,0,0,2.88-3.59c-.16-1.54-16.07-155.26,36.87-218.81,13.62-16.34,30.84-25.39,51.19-26.9h.12c20.07-2.23,36.88,2.66,51.4,15,32.82,27.79,52.24,92.48,57.72,192.28a3.25,3.25,0,0,0,6.5-.36C2962.71,2164.15,2942.52,2097.91,2908.28,2068.92Z"/><path class="cls-12" d="M2947,1855.6c-21.54-73-46.88-123.39-57.28-139.83a3.25,3.25,0,1,0-5.49,3.47c10.26,16.25,35.3,66.11,56.62,138.51,15.66,53.15,27.23,110.48,34.38,170.42,8.95,74.92,11,154.13,6,235.45a3.26,3.26,0,0,0,3.05,3.44h.2a3.26,3.26,0,0,0,3.25-3.06c5-81.78,2.9-161.47-6.12-236.85C2974.48,1966.83,2962.82,1909.11,2947,1855.6Z"/><path class="cls-12" d="M3326.11,1842.31c-57.39,18-109.87,51.2-156,98.8-36.82,38-69.68,85.17-97.68,140.21-47.62,93.62-64.89,178.84-65.06,179.69a3.27,3.27,0,0,0,2.56,3.83,3.47,3.47,0,0,0,.64.06,3.24,3.24,0,0,0,3.18-2.62c.17-.84,17.26-85.18,64.48-178,27.7-54.46,60.18-101.11,96.55-138.63,45.36-46.81,96.92-79.49,153.27-97.13a3.25,3.25,0,1,0-1.95-6.2Z"/><path class="cls-12" d="M3381.33,2171.68c-82.21-1.14-174.89,23.19-238.17,43.79-68.49,22.29-118.28,45.16-118.77,45.39a3.25,3.25,0,1,0,2.72,5.91c.49-.23,49.94-22.94,118.07-45.12,62.81-20.44,154.79-44.58,236.06-43.47a3.21,3.21,0,0,0,3.29-3.21A3.24,3.24,0,0,0,3381.33,2171.68Z"/><path class="cls-9" d="M2020.29,1026.93c7.63-94.2-91.66,30.55-91.66,30.55L1878.42,1026a35.22,35.22,0,0,1-4.52-2.84l4.52,2.84c9.59,5.13,31.56,11.87,37.48-29.57,7.64-53.47-3.81-90.38,30.56-71.29s140,53.47,150.2-12.73c5.09-66.19-89.1-8-140-32.14s-127.93-3.18-135.57,51.56,28.64,127-47.73,146.07-143.85,174.39,6.36,220.21c151.48,38.19,315.69,15.28,318.23-92.92C2099.21,1095.67,2012.65,1121.13,2020.29,1026.93Z"/><path class="cls-9" d="M1878.42,1026l-4.52-2.84A35.22,35.22,0,0,0,1878.42,1026Z"/><polygon class="cls-13" points="1845.42 2644.7 1792.71 2633.15 1779.71 2699.63 1994.87 2698.18 1934.15 2663.82 1845.42 2644.7"/><path class="cls-9" d="M1886.75,2654l-9.18,5a28.09,28.09,0,0,0-14.64,26.42h0s-69,1.16-70.22-52.22l-13.18,68.46,217.69-1.62-64.44-38.45Z"/><polygon class="cls-13" points="2102.73 2644.7 2050.03 2633.15 2037.03 2699.63 2252.19 2698.18 2191.47 2663.82 2102.73 2644.7"/><path class="cls-9" d="M2144.07,2654l-9.18,5a28.12,28.12,0,0,0-14.65,26.42h0s-68.95,1.16-70.21-52.22l-13.18,68.46,217.69-1.62-64.44-38.45Z"/><path class="cls-11" d="M2039.54,1557c-56.83-18.94-192.57,12.63-192.57,12.63-8.86,0-53.57,71.73-82.57,171.35-.37,1.24-.73,2.5-1.09,3.77q-2.44,8.6-4.74,17.45l.35.32c-23.44,108.37-9.84,296.78,6,425.86,18.95,154.69-23.33,450.62-23.33,450.62l192.23,8.42s3.92.48,9.23-29a1000.58,1000.58,0,0,0,15.74-162.1c1.17-77.32,2.78-153.61,4.51-223.66,13.66,206.46,30.15,412,30.15,412s129.44,13,176.8-2.8c-22.1-293.59-54.91-829.1-54.91-829.1S2096.36,1576,2039.54,1557Z"/><path class="cls-14" d="M1964.5,2013.87l-.7-52.37c-.34-17.46-.61-34.92-1.09-52.37s-1-34.91-1.61-52.36q-.55-13.08-1.21-26.16c-.23-4.37-.47-8.73-.77-13.08-.16-2.18-.33-4.36-.53-6.53-.11-1.09-.21-2.18-.35-3.26-.08-.54-.13-1.09-.23-1.63l-.14-.8c-.06-.27-.16-.53-.24-.79.07.27.15.53.2.79l.1.82c.08.53.09,1.08.15,1.62.08,1.09.13,2.18.18,3.27q.13,3.27.21,6.54c.13,4.36.2,8.72.27,13.08.13,8.73.19,17.46.23,26.18l.36,52.36.37,52.37.47,52.36.62,52.36.79,52.36q.4,26.19,1,52.36l.65,26.19.32,13.09.4,13.09.25-13.1.17-13.09.32-26.19q.21-26.19.26-52.37c.06-17.46,0-34.92-.07-52.37Z"/><path class="cls-14" d="M1961.73,1801.64c-5.78,3.69-11.5,7.48-17.11,11.45s-11.15,8-16.45,12.48c6.27-2.92,12.31-6.21,18.27-9.62s11.83-7,17.62-10.65,11.5-7.48,17.1-11.46,11.16-8,16.46-12.47c-6.27,2.93-12.31,6.21-18.27,9.63S1967.52,1798,1961.73,1801.64Z"/><path class="cls-14" d="M1836.75,1642.86c-1.62,1.18-3.3,2.25-4.94,3.38l-2.47,1.69-2.5,1.63c-1.67,1.09-3.32,2.23-5,3.27s-3.4,2.08-5.09,3.15a230.26,230.26,0,0,1-21.17,11.34,98,98,0,0,0,22.81-8.38,173.87,173.87,0,0,0,20.85-12.52,221,221,0,0,0,19.09-15,174.41,174.41,0,0,0,17.23-17l-19.34,14.42C1849.76,1633.59,1843.31,1638.31,1836.75,1642.86Z"/><path class="cls-14" d="M1976.58,1620c-.91,12.39-1.38,24.79-1.7,37.18s-.48,24.79-.47,37.19.16,24.78.48,37.18.79,24.79,1.69,37.18c.89-12.39,1.36-24.79,1.68-37.18s.49-24.79.48-37.18-.16-24.79-.47-37.19S1977.48,1632.4,1976.58,1620Z"/><path d="M2516.64,2666.88l-72-17.66L2420,2612.16l-67.32,7-11.24,87,245,4.25L2516.82,2667Zm-172.21,36.7,10.58-82,63.61-6.63,24.38,36.58,72.58,17.81,61.18,38.24Z"/><path class="cls-12" d="M2590.74,2701.92l-62.63-40.05-90.74-20.69s-74.82,39.79-111.44,8l-9.55,68.45h92.33l9.56-11.14,31,3.58,11.94,11.94,123.05,1.49C2596.06,2723.6,2600.65,2708.25,2590.74,2701.92Z"/><path class="cls-12" d="M2617.76,2653.08l-70-38.24s-71,15.34-93.7-19.45l-23.86,54.19,76.11,21.56,10.47-7,24.75,10.2,7.06,12.63,81.61,24.19c15.26,4.52,26.89-13.77,16.33-25.67Z"/><path class="cls-9" d="M2677.65,1684.26l-125.58,70.18c-26.53-8.93-192.43-61.93-222.52-1.75,0,0-14.88,737.86-11.91,913.4,130.91,53.55,232.07,11.9,232.07,11.9l.31-47.91,45.44,21.6L2818.78,2185a173.45,173.45,0,0,0,30.06-77.69h0a173.51,173.51,0,0,0-15.53-96.77Zm-125,544,1.56-241.74,53.2,127.63Z"/><path class="cls-12" d="M2559.92,1917.46q-1.73,16.86-2.86,33.79c-.71,11.28-1.28,22.58-1.27,34,2.33-11.12,4.07-22.3,5.68-33.5s2.92-22.42,4.08-33.66,2.12-22.5,2.87-33.78,1.28-22.59,1.26-34c-2.34,11.12-4.08,22.3-5.68,33.49S2561.08,1906.22,2559.92,1917.46Z"/><path class="cls-12" d="M2378,1832.67q-9.16,11.4-17.87,23.19c-5.77,7.89-11.43,15.86-16.62,24.21,7-6.87,13.62-14.1,20.08-21.42s12.71-14.83,18.82-22.44,12.08-15.33,17.87-23.19,11.42-15.86,16.62-24.2c-7,6.87-13.6,14.1-20.07,21.42S2384.16,1825.07,2378,1832.67Z"/><path class="cls-12" d="M2579.51,1838.47q-6.95,7.42-13.44,15.28a191.09,191.09,0,0,0-12.26,16.4,191.15,191.15,0,0,0,15.51-13.36q7.39-7,14.33-14.47t13.43-15.29a191,191,0,0,0,12.27-16.39,193,193,0,0,0-15.51,13.37Q2586.44,1831,2579.51,1838.47Z"/><path class="cls-12" d="M2552.61,2228.24c-1.38,33.48-2.21,67-2.84,100.45-.37,16.74-.54,33.48-.8,50.22l-.48,50.23-.17,50.23c0,16.75,0,33.49.14,50.24.2,33.49.6,67,1.56,100.47,1.39-33.48,2.22-67,2.85-100.44.38-16.75.53-33.49.8-50.23l.47-50.23.17-50.23c0-16.75,0-33.49-.15-50.24C2554,2295.23,2553.57,2261.73,2552.61,2228.24Z"/><path class="cls-12" d="M2631.63,2155.26q-5.45-10.61-11.42-20.93c-4-6.87-8.17-13.67-12.84-20.2,2.57,7.61,5.68,14.94,8.9,22.22s6.71,14.42,10.33,21.49,7.42,14.06,11.41,20.94,8.18,13.67,12.86,20.2c-2.57-7.61-5.67-14.95-8.9-22.23S2635.26,2162.33,2631.63,2155.26Z"/><path class="cls-13" d="M2851.18,1350.05l-150.4-192.69s-98.69-52.95-64.39,128.35c.65,3.44,142.77,134.68,170.29,160.06.45,1.39.89,2.77,1.42,4.18,76.17,44.16,261.48-129.72,261.48-129.72l-12.14-40.84Z"/><path d="M3053.84,1266.3,3014,1301l10.62,37.17,93-3.72-26.22-75.66Zm-27.24,69.11L3017,1301.9l38-33.11,34.57-6.91,24.28,70Z"/><path d="M3070.18,1222.52a7.12,7.12,0,0,0-13.92-2.52l-22.54,75.45,37.3-10.32L3068.3,1250Zm-32.5,69.06,21.15-70.81a4.44,4.44,0,0,1,8.68,1.57l-1.9,27.66,2.57,33.14Z"/><path d="M3146.51,1229.51a7.76,7.76,0,0,0-7.14.23l-63.74,35.9,12.36,18.95,59.62-41.76a7.74,7.74,0,0,0-1.1-13.32Zm-.44,11.12-57.35,40.17-9.28-14.23,61.25-34.49a5.05,5.05,0,0,1,7.47,3.58A5.07,5.07,0,0,1,3146.07,1240.63Z"/><path d="M3163.52,1260a9.58,9.58,0,0,0-7.64-.82c-65.63,20.77-67.23,22.36-67.75,22.89l-.51.51,4.06,19.52,70.27-24.76a9.58,9.58,0,0,0,1.57-17.34Zm-2.46,14.81-67.38,23.74-3.09-14.86c4.53-2.08,29.3-10.31,66.1-22a6.9,6.9,0,0,1,8.8,5A6.9,6.9,0,0,1,3161.06,1274.85Z"/><path d="M3158.9,1294.86l-55.08,2.32a7.39,7.39,0,0,0-7,8.5l.94,6.1a7.4,7.4,0,0,0,7.28,6.26,7.43,7.43,0,0,0,1.15-.09l54.14-8.42a7.38,7.38,0,0,0-1.44-14.67Zm1,12-54.14,8.42a4.7,4.7,0,0,1-5.37-3.93l-.94-6.1a4.71,4.71,0,0,1,1-3.7,4.66,4.66,0,0,1,3.43-1.71l55.08-2.32a4.71,4.71,0,0,1,4.89,5A4.74,4.74,0,0,1,3159.93,1306.88Z"/><path d="M3145.79,1325l-44.35-10.28v16.46l40.88,9.09a7.64,7.64,0,0,0,1.7.19,7.83,7.83,0,0,0,1.77-15.46Zm3.08,9.34a5.15,5.15,0,0,1-6,3.31l-38.78-8.61v-11l41.06,9.52a5.15,5.15,0,0,1,3.69,6.73Z"/><path class="cls-15" d="M2787.48,1374.64s-12.73,13.58-26.42,29c14.85,13.75,32.49,31.07,41.36,40.16a42.53,42.53,0,0,0,23.07,12.38c60.7,10.6,161.75-65.67,212.69-108.37C2890.2,1455.07,2787.48,1374.64,2787.48,1374.64Z"/><path class="cls-11" d="M2688.54,1149.27l.09-.48c-49.47-37-190.73-59.28-190.73-59.28l-64.47,5s-152.1,50-152.1,53c0,1.31,18.38,82.58,39,173.56h0c20.29,89.33-.16,184.32,9.3,225.8,2.25,7.08-2,215.9,0,222.16l66.54,9.23a400.79,400.79,0,0,0,251.52-47.68l41-23s-56-165.61-48.8-233.11c4.18-38.32,10.91-91,21.74-161.84l112.93,105.08s2.67-77.35,66.14-83.3C2810.76,1286,2721.59,1169.11,2688.54,1149.27Z"/><path class="cls-16" d="M2662.84,1314.75l111.72,102.87s.69-35.65,12.92-43l-115.71-105.52Z"/><path class="cls-16" d="M2639.91,1474.16c-27.43,9.07-60.77,56.95-127.16-38.41C2463.82,1328.63,2366,1292.93,2366,1292.93c-24.72-4.56-38.24,11-45.6,28.09,20.3,89.33-.16,184.32,9.3,225.8,2.25,7.08-2,215.9,0,222.16l66.54,9.23a400.79,400.79,0,0,0,251.52-47.68l41-23S2632.56,1541.52,2639.91,1474.16Z"/><circle class="cls-9" cx="3229.95" cy="941.76" r="588.57"/><circle class="cls-2" cx="3229.95" cy="941.76" r="546.19"/><rect class="cls-9" x="1497.7" y="1720.22" width="1473.77" height="70.63" transform="translate(-603.85 1891.7) rotate(-40.9)"/><path class="cls-13" d="M2187.49,1422.37a37.45,37.45,0,0,0-38.63,36.64c-1.41,86.55,123.54,236,123.54,236l41.48-9.79-63.8-228S2228.82,1423.89,2187.49,1422.37Z"/><path class="cls-15" d="M2208.75,1376.92c-1.52-2.18-14-3.77-31.13-4.82-10.94,31.15-20.51,58.61-24.82,71a36.77,36.77,0,0,0-3.94,15.91c-1.12,69,78.18,178.13,110.3,219.41l3.28.73s-63.07-164.89-76.87-196.55S2208.75,1376.92,2208.75,1376.92Z"/><path class="cls-11" d="M2274,1152.65c-25.69,22.5-83.18,164.87-99.65,220.84,62.77-11.12,88,69.37,88,69.37l103.33-177.63C2366.19,1125.18,2298.7,1130.4,2274,1152.65Z"/><path class="cls-16" d="M2174.31,1373.49a61,61,0,0,1,34.44,3.43c13.09-38.81,48.3-142.8,65-187.87,10.32-27.77,20.25-41.45,27.63-48.19a48.25,48.25,0,0,0-27.46,11.79C2248.27,1175.15,2190.78,1317.52,2174.31,1373.49Z"/><path class="cls-14" d="M2670.62,1252.91q-2.49,15.38-4.48,30.82c-1.34,10.3-2.53,20.63-3.3,31,2.54-10.11,4.66-20.28,6.62-30.48s3.79-20.42,5.44-30.67,3.14-20.52,4.49-30.82,2.52-20.62,3.29-31c-2.55,10.1-4.67,20.27-6.63,30.47S2672.26,1242.66,2670.62,1252.91Z"/><path class="cls-14" d="M2677.43,1258.9q-2.64,5.28-4.87,10.78a84.82,84.82,0,0,0-3.77,11.35,86.22,86.22,0,0,0,6.82-9.82q3.06-5.07,5.7-10.37t4.87-10.79a86.13,86.13,0,0,0,3.77-11.34,84,84,0,0,0-6.81,9.82C2681.09,1251.91,2679.2,1255.37,2677.43,1258.9Z"/><path class="cls-14" d="M2366.9,1163a57.47,57.47,0,0,0-14.16-22.19,62,62,0,0,1,12.14,22.87,95.6,95.6,0,0,1,3.68,25.57c.08,4.32,0,8.65-.32,13s-.76,8.64-1.35,12.94a252.08,252.08,0,0,1-4.92,25.59c-2,8.47-4.4,16.85-7,25.17s-5.5,16.56-8.49,24.77q-9.16,24.55-20.17,48.48c4.53-7.53,8.58-15.33,12.48-23.21s7.49-15.9,10.83-24,6.42-16.38,9.24-24.73,5.23-16.85,7.34-25.42a241.65,241.65,0,0,0,4.78-26.08,152,152,0,0,0,1-26.56A91,91,0,0,0,2366.9,1163Z"/><path class="cls-14" d="M2378.55,1256.14q-5.33,5.64-10.28,11.6t-9.56,12.19a143.39,143.39,0,0,0-8.61,13,145.28,145.28,0,0,0,11.22-10.81q5.32-5.65,10.28-11.61t9.56-12.2a145.37,145.37,0,0,0,8.61-13A145.34,145.34,0,0,0,2378.55,1256.14Z"/><path class="cls-13" d="M2350,1668.55l-28.83-8-21.13-1.79-34.41,8.92-5.29,23.49a61.15,61.15,0,0,0,.4,28.5l9.77,25.83a5,5,0,0,0,6.68,2.85h0a5,5,0,0,0,2.92-5.83L2278,1734l8.05,8.7a5.9,5.9,0,0,0,9.88-2l3.84-10.88,2.63,5.5a5.75,5.75,0,0,0,10.93-2.09l.7-10.23,5.85,5.48a5.84,5.84,0,0,0,9.64-5.75l-5.74-21.72.84-21.4c-3.94-1.69,13.05.56,22.26,2.45a6.81,6.81,0,0,0,8-6l0-.16A6.7,6.7,0,0,0,2350,1668.55Z"/><path class="cls-14" d="M2531.56,1099.09c-.3,1.56-.67,3.09-1.12,4.6a47.73,47.73,0,0,1-15.09,23.08,58.73,58.73,0,0,1-15.85,9.4c-.71.31-1.44.57-2.17.84l-2.18.8a28,28,0,0,1-4.3,1.11,27.32,27.32,0,0,1-4.42.41q-1.11,0-2.22-.06c-.77-.06-1.54-.1-2.31-.19a68.67,68.67,0,0,1-18-4,52.52,52.52,0,0,1-15.91-9.13,44.27,44.27,0,0,1-11.25-14.56,54.74,54.74,0,0,1-3.35-8.79,80.2,80.2,0,0,1-1.93-9.32,60.77,60.77,0,0,0,.76,9.59,52.27,52.27,0,0,0,2.57,9.37,43.72,43.72,0,0,0,10.94,16.22,52.62,52.62,0,0,0,16.69,10.45,70.87,70.87,0,0,0,19.12,4.52c.81.08,1.63.11,2.45.17s1.71.06,2.56,0a31.65,31.65,0,0,0,10-1.85c1.52-.61,3.08-1.11,4.56-1.82a57.71,57.71,0,0,0,16.51-10.66c9.7-8.91,15.4-22.1,14.57-34.92A32.55,32.55,0,0,1,2531.56,1099.09Z"/><path class="cls-13" d="M2026.49,1347.19c.79,4.16,191.13,179.58,191.13,179.58l50.61-100.28-171.37-219.57S1989,1149,2026.49,1347.19Z"/><path class="cls-13" d="M2241.9,1424.14s-51.88,37.4-27.75,102.56c83.25,48.26,285.78-141.77,285.78-141.77l-13.27-44.65Z"/><path class="cls-13" d="M1720.49,1334.21c-2.73,3.25-18.13,252.53-18.13,252.53L1812,1571.6,1873.64,1300S1850.23,1179.82,1720.49,1334.21Z"/><polygon class="cls-13" points="2483.39 1327.34 2440.82 1364.39 2451.86 1403.02 2550.4 1399.08 2522.81 1319.46 2483.39 1327.34"/><path class="cls-13" d="M2499.12,1278a6.32,6.32,0,0,0-12.35-2.24l-23.87,79.92,37-10.25-2.89-37.31Z"/><path class="cls-13" d="M2587.25,1292.25a7,7,0,0,0-10.33-5l-68.3,38.47,11.83,18.13,63.92-44.77a7,7,0,0,0,2.88-6.88Z"/><path class="cls-13" d="M2594.69,1319.64c-21.25,6.72-71.59,22.79-73.46,24.65l3.95,18.92,75.21-26.5a9,9,0,0,0-5.7-17.07Z"/><path class="cls-13" d="M2597.6,1358.66l-60.19,2.53a6.6,6.6,0,0,0-6.25,7.6l1,6.67a6.6,6.6,0,0,0,7.54,5.52l59.18-9.2a6.6,6.6,0,0,0,5.57-6.11h0A6.6,6.6,0,0,0,2597.6,1358.66Z"/><path class="cls-13" d="M2582.88,1391.51l-46.67-10.82v15l43.53,9.68a7.09,7.09,0,0,0,3.14-13.83Z"/><path class="cls-15" d="M2191.61,1444.39s-13.91,14.84-28.87,31.65c16.23,15,35.51,34,45.2,43.9a46.56,46.56,0,0,0,25.22,13.52c66.33,11.58,176.77-71.77,232.44-118.44C2303.88,1532.3,2191.61,1444.39,2191.61,1444.39Z"/><path class="cls-8" d="M2080.69,1196.53c-32.52-16.26-105.15-2.17-64,145.24l160.76,149.59s2.92-84.54,72.29-91C2216.18,1346.12,2114.29,1212.79,2080.69,1196.53Z"/><path class="cls-8" d="M1744.94,1237.28c-20.42,31.25-39,198-39.92,261.78,62.81-30.17,113.07,47.12,113.07,47.12l56.5-217.37C1833.93,1181.24,1764.44,1206.59,1744.94,1237.28Z"/><path class="cls-17" d="M2004.55,1272.08c.52,13.81,2.65,29.77,6.75,48.11a126.9,126.9,0,0,0,12.88,28.88l153.31,142.29s-1-12.29,14.12-47C2126.57,1421.26,2043.26,1324,2004.55,1272.08Z"/><path class="cls-8" d="M2078.42,1198.15l-96.76-37.76c-112.73-10.11-222.64,48.25-237.1,81.49l96.22,210.52c3.75,40.4-.66,90.6-8.06,140.3,69.38,102.62,235.58,19.16,235.58,19.16s-5.78-65,1.44-105.5,60.06-64.86,23.92-135.68S2078.42,1198.15,2078.42,1198.15Z"/><path class="cls-17" d="M2031.08,1420c-50.94-19.52-68.28,17.34-127.9,23.84a68.31,68.31,0,0,1-40.2-7.6,15.25,15.25,0,0,0-22.34,14.89c4,40.61-.44,91.34-7.92,141.57,19,28.07,45.2,42.2,73.28,47.94-25.69-32.07-21.8-83.25,15.61-66.72,46.5,20.55,138.34,45.41,146.27,32.59,0-.3,0-.57-.07-.9-1.23-8.31-5.92-78.51,1.21-98.9,23.85-34.69,36.86-83.46,32.52-109.48C2104.79,1437.34,2082,1439.51,2031.08,1420Z"/><rect class="cls-9" x="1688.32" y="1554.63" width="376.53" height="296.11" transform="translate(-644.68 1449.83) rotate(-36.49)"/><rect class="cls-12" x="1681.24" y="1556.97" width="376.53" height="272.3" transform="translate(-640.38 1443.74) rotate(-36.49)"/><rect class="cls-9" x="1707.3" y="1574.43" width="329.3" height="233.75" transform="translate(-638.82 1444.84) rotate(-36.49)"/><rect class="cls-2" x="1725.45" y="1568.45" width="309.18" height="233.75" transform="translate(-633.68 1448.48) rotate(-36.49)"/><rect class="cls-9" x="2023.51" y="1507.93" width="37.19" height="141.36" transform="translate(-538.44 1523.94) rotate(-36.49)"/><rect class="cls-12" x="1989.47" y="1546.94" width="25.79" height="98.03" transform="translate(-556.55 1503.7) rotate(-36.49)"/><path class="cls-13" d="M1733.28,1546.63a40.92,40.92,0,0,0-29.88,49.93c24,91.51,199.46,212,199.46,212l40.78-22.51-134.23-221.19S1777.23,1536.07,1733.28,1546.63Z"/><path class="cls-13" d="M1984.05,1764.15a7.34,7.34,0,0,0-7.27-6.22l-32.7.08-22.76,4.33-33.6,19.51,1.34,26.28a66.75,66.75,0,0,0,8.81,29.88l17.89,24.32a5.5,5.5,0,0,0,9.22-6l-4.75-8.39,11,6.8a6.44,6.44,0,0,0,9.79-5.06l.84-12.57,4.39,5a6.29,6.29,0,0,0,10.89-5.42l-2.27-11,7.77,4.06a6.38,6.38,0,0,0,8.45-8.89l-12.43-21.18-5.42-22.76c-4.63-.63,13.91-3.26,24.16-4a7.46,7.46,0,0,0,6.63-8.67Z"/><path class="cls-17" d="M1744.94,1237.29c-20.42,31.24-39,198-39.92,261.77a66.71,66.71,0,0,1,37.26-6.53c2.36-44.69,8.83-164.51,13.2-216.88,2.68-32.26,9.11-49.58,14.9-58.85A52.81,52.81,0,0,0,1744.94,1237.29Z"/><path class="cls-15" d="M1742.28,1492.53c-2.23-1.84-15.86.16-34.18,4.09-2.35,36-4.34,67.73-5.23,82a39.93,39.93,0,0,0,.53,17.9c19.13,73,134.7,164.5,180.64,198.5l3.68-.2s-114.9-155-138.75-184.27S1742.28,1492.53,1742.28,1492.53Z"/><path class="cls-13" d="M2022.12,1175.57c-7.67-2.9-12.44-4.75-15.26-5.89l-114.81-6.4-39,12.29s53.47,58.53,63.59,83.1c122.85,0,122.13-3.61,122.13-3.61S2046,1211,2022.12,1175.57Z"/><path class="cls-13" d="M2006.86,1169.68l2.25.13S1997.73,1166,2006.86,1169.68Z"/><path class="cls-18" d="M1843.88,1314.76c-1.29-11.91-3-23.81-5.44-35.59-1.26-5.88-2.71-11.73-4.44-17.52a138.76,138.76,0,0,0-6.19-17.07,85.44,85.44,0,0,0-9-15.94,45.78,45.78,0,0,0-13.43-12.64,31.24,31.24,0,0,0-17.79-4.22,40,40,0,0,0-8.93,1.64,55.64,55.64,0,0,0-8.31,3.38,54.81,54.81,0,0,1,8.54-2.49,38.47,38.47,0,0,1,8.73-.85,31.14,31.14,0,0,1,8.51,1.35,29.13,29.13,0,0,1,7.67,3.72,42.56,42.56,0,0,1,11.75,12.37,85.92,85.92,0,0,1,7.87,15.51,192.18,192.18,0,0,1,9.37,33.9c2.25,11.58,3.86,23.3,5,35.08s2.11,23.61,2.75,35.45,1,23.73,1.35,35.61.42,23.78.46,35.68l.09,17.87.07,8.94.1,4.48c0,.75,0,1.49.09,2.24,0,.37,0,.74.1,1.12,0,.09,0,.18.05.28a.74.74,0,0,0,0,.14s0,.06.07.06.07,0,.09,0a2.07,2.07,0,0,0,.15-.54,1.87,1.87,0,0,1-.2.51c0,.08,0-.06-.07-.14a2.45,2.45,0,0,1,0-.27c0-.37,0-.74,0-1.11,0-.75.08-1.49.13-2.23l.36-4.46.69-8.91c.46-6,.83-11.9,1.2-17.85.65-11.91,1.13-23.84,1.28-35.78s0-23.89-.34-35.84S1845.06,1326.69,1843.88,1314.76Z"/><path class="cls-18" d="M1854.54,1360.21q-3,7.86-5.35,16a124,124,0,0,0-3.75,16.56,122.83,122.83,0,0,0,8.18-14.88c2.41-5.08,4.59-10.24,6.58-15.48s3.78-10.55,5.35-15.95a120.92,120.92,0,0,0,3.74-16.56,121.43,121.43,0,0,0-8.19,14.87Q1857.5,1352.34,1854.54,1360.21Z"/><path class="cls-18" d="M2089.33,1297.33a84.6,84.6,0,0,0-3.46,13.63q-1.2,6.87-1.73,13.77c-.35,4.61-.51,9.23-.43,13.88a85.55,85.55,0,0,0,1.28,14,83.52,83.52,0,0,0,3.45-13.63c.81-4.57,1.37-9.17,1.74-13.77s.52-9.23.44-13.87A83.55,83.55,0,0,0,2089.33,1297.33Z"/><path class="cls-18" d="M2100.53,1376.59a225.72,225.72,0,0,0-12.07-29c-1.11-2.34-2.38-4.67-3.42-7l-3.15-6.91-2.63-7.12c-.82-2.4-1.46-4.85-2.21-7.28-.4-1.2-.61-2.46-.9-3.69l-.82-3.72c-.32-1.24-.45-2.51-.66-3.76l-.6-3.77c-.35-2.52-.53-5.07-.81-7.61-.08-2.55-.27-5.1-.27-7.66a115.63,115.63,0,0,1,3.62-30.58c-4,9.63-5.81,20-6.57,30.5a111.48,111.48,0,0,0,2.44,31.41c.65,2.56,1.22,5.15,2,7.69l2.53,7.53,3.09,7.32c1,2.45,2.18,4.7,3.23,7.07a256.54,256.54,0,0,1,11.48,28.44,120.49,120.49,0,0,1,5.93,29.64,101.8,101.8,0,0,1-2.55,30.05,138.62,138.62,0,0,1-10.46,28.71,241.53,241.53,0,0,1-15.42,26.85,175.75,175.75,0,0,0,18-25.46,140.59,140.59,0,0,0,7.1-14l1.53-3.64c.49-1.23.91-2.48,1.37-3.71l.67-1.86.6-1.89c.38-1.27.81-2.52,1.15-3.8a99.11,99.11,0,0,0,3.1-15.59,97.55,97.55,0,0,0,.6-15.94A117,117,0,0,0,2100.53,1376.59Z"/><path class="cls-18" d="M2038,1254H2036c-.14.65-.28,1.28-.43,1.88Z"/><path class="cls-18" d="M1919,1257.39c-.28-.5-.57-1-.86-1.5l-1.6,0Z"/><path class="cls-18" d="M2039.9,1214.08c-.75-3.51-1.72-7-2.8-10.37a103.21,103.21,0,0,0-3.91-10,90.37,90.37,0,0,0-11.07-18.16,98.29,98.29,0,0,1,5.2,9.21,94.75,94.75,0,0,1,4.2,9.65c1.23,3.28,2.26,6.62,3.16,10s1.53,6.81,2.11,10.24a114.91,114.91,0,0,1,1.3,20.79c-.09,3.46-.32,6.93-.73,10.36-.19,1.72-.45,3.43-.73,5.13-.18,1-.38,2.07-.59,3.08H2038l-2.37,1.89c.15-.6.29-1.23.43-1.88l-28.42.17-30.35.4c-10.12.11-20.23.38-30.35.59l-15.18.32-13.57.39c.29.5.58,1,.86,1.5l-2.46-1.45,1.6,0a198.2,198.2,0,0,0-14-20.49c-5.31-7-10.74-13.86-16.36-20.57-2.81-3.36-5.61-6.71-8.46-10l-8.62-9.88q-8.68-9.83-17.7-19.35l16,20.72,8,10.39,7.91,10.42c5.22,7,10.4,14,15.4,21.08l3.7,5.36,3.59,5.4c1.18,1.81,2.29,3.65,3.44,5.47s2.09,3.69,3.14,5.54l.83,1.46h1.63l15.18-.11,15.17-.21c10.12-.16,20.24-.25,30.36-.5l30.34-.68,30.35-.91,2-.06.4-1.82c.41-1.91.68-3.64.92-5.46s.44-3.59.57-5.39c.3-3.59.41-7.2.37-10.79A114.6,114.6,0,0,0,2039.9,1214.08Z"/><path class="cls-11" d="M2714.79,949.71A523.53,523.53,0,0,0,2823.61,1270h527V435.37a527.62,527.62,0,0,0-110-11.55C2950.24,423.82,2714.79,659.27,2714.79,949.71Z"/><circle class="cls-8" cx="3043.07" cy="704.3" r="125.9"/><circle class="cls-10" cx="3043.07" cy="658.88" r="32.67"/><path class="cls-10" d="M3040.68,707.48a75.76,75.76,0,0,0-72.31,98.14A125.83,125.83,0,0,0,3111.49,810a75.71,75.71,0,0,0-70.81-102.48Z"/><rect class="cls-10" x="2834.31" y="895.47" width="392.03" height="6.5"/><rect class="cls-10" x="2834.31" y="965.59" width="392.03" height="6.5"/><rect class="cls-10" x="2834.31" y="1035.7" width="392.03" height="6.5"/><path class="cls-13" d="M1900.44,1077.34l-4.36,81.75a31.31,31.31,0,0,0,6.15,20.36l2.79,3.74c19.37,26,62,27.27,82,.45a39,39,0,0,0,7.73-21.6l1.35-29.45-57.6-86.24Z"/><path class="cls-15" d="M1909.6,1064.73l18.06,22.3s2.5,75.86,66.55,74.37l1.08-23.48-67.93-59.63Z"/><path class="cls-13" d="M2010.31,924.87l-98.72-4.52L1890.53,1072l10.38-8.29c16.39,14.13,24.4,40.62,37.51,57.84,10.63,14,30.41,30.5,61.83,23.3,34.1-4.09,46.67-31.78,52.46-96.52C2055.67,983.47,2051.71,946.55,2010.31,924.87Z"/><path class="cls-9" d="M2018.12,1075.81h0Z"/><path class="cls-9" d="M2028.25,1057.78c-.55-2.54-1.18-5.06-1.78-7.59-1.22-5.06-2.37-10.13-3.67-15.17l-1.89-7.57c-.62-2.53-1.33-5-1.77-7.6a146.31,146.31,0,0,0,2.46,15.44c1,5.12,2.11,10.19,3.22,15.28.56,2.54,1.1,5.08,1.73,7.61l.92,3.79a11.06,11.06,0,0,1,.33,3.6,10.33,10.33,0,0,1-9.7,9.3H2018l-5,1c-1.67.35-3.33.7-5,1.09q2.54-.26,5.07-.57l5-.61h0a11.34,11.34,0,0,0,7.5-2.83,11.14,11.14,0,0,0,3.74-7.25,12.47,12.47,0,0,0-.3-4.14Z"/><path class="cls-9" d="M2049.22,992.57a9.45,9.45,0,0,0-1.71-1.56,13.39,13.39,0,0,0-8.93-2.88,18.81,18.81,0,0,0-14.84,8.93c2.73-1,5.24-2,7.74-2.79a28.36,28.36,0,0,1,7.25-1.37,14.87,14.87,0,0,1,6.84,1.32,19,19,0,0,1,3.37,1.79c1.17.67,2.15,1.61,3.48,2.36a17.78,17.78,0,0,0-1.81-4Z"/><path class="cls-9" d="M1993.13,990.76a9.1,9.1,0,0,0-1.71-1.56,13.42,13.42,0,0,0-8.93-2.88,18.75,18.75,0,0,0-14.84,8.93c2.73-1,5.24-2,7.74-2.79a28.31,28.31,0,0,1,7.25-1.38,14.94,14.94,0,0,1,6.83,1.32,19.7,19.7,0,0,1,3.38,1.79c1.17.67,2.15,1.61,3.47,2.37a17.13,17.13,0,0,0-1.8-4Z"/><path class="cls-9" d="M1992.86,1013.18a11.14,11.14,0,0,0-7.77-2.67,14.13,14.13,0,0,0-7.43,2.53,13.07,13.07,0,0,0-4.79,5.73l6.68-1.67a29.74,29.74,0,0,1,5.72-.88,13.55,13.55,0,0,1,5.25.8,19.41,19.41,0,0,1,2.85,1.18c1,.45,1.92,1.14,3.17,1.65A10.58,10.58,0,0,0,1992.86,1013.18Z"/><path class="cls-9" d="M1985.6,1018.3c-3.14-.14-5.82,3-6,7.08s2.2,7.45,5.33,7.59,5.82-3,6-7.07S1988.73,1018.44,1985.6,1018.3Z"/><path class="cls-9" d="M2048,1017.56a9.38,9.38,0,0,0-7-2.35,12.85,12.85,0,0,0-6.48,2.47,12.57,12.57,0,0,0-4.21,5.06c2.18-.58,4.07-1.21,5.9-1.73a25.58,25.58,0,0,1,5.13-1,10.16,10.16,0,0,1,4.56.71c1.61.53,3.06,1.77,5,3A9,9,0,0,0,2048,1017.56Z"/><ellipse class="cls-9" cx="2037.04" cy="1029.8" rx="6.66" ry="5.14" transform="translate(915.24 3017.66) rotate(-87.38)"/><path class="cls-11" d="M2004.44,1096.31c-2-12.81-14-9.12-14-9.12,4.33,16.6,18.81,15.28,24.24,14.11C2016.46,1093.19,2010.25,1092.9,2004.44,1096.31Z"/><path class="cls-15" d="M1990.36,1088.93c-6.51,15.68,8.43,25.35,17.48,23.76s3.26-10,3.26-10C1995.9,1103.16,1993.49,1094.67,1990.36,1088.93Z"/><path class="cls-9" d="M2010.4,1101.06a11.35,11.35,0,0,1-2.26-.14c-.74-.12-1.47-.22-2.2-.3a21.13,21.13,0,0,1-2.11-.57c-.35-.12-.71-.18-1-.29l-1-.45a9.41,9.41,0,0,1-1.89-1,18.64,18.64,0,0,1-6.13-6,39.07,39.07,0,0,1-4-8.37,19.57,19.57,0,0,0,1.77,9.56,17,17,0,0,0,6.66,7.59,17.49,17.49,0,0,0,9.79,2.35,28,28,0,0,0,4.87-.72,44.53,44.53,0,0,0,4.52-1.75c-1.64,0-3.19.12-4.74.2Z"/><path class="cls-9" d="M2018.06,903.77c-87.83,13.37-130.8-8.59-130.8-8.59s-14.32,133.66,9.55,145.11c0,0,47.74,19.1,52.51-34.37s3.82-81.15,35.32-57.28,85,60.15,108.84,20.05S2105.89,890.4,2018.06,903.77Z"/><path class="cls-9" d="M1825.61,934a170,170,0,0,1-.36,45.29c-4.75,30.54-18.52,48.53-40.92,53.47-13.51,3-33.41,8.82-51.47,19.75s-29.87,24.21-35.35,39.63c-9.21,25.9,0,56.58,27.49,91.19l3.39-2.69c-26.46-33.37-35.47-62.65-26.8-87.05,5.14-14.45,16.42-27,33.51-37.37,17.56-10.63,37-16.32,50.16-19.23,24-5.28,39.29-25,44.28-57a171.26,171.26,0,0,0,.36-46.61Z"/><path class="cls-9" d="M1752.58,1090.66a249.86,249.86,0,0,1-24.94,9.12c-13.2,4.3-26.84,8.75-38.9,16.57-24.58,15.94-36.56,46.07-31.27,78.62,7.11,43.81,47,67.49,70.12,77.71l1.75-4c-22.33-9.87-60.81-32.65-67.59-74.44-5-30.83,6.24-59.3,29.35-74.29,11.59-7.52,25-11.87,37.88-16.09a253.74,253.74,0,0,0,25.38-9.28c3.55-1.6,7.88-4.08,12.46-6.7,9.85-5.65,22.12-12.68,30.38-12.68v-4.33c-9.42,0-21.7,7-32.54,13.24C1760.18,1086.72,1755.94,1089.15,1752.58,1090.66Z"/><path class="cls-9" d="M2065.22,869.48c-36,4.29-57,10.85-72.38,15.65-18.73,5.85-28.12,8.78-45.9,1.67l-1.61,4c19.21,7.68,29.72,4.4,48.8-1.56,15.19-4.75,36-11.25,71.6-15.49,17.64-2.1,29,.9,33.74,8.9,5.26,8.87,2.81,24.47-7.08,45.12a226.68,226.68,0,0,1-17.22,29.45l3.53,2.52c1.59-2.24,38.87-55,24.51-79.3C2097.51,870.86,2084.72,867.16,2065.22,869.48Z"/><path class="cls-12" d="M1869.35,908.76c-7.49,3.89-13.2,10.64-17,18a90.45,90.45,0,0,0-8.08,23.66,179.82,179.82,0,0,0-3.2,24.75c-.62,8.31-.56,16.63-.66,24.86s-.31,16.49-.65,24.73c-.79,16.44-2,32.93-5.3,48.94a95.76,95.76,0,0,1-7.42,23.08,42.18,42.18,0,0,1-15.44,17.7c-6.74,4.18-14.68,6.31-22.73,7.32a57.61,57.61,0,0,0-12.41,2.74,47.39,47.39,0,0,0-11.31,6,45,45,0,0,0-9.2,8.82,46.52,46.52,0,0,0-6.32,11,51.34,51.34,0,0,0-3.38,24.83,62,62,0,0,0,7.75,23.67,77.26,77.26,0,0,0,15.55,19.3,86.59,86.59,0,0,1-8.09-9.36,70.05,70.05,0,0,1-6.56-10.41,60.35,60.35,0,0,1-6.78-23.37,49.3,49.3,0,0,1,3.74-23.73A44,44,0,0,1,1758,1141a42,42,0,0,1,8.81-8.09,43.84,43.84,0,0,1,10.67-5.33,55.84,55.84,0,0,1,11.77-2.49c8.3-1,16.75-3.13,24.14-7.64a45.65,45.65,0,0,0,16.87-19,98.54,98.54,0,0,0,7.9-23.93c6.32-32.87,5.15-66.31,5.79-99.14a175.59,175.59,0,0,1,2.64-24.45,89,89,0,0,1,7.38-23.28c3.47-7.33,8.73-14,15.84-18a31.44,31.44,0,0,1,23.81-2.69A31.27,31.27,0,0,0,1869.35,908.76Z"/><path class="cls-12" d="M1935.07,941.28a72.09,72.09,0,0,0-2.62-10.46,96.56,96.56,0,0,1,2.07,21.25,57.58,57.58,0,0,1-3.72,20.56,34.88,34.88,0,0,1-5.17,8.82A30.29,30.29,0,0,1,1918,988a35.33,35.33,0,0,1-9.4,3.91l-2.51.61c-.84.18-1.7.28-2.55.42-1.67.28-3.52.52-5.32.77a77.22,77.22,0,0,0-10.73,2.41,47.38,47.38,0,0,0-10.26,4.3,31.78,31.78,0,0,0-8.7,7.24,25.83,25.83,0,0,0-5,10.19c-1.81,7.42-.5,14.95,1.57,21.85a102.83,102.83,0,0,0,8.84,19.69,121.65,121.65,0,0,1-7-20.18,55.33,55.33,0,0,1-1.54-10.41,31,31,0,0,1,1.06-10.19,23.94,23.94,0,0,1,4.68-8.81,28.36,28.36,0,0,1,7.9-6.24c6-3.28,12.87-5,19.79-6.08,1.75-.26,3.45-.49,5.32-.81.91-.16,1.83-.28,2.74-.48l2.71-.68a37.26,37.26,0,0,0,10.32-4.44,33.51,33.51,0,0,0,8.39-7.54,34.81,34.81,0,0,0,5.34-9.83,55.88,55.88,0,0,0,2.81-21.66A88,88,0,0,0,1935.07,941.28Z"/><path class="cls-12" d="M2082.81,957.68a37.72,37.72,0,0,1-13.42,3.47,58.06,58.06,0,0,1-13.91-1,94.37,94.37,0,0,1-13.49-4,121,121,0,0,1-12.85-5.89,187.08,187.08,0,0,1-24.05-15.09,271.67,271.67,0,0,1-22.18-17.91c-3.55-3.16-7-6.39-10.42-9.74-1.72-1.65-3.31-3.37-5-5.06l-2.64-2.55-2.82-2.38a30.89,30.89,0,0,0-13.36-6.54,19.45,19.45,0,0,0-7.6.23,20.24,20.24,0,0,0-6.79,3.22,35.46,35.46,0,0,0-9.48,11.06,58.69,58.69,0,0,0-5.66,13.23,66.79,66.79,0,0,1,6.52-12.7,34,34,0,0,1,9.67-10,18.41,18.41,0,0,1,6.22-2.63,17.11,17.11,0,0,1,6.65.09,28.83,28.83,0,0,1,12,6.39l2.59,2.34,2.45,2.5c1.64,1.7,3.28,3.52,5,5.21,3.35,3.45,6.83,6.79,10.36,10.06a261.41,261.41,0,0,0,22.35,18.31,183.78,183.78,0,0,0,24.65,15.23c8.64,4.35,17.79,7.93,27.45,9.6a58.64,58.64,0,0,0,14.68.57,39.68,39.68,0,0,0,14-4.3,36.79,36.79,0,0,0,11.18-9.28c3.24-3.63,5.47-8,7.56-12.25-2.46,4.11-5,8.2-8.31,11.58A35.57,35.57,0,0,1,2082.81,957.68Z"/><ellipse class="cls-13" cx="1897.2" cy="1043.44" rx="23" ry="34.99"/><ellipse class="cls-15" cx="1899.4" cy="1047.03" rx="9.61" ry="14.62"/><path class="cls-15" d="M1897.27,1018h0l.08,0Z"/><path class="cls-15" d="M1892.87,1017.92h0Z"/><path class="cls-15" d="M1910,1033.19a28.78,28.78,0,0,0-3.66-8.77,23,23,0,0,0-6.65-6.75l-.07,0h0c-.58-.29-1.17-.59-1.79-.88l0,0h-.06l-1.22-.29a6,6,0,0,0-1.39-.1,8.5,8.5,0,0,0-2.59.57h0a11,11,0,0,0-3.06,2.19,17.67,17.67,0,0,0-2.32,2.87,26,26,0,0,0-3,6.61,25.48,25.48,0,0,1,1.55-3.25,29.17,29.17,0,0,1,1.92-3,13,13,0,0,1,5.31-4.39h0a7.38,7.38,0,0,1,2.24-.39,4.77,4.77,0,0,1,1.08.14l1.1.31h0l.11,0-.08,0,1.57.87,0,0,.09.06-.07,0a21.71,21.71,0,0,1,6,6.5,29,29,0,0,1,1.91,3.92,33,33,0,0,1,2.48,8.74,34.14,34.14,0,0,1,.33,6.9,51.54,51.54,0,0,1-.74,6.83l-2.08-.51a34.81,34.81,0,0,0,1.87-8.72,28.87,28.87,0,0,0,0-4.46,29.52,29.52,0,0,0-.57-4.42,27.68,27.68,0,0,0-1.31-4.36,27,27,0,0,0-2.31-4.18,21.69,21.69,0,0,0-4.73-5.11,9,9,0,0,0-3.13-1.75,5.7,5.7,0,0,0-3.67.12,13.4,13.4,0,0,0-5.26,4.46,31.14,31.14,0,0,0-3.54,5.77,38.61,38.61,0,0,1,4-5.42,12.77,12.77,0,0,1,5.18-3.85,4.68,4.68,0,0,1,3,.07,8,8,0,0,1,2.64,1.67,21.58,21.58,0,0,1,4.21,4.93,30.43,30.43,0,0,1,4.18,12.32,36.63,36.63,0,0,1,.22,6.56,49.09,49.09,0,0,1-.77,6.57l2.08.52a35.05,35.05,0,0,0,2-9.28,30.25,30.25,0,0,0,0-4.76A28.14,28.14,0,0,0,1910,1033.19Z"/><path class="cls-15" d="M1908.62,1038.05a28.87,28.87,0,0,1,0,4.46,34.81,34.81,0,0,1-1.87,8.72l2.08.51a51.54,51.54,0,0,0,.74-6.83,34.14,34.14,0,0,0-.33-6.9,33,33,0,0,0-2.48-8.74,27.68,27.68,0,0,1,1.31,4.36A29.52,29.52,0,0,1,1908.62,1038.05Z"/><path class="cls-15" d="M1898.85,1018.83l0,0,.07,0Z"/><path class="cls-9" d="M2550.33,820.38c-60.57-32-32-2.29-97.14-19.43s-93.71,36.57-93.71,36.57,129.14,130.28,168,205.7C2554.9,968.94,2610.9,852.38,2550.33,820.38Z"/><path class="cls-13" d="M2526.1,1011.82l-38.25-31.12L2430,1067.29l1.35,29.57a39.19,39.19,0,0,0,7.76,21.68c20.11,26.92,62.91,25.67,82.36-.45l2.8-3.75a31.46,31.46,0,0,0,6.18-20.44Z"/><path class="cls-15" d="M2430.87,1072.64l1.08,23.57c64.31,1.5,66.82-74.67,66.82-74.67l18.13-22.39-17.83,13.62Z"/><path class="cls-13" d="M2415.79,858.73c-41.57,21.77-45.55,58.84-42.57,124,5.81,65,18.43,92.8,52.67,96.91,31.55,7.22,51.4-9.39,62.08-23.4,13.16-17.29,21.2-43.88,37.66-58.07l10.42,8.32L2514.9,854.2Z"/><path class="cls-9" d="M2408,1009.34H2408a10.36,10.36,0,0,1-9.74-9.33,10.83,10.83,0,0,1,.33-3.61l.92-3.81c.64-2.54,1.18-5.1,1.74-7.65,1.12-5.1,2.29-10.19,3.24-15.34a146.85,146.85,0,0,0,2.47-15.49c-.45,2.57-1.16,5.09-1.78,7.62l-1.9,7.61c-1.31,5-2.46,10.15-3.68,15.22-.61,2.54-1.24,5.08-1.79,7.63l-.85,3.82a12.59,12.59,0,0,0-.3,4.16,11.24,11.24,0,0,0,3.76,7.28,11.38,11.38,0,0,0,7.53,2.84h0l5,.61c1.69.21,3.39.4,5.09.57q-2.49-.57-5-1.09Z"/><path class="cls-9" d="M2407.88,1010.27h0Z"/><path class="cls-9" d="M2452.44,923.19a18,18,0,0,0-8.72-2.76,13.48,13.48,0,0,0-9,2.89,9.79,9.79,0,0,0-1.71,1.56l-1.39,1.8a17.34,17.34,0,0,0-1.82,4c1.33-.76,2.31-1.7,3.49-2.38a19.78,19.78,0,0,1,3.39-1.79,15.1,15.1,0,0,1,6.86-1.33,28.52,28.52,0,0,1,7.28,1.38c2.51.77,5,1.75,7.77,2.8A18.15,18.15,0,0,0,2452.44,923.19Z"/><path class="cls-9" d="M2396.12,925a18,18,0,0,0-8.72-2.77,13.44,13.44,0,0,0-9,2.89,9.51,9.51,0,0,0-1.72,1.56l-1.39,1.8a17.34,17.34,0,0,0-1.82,4c1.33-.76,2.32-1.7,3.49-2.38a19.78,19.78,0,0,1,3.39-1.79,15.12,15.12,0,0,1,6.86-1.33,28.6,28.6,0,0,1,7.29,1.38c2.5.77,5,1.75,7.76,2.8A18,18,0,0,0,2396.12,925Z"/><path class="cls-9" d="M2448.57,947.26a14.1,14.1,0,0,0-7.46-2.54,11.2,11.2,0,0,0-7.8,2.67,10.68,10.68,0,0,0-3.7,6.7c1.26-.51,2.16-1.2,3.19-1.65a20.68,20.68,0,0,1,2.85-1.19,13.73,13.73,0,0,1,5.28-.8,30.05,30.05,0,0,1,5.74.88l6.71,1.68A13.1,13.1,0,0,0,2448.57,947.26Z"/><path class="cls-9" d="M2440.6,952.54c-3.14.14-5.54,3.56-5.35,7.63s2.88,7.24,6,7.1,5.54-3.56,5.35-7.63S2443.75,952.4,2440.6,952.54Z"/><path class="cls-9" d="M2391.43,951.91a13,13,0,0,0-6.5-2.48,9.45,9.45,0,0,0-7,2.36,9.07,9.07,0,0,0-2.92,6.15c1.94-1.24,3.4-2.49,5-3a10.22,10.22,0,0,1,4.58-.7,25.76,25.76,0,0,1,5.15,1c1.83.52,3.74,1.15,5.92,1.73A12.73,12.73,0,0,0,2391.43,951.91Z"/><path class="cls-9" d="M2388.64,957.41c-2.85.13-5,3.23-4.85,6.91s2.62,6.57,5.46,6.44,5-3.22,4.86-6.91S2391.49,957.28,2388.64,957.41Z"/><path class="cls-9" d="M2432.38,1026.81a18.79,18.79,0,0,1-6.15,6.08,9.76,9.76,0,0,1-1.9,1l-1,.45c-.34.12-.71.18-1,.29a21.36,21.36,0,0,1-2.12.58c-.73.07-1.47.18-2.21.3a11.45,11.45,0,0,1-2.27.14l-2.32.08c-1.55-.08-3.12-.22-4.76-.2a47.44,47.44,0,0,0,4.54,1.76,28.29,28.29,0,0,0,4.88.72,17.56,17.56,0,0,0,9.84-2.36,17,17,0,0,0,6.68-7.62,19.62,19.62,0,0,0,1.78-9.6A39.6,39.6,0,0,1,2432.38,1026.81Z"/><path class="cls-9" d="M2417.31,836.37c-82.14-11.58-92.86,21.5-70.54,56.24s72.32,3.31,101.78-17.37,28.57,3.31,33,49.63,49.1,29.77,49.1,29.77c22.32-9.92,8.93-125.72,8.93-125.72S2499.45,848,2417.31,836.37Z"/><ellipse class="cls-13" cx="2530.06" cy="981.17" rx="23" ry="34.99"/><ellipse class="cls-15" cx="2527.86" cy="984.76" rx="9.61" ry="14.62"/><path class="cls-15" d="M2517.71,982.64a51.54,51.54,0,0,0,.74,6.83l2.08-.51a34.81,34.81,0,0,1-1.87-8.72,28.87,28.87,0,0,1,0-4.46,29.35,29.35,0,0,1,.57-4.42,26.41,26.41,0,0,1,1.32-4.36,32.69,32.69,0,0,0-2.49,8.74A34.14,34.14,0,0,0,2517.71,982.64Z"/><path class="cls-15" d="M2528.33,956.62l.06,0,0,0Z"/><path class="cls-15" d="M2534.36,955.63l0,0h0Z"/><path class="cls-15" d="M2537.85,956.83a10.82,10.82,0,0,0-3.06-2.19h0a8.5,8.5,0,0,0-2.59-.57,6,6,0,0,0-1.39.1l-1.22.29h-.05l-.06,0c-.62.29-1.21.59-1.79.88h0l-.07,0a23,23,0,0,0-6.65,6.75,28.78,28.78,0,0,0-3.66,8.77,28.14,28.14,0,0,0-.69,4.72,30.13,30.13,0,0,0,0,4.75,35,35,0,0,0,1.95,9.29l2.08-.52a49.09,49.09,0,0,1-.77-6.57A36.6,36.6,0,0,1,2520,976a30.43,30.43,0,0,1,4.18-12.32,21.38,21.38,0,0,1,4.22-4.93,7.81,7.81,0,0,1,2.63-1.67,4.68,4.68,0,0,1,3-.07,12.77,12.77,0,0,1,5.18,3.85,38.61,38.61,0,0,1,4,5.42,31.14,31.14,0,0,0-3.54-5.77,13.4,13.4,0,0,0-5.26-4.46,5.7,5.7,0,0,0-3.67-.12,9.05,9.05,0,0,0-3.13,1.75,21.69,21.69,0,0,0-4.73,5.11,25.75,25.75,0,0,0-2.3,4.18,26.41,26.41,0,0,0-1.32,4.36,29.35,29.35,0,0,0-.57,4.42,28.87,28.87,0,0,0,0,4.46,34.81,34.81,0,0,0,1.87,8.72l-2.08.51a51.54,51.54,0,0,1-.74-6.83,34.14,34.14,0,0,1,.33-6.9,32.69,32.69,0,0,1,2.49-8.74,28.89,28.89,0,0,1,1.9-3.92,21.71,21.71,0,0,1,6-6.5l-.06,0,.08-.06,0,0,1.57-.87-.08,0,.11,0h0l1.1-.31a4.84,4.84,0,0,1,1.08-.14,7.38,7.38,0,0,1,2.24.39l0,0,0,0h0a13,13,0,0,1,5.31,4.39,29.17,29.17,0,0,1,1.92,3,25.48,25.48,0,0,1,1.55,3.25,25.7,25.7,0,0,0-3-6.61A17.67,17.67,0,0,0,2537.85,956.83Z"/><path class="cls-15" d="M2529.88,955.73l.08,0h0Z"/><path class="cls-12" d="M2571.06,857.72c-.49-1.43-1.15-2.8-1.75-4.19s-1.32-2.74-2.12-4-1.6-2.61-2.46-3.89-1.84-2.47-2.9-3.6a42.53,42.53,0,0,0-3.26-3.32,41.42,41.42,0,0,0-3.68-2.89,36,36,0,0,0-17.52-6.34c-.39,0-.78-.09-1.17-.11l-1.17,0c-.78,0-1.56-.06-2.34,0-1.55.09-3.12.08-4.65.32l-2.31.28-2.27.43-4.24.78a17.89,17.89,0,0,1-2,.24c-.68,0-1.37.17-2.05.16h-2c-.68,0-1.35-.1-2-.13a32,32,0,0,1-4-.62l-2-.54c-.66-.16-1.29-.44-1.94-.66-5.17-1.87-9.89-5.1-14.66-8.5-2.39-1.69-4.84-3.44-7.45-5.06a41.45,41.45,0,0,0-8.47-4.17,25,25,0,0,0-9.69-1.39,29.45,29.45,0,0,0-9.4,2.23A59.6,59.6,0,0,0,2438,822.71l-6.61,5.85-3.36,2.71c-1.14.88-2.33,1.69-3.49,2.54a68.56,68.56,0,0,1-15.2,8c-1.35.45-2.69,1-4.08,1.33l-2.07.58-2.11.45c-1.39.35-2.83.48-4.24.72s-2.86.31-4.3.33a55.55,55.55,0,0,1-33.09-9.39,53.76,53.76,0,0,0,33.12,12c1.51.08,3-.06,4.54-.11s3-.24,4.52-.53l2.24-.37,2.22-.5c1.5-.3,2.93-.79,4.4-1.2a69.31,69.31,0,0,0,16.38-7.83c1.25-.85,2.53-1.66,3.76-2.54l3.63-2.72,6.79-5.73a55.23,55.23,0,0,1,14.26-9,26.15,26.15,0,0,1,7.77-1.75,19.47,19.47,0,0,1,7.71,1.17c5,1.78,9.7,5.21,14.5,8.64s10,6.93,16,9.06c.76.25,1.48.56,2.26.75l2.3.61a39.66,39.66,0,0,0,4.73.7,23.72,23.72,0,0,0,2.38.13l2.38,0c.8,0,1.57-.13,2.36-.2s1.58-.14,2.34-.32l4.45-.92,2.07-.44,2.08-.3c1.38-.25,2.78-.26,4.17-.38.69,0,1.39,0,2.08,0h1.05c.34,0,.69,0,1,.08a32.82,32.82,0,0,1,8.11,1.58,30.73,30.73,0,0,1,7.46,3.54,38,38,0,0,1,3.37,2.45,39.49,39.49,0,0,1,3,2.89c1,1,1.86,2.12,2.77,3.2s1.7,2.27,2.44,3.49,1.46,2.45,2.17,3.69,1.32,2.55,1.86,3.89a69.17,69.17,0,0,1,2.94,8.14c3.27,11.16,4,23.05,3.25,34.82a91.63,91.63,0,0,0-.68-35.49A67.86,67.86,0,0,0,2571.06,857.72Z"/><path class="cls-12" d="M2523.26,843c-10.18,4.9-19,9.14-29.49-1-24.08-23.25-29-19.3-49.57-2.64l-1.16.93c-31,25.14-58.58,36.47-79.7,32.77-16.72-2.92-23.77-14.3-23.84-14.41l-1.86,1.11c.3.5,7.56,12.31,25.25,15.43a51.39,51.39,0,0,0,8.85.75c20.42,0,44.81-11.39,72.66-34l1.16-.94c20.34-16.44,24-19.4,46.7,2.51,11.61,11.21,21.95,6.24,31.94,1.43,11.67-5.62,23.75-11.43,40.36,4.33l1.49-1.57C2548.35,830.89,2535,837.3,2523.26,843Z"/></g></svg>