<svg xmlns="http://www.w3.org/2000/svg" xmlns:xlink="http://www.w3.org/1999/xlink" viewBox="0 0 4680 3120"><defs><style>.cls-1{fill:none;}.cls-2,.cls-6{fill:#fff;}.cls-2{opacity:0;}.cls-3{fill:#fff3dd;}.cls-4{fill:#ffbd66;}.cls-5{fill:#fad6a2;}.cls-7{fill:#f61d6b;}.cls-8{clip-path:url(#clip-path);}.cls-9{fill:#bf1d5f;}.cls-10{fill:#ff71ab;}.cls-11{fill:#0f4396;}.cls-12{opacity:0.5;}.cls-13{fill:#1545bc;}.cls-14{clip-path:url(#clip-path-2);}.cls-15{fill:#4c7bd8;}.cls-16{fill:#113e99;}.cls-17{clip-path:url(#clip-path-3);}.cls-18{fill:#feb8c0;}.cls-19{clip-path:url(#clip-path-4);}.cls-20{fill:#f98c8f;}.cls-21{fill:#cc424f;}.cls-22{clip-path:url(#clip-path-5);}.cls-23{clip-path:url(#clip-path-7);}.cls-24{fill:#0d3b84;}.cls-25{clip-path:url(#clip-path-8);}.cls-26{fill:#d3961c;}.cls-27{fill:#fec337;}.cls-28{fill:#eaa721;}.cls-29{fill:#6b2e00;}.cls-30{fill:#f7727c;}.cls-31{fill:#d8d8d8;}.cls-32{fill:#ffdb92;}.cls-33{opacity:0.4;}.cls-34{fill:#eaa51b;}.cls-35{opacity:0.3;}.cls-36{clip-path:url(#clip-path-9);}</style><clipPath id="clip-path"><path class="cls-1" d="M1904.56,2197.34s45.81,16.21,104.17,98,36.42,94.76,36.42,94.76-248.71,112.93-243.36,146.08-8.69,75.78-12,78.94S1647.45,2383.89,1660.92,2343C1711,2315,1904.56,2197.34,1904.56,2197.34Z"/></clipPath><clipPath id="clip-path-2"><path class="cls-1" d="M1822.11,1578.55s-33.08,132.69,16.51,251,89.87,239.14,89.87,239.14-47.11,280.42-33.43,307.77,12.17,44.08,12.17,44.08h238.61s6.43-73.71,14.61-114.75,24.14-321.45,12.75-346.53-149.61-368.52-149.61-368.52Z"/></clipPath><clipPath id="clip-path-3"><path class="cls-1" d="M1907.23,2420.55s40.09-27.47,140.58-26.41,98,26.41,98,26.41-55.31,267.49-25.38,282.69,56.11,51.68,56.7,56.24-270.7-21.28-295.78-56.24C1888.22,2646.23,1907.23,2420.55,1907.23,2420.55Z"/></clipPath><clipPath id="clip-path-4"><path class="cls-1" d="M2106.54,1434.88s89.45,81.35,133.53,87.43S2386,1415,2386,1415l-25.29-80.53-114.43,41.92L2196,1329.3Z"/></clipPath><clipPath id="clip-path-5"><path class="cls-1" d="M2160.45,1395.93l-51.09,50.39,38,159.58-240.14,24.74-114,11.74V1485.83L1770,1505.59,1638.2,1381s80.56-103.35,115.51-131.64,50.16-32.51,75.92-37.07,72.2-18.9,72.2-18.9c208.9-40.17,317,145.06,317,145.06Z"/></clipPath><clipPath id="clip-path-7"><path class="cls-1" d="M1823.76,994.36c-1.35-3.48-25.83-46,32.11-70.57s91.15-14.22,83.65-1.43,27.36-7.09,56,10.26,4.74,30.38,4.74,30.38,34.32,4.79,34.45,27.55-27.43,35.35-27.43,35.35L1850.7,1128.55s-53.4-26.07-57.16-77.54S1823.76,994.36,1823.76,994.36Z"/></clipPath><clipPath id="clip-path-8"><path class="cls-1" d="M1969.7,1161.94c-2.92.2-5.65,1.3-8.46,1.71l9,26.44,1.32,3.92s-14.9,28.89-29.43,33.45-59.18-19.77-59.18-19.77v-54.44a39,39,0,0,1-22.66,2.74c-19.84-3.51-33.35-20.93-30.16-38.94,2.91-16.62,19-27.91,37.09-26.79,0,0,10.39,7.25,13.45,5.72s10.71-76,10.71-76,36.09,12.1,46.13,6.81,0-15.18,0-15.18,35.81,1.89,59.34.48c10.39,11.15,18.4,25.76,22.89,42.84C2032.1,1102.25,2014.7,1159.06,1969.7,1161.94Z"/></clipPath><clipPath id="clip-path-9"><path class="cls-1" d="M1645.44,1387.81s-55.87,46.35-60.43,123.86,152,215.82,152,215.82,14.36,54.72,33,63.84,45.84-10.64,59.61-15.2,40.23-16.72,34.6-28.88-12.1-27.36-9.63-31.92,2.09-18.24,0-30.39-41.6-33.44-41.6-33.44l-88-130.71,27.27-32Z"/></clipPath></defs><title>08</title><g id="_08" data-name="08"><rect id="_08-2" data-name="08" class="cls-2" width="4680" height="3120"/><path class="cls-3" d="M3124.22,696.78c-208.56-268-590.39-325.7-868.88-131.41L1838.4,856.25a638.38,638.38,0,0,1-171.18,84.6L1527.6,985.4c-346.93,110.69-531.08,488.73-404.39,830.13h0c105.68,284.77,397.4,455.62,697.47,408.48l290.66-45.67a638.15,638.15,0,0,1,252.73,11l316.11,78.41A638.22,638.22,0,0,0,3285.83,2099l124.76-125.13c227-227.74,249.23-588.8,51.74-842.6C3354.09,992.13,3234.2,838.09,3124.22,696.78Z"/><ellipse class="cls-3" cx="1672.35" cy="2621.69" rx="545.03" ry="81.55"/><path class="cls-4" d="M2364.81,1140.88l-71.94-29.76a367.87,367.87,0,0,0-1.16-108.72l71.6-29.69a43.65,43.65,0,0,0,23.6-57l-35.09-84.61a43.63,43.63,0,0,0-57-23.6l-73.07,30.3a368.34,368.34,0,0,0-75.95-75.1l31.06-75.08a43.65,43.65,0,0,0-23.64-57l-84.64-35a43.65,43.65,0,0,0-57,23.65l-31.11,75.2a368.23,368.23,0,0,0-110.71.23l-30.62-73.84a43.63,43.63,0,0,0-57-23.6l-84.61,35.09a43.63,43.63,0,0,0-23.6,57l30.82,74.34a368.3,368.3,0,0,0-74,73.47l-72.39-30a43.64,43.64,0,0,0-57,23.64l-35,84.64a43.65,43.65,0,0,0,23.64,57l70.41,29.13a368.15,368.15,0,0,0-1.18,110.95l-70.59,29.27a43.65,43.65,0,0,0-23.6,57l35.09,84.61a43.64,43.64,0,0,0,57,23.6l69.11-28.66a368,368,0,0,0,79.49,80.17l-27.8,67.19a43.64,43.64,0,0,0,23.65,57l84.64,35a43.65,43.65,0,0,0,57-23.64l27.74-67.06a368.32,368.32,0,0,0,109,.18l28.34,68.34a43.66,43.66,0,0,0,57,23.6l84.61-35.09a43.65,43.65,0,0,0,23.6-57l-28.14-67.85a368.14,368.14,0,0,0,81.16-82l69.94,28.94a43.65,43.65,0,0,0,57-23.65l35-84.64A43.64,43.64,0,0,0,2364.81,1140.88ZM2013.07,1260.2c-113.18,49.41-244.58-5-289.76-119.89-42.58-108.31,8.76-232.39,115.42-279,113.17-49.41,244.57,5,289.76,119.89C2171.07,1089.55,2119.73,1213.63,2013.07,1260.2Z"/><path class="cls-5" d="M2394,1128.76,2322.1,1099a367.8,367.8,0,0,0-1.16-108.71l71.6-29.7a43.64,43.64,0,0,0,23.6-57l-35.09-84.61a43.63,43.63,0,0,0-57-23.6L2251,825.64a368.34,368.34,0,0,0-75.95-75.1l31.06-75.08a43.65,43.65,0,0,0-23.64-57l-84.64-35a43.65,43.65,0,0,0-57,23.65l-31.11,75.2a368.23,368.23,0,0,0-110.71.23l-30.62-73.84a43.63,43.63,0,0,0-57-23.6l-84.62,35.08a43.65,43.65,0,0,0-23.59,57l30.82,74.34a368.3,368.3,0,0,0-74,73.47l-72.4-30a43.64,43.64,0,0,0-57,23.64l-35,84.64a43.65,43.65,0,0,0,23.64,57l70.41,29.13a368.15,368.15,0,0,0-1.19,111l-70.58,29.27a43.65,43.65,0,0,0-23.6,57l35.09,84.61a43.64,43.64,0,0,0,57,23.6l69.12-28.66a368,368,0,0,0,79.49,80.17l-27.8,67.19a43.64,43.64,0,0,0,23.65,57l84.64,35a43.64,43.64,0,0,0,57-23.64l27.75-67.07a368,368,0,0,0,109,.19l28.34,68.34a43.66,43.66,0,0,0,57,23.6l84.61-35.09a43.65,43.65,0,0,0,23.6-57l-28.14-67.85a368.14,368.14,0,0,0,81.16-82l69.94,28.94a43.65,43.65,0,0,0,57-23.65l35-84.64A43.64,43.64,0,0,0,2394,1128.76ZM2042.3,1248.08c-113.18,49.41-244.58-5-289.76-119.89-42.58-108.31,8.75-232.39,115.42-279,113.17-49.41,244.57,5,289.76,119.89C2200.3,1077.43,2149,1201.51,2042.3,1248.08Z"/><path class="cls-4" d="M3245.11,1694l-59.27-24.58a309.32,309.32,0,0,0-1-93.17l59.12-24.46a36.65,36.65,0,0,0,19.85-47.88l-29.4-71.07a36.65,36.65,0,0,0-47.88-19.85l-60.79,25.15a309.24,309.24,0,0,0-62.18-61.7l25.89-62.42a36.65,36.65,0,0,0-19.82-47.89l-71-29.47a36.65,36.65,0,0,0-47.89,19.82l-25.71,62a309.22,309.22,0,0,0-93-.2l-26.13-63.15a36.65,36.65,0,0,0-47.88-19.85L2687,1264.69a36.64,36.64,0,0,0-19.85,47.87l26.08,63a309.23,309.23,0,0,0-63.77,63.06l-61.36-25.44a36.64,36.64,0,0,0-47.89,19.81l-29.47,71a36.66,36.66,0,0,0,19.82,47.9l60.13,24.93a308.61,308.61,0,0,0-1,91.29l-60.4,25a36.65,36.65,0,0,0-19.86,47.88l29.41,71.07a36.66,36.66,0,0,0,47.88,19.86l58.73-24.3a309.36,309.36,0,0,0,68.14,68.85l-23.62,57a36.64,36.64,0,0,0,19.81,47.89l71.05,29.47a36.66,36.66,0,0,0,47.9-19.82l23.79-57.38a309.2,309.2,0,0,0,91.53-.16l23.3,56.32a36.65,36.65,0,0,0,47.88,19.85l71.07-29.41a36.64,36.64,0,0,0,19.86-47.87L3062.79,1876a309.12,309.12,0,0,0,66.74-67.32l58,24.07a36.65,36.65,0,0,0,47.89-19.82l29.47-71A36.65,36.65,0,0,0,3245.11,1694Zm-197.18-1.26c-37.94,96.5-148.28,142.15-243.32,100.66-89.56-39.1-132.67-143.29-96.92-234.24A182.76,182.76,0,0,1,2951,1458.48C3040.57,1497.58,3083.68,1601.77,3047.93,1692.73Z"/><path class="cls-5" d="M3220.57,1683.81l-59.27-24.58a309.32,309.32,0,0,0-1-93.17l59.12-24.46a36.65,36.65,0,0,0,19.86-47.88l-29.41-71.07A36.65,36.65,0,0,0,3162,1402.8L3101.2,1428a309.18,309.18,0,0,0-62.17-61.7l25.88-62.42a36.63,36.63,0,0,0-19.81-47.89l-71-29.46a36.63,36.63,0,0,0-47.89,19.81l-25.72,62a309.16,309.16,0,0,0-93-.2L2781.36,1245a36.65,36.65,0,0,0-47.88-19.86l-71.07,29.41a36.65,36.65,0,0,0-19.86,47.88l26.09,63a309.28,309.28,0,0,0-63.78,63.06l-61.35-25.44a36.66,36.66,0,0,0-47.9,19.82l-29.46,71a36.66,36.66,0,0,0,19.82,47.9l60.12,24.93a309.29,309.29,0,0,0-1,91.29l-60.4,25a36.65,36.65,0,0,0-19.85,47.88l29.4,71.07a36.65,36.65,0,0,0,47.88,19.86l58.73-24.3a309.62,309.62,0,0,0,68.15,68.85l-23.63,57a36.66,36.66,0,0,0,19.82,47.9l71.05,29.46a36.65,36.65,0,0,0,47.89-19.82l23.8-57.38a309.2,309.2,0,0,0,91.53-.16l23.3,56.32a36.65,36.65,0,0,0,47.88,19.85l71.07-29.4a36.65,36.65,0,0,0,19.85-47.88l-23.34-56.42A308.94,308.94,0,0,0,3105,1798.5l58,24.07a36.65,36.65,0,0,0,47.89-19.82l29.46-71A36.65,36.65,0,0,0,3220.57,1683.81Zm-197.19-1.26a182.76,182.76,0,0,1-243.31,100.67c-89.57-39.11-132.67-143.3-96.92-234.25a182.76,182.76,0,0,1,243.31-100.67C3016,1487.4,3059.14,1591.6,3023.38,1682.55Z"/><rect class="cls-5" x="2677.08" y="687.98" width="570.17" height="31.92" rx="7"/><circle class="cls-6" cx="3102.13" cy="704.68" r="55.46" transform="translate(-54.34 309.1) rotate(-5.65)"/><rect class="cls-4" x="2677.08" y="798.9" width="570.17" height="31.92" rx="7"/><circle class="cls-6" cx="2828.55" cy="815.6" r="55.46" transform="translate(992.59 3116.73) rotate(-67.5)"/><rect class="cls-5" x="2677.08" y="909.82" width="570.17" height="31.92" rx="7"/><circle class="cls-6" cx="3061.09" cy="926.53" r="55.46" transform="translate(-76.4 306.14) rotate(-5.65)"/><path class="cls-4" d="M3414.86,1486c37.61,290.21-159,561.83-450.15,614.1-245.44,44.06-482.07-81.38-589.69-292.66l40.76-7.32s-55.73-30.75-81.12-97.13c-2-7.29-3.88-14.64-5.59-22.07.41,3.17-5-16-6.14-30.36L2321.54,1817l33.74-6.06c93.38,241.94,354.34,390.5,619.1,343,300.2-53.89,499.87-340.94,446-641.14Q3417.93,1499.23,3414.86,1486Z"/><path class="cls-4" d="M2393.72,748.2l-36.4-162.45-31.49,13.54c-145.8-214.46-433.65-300-680.74-193.65-280.16,120.55-409.54,445.4-289,725.56q5.43,12.65,11.43,24.87C1265.11,881.94,1395,572.83,1666.72,455.89c229-98.56,488-30.05,640.69,151.33l-38,16.37s61.25,17.31,101,76.21c3.6,6.65,7.1,13.37,10.45,20.22C2379.74,717,2389.36,734.44,2393.72,748.2Z"/><path class="cls-7" d="M1904.56,2197.34S1711,2315,1660.92,2343c-13.47,40.85,125.51,275.28,128.85,272.11s17.38-45.8,12-78.95,243.36-146.07,243.36-146.07,21.93-12.95-36.42-94.76S1904.56,2197.34,1904.56,2197.34Z"/><g class="cls-8"><path class="cls-9" d="M2039.32,2187.57c-35.77-48.13-92.52-82.38-152.47-82.92l7.67,99.24c73.28,63.3,117.21,159.29,117.21,256.13,32-13.24,67-30.34,78.4-63,4.52-13,4.63-27.12,4-40.88C2091.45,2296.21,2075.09,2235.69,2039.32,2187.57Z"/><polygon class="cls-10" points="1691.15 2343.27 1698.48 2368.96 1941.63 2254.19 1924.96 2233.93 1691.15 2343.27"/><polygon class="cls-9" points="1705.85 2379.29 1928.58 2296.68 1909.92 2277.14 1705.85 2379.29"/><path class="cls-9" d="M1668.67,2305.36l-53.89,53.17,136.55,309.67s23.76-19.53,40.65-59.59-41.2-99.26-77.15-153.92S1668.67,2305.36,1668.67,2305.36Z"/></g><path class="cls-11" d="M1971.52,1590.77l3.45,11.76,74.23,254.29s-28.61,143.6-120.69,211.88-47.13,142.69-47.13,142.69,44.25,48.59,89.46,97.3c42.5,45.81,85.86,91.67,94.2,97.56,17.24,12.13,232.54-245.1,246.22-406.7s-204.73-443.67-204.73-443.67Z"/><g class="cls-12"><path d="M1975,1602.53l74.23,254.29s-28.61,143.6-120.69,211.88-47.13,142.69-47.13,142.69,44.25,48.59,89.46,97.3c67.64-99.94,216.38-327.81,201.83-379.06C2158.81,1880.73,2037.32,1695.64,1975,1602.53Z"/></g><path class="cls-13" d="M2023.59,1590.75l-201.48-12.2s-33.08,132.69,16.51,251,89.87,239.14,89.87,239.14-47.11,280.42-33.43,307.77,12.17,44.08,12.17,44.08h238.61s6.43-73.71,14.61-114.75,24.14-321.45,12.75-346.53S2023.59,1590.75,2023.59,1590.75Z"/><g class="cls-14"><path class="cls-15" d="M2160.45,1981.28c5.91,37.27-40,480.23-40,480.23h79.95V1877.2l-139.82-221.14S2154.55,1944,2160.45,1981.28Z"/><path class="cls-16" d="M1971.65,2347.26c-28.91-25.87-30.56-69.78-30.09-108.57.62-51.25,1.56-104,21.74-151.16,2.39-5.57,5.34-11.37,10.61-14.38,6.83-3.89,15.31-2,23.16-2.16a42.51,42.51,0,0,0,36.86-24.32l-37.59-9.48c25.51-13.18,42.69-41.12,42.94-69.83l-67.22,18.36c-5.35,1.46-11.06,2.91-16.33,1.2-8.76-2.83-12.57-12.86-15.24-21.67q-34.44-113.65-68.89-227.31c-9.37-30.92-18.78-62-22.49-94.12a252.25,252.25,0,0,1,7.37-97.26l-139.27,146.09c6.87,50,47.39,89.16,60.52,137.88,6.91,25.61,5.89,52.59,4.82,79.09q-7.63,190.17-15.29,380.35c-1.64,40.73-2.14,85.24,22.87,117.43,26.27,33.83,72.65,43.6,115.22,48.26a985.79,985.79,0,0,0,188.94,2.47c21.78-1.81,43.94-4.46,63.8-13.59s37.36-25.81,42.32-47.1l-155.67-23.94C2018.77,2369.5,1991.23,2364.79,1971.65,2347.26Z"/></g><path class="cls-7" d="M2120.46,2703.24c-29.93-15.2,25.38-282.69,25.38-282.69s2.45-25.35-98-26.41-140.58,26.41-140.58,26.41-19,225.68-25.85,282.69c25.08,35,296.37,60.8,295.78,56.24S2150.4,2718.44,2120.46,2703.24Z"/><g class="cls-17"><path class="cls-9" d="M2123.83,2346.46c-52.89-28.25-113.29-45-172.93-38.82s-118.05,37.55-149.09,88.84l89.27,44c91.83-30.73,196.79-19.55,280.09,29.84,4.92-34.25,8.1-73.13-14.22-99.57C2148.06,2360.24,2136,2353,2123.83,2346.46Z"/><polygon class="cls-10" points="1907.22 2686.52 1933.06 2693.32 1958.37 2425.65 1932.44 2429.64 1907.22 2686.52"/><polygon class="cls-9" points="1945.7 2692.26 1988.27 2458.55 1961.93 2464.63 1945.7 2692.26"/><path class="cls-9" d="M2015.13,2723c-65.35,3-152-36.48-152-36.48l18.24,73.48,336,40.51s-4.68-30.39-30.52-65.35S2080.48,2720,2015.13,2723Z"/><rect class="cls-10" x="1960.53" y="2651.68" width="50.93" height="40.03" transform="translate(-978.44 4186.38) rotate(-80.44)"/></g><path class="cls-18" d="M2246.26,1376.4,2196,1329.3l-89.45,105.58s89.45,81.35,133.53,87.43S2386,1415,2386,1415l-25.29-80.53Z"/><g class="cls-19"><path class="cls-20" d="M2390.57,1302.74c-18.62-8.6-39.2-12-59.6-14-35.83-3.64-71.92-3.52-107.93-3.39l-88.58.3-30.84,167.45c32-12.37,64.65-24.49,98.84-27.33,16-1.32,32-.6,48-1.44a247.44,247.44,0,0,0,122.78-40.43c15.47-10.23,30.24-22.8,37.92-39.68,2-4.46,3.55-9.29,3.33-14.19C2413.91,1317.28,2402.13,1308.08,2390.57,1302.74Z"/></g><path class="cls-21" d="M1901.83,1193.35s-46.46,14.34-72.2,18.9-41,8.78-75.92,37.07S1638.2,1381,1638.2,1381L1770,1505.59l23.24-19.76v156.55l114-11.74,240.13-24.74-38-159.58,51.09-50.39,58.34-57.51S2110.73,1153.18,1901.83,1193.35Z"/><g class="cls-22"><path class="cls-6" d="M1984.67,1136a176,176,0,0,0-69.07-2.3l-85.8,40.83a1132,1132,0,0,0,100.29,76.18c3.39,2.29,7.05,4.65,11.15,4.71,5.83.1,10.62-4.4,14.47-8.78a176.22,176.22,0,0,0,42-91.3c.64-4.59,1-9.67-1.71-13.43C1993.43,1138.36,1988.9,1137,1984.67,1136Z"/></g><g class="cls-22"><polygon class="cls-6" points="1643.14 1351.71 1784.78 1493.03 1793.24 1485.83 1653.4 1345.25 1643.14 1351.71"/><polygon class="cls-6" points="1661.2 1335.76 1802.83 1477.08 1811.3 1469.88 1671.46 1329.3 1661.2 1335.76"/><polygon class="cls-6" points="2098.08 1426.86 2105.48 1435.16 2242.72 1292.04 2236.02 1281.93 2098.08 1426.86"/><polygon class="cls-6" points="2084.71 1406.72 2092.11 1415.02 2229.35 1271.89 2222.65 1261.79 2084.71 1406.72"/></g><path class="cls-13" d="M2000.23,963s23.87-13-4.74-30.38-63.47,2.53-56-10.26-25.7-23.18-83.65,1.43-33.46,67.09-32.11,70.57c0,0-34,5.19-30.22,56.65s57.16,77.54,57.16,77.54l156.55-102.65s27.57-12.58,27.43-35.35S2000.23,963,2000.23,963Z"/><g class="cls-23"><path class="cls-24" d="M1863.55,987.26a65,65,0,0,0-11.38,3.28c0,.09.07.19.11.28Z"/><path class="cls-24" d="M2029.55,1014.11c-6.39-3.92-14-5.49-21.48-6-2.27-.15-4.68-.27-6.54-1.56-5-3.5-1.92-11.15-1.64-17.23.44-9.9-8.58-18.2-18.27-20.51s-19.82-.11-29.54,2.1a36.43,36.43,0,0,0,13.38-15c1.12-2.36,2-5.17.82-7.5-1.67-3.37-6.27-3.75-10-3.65-14.44.4-29.07,1.07-42.87,5.31s-26.9,12.49-34.1,24.94q.08-16.62.16-33.23c-8.38,5.86-16.94,11.89-22.81,20.24s-8.56,19.38-4.44,28.58a65,65,0,0,1,11.38-3.28l-11.27,3.56c0-.09-.07-.19-.11-.28a66.47,66.47,0,0,0-28,20.53c-3.32,4.2-6.24,9.39-5.21,14.63,1.4,7.16,9.27,10.93,16.36,12.84a102.43,102.43,0,0,0,24.26,3.47c-14,8.62-25.85,21.29-31.73,36.61s-5.35,33.33,3,47.47c7.24,12.24,19.45,20.66,31.5,28.3a5.22,5.22,0,0,0,7.06.16l147.19-90.07c6.17-3.77,12.41-7.62,17.3-12.92s8.33-12.35,7.69-19.51C2041,1024.62,2035.94,1018,2029.55,1014.11Z"/></g><path class="cls-18" d="M1996.81,1012.11c-23.53,1.41-59.34-.48-59.34-.48s10,9.89,0,15.18-46.13-6.81-46.13-6.81-7.68,74.48-10.71,76-13.45-5.72-13.45-5.72c-18.06-1.12-34.18,10.17-37.09,26.79-3.19,18,10.32,35.43,30.16,38.94a39,39,0,0,0,22.66-2.74v54.44s44.64,24.33,59.18,19.77,29.43-33.45,29.43-33.45l-1.32-3.92-9-26.44c2.81-.41,5.54-1.51,8.46-1.71,45-2.88,62.4-59.69,50-107C2015.21,1037.87,2007.2,1023.26,1996.81,1012.11Z"/><g class="cls-25"><path class="cls-20" d="M1987.21,973.71c-48.9-12.94-103.06-4.57-145.78,22.52l39.22,100.33a135.32,135.32,0,0,0,23.92-59.45,55.82,55.82,0,0,0,56.35-5.84,15.21,15.21,0,0,1,4.9-2.94c2.76-.77,5.65.29,8.39,1.12a56.11,56.11,0,0,0,39.52-2.75c8.15-3.78,16-11,15.7-19.94-.16-4.4-2.33-8.49-5-12C2015.53,983.3,2001.25,977.42,1987.21,973.71Z"/></g><path class="cls-26" d="M2676.62,2401.58c-146.9,0-266,119.08-266,266h532C2942.59,2520.66,2823.51,2401.58,2676.62,2401.58Z"/><path class="cls-27" d="M2332.83,1149.38a18.81,18.81,0,0,0-23-13.41,15.81,15.81,0,0,0-2.08.68,18.87,18.87,0,0,0-11.33,22.28L2651,2509.73a18.92,18.92,0,0,0,20.82,13.86,16.55,16.55,0,0,0,2.16-.44,18.87,18.87,0,0,0,13.41-23Z"/><path class="cls-26" d="M2296.44,1158.93,2651,2509.73a18.92,18.92,0,0,0,20.82,13.86l-364-1386.94A18.87,18.87,0,0,0,2296.44,1158.93Z"/><path class="cls-28" d="M2673.23,2420.55c-146.89,0-266,119.08-266,266h532C2939.21,2539.63,2820.12,2420.55,2673.23,2420.55Z"/><path class="cls-27" d="M2673.23,2437.27c-146.89,0-266,119.08-266,266h532C2939.21,2556.35,2820.12,2437.27,2673.23,2437.27Z"/><path class="cls-6" d="M2676.62,2536.85A165.66,165.66,0,0,0,2511,2702.51h331.33A165.66,165.66,0,0,0,2676.62,2536.85Z"/><path class="cls-27" d="M2673.23,2589.22a114,114,0,0,0-114,114h228A114,114,0,0,0,2673.23,2589.22Z"/><path class="cls-29" d="M2003.7,1026.1a22.4,22.4,0,0,0-3.19-.95,26.22,26.22,0,0,0-3.21-.54,22.61,22.61,0,0,0-6.65.28,17.74,17.74,0,0,0-6.42,2.58,19.89,19.89,0,0,0-5.08,4.81,1.92,1.92,0,0,0-.13.17,3,3,0,1,0,5,3.47l.16-.23a14.2,14.2,0,0,1,3.23-3.66,12.27,12.27,0,0,1,4.41-2.24,17.77,17.77,0,0,1,5.19-.66,19,19,0,0,1,2.71.21,18.52,18.52,0,0,1,2.59.52l.15,0a2,2,0,0,0,1.24-3.8Z"/><path class="cls-29" d="M1930.88,1040.28a13.35,13.35,0,0,0-1.45-.74c-.46-.21-.93-.38-1.4-.56a22.18,22.18,0,0,0-2.87-.79,24,24,0,0,0-5.93-.47,26.47,26.47,0,0,0-5.87,1c-1,.22-1.87.62-2.82.93s-1.8.79-2.7,1.19l-.24.12a3,3,0,1,0,3,5.33l.25-.14c.7-.38,1.38-.81,2.09-1.18s1.44-.73,2.19-1a21.55,21.55,0,0,1,4.6-1.23,19.36,19.36,0,0,1,4.75-.09,18.3,18.3,0,0,1,2.35.4c.38.11.77.2,1.13.33s.76.28,1,.37l.25.1a2,2,0,0,0,1.73-3.57Z"/><path class="cls-20" d="M1971.76,1100.25c1.07,5.35,2.43,11.74,13.64,8.66,15.23-4.2-4.59-34-4.59-34C1973.31,1069.34,1970.7,1094.89,1971.76,1100.25Z"/><path class="cls-29" d="M1932.52,1068.09a8.93,8.93,0,1,0,11.71,4.73A8.93,8.93,0,0,0,1932.52,1068.09Z"/><path class="cls-29" d="M1999.52,1059.16a8.92,8.92,0,1,0,11.7,4.72A8.91,8.91,0,0,0,1999.52,1059.16Z"/><path class="cls-30" d="M1909.8,1092.62a18,18,0,1,0,17.48,18.45A18,18,0,0,0,1909.8,1092.62Z"/><path class="cls-6" d="M1961.74,1143.11c16,0,25.66-18.81,25.66-18.81s-29.08-2.28-40.47-4.56S1945.79,1143.11,1961.74,1143.11Z"/><path class="cls-20" d="M1876.9,1127a24.11,24.11,0,0,0-1.05-2.61,22.56,22.56,0,0,0-1.44-2.46,17.22,17.22,0,0,0-9-6.87,16.69,16.69,0,0,0-10.84.09,26.94,26.94,0,0,1,9.63,2.8,18.57,18.57,0,0,1,6.88,6.22,23.39,23.39,0,0,1,2.26,4.19A40.45,40.45,0,0,1,1875,1133c.94,3.21,1.58,6.59,2.36,10.08a30,30,0,0,0,.72-10.7A26.11,26.11,0,0,0,1876.9,1127Z"/><path class="cls-20" d="M1863.42,1122a10.8,10.8,0,0,0-3.64,1.65,12.72,12.72,0,0,0-4.5,6.08,14,14,0,0,0-.69,7.11c1.19-2.07,2.28-4,3.49-5.69a16.62,16.62,0,0,1,4-4.23,11.11,11.11,0,0,1,5.18-2,39.37,39.37,0,0,1,6.57-.09,12.09,12.09,0,0,0-6.52-3.06A10.74,10.74,0,0,0,1863.42,1122Z"/><path class="cls-20" d="M1909.31,1156.78c-21.84-12.15,7,44.07,48.83,35.73q6.73-1.34,12.06-2.42l-9-26.44S1931.17,1168.94,1909.31,1156.78Z"/><g class="cls-12"><polygon points="1770.01 1505.59 1793.24 1485.83 1793.24 1642.38 1907.23 1630.64 1841.87 1428.08 1770.01 1505.59"/></g><g class="cls-12"><polygon points="2109.36 1446.32 2160.45 1395.93 2080.48 1329.3 2109.36 1446.32"/></g><path class="cls-20" d="M2340,1311.81c-8.19,0-14.82,11.06-14.82,24.69a37.17,37.17,0,0,0,2.42,13.5c2.62,6.74,7.2,11.21,12.4,11.21,8.18,0,14.82-11,14.82-24.71,0-8.32-2.47-15.68-6.25-20.15C2346.14,1313.47,2343.18,1311.81,2340,1311.81Z"/><path class="cls-18" d="M2340,1311.81c-8.19,0-14.82,11.06-14.82,24.69a37.17,37.17,0,0,0,2.42,13.5c2.41,2.87,5.38,4.56,8.57,4.56,8.18,0,14.82-11.06,14.82-24.69a37.12,37.12,0,0,0-2.42-13.52C2346.14,1313.47,2343.18,1311.81,2340,1311.81Z"/><ellipse class="cls-20" cx="2393.58" cy="1331.95" rx="22.16" ry="13.3"/><ellipse class="cls-18" cx="2398.84" cy="1331.95" rx="22.16" ry="13.3"/><ellipse class="cls-18" cx="2393.58" cy="1361.21" rx="26.6" ry="15.96"/><path class="cls-18" d="M2393.58,1374.12c-12.6,0-22.8,6.13-22.8,13.68s10.2,13.68,22.8,13.68,22.79-6.12,22.79-13.68S2406.17,1374.12,2393.58,1374.12Z"/><ellipse class="cls-18" cx="2403.45" cy="1413.07" rx="21.22" ry="12.73"/><polygon class="cls-31" points="2748.54 1151.14 2721.11 1176.58 2178.5 1435.11 2195.97 1471.79 2198.47 1477.06 2211.24 1503.83 2752.77 1245.79 2791.52 1241.37 2928.27 1176.2 2939.27 1143.07 2949.32 1112.84 2950.45 1109.42 2885.29 1085.99 2748.54 1151.14"/><polygon class="cls-6" points="2765.05 1194.74 2737.62 1220.18 2198.47 1477.06 2211.24 1503.83 2752.77 1245.79 2791.52 1241.37 2928.27 1176.2 2939.27 1143.07 2901.8 1129.59 2765.05 1194.74"/><path class="cls-27" d="M2196,1471.78l-17.46-36.66-42.73-89.64-119.05,56.72,15,31.42L1690,1596.44l-101.24,48.24-102.14,48.65c-45.39,21.64-62.6,80.41-38.34,131.32l1.57,2.64c25,48.93,80,71.5,124.55,50.27l102.13-48.65,101.25-48.26,341.71-162.8,15.39,32.3,119.05-56.72-42.68-89.62ZM1539.3,1716.72l506-241.11,15.28,32-506,241.11Zm49.9,104.76-15.25-32,506-241.11,15.28,32Z"/><rect class="cls-32" x="1519.68" y="1594.45" width="560.54" height="35.48" transform="translate(-518.44 931) rotate(-25.48)"/><rect class="cls-32" x="1554.33" y="1667.17" width="560.54" height="35.48" transform="translate(-546.36 952.98) rotate(-25.48)"/><g class="cls-33"><path class="cls-34" d="M1756,1565l-66,31.41-31.43,15-69.81,33.26-102.14,48.65c-45.39,21.64-62.6,80.41-38.34,131.32l1.57,2.64c25,48.93,80,71.5,124.55,50.27l102.13-48.65,79.68-38,21.57-10.28L1888.2,1728l231.28-110.18-87.77-184.23Z"/></g><g class="cls-35"><path d="M1833.76,1638.66c-22.55-18.53-41.31-49.83-63.75-80.34l-80,38.12-31.43,15,97.64,179.51,21.57-10.28L1888.2,1728C1879.85,1706.81,1855.82,1656.81,1833.76,1638.66Z"/></g><path class="cls-18" d="M1854.59,1715.33c2.47-4.56,2.09-18.24,0-30.39s-41.6-33.44-41.6-33.44l-88-130.71,27.27-32-106.78-101s-55.87,46.35-60.43,123.86,152,215.82,152,215.82,14.36,54.72,33,63.84,45.84-10.64,59.61-15.2,40.23-16.72,34.6-28.88S1852.12,1719.89,1854.59,1715.33Z"/><g class="cls-36"><path class="cls-20" d="M1747.44,1373.19c-11-14.38-25.5-25.72-40.09-36.48s-29.27-20.93-44.33-30.76c-6-3.93-14.2-7.75-19.86-3.31l-10.78,61.41q45.12,72.75,95.9,141.77c5.32,7.22,11,14.65,18.89,18.81s18.9,4,24.78-2.76c2.87-3.3,4.16-7.67,5.14-11.94,6.17-26.83,2.9-55.07-4.3-81.63C1767.46,1408.66,1759.84,1389.32,1747.44,1373.19Z"/><path class="cls-20" d="M1858.62,1683.76c-1.27-5.89-2.67-12-6.57-16.64l-3.67.35c4.41,8,3,18,.57,26.83s-5.84,17.75-5.06,26.9c1,11.92,8.91,22,16.47,31.25,1.58,1.94,3.48,4,6,4.15,2.7.11,5-2.32,5.62-4.94s.09-5.38-.48-8Z"/><path class="cls-20" d="M1854.71,1761.83c-5.13.16-10.47-.37-15.24,1.53-8,3.2-12.57,12.52-20.83,15.05-6,1.85-12.74-.41-18.82,1.3-8.27,2.33-12.9,11.07-20.15,15.67a23,23,0,0,1-26.56-1.91l11.48,18.78c2.38,3.71,7.82,3.42,12.17,2.64,32.74-5.87,66.21-15.46,91.09-37.54,6.39-5.67,12.55-13.49,10.94-21.88A55.35,55.35,0,0,1,1854.71,1761.83Z"/><path class="cls-20" d="M1578.85,1457.46l-33.75,24.12c-12.14,32.89-4.83,72.18,18.33,98.5,4,4.55,8.75,8.91,14.66,10.25,6.69,1.52,13.84-1.2,18.94-5.78s8.44-10.81,11-17.17a101.56,101.56,0,0,0-3-81.9C1599.22,1473.8,1590.69,1462.89,1578.85,1457.46Z"/></g></g></svg>