<svg xmlns="http://www.w3.org/2000/svg" xmlns:xlink="http://www.w3.org/1999/xlink" viewBox="0 0 4680 3120"><defs><style>.cls-1{fill:none;}.cls-2,.cls-7{fill:#fff;}.cls-2{opacity:0;}.cls-3{fill:#f0f5ff;}.cls-4{fill:#d4e5ff;}.cls-5{fill:#a2badb;}.cls-6{fill:#82c3ed;}.cls-8{fill:#e54a4a;}.cls-9{clip-path:url(#clip-path);}.cls-10{opacity:0.7;}.cls-11{fill:#ffd56c;}.cls-12{opacity:0.5;}.cls-13{fill:#6d0b0b;}.cls-14{clip-path:url(#clip-path-2);}.cls-15{fill:#4c0808;}.cls-16{fill:#fcb8a5;}.cls-17{clip-path:url(#clip-path-3);}.cls-18{fill:#ff8569;}.cls-19{fill:#2b0a07;}.cls-20{fill:#5b1307;}.cls-21{fill:#f76148;}.cls-22{clip-path:url(#clip-path-4);}.cls-23{fill:#344058;}.cls-24{opacity:0.65;}.cls-25{fill:#aaddf9;}.cls-26{fill:#ff8f8f;}.cls-27{fill:#fffffe;}.cls-28{fill:#bf2b2b;}.cls-29{opacity:0.3;}.cls-30{clip-path:url(#clip-path-5);}.cls-31{fill:#ffc06c;}.cls-32{fill:#a3aab5;}.cls-33{fill:#1d6693;}.cls-34{fill:#5b9fdd;}.cls-35{fill:#2c77af;}.cls-36{fill:#cacfd8;}.cls-37{clip-path:url(#clip-path-6);}.cls-38{clip-path:url(#clip-path-7);}.cls-39{fill:#e88725;}.cls-40{fill:#f79c39;}.cls-41{fill:#bfa68e;}.cls-42{fill:#dee4f2;}.cls-43{clip-path:url(#clip-path-8);}</style><clipPath id="clip-path"><path class="cls-1" d="M3359.17,2548.25c-68.18-133.73-154.71-91.78-154.71-91.78l-105,238.86a738.11,738.11,0,0,1-182.11,26.54l-528.74,10.49c-3-65-6.22-150.94-7.53-235.29-27.37-102.66-74.2-169-115.9-210.36-46.17-45.81-86-61-86-61s141.6-236,225.51-317.28,136.36-62.94,258.89-55.07,147.16,0,147.16,0c86.11-56.82,296.7,13.11,467.14,94.4S3513.88,2217.86,3359.17,2548.25Z"/></clipPath><clipPath id="clip-path-2"><path class="cls-1" d="M2908.15,1162.42s45.89-34.09,90.47-15.73c-34.09,15.73-35.4,30.15-35.4,30.15s90.46,5.25,127.17,74.74c64.25,57.68,51.14,129.79,36.71,166.5s-61.94,86.13-61.94,86.13l-425.78,47.61-24.44-55.27s-4.41,18.14-33.25,27.53c22.29-27.53,9.17-19.87,9.17-19.87s-6.55,30.56-43.26,25.32l-36.71-5.25,40.64-20.07s-59,12.21-89.15-21.88c66.86-10.49,91.77-47.2,87.84-68.18S2537.11,1044.42,2908.15,1162.42Z"/></clipPath><clipPath id="clip-path-3"><path class="cls-1" d="M3121.73,1609.22c-26.3,41.06-76.12,56.09-111.34,33.56-1.23-.79-2.41-1.63-3.59-2.49a202,202,0,0,1-17.68,39.44l-6.81,151.8,48.53,21s-169.89,138.09-220.1,136.36-68.65-40.23-86.12-78.67-34.51-52.44-34.51-52.44,38-3.52,57.06-19.25a21.26,21.26,0,0,0,3.78-4.19c7.87-11.25,12.48-34.56,15.18-55.12-84.88-10.44-151.19-83.26-151.19-170.87V1496.54s17.88-21.34,28.37-75.83,53.6-60.31,73.34-39.34c19.75-15.15,45.39-17,52.89,21s19.82,70.49,59.94,82.6,108.48-2.62,108.48-2.62-50.37-13.11-61.72-70.8c42.4,40.62,81.73,56.38,89.6,57.69s0-35.87,0-35.87l50.69,69.54c26.93-21.35,62.22-26,89-8.81C3140.76,1516.6,3148,1568.15,3121.73,1609.22Z"/></clipPath><clipPath id="clip-path-4"><path class="cls-1" d="M2096.92,1836.49s-161.26,240-157.32,500.83,125.86,280.54,200.58,268.74,240.91-109,240.91-109-44.34-163.3-123.13-217.31c.22-114.18,4.15-402,4.15-402Z"/></clipPath><clipPath id="clip-path-5"><path class="cls-1" d="M3237.28,2450.8s-10.92-81.84-35-107,14.82-82.46-14.81-84-59,22.26-53.94,62.16c2.12,16.62-16.9,51.05-16.9,51.05s-79.64-32-92.7-11-8.45,35.91-17.8,42.82S2985,2453,2985,2453s-21.53,33.83-18.85,40.24-34.61,19.55-19.32,41.84,45.1,81.45,87.72,84.82c19.34,1.53,49.2,3.39,76.06,5a102.08,102.08,0,0,0,98.69-58.87C3223.16,2536.09,3235.78,2496.7,3237.28,2450.8Z"/></clipPath><clipPath id="clip-path-6"><path class="cls-1" d="M1885.8,519.07l-64.53-16.13a68,68,0,0,0-66.48,19.9l-12.85,13.95a43.28,43.28,0,0,0-11.37,26.94l-14.86,269.18h42.6l12.29-240.83a43.3,43.3,0,0,1,51.22-40.35l54,10.13a12.06,12.06,0,0,0,13.92-8.93l4.81-19.23A12.06,12.06,0,0,0,1885.8,519.07Z"/></clipPath><clipPath id="clip-path-7"><path class="cls-1" d="M1758.5,697.55l405.16-147.33v47.2L1771.87,735a19.87,19.87,0,0,1-26.45-18.75h0A19.88,19.88,0,0,1,1758.5,697.55Z"/></clipPath><clipPath id="clip-path-8"><path class="cls-1" d="M1439.27,1386.05l356.43-80.15a12.06,12.06,0,0,1,4.36-.17l279,40.2a12.05,12.05,0,0,0,13.76-11.27l50.34-911.84a43.24,43.24,0,0,1,11.38-26.94l12.84-13.95a68,68,0,0,1,66.48-19.9l64.53,16.14a12,12,0,0,1,8.77,14.62L2302.33,412a12,12,0,0,1-13.92,8.92l-54-10.13a43.3,43.3,0,0,0-34,7.92h0a43.28,43.28,0,0,0-17.26,32.43l-47.23,925.59a12.06,12.06,0,0,1-14,11.29l-315-51.27a12.21,12.21,0,0,0-4.22.07l-253,48.74c-13.1,2.52-13,21.3.12,23.7l126.5,23.12a12.06,12.06,0,0,1,7.17,19.49h0a12.06,12.06,0,0,1-11.66,4.21l-231.46-45.38a12.08,12.08,0,0,1-7.21-4.44l-.84-1.09A12.06,12.06,0,0,1,1439.27,1386.05Z"/></clipPath></defs><title>02</title><g id="_02" data-name="02"><rect id="_02-2" data-name="02" class="cls-2" width="4680" height="3120"/><path class="cls-3" d="M2896.83,812.31,2301.3,904.9a737.59,737.59,0,0,1-261.12-6.22l-15.94-3.28c-323.84-66.23-652.06,90.57-817.76,390.74l-52.13,94.45c-148.94,269.77-138.42,605.33,27.06,864.2l87.4,136.72c146.84,229.65,394.41,365.24,657.44,360l462.37-9.17,528.74-10.49a738.11,738.11,0,0,0,182.11-26.54c235.89-65.13,433.05-245.17,524.62-491.14l107.35-288.39a851,851,0,0,0,53.37-297c0-219.37-84.23-434.36-241.35-591.28C3370.81,855,3132.35,775.68,2896.83,812.31Z"/><path class="cls-4" d="M3498,1209.57c-334.1,70.58-180.55,868.52-180.55,868.52s405.72-611.23,285.6-822.37C3582.18,1219.06,3539.27,1200.85,3498,1209.57Z"/><path class="cls-5" d="M3461.11,1540.35a2,2,0,0,0-2.78.54c-52.78,78-92.26,188-117.34,326.88-20,111-31,240.67-32.56,385.36-2.65,246.31,23.24,453.64,23.5,455.7a2,2,0,0,0,2,1.75,1.06,1.06,0,0,0,.25,0,2,2,0,0,0,1.74-2.23c-.26-2.06-26.12-209.16-23.47-455.2,1.56-144.46,12.49-273.89,32.5-384.67,25-138.34,64.25-247.79,116.71-325.33A2,2,0,0,0,3461.11,1540.35Z"/><path class="cls-4" d="M3774,1667c-256.78-40.41-364,568.78-364,568.78s454.35-324.71,426.18-507.46C3831.28,1696.6,3805.7,1672,3774,1667Z"/><path class="cls-5" d="M3655.63,1891.53c-58.75,41.2-116.7,108.77-172.25,200.82-44.38,73.55-87.35,162.82-127.71,265.34-68.7,174.5-106.52,329-106.9,330.56a2,2,0,0,0,1.47,2.41,2,2,0,0,0,.48.06,2,2,0,0,0,1.94-1.53c.37-1.53,38.13-155.78,106.73-330,40.28-102.31,83.15-191.38,127.41-264.73,55.26-91.57,112.84-158.73,171.13-199.62a2,2,0,1,0-2.3-3.27Z"/><path class="cls-4" d="M2743.54,1620c-31.14,4.9-56.25,29-61.05,60.19-27.66,179.39,418.33,498.13,418.33,498.13S2995.59,1580.28,2743.54,1620Z"/><path class="cls-5" d="M3154.18,2297.9c-39.62-100.64-81.8-188.27-125.36-260.46-54.53-90.36-111.42-156.69-169.09-197.14a2,2,0,1,0-2.3,3.27c57.21,40.13,113.72,106,168,195.91,43.45,72,85.52,159.42,125.06,259.83,67.34,171.05,104.42,322.5,104.79,324a2,2,0,0,0,1.94,1.53,1.89,1.89,0,0,0,.47-.06,2,2,0,0,0,1.47-2.42C3258.75,2620.86,3221.62,2469.19,3154.18,2297.9Z"/><path class="cls-4" d="M2849.18,2135.28c-17.58,7.33-28.88,25.09-27.25,44.07,9.38,109.27,316.75,232.71,316.75,232.71S2991.5,2076,2849.18,2135.28Z"/><path class="cls-5" d="M3187.75,2474.22c-37.66-53.46-75-98.92-110.89-135.12-45-45.34-88-76.22-127.71-91.77a2,2,0,1,0-1.45,3.72c39.21,15.35,81.71,45.92,126.31,90.85,35.75,36,72.91,81.31,110.44,134.59,63.94,90.76,107.32,174.35,107.75,175.19a2,2,0,1,0,3.55-1.84C3295.32,2649,3251.84,2565.21,3187.75,2474.22Z"/><path class="cls-4" d="M1811.3,1711.88c-22-20.05-54.79-22.9-80.59-8-208.83,120.35,68.54,622.38,68.54,622.38S1938.05,1827.35,1811.3,1711.88Z"/><path class="cls-5" d="M1834.68,2444.62c-30.5-97.27-51.43-186.49-62.19-265.18-13.44-98.23-11-180.19,7.25-243.61a2,2,0,1,0-3.84-1.1c-18.41,64-20.89,146.48-7.37,245.27,10.8,78.92,31.77,168.37,62.35,265.86,52,165.94,114.71,299.47,115.34,300.8a2,2,0,1,0,3.62-1.71C1949.21,2743.63,1886.63,2610.3,1834.68,2444.62Z"/><path class="cls-4" d="M2015.87,1950.59c-181.17,29-120,461.27-120,461.27s234-317.19,175.2-433.69C2060.8,1957.93,2038.26,1947,2015.87,1950.59Z"/><path class="cls-5" d="M1987.81,2126.38a2,2,0,0,0-2.8.4c-30.48,40.56-54.65,98.64-71.85,172.64-13.73,59.09-23.07,128.42-27.77,206.08-8,132.18.38,244.19.46,245.3a2,2,0,0,0,2,1.85h.16a2,2,0,0,0,1.84-2.14c-.08-1.12-8.43-112.9-.45-244.8,4.69-77.43,14-146.54,27.68-205.4,17.06-73.44,41-131,71.14-171.11A2,2,0,0,0,1987.81,2126.38Z"/><path class="cls-4" d="M1325.72,2221.55c-18.35,9.34-29.07,29.42-25.76,49.74,19.09,117,360.6,224.88,360.6,224.88S1474.29,2146,1325.72,2221.55Z"/><path class="cls-5" d="M1718.44,2559.26c-45-54.54-88.93-100.48-130.62-136.55-52.22-45.17-101.06-74.92-145.16-88.42a2,2,0,1,0-1.17,3.82c43.56,13.34,91.9,42.81,143.69,87.61,41.52,35.91,85.3,81.69,130.14,136.05,76.39,92.61,130,179.17,130.56,180a2,2,0,0,0,1.71.95,1.93,1.93,0,0,0,1.05-.3,2,2,0,0,0,.65-2.75C1848.76,2738.84,1795,2652.08,1718.44,2559.26Z"/><path class="cls-4" d="M1495.54,2520.35a28.76,28.76,0,0,0-8,32.88c27.93,66,243.84,80.53,243.84,80.53S1572,2454.74,1495.54,2520.35Z"/><path class="cls-5" d="M1774.82,2661.9c-53.88-40.32-131.35-89.17-194.47-92.85a2,2,0,1,0-.24,4c34.29,2,95.48,19.6,192.28,92a1108.2,1108.2,0,0,1,102.3,87,2,2,0,0,0,1.41.58,2,2,0,0,0,1.42-.59,2,2,0,0,0,0-2.83A1114,1114,0,0,0,1774.82,2661.9Z"/><path class="cls-6" d="M1554.84,388.65c-440.49,69.78-757.06,382.07-707.09,697.52C875.45,1261,1010,1400.1,1199.4,1477.5c46.42,117.35,169.08,338.46,463,467.34-126.44-165.8-154.83-292.07-151.47-401.09A1109.21,1109.21,0,0,0,1735.8,1531c440.48-69.77,757.05-382.06,707.08-697.51S1995.32,318.87,1554.84,388.65Z"/><path class="cls-7" d="M1663.29,1942.73l-8.15-3.74q2.68,3.63,5.38,7.25Z"/><path class="cls-7" d="M1510.82,1545.3l1.6.07,0-1.57Z"/><path class="cls-7" d="M1196.66,1478.58c.15.39.31.78.47,1.17l1.15.48Z"/><path class="cls-7" d="M2446.59,864.23c-.27-3.43-.69-6.85-1-10.28l-.54-5.13c-.2-1.71-.47-3.41-.7-5.12l-1.44-10.22,1.43,10.22c.23,1.71.5,3.41.7,5.12l.53,5.13c.34,3.43.76,6.85,1,10.28l.71,10.3a411.86,411.86,0,0,1,.38,41.28l-.19,5.16c0,1.72-.22,3.43-.33,5.15l-.73,10.3-1.07,10.26c-.19,1.71-.34,3.43-.56,5.13l-.71,5.12c-1.75,13.65-4.41,27.18-7.43,40.6l-2.43,10c-.82,3.34-1.8,6.64-2.69,10l-1.37,5c-.46,1.66-1,3.29-1.51,4.94l-3,9.86-3.35,9.76-1.69,4.88-1.83,4.83c-1.23,3.21-2.41,6.45-3.67,9.65l-3.94,9.54c-1.28,3.2-2.71,6.33-4.11,9.47s-2.78,6.3-4.26,9.4c-3,6.19-5.91,12.44-9.15,18.51-6.24,12.27-13.15,24.19-20.26,36-28.82,46.94-64.14,89.73-103.6,128.08a799.36,799.36,0,0,1-62.12,54.33q-32.47,25.5-67.24,47.86l-4.32,2.82-4.39,2.72-8.76,5.45c-5.85,3.62-11.81,7.07-17.71,10.6s-11.94,6.83-18,10.18l-9.07,4.92c-3,1.64-6,3.3-9.1,4.86q-36.55,19.17-74.59,35.3a1075,1075,0,0,1-156.35,52.47,1138.86,1138.86,0,0,1-162.38,28.68A1095.06,1095.06,0,0,1,1511,1542.2l-1.59-.08,0,1.58a513.9,513.9,0,0,0,8.22,109.27,546.44,546.44,0,0,0,31.64,104.93,731.6,731.6,0,0,0,49.54,97.79c17.43,28.69,36.46,56.33,56.4,83.3l8.15,3.74-2.77,3.51q-2.7-3.62-5.38-7.25l-11-5c-3.18-1.49-6.4-2.88-9.54-4.44l-9.42-4.67-9.43-4.67-4.72-2.33c-1.56-.78-3.1-1.64-4.65-2.45l-18.56-9.9q-36.81-20.38-71.87-43.69c-46.39-31.5-90.1-67-129.65-106.77a851.6,851.6,0,0,1-106.22-130q-23.19-35.07-42.84-72.3a800.51,800.51,0,0,1-35.12-76.31l-.46-1.17-1.17-.48a771.08,771.08,0,0,1-77-36.65,661.88,661.88,0,0,1-72.12-45.47l-8.6-6.3c-2.87-2.1-5.62-4.34-8.44-6.51s-5.65-4.31-8.38-6.59l-8.22-6.78c-1.36-1.14-2.75-2.25-4.09-3.41l-4-3.52-8-7-7.81-7.26c-2.59-2.42-5.22-4.81-7.71-7.34l-7.57-7.5-1.89-1.88-1.83-1.93-3.66-3.87-3.67-3.87c-1.21-1.29-2.45-2.56-3.61-3.91l-7.08-8c-2.39-2.62-4.64-5.37-6.91-8.1l-6.79-8.2-6.52-8.42-3.27-4.2-3.12-4.32-6.23-8.63L918,1256.3l-3-4.42c-1-1.47-1.88-3-2.83-4.5l-5.62-9c-7.16-12.24-14.1-24.64-20.08-37.52a420.17,420.17,0,0,1-28.72-80c-1-3.41-1.61-6.9-2.41-10.36l-1.14-5.2c-.38-1.73-.79-3.45-1.08-5.2-1.21-7-2.64-13.95-3.51-21l-.75-5.27-.37-2.63-.29-2.64L847.1,1058c-.37-3.52-.53-7.07-.8-10.61l-.38-5.3-.19-5.32a425.13,425.13,0,0,1,5.1-84.85l1.8-10.49c.62-3.5,1.41-7,2.1-10.44l1.08-5.22,1.23-5.18c.85-3.44,1.63-6.91,2.52-10.34,3.61-13.74,7.83-27.31,12.56-40.71,1.21-3.34,2.49-6.65,3.74-10l1.88-5,2-4.93c1.37-3.28,2.67-6.59,4.09-9.84l4.34-9.74c6-12.9,12.27-25.65,19.24-38,3.35-6.28,7.08-12.33,10.65-18.48l5.64-9.06,2.82-4.52,2.94-4.46,5.89-8.9,6.11-8.74,3.06-4.37,3.17-4.29,6.34-8.59,6.55-8.43,3.28-4.21,3.38-4.13,6.75-8.27,7-8.1,3.48-4.05,3.56-4,7.15-7.93c2.41-2.62,4.87-5.19,7.31-7.78s4.86-5.2,7.39-7.71c39.78-40.79,84.29-76.87,131.7-108.51a965.23,965.23,0,0,1,150.21-81.41,1079.37,1079.37,0,0,1,161.79-55.27A1139.19,1139.19,0,0,1,1622,381.12a1096.23,1096.23,0,0,1,171-3.78q42.75,2.4,85.19,8.48t84.16,15.76q41.7,9.81,82.32,23.56a797.62,797.62,0,0,1,79.54,31.69c51.85,23.9,101.09,53.71,145.37,89.83s83.24,78.88,113.37,127.46c7.61,12.08,14.45,24.64,20.83,37.42l4.67,9.63,4.36,9.79c1.5,3.24,2.79,6.57,4.14,9.87s2.75,6.6,3.92,10l3.68,10.06c1.17,3.37,2.23,6.78,3.36,10.17.54,1.7,1.12,3.39,1.64,5.1l1.49,5.14c1,3.44,2,6.85,2.91,10.31,3.67,13.81,6.52,27.81,8.88,41.9-2.35-14.09-5.19-28.1-8.85-41.91-.87-3.46-1.94-6.87-2.91-10.31l-1.48-5.15c-.52-1.7-1.09-3.39-1.64-5.09-1.12-3.39-2.18-6.8-3.35-10.18L2421,750.78c-1.17-3.38-2.61-6.65-3.92-10s-2.63-6.64-4.13-9.88l-4.35-9.79-4.67-9.64c-6.37-12.78-13.2-25.35-20.81-37.45-30.1-48.61-69.14-91.39-113.32-127.58s-93.44-66.14-145.28-90.15A801.36,801.36,0,0,0,2045,424.44q-40.57-13.8-82.35-23.74a998.06,998.06,0,0,0-169.47-24.84,1100.06,1100.06,0,0,0-171.33,3.19,1141.47,1141.47,0,0,0-168.9,29.19,1081.67,1081.67,0,0,0-162.43,54.87,969.31,969.31,0,0,0-151,81.19c-47.71,31.61-92.57,67.72-132.73,108.61-2.55,2.52-5,5.14-7.47,7.73s-5,5.18-7.38,7.81l-7.22,8-3.6,4-3.51,4.06-7,8.14-6.83,8.3-3.41,4.15-3.32,4.23-6.63,8.46-6.41,8.63-3.21,4.32-3.1,4.39-6.19,8.79-6,9-3,4.48-2.87,4.55L913.87,771c-3.62,6.19-7.41,12.29-10.81,18.61a529.43,529.43,0,0,0-35.85,78.19c-4.8,13.53-9.1,27.24-12.77,41.13-.92,3.47-1.71,7-2.57,10.46l-1.27,5.24-1.09,5.27c-.72,3.52-1.52,7-2.15,10.56L845.51,951a431.39,431.39,0,0,0-5.34,85.93l.19,5.39.36,5.38c.27,3.58.43,7.17.79,10.75l1.11,10.73.29,2.68.37,2.67.74,5.34c.87,7.14,2.31,14.19,3.52,21.27.29,1.78.7,3.53,1.08,5.28l1.15,5.27c.8,3.51,1.45,7,2.42,10.51a426.38,426.38,0,0,0,29,81.08c6,13,13.07,25.61,20.32,38l5.68,9.16c1,1.52,1.87,3.07,2.87,4.56l3,4.48,6,8.94,6.3,8.74,3.16,4.37,3.3,4.26,6.6,8.52,6.86,8.3c2.29,2.77,4.57,5.55,7,8.2l7.14,8.06c1.18,1.37,2.43,2.65,3.66,4l3.7,3.91,3.7,3.92,1.85,2,1.91,1.9,7.64,7.59c2.52,2.56,5.18,5,7.8,7.43l7.88,7.33,8.09,7.11,4,3.55c1.35,1.18,2.75,2.3,4.13,3.45l8.3,6.86c2.75,2.3,5.64,4.44,8.45,6.66s5.63,4.45,8.52,6.58l8.68,6.37a658.9,658.9,0,0,0,72.77,45.84,773.85,773.85,0,0,0,76.52,36.41c-.16-.39-.32-.78-.47-1.17l1.62,1.65-1.15-.48a808.68,808.68,0,0,0,35,75.7q19.82,37.41,43.19,72.77a850.38,850.38,0,0,0,107.15,130.71c39.89,39.93,84,75.57,130.67,107.15q35.22,23.45,72.38,43.74l18.7,9.88c1.56.81,3.1,1.66,4.68,2.44l4.75,2.33,9.49,4.66,9.49,4.66c3.16,1.56,6.4,2.94,9.6,4.42l19.24,8.75,8.25,3.74-5.48-7.26c-21.92-29.06-42.82-58.9-61.82-89.94a728.27,728.27,0,0,1-49.61-97.07A542.92,542.92,0,0,1,1521,1652.31a509.75,509.75,0,0,1-8.56-106.94l-1.6-.07,1.63-1.5,0,1.57a1099.11,1099.11,0,0,0,163.58-5.25,1140.58,1140.58,0,0,0,162.61-29.3,1077.32,1077.32,0,0,0,156.4-53.09,971.23,971.23,0,0,0,145.83-77.41q34.68-22.46,67.2-48a798.94,798.94,0,0,0,62.06-54.51c39.43-38.44,74.62-81.37,103.43-128.33,7.11-11.79,14-23.72,20.24-36,3.24-6.07,6.13-12.33,9.14-18.52,1.48-3.11,2.83-6.27,4.25-9.41s2.83-6.27,4.11-9.47l3.93-9.55c1.26-3.2,2.45-6.44,3.67-9.65l1.83-4.84,1.68-4.88,3.35-9.77,3.05-9.86c.49-1.65,1-3.28,1.49-4.94l1.37-5c.9-3.33,1.87-6.63,2.69-10l2.42-10c3-13.43,5.67-27,7.4-40.62l.71-5.11c.23-1.71.37-3.43.56-5.14l1.07-10.27.72-10.3c.1-1.72.27-3.43.33-5.15l.18-5.16c.63-13.76.33-27.54-.41-41.28Z"/><path class="cls-8" d="M3277.88,1947.77c-170.44-81.29-381-151.22-467.14-94.4,0,0-24.6,7.87-147.16,0s-175-26.22-258.89,55.07-225.51,317.28-225.51,317.28,39.84,15.18,86,61c41.7,41.33,88.53,107.7,115.9,210.36,1.31,84.35,4.57,170.31,7.53,235.29l528.74-10.49a738.11,738.11,0,0,0,182.11-26.54l105-238.86s86.53-41.95,154.71,91.78C3513.88,2217.86,3448.33,2029.06,3277.88,1947.77Z"/><g class="cls-9"><g class="cls-10"><rect class="cls-11" x="2614.94" y="2099.75" width="101.72" height="29.35" rx="5.6" transform="translate(-700.06 1616.18) rotate(-30)"/></g><g class="cls-10"><rect class="cls-11" x="2506.62" y="1885.26" width="101.72" height="29.35" rx="5.6" transform="translate(-607.33 1533.28) rotate(-30)"/></g><g class="cls-10"><path class="cls-11" d="M2395.82,2081.13a5.61,5.61,0,0,0-7.65-2.05l-78.4,45.26a5.63,5.63,0,0,0-2.05,7.65l9.08,15.72a5.61,5.61,0,0,0,7.65,2.05l78.4-45.27a5.61,5.61,0,0,0,2-7.64Z"/></g><g class="cls-10"><rect class="cls-11" x="2945.18" y="2063.42" width="101.72" height="29.35" rx="5.6" transform="translate(-637.65 1776.43) rotate(-30)"/></g><g class="cls-10"><rect class="cls-11" x="3243.12" y="2063.42" width="101.72" height="29.35" rx="5.6" transform="translate(-597.74 1925.39) rotate(-30)"/></g><g class="cls-10"><path class="cls-11" d="M2938.27,1876.3a5.61,5.61,0,0,0-7.65-2l-78.4,45.26a5.63,5.63,0,0,0-2,7.65l9.08,15.72a5.61,5.61,0,0,0,7.65,2l78.4-45.27a5.61,5.61,0,0,0,2-7.64Z"/></g><g class="cls-10"><rect class="cls-11" x="2531.26" y="2364.27" width="101.72" height="29.35" rx="5.6" transform="translate(-843.53 1609.78) rotate(-30)"/></g><g class="cls-10"><rect class="cls-11" x="2347.04" y="2547.12" width="101.72" height="29.35" rx="5.6" transform="translate(-959.64 1542.17) rotate(-30)"/></g><g class="cls-10"><rect class="cls-11" x="2507.55" y="2590.67" width="101.72" height="29.35" rx="5.6" transform="translate(-959.91 1628.26) rotate(-30)"/></g><g class="cls-10"><rect class="cls-11" x="2823.2" y="2321.53" width="101.72" height="29.35" rx="5.6" transform="translate(-783.05 1750.02) rotate(-30)"/></g><g class="cls-10"><rect class="cls-11" x="3088.09" y="2255.49" width="101.72" height="29.35" rx="5.6" transform="translate(-714.54 1873.62) rotate(-30)"/></g><g class="cls-10"><rect class="cls-11" x="3014.3" y="2463.47" width="101.72" height="29.35" rx="5.6" transform="translate(-828.42 1864.59) rotate(-30)"/></g><g class="cls-10"><rect class="cls-11" x="2788.32" y="2593.94" width="101.72" height="29.35" rx="5.6" transform="translate(-923.93 1769.07) rotate(-30)"/></g><g class="cls-10"><path class="cls-11" d="M3449.51,2345.65a5.61,5.61,0,0,0-7.65-2.05l-78.4,45.26a5.63,5.63,0,0,0-2.05,7.65l9.08,15.72a5.61,5.61,0,0,0,7.65,2.05l78.4-45.27a5.61,5.61,0,0,0,2-7.64Z"/></g></g><g class="cls-12"><path d="M2381.09,2497.06l38.34-368-154.24,157.62C2306.88,2328,2353.71,2394.41,2381.09,2497.06Z"/></g><g class="cls-12"><polygon points="3034.58 2619.93 3154.92 2529.42 3117.93 2222.55 3034.58 2619.93"/></g><path class="cls-13" d="M3090.39,1251.58c-36.71-69.49-127.17-74.74-127.17-74.74s1.31-14.42,35.4-30.15c-44.58-18.36-90.47,15.73-90.47,15.73-371-118-361.86,230.75-357.93,251.73s-21,57.69-87.84,68.18c30.15,34.09,89.15,21.88,89.15,21.88l-40.64,20.07,36.71,5.25c36.71,5.24,43.26-25.32,43.26-25.32s13.12-7.66-9.17,19.87c28.84-9.39,33.25-27.53,33.25-27.53l24.44,55.27,425.78-47.61s47.52-49.41,61.94-86.13S3154.64,1309.26,3090.39,1251.58Z"/><g class="cls-14"><path class="cls-15" d="M2870,1295.39c-.24-.44-.51-.86-.75-1.29-4.81,1.88-9.5,4-14,6.17Z"/><path class="cls-15" d="M3059.51,1505.09a131,131,0,0,1-60.73-77.85c-6.29-22.6-6.32-46.42-10.17-69.56s-12.54-47-31.37-61c-24.73-18.36-58.53-14.13-88-2.56.24.43.51.85.75,1.29l-14.76,4.88c4.51-2.21,9.2-4.29,14-6.17-19.08-33.16-64.36-40.93-102.61-36.6-29.25,3.31-58.34,11.6-83.1,27.52s-44.93,40-52.89,68.3c-5.46,19.44-5.29,40.66-14.68,58.53-9.2,17.52-26.47,29.42-44.41,37.77-36.09,16.8-76.34,21.75-115,31.22-16.2,4-33.09,9.32-44.16,21.78-15.3,17.22-15.09,44.35-4.61,64.86s29.29,35.48,48.81,47.71c61.53,38.54,134.66,55.83,207.21,58.68s145-8.09,216.11-22.53c64-13,128.5-29.25,185.15-61.86,33.93-19.52,64.43-44.59,92.38-72A131,131,0,0,1,3059.51,1505.09Z"/><path class="cls-15" d="M2959.63,1217.14c-14-8.08-33.5-8.42-45.25,2.74,1.59-7.82-4-15.38-10.39-20.11-16.32-12-60.21,10-60.21,10,24.28-6.16,52,7.72,61.68,30.84,26.75-15.52,64-9.61,84.67,13.43C2983.12,1239.41,2973.67,1225.22,2959.63,1217.14Z"/><path class="cls-15" d="M2519.92,1350.45c-2.89,7.4-4.89,17.08,1.17,22.2l1.15,69.83a116.81,116.81,0,0,0,44.84-58.68c5.92-17.36,7.62-35.83,11.59-53.74,11.2-50.66,42.71-98.16,89.12-121.36C2601.11,1231.52,2545.54,1284.8,2519.92,1350.45Z"/><path class="cls-15" d="M3049.49,1321.72l.23,5.47c7.51,6,9.65,18.2,9.87,29.11.6,29.6-18.85,54.63-26.38,82.81s-11.93,61.59,1.81,90.61c12.17,25.68,25.27,56.1,49.74,55.54-17.49-24.7-23.07-60.93-14.1-91.59,5.59-19.15,16.2-35.57,22.87-54.2,8.25-23,10.11-50,2.39-73.32S3070.14,1324.16,3049.49,1321.72Z"/></g><path class="cls-16" d="M3105.57,1494.08c-26.82-17.18-62.11-12.54-89,8.81l-50.69-69.54s7.86,37.18,0,35.87-47.2-17.07-89.6-57.69c11.35,57.69,61.72,70.8,61.72,70.8s-68.36,14.74-108.48,2.62-52.44-44.58-59.94-82.6-33.14-36.13-52.89-21c-19.74-21-62.85-15.15-73.34,39.34s-28.37,75.83-28.37,75.83v111.78c0,87.61,66.31,160.43,151.19,170.87-2.7,20.56-7.31,43.87-15.18,55.12a21.26,21.26,0,0,1-3.78,4.19c-19.09,15.73-57.06,19.25-57.06,19.25s17,14,34.51,52.44,35.87,76.91,86.12,78.67,220.1-136.36,220.1-136.36l-48.53-21,6.81-151.8a202,202,0,0,0,17.68-39.44c1.18.86,2.36,1.7,3.59,2.49,35.22,22.53,85,7.5,111.34-33.56S3140.76,1516.6,3105.57,1494.08Z"/><g class="cls-17"><path class="cls-18" d="M2834.58,1259.46c-56.8-14.53-116.59-20.33-174.24-9.66s-113.1,38.79-150.62,83.84c-10,12-18.87,25.56-21.86,40.89l114.48,127.41c17.29-1,30.65-16.08,37.62-31.93s9.67-33.37,17.18-49,22.12-29.87,39.43-29.13c5.66.25,11.88,2,16.62-1.16,2.21-1.45,3.71-3.78,5.8-5.42,7.33-5.77,18.79-.62,23.62,7.37s5.37,17.74,7.61,26.81c8.57,34.57,42.8,58.09,77.86,64.38s71-1.41,105.53-10.18a55.78,55.78,0,0,1-22.57-24.22,78.43,78.43,0,0,0,51.1,29.82c18.86,2.59,43.53,1.31,50.6,19,15-47.7,7-102-21-143.44C2956.59,1303,2895.29,1275,2834.58,1259.46Z"/></g><path class="cls-19" d="M2882.82,1436.07a40.22,40.22,0,0,0-15.05-2.39,50.44,50.44,0,0,0-14.73,2.73,64.35,64.35,0,0,0-6.88,2.8,52.54,52.54,0,0,0-6.52,3.69,2,2,0,0,0,2.16,3.36l.08,0a50,50,0,0,1,6.06-3.13,58.25,58.25,0,0,1,6.47-2.36,45.38,45.38,0,0,1,13.42-2,34.75,34.75,0,0,1,13,2.54,36.87,36.87,0,0,1,11.08,7.17l0,0,.07.06a3,3,0,0,0,3.95-4.63A42.92,42.92,0,0,0,2882.82,1436.07Z"/><path class="cls-19" d="M2717.72,1446.84a51.35,51.35,0,0,0-6.66-3.44,61.21,61.21,0,0,0-7-2.54,50.22,50.22,0,0,0-14.83-2.17,40,40,0,0,0-14.94,3,42.61,42.61,0,0,0-12.83,8.32l-.08.07a3,3,0,1,0,4.27,4.33l0,0a37.15,37.15,0,0,1,10.8-7.58,34.86,34.86,0,0,1,12.89-3,45.8,45.8,0,0,1,13.48,1.5,56.89,56.89,0,0,1,6.56,2.11,50,50,0,0,1,6.17,2.9l.08,0a2,2,0,0,0,2-3.44Z"/><path class="cls-18" d="M2763.84,1546.58s-36.94,74-.79,79.23c26.6,3.87,27.89-11.19,28.8-23.78S2779.43,1531.56,2763.84,1546.58Z"/><path class="cls-20" d="M2700.3,1504.72a19.86,19.86,0,1,0,23.81,14.9A19.88,19.88,0,0,0,2700.3,1504.72Z"/><circle class="cls-20" cx="2874.06" cy="1516.42" r="19.86" transform="translate(-361.92 1813.4) rotate(-33.06)"/><circle class="cls-21" cx="2937.97" cy="1582.48" r="44.33" transform="translate(45.26 3246.26) rotate(-58.21)"/><path class="cls-18" d="M3036.13,1550.81a36.35,36.35,0,0,0-5,10.18,51.8,51.8,0,0,0-1.5,22.17,80.66,80.66,0,0,0,5.93,21,174.58,174.58,0,0,1-2.82-21.31c-.06-.88,0-1.76-.05-2.64s-.08-1.77,0-2.64c.09-1.75.06-3.51.3-5.24a44.3,44.3,0,0,1,2-10.15,34.07,34.07,0,0,1,11.21-16.8,45.79,45.79,0,0,1,19-8.88,36.46,36.46,0,0,0-20.91,6.39A33.1,33.1,0,0,0,3036.13,1550.81Z"/><path class="cls-18" d="M3058,1563.46a16.86,16.86,0,0,0-5.65-2.94,17.56,17.56,0,0,0-6.21-.6,23.23,23.23,0,0,0-11.07,4,46.23,46.23,0,0,1,11.08-.88,18.54,18.54,0,0,1,5,1.06,15.69,15.69,0,0,1,4.32,2.46,24.64,24.64,0,0,1,6.34,8.24,71,71,0,0,1,4.16,10.44,27.85,27.85,0,0,0-1.26-11.64A21.43,21.43,0,0,0,3058,1563.46Z"/><path class="cls-13" d="M2851,1645.74c-51,27.38-108.43,16.73-108.43,16.73a62.26,62.26,0,0,0,4.07,21.69c6.32,16.91,22.47,37.6,63.59,37.6,45.78,0,71.06-44.73,68.46-67.57C2877.37,1642.31,2868.48,1636.36,2851,1645.74Z"/><path class="cls-7" d="M2851,1645.74c-51,27.38-108.43,16.73-108.43,16.73a62.26,62.26,0,0,0,4.07,21.69c33.93,4.59,83.86,2.91,132-30C2877.37,1642.31,2868.48,1636.36,2851,1645.74Z"/><path class="cls-18" d="M2766.13,1779.19c-2.7,20.56-7.31,43.87-15.18,55.12,53.52-.19,140.34-18.31,187-123.41C2883.89,1772.08,2766.13,1779.19,2766.13,1779.19Z"/><path class="cls-16" d="M2258,2279.74c.22-114.18,4.15-402,4.15-402l-165.19-41.25s-161.26,240-157.32,500.83,125.86,280.54,200.58,268.74,240.91-109,240.91-109S2336.75,2333.75,2258,2279.74Z"/><g class="cls-22"><path class="cls-18" d="M2258,2279.74s16.15,319.21-209.56,371,323.95,67.29,323.95,67.29l138.75-179.57-230-343.26Z"/><path class="cls-18" d="M2223.71,1755.08c-63.41-48.79-151.35-63.83-227.37-38.9L2026.39,1826c-2.78,58.88,34.41,111.86,74.35,155.22,27.12,29.43,57.8,57.83,96,69.68s85.6,2.62,107.51-30.88c10.57-16.15,14.18-35.89,15.3-55.17C2324.2,1885,2287.12,1803.87,2223.71,1755.08Z"/></g><path class="cls-23" d="M2293.44,1555.55a12.7,12.7,0,0,0-15.16-9.51l-240.53,55.08a12.68,12.68,0,0,0-9.51,15.16L2135,2082.6a12.68,12.68,0,0,0,15.16,9.51L2390.7,2037a12.69,12.69,0,0,0,9.51-15.16Z"/><g class="cls-24"><path class="cls-25" d="M2332.5,1776.46v0l-8.26-36.11-11.59-50.61-17.8-77.72-4.85-21.24c-2.73-11.91-15.81-19.17-29.08-16.13l-192.86,44.16c-13.27,3-21.9,15.26-19.17,27.16l60.1,262.41,17.78,77.69,8.18,35.72a20.18,20.18,0,0,0,6.19,10.49,25.41,25.41,0,0,0,22.89,5.63l5.24-1.2,187.62-43c13.27-3,21.87-15.26,19.14-27.17Z"/></g><rect class="cls-7" x="2142.21" y="1580" width="62.99" height="5.33" rx="1.02" transform="translate(-298.41 525.09) rotate(-12.9)"/><path class="cls-7" d="M2131.11,1588.62a3.72,3.72,0,1,0,4.83,2.69A3.94,3.94,0,0,0,2131.11,1588.62Zm1.12,4.92a1.36,1.36,0,1,1,1.17-1.65A1.42,1.42,0,0,1,2132.23,1593.54Z"/><path class="cls-7" d="M2260.93,1574.62l-192.88,44.17c-13.26,3-21.88,15.26-19.15,27.17l1.59,6.92,241.08-55.2-1.58-6.93C2287.26,1578.84,2274.18,1571.59,2260.93,1574.62Z"/><path class="cls-26" d="M2116.37,1620.4a4.91,4.91,0,1,0,6.4,3.55A5.18,5.18,0,0,0,2116.37,1620.4Z"/><path class="cls-26" d="M2097.4,1624.74a4.92,4.92,0,1,0,6.4,3.55A5.2,5.2,0,0,0,2097.4,1624.74Z"/><path class="cls-26" d="M2078.44,1629.08a4.92,4.92,0,1,0,6.39,3.55A5.19,5.19,0,0,0,2078.44,1629.08Z"/><ellipse class="cls-11" cx="2203.32" cy="1771.94" rx="101.32" ry="76.55" transform="translate(-339.91 536.48) rotate(-12.9)"/><path class="cls-27" d="M2334.09,1874.32a12,12,0,0,0-14.38-9L2142.12,1906a12,12,0,0,0-9,14.38l9.11,39.78a12,12,0,0,0,14.37,9l177.6-40.66a12.05,12.05,0,0,0,9-14.38Z"/><path class="cls-28" d="M2111.73,1784.59a6,6,0,0,0-1.39-1.36l-3.91-2.94a7.12,7.12,0,0,0,2.52-3.59,8.51,8.51,0,0,0,.08-4.52l.09-.09a8.38,8.38,0,0,0-1.38-3.14,7.47,7.47,0,0,0-2.39-2.13,8.53,8.53,0,0,0-3.21-1,11.39,11.39,0,0,0-3.81.24l-6.4,1.47a2.73,2.73,0,0,0-1.81,1.19,2.8,2.8,0,0,0-.29,2.15l4.32,18.88a2.8,2.8,0,1,0,5.45-1.25l-1.19-5.2,2.26-.51,6.26,5.26a4.53,4.53,0,0,0,1.46.85,3,3,0,0,0,1.69.06,2.57,2.57,0,0,0,1.83-1.27,2.62,2.62,0,0,0,.33-1.82A4.5,4.5,0,0,0,2111.73,1784.59Zm-8.72-8.35a3.48,3.48,0,0,1-2.14,1.38l-3.64.84-1.53-6.68,3.57-.82a3.6,3.6,0,0,1,2.6.3,3.18,3.18,0,0,1,1.51,2.22A3.33,3.33,0,0,1,2103,1776.24Z"/><path class="cls-28" d="M2133,1779.39a2.77,2.77,0,0,0-2.06-.2l.11-.17-9.83,2.25-1.15-5,5.91-1.36a2.91,2.91,0,0,0,1.8-1.08,2.55,2.55,0,0,0-.81-3.53,3,3,0,0,0-2.13-.18l-5.9,1.35-1.09-4.74,9.79-2.24a2.81,2.81,0,0,0,1.77-1.07,2.7,2.7,0,0,0-.85-3.53,2.79,2.79,0,0,0-2.05-.2l-12.51,2.87a2.89,2.89,0,0,0-1.92,1.22,2.79,2.79,0,0,0-.29,2.15l4.32,18.87a2.94,2.94,0,0,0,1.16,1.82,2.7,2.7,0,0,0,2.19.28L2132,1784a2.79,2.79,0,0,0,1.76-1.08,2.32,2.32,0,0,0,.27-1.92A2.37,2.37,0,0,0,2133,1779.39Z"/><path class="cls-28" d="M2153.24,1774.67a3.08,3.08,0,0,0-2.13-.18l-8.52,2-3.83-16.75a2.88,2.88,0,0,0-5.16-.91,2.8,2.8,0,0,0-.29,2.15l4.32,18.88a2.78,2.78,0,0,0,1.2,1.81,2.84,2.84,0,0,0,2.22.27l0,0,11.24-2.57a3,3,0,0,0,1.8-1.08,2.31,2.31,0,0,0,.33-1.94A2.28,2.28,0,0,0,2153.24,1774.67Z"/><path class="cls-28" d="M2174.11,1756a11.6,11.6,0,0,0-3.31-3.41,10.67,10.67,0,0,0-4.29-1.69,12.79,12.79,0,0,0-5,.2,12.5,12.5,0,0,0-4.53,2,11,11,0,0,0-3.09,3.39,11.62,11.62,0,0,0-1.5,4.51,15.43,15.43,0,0,0,.34,5.39,15.63,15.63,0,0,0,2,5,11.73,11.73,0,0,0,3.31,3.41,10.88,10.88,0,0,0,4.26,1.7,12.24,12.24,0,0,0,4.94-.2,12.55,12.55,0,0,0,4.56-2,10.63,10.63,0,0,0,3.13-3.39,11.68,11.68,0,0,0,1.5-4.51,16.72,16.72,0,0,0-2.38-10.39Zm-4.15,11.92a6,6,0,0,1-8.7,2,9.43,9.43,0,0,1-2.41-10.53,6.07,6.07,0,0,1,8.7-2,9.44,9.44,0,0,1,2.41,10.53Z"/><path class="cls-28" d="M2201.5,1761.24a3.05,3.05,0,0,0-.68-.66,3.16,3.16,0,0,0-.89-.47,1.82,1.82,0,0,0-1,0,2.86,2.86,0,0,0-.88.36,2.37,2.37,0,0,0-.7.71c-.3.48-.6.92-.88,1.32a6.15,6.15,0,0,1-.95,1.07,5,5,0,0,1-1.16.79,7.35,7.35,0,0,1-1.55.54,6.15,6.15,0,0,1-5.15-.75,7.66,7.66,0,0,1-2.84-4.75,8.55,8.55,0,0,1,.35-5.77,5.4,5.4,0,0,1,3.87-2.93,7.18,7.18,0,0,1,1.67-.2,4.11,4.11,0,0,1,1.39.24,6.19,6.19,0,0,1,1.33.63c.44.27.92.57,1.45.93l.23-.28a2.35,2.35,0,0,0,1,.37,3.27,3.27,0,0,0,1-.08,2.71,2.71,0,0,0,.81-.34,2.35,2.35,0,0,0,.75-.65,3.15,3.15,0,0,0,.45-1,2.53,2.53,0,0,0,0-1.22,4,4,0,0,0-.33-.93,3.67,3.67,0,0,0-.6-.87c-.24-.2-.64-.48-1.21-.87a8.81,8.81,0,0,0-2.13-1,12.67,12.67,0,0,0-3-.62,12.16,12.16,0,0,0-3.83.32,11.39,11.39,0,0,0-9,10,15.42,15.42,0,0,0,.32,5.32,14.74,14.74,0,0,0,2,4.9,11.84,11.84,0,0,0,3.26,3.38,11,11,0,0,0,4.23,1.71,12.24,12.24,0,0,0,4.94-.2,12.06,12.06,0,0,0,3-1.06,13.47,13.47,0,0,0,2.23-1.47,9.54,9.54,0,0,0,1.59-1.67,11.72,11.72,0,0,0,1-1.62,3.14,3.14,0,0,0,.37-1.31,4.24,4.24,0,0,0-.07-1.14A2.65,2.65,0,0,0,2201.5,1761.24Z"/><path class="cls-28" d="M2227.18,1758.08l-12-16.48a4.52,4.52,0,0,0-1.62-1.38,3.09,3.09,0,0,0-2-.16,3,3,0,0,0-1.77,1,4.37,4.37,0,0,0-.83,1.93l-3.66,20.07a1.78,1.78,0,0,0-.07.65,5,5,0,0,0,.11.83,2.4,2.4,0,0,0,1.16,1.63,2.83,2.83,0,0,0,2.13.22,3.09,3.09,0,0,0,1.44-.7,2.46,2.46,0,0,0,.69-1.53l.5-3.5,9.32-2.21,2,3a3,3,0,0,0,1.2,1,2.79,2.79,0,0,0,1.69.06,3.07,3.07,0,0,0,1.88-1.22,2.6,2.6,0,0,0,.4-2.17A2.43,2.43,0,0,0,2227.18,1758.08Zm-15.26-2.31,1.17-8,4.59,6.72Z"/><path class="cls-28" d="M2244.82,1733.1a3,3,0,0,0-2.13-.19l.15,0-15.63,3.58a3,3,0,0,0-1.83,1.09,2.25,2.25,0,0,0-.34,1.93,2.27,2.27,0,0,0,1.15,1.6,2.92,2.92,0,0,0,2.09.19l5-1.15,3.84,16.75a2.87,2.87,0,0,0,5.15.9,2.72,2.72,0,0,0,.29-2.15l-3.83-16.75,5-1.16a2.91,2.91,0,0,0,1.8-1.08,2.53,2.53,0,0,0-.81-3.53Z"/><path class="cls-28" d="M2254.81,1733a2.73,2.73,0,0,0-1.19-1.81,3.08,3.08,0,0,0-4,.91,2.75,2.75,0,0,0-.29,2.15l4.32,18.87a2.78,2.78,0,0,0,1.2,1.81,2.75,2.75,0,0,0,2.15.29,2.63,2.63,0,0,0,2.1-3.35Z"/><path class="cls-28" d="M2282.51,1731.2a11.6,11.6,0,0,0-3.31-3.41,10.77,10.77,0,0,0-4.29-1.7,12.93,12.93,0,0,0-5,.21,12.48,12.48,0,0,0-4.54,2,10.86,10.86,0,0,0-3.09,3.39,11.62,11.62,0,0,0-1.5,4.51,16.72,16.72,0,0,0,2.38,10.39,11.73,11.73,0,0,0,3.31,3.41,11.1,11.1,0,0,0,4.26,1.7,12.24,12.24,0,0,0,4.94-.2,12.6,12.6,0,0,0,4.57-2,10.86,10.86,0,0,0,3.13-3.39,11.84,11.84,0,0,0,1.49-4.51,16.72,16.72,0,0,0-2.38-10.39Zm-4.15,11.92a6,6,0,0,1-8.69,2,9.42,9.42,0,0,1-2.42-10.53,6.07,6.07,0,0,1,8.7-2,9.39,9.39,0,0,1,2.41,10.53Z"/><path class="cls-28" d="M2306,1721.33a2.62,2.62,0,0,0-1.26-1.76,3.08,3.08,0,0,0-4,.91,2.64,2.64,0,0,0-.36,2.16l.15-.14,2.58,11.27-12-10.64a2.67,2.67,0,0,0-1.28-.71,3,3,0,0,0-1.29,0,2.92,2.92,0,0,0-1.22.54,2.41,2.41,0,0,0-.7.87,3.18,3.18,0,0,0-.27,1.06,3.92,3.92,0,0,0,.12,1.17l4.28,18.7a2.63,2.63,0,0,0,1.23,1.8,3,3,0,0,0,3.89-.89,2.64,2.64,0,0,0,.33-2.13l-2.37-10.35,11.71,9.74a3,3,0,0,0,1.32.7,3.36,3.36,0,0,0,1.44,0,2.47,2.47,0,0,0,1.73-1.21,2.92,2.92,0,0,0,.27-2.08Z"/><path class="cls-28" d="M2157.33,1810.18a6.48,6.48,0,0,0-2.18-1.73,8.57,8.57,0,0,0-2.71-.79c-1-.12-1.94-.19-3-.22s-2.07-.08-2.79-.18a10.89,10.89,0,0,1-1.84-.36,2.76,2.76,0,0,1-1.05-.54,1.45,1.45,0,0,1-.44-.79,1.6,1.6,0,0,1,.4-1.32,3.91,3.91,0,0,1,2.31-1.12,5.68,5.68,0,0,1,2.42-.15c.59.13,1.19.29,1.78.45l1.14.26a3.25,3.25,0,0,0,1.29-.07,2.82,2.82,0,0,0,.81-.34,2.57,2.57,0,0,0,.74-.65,2.79,2.79,0,0,0,.45-1,3,3,0,0,0-.05-1.32,3.27,3.27,0,0,0-.78-1.46,3.72,3.72,0,0,0-1.76-1,10.21,10.21,0,0,0-3.26-.59,15.37,15.37,0,0,0-3.66.46,13.39,13.39,0,0,0-3.46,1.28,9.73,9.73,0,0,0-2.65,2.06,6.88,6.88,0,0,0-1.51,2.68,6.47,6.47,0,0,0,0,3.25,8.06,8.06,0,0,0,1.15,2.75,5.39,5.39,0,0,0,1.89,1.73,8.83,8.83,0,0,0,2.59.93,21.19,21.19,0,0,0,3.13.36c1.21.06,2.19.13,3,.21a11.27,11.27,0,0,1,2,.33,2.48,2.48,0,0,1,1.14.56,1.71,1.71,0,0,1,.45.86,1.43,1.43,0,0,1-.1,1,2.37,2.37,0,0,1-.67.78,4.8,4.8,0,0,1-1.06.58,7.81,7.81,0,0,1-1.32.41h.19a8.5,8.5,0,0,1-2.93.22,9.58,9.58,0,0,1-2.57-.67,5.9,5.9,0,0,0-1.08-.31,2.57,2.57,0,0,0-1.1,0,3.42,3.42,0,0,0-.69.26,2.53,2.53,0,0,0-.75.62,3.11,3.11,0,0,0-.55,1,2.71,2.71,0,0,0,0,1.42,2.43,2.43,0,0,0,.87,1.36,8.89,8.89,0,0,0,1.33.92,9.37,9.37,0,0,0,3.56.94,16.18,16.18,0,0,0,4.73-.46,13.88,13.88,0,0,0,4.11-1.57,9.47,9.47,0,0,0,2.67-2.28,6.25,6.25,0,0,0,1.26-2.78,7.6,7.6,0,0,0-.06-3A7,7,0,0,0,2157.33,1810.18Z"/><path class="cls-28" d="M2180.35,1811.46a2.74,2.74,0,0,0-2-.2l.11-.17-9.83,2.25-1.15-5,5.9-1.36a2.89,2.89,0,0,0,1.8-1.07,2.54,2.54,0,0,0-.81-3.54,3,3,0,0,0-2.12-.18l-5.9,1.35-1.09-4.74,9.79-2.24a2.78,2.78,0,0,0,1.76-1.07,2.32,2.32,0,0,0,.27-1.92,2.36,2.36,0,0,0-1.11-1.61,2.79,2.79,0,0,0-2.05-.2l-12.52,2.87a2.89,2.89,0,0,0-1.91,1.22,2.75,2.75,0,0,0-.29,2.15l4.32,18.87a2.94,2.94,0,0,0,1.16,1.82,2.7,2.7,0,0,0,2.19.28l12.58-2.88a2.79,2.79,0,0,0,1.76-1.08,2.71,2.71,0,0,0-.81-3.53Z"/><path class="cls-28" d="M2202.59,1806.71a5.59,5.59,0,0,0-1.39-1.36l-3.91-2.94a7.12,7.12,0,0,0,2.52-3.59,8.61,8.61,0,0,0,.09-4.52l.09-.09a8.6,8.6,0,0,0-1.39-3.15,7.49,7.49,0,0,0-2.39-2.13,8.52,8.52,0,0,0-3.21-1,11.13,11.13,0,0,0-3.81.24l-6.4,1.46a2.63,2.63,0,0,0-2.1,3.35l4.32,18.87a2.88,2.88,0,0,0,5.16.91,2.8,2.8,0,0,0,.29-2.15l-1.19-5.2,2.26-.52,6.26,5.26a4.69,4.69,0,0,0,1.47.86,3,3,0,0,0,1.68.06,2.59,2.59,0,0,0,1.83-1.27,2.64,2.64,0,0,0,.33-1.83A4.32,4.32,0,0,0,2202.59,1806.71Zm-8.72-8.35a3.48,3.48,0,0,1-2.14,1.38l-3.64.83-1.53-6.68,3.57-.81a3.6,3.6,0,0,1,2.6.3,3.18,3.18,0,0,1,1.51,2.21A3.34,3.34,0,0,1,2193.87,1798.36Z"/><path class="cls-28" d="M2221,1781.52a3.45,3.45,0,0,0-2.18-.1,2.08,2.08,0,0,0-1.33.86,4.07,4.07,0,0,0-.52,1.31l0-.11-2.33,15.52-9-12.78a2.72,2.72,0,0,0-3-1.21,2.41,2.41,0,0,0-.9.43,2.89,2.89,0,0,0-.72.76,3.06,3.06,0,0,0-.41,1,2.44,2.44,0,0,0,0,1,2.87,2.87,0,0,0,.27.72c.13.23.21.4.27.49l12,16.57a4.37,4.37,0,0,0,1.43,1.35,2.66,2.66,0,0,0,1.95.22,2.38,2.38,0,0,0,1.58-1,4.71,4.71,0,0,0,.66-1.83l3.41-19.9a5,5,0,0,0,.09-.88,3.6,3.6,0,0,0-.09-.91A2,2,0,0,0,2221,1781.52Z"/><path class="cls-28" d="M2231.23,1781.36a2.88,2.88,0,0,0-5.16-.9,2.75,2.75,0,0,0-.28,2.15l4.32,18.87a2.61,2.61,0,0,0,3.34,2.1,2.78,2.78,0,0,0,1.81-1.2,2.73,2.73,0,0,0,.29-2.14Z"/><path class="cls-28" d="M2259.73,1790.83a2.67,2.67,0,0,0-.67-.67,3.41,3.41,0,0,0-.89-.46,1.82,1.82,0,0,0-1,0,2.67,2.67,0,0,0-.89.35,2.39,2.39,0,0,0-.69.72c-.3.48-.61.92-.89,1.32a6.11,6.11,0,0,1-.94,1.07,5,5,0,0,1-1.16.78,7,7,0,0,1-1.55.55,6.15,6.15,0,0,1-5.16-.76,7.6,7.6,0,0,1-2.83-4.74,8.55,8.55,0,0,1,.35-5.77,5.41,5.41,0,0,1,3.87-2.94,7.61,7.61,0,0,1,1.66-.19,4.12,4.12,0,0,1,1.4.24,6.92,6.92,0,0,1,1.33.62c.44.28.91.57,1.44.94l.24-.28a2.17,2.17,0,0,0,1,.36,3,3,0,0,0,1-.07,2.82,2.82,0,0,0,.81-.34,2.48,2.48,0,0,0,.75-.65,3.4,3.4,0,0,0,.45-1,2.53,2.53,0,0,0,0-1.22,5.53,5.53,0,0,0-.33-.94,3.67,3.67,0,0,0-.61-.86,12.73,12.73,0,0,0-1.2-.88,8.81,8.81,0,0,0-2.13-1,13.34,13.34,0,0,0-3-.61,12,12,0,0,0-3.84.32,11.37,11.37,0,0,0-9,10,15.19,15.19,0,0,0,.32,5.32,14.68,14.68,0,0,0,2,4.89,12,12,0,0,0,3.26,3.39,10.94,10.94,0,0,0,4.22,1.71,12.41,12.41,0,0,0,4.94-.2,12.14,12.14,0,0,0,3-1.06,13.48,13.48,0,0,0,2.23-1.48,9.52,9.52,0,0,0,1.59-1.66,14.32,14.32,0,0,0,1-1.62,3.3,3.3,0,0,0,.37-1.31,4.22,4.22,0,0,0-.07-1.14A2.58,2.58,0,0,0,2259.73,1790.83Z"/><path class="cls-28" d="M2281.65,1788.27a2.75,2.75,0,0,0-2.05-.2l.11-.18-9.83,2.25-1.15-5,5.9-1.35a2.93,2.93,0,0,0,1.8-1.08,2.53,2.53,0,0,0-.81-3.53,3.06,3.06,0,0,0-2.12-.19l-5.91,1.35-1.08-4.73,9.79-2.24a2.79,2.79,0,0,0,1.76-1.08,2.32,2.32,0,0,0,.27-1.92,2.39,2.39,0,0,0-1.11-1.6,2.77,2.77,0,0,0-2.06-.2l-12.51,2.86a2.93,2.93,0,0,0-1.91,1.22,2.72,2.72,0,0,0-.29,2.15l4.32,18.88a2.91,2.91,0,0,0,1.16,1.81,2.68,2.68,0,0,0,2.18.29l12.59-2.89a2.74,2.74,0,0,0,1.76-1.07,2.71,2.71,0,0,0-.81-3.53Z"/><path class="cls-28" d="M2165.4,1938.18a5.12,5.12,0,0,0-1-1.45,5.56,5.56,0,0,0-1.44-1.12,7.34,7.34,0,0,0-2.07-.76,4.56,4.56,0,0,0,1.45-2.45,6.49,6.49,0,0,0,0-2.94,5.73,5.73,0,0,0-3.09-4.09q-2.46-1.21-6.65-.26l.2.06-6.71,1.54a2.82,2.82,0,0,0-1.88,1.21,2.76,2.76,0,0,0-.29,2.15l4.33,18.91a2.86,2.86,0,0,0,1.16,2,3,3,0,0,0,2.19.17l7.35-1.69a9.65,9.65,0,0,0,6-3.49,7.17,7.17,0,0,0,1-6.07A9.33,9.33,0,0,0,2165.4,1938.18Zm-14.54-2.59-1.08-4.7,3.85-.88a3.54,3.54,0,0,1,2.14.07,2,2,0,0,1,1.13,1.52,2.61,2.61,0,0,1-.22,2,2.24,2.24,0,0,1-1.55,1.06h0Zm9,7.57a3.13,3.13,0,0,1-2.08,1.3l-4.63,1.06-1.24-5.41,4.52-1c2.09-.47,3.35.17,3.75,1.9A2.8,2.8,0,0,1,2159.88,1943.16Z"/><path class="cls-28" d="M2189.57,1924.16a11.69,11.69,0,0,0-3.31-3.4,10.73,10.73,0,0,0-4.3-1.7,12.56,12.56,0,0,0-5,.21,12.1,12.1,0,0,0-4.53,2,11,11,0,0,0-3.1,3.38,11.67,11.67,0,0,0-1.49,4.51,16.8,16.8,0,0,0,2.37,10.39,11.86,11.86,0,0,0,3.31,3.41,11.11,11.11,0,0,0,4.26,1.71,12.6,12.6,0,0,0,4.94-.2,12.77,12.77,0,0,0,4.57-2,10.78,10.78,0,0,0,3.13-3.4,11.79,11.79,0,0,0,1.5-4.51,16.72,16.72,0,0,0-2.38-10.39Zm-4.15,11.93a6.07,6.07,0,0,1-8.7,2,9.4,9.4,0,0,1-2.41-10.53,6.05,6.05,0,0,1,8.69-2,9.44,9.44,0,0,1,2.42,10.54Z"/><path class="cls-28" d="M2216.15,1918.08a11.73,11.73,0,0,0-3.31-3.41,10.88,10.88,0,0,0-4.3-1.7,13.59,13.59,0,0,0-9.51,2.18,11,11,0,0,0-3.09,3.39,11.79,11.79,0,0,0-1.5,4.51,16.94,16.94,0,0,0,2.38,10.39,11.82,11.82,0,0,0,3.31,3.4,11,11,0,0,0,4.26,1.71,12.24,12.24,0,0,0,4.94-.2,12.77,12.77,0,0,0,4.57-2A10.86,10.86,0,0,0,2217,1933a11.85,11.85,0,0,0,1.5-4.51,16.9,16.9,0,0,0-2.38-10.39ZM2212,1930a6.05,6.05,0,0,1-8.7,2,9.39,9.39,0,0,1-2.41-10.53,6.06,6.06,0,0,1,8.69-2A9.42,9.42,0,0,1,2212,1930Z"/><path class="cls-28" d="M2242.85,1926.32a5.53,5.53,0,0,0-1.22-1.09l0-.09-8.64-6.24,4.74-8.53a2.26,2.26,0,0,0,.37-1.13,4.6,4.6,0,0,0-.11-1,2.37,2.37,0,0,0-1.12-1.49,2.62,2.62,0,0,0-2-.31,2.58,2.58,0,0,0-1.21.58,4.28,4.28,0,0,0-.79,1l-5.77,10.52-1.59-6.93a3,3,0,0,0-1.2-1.85,2.74,2.74,0,0,0-2.17-.36,2.7,2.7,0,0,0-1.79,1.27,2.85,2.85,0,0,0-.28,2.18l4.27,18.67a3,3,0,0,0,1.2,1.84,2.89,2.89,0,0,0,4-.9,2.88,2.88,0,0,0,.28-2.19l-1-4.52,1.1-2,9,6.47a2.85,2.85,0,0,0,2.41.45,2.56,2.56,0,0,0,.82-.33,2.76,2.76,0,0,0,.76-.73,3.17,3.17,0,0,0,.47-1,2.61,2.61,0,0,0-.43-2.21Z"/><path class="cls-28" d="M2269.39,1901.39a2.6,2.6,0,0,0-1.26-1.76,2.85,2.85,0,0,0-2.15-.29,2.91,2.91,0,0,0-1.81,1.19,2.67,2.67,0,0,0-.36,2.17l.15-.15,2.58,11.28-12-10.65a2.85,2.85,0,0,0-1.28-.71,3,3,0,0,0-1.3,0,2.81,2.81,0,0,0-1.21.54,2.28,2.28,0,0,0-.7.86,3,3,0,0,0-.27,1.07,4.15,4.15,0,0,0,.11,1.16l4.29,18.7a2.59,2.59,0,0,0,1.23,1.8,3,3,0,0,0,3.88-.89,2.58,2.58,0,0,0,.34-2.12l-2.37-10.36L2269,1923a3.1,3.1,0,0,0,1.32.7,3.36,3.36,0,0,0,1.44,0,2.45,2.45,0,0,0,1.73-1.22,2.89,2.89,0,0,0,.27-2.07Z"/><path class="cls-28" d="M2297.12,1899.54a11.6,11.6,0,0,0-3.31-3.41,10.83,10.83,0,0,0-4.29-1.7,12.6,12.6,0,0,0-5,.21,12.43,12.43,0,0,0-4.53,2,10.86,10.86,0,0,0-3.09,3.39,11.62,11.62,0,0,0-1.5,4.51,15.36,15.36,0,0,0,.34,5.38,15.69,15.69,0,0,0,2,5,11.69,11.69,0,0,0,3.31,3.4,10.84,10.84,0,0,0,4.26,1.71,13.51,13.51,0,0,0,9.5-2.18,10.63,10.63,0,0,0,3.13-3.39,11.68,11.68,0,0,0,1.5-4.51,16.72,16.72,0,0,0-2.38-10.39Zm-4.15,11.92a6,6,0,0,1-8.7,2,9.44,9.44,0,0,1-2.41-10.53,6,6,0,0,1,8.7-2,9.43,9.43,0,0,1,2.41,10.53Z"/><path class="cls-28" d="M2328.83,1887.44a2,2,0,0,0-1.23-1.5,3.42,3.42,0,0,0-2.08-.16,2.24,2.24,0,0,0-1.45,1,3.87,3.87,0,0,0-.59,1.66l.12-.14-1.09,13.76-5.15-8.5a5.35,5.35,0,0,0-.53-.7,5.81,5.81,0,0,0-.65-.56,1.75,1.75,0,0,0-.81-.29,3,3,0,0,0-1.06.06,2.36,2.36,0,0,0-1.66,1,4.11,4.11,0,0,0-.51,1.69l-.94,9.85-7-11.79a4.32,4.32,0,0,0-1.19-1.33,2.15,2.15,0,0,0-1.85-.28,3.1,3.1,0,0,0-2,1.24,2.3,2.3,0,0,0-.39,1.84,5.3,5.3,0,0,0,.8,1.71l10.75,16.77a2.94,2.94,0,0,0,1.28,1.16,2.65,2.65,0,0,0,1.66.14,2.6,2.6,0,0,0,1.38-.8,2.81,2.81,0,0,0,.68-1.61l.94-9.85,5.07,8.48a2.64,2.64,0,0,0,1.37,1.13,2.81,2.81,0,0,0,1.63.15,2.6,2.6,0,0,0,1.38-.8,3.13,3.13,0,0,0,.75-1.62l2.44-19.87a4.34,4.34,0,0,0,0-1.12A6.51,6.51,0,0,0,2328.83,1887.44Z"/><g class="cls-29"><polygon class="cls-7" points="2108.99 1908.36 2126.77 1986.05 2312.65 1689.72 2294.85 1612 2108.99 1908.36"/><path class="cls-7" d="M2141.14,2032.26a25.41,25.41,0,0,0,22.89,5.63l5.24-1.2,163.23-260.23v0l-8.26-36.11Z"/></g><path class="cls-18" d="M2379.47,1820.17a23.29,23.29,0,0,0-7.11-1.12c-16.91,0-30.6,18.12-30.6,40.46s13.69,40.43,30.6,40.43a23,23,0,0,0,7.11-1.13c13.45-4.22,23.47-20.21,23.47-39.3S2392.92,1824.4,2379.47,1820.17Z"/><path class="cls-16" d="M2379.47,1820.17c-13.45,4.23-23.47,20.25-23.47,39.34s10,35.08,23.47,39.3c13.45-4.22,23.47-20.21,23.47-39.3S2392.92,1824.4,2379.47,1820.17Z"/><path class="cls-18" d="M2084.13,1868.08a12.43,12.43,0,0,0-3,.37c-7.37,1.81-13,10.25-13,20.37s5.61,18.59,13,20.4a12.43,12.43,0,0,0,3,.37c8.78,0,15.94-9.28,15.94-20.77S2092.91,1868.08,2084.13,1868.08Z"/><path class="cls-16" d="M2081.14,1868.45c-7.37,1.81-13,10.25-13,20.37s5.61,18.59,13,20.4c7.37-1.81,13-10.25,13-20.4S2088.51,1870.26,2081.14,1868.45Z"/><path class="cls-18" d="M2078.15,1817.84a17.7,17.7,0,0,0-5,.73c-9.91,2.94-17.33,14.5-17.33,28.32s7.42,25.39,17.33,28.32a17.35,17.35,0,0,0,5,.74c12.33,0,22.34-13,22.34-29.06S2090.48,1817.84,2078.15,1817.84Z"/><path class="cls-16" d="M2073.17,1818.57c-9.91,2.94-17.33,14.5-17.33,28.32s7.42,25.39,17.33,28.32c9.91-3,17.31-14.5,17.31-28.32S2083.08,1821.54,2073.17,1818.57Z"/><path class="cls-18" d="M2064.38,1756a18.82,18.82,0,0,0-4.85.63h-.05c-11.06,3-19.4,15.7-19.4,31,0,15.78,8.89,28.89,20.53,31.25a18.21,18.21,0,0,0,3.77.4c13.43,0,24.31-14.19,24.31-31.65S2077.81,1756,2064.38,1756Z"/><path class="cls-16" d="M2059.53,1756.59h-.05c-11.06,3-19.4,15.7-19.4,31,0,15.78,8.89,28.89,20.53,31.25,11.14-2.86,19.53-15.65,19.53-31C2080.14,1772,2071.2,1758.89,2059.53,1756.59Z"/><path class="cls-18" d="M2053.84,1702.94a17.32,17.32,0,0,0-7.29,1.62c-8.36,3.91-14.37,14.32-14.37,26.56,0,12.64,6.4,23.34,15.21,26.91a16.75,16.75,0,0,0,6.45,1.28c12,0,21.66-12.61,21.66-28.19S2065.8,1702.94,2053.84,1702.94Z"/><path class="cls-16" d="M2046.55,1704.56c-8.36,3.91-14.37,14.32-14.37,26.56,0,12.64,6.4,23.34,15.21,26.91,8.37-3.91,14.35-14.29,14.35-26.54C2061.74,1718.88,2055.34,1708.15,2046.55,1704.56Z"/><path class="cls-18" d="M3237.28,2450.8C3138.9,2446,3015,2588.89,3015,2588.89s33.46,156,138.34,170.45,205.85-211.09,205.85-211.09S3335.67,2455.62,3237.28,2450.8Z"/><path class="cls-16" d="M3187.43,2259.84c-29.64-1.51-59,22.26-53.94,62.16,2.12,16.62-16.9,51.05-16.9,51.05s-79.64-32-92.7-11-8.45,35.91-17.8,42.82S2985,2453,2985,2453s-21.53,33.83-18.85,40.24-34.61,19.55-19.32,41.84,45.1,81.45,87.72,84.82c19.34,1.53,49.2,3.39,76.06,5a102.08,102.08,0,0,0,98.69-58.87c13.83-29.93,26.45-69.32,28-115.22,0,0-10.92-81.84-35-107S3217.06,2261.35,3187.43,2259.84Z"/><g class="cls-30"><path class="cls-18" d="M3175.72,2213.81c-9.68-6-21.39-8.24-32.76-7.61-37.16,2-69.14,37.64-67.19,74.81.41,7.83,2.12,15.65,1.23,23.44s-5.18,15.92-12.67,18.24l43.63,45,51.71,15.91c-10.47-20.12-8.57-46.08,4.71-64.46,6.4-8.85,15-15.87,21.66-24.55,9.27-12.17,14.27-27.75,12.69-43S3188.72,2221.86,3175.72,2213.81Z"/><path class="cls-18" d="M2930.7,2460c-8.7,15.55-17.14,32.26-16.71,50.08.74,30.54,26.48,53.79,50.17,73.07-4.35-13.72-7.44-28.58-3.37-42.38s17.4-25.78,31.66-23.81a36.82,36.82,0,0,1,1.44-40.44,51.77,51.77,0,0,0,20.66,2c-11.75-12.2-7.26-32.08-2-48.18,1.72-5.28,3.62-10.83,7.83-14.43s11.54-4.19,14.82.29c-12.45-25,.22-59.25,25.94-70.12l-62,9.81A870.27,870.27,0,0,0,2930.7,2460Z"/></g><path class="cls-18" d="M3093.78,2446.21l-74-43.74a2,2,0,1,0-2,3.44l74,43.74a2,2,0,0,0,2-3.44Z"/><path class="cls-18" d="M2994.74,2448.45a2,2,0,0,0-3,2.63l56.6,64.74a2,2,0,1,0,3-2.64Z"/><path class="cls-18" d="M2969.25,2495.74a2,2,0,0,0-3,2.63l56.6,64.74a2,2,0,1,0,3-2.64Z"/><polygon class="cls-31" points="1868.01 1604.18 1953.67 1663.58 1902.98 1561.48 1868.01 1604.18"/><polygon class="cls-31" points="1860.53 1751.43 1953.34 1703.96 1839.4 1700.45 1860.53 1751.43"/><polygon class="cls-31" points="1928.78 1856.7 1976.07 1763.81 1881.75 1827.83 1928.78 1856.7"/><polygon class="cls-31" points="1680.9 2062.97 1646.36 2093.78 1601.4 2082.79 1620.03 2125.16 1595.69 2164.53 1641.74 2159.9 1671.66 2195.22 1681.49 2149.99 1724.32 2132.45 1684.35 2109.12 1680.9 2062.97"/><polygon class="cls-32" points="2126.94 1189.11 2178.96 1292.74 2217.42 1255.82 2137 1126.66 2126.94 1189.11"/><ellipse class="cls-33" cx="2259.59" cy="1334.06" rx="111.66" ry="134.73" transform="translate(-78.58 143.08) rotate(-3.56)"/><ellipse class="cls-34" cx="2307.51" cy="1331.07" rx="111.66" ry="134.73" transform="translate(-78.3 146.06) rotate(-3.57)"/><path class="cls-33" d="M2317.61,1251.89a52.71,52.71,0,0,0-18.3,4.51c-25.12,11.15-42,41.17-39.86,75.31,2.23,35.74,24.57,64.43,52.63,70.75a52.61,52.61,0,0,0,15,1.2c34.74-2.15,60.78-37.89,58.16-79.79S2352.33,1249.74,2317.61,1251.89Z"/><path class="cls-35" d="M2299.31,1256.4c-25.12,11.15-42,41.17-39.86,75.31,2.23,35.74,24.57,64.43,52.63,70.75,25.12-11.12,42-41.17,39.91-75.31C2349.76,1291.41,2327.39,1262.7,2299.31,1256.4Z"/><ellipse class="cls-33" cx="1707.77" cy="1405.26" rx="111.66" ry="134.73" transform="translate(-84.08 108.91) rotate(-3.57)"/><ellipse class="cls-34" cx="1755.69" cy="1402.27" rx="111.66" ry="134.73" transform="translate(-83.8 111.89) rotate(-3.57)"/><path class="cls-33" d="M1765.8,1323.09a52.76,52.76,0,0,0-18.31,4.51c-25.12,11.15-42,41.17-39.86,75.31,2.23,35.74,24.57,64.43,52.63,70.75a52.61,52.61,0,0,0,15,1.2c34.75-2.15,60.79-37.89,58.17-79.79S1800.51,1320.94,1765.8,1323.09Z"/><path class="cls-35" d="M1747.49,1327.6c-25.12,11.15-42,41.17-39.86,75.31,2.23,35.74,24.57,64.43,52.63,70.75,25.12-11.12,42-41.17,39.91-75.31C1797.94,1362.61,1775.58,1333.89,1747.49,1327.6Z"/><path class="cls-36" d="M1885.8,519.07l-64.53-16.13a68,68,0,0,0-66.48,19.9l-12.85,13.95a43.28,43.28,0,0,0-11.37,26.94l-14.86,269.18h42.6l12.29-240.83a43.3,43.3,0,0,1,51.22-40.35l54,10.13a12.06,12.06,0,0,0,13.92-8.93l4.81-19.23A12.06,12.06,0,0,0,1885.8,519.07Z"/><g class="cls-37"><path class="cls-32" d="M1903.1,542.38l-64.54-16.13a67.92,67.92,0,0,0-66.47,19.89l-12.85,14A43.32,43.32,0,0,0,1747.86,587L1733,856.22h42.6l12.28-240.84A43.31,43.31,0,0,1,1839.12,575l54,10.14a12.07,12.07,0,0,0,13.92-8.93l4.81-19.24A12.06,12.06,0,0,0,1903.1,542.38Z"/></g><path class="cls-36" d="M1745.42,716.22h0A19.87,19.87,0,0,0,1771.87,735l391.79-137.55v-47.2L1758.5,697.55A19.88,19.88,0,0,0,1745.42,716.22Z"/><g class="cls-38"><path class="cls-32" d="M1745.42,749.54h0a19.87,19.87,0,0,0,26.45,18.75l391.79-137.55v-47.2L1758.5,730.87A19.87,19.87,0,0,0,1745.42,749.54Z"/></g><polygon class="cls-39" points="1045.57 906.94 1078.78 924.42 1078.78 898.2 1302.8 596.87 1286.8 583.54 1045.57 906.94"/><polygon class="cls-40" points="1582.24 721.65 1302.8 596.86 1078.78 898.2 1031.58 1311.2 1669.64 1422.64 2040.26 1359.71 2069.26 929.8 1615.2 735.73 1582.24 721.65"/><polygon class="cls-39" points="1031.58 1311.2 1669.65 1422.64 2040.25 1359.71 1431.9 1221.61 1031.58 1311.2"/><polygon class="cls-31" points="1480.84 700.67 1431.91 1221.6 2040.26 1359.71 2069.26 929.8 1615.2 735.73 1480.84 700.67"/><polygon class="cls-40" points="1818.24 744.36 1295.22 586.08 1286.8 583.54 1486.09 749.6 2108.44 941.91 2108.44 924.42 2104.19 921.77 1818.24 744.36"/><polygon class="cls-39" points="1491.33 733.87 1295.22 586.08 1286.8 583.54 1486.09 749.6 2108.44 941.91 2108.44 924.42 2104.19 921.77 1491.33 733.87"/><polygon class="cls-39" points="1739.57 660.45 1730.84 730.38 1814.75 800.32 1902.15 814.29 1914.39 660.45 1822.62 627.25 1739.57 660.45"/><polygon class="cls-31" points="1814.75 800.32 1902.15 827.4 1914.39 660.45 1822.62 627.25 1814.75 800.32"/><path class="cls-7" d="M1556.26,1082.79c-15.29-4.07-30,7-38.63,26.39l32.75,8.47-5.25,49.46c-.29,2.74-1.89,4.63-3.58,4.21s-2.81-3-2.52-5.73l.94-8.86-4.24-1.06-.94,8.87c-.7,6.56,2,12.71,6,13.7s7.87-3.54,8.56-10.08l5.24-49.41,32.75,8.47C1583.21,1104.74,1571.54,1086.86,1556.26,1082.79Z"/><path class="cls-7" d="M1706,1090.3l-93.57-25.58-6-1.64-99.55-27.21-17.53,163.46,100.26,23.92,6,1.44,94.24,22.49,6,1.44,100.26,23.92,15.34-153.4L1712,1091.93Zm-115.34,123.28-94.21-22.68,15.38-143.54,93.61,25.4Zm100.22,24.12L1596.7,1215l14.75-140.65,93.61,25.39Zm100.21,24.13-94.2-22.68L1711,1101.39l93.62,25.4Z"/><polygon class="cls-7" points="1617 1124.14 1626.31 1126.57 1619.78 1189.13 1635.13 1192.92 1641.61 1130.56 1650.93 1132.99 1637.37 1095.89 1617 1124.14"/><polygon class="cls-7" points="1655.92 1134.3 1665.23 1136.73 1658.81 1198.78 1674.16 1202.58 1680.53 1140.72 1689.85 1143.15 1676.23 1106.32 1655.92 1134.3"/><polygon class="cls-7" points="1608.7 1203.42 1681.82 1221.25 1682.79 1211.75 1609.71 1193.78 1608.7 1203.42"/><path class="cls-7" d="M1730.71,1152.74c-1.87,18.31,5.45,35.45,16.57,40.29l-2.31,22.79c-.7,6.91-4.85,11.62-9.28,10.54l-6.67-1.64-.8,7.84,34.39,8.38.78-7.78-6.67-1.64c-4.43-1.09-7.45-7.56-6.75-14.45l2.31-22.77c11.52.9,21.84-11.61,23.66-29.74l3.1-30.67-45.18-12.12Z"/><path class="cls-7" d="M1287.17,962.35l121.24-25.79,11.55-123L1298.32,847.7ZM1415.44,819,1404.7,933.26l-113,24L1302,850.81Z"/><path class="cls-41" d="M1115.44,1138.37c-10.91,2.91-20.93,20-12.35,28.09,0,0,18.34-14.51,26.62,8.7C1141.83,1146.11,1126.34,1135.46,1115.44,1138.37Z"/><path class="cls-7" d="M1121,1138.19s-17.8.3-25.82,8.89-7.2,16.77-7.2,16.77l-8.77,5.42,19.74,22.13,22.14-29.19-11.24,2S1103.28,1141.25,1121,1138.19Z"/><path class="cls-41" d="M1147.26,1207.9s4.53,22.95-19.9,19.7c20.31,24.05,36.86,15.14,39.25,4.12S1158.43,1204,1147.26,1207.9Z"/><path class="cls-7" d="M1156.5,1195.63l-.81-10.27L1127,1192.8l15.85,33,3.31-10.93s23.46,4.68,18.1,21.82c0,0,7.87-16,3.89-27S1156.5,1195.63,1156.5,1195.63Z"/><path class="cls-41" d="M1069.17,1228.64c2.6,11,19.34,21.5,27.73,13.16,0,0-14-18.76,9.47-26.35C1077.68,1202.49,1066.58,1217.66,1069.17,1228.64Z"/><path class="cls-7" d="M1094.89,1235s-23.18,5.88-25.73-11.9c0,0-.22,17.79,8.13,26.06s16.56,7.68,16.56,7.68l5.16,8.93,22.7-19.09-28.53-23Z"/><polygon class="cls-32" points="1825.4 1386.72 1699.53 1344.74 1635.29 1357.86 1635.97 1358.06 1770.72 1399.73 1746.21 1405.29 1648.66 1427.34 1656.35 1432.74 1683.56 1451.91 2116.15 1374.51 2126.95 1372.57 2022.06 1357.86 1825.4 1386.72"/><polygon class="cls-36" points="1819.76 1395.06 1681.13 1348.86 1635.97 1358.06 1779.51 1406.37 1759.56 1409.41 1656.35 1432.74 1683.56 1451.91 2116.15 1374.51 2036.35 1363.28 1819.76 1395.06"/><path class="cls-42" d="M2298.37,378.17,2233.84,362a68,68,0,0,0-66.48,19.9l-12.84,13.95a43.24,43.24,0,0,0-11.38,26.94l-50.34,911.84a12.05,12.05,0,0,1-13.76,11.27l-279-40.2a12.06,12.06,0,0,0-4.36.17l-356.43,80.15a12.06,12.06,0,0,0-6.88,19.15l.84,1.09a12.08,12.08,0,0,0,7.21,4.44l231.46,45.38a12.06,12.06,0,0,0,11.66-4.21h0a12.06,12.06,0,0,0-7.17-19.49l-126.5-23.12c-13.13-2.4-13.22-21.18-.12-23.7l253-48.74a12.21,12.21,0,0,1,4.22-.07l315,51.27a12.06,12.06,0,0,0,14-11.29l47.23-925.59a43.3,43.3,0,0,1,51.22-40.35l54,10.13a12,12,0,0,0,13.92-8.92l4.81-19.24A12,12,0,0,0,2298.37,378.17Z"/><g class="cls-43"><path class="cls-36" d="M2324.62,394.42l-64.53-16.13a67.92,67.92,0,0,0-66.47,19.9l-12.85,13.95a43.35,43.35,0,0,0-11.38,26.94l-50.33,911.84a12.05,12.05,0,0,1-13.76,11.27l-279-40.21a12.13,12.13,0,0,0-4.37.17l-356.42,80.16a12,12,0,0,0-6.88,19.15l.84,1.08a12,12,0,0,0,7.21,4.45l231.46,45.37a12.06,12.06,0,1,0,4.48-23.69l-126.5-23.12c-13.12-2.4-13.21-21.18-.11-23.7l253-48.75a12,12,0,0,1,4.22-.06l315,51.26a12.06,12.06,0,0,0,14-11.28l47.22-925.59A43.32,43.32,0,0,1,2226.69,435h0a43.28,43.28,0,0,1,33.95-7.91l54,10.13a12.06,12.06,0,0,0,13.92-8.93l4.81-19.23A12.07,12.07,0,0,0,2324.62,394.42Z"/></g></g></svg>