<svg xmlns="http://www.w3.org/2000/svg" viewBox="0 0 4680 3120"><defs><style>.cls-1,.cls-16{fill:#fff;}.cls-1{opacity:0;}.cls-2{fill:#ffc950;}.cls-3{fill:#f7b42f;}.cls-4{fill:#fcfaeb;}.cls-5{fill:#ffdb76;}.cls-6{fill:#ffd25f;}.cls-7{fill:#f77116;}.cls-8{fill:#ff8931;}.cls-9{fill:#f9a319;}.cls-10{fill:#ffe48f;}.cls-11{fill:#fff0b3;}.cls-12{fill:none;}.cls-13{fill:#0c083f;}.cls-14{fill:#2c5cc6;}.cls-15{fill:#3e78dd;}.cls-17{fill:#fff4d7;}.cls-18{fill:#c15206;}.cls-19{fill:#262626;}.cls-20{fill:#db4056;}.cls-21{fill:#ffb8c0;}.cls-22{fill:#991c31;}.cls-23{opacity:0.38;}.cls-24{fill:#8e8c87;}.cls-25{fill:#ffd8d2;}.cls-26{fill:#010021;}.cls-27{fill:#d31160;}.cls-28{fill:#f22a72;}.cls-29{opacity:0.51;}.cls-30{fill:#ff9688;}.cls-31{fill:#2d0a03;}.cls-32{opacity:0.26;}</style></defs><title>02</title><g id="_02" data-name="02"><rect id="_02-2" data-name="02" class="cls-1" width="4680" height="3120"/><path class="cls-2" d="M3891.7,2206.93c-18.6-9.75-37.11-11.58-58.45-13.58-18.07-1.69-35.94-10.46-53.49-15.41-94.46-26.66-225.69-37.39-336.87-23.56a643.37,643.37,0,0,0-77.57,14.26c-21.71,5.42-38.93,13.6-61.48,16.79-13.25,1.87-26.62,3.77-39.1,7.85-21.41,7-39.48,20.45-49.82,37.13-25.72,41.51-1.36,86.76,41.78,112.41,5.2,3.09,10.58,6,16.07,8.73,62.38,31.12,138.51,44.85,210.59,51.46,83.52,7.65,171.72,4.86,253.7-10.88,56.92-10.93,129.71-31.85,163.58-72.82,15.11-18.27,22.36-39.89,22.74-64.82.08-5.87-.17-11.81-2-17.48C3917.2,2224.33,3905.32,2214.06,3891.7,2206.93Z"/><path class="cls-3" d="M3618.25,2237.08c-17-27.58-52.35-44.29-87.06-57q-21.32-7.83-43.26-14.49c-12.17-3.69-27.48-10.23-40.36-11.38-12.54-1.12-28.71,3.48-41,5.67q-20.85,3.72-41.3,8.81c-21.71,5.42-38.93,13.6-61.48,16.79-13.25,1.87-26.62,3.77-39.1,7.85-21.41,7-39.48,20.45-49.82,37.13-25.72,41.51-1.36,86.76,41.78,112.41,5.2,3.09,10.58,6,16.07,8.73,62.38,31.12,138.51,44.85,210.59,51.46,6.17.56,50.78,6.34,49.7.58-.27-1.46-1.5-2.67-2.44-3.93-5.13-6.86-2.07-15.74,2.17-23,12.33-21,33.18-38.07,55.35-53,10.12-6.79,20.66-13.29,29.34-21.28.83-.77,1.65-1.54,2.45-2.33,8.19-8.1,14.29-17.39,11.63-27.75C3628.51,2260.42,3625,2248,3618.25,2237.08Z"/><path class="cls-4" d="M3899.42,2196.35c-25.47-21.64-68.41-40.83-118.71-55-94.46-26.66-225.69-37.39-336.87-23.56-120.81,15-210.67,56.91-231.42,103.42-13,29.1,2.31,59.5,45.23,85,71.75,42.66,209.52,68,341.85,63.61,82.09-2.72,159.25-16.57,218-37.38,1.7-.6,3.39-1.22,5.07-1.83,35.85-13.22,63.66-29.43,81.08-47C3931.12,2255.85,3932.76,2224.67,3899.42,2196.35Z"/><path class="cls-5" d="M3879.4,2194.69c-24.1-19.35-64.7-36.53-112.24-49.25-89.3-23.89-213.31-33.58-318.35-21.29-114.14,13.34-199,50.71-218.55,92.26-12.24,26,2.25,53.18,42.84,76,67.85,38.18,198.06,60.91,323.1,57.09,77.56-2.37,150.46-14.69,206-33.25q2.41-.81,4.78-1.63c33.87-11.79,60.13-26.26,76.57-42C3909.42,2247.89,3910.94,2220,3879.4,2194.69Z"/><path class="cls-2" d="M3664.94,1889.41c-18.61-9.74-37.11-11.58-58.46-13.57-18.06-1.69-35.94-10.46-53.48-15.41-94.47-26.66-225.7-37.39-336.87-23.56a645,645,0,0,0-77.57,14.25c-21.71,5.43-38.93,13.61-61.48,16.8-13.26,1.87-26.63,3.77-39.11,7.84-21.41,7-39.48,20.46-49.81,37.14-25.72,41.51-1.36,86.76,41.77,112.41,5.2,3.09,10.58,6,16.08,8.73,62.38,31.12,138.51,44.84,210.58,51.45,83.52,7.66,171.72,4.87,253.7-10.87,56.92-10.93,129.72-31.86,163.59-72.82,15.11-18.27,22.36-39.89,22.73-64.82.09-5.87-.17-11.81-2-17.48C3690.43,1906.81,3678.56,1896.55,3664.94,1889.41Z"/><path class="cls-3" d="M3391.49,1919.56c-17-27.57-52.36-44.28-87.06-57q-21.32-7.85-43.26-14.49c-12.17-3.7-27.48-10.23-40.37-11.38-12.53-1.12-28.7,3.48-40.94,5.66q-20.87,3.74-41.3,8.81c-21.71,5.43-38.93,13.61-61.48,16.8-13.26,1.87-26.63,3.77-39.11,7.84-21.41,7-39.48,20.46-49.81,37.14-25.72,41.51-1.36,86.76,41.77,112.41,5.2,3.09,10.58,6,16.08,8.73,62.38,31.12,138.51,44.84,210.58,51.45,6.17.57,50.78,6.35,49.71.59-.27-1.46-1.5-2.67-2.45-3.93-5.13-6.86-2.07-15.74,2.18-23,12.32-21.05,33.17-38.08,55.35-53,10.11-6.79,20.65-13.29,29.33-21.28.84-.77,1.66-1.55,2.45-2.34,8.2-8.09,14.3-17.38,11.64-27.75C3401.74,1942.91,3398.24,1930.53,3391.49,1919.56Z"/><path class="cls-4" d="M3672.66,1878.84c-25.48-21.64-68.42-40.83-118.72-55-94.46-26.66-225.69-37.39-336.86-23.56-120.82,15-210.68,56.91-231.43,103.42-13,29.1,2.31,59.5,45.23,85,71.76,42.66,209.53,68,341.85,63.6,82.09-2.71,159.25-16.56,218-37.37l5.07-1.83c35.86-13.22,63.67-29.43,81.08-47C3704.36,1938.34,3706,1907.16,3672.66,1878.84Z"/><path class="cls-5" d="M3652.63,1877.18c-24.09-19.35-64.69-36.54-112.24-49.25-89.29-23.89-213.31-33.58-318.34-21.3-114.15,13.35-199,50.72-218.56,92.27-12.23,26,2.25,53.18,42.84,76,67.86,38.18,198.07,60.91,323.1,57.09,77.57-2.37,150.46-14.69,206-33.25q2.42-.81,4.79-1.63c33.87-11.79,60.12-26.26,76.56-42C3682.66,1930.38,3684.17,1902.52,3652.63,1877.18Z"/><path class="cls-6" d="M1765.43,861.79c-19.53-15.7-54.37,12.63-68.5,23.81-24,19-42.93,43.07-60.34,67.34-33.78,47.07-60,100.65-101.69,142.07-46.1,45.77-107.45,77.74-142.15,133.29-32.84,52.57-35.37,116.41-53.36,174.94-13.73,44.69-109,180.59-45.12,197.92,66,17.89,160.2-117.34,195.32-152.49,24.57-24.6,49.25-49.32,69.45-77.19,24-33.08,41.2-70,58.29-106.61,30.61-65.67,59.83-131.94,94.27-195.68a548.2,548.2,0,0,0,60-178.84C1773.12,880.28,1773.65,868.39,1765.43,861.79Z"/><path class="cls-6" d="M944.11,906.18c-19.94-28.38-40.44-56.47-63.51-82.68C855,794.38,818.89,751,782.51,733.58c-32.07-15.34-50.56,2.86-46.16,33.64,16.65,116.34,35.83,238.57,112.14,331.52,37.47,45.66,86.7,81.14,125.65,125.53,39.63,45.19,46.46,89.73,70.29,141.67,6,13,13.72,25,22.25,36.7,6.42,8.78,13.27,17.31,20.1,25.81L1187,1553.14c47.28,58.84,50.08-39,42.72-67C1175.08,1278.32,1069.65,1084.82,944.11,906.18Z"/><path class="cls-3" d="M1199.45,1089.22c5.93-65.41,27.67-128.73,31.37-194.43,7.52-133.77-58.75-260.17-123.34-379.51-17.08-31.57-47-37.37-66.5-3.41-22.14,38.52-26.08,101.24-30.06,144.21-3.58,38.66-3.45,77.53-2.6,116.32,5.35,244.21,39.81,490.1,131.83,718.45,12.4,30.78,82.47,120.86,86.28,36.82l8.07-178.15c.55-12.13,1.1-24.32,1.07-36.48,0-16.13-1.06-32.2-4.42-48C1217.7,1201.76,1193.4,1155.8,1199.45,1089.22Z"/><path class="cls-3" d="M1500.67,501.82c-33.26,33.73-54.8,96.56-70.85,139.28-14.45,38.44-25.18,78-35.16,117.66-62.85,249.69-96.58,508.23-67,763.09,4,34.36,50,143.19,77.36,58.65q29-89.6,58-179.19c4-12.2,7.91-24.47,11.28-36.84,4.48-16.41,7.92-33,8.93-49.91,4-67.66-7.8-120.37,17-186.6,24.32-65.07,64.11-124.13,86.23-190,45-134.2,13.06-279-19.19-416.29C1558.75,485.33,1530,472.08,1500.67,501.82Z"/><path class="cls-6" d="M1345.62,1079.32c-4.42-38.86,8.17-73.2,9.22-110.41,2.44-86.26-43.28-184.27-92.86-254.51-10.24-14.51-27.13-30.37-44.43-24-9,3.33-14.45,11.83-18.79,20-41.49,77.71-41.78,168.28-41.2,255.11.52,76.42,1.11,153.46,18,228.19,19.7,87.39,60.29,174.71,97.08,256,14.6,32.26,77.06,105.45,83.49,29.58l15.81-186.6c1.08-12.71,2.15-25.48,2.63-38.23.63-16.93.21-33.82-2.66-50.52C1364.68,1162.1,1350.41,1121.48,1345.62,1079.32Z"/><path class="cls-7" d="M1516.72,1519.11c-30-9.9-62-4-92.88-3.42q-48.73,1-97.46,2-97.5,2.07-195,3.87c-25.72-1.67-48.59,10.3-58.21,31.13a54,54,0,0,0-4.82,22.69c0,25.71,12.87,50.16,21.35,73.95l40.83,114.6q15.75,44.19,31.49,88.37c7.19,20.18,10.77,43.52,26.08,60,17.18,18.47,42.92,19.62,67.13,19.28l124.11-1.74c31-.44,66.59-2.63,84.6-30.88,9.3-14.58,11-37.5,16.21-53.81q13.06-41.22,26.14-82.43,26.15-82.42,52.3-164.85C1569.64,1563.08,1551.63,1530.62,1516.72,1519.11Z"/><path class="cls-8" d="M1576.12,1500.81l-525.61,8.84a19.91,19.91,0,0,0-19.57,20.24l1,62.52a19.91,19.91,0,0,0,20.24,19.57l525.61-8.84a19.91,19.91,0,0,0,19.57-20.25l-1.05-62.51A19.91,19.91,0,0,0,1576.12,1500.81Z"/><path class="cls-8" d="M1480,1883.39l-316.43,5.32a10.64,10.64,0,0,0-10.45,10.81l.57,33.35a10.62,10.62,0,0,0,10.8,10.45l316.43-5.33a10.63,10.63,0,0,0,10.45-10.8l-.57-33.36A10.62,10.62,0,0,0,1480,1883.39Z"/><path class="cls-2" d="M1498.42,2164.46c-18.6-9.75-37.11-11.58-58.45-13.58-18.07-1.69-35.94-10.45-53.49-15.41-94.46-26.65-225.69-37.38-336.87-23.56A645.33,645.33,0,0,0,972,2126.17c-21.71,5.43-38.93,13.6-61.48,16.79-13.25,1.88-26.62,3.78-39.1,7.85-21.41,7-39.48,20.46-49.82,37.14-25.72,41.5-1.36,86.76,41.78,112.4,5.2,3.1,10.58,6,16.07,8.73,62.38,31.13,138.51,44.85,210.59,51.46,83.52,7.66,171.72,4.87,253.7-10.87,56.92-10.93,129.71-31.86,163.58-72.82,15.11-18.28,22.36-39.9,22.74-64.83.08-5.87-.17-11.8-2-17.48C1523.92,2181.86,1512,2171.6,1498.42,2164.46Z"/><path class="cls-9" d="M1225,2194.61c-17-27.58-52.35-44.28-87.06-57q-21.32-7.84-43.26-14.5c-12.17-3.69-27.48-10.23-40.36-11.38-12.54-1.11-28.71,3.49-40.95,5.67q-20.85,3.72-41.3,8.81c-21.71,5.43-38.93,13.6-61.48,16.79-13.25,1.88-26.62,3.78-39.1,7.85-21.41,7-39.48,20.46-49.82,37.14-25.72,41.5-1.36,86.76,41.78,112.4,5.2,3.1,10.58,6,16.07,8.73,62.38,31.13,138.51,44.85,210.59,51.46,6.17.57,50.78,6.35,49.7.59-.27-1.47-1.5-2.67-2.44-3.94-5.13-6.86-2.07-15.74,2.17-23,12.33-21.06,33.18-38.08,55.35-53,10.12-6.8,20.66-13.29,29.34-21.28.83-.77,1.65-1.55,2.45-2.34,8.19-8.1,14.29-17.39,11.63-27.75C1235.23,2218,1231.73,2205.58,1225,2194.61Z"/><path class="cls-4" d="M1506.14,2153.89c-25.47-21.64-68.41-40.84-118.71-55-94.46-26.65-225.69-37.39-336.87-23.56-120.81,15-210.67,56.92-231.42,103.42-13,29.1,2.31,59.5,45.23,85,71.75,42.67,209.52,68,341.85,63.61,82.09-2.72,159.25-16.56,218-37.37q2.55-.92,5.07-1.84c35.85-13.21,63.66-29.42,81.08-47C1537.84,2213.38,1539.48,2182.21,1506.14,2153.89Z"/><path class="cls-5" d="M1486.12,2152.23c-24.1-19.35-64.7-36.54-112.24-49.26-89.29-23.89-213.31-33.57-318.35-21.29-114.14,13.35-199,50.72-218.55,92.26-12.24,26,2.25,53.18,42.84,76,67.85,38.18,198.07,60.91,323.1,57.09,77.56-2.38,150.46-14.7,206-33.25,1.61-.54,3.2-1.09,4.79-1.64,33.86-11.78,60.12-26.25,76.56-42C1516.14,2205.43,1517.66,2177.56,1486.12,2152.23Z"/><path class="cls-2" d="M1604.65,2101.39c-18.6-9.75-37.11-11.58-58.46-13.58-18.06-1.69-35.93-10.45-53.48-15.41-94.47-26.65-225.7-37.39-336.87-23.56a645.33,645.33,0,0,0-77.57,14.26c-21.71,5.43-38.93,13.6-61.48,16.79-13.26,1.88-26.63,3.78-39.11,7.85-21.41,7-39.47,20.46-49.81,37.14-25.72,41.5-1.36,86.76,41.77,112.4,5.21,3.1,10.58,6,16.08,8.73,62.38,31.13,138.51,44.85,210.58,51.46,83.52,7.66,171.72,4.87,253.71-10.87,56.91-10.93,129.71-31.86,163.58-72.82,15.11-18.28,22.36-39.9,22.73-64.83.09-5.87-.17-11.8-2-17.48C1630.14,2118.79,1618.27,2108.53,1604.65,2101.39Z"/><path class="cls-9" d="M1331.2,2131.54c-17-27.58-52.35-44.28-87.06-57q-21.32-7.85-43.26-14.5c-12.17-3.69-27.48-10.23-40.37-11.38-12.53-1.11-28.7,3.49-40.94,5.67q-20.86,3.72-41.3,8.81c-21.71,5.43-38.93,13.6-61.48,16.79-13.26,1.88-26.63,3.78-39.11,7.85-21.41,7-39.47,20.46-49.81,37.14-25.72,41.5-1.36,86.76,41.77,112.4,5.21,3.1,10.58,6,16.08,8.73,62.38,31.13,138.51,44.85,210.58,51.46,6.17.57,50.78,6.35,49.71.59-.27-1.47-1.5-2.67-2.45-3.94-5.12-6.86-2.06-15.74,2.18-23,12.32-21.06,33.17-38.08,55.35-53,10.12-6.8,20.66-13.29,29.33-21.28q1.26-1.15,2.46-2.34c8.19-8.1,14.29-17.39,11.63-27.75C1341.46,2154.88,1338,2142.51,1331.2,2131.54Z"/><path class="cls-4" d="M1612.37,2090.81c-25.48-21.63-68.42-40.83-118.71-55-94.47-26.65-225.7-37.39-336.87-23.56-120.82,15-210.68,56.92-231.43,103.42-13,29.1,2.31,59.5,45.23,85,71.76,42.67,209.53,68,341.85,63.61,82.09-2.72,159.25-16.56,218-37.38q2.57-.9,5.07-1.83c35.86-13.21,63.67-29.42,81.09-47C1644.07,2150.31,1645.71,2119.13,1612.37,2090.81Z"/><path class="cls-5" d="M1592.34,2089.16c-24.09-19.35-64.69-36.54-112.23-49.26-89.3-23.89-213.31-33.57-318.35-21.29-114.14,13.35-199,50.72-218.56,92.26-12.23,26,2.26,53.18,42.84,76,67.86,38.18,198.07,60.91,323.1,57.09,77.57-2.38,150.46-14.7,206-33.25q2.42-.81,4.79-1.64c33.87-11.78,60.12-26.25,76.56-42C1622.37,2142.36,1623.88,2114.49,1592.34,2089.16Z"/><path class="cls-2" d="M1635.73,2032.79c-18.6-9.75-37.11-11.58-58.46-13.58-18.06-1.69-35.93-10.45-53.48-15.41-94.47-26.65-225.7-37.39-336.87-23.56a645.33,645.33,0,0,0-77.57,14.26c-21.71,5.43-38.93,13.6-61.48,16.79-13.26,1.88-26.63,3.78-39.11,7.85-21.41,7-39.47,20.46-49.81,37.14-25.72,41.5-1.36,86.76,41.77,112.4,5.21,3.1,10.58,6,16.08,8.73,62.38,31.13,138.51,44.85,210.58,51.46,83.52,7.66,171.72,4.87,253.71-10.87,56.91-10.93,129.71-31.86,163.58-72.82,15.11-18.28,22.36-39.9,22.73-64.83.09-5.87-.17-11.8-2-17.48C1661.22,2050.19,1649.35,2039.93,1635.73,2032.79Z"/><path class="cls-9" d="M1362.28,2062.94c-17-27.58-52.35-44.28-87.06-57q-21.32-7.85-43.26-14.5c-12.17-3.69-27.48-10.23-40.37-11.38-12.53-1.11-28.7,3.49-40.94,5.67q-20.87,3.72-41.3,8.81c-21.71,5.43-38.93,13.6-61.48,16.79-13.26,1.88-26.63,3.78-39.11,7.85-21.41,7-39.47,20.46-49.81,37.14-25.72,41.5-1.36,86.76,41.77,112.4,5.21,3.1,10.58,6,16.08,8.73,62.38,31.13,138.51,44.85,210.58,51.46,6.17.57,50.78,6.35,49.71.59-.27-1.47-1.5-2.67-2.45-3.94-5.12-6.86-2.06-15.74,2.18-23,12.32-21.06,33.17-38.08,55.35-53,10.12-6.8,20.66-13.29,29.33-21.28q1.26-1.16,2.46-2.34c8.19-8.1,14.29-17.39,11.63-27.75C1372.54,2086.28,1369,2073.91,1362.28,2062.94Z"/><path class="cls-4" d="M1643.45,2022.21c-25.47-21.63-68.42-40.83-118.71-55-94.47-26.65-225.7-37.39-336.87-23.56-120.82,15-210.68,56.92-231.43,103.42-13,29.1,2.31,59.5,45.23,85,71.76,42.67,209.53,68,341.85,63.61,82.09-2.72,159.25-16.56,218-37.38q2.57-.9,5.07-1.83c35.86-13.21,63.67-29.42,81.09-47C1675.15,2081.71,1676.79,2050.53,1643.45,2022.21Z"/><path class="cls-10" d="M1623.42,2020.56c-24.09-19.36-64.69-36.54-112.23-49.26-89.3-23.89-213.31-33.57-318.35-21.29-114.14,13.35-199,50.72-218.56,92.26-12.23,26,2.26,53.18,42.84,76,67.86,38.18,198.07,60.91,323.1,57.08,77.57-2.37,150.46-14.69,206-33.24q2.41-.81,4.79-1.64c33.87-11.78,60.12-26.25,76.56-42C1653.45,2073.76,1655,2045.89,1623.42,2020.56Z"/><path class="cls-2" d="M1541.22,1928.58c-18.6-9.75-37.11-11.58-58.46-13.58-18.06-1.69-35.93-10.46-53.48-15.41-94.47-26.66-225.7-37.39-336.87-23.56a643.37,643.37,0,0,0-77.57,14.26c-21.71,5.42-38.93,13.6-61.48,16.79-13.26,1.87-26.63,3.77-39.11,7.85-21.41,7-39.47,20.45-49.81,37.14-25.72,41.5-1.36,86.75,41.77,112.4q7.81,4.64,16.08,8.73c62.38,31.12,138.51,44.85,210.58,51.46,83.52,7.65,171.72,4.86,253.71-10.88,56.91-10.93,129.71-31.85,163.58-72.82,15.11-18.27,22.36-39.89,22.73-64.82.09-5.87-.16-11.81-2-17.48C1566.71,1946,1554.84,1935.71,1541.22,1928.58Z"/><path class="cls-9" d="M1267.77,1958.73c-17-27.58-52.35-44.29-87.06-57q-21.32-7.83-43.26-14.49c-12.17-3.69-27.48-10.23-40.37-11.38-12.53-1.12-28.7,3.48-40.94,5.67q-20.87,3.72-41.3,8.81c-21.71,5.42-38.93,13.6-61.48,16.79-13.26,1.87-26.63,3.77-39.11,7.85-21.41,7-39.47,20.45-49.81,37.14-25.72,41.5-1.36,86.75,41.77,112.4q7.81,4.64,16.08,8.73c62.38,31.12,138.51,44.85,210.58,51.46,6.17.56,50.79,6.35,49.71.58-.27-1.46-1.5-2.67-2.45-3.93-5.12-6.86-2.06-15.74,2.18-23,12.32-21,33.17-38.07,55.35-53,10.12-6.79,20.66-13.29,29.33-21.28.84-.77,1.66-1.54,2.46-2.33,8.19-8.1,14.29-17.39,11.63-27.75C1278,1982.07,1274.52,1969.69,1267.77,1958.73Z"/><path class="cls-4" d="M1548.94,1918c-25.47-21.64-68.42-40.83-118.71-55-94.47-26.66-225.7-37.39-336.87-23.56-120.82,15-210.68,56.91-231.43,103.42-13,29.1,2.31,59.5,45.23,85,71.76,42.66,209.53,68,341.85,63.61,82.09-2.72,159.25-16.57,218-37.38q2.57-.9,5.07-1.83c35.86-13.22,63.67-29.43,81.09-47C1580.64,1977.5,1582.28,1946.32,1548.94,1918Z"/><path class="cls-5" d="M1528.92,1916.34c-24.1-19.35-64.7-36.53-112.24-49.25-89.3-23.89-213.31-33.58-318.35-21.29-114.14,13.34-199,50.71-218.56,92.26-12.23,26,2.26,53.18,42.84,76,67.86,38.18,198.07,60.91,323.1,57.09,77.57-2.37,150.46-14.69,206-33.25q2.41-.81,4.79-1.63c33.87-11.79,60.13-26.26,76.56-42C1558.94,1969.54,1560.45,1941.68,1528.92,1916.34Z"/><path class="cls-2" d="M1459.1,1866.79c-18.61-9.74-37.12-11.58-58.46-13.57-18.06-1.69-35.94-10.46-53.49-15.41-94.46-26.66-225.69-37.39-336.86-23.56a645,645,0,0,0-77.57,14.25c-21.72,5.43-38.94,13.61-61.48,16.8-13.26,1.87-26.63,3.77-39.11,7.84-21.41,7-39.48,20.46-49.82,37.14-25.72,41.51-1.35,86.76,41.78,112.41,5.2,3.09,10.58,6,16.08,8.73,62.38,31.12,138.51,44.84,210.58,51.45,83.52,7.66,171.72,4.87,253.7-10.87,56.92-10.93,129.72-31.86,163.59-72.82,15.11-18.27,22.35-39.89,22.73-64.82.09-5.87-.17-11.81-2-17.48C1484.59,1884.19,1472.72,1873.93,1459.1,1866.79Z"/><path class="cls-9" d="M1185.65,1896.94c-17-27.57-52.36-44.28-87.06-57q-21.31-7.85-43.26-14.49c-12.17-3.7-27.48-10.23-40.37-11.38-12.53-1.12-28.7,3.48-40.94,5.66q-20.87,3.74-41.3,8.81c-21.72,5.43-38.94,13.61-61.48,16.8-13.26,1.87-26.63,3.77-39.11,7.84-21.41,7-39.48,20.46-49.82,37.14-25.72,41.51-1.35,86.76,41.78,112.41,5.2,3.09,10.58,6,16.08,8.73,62.38,31.12,138.51,44.84,210.58,51.45,6.17.57,50.78,6.35,49.71.59-.28-1.46-1.5-2.67-2.45-3.93-5.13-6.86-2.07-15.74,2.18-23,12.32-21,33.17-38.08,55.34-53,10.12-6.79,20.66-13.29,29.34-21.28.83-.77,1.65-1.55,2.45-2.34,8.2-8.09,14.3-17.38,11.64-27.75C1195.9,1920.29,1192.4,1907.91,1185.65,1896.94Z"/><path class="cls-4" d="M1466.81,1856.22c-25.47-21.64-68.41-40.83-118.71-55-94.46-26.66-225.69-37.39-336.86-23.56-120.82,15-210.68,56.91-231.43,103.42-13,29.1,2.31,59.5,45.23,85,71.76,42.66,209.53,68,341.85,63.6,82.09-2.71,159.25-16.56,218-37.37l5.07-1.83c35.86-13.22,63.66-29.43,81.08-47C1498.51,1915.72,1500.16,1884.54,1466.81,1856.22Z"/><path class="cls-5" d="M1446.79,1854.56c-24.09-19.35-64.69-36.54-112.24-49.25-89.29-23.89-213.31-33.58-318.34-21.3-114.15,13.35-199,50.72-218.56,92.27-12.23,26,2.25,53.18,42.84,76,67.86,38.18,198.07,60.91,323.1,57.09,77.57-2.37,150.46-14.69,206-33.25q2.42-.81,4.79-1.63c33.86-11.79,60.12-26.26,76.56-42C1476.82,1907.76,1478.33,1879.9,1446.79,1854.56Z"/><path class="cls-2" d="M1609.52,1799.81c-18.61-9.75-37.12-11.58-58.46-13.58-18.06-1.69-35.94-10.45-53.49-15.41-94.46-26.65-225.69-37.38-336.87-23.56a646.78,646.78,0,0,0-77.56,14.26c-21.72,5.43-38.94,13.61-61.48,16.79-13.26,1.88-26.63,3.78-39.11,7.85-21.41,7-39.48,20.46-49.82,37.14-25.72,41.5-1.36,86.76,41.78,112.4,5.2,3.1,10.58,6,16.07,8.73,62.39,31.13,138.52,44.85,210.59,51.46,83.52,7.66,171.72,4.87,253.7-10.87,56.92-10.93,129.72-31.86,163.59-72.82,15.11-18.28,22.35-39.9,22.73-64.82.09-5.88-.17-11.81-2-17.49C1635,1817.21,1623.13,1807,1609.52,1799.81Z"/><path class="cls-9" d="M1336.07,1830c-17-27.58-52.36-44.28-87.06-57q-21.33-7.85-43.27-14.5c-12.17-3.69-27.48-10.23-40.36-11.38-12.53-1.11-28.7,3.49-40.94,5.67q-20.87,3.72-41.3,8.81c-21.72,5.43-38.94,13.61-61.48,16.79-13.26,1.88-26.63,3.78-39.11,7.85-21.41,7-39.48,20.46-49.82,37.14-25.72,41.5-1.36,86.76,41.78,112.4,5.2,3.1,10.58,6,16.07,8.73,62.39,31.13,138.52,44.85,210.59,51.46,6.17.57,50.78,6.35,49.71.59-.28-1.47-1.5-2.67-2.45-3.94-5.13-6.85-2.07-15.74,2.18-23,12.32-21.06,33.17-38.08,55.34-53,10.12-6.8,20.66-13.29,29.34-21.28.83-.77,1.65-1.55,2.45-2.34,8.2-8.1,14.3-17.39,11.64-27.75C1346.32,1853.3,1342.82,1840.93,1336.07,1830Z"/><path class="cls-4" d="M1617.23,1789.24c-25.47-21.64-68.41-40.83-118.71-55-94.46-26.65-225.69-37.39-336.87-23.56-120.81,15-210.67,56.92-231.42,103.42-13,29.1,2.31,59.5,45.23,85,71.76,42.67,209.52,68,341.85,63.61,82.09-2.72,159.25-16.56,218-37.37q2.55-.91,5.07-1.84c35.85-13.21,63.66-29.42,81.08-47C1648.93,1848.73,1650.58,1817.56,1617.23,1789.24Z"/><path class="cls-10" d="M948.07,1809.29c-12.24,26,2.25,53.18,42.84,76,67.86,38.18,198.07,60.91,323.1,57.09,2.86-.09,5.7-.2,8.55-.31L1117,1724.66C1028.34,1741.77,964.67,1774,948.07,1809.29Z"/><path class="cls-11" d="M1166.63,1717c-17.25,2-33.82,4.58-49.6,7.63l205.53,217.43c48.62-1.95,95.2-7.8,136.57-16.6l-202.06-213.77A830,830,0,0,0,1166.63,1717Z"/><path class="cls-10" d="M1597.21,1787.58c-24.09-19.35-64.69-36.54-112.24-49.26-64.58-17.27-147.31-27.11-227.9-26.6l202.06,213.77a563.54,563.54,0,0,0,60.85-16.34q2.41-.81,4.79-1.64c33.86-11.78,60.12-26.25,76.56-42C1627.24,1840.78,1628.75,1812.91,1597.21,1787.58Z"/><path class="cls-11" d="M1270,1944.54a8,8,0,0,1-5.92-2.61l-179.62-197.22a8,8,0,1,1,11.83-10.77l179.62,197.21a8,8,0,0,1-5.91,13.39Z"/><path class="cls-2" d="M3646.46,1795.6c-18.6-9.75-37.11-11.58-58.45-13.58-18.07-1.69-35.94-10.46-53.49-15.41-94.46-26.65-225.69-37.39-336.87-23.56a643.37,643.37,0,0,0-77.57,14.26c-21.71,5.43-38.93,13.6-61.48,16.79-13.25,1.87-26.62,3.77-39.1,7.85-21.41,7-39.48,20.46-49.82,37.14-25.72,41.5-1.36,86.75,41.78,112.4,5.2,3.09,10.58,6,16.07,8.73,62.38,31.12,138.51,44.85,210.59,51.46,83.52,7.66,171.72,4.87,253.7-10.88,56.92-10.92,129.71-31.85,163.58-72.82,15.11-18.27,22.36-39.89,22.74-64.82.08-5.87-.17-11.81-2-17.48C3672,1813,3660.08,1802.74,3646.46,1795.6Z"/><path class="cls-3" d="M3373,1825.75c-17-27.58-52.35-44.28-87.06-57q-21.32-7.83-43.26-14.49c-12.17-3.69-27.48-10.23-40.36-11.38-12.54-1.12-28.71,3.48-40.95,5.67q-20.85,3.72-41.3,8.81c-21.71,5.43-38.93,13.6-61.48,16.79-13.25,1.87-26.62,3.77-39.1,7.85-21.41,7-39.48,20.46-49.82,37.14-25.72,41.5-1.36,86.75,41.78,112.4,5.2,3.09,10.58,6,16.07,8.73,62.38,31.12,138.51,44.85,210.59,51.46,6.17.56,50.78,6.35,49.7.58-.27-1.46-1.5-2.66-2.44-3.93-5.13-6.86-2.07-15.74,2.18-23,12.32-21.06,33.17-38.08,55.34-53,10.12-6.8,20.66-13.29,29.34-21.29.83-.76,1.65-1.54,2.45-2.33,8.19-8.1,14.29-17.39,11.63-27.75C3383.27,1849.09,3379.77,1836.71,3373,1825.75Z"/><path class="cls-4" d="M3654.18,1785c-25.47-21.63-68.41-40.83-118.71-55-94.46-26.66-225.69-37.39-336.87-23.56-120.81,15-210.67,56.91-231.42,103.42-13,29.1,2.31,59.5,45.23,85,71.75,42.66,209.52,68,341.85,63.61,82.09-2.72,159.25-16.57,218-37.38q2.55-.9,5.07-1.83c35.85-13.22,63.66-29.43,81.08-47C3685.88,1844.52,3687.52,1813.34,3654.18,1785Z"/><path class="cls-5" d="M3634.16,1783.37c-24.1-19.36-64.7-36.54-112.24-49.26-89.29-23.89-213.31-33.57-318.35-21.29-114.14,13.34-199,50.71-218.55,92.26-12.24,26,2.25,53.18,42.84,76,67.85,38.17,198.07,60.9,323.1,57.08,77.56-2.37,150.46-14.69,206-33.25l4.79-1.63c33.86-11.79,60.12-26.25,76.56-42C3664.18,1836.56,3665.7,1808.7,3634.16,1783.37Z"/><path class="cls-2" d="M3899.94,2205.28c-18.6-9.75-37.11-11.58-58.45-13.58-18.06-1.69-35.94-10.46-53.49-15.41-94.46-26.66-225.69-37.39-336.87-23.56a642.84,642.84,0,0,0-77.56,14.26c-21.72,5.43-38.94,13.6-61.49,16.79-13.25,1.87-26.62,3.77-39.1,7.85-21.41,7-39.48,20.46-49.82,37.14-25.72,41.5-1.36,86.75,41.78,112.4,5.2,3.09,10.58,6,16.07,8.73,62.39,31.12,138.52,44.85,210.59,51.46,83.52,7.66,171.72,4.86,253.7-10.88,56.92-10.92,129.72-31.85,163.59-72.82,15.11-18.27,22.35-39.89,22.73-64.82.09-5.87-.17-11.81-2-17.48C3925.44,2222.68,3913.56,2212.41,3899.94,2205.28Z"/><path class="cls-3" d="M3626.49,2235.43c-17-27.58-52.35-44.29-87.06-57q-21.32-7.83-43.26-14.49c-12.17-3.69-27.48-10.23-40.36-11.38-12.53-1.12-28.71,3.48-40.94,5.67q-20.86,3.72-41.3,8.81c-21.72,5.43-38.94,13.6-61.49,16.79-13.25,1.87-26.62,3.77-39.1,7.85-21.41,7-39.48,20.46-49.82,37.14-25.72,41.5-1.36,86.75,41.78,112.4,5.2,3.09,10.58,6,16.07,8.73,62.39,31.12,138.52,44.85,210.59,51.46,6.17.56,50.78,6.35,49.71.58-.28-1.46-1.5-2.67-2.45-3.93-5.13-6.86-2.07-15.74,2.18-23,12.32-21.05,33.17-38.07,55.34-53,10.12-6.8,20.66-13.3,29.34-21.29.83-.76,1.65-1.54,2.45-2.33,8.2-8.1,14.29-17.39,11.64-27.75C3636.75,2258.77,3633.25,2246.39,3626.49,2235.43Z"/><path class="cls-4" d="M3907.66,2194.7c-25.47-21.64-68.41-40.83-118.71-55-94.46-26.66-225.69-37.39-336.87-23.56-120.81,15-210.67,56.91-231.42,103.42-13,29.1,2.31,59.5,45.23,85,71.76,42.66,209.52,68,341.85,63.61,82.09-2.72,159.25-16.57,218-37.38q2.55-.9,5.07-1.83c35.85-13.22,63.66-29.43,81.08-47C3939.36,2254.2,3941,2223,3907.66,2194.7Z"/><path class="cls-5" d="M3887.64,2193.05c-24.09-19.36-64.7-36.54-112.24-49.26-89.29-23.89-213.31-33.57-318.34-21.29-114.15,13.34-199,50.71-218.56,92.26-12.24,26,2.25,53.18,42.84,76,67.86,38.18,198.07,60.91,323.1,57.09,77.56-2.37,150.46-14.69,206-33.25q2.41-.81,4.79-1.63c33.86-11.79,60.12-26.26,76.56-42C3917.67,2246.24,3919.18,2218.38,3887.64,2193.05Z"/><path class="cls-2" d="M3865.37,2117.49c-18.6-9.75-37.11-11.58-58.45-13.58-18.07-1.69-35.94-10.46-53.49-15.41-94.47-26.66-225.69-37.39-336.87-23.56A643.37,643.37,0,0,0,3339,2079.2c-21.71,5.43-38.93,13.6-61.48,16.79-13.25,1.87-26.62,3.77-39.1,7.85-21.41,7-39.48,20.46-49.82,37.14-25.72,41.5-1.36,86.75,41.78,112.4,5.2,3.09,10.58,6,16.07,8.73,62.38,31.12,138.51,44.85,210.59,51.46,83.52,7.66,171.72,4.87,253.7-10.88,56.92-10.92,129.71-31.85,163.58-72.82,15.11-18.27,22.36-39.89,22.74-64.82.08-5.87-.17-11.81-2-17.48C3890.86,2134.89,3879,2124.62,3865.37,2117.49Z"/><path class="cls-3" d="M3591.92,2147.64c-17-27.58-52.35-44.28-87.06-57q-21.32-7.83-43.26-14.49c-12.17-3.69-27.48-10.23-40.37-11.38-12.53-1.12-28.7,3.48-40.94,5.67q-20.85,3.72-41.3,8.81c-21.71,5.43-38.93,13.6-61.48,16.79-13.25,1.87-26.62,3.77-39.1,7.85-21.41,7-39.48,20.46-49.82,37.14-25.72,41.5-1.36,86.75,41.78,112.4,5.2,3.09,10.58,6,16.07,8.73,62.38,31.12,138.51,44.85,210.59,51.46,6.17.56,50.78,6.35,49.7.58-.27-1.46-1.5-2.66-2.44-3.93-5.13-6.86-2.07-15.74,2.17-23,12.33-21.06,33.18-38.08,55.35-53,10.12-6.8,20.66-13.29,29.34-21.29.83-.76,1.65-1.54,2.45-2.33,8.19-8.1,14.29-17.39,11.63-27.75C3602.18,2171,3598.68,2158.6,3591.92,2147.64Z"/><path class="cls-4" d="M3873.09,2106.91c-25.47-21.63-68.41-40.83-118.71-55-94.47-26.66-225.69-37.39-336.87-23.56-120.81,15-210.67,56.91-231.42,103.42-13,29.1,2.3,59.5,45.23,85,71.75,42.66,209.52,68,341.84,63.61,82.09-2.72,159.25-16.57,218-37.38q2.57-.9,5.08-1.83c35.85-13.22,63.66-29.43,81.08-47C3904.79,2166.41,3906.43,2135.23,3873.09,2106.91Z"/><path class="cls-10" d="M3491.68,2029.78c-23.58.7-46.82,2.31-69.2,4.93-114.14,13.34-199,50.71-218.55,92.26-12.24,26,2.25,53.18,42.84,76,67.85,38.17,198.06,60.9,323.1,57.08,53.84-1.64,105.42-8.09,150.5-18.08q-13.22.93-26.7,1.48Z"/><path class="cls-10" d="M3853.07,2105.26c-24.1-19.36-64.7-36.54-112.24-49.26a742.55,742.55,0,0,0-88.63-17.49l163,172.45c17.49-8.52,31.67-17.88,42-27.74C3883.09,2158.45,3884.61,2130.59,3853.07,2105.26Z"/><path class="cls-11" d="M3491.68,2029.78l202,213.69q13.47-.54,26.7-1.48a550.86,550.86,0,0,0,55.46-15.17c1.62-.54,3.21-1.08,4.79-1.63a314.71,314.71,0,0,0,34.59-14.23l-163-172.45A977.25,977.25,0,0,0,3491.68,2029.78Z"/><path class="cls-11" d="M3641.11,2245.92a8,8,0,0,1-5.92-2.61l-179.61-197.22a8,8,0,1,1,11.83-10.77L3647,2232.53a8,8,0,0,1-5.91,13.39Z"/><path class="cls-2" d="M3543.5,2094.2c-18.6-9.75-37.11-11.58-58.45-13.58-18.07-1.69-35.94-10.46-53.49-15.41-94.47-26.65-225.69-37.39-336.87-23.56a643.37,643.37,0,0,0-77.57,14.26c-21.71,5.43-38.93,13.6-61.48,16.79-13.25,1.87-26.62,3.77-39.1,7.85-21.41,7-39.48,20.46-49.82,37.14-25.72,41.5-1.36,86.75,41.78,112.4,5.2,3.09,10.58,6,16.07,8.73,62.38,31.12,138.51,44.85,210.59,51.46,83.52,7.66,171.72,4.87,253.7-10.87,56.92-10.93,129.71-31.86,163.58-72.83,15.11-18.27,22.36-39.89,22.74-64.82.08-5.87-.17-11.81-2-17.48C3569,2111.6,3557.12,2101.34,3543.5,2094.2Z"/><path class="cls-3" d="M3270.05,2124.35c-17-27.58-52.35-44.28-87.06-57q-21.31-7.83-43.26-14.49c-12.17-3.69-27.48-10.23-40.37-11.38-12.53-1.12-28.7,3.48-40.94,5.67q-20.85,3.72-41.3,8.81c-21.71,5.43-38.93,13.6-61.48,16.79-13.25,1.87-26.62,3.77-39.1,7.85-21.41,7-39.48,20.46-49.82,37.14-25.72,41.5-1.36,86.75,41.78,112.4,5.2,3.09,10.58,6,16.07,8.73,62.38,31.12,138.51,44.85,210.59,51.46,6.17.56,50.78,6.35,49.7.58-.27-1.46-1.5-2.66-2.44-3.93-5.13-6.86-2.07-15.74,2.17-23,12.33-21.06,33.18-38.08,55.35-53,10.12-6.8,20.66-13.29,29.34-21.29.83-.76,1.65-1.54,2.45-2.33,8.19-8.1,14.29-17.39,11.63-27.75C3280.31,2147.69,3276.81,2135.31,3270.05,2124.35Z"/><path class="cls-4" d="M3551.22,2083.62c-25.47-21.63-68.41-40.83-118.71-55-94.47-26.66-225.69-37.39-336.87-23.56-120.81,15-210.67,56.91-231.42,103.42-13,29.1,2.3,59.5,45.23,85,71.75,42.66,209.52,68,341.85,63.61,82.08-2.72,159.24-16.57,218-37.38q2.57-.9,5.08-1.83c35.85-13.22,63.66-29.43,81.08-47C3582.92,2143.12,3584.56,2111.94,3551.22,2083.62Z"/><path class="cls-10" d="M3531.2,2082c-24.1-19.36-64.7-36.54-112.24-49.26-89.3-23.89-213.31-33.57-318.35-21.29-114.14,13.34-199,50.71-218.55,92.26-12.24,26,2.25,53.18,42.84,76,67.85,38.17,198.06,60.9,323.1,57.08,77.56-2.37,150.46-14.69,206-33.25,1.62-.54,3.21-1.08,4.79-1.63,33.87-11.79,60.13-26.25,76.57-42C3561.22,2135.16,3562.74,2107.3,3531.2,2082Z"/><path class="cls-9" d="M1615.49,2447.64a68.11,68.11,0,0,1-8.57.67,46.53,46.53,0,0,1-20.27-4.49c-6.62-3.19-8.77-6.49-12.38-11.68-7.53-10.8-17.54-20.45-28.77-29l38-13.9c19-6.95,11.4-30.21,11.4-44.36-2.13-2.7-5.9-4.16-9.61-5.4l-26.6-8.92c-7.64-2.56-15.78-5.17-24-4.19-5.89.71-11.16,3.22-16.24,5.68-10,4.85-20.43,9.83-28.61,16.61-7.55,6.26-9.37,12-19.47,15.66-48.68-17.58-109.35-29.2-176-32.27v-12.73c0-8.63-16.25-15.63-36.3-15.63h-44.78c-20,0-36.3,7-36.3,15.63v16.35c-54.54,6-103.62,17.91-143.39,34L1001,2356.87c-9.59-3.77-21.32-4.81-31.88-3.75-11.21,1.13-13.57-.38-22.88-6.18a22.82,22.82,0,0,0-5.92-2.91c-3.34-.92-7-.45-10.49.06-6.44,1-12.76,3-19.3,3,0,14-7.17,39.8,11.37,47.08l41.6,16.34c-16.79,14.71-27.83,30.86-31.84,47.9H890.14c-20,0-36.3,7-36.3,15.63v19.27c0,8.63,16.25,15.63,36.3,15.63h50.59c.94,0,9.29,12.69,10.47,14.09,2.17,2.58,2.54,3.25-1.16,4.79-2.76,1.16-5.89,1.72-8.74,2.72a28.57,28.57,0,0,0-12.8,8.63v17.72c0,8.71-1,17.43,9.53,22.78l29,14.69c13,6.57,35.89,7.37,51.16,1.78l34.9-12.78c35.9,12.42,78,21.66,123.94,26.73v15.54c0,8.63,16.25,15.63,36.3,15.63h44.78c20.05,0,36.3-7,36.3-15.63v-11.92c49.41-2.27,95.55-9.25,136-19.88L1461.3,2606c14.81,5.81,37.77,5.36,51.28-1l30.18-14.24c16.12-7.61,10.29-30,10.29-42.8,0-1.13-8.9-1-8-5,.61-2.7,10.44-8.47,12.94-10.8a112.1,112.1,0,0,0,19.34-23.2h40.48c20,0,36.3-7,36.3-15.63,0-16.54.26-33,.26-49.6v-.27c-10.16.75-20.36,1.45-30.4,2.92C1621.15,2446.8,1618.32,2447.27,1615.49,2447.64ZM1254,2552.07c-102.35,0-185.32-35.72-185.32-79.77s83-79.78,185.32-79.78,185.31,35.72,185.31,79.78S1356.32,2552.07,1254,2552.07Z"/><path class="cls-10" d="M1617.81,2427.36H1586.4c-4.7-19.94-19-38.66-40.9-55.28l38-13.91c15.27-5.59,17.12-15.45,4.14-22l-29-14.69c-13-6.57-35.9-7.37-51.17-1.78l-37.07,13.57c-48.68-17.58-109.35-29.2-176-32.27v-12.73c0-8.63-16.25-15.63-36.3-15.63h-44.78c-20,0-36.3,7-36.3,15.63v16.35c-54.54,6-103.62,17.91-143.39,34L1001,2325.79c-14.81-5.81-37.76-5.36-51.27,1l-30.18,14.24c-13.51,6.38-12.46,16.26,2.35,22.07l41.6,16.34c-16.79,14.71-27.83,30.86-31.84,47.9H890.14c-20,0-36.3,7-36.3,15.63v19.28c0,8.63,16.25,15.62,36.3,15.62h50.59c7.88,12.91,19.87,25.1,35.35,36.29l-33.91,12.42c-15.27,5.59-17.13,15.45-4.14,22l29,14.69c13,6.57,35.89,7.37,51.16,1.78l34.9-12.77c35.9,12.41,78,21.65,123.94,26.72v15.54c0,8.63,16.25,15.63,36.3,15.63h44.78c20.05,0,36.3-7,36.3-15.63v-11.92c49.41-2.27,95.55-9.25,136-19.88l30.92,12.14c14.81,5.82,37.77,5.36,51.28-1l30.18-14.25c13.51-6.37,12.45-16.25-2.36-22.07l-21.94-8.62c27.08-14.91,47.37-32.23,58.87-51.08h40.48c20,0,36.3-7,36.3-15.62V2443C1654.11,2434.36,1637.86,2427.36,1617.81,2427.36ZM1254,2521c-102.35,0-185.32-35.71-185.32-79.77s83-79.78,185.32-79.78,185.31,35.72,185.31,79.78S1356.32,2521,1254,2521Z"/><path class="cls-12" d="M1254,2361.44a419.42,419.42,0,0,0-47.19,2.62L1363,2505.72c46.23-14.51,76.27-38,76.27-64.5C1439.29,2397.16,1356.32,2361.44,1254,2361.44Z"/><path class="cls-11" d="M1617.81,2427.36H1586.4c-4.7-19.94-19-38.66-40.9-55.28l38-13.91c15.27-5.59,17.12-15.45,4.14-22l-29-14.69c-13-6.57-35.9-7.37-51.17-1.78l-37.07,13.57c-48.68-17.58-109.35-29.2-176-32.27v-12.73c0-8.63-16.25-15.63-36.3-15.63h-44.78c-20,0-36.3,7-36.3,15.63v16.35q-15.93,1.77-31.2,4.18l61,55.28a419.42,419.42,0,0,1,47.19-2.62c102.34,0,185.31,35.72,185.31,79.78,0,26.51-30,50-76.27,64.5l63.91,57.94,3.45-.88,30.92,12.14c14.81,5.82,37.77,5.36,51.28-1l30.18-14.25c13.51-6.37,12.45-16.25-2.36-22.07l-21.94-8.62c27.08-14.92,47.37-32.23,58.87-51.08h40.48c20,0,36.3-7,36.3-15.62V2443C1654.11,2434.36,1637.86,2427.36,1617.81,2427.36Z"/><path class="cls-10" d="M1254,2521c-102.35,0-185.32-35.71-185.32-79.77,0-37,58.64-68.18,138.13-77.16l-61-55.28c-42.09,6.64-80.16,16.87-112.19,29.83L1001,2325.79c-14.81-5.81-37.76-5.36-51.27,1l-30.18,14.24c-13.51,6.38-12.46,16.26,2.35,22.07l41.6,16.34c-16.79,14.71-27.83,30.86-31.84,47.9H890.14c-20,0-36.3,7-36.3,15.63v19.28c0,8.63,16.25,15.62,36.3,15.62h50.59c7.88,12.91,19.87,25.1,35.35,36.29l-33.91,12.42c-15.27,5.59-17.13,15.45-4.14,22l29,14.69c13,6.57,35.89,7.37,51.16,1.78l34.9-12.77c35.9,12.41,78,21.65,123.94,26.72v15.54c0,8.63,16.25,15.63,36.3,15.63h44.78c20.05,0,36.3-7,36.3-15.63v-11.92c48-2.21,92.93-8.87,132.51-19L1363,2505.72C1332.43,2515.32,1294.74,2521,1254,2521Z"/><path class="cls-9" d="M3251.14,2519.82a79.39,79.39,0,0,1-9.87.76,53.66,53.66,0,0,1-23.36-5.17c-7.63-3.68-10.1-7.47-14.27-13.46-8.67-12.45-20.2-23.57-33.15-33.4l43.78-16c21.89-8,13.13-34.81,13.13-51.12-2.45-3.12-6.79-4.8-11.06-6.23l-30.66-10.27c-8.8-2.95-18.18-6-27.63-4.83-6.79.82-12.86,3.71-18.72,6.54-11.57,5.59-23.54,11.33-33,19.14-8.7,7.21-10.79,13.78-22.43,18-56.09-20.26-126-33.65-202.77-37.18V2372c0-9.94-18.72-18-41.82-18h-51.61c-23.1,0-41.83,8.06-41.83,18v18.85c-62.85,6.94-119.4,20.64-165.23,39.19l-37.62-14.77c-11.06-4.34-24.57-5.55-36.74-4.33-12.92,1.3-15.64-.44-26.37-7.12a26.18,26.18,0,0,0-6.81-3.35c-3.86-1.06-8.09-.52-12.1.07-7.41,1.1-14.69,3.49-22.24,3.49,0,16.14-8.26,45.86,13.11,54.25l47.93,18.83c-19.34,17-32.06,35.56-36.68,55.2H2415.3c-23.1,0-41.82,8.06-41.82,18v22.22c0,9.94,18.72,18,41.82,18h58.3c1.08,0,10.71,14.63,12.06,16.24,2.5,3,2.92,3.74-1.34,5.52-3.18,1.33-6.79,2-10.07,3.14a33,33,0,0,0-14.74,9.94v20.42c0,10-1.2,20.09,11,26.25l33.44,16.92c15,7.58,41.36,8.5,58.95,2.06l40.22-14.73c41.37,14.31,89.86,25,142.81,30.8V2725c0,10,18.73,18,41.83,18h51.61c23.1,0,41.82-8.06,41.82-18v-13.73c56.94-2.62,110.12-10.67,156.67-22.92l35.64,14c17.06,6.7,43.52,6.18,59.08-1.17l34.78-16.41c18.59-8.77,11.87-34.63,11.87-49.32,0-1.3-10.26-1.14-9.22-5.72.7-3.12,12-9.76,14.91-12.46a128.66,128.66,0,0,0,22.28-26.73h46.65c23.1,0,41.83-8.06,41.83-18,0-19.07.3-38.08.3-57.16V2515c-11.71.86-23.47,1.67-35,3.36C3257.67,2518.85,3254.41,2519.39,3251.14,2519.82Zm-416.58,120.33c-117.94,0-213.55-41.16-213.55-91.93s95.61-91.92,213.55-91.92,213.55,41.15,213.55,91.92S2952.5,2640.15,2834.56,2640.15Z"/><path class="cls-10" d="M3253.82,2496.45h-36.2c-5.41-23-21.9-44.55-47.13-63.71l43.78-16c17.6-6.44,19.73-17.8,4.77-25.38l-33.43-16.92c-15-7.58-41.36-8.49-59-2L3083.93,2388c-56.09-20.25-126-33.64-202.77-37.18v-14.67c0-9.94-18.72-18-41.82-18h-51.61c-23.1,0-41.83,8.07-41.83,18V2355c-62.85,6.93-119.4,20.63-165.23,39.19l-37.62-14.77c-17.07-6.71-43.52-6.18-59.09,1.16L2449.18,2397c-15.56,7.34-14.35,18.73,2.72,25.43l47.93,18.82c-19.34,17-32.06,35.57-36.68,55.21H2415.3c-23.1,0-41.82,8.06-41.82,18v22.22c0,9.94,18.72,18,41.82,18h58.3c9.07,14.88,22.9,28.92,40.74,41.82l-39.09,14.31c-17.59,6.44-19.73,17.8-4.77,25.38l33.44,16.92c15,7.58,41.36,8.49,58.95,2.05l40.22-14.72c41.37,14.31,89.86,25,142.81,30.8v17.91c0,9.94,18.73,18,41.83,18h51.61c23.1,0,41.82-8.06,41.82-18V2675.4c56.94-2.62,110.12-10.66,156.67-22.91l35.64,14c17.06,6.7,43.52,6.18,59.08-1.17l34.78-16.41c15.57-7.35,14.35-18.73-2.71-25.44l-25.29-9.92c31.21-17.2,54.59-37.15,67.84-58.87h46.65c23.1,0,41.83-8.06,41.83-18v-22.22C3295.65,2504.51,3276.92,2496.45,3253.82,2496.45Zm-419.26,107.89c-117.94,0-213.55-41.16-213.55-91.93s95.61-91.93,213.55-91.93,213.55,41.16,213.55,91.93S2952.5,2604.34,2834.56,2604.34Z"/><path class="cls-12" d="M2621,2512.41c0,50.77,95.61,91.93,213.55,91.93a457.12,457.12,0,0,0,94.72-9.53l-251.12-145C2642.71,2466.24,2621,2488.23,2621,2512.41Z"/><path class="cls-10" d="M2834.56,2604.34c-117.94,0-213.55-41.16-213.55-91.93,0-24.18,21.7-46.17,57.15-62.58l-96.84-55.91-.65.26-37.62-14.77c-17.07-6.71-43.52-6.18-59.09,1.16L2449.18,2397c-15.56,7.34-14.35,18.73,2.72,25.43l47.93,18.82c-19.34,17-32.06,35.57-36.68,55.21H2415.3c-23.1,0-41.82,8.06-41.82,18v22.22c0,9.94,18.72,18,41.82,18h58.3c9.07,14.88,22.9,28.92,40.74,41.82l-39.09,14.31c-17.59,6.44-19.73,17.8-4.77,25.38l33.44,16.92c15,7.58,41.36,8.49,58.95,2.05l40.22-14.72c41.37,14.31,89.86,25,142.81,30.8v17.91c0,9.94,18.73,18,41.83,18h51.61c23.1,0,41.82-8.06,41.82-18V2675.4c54.52-2.51,105.56-10,150.67-21.38l-102.55-59.21A457.12,457.12,0,0,1,2834.56,2604.34Z"/><path class="cls-11" d="M3253.82,2496.45h-36.2c-5.41-23-21.9-44.55-47.13-63.71l43.78-16c17.6-6.44,19.73-17.8,4.77-25.38l-33.43-16.92c-15-7.58-41.36-8.49-59-2L3083.93,2388c-56.09-20.25-126-33.64-202.77-37.18v-14.67c0-9.94-18.72-18-41.82-18h-51.61c-23.1,0-41.83,8.07-41.83,18V2355c-62.55,6.9-118.86,20.51-164.58,38.93l96.84,55.91c39-18,94.63-29.35,156.4-29.35,117.94,0,213.55,41.16,213.55,91.93,0,36.13-48.42,67.38-118.83,82.4L3031.83,2654c2-.5,4-1,6-1.53l35.64,14c17.06,6.7,43.52,6.18,59.08-1.17l34.78-16.41c15.57-7.35,14.35-18.73-2.71-25.44l-25.29-9.92c31.21-17.2,54.59-37.15,67.84-58.87h46.65c23.1,0,41.83-8.06,41.83-18v-22.22C3295.65,2504.51,3276.92,2496.45,3253.82,2496.45Z"/><path class="cls-9" d="M3853.91,2439.18a68.41,68.41,0,0,1-8.35.64,45.84,45.84,0,0,1-19.73-4.31c-6.45-3.07-8.53-6.23-12-11.22-7.33-10.38-17.07-19.66-28-27.86l37-13.36c18.49-6.68,11.09-29,11.09-42.62-2.07-2.6-5.74-4-9.35-5.19l-25.9-8.57c-7.43-2.46-15.35-5-23.34-4-5.74.68-10.86,3.09-15.82,5.45-9.77,4.66-19.88,9.44-27.85,16-7.35,6-9.11,11.49-19,15.05-47.39-16.89-106.45-28.06-171.3-31v-12.23c0-8.3-15.82-15-35.34-15h-43.6c-19.51,0-35.33,6.72-35.33,15v15.71c-53.1,5.79-100.88,17.21-139.6,32.68L3255.69,2352c-9.34-3.62-20.76-4.62-31-3.6-10.92,1.08-13.21-.37-22.28-5.94a21.81,21.81,0,0,0-5.76-2.79c-3.25-.89-6.83-.44-10.21,0-6.27.92-12.42,2.91-18.79,2.91,0,13.46-7,38.25,11.07,45.24l40.5,15.7c-16.35,14.14-27.09,29.65-31,46h-40.42c-19.51,0-35.33,6.72-35.33,15v18.53c0,8.29,15.82,15,35.33,15H3197c.91,0,9,12.2,10.19,13.54,2.1,2.48,2.46,3.12-1.14,4.61-2.68,1.1-5.73,1.65-8.51,2.61a27.78,27.78,0,0,0-12.45,8.29v17c0,8.37-1,16.76,9.27,21.89l28.25,14.12c12.64,6.31,34.94,7.08,49.8,1.71l34-12.28c35,11.93,75.91,20.81,120.66,25.69v14.93c0,8.29,15.82,15,35.33,15H3506c19.52,0,35.34-6.72,35.34-15v-11.46c48.1-2.18,93-8.89,132.36-19.1l30.1,11.66c14.42,5.59,36.77,5.16,49.92-1l29.38-13.69c15.7-7.31,10-28.87,10-41.12,0-1.09-8.67-.95-7.8-4.78.6-2.6,10.17-8.14,12.6-10.38a107.87,107.87,0,0,0,18.83-22.29h39.41c19.51,0,35.33-6.72,35.33-15,0-15.9.26-31.76.26-47.66v-.27c-9.89.72-19.83,1.4-29.59,2.81C3859.42,2438.37,3856.67,2438.83,3853.91,2439.18ZM3502,2539.52c-99.64,0-180.42-34.31-180.42-76.65s80.78-76.65,180.42-76.65,180.41,34.32,180.41,76.65S3601.6,2539.52,3502,2539.52Z"/><path class="cls-10" d="M3856.17,2419.7h-30.58c-4.57-19.17-18.51-37.15-39.82-53.13l37-13.36c14.86-5.37,16.67-14.85,4-21.16l-28.24-14.11c-12.64-6.32-34.94-7.09-49.81-1.72l-36.09,13c-47.39-16.89-106.45-28.05-171.3-31V2286c0-8.29-15.82-15-35.34-15h-43.6c-19.51,0-35.33,6.72-35.33,15v15.72c-53.1,5.78-100.88,17.21-139.6,32.68l-31.78-12.32c-14.42-5.59-36.77-5.15-49.92,1l-29.38,13.68c-13.15,6.13-12.13,15.62,2.29,21.21l40.5,15.7c-16.35,14.13-27.09,29.65-31,46h-40.42c-19.51,0-35.33,6.72-35.33,15v18.52c0,8.3,15.82,15,35.33,15H3197c7.66,12.4,19.34,24.11,34.41,34.87l-33,11.93c-14.87,5.37-16.67,14.85-4,21.16l28.25,14.11c12.64,6.32,34.94,7.09,49.8,1.72l34-12.28c35,11.93,75.91,20.81,120.66,25.68v14.94c0,8.29,15.82,15,35.33,15H3506c19.52,0,35.34-6.72,35.34-15v-11.46c48.1-2.18,93-8.89,132.36-19.1l30.1,11.66c14.42,5.59,36.77,5.15,49.92-1l29.38-13.69c13.15-6.12,12.13-15.62-2.29-21.21l-21.36-8.28c26.36-14.33,46.11-31,57.31-49.08h39.41c19.51,0,35.33-6.72,35.33-15v-18.52C3891.5,2426.42,3875.68,2419.7,3856.17,2419.7Zm-354.2,90c-99.64,0-180.42-34.32-180.42-76.65s80.78-76.65,180.42-76.65,180.41,34.31,180.41,76.65S3601.6,2509.66,3502,2509.66Z"/><path class="cls-12" d="M3502,2356.36c-66,0-123.73,15.06-155.18,37.54l302.43,83.41c20.88-12.51,33.17-27.79,33.17-44.3C3682.38,2390.67,3601.6,2356.36,3502,2356.36Z"/><path class="cls-10" d="M3787,2528.78l-5.14,18.62,1.24-.58C3794,2541.74,3795.15,2534.34,3787,2528.78Z"/><path class="cls-11" d="M3856.17,2419.7h-30.58c-4.57-19.17-18.51-37.15-39.82-53.13l37-13.36c14.86-5.37,16.67-14.85,4-21.16l-28.24-14.11c-12.64-6.32-34.94-7.09-49.81-1.72l-36.09,13c-47.39-16.89-106.45-28.05-171.3-31V2286c0-8.29-15.83-15-35.34-15h-43.6c-19.51,0-35.33,6.72-35.33,15v15.72c-53.1,5.78-100.88,17.21-139.6,32.68l-31.78-12.32c-14.42-5.59-36.77-5.15-49.92,1l-29.38,13.68c-4.82,2.24-7.72,4.94-8.78,7.73l179.17,49.41c31.45-22.48,89.17-37.54,155.18-37.54,99.64,0,180.42,34.31,180.42,76.65,0,16.51-12.29,31.79-33.17,44.3l121.48,33.51c20.76-12.78,36.53-27.14,46.07-42.57h39.41c19.51,0,35.33-6.72,35.33-15v-18.52C3891.5,2426.42,3875.68,2419.7,3856.17,2419.7Z"/><path class="cls-10" d="M3759.45,2517.33l21.36,8.28a30.19,30.19,0,0,1,6.19,3.17l3.45-12.51-19.76-5.45Q3765.27,2514.15,3759.45,2517.33Z"/><path class="cls-10" d="M3759.45,2517.33q5.84-3.18,11.24-6.51l-121.48-33.51c-32.69,19.58-86.46,32.35-147.25,32.35-99.63,0-180.41-34.32-180.41-76.65,0-14.29,9.21-27.66,25.23-39.11l-179.17-49.41c-1.82,4.83,1.93,9.94,11.07,13.48l40.5,15.7c-16.35,14.13-27.09,29.65-31,46h-40.42c-19.51,0-35.33,6.72-35.33,15v18.52c0,8.3,15.82,15,35.33,15H3197c7.66,12.4,19.34,24.11,34.41,34.87l-33,11.93c-14.87,5.37-16.67,14.85-4,21.16l28.25,14.11c12.64,6.32,34.94,7.09,49.8,1.72l34-12.28c35,11.93,75.91,20.81,120.66,25.68v14.94c0,8.29,15.82,15,35.33,15H3506c19.51,0,35.34-6.72,35.34-15v-11.46c48.1-2.18,93-8.89,132.36-19.1l30.1,11.66c14.42,5.59,36.77,5.15,49.92-1l28.14-13.11,5.14-18.62a30.19,30.19,0,0,0-6.19-3.17Z"/><path class="cls-2" d="M3630.22,2142.53c-18.61-9.75-37.12-11.58-58.46-13.58-18.06-1.69-35.94-10.46-53.49-15.41-94.46-26.65-225.69-37.39-336.87-23.56a642.84,642.84,0,0,0-77.56,14.26c-21.72,5.43-38.94,13.6-61.48,16.79-13.26,1.87-26.63,3.77-39.11,7.85-21.41,7-39.48,20.46-49.82,37.14-25.72,41.5-1.36,86.75,41.78,112.4,5.2,3.09,10.58,6,16.07,8.73,62.39,31.12,138.52,44.85,210.59,51.46,83.52,7.66,171.72,4.87,253.7-10.88,56.92-10.92,129.72-31.85,163.59-72.82,15.11-18.27,22.35-39.89,22.73-64.82.09-5.87-.17-11.81-2-17.48C3655.71,2159.93,3643.83,2149.67,3630.22,2142.53Z"/><path class="cls-3" d="M3356.77,2172.68c-17-27.58-52.36-44.28-87.06-57q-21.33-7.83-43.27-14.49c-12.17-3.69-27.48-10.23-40.36-11.38-12.53-1.12-28.7,3.48-40.94,5.67q-20.86,3.72-41.3,8.81c-21.72,5.43-38.94,13.6-61.48,16.79-13.26,1.87-26.63,3.77-39.11,7.85-21.41,7-39.48,20.46-49.82,37.14-25.72,41.5-1.36,86.75,41.78,112.4,5.2,3.09,10.58,6,16.07,8.73,62.39,31.12,138.52,44.85,210.59,51.46,6.17.56,50.78,6.35,49.71.58-.28-1.46-1.5-2.66-2.45-3.93-5.13-6.86-2.07-15.74,2.18-23,12.32-21.06,33.17-38.08,55.34-53,10.12-6.8,20.66-13.29,29.34-21.29.83-.76,1.65-1.54,2.45-2.33,8.2-8.1,14.3-17.39,11.64-27.75C3367,2196,3363.52,2183.64,3356.77,2172.68Z"/><path class="cls-4" d="M3637.93,2132c-25.47-21.63-68.41-40.83-118.71-55-94.46-26.66-225.69-37.39-336.87-23.56-120.81,15-210.67,56.91-231.42,103.42-13,29.1,2.31,59.5,45.23,85,71.76,42.66,209.52,68,341.85,63.61,82.09-2.72,159.25-16.57,218-37.38q2.55-.9,5.07-1.83c35.85-13.22,63.66-29.43,81.08-47C3669.63,2191.45,3671.28,2160.27,3637.93,2132Z"/><path class="cls-5" d="M3617.91,2130.3c-24.09-19.36-64.69-36.54-112.24-49.26-89.29-23.89-213.31-33.57-318.34-21.29-114.15,13.34-199,50.71-218.56,92.26-12.24,26,2.25,53.18,42.84,76,67.86,38.17,198.07,60.9,323.1,57.08,77.56-2.37,150.46-14.69,206-33.25q2.42-.81,4.79-1.63c33.86-11.79,60.12-26.25,76.56-42C3647.94,2183.49,3649.45,2155.63,3617.91,2130.3Z"/><path class="cls-13" d="M3533.54,2365l-36.86-15.41c-78-32.58-144.7-84.36-214-132.28a36.89,36.89,0,0,0-21-6.56H1475.31a36.88,36.88,0,0,0-21,6.56l-38.3,26.49-85,58.79-46,31.83c-7.14,4.94-14.24,10-21.43,14.82-8.28,5.61-19.24,5.25-29,7.75l-32.34,8.28a160.08,160.08,0,0,0-18.54,5.55c-.36.14-.76.34-.83.72s.83.6.94.24c0,30.58-9.37,88.8,37.05,88.8H3516.14c46.58,0,37.62-59.84,37.62-90.75C3546.74,2370.13,3540,2367.69,3533.54,2365Z"/><path class="cls-14" d="M3537.14,2342.64l-254.44-176a36.89,36.89,0,0,0-21-6.56H1475.31a36.88,36.88,0,0,0-21,6.56l-254.44,176c-29.76,20.59-15.19,67.26,21,67.26H3516.14C3552.33,2409.9,3566.9,2363.23,3537.14,2342.64Z"/><path class="cls-15" d="M3429.18,2358.75l-3.39-2.47-8.85-6.43-11.31-8.21-13.37-9.72L3377.2,2321l-16.38-11.9-17.31-12.58-17.88-13-18.05-13.11-17.85-13-17.28-12.55L3256.12,2233l-15-10.9-13.28-9.65-11.2-8.13L3202,2193.7l-1-.74a7.44,7.44,0,0,0-1.78-1.05c-2.27-.83-5.67-.23-8.09-.23H1519.42c-3.81,0-7.64-.44-11.44.07-4.11.55-6.73,2.59-10,5-6.63,4.9-13.07,10-19.6,15.05L1469,2219l-10.41,8-11.27,8.66-12,9.2-12.5,9.6-12.86,9.89-13.08,10.05-13.12,10.09-13,10-12.72,9.78-12.29,9.44-11.68,9-10.91,8.39-10,7.67-8.9,6.84-7.64,5.87-6.22,4.79c-1.15.88-1.17,1.9-1.21,3.33-.1,4.08,5.09,3.25,7.84,3.25h2130c1.34,0,3.88.48,5-.49a.5.5,0,0,0,.2-.37,1.09,1.09,0,0,0-.05-.17C3432.22,2360.48,3430.13,2359.43,3429.18,2358.75Z"/><path class="cls-13" d="M3262.3,2240.08H1442.75a1.5,1.5,0,0,1,0-3H3262.3a1.5,1.5,0,0,1,0,3Z"/><path class="cls-13" d="M3349,2302H1363.77a1.5,1.5,0,0,1,0-3H3349a1.5,1.5,0,0,1,0,3Z"/><path class="cls-13" d="M1593.37,2364.34a1.47,1.47,0,0,1-.93-.33,1.5,1.5,0,0,1-.25-2.1l135-171.16a1.5,1.5,0,0,1,2.36,1.86l-135,171.15A1.51,1.51,0,0,1,1593.37,2364.34Z"/><path class="cls-13" d="M2002.11,2364.34a1.54,1.54,0,0,1-.65-.15,1.51,1.51,0,0,1-.7-2L2083.3,2191a1.5,1.5,0,0,1,2.7,1.3l-82.53,171.16A1.52,1.52,0,0,1,2002.11,2364.34Z"/><path class="cls-13" d="M2398.5,2360.89h-.12a1.5,1.5,0,0,1-1.38-1.61l13-167.71a1.5,1.5,0,0,1,3,.24l-13,167.7A1.5,1.5,0,0,1,2398.5,2360.89Z"/><path class="cls-13" d="M2780.54,2364.34a1.5,1.5,0,0,1-1.42-1l-56.82-171.16a1.5,1.5,0,0,1,2.85-.94L2782,2362.36a1.51,1.51,0,0,1-.95,1.9A1.61,1.61,0,0,1,2780.54,2364.34Z"/><path class="cls-13" d="M3106.42,2370a1.48,1.48,0,0,1-1.23-.65l-122.92-178.51a1.5,1.5,0,1,1,2.47-1.7l122.92,178.51a1.5,1.5,0,0,1-.39,2.09A1.47,1.47,0,0,1,3106.42,2370Z"/><rect class="cls-16" x="1449.09" y="638.03" width="1888.37" height="1481.08" rx="96.84"/><path d="M3240.63,2120.61H1545.93a98.45,98.45,0,0,1-98.34-98.34V734.86a98.45,98.45,0,0,1,98.34-98.33h1694.7A98.45,98.45,0,0,1,3339,734.86V2022.27A98.45,98.45,0,0,1,3240.63,2120.61ZM1545.93,639.53a95.44,95.44,0,0,0-95.34,95.33V2022.27a95.45,95.45,0,0,0,95.34,95.34h1694.7a95.45,95.45,0,0,0,95.34-95.34V734.86a95.44,95.44,0,0,0-95.34-95.33Z"/><rect class="cls-13" x="1401.66" y="638.03" width="1888.37" height="1481.08" rx="96.84"/><rect class="cls-15" x="1459.63" y="678.5" width="1772.29" height="1354.56" rx="96.84"/><rect class="cls-17" x="1482.91" y="699.1" width="1726.61" height="1315.03" rx="96.84"/><rect class="cls-10" x="1603.13" y="826.9" width="1400.24" height="1066.46" rx="96.84"/><path class="cls-14" d="M2448.91,2047.88H2337.64a28.14,28.14,0,0,0-28.13,28.14h0a28.14,28.14,0,0,0,28.13,28.14h111.27a28.14,28.14,0,0,0,28.14-28.14h0A28.14,28.14,0,0,0,2448.91,2047.88Z"/><path class="cls-15" d="M2434.79,2047.88H2323.52a28.13,28.13,0,0,0-28.13,28.14h0a28.13,28.13,0,0,0,28.13,28.14h111.27a28.14,28.14,0,0,0,28.14-28.14h0A28.14,28.14,0,0,0,2434.79,2047.88Z"/><path class="cls-18" d="M1327.48,2330.89c-4.21-5.48-11-9.57-18.15-9l-13.89-8.65-16.15-1c-29.18-1.78-59.25-5.86-88.47-3.95-22.44,1.46-46.58,5.83-61.92,23.13-13.33,15-16,35.76-17.6,55.32-2.93,35.42-2.8,74.84,22.43,102.14,19.18,20.76,45.49,28.13,73.39,28.82a789.21,789.21,0,0,0,92.77-3.15c8.91-21.28,26.11-41.31,31.2-63.7,3.26-14.32,6.53-28.69,8-43.28a176.66,176.66,0,0,0-3.8-57.83C1333.71,2343.08,1331.69,2336.37,1327.48,2330.89Z"/><path class="cls-17" d="M2554.51,2384.84q-48.5-21.15-98.52-38.94c-37.24-13.33-74.93-23.59-115.14-21.09-22.55,28.48-47.74,63.8-51.4,99.33-2.08,20.09,2.41,40.22,6.87,60a23.34,23.34,0,0,0,2,6.1,23.87,23.87,0,0,0,4.9,5.65l6.31,5.91c6.82,6.4,27.83,26.44,37.4,26.64,38.74.84,74.41-8.91,110-22.57q59.82-23,120.68-43.27c14.34-4.78,33.06-11.39,35.87-27.81C2617.73,2409.94,2572.19,2392.55,2554.51,2384.84Z"/><path class="cls-19" d="M2583.17,2398.08c-6.84-3.73-16-9.62-23.76-11.13-6.08-1.18-9.55,14.22-10.4,18.52-2.88,14.58-2,29.65,1,44.14.24,1.15.48,2.86.81,4.79.93,5.51,2.5,12.78,6.25,13.81,5.5,1.5,15.35-3.9,20.55-5.64,14.34-4.78,33.06-11.39,35.87-27.81C2616.43,2417.53,2596.5,2405.35,2583.17,2398.08Z"/><path class="cls-7" d="M2370.72,2324.78l-1093.57-13.7a10.68,10.68,0,0,0-11,10.22l-3.44,185a10.52,10.52,0,0,0,10.63,10.49l1093.57,13.7a10.66,10.66,0,0,0,11-10.21l3.45-185.06A10.53,10.53,0,0,0,2370.72,2324.78Z"/><path class="cls-8" d="M2380.63,2372.47q.38-19.33.74-38.67c.09-4.9-4.68-8.94-10.65-9l-1093.57-14.1c-8-.11-10.46,5.25-11,10.88-1.91,21.62-2.29,43.33-2.13,65,0,2,1.37,31.09.14,31.27h2.6l13,.05c37.33.16,74.58.6,112,.7l175.06.45,383,1,326.54.84c28.33.07,57.35,1.62,85.63.22,2.8-.14,11.11,1.35,13.52,0C2386.68,2415,2380.42,2383.13,2380.63,2372.47Z"/><rect class="cls-20" x="1598.19" y="383.01" width="1279.87" height="1490.94" rx="45.47"/><rect class="cls-21" x="1553.01" y="342.96" width="1279.87" height="1490.94" rx="45.47"/><rect class="cls-4" x="1598.19" y="404.2" width="1189.5" height="1363.38" rx="45.47"/><path class="cls-20" d="M1682.77,725c0,121,98.38,220.06,222.88,228.15V868.59C1829.92,860.75,1771,799.47,1771,725s59-135.73,134.69-143.57V496.87C1781.15,505,1682.77,604,1682.77,725Z"/><path class="cls-21" d="M2062.31,670.91a138.53,138.53,0,0,1,11,54.11c0,79.77-67.67,144.43-151.16,144.43a160,160,0,0,1-16.47-.86v84.58c5.45.35,10.94.54,16.47.54,132.19,0,239.36-102.39,239.36-228.69a219.17,219.17,0,0,0-18.55-88.39Z"/><path class="cls-22" d="M1922.12,496.33c-5.53,0-11,.19-16.47.54v84.58a160,160,0,0,1,16.47-.86c63.46,0,117.77,37.37,140.19,90.32l80.62-34.28C2106.75,554.22,2021.52,496.33,1922.12,496.33Z"/><path class="cls-22" d="M1922.12,1127.09q-8.3,0-16.47.55v84.57a160,160,0,0,1,16.47-.86c63.46,0,117.77,37.37,140.19,90.33l80.62-34.29C2106.75,1185,2021.52,1127.09,1922.12,1127.09Z"/><path class="cls-21" d="M2062.31,1301.68a138.44,138.44,0,0,1,11,54.1c0,79.77-67.67,144.43-151.16,144.43a160,160,0,0,1-16.47-.86,155,155,0,0,1-59.21-18.53l-50,69.57a245.72,245.72,0,0,0,109.26,33.54c5.45.35,10.94.55,16.47.55,132.19,0,239.36-102.39,239.36-228.7a219.21,219.21,0,0,0-18.55-88.39Z"/><path class="cls-20" d="M1682.77,1355.78c0,82.23,45.43,154.31,113.62,194.61l50-69.57c-45.12-25-75.48-71.62-75.48-125,0-74.44,59-135.73,134.69-143.57v-84.57C1781.15,1135.72,1682.77,1234.77,1682.77,1355.78Z"/><rect class="cls-21" x="2221.77" y="483.96" width="482.32" height="71.41" rx="21.1"/><rect class="cls-21" x="2221.77" y="1149" width="482.32" height="71.41" rx="21.1"/><rect class="cls-22" x="2255.08" y="608.48" width="91.14" height="91.14"/><rect class="cls-21" x="2255.08" y="719.74" width="91.14" height="91.14"/><rect class="cls-20" x="2255.08" y="831" width="91.14" height="91.14"/><path class="cls-22" d="M2690.84,648.11H2377a2.5,2.5,0,0,1,0-5h313.86a2.5,2.5,0,0,1,0,5Z"/><path class="cls-22" d="M2690.84,665H2377a2.5,2.5,0,0,1,0-5h313.86a2.5,2.5,0,0,1,0,5Z"/><path class="cls-22" d="M2690.84,750.94H2377a2.5,2.5,0,0,1,0-5h313.86a2.5,2.5,0,0,1,0,5Z"/><path class="cls-22" d="M2690.84,767.81H2377a2.5,2.5,0,0,1,0-5h313.86a2.5,2.5,0,0,1,0,5Z"/><path class="cls-22" d="M2690.84,870.63H2377a2.5,2.5,0,0,1,0-5h313.86a2.5,2.5,0,0,1,0,5Z"/><path class="cls-22" d="M2690.84,887.5H2377a2.5,2.5,0,0,1,0-5h313.86a2.5,2.5,0,0,1,0,5Z"/><rect class="cls-22" x="2245.05" y="1282.01" width="91.14" height="91.14"/><rect class="cls-21" x="2245.05" y="1393.27" width="91.14" height="91.14"/><rect class="cls-20" x="2245.05" y="1504.53" width="91.14" height="91.14"/><path class="cls-22" d="M2680.81,1321.65H2367a2.5,2.5,0,0,1,0-5h313.86a2.5,2.5,0,0,1,0,5Z"/><path class="cls-22" d="M2680.81,1338.51H2367a2.5,2.5,0,0,1,0-5h313.86a2.5,2.5,0,0,1,0,5Z"/><path class="cls-22" d="M2680.81,1424.47H2367a2.5,2.5,0,0,1,0-5h313.86a2.5,2.5,0,0,1,0,5Z"/><path class="cls-22" d="M2680.81,1441.34H2367a2.5,2.5,0,0,1,0-5h313.86a2.5,2.5,0,0,1,0,5Z"/><path class="cls-22" d="M2680.81,1544.17H2367a2.5,2.5,0,0,1,0-5h313.86a2.5,2.5,0,0,1,0,5Z"/><path class="cls-22" d="M2680.81,1561H2367a2.5,2.5,0,0,1,0-5h313.86a2.5,2.5,0,1,1,0,5Z"/><g class="cls-23"><path class="cls-24" d="M3719.26,2562.72a33.25,33.25,0,0,0-3.55-1.27c-3.23-19.32-15-39.4-21.28-56.63-4.12-11.31-8-22.72-11.47-34.26a356.11,356.11,0,0,1-10.31-43.47c-1.67-10-.27-20.18-11.08-25.85-4.75-2.49-10.2-2.27-15.55-1.15-.79-2.28-1.56-4.57-2.35-6.85-20-58.08-40.93-115.84-61.23-173.82a486.42,486.42,0,0,0,67.52-21.2c35.71-14.39-44.5-248.46-51.49-276.89q-1.09-4.42-2.14-8.85c-28.59-121-34.28-242.6-56.72-363.84-9.9-53.49-37.31-99.2-50.74-151.46-5.31-20.68,5.88-66-20.62-73.19-9.17-2.51-19.19-1.34-29.23.83-.58-8.48-.82-17-.77-25.49a285.55,285.55,0,0,0,50.31-13.45c9.84-3.69,20.47-9.45,25.41-18.1a54.41,54.41,0,0,0,9.17-2.83c22.37-9.16,36-33.12,39.1-57.09s-2.5-48.16-8.93-71.46q-5.16-18.7-11.06-37.21c37.07-3.64,73.58-12,95.83-29.18l.69-.26c29.36-11.43,58.84-27,76.21-53.32,13.38-20.25,18.26-45,19.07-69.3a235.32,235.32,0,0,0-9.73-75.06c-4.41-58.27-51.92-111.9-101-144.9-40.67-27.34-84.51-49.69-124.54-78-20.1-14.22-37.93-30.7-55-48L3488.5,660a422.91,422.91,0,0,1-53.38-52.58c-14.15-16.65-25.25-34.19-35.52-52.19,14.85,15.25,29.22,30.88,44.14,45.92l-68.48-90c-2.46-4.37-5-8.74-7.55-13.12-37.9-64.11-114.81-84.57-182.6-56.52-13.72,5.68-29,12.64-40.33,22.45-13,11.23-30.66,13.61-43,26-13.71,13.87-24.42,34.7-20.42,54.58,1.88,9.33,6.5,17.19,12.15,24.45.06,1.85.1,3.44,0,4.55-.61,9.58-.81,19.17-1.07,28.76-.13,4.81-.16,9.82,0,14.93a10.48,10.48,0,0,1-5.55,4.69c-2.69,1.06-5.69,1.58-7.13,4-4.32,7.22,6.5,12.72,14.51,14.21,4.28,30.08,16.87,58.82,49.14,67.26,10.07,2.63,18.25,6.46,24.55,13.27,1,1.46,1.84,2.78,2.31,3.43a60.69,60.69,0,0,1,6,9.9q1.16,2.76,2.08,5.6c1.15,4.08,1.73,8.34,3.11,12.33,1.5,7.91,2.25,16,3,24q1.17,12.81,2.33,25.61l-1.56,1.17c-8.89,6.75-6.54,16.44-4.34,25.93,1.68,7.28,2.69,17.84.21,25.06-1.32,3.83-4.59,7.45-8,10.56a97.88,97.88,0,0,0-17.85,10.79,60,60,0,0,0-7.11.84c-83.48,14.93-109.4,140.67-123.26,209.17q-1.11,5.47-2.17,11c-11.59,60.13-19.18,121.21-37,179.79-14.8,48.74-94.25,24.89-151.84,1.23-10.44-6.43-22.37-10.46-33.76-15.26q-9.55-4-19-8.28c-15.3-7.75-34.64-27.51-50.37-26.38-5.51-3.4-10.94-7-16.27-10.73-18.15-12.82-33.33-30.17-52.63-41.19a16.77,16.77,0,0,0-6.48-2.47,6.52,6.52,0,0,0-6.13,2.56q7.33,15.9,15.73,31.3c1.44,2.64,6.77,8.72,1.84,8.67-2.81,0-5.94-2.7-8.44-3.81l-14.88-6.66c-12.27-5.49-24.46-11.11-37.36-14.78-2.21-.62-6.61-3-8.89-2.09-6.57,2.69,14.63,19.69,17.28,21.85,9,7.35,18.75,13.23,28.71,19.15-1.67-1-7.38-1-9.52-1.45q-6.48-1.53-12.88-3.37c-12.82-3.66-27-12.33-40.24-13.32a3.49,3.49,0,0,0-2,.29c-1.74,1-.93,3.67.16,5.37,13.11,20.37,35.69,32,57,41.92-4.3-2-10.12-2.87-14.8-3.75-9.23-1.74-19.13-3.83-28.45-6.42-8-2.23-19.42-9.26-27.76-8.2-2.24.28-4.66,1.93-4.91,4.33-.42,4.07,5.27,7.79,7.93,10.19q6.67,6,13.74,11.63a197.35,197.35,0,0,0,30,19.77c-4.85-.82-37.65-9.52-38.41-2.47a4.72,4.72,0,0,0,.84,2.83c2,3.28,5.25,5.54,8.48,7.61,24.27,15.57,52.42,26.22,79.73,35.28,2.32.76,4.64,1.54,7,2.32,0,.27-.05.55-.06.83-.18,10.08,9.67,17,18.41,22.07,63.8,36.59,130.84,67.36,195.11,102.36,57.47,31.3,129.42,56.57,193.85,31a115.61,115.61,0,0,0,21.7-11.54c-5.28,11.64-10.83,23.27-16.55,35.1-87.61,181.16-126.25,384.93-148.62,582.77-1.75,15.54-18.61,51.69-14.29,65.4a25,25,0,0,0,4.62,7.8,115.91,115.91,0,0,0,79.78,43c26.21,2.29,53.46-4.38,78.49,3.74,11.93,3.87,22.58,10.9,33.68,16.75,12.59,69.77,31.36,138.31,54.13,205q2.53,7.42,5.16,14.81a29.83,29.83,0,0,0-5.05,1.41c-6.45,2.49-10.62,7-11.13,14-.71,9.55,5.53,9.85,11.71,14.9a45.32,45.32,0,0,1,10.5,12.7c12,20.74,18.83,44,24.22,67.17,4.63,19.88,5,41.94,12.85,61.06-1.84.41-3.7.8-5.56,1.17-2.39-4.42-5.75-7.15-10.17-5-3,1.44-4.5,4.43-4.93,8-3.67.78-7.31,1.63-10.89,2.66-10.15,2.91-20.48,8.27-27.86,15.69a59.18,59.18,0,0,0-9.33,9.1c-8.61,10.72-12.47,25.33-9.4,38.72,4.67,20.31,24.07,34.58,44.34,39.42s41.48,2.06,62.12-.76l64.44-8.78c16.94-2.3,34.13-4.68,49.76-11.6,17.33-7.66,21.83-28.41,16.9-45.34q-.32-1.1-.72-2.19c-1.39-18.45-12.08-43.59-24.43-51a2.69,2.69,0,0,1-.29-.16c.11-18.49-6-38.88-8.11-55.81-1.46-11.94-2.68-23.94-3.44-36a358.12,358.12,0,0,1-.25-44.68c.63-10.1,4.3-19.72-5-27.68-4.06-3.49-9.42-4.51-14.89-4.63-.25-2.4-.49-4.8-.74-7.2-7.09-67.4-15.28-134.67-22.51-202,14,2,28.05,4,42.11,4.84,19.24,1.17,39.48,1.72,60.28,1.58,27.94,64.9,61.58,127.22,98.67,186.83,2.76,4.44,5.56,8.86,8.36,13.27a29,29,0,0,0-4.6,2.51c-5.72,3.87-8.76,9.22-7.69,16.13,1.46,9.48,7.61,8.36,14.77,11.88a45.46,45.46,0,0,1,13.1,10c16.33,17.51,28.25,38.6,38.74,60,8.14,16.6,13.27,35.73,23.07,51.7-3.67,1.3-7.38,2.54-11.07,3.81a24.44,24.44,0,0,0-1.33-2.66c-2.5-4.3-10.31-11.09-13.18-3.33a28.23,28.23,0,0,0-1.16,12c-9.57,4.35-18.92,11.1-25.07,19.44-12.62,9.85-16.25,29.08-10.14,44.08,6.46,15.84,21.72,26.88,38.11,31.73s33.91,4.25,50.89,2.23c34.49-4.1,68.13-13.81,100.5-26.39,13.94-5.42,33.65-13.44,38.56-29.32,1.57-5.06.84-9.06-1.26-12.25a19.88,19.88,0,0,0,2.94-9C3754.16,2605.62,3736.07,2569.83,3719.26,2562.72Z"/></g><path class="cls-22" d="M3733.12,2620c-39.3-9.74-68.78,6.54-106.56,12.78a110.7,110.7,0,0,1-72-12.83,15.42,15.42,0,0,0-4.57-2c-2.89-.54-5.82.73-8.3,2.32-14.38,9.26-18.78,29.82-12.32,45.65s21.71,26.88,38.11,31.73,33.91,4.25,50.89,2.23c34.48-4.1,68.13-13.81,100.49-26.39,14-5.42,33.65-13.44,38.57-29.32C3762.27,2628.43,3745.23,2623,3733.12,2620Z"/><path class="cls-20" d="M3727.13,2562.72c-9.4-4-21.27-3.65-31.25-4.61-15.52-1.48-34.24-6.05-49.27-.3-11.2,4.29-18.91,14.44-28.54,21.59-15.46,11.47-35.29,14.85-52.89,22.65s-34.69,23.74-32.7,42.88c.89,8.53,5.56,16.31,11.61,22.38,13.78,13.81,34.21,19.26,53.71,18.86s38.47-6,57.17-11.59l59.11-17.62c15.6-4.65,32.51-10.24,41.34-23.91a21,21,0,0,0,3.68-10.23C3762,2605.62,3744,2569.83,3727.13,2562.72Z"/><path class="cls-22" d="M3578.91,2593.64c-2.5-4.3-10.32-11.09-13.18-3.33-1.7,4.62-1.79,11.25-.28,17.24,1.27,5,3.68,9.65,7.22,12.21a7.9,7.9,0,0,0,7.28,1.36c2.76-1.06,4.33-4.1,4.55-7s-.63-5.84-1.41-8.69C3582,2601.36,3581,2597.25,3578.91,2593.64Z"/><path class="cls-25" d="M3651.54,2393.24c-22.49-65.19-46.06-130-68.66-195.14-44.19-127.43-69.12-253.43-87.27-385.9-16.76-122.33-29.86-247-37.36-369.3-3.1-50.6-1.64-85.34-51.3-71.1-19.89,5.71-59.46,10.67-72.29,29.44-10.58,15.48-12,61.19-17.12,81.87-14.4,58-32.12,114.43-42.91,174.23-13.71,76-8.9,141.5,13.6,219.81,25.16,87.54,52.82,174.36,80.46,261.16,32.53,102.14,80.75,198.53,136.87,288.7,27.75,44.59,57.49,87.76,88.53,129.79,11.83,16,25.17,32.21,42.06,43.15,20.25,13.12,33.13,6.39,54.65-1.46l1.67-.63a19.65,19.65,0,0,0,6.36-3.58c2.24-2,3.61-4.84,4.85-7.61,14.74-33-10-65.54-20.18-97.6S3662.53,2425.07,3651.54,2393.24Z"/><path class="cls-21" d="M3690.83,2470.56a358,358,0,0,1-10.31-43.47c-1.67-10-.26-20.18-11.08-25.85-6.83-3.58-15.12-1.56-22.49.7-37.9,11.59-74.74,27.41-113.86,33.79-8.23,1.34-16.87,2.38-23.77,7.06-5.73,3.87-8.77,9.22-7.7,16.13,1.47,9.48,7.62,8.36,14.78,11.88a45.42,45.42,0,0,1,13.09,10c16.34,17.51,28.26,38.6,38.74,60,10.71,21.82,16.19,48,34,65.68,22.17,22,54.37,12,80.45,3.39,17.43-5.77,40.45-14.57,41.71-36.13,1.33-22.85-14.43-48-22-68.91C3698.19,2493.51,3694.29,2482.1,3690.83,2470.56Z"/><path class="cls-22" d="M3380.18,2657.08c-2.28-1.68-5.25-2.08-8.08-2.2-5.82-.26-11.34,1.35-17,1.34-6.11,0-12.09,1.46-18.17,1.93-6.27.48-12.14-1-18.57-1.29-13.7-.56-25.66,5.2-38.6,5.76-14,.61-29.78-4.11-42.64-9.18-14.91-5.87-29-13.55-44.57-17.8-12.52-3.42-28.46,8.59-35.86,17.79-8.61,10.72-12.47,25.33-9.39,38.72,4.67,20.31,24.07,34.58,44.33,39.42s41.48,2.06,62.13-.76l64.44-8.78c16.93-2.3,34.13-4.68,49.76-11.59,17.32-7.67,21.82-28.42,16.89-45.35C3384,2662.07,3382.71,2659,3380.18,2657.08Z"/><path class="cls-20" d="M3359.68,2611.93c-8.77-5.23-20.57-6.54-30.33-8.86-15.16-3.6-33.08-10.7-48.75-7.06-11.68,2.71-20.72,11.7-31.24,17.46-16.89,9.23-37,9.86-55.5,15.17s-37.62,18.74-38.28,38c-.3,8.56,3.27,16.92,8.43,23.75,11.74,15.58,31.24,23.78,50.61,26.07s38.93-.68,58.21-3.63l61-9.32c16.09-2.46,33.61-5.68,44.24-18a21,21,0,0,0,5-9.63C3388.35,2659.22,3375.36,2621.29,3359.68,2611.93Z"/><path class="cls-22" d="M3209.69,2618c-9.5,4.54-3.76,24.29,1.65,29.83,2.2,2.25,5.44,4,8.41,3s4.43-4.37,4.7-7.48C3225,2636.93,3220.57,2612.76,3209.69,2618Z"/><path class="cls-25" d="M3319.05,1385.53c-20.67,1.07-60.34-3-77.07,12.37-13.8,12.7-25.48,56.92-35.14,75.91-27.12,53.29-57.1,104.23-81.1,160.06-30.49,70.93-40.57,135.85-36.31,217.22,4.76,91,12.13,181.78,19.49,272.57,8.66,106.85,33.9,211.62,68.24,312.13,17,49.7,36.22,98.46,57,146.41,7.92,18.28,17.26,37.05,31.25,51.53,16.77,17.34,30.83,13.69,53.57,10.89.59-.07,1.18-.14,1.77-.23a19.72,19.72,0,0,0,7-2c2.64-1.49,4.61-3.91,6.43-6.32,21.79-28.78,5.08-66.1,2.35-99.64s-6-67.08-9.52-100.57c-7.21-68.58-15.57-137-22.89-205.6-14.32-134.11-10.19-262.49,2-395.64,11.26-123,26.59-247.32,46.88-368.21C3361.38,1416.37,3370.63,1382.85,3319.05,1385.53Z"/><path class="cls-16" d="M3233.8,1041.24l-112.11,68.11,110.86,193.87a36.16,36.16,0,0,0,49.85,13.2L3332,1287a37.59,37.59,0,0,0,13.33-50.67Z"/><path d="M3264,1323a38,38,0,0,1-9.67-1.26,37.5,37.5,0,0,1-23.13-17.76l-111.58-195.14,114.68-69.67,112.31,196.41a39,39,0,0,1-13.87,52.71l-49.61,29.43A37.48,37.48,0,0,1,3264,1323Zm-140.33-213.11,110.14,192.6a34.67,34.67,0,0,0,47.79,12.65l49.61-29.43a36,36,0,0,0,12.8-48.64l-110.79-193.73Z"/><path class="cls-16" d="M3243.48,1020.46c-3.19-6-11.37-7.91-18.16-4.18l-120.78,66.36c-6.8,3.73-9.75,11.72-6.55,17.76l8.94,16.9c3.19,6,11.36,7.92,18.16,4.18l120.78-66.35c6.79-3.74,9.74-11.73,6.55-17.76Z"/><path d="M3117.74,1124.9a15.07,15.07,0,0,1-4.33-.63,12.87,12.87,0,0,1-7.81-6.27l-8.94-16.9c-3.58-6.77-.37-15.64,7.16-19.78L3224.6,1015a16.23,16.23,0,0,1,12.4-1.48,12.86,12.86,0,0,1,7.8,6.27l8.94,16.9c3.59,6.77.38,15.65-7.15,19.78l-120.78,66.36A16.81,16.81,0,0,1,3117.74,1124.9Zm114.92-109a13.86,13.86,0,0,0-6.62,1.73L3105.26,1084c-6.1,3.35-8.77,10.41-6,15.75l8.94,16.9a9.93,9.93,0,0,0,6,4.8,13.23,13.23,0,0,0,10.09-1.23l120.78-66.36c6.1-3.35,8.77-10.41,6-15.74l-8.94-16.9a9.89,9.89,0,0,0-6-4.81A12.23,12.23,0,0,0,3232.66,1015.86Z"/><path class="cls-16" d="M3360.25,1247.7c-4.64-8.71-13.32-13.13-19.29-9.82l-106,58.84c-6,3.31-7,13.15-2.39,21.86l13,24.39c4.64,8.71,13.32,13.13,19.29,9.82l106-58.84c6-3.31,7-13.15,2.39-21.86Z"/><path d="M3260.52,1355.39a13.13,13.13,0,0,1-3.69-.56c-4.91-1.45-9.6-5.62-12.55-11.15l-13-24.39c-5.05-9.45-3.7-20.16,3-23.88l106-58.84a11.22,11.22,0,0,1,8.79-.73c4.91,1.45,9.6,5.62,12.56,11.16l13,24.38c5,9.45,3.7,20.16-3,23.88l-106,58.84A10.39,10.39,0,0,1,3260.52,1355.39Zm84.82-117.11a7.38,7.38,0,0,0-3.65.92l-106,58.84c-5.18,2.87-6,12-1.8,19.83l13,24.39c2.59,4.85,6.61,8.47,10.76,9.69a8.24,8.24,0,0,0,6.48-.48l106-58.83c5.18-2.88,6-12,1.8-19.84l-13-24.39c-2.58-4.85-6.61-8.47-10.76-9.69A10,10,0,0,0,3345.34,1238.28Z"/><path class="cls-16" d="M3375,1252c-4.64-8.71-14-12.77-20.77-9l-120.58,66.73c-6.79,3.76-8.54,14-3.9,22.67l13,24.4c4.64,8.71,14,12.77,20.77,9l120.58-66.73c6.78-3.76,8.54-14,3.9-22.67Z"/><path d="M3258,1368.7a15.18,15.18,0,0,1-4.27-.63,21.16,21.16,0,0,1-12.27-10.57l-13-24.4c-5-9.46-3-20.53,4.49-24.69l120.58-66.73a13.63,13.63,0,0,1,10.55-1,21.16,21.16,0,0,1,12.27,10.57l13,24.4c5,9.46,3,20.53-4.49,24.69l-120.58,66.73A12.9,12.9,0,0,1,3258,1368.7Zm101.79-125.61a9.84,9.84,0,0,0-4.8,1.22L3234.37,1311c-6.09,3.37-7.58,12.63-3.31,20.65l13,24.4a18.15,18.15,0,0,0,10.47,9.1,10.53,10.53,0,0,0,8.25-.7l120.57-66.72c6.09-3.37,7.58-12.64,3.31-20.66l-13-24.4a18.18,18.18,0,0,0-10.47-9.1A12.09,12.09,0,0,0,3359.74,1243.09Z"/><path class="cls-13" d="M3680.22,781.61c-38.88-39.91-92.84-60.58-140.11-90.08A418.4,418.4,0,0,1,3443,607.46c-28.89-34-45.11-71.7-67.41-109.42-37.91-64.11-114.81-84.57-182.6-56.52-13.73,5.68-29,12.64-40.33,22.45-12.95,11.23-30.66,13.61-43,26-13.71,13.87-24.41,34.7-20.41,54.58,4.12,20.48,21.44,33.9,33.93,49.32,15.85,19.58,28.67,40.09,46.74,58.19,14.92,14.93,19.54,35.19,38.07,48.27,9.38,6.61,17.65,16.63,25.06,28.21,15.41,24.11,27.11,55,37.33,76.26,42.62,88.58,72.88,183.57,126,266.26,5.61,8.74,11.82,17.64,21,22.6,7.43,4,16.09,5,24.52,5.74a461,461,0,0,0,204.73-29.7c29.36-11.43,58.84-27,76.21-53.32,13.37-20.25,18.25-45,19.07-69.3a235.59,235.59,0,0,0-24.75-113A210.09,210.09,0,0,0,3680.22,781.61Z"/><path class="cls-26" d="M3562.53,864.31C3508,819,3445.14,782.85,3398.45,729.46A320.93,320.93,0,0,1,3323,566.07c-2.91-19.7-4-40-11.41-58.47-19.65-49.36-68.09-87-118.62-66.08-13.73,5.68-29,12.64-40.33,22.45-12.95,11.23-30.66,13.61-43,26-13.71,13.87-24.41,34.7-20.41,54.58,4.12,20.48,21.44,33.9,33.93,49.32,15.85,19.58,28.67,40.09,46.74,58.19,14.92,14.93,19.54,35.19,38.07,48.27,9.38,6.61,17.65,16.63,25.06,28.21,15.41,24.11,27.11,55,37.33,76.26,42.62,88.58,72.88,183.57,126,266.26,5.61,8.74,11.82,17.64,21,22.6,7.43,4,16.09,5,24.52,5.74,52,4.34,199.12,8.51,222.57-53.28C3688.5,982.87,3604.32,899,3562.53,864.31Z"/><path class="cls-25" d="M3305,756.62q-16-64.89-38.1-128c-1-3-2.1-6.29-.89-9.2.84-2,2.59-3.43,4.14-4.94,10.4-10.15,17.22-29.41,7.51-42.1a24.87,24.87,0,0,0-27.35-8.08c-11.51,4.11-18.53,16.28-29.83,21-10.86,4.5-24.61.42-31.26-9.28-4.88-7.12-5.84-16-7.65-24.5-.34-1.59-.71-3.16-1.13-4.71a6.49,6.49,0,0,0-1.54-3.11c-2.35-2.23-6.38,0-7.9,2.81s-1.86,6.33-3.88,8.86c-4,5-11.74,3.69-17.86,1.93l-33.85-9.74c-2.9-.83-6-1.67-8.9-.77-7.33,2.29-4.71,21-5.09,26.89-.62,9.58-.82,19.17-1.08,28.76-1.07,39.64,4.89,93,51,105.08,15,3.93,25.9,10.5,32.49,25.75,5.8,13.41,7.2,28.25,8.52,42.81l8.37,92.12c.78,8.59,1.65,17.46,5.81,25,6.42,11.66,19.47,18,32.27,21.67,18.14,5.18,38.08,6.23,55.51-1,14.1-5.81,28.38-20.15,32.93-36,4.62-16.07-4.41-38.56-7.55-54.7Q3313.18,789.72,3305,756.62Z"/><path class="cls-21" d="M3450.11,1188c-20.64-35.22-94.27,48.61-112.72,64.37-13.2,11.26-19.67,19-36.94,20.36-17.53,1.37-35.64-.17-53.12-1.63-22.82-1.92-34-3-50.53-17.83-11.43-10.25-23.3-28.46-39.48-30.67-8.31-1.13-18,3.51-19.44,11.77-1,5.89,2.32,11.55,5.17,16.8,19,35.12,21.13,78.94,5.55,115.71-2.57,6.06-5.63,12.08-6.27,18.63-4.08,41.56,196.2,28.21,226.46,25.26,27-2.64,76-.29,81.56-34.31,1.87-11.37-.31-22.94-1.78-34.36-3.72-29-2.79-58.25,0-87.24C3450.35,1236.12,3460.52,1205.75,3450.11,1188Z"/><path class="cls-27" d="M3508.67,991.07q-5.11-11.33-10.51-22.53C3471.1,912.38,3425.45,861.4,3368.9,834c-29.87-14.48-48.54-21.44-68,10.16-15.89,25.82-21.32,57.31-22.27,87.19a371.7,371.7,0,0,0,32.85,164.6c5.07,11.2,10.7,22.13,16.37,33,9.35,18,18.9,36,31.57,51.85,22.45,28.07,53.51,47.79,84.67,65.71,26.63,15.31,58.48,30.06,86.91,18.42,22.37-9.16,36-33.12,39.1-57.09s-2.5-48.16-8.94-71.46A999.59,999.59,0,0,0,3508.67,991.07Z"/><path class="cls-28" d="M3266.89,801.05a6.46,6.46,0,0,0,.56.84C3267.27,801.61,3267.08,801.33,3266.89,801.05Z"/><path class="cls-28" d="M3477.65,1129.91c-8.81-38.37-19.49-76.66-31.08-114.42-12-39.1-25.6-77.86-43.44-114.72-9.47-19.57-20.05-38.8-34.4-55.27a183.61,183.61,0,0,0-23-21.87c-8.06-6.54-12.75-16-16.14-25.6-2.88-8.15-5.23-18.45-11.94-24.33a10,10,0,0,0-4.8-2.58,9.21,9.21,0,0,0-5.17.9c-8.58,3.84-12.44,14.45-11.3,23.78-2.66-4.78-5.45-9.71-9.86-13s-10.92-4.3-15.27-1c-3.77,2.89-4.86,8-5.22,12.79-.16,2.17-.17,4.53.86,6.4.19.28.38.56.56.84a6.46,6.46,0,0,1-.56-.84,33.52,33.52,0,0,0-9.56-9.89,19,19,0,0,0-14.19-2.9,15.4,15.4,0,0,0-7,3.65c-3.73,3.41-5.55,8.5-6.11,13.53a12.85,12.85,0,0,0,.39,5.79,27.54,27.54,0,0,0-23.82-14,18.22,18.22,0,0,0-5.64.83c-2.93,1-5.45,2.86-7.9,4.72-8.9,6.75-6.54,16.44-4.35,25.93,1.68,7.28,2.7,17.84.21,25.06-2.05,6-8.81,11.4-13.52,15.22-11,9-24,15.22-34.81,24.48-17.06,14.63-32.36,36.35-39.63,57.64-21.07,61.67-4.39,128.8,2.27,191.32,3.67,34.39,6.24,68.91,6.74,103.49.31,21.88-11.56,58.07,11.6,69.27a28,28,0,0,0,3.65,1.46c9.32,3,19.37,2.54,29.16,2l73.14-3.89,127.17-6.75c47.94-2.55,96.76-5.28,141.71-22.15,12.82-4.81,27-13.13,28.15-26.77.53-6.15-1.82-12.14-4.13-17.86C3505.89,1205.1,3486.32,1167.7,3477.65,1129.91Z"/><g class="cls-29"><path class="cls-30" d="M3281.2,672.88c-3-9.22-6.19-18.15-9.52-27.21q-3.42-9.25-6.82-18.5c-.32-.86-.94-1.91-1.84-1.72a1.76,1.76,0,0,0-.78.45c-3.29,2.87-4.24,7.49-5.61,11.64-4.19,12.72-15.12,22.28-24.9,30.81-11.17,9.76-21.13,20.69-32.92,29.8q-3.58,2.77-7.31,5.39-2.39,1.66-4.8,3.27c-5.37,3.55-11.08,6.89-17.42,8,2.87-.49,7.52,7.43,8.91,9.36a51.91,51.91,0,0,1,7.59,14c1.71,5.23,2.15,10.86,4.36,15.9-.9-2,.57-9.13,1.21-11.3.76-2.58,2.86-5.06,4.23-7.4A141.38,141.38,0,0,1,3238,690c4.87-3.29,10.06-6.31,15.8-7.59,8.79-2,14.69.9,21.45,6.42l15.12,12.36c-2.24-2-3.3-10.2-4.26-13.16Q3283.65,680.48,3281.2,672.88Z"/></g><path class="cls-25" d="M2808,1261.87c-29.92-12.62-59-26.6-85.61-45.39-18.16-12.82-33.34-30.17-52.63-41.19a16.87,16.87,0,0,0-6.49-2.47,6.53,6.53,0,0,0-6.13,2.56q7.35,15.9,15.73,31.3c1.44,2.64,6.78,8.72,1.84,8.67-2.8,0-5.94-2.7-8.43-3.81l-14.88-6.66c-12.28-5.49-24.46-11.11-37.36-14.78-2.21-.62-6.61-3-8.89-2.09-6.58,2.69,14.62,19.69,17.28,21.85,9,7.35,18.75,13.23,28.7,19.15-1.66-1-7.37-1-9.51-1.45q-6.48-1.53-12.89-3.37c-12.81-3.66-27-12.33-40.23-13.32a3.49,3.49,0,0,0-2.05.29c-1.75,1-.93,3.67.16,5.37,13.11,20.37,35.68,32,57,41.92-4.3-2-10.12-2.87-14.8-3.75-9.24-1.74-19.13-3.83-28.45-6.42-8-2.23-19.43-9.26-27.77-8.2-2.23.28-4.66,1.93-4.9,4.33-.42,4.07,5.26,7.79,7.92,10.19q6.69,6,13.75,11.63a196.36,196.36,0,0,0,30,19.77c-4.86-.82-37.65-9.52-38.41-2.47a4.65,4.65,0,0,0,.84,2.83c2,3.28,5.25,5.54,8.48,7.61,24.27,15.57,52.41,26.22,79.73,35.28,36.45,12.07,74,25.79,108.09,43.6,24.83,13,39.41,45.49,72.31,28.94,41.27-20.77,31.2-86.65,3.81-114.87C2841.6,1274,2824.24,1268.72,2808,1261.87Z"/><g class="cls-29"><circle class="cls-30" cx="3176.98" cy="621.79" r="28.23" transform="translate(4.45 1265.91) rotate(-22.55)"/></g><path class="cls-13" d="M3604.21,1912.48c-28.6-121-34.28-242.6-56.72-363.84-9.91-53.49-37.31-99.2-50.74-151.46-5.32-20.68,5.88-66-20.62-73.19-18.48-5-40.43,4.83-59,7.72-26,4-52,7.84-78.19,10.75-52,5.81-104.61,8.28-156.74,2.59-34.31-3.74-38.91,21-45.92,48.17-10.86,42.12-28,79.06-46.93,118.16-87.61,181.16-126.25,384.93-148.61,582.77-1.76,15.54-18.62,51.69-14.3,65.4a25.43,25.43,0,0,0,4.62,7.8,115.93,115.93,0,0,0,79.78,43c26.21,2.29,53.47-4.38,78.49,3.74,18.16,5.89,33.34,19.11,51.7,24.33,29.19,8.32,59.66-4.88,89.79-8.54,38.52-4.69,77.05,6.39,115.78,8.74,97.35,5.91,220.31-3.76,311.22-40.38,35.71-14.39-44.5-248.46-51.49-276.89Q3605.26,1916.91,3604.21,1912.48Z"/><path class="cls-21" d="M3347.84,2520a358.11,358.11,0,0,1-.24-44.68c.63-10.1,4.29-19.72-5-27.68-5.84-5-14.38-4.93-22.07-4.39-39.53,2.75-79,9.85-118.54,7.24-8.32-.54-17-1.48-24.76,1.52-6.45,2.49-10.61,7-11.13,14-.71,9.55,5.53,9.85,11.72,14.9a45.49,45.49,0,0,1,10.5,12.7c12,20.74,18.82,44,24.22,67.17,5.5,23.68,4.94,50.44,18.27,71.65,16.63,26.46,50.25,24,77.61,21.44,18.28-1.69,42.7-5.07,48.78-25.79,6.45-22-3.24-50-5.94-72.11C3349.83,2544,3348.6,2532,3347.84,2520Z"/><path class="cls-15" d="M3074.78,2209.2a1126,1126,0,0,1,47.07-499.32c15.17-45.81,33.55-91.27,51.33-135.22l41.68-103.06c14.26-35.26,30.42-75.23,29.36-115.87l3-.08c1.07,41.27-15.21,81.54-29.58,117.07L3176,1575.78c-17.76,43.92-36.12,89.32-51.26,135a1123,1123,0,0,0-46.94,498Z"/><path class="cls-15" d="M3215.84,2225.78c-7.18-171.32-14.6-348.47,15.22-520.76,6.21-35.9,14.16-72.21,21.85-107.34,17.45-79.7,35.5-162.11,34.27-244.67l3,0c1.23,82.91-16.85,165.5-34.34,245.37-7.68,35.09-15.62,71.37-21.82,107.2-29.76,172-22.35,349-15.18,520.12Z"/><path class="cls-15" d="M3310.89,2232.13c0-34.32-.28-69.16-.51-102.85-.75-109.33-1.53-222.38,4.46-333.78,1.71-31.94,3.66-64.42,5.54-95.83,6.84-114.41,13.92-232.71,11.44-349.24l3-.07c2.49,116.66-4.6,235-11.45,349.49-1.88,31.4-3.82,63.88-5.54,95.81-6,111.31-5.2,224.31-4.45,333.59.23,33.7.47,68.55.51,102.87Z"/><path class="cls-16" d="M3369.71,1345.33l39.21,881.8q-8.39-200-16.78-400C3385.41,1666.53,3378.67,1505.87,3369.71,1345.33Z"/><path class="cls-15" d="M3407.42,2227.2v0l-39.21-881.78,3-.15c9,160.61,15.81,323.93,22.43,481.87l16.78,400Z"/><path class="cls-15" d="M3552.37,2227.74c-10.83-24.27-18-50.66-23.27-85.57-7.54-50-5.77-102.54-4.06-153.39.89-26.58,1.81-54.07,1.37-80.6-1.6-95-7.72-172.85-19.25-245-9.26-58-26.42-114.66-43-169.49-15.54-51.34-31.6-104.42-41.06-158.2l3-.52c9.42,53.6,25.46,106.6,41,157.85,16.63,54.93,33.82,111.73,43.12,169.89,11.55,72.28,17.67,150.27,19.28,245.41.45,26.61-.48,54.13-1.37,80.75-1.71,50.72-3.47,103.17,4,152.84,5.22,34.63,12.33,60.78,23,84.8Z"/><path class="cls-30" d="M3094.8,622c-2.68,1.06-5.68,1.58-7.12,4-4.93,8.24,9.83,14.23,17.67,14.6l-3.68-31.42C3102.25,614.16,3100.88,619.58,3094.8,622Z"/><path class="cls-31" d="M3105.35,642.07h-.07c-6.09-.29-16.14-3.7-19.18-9.36a7.28,7.28,0,0,1,.29-7.51c1.42-2.37,4-3.25,6.21-4,.55-.19,1.11-.38,1.66-.6h0c5.71-2.25,6.37-7.37,5.92-11.26a1.49,1.49,0,0,1,1.31-1.66,1.5,1.5,0,0,1,1.67,1.31l3.68,31.43a1.49,1.49,0,0,1-.39,1.19A1.48,1.48,0,0,1,3105.35,642.07Zm-4.08-23.41a12.15,12.15,0,0,1-5.92,4.71h0c-.58.23-1.18.44-1.77.65-2,.69-3.76,1.29-4.61,2.72a4.31,4.31,0,0,0-.23,4.55c2.14,4,9.54,6.87,14.91,7.61ZM3094.8,622h0Z"/><path d="M3109.94,662.17a22.63,22.63,0,0,1-3-.18,2,2,0,0,1,.5-4c5.94.75,17.05-1.36,22-8.3a2,2,0,0,1,3.25,2.33C3127.53,659.35,3117.21,662.17,3109.94,662.17Z"/><path d="M3141.74,576.37a4.67,4.67,0,0,1-1.1-.14,77.61,77.61,0,0,0-26.69-2,4.5,4.5,0,1,1-.89-9,86.82,86.82,0,0,1,29.78,2.22,4.5,4.5,0,0,1-1.1,8.87Z"/><path class="cls-16" d="M3144,588.62l-4.28-2.29a32.08,32.08,0,0,0-3.59-1.74c-3.94-1.55-8.3-1.56-12.54-1.53-3.83,0-8.07.2-10.83,2.87-3.25,3.15-3,8.54-1.23,12.71.54,1.25,1.23,3,2.58,3.15a75.16,75.16,0,0,0,11.49,1c9.08-.1,15.6-4.29,21-11.32C3147.34,590.6,3145,589.16,3144,588.62Z"/><path class="cls-13" d="M3714.33,945.72l-2.53-1.61c12.52-19.62,19-40.49,19.23-62,.22-19.38-4.58-39.35-14.27-59.35-16.57-34.17-48.06-68.55-86.4-94.33-18.47-12.42-37.93-24-56.75-35.21-22.59-13.45-46-27.36-67.83-42.84-30.13-21.32-55.61-48.15-80.26-74.09-9.71-10.22-19.75-20.8-30-30.91-17.15-17-26.48-36.26-36.35-56.65-3-6.24-6.15-12.7-9.52-19.1l2.65-1.4c3.4,6.45,6.53,12.93,9.57,19.19,9.76,20.16,19,39.2,35.77,55.83,10.24,10.15,20.3,20.74,30,31,24.54,25.83,49.92,52.55,79.82,73.7,21.77,15.41,45.08,29.29,67.63,42.71,18.85,11.23,38.35,22.84,56.89,35.3,38.77,26.06,70.63,60.88,87.42,95.51C3740.4,864.66,3738.63,907.64,3714.33,945.72Z"/><path class="cls-30" d="M3248.05,605.94l15.06-34C3249.41,578.92,3244.23,590.58,3248.05,605.94Z"/><path class="cls-31" d="M3248.05,607.44h-.13a1.5,1.5,0,0,1-1.33-1.13c-4-16,1.49-28.39,15.84-35.7a1.5,1.5,0,0,1,2.05,1.94l-15.06,34A1.5,1.5,0,0,1,3248.05,607.44Zm11.81-31.87c-8.92,6-12.69,14.47-11.25,25.39Z"/><g class="cls-32"><path class="cls-22" d="M3236.94,890.46c-10.91-13.91-30-32.82-50-28.18-14.61,3.4-35.11,21.55-46.36,31.2-17.06,14.63-32.35,36.34-39.62,57.63-21.07,61.67-4.39,128.8,2.27,191.32,3.67,34.39,6.24,68.91,6.74,103.49.31,21.88-11.56,58.07,11.6,69.27a28,28,0,0,0,3.65,1.46c9.32,3,19.37,2.54,29.16,2l73.14-3.89,74-3.93c14-.75,51.88,6,51.49-14.17-1.38-71.67-7.6-143.6-25.15-213.1S3281.18,946.86,3236.94,890.46Z"/></g><path class="cls-28" d="M3156,876c-83.47,14.93-109.4,140.67-123.25,209.17q-1.11,5.47-2.17,11c-11.6,60.13-19.18,121.21-37,179.79-20.37,67.09-163.28-3.37-203-21.55-21.44-9.81-51.65-46.48-68.38-14.1L2681,1320.14c-2,3.87-4,7.91-4.12,12.26-.19,10.08,9.66,17,18.41,22.07,63.79,36.59,130.84,67.36,195.1,102.36,57.47,31.3,129.42,56.57,193.86,31,43-17,74.26-62.57,94.16-102.13,58.25-115.8,97-247.73,75.5-378C3246.32,962,3220.88,864.35,3156,876Z"/><path d="M3121,585.33a2.76,2.76,0,0,1-.84-.75c-1-1.7-5.69.34-7.3.84-2,.64-4.21,1.39-5,3.57-1.28,3.72.43,10.23,4,12.24,2.89,1.62,6.42.1,8.49-2.15a13.07,13.07,0,0,0,2.56-4.3C3124.19,591.43,3124.09,587.55,3121,585.33Z"/><path d="M3146.09,593.32a2,2,0,0,1-1.61-.82c-1.67-2.3-5.53-4.31-11.45-6a28.8,28.8,0,0,0-24.18,4.08,2,2,0,0,1-2.3-3.26,32.79,32.79,0,0,1,27.56-4.67c6.91,2,11.36,4.4,13.6,7.48a2,2,0,0,1-1.62,3.17Z"/><circle class="cls-17" cx="1320.28" cy="535.09" r="66.17" transform="translate(580.61 1752.61) rotate(-80.78)"/><circle class="cls-17" cx="844.15" cy="1474.72" r="56.48" transform="translate(-102.42 63.55) rotate(-4.07)"/><circle class="cls-17" cx="3639.76" cy="1421.97" r="56.48" transform="translate(-267.11 1501.12) rotate(-22.5)"/><circle class="cls-17" cx="1696.63" cy="2577.67" r="29.22"/></g></svg>