<svg xmlns="http://www.w3.org/2000/svg" xmlns:xlink="http://www.w3.org/1999/xlink" viewBox="0 0 4680 3120"><defs><style>.cls-1{fill:none;}.cls-2,.cls-5{fill:#fff;}.cls-2{opacity:0;}.cls-3{fill:#b4b2e3;}.cls-4{fill:#e7e6f6;}.cls-6{opacity:0.4;}.cls-7{fill:#2b39ff;}.cls-8{opacity:0.5;}.cls-9{fill:#ef9d30;}.cls-10{fill:#891a47;}.cls-11{clip-path:url(#clip-path);}.cls-12{opacity:0.2;}.cls-13{fill:#132bba;}.cls-14{fill:#182ad1;}.cls-15{fill:#cfcdf1;}.cls-16{fill:#fc966a;}.cls-17{fill:#fab953;}.cls-18{fill:#d82762;}.cls-19{clip-path:url(#clip-path-2);}.cls-20{fill:#ffc1af;}.cls-21{clip-path:url(#clip-path-3);}.cls-22{clip-path:url(#clip-path-4);}.cls-23{clip-path:url(#clip-path-5);}.cls-24{fill:#e89b34;}.cls-25{fill:#b7411d;}.cls-26{clip-path:url(#clip-path-6);}.cls-27{fill:#a03015;}.cls-28{fill:#f46938;}.cls-29{clip-path:url(#clip-path-7);}.cls-30{fill:#963018;}.cls-31{clip-path:url(#clip-path-8);}.cls-32{fill:#080849;}.cls-33{fill:#060946;}.cls-34{fill:#979edd;}.cls-35{clip-path:url(#clip-path-9);}.cls-36{fill:#2a3cfd;}.cls-37{opacity:0.7;}</style><clipPath id="clip-path"><path class="cls-1" d="M2338.38,1402.68s-18.85,144.21,12.25,229,135.73,229,135.73,229l-149.87,296.92,257.33,115.94S2811.56,1787.25,2805.9,1742,2338.38,1402.68,2338.38,1402.68Z"/></clipPath><clipPath id="clip-path-2"><path class="cls-1" d="M2451,1211.8s-141.38,79.18-110.28,240.36,393.06,257.33,393.06,257.33l-39.59,475.06,274.29,8.49s56.56-540.11,0-616.45-330.84-226.23-330.84-226.23Z"/></clipPath><clipPath id="clip-path-3"><path class="cls-1" d="M2901.57,1094.92s190.4,307.29,214.91,345,69.75,73.52,103.69,84.83-3.3,72.58-35.35,85.78-25,2.35-43.83,0c-15.08-1.89,17-16,17-16s-43.35-9.42-54.67-35.81-33.93-41.48-33.93-41.48l-277.12-311Z"/></clipPath><clipPath id="clip-path-4"><path class="cls-1" d="M2901.57,1094.92s190.4,307.29,214.91,345,69.75,73.52,103.69,84.83,5.65,81.07-26.4,94.26-60.32,5.66-66-3.77c-7.82-13,30.16-20.74,30.16-20.74s-43.35-9.42-54.67-35.81-33.93-41.48-33.93-41.48l-277.12-311Z"/></clipPath><clipPath id="clip-path-5"><path class="cls-1" d="M2762.07,874.36l101.8,92.37-28.28,25.92,66,102.27L2782.8,1236.31,2764,1225s0,1.89-37.7,37.7S2667.81,1372,2667.81,1372,2534,1334.34,2498.14,1291s-89.54-50.9-89.54-50.9S2468,1127,2530.19,1085.5s54.67-141.39,54.67-141.39L2675.35,897l79.18-43.36Z"/></clipPath><clipPath id="clip-path-6"><path class="cls-1" d="M2820,849.85s-22.63,48.07-76.35,65c14.14-28.28,7.07-39.59,7.07-39.59s-50.9,46.66-84.84,60.8-22.62,62.21-22.62,62.21-35.25-11.37-36.41-32.08a1.41,1.41,0,0,0-2.69-.47c-26.87,55.4,29.2,75,29.2,75s-31.1,66.45-106,52.31c-38.17,31.1-46.65,33.93-46.65,33.93s-72.11-14.14-48.08-62.21,104.63-53.73,106-60.8-59.39,41-79.18-33.93,26.86-131.49,86.24-127.25,194.23-4.95,209.52-29.34-7.33-35.7-1.68-80.94,60.8-62.21,76.35-53.73c26.87-28.28,101.8-52.31,138.56,19.8,42.42,11.31,59.39,32.52,48.08,60.79s-82,149.87-65,190.88,107.45,134.32-19.8,193.7c-46.65-76.35-96.14-151.29-96.14-151.29l32.52-25.45-17-14.14,33.94-59.38Z"/></clipPath><clipPath id="clip-path-7"><path class="cls-1" d="M2986.87,763.6l-141.38,11.32-13.12,31.37c-12.24-4.39-24.52-3.12-32.22,4.59-12.13,12.12-8.35,35.56,8.41,52.39l-2.66,6.38-28.28,32.51,73.52,50.9s-5.65,5.66,29.69-39.58C3056.15,979.93,2986.87,763.6,2986.87,763.6Z"/></clipPath><clipPath id="clip-path-8"><path class="cls-1" d="M2979.53,875.2a3.92,3.92,0,0,0-3.5-6c-8.6.36-17.94-2.15-29.87-10.46-14.58-10.17-18,23.35,4,30.32C2965,893.76,2974.73,882.84,2979.53,875.2Z"/></clipPath><clipPath id="clip-path-9"><rect class="cls-1" x="2945.45" y="747.16" width="78.73" height="72.96" rx="6" transform="translate(5944.67 1656.86) rotate(-178.27)"/></clipPath></defs><title>08</title><g id="_08" data-name="08"><rect id="_08-2" data-name="08" class="cls-2" width="4680" height="3120"/><ellipse class="cls-3" cx="1533.41" cy="2728.89" rx="514.65" ry="31.11"/><path class="cls-3" d="M2885.08,2680.82c-284.24,0-514.65,13.93-514.65,31.11s230.41,31.1,514.65,31.1,514.65-13.92,514.65-31.1S3169.31,2680.82,2885.08,2680.82Z"/><path class="cls-4" d="M3423.79,625.63C3173.37,324.4,2731,272,2417.08,506.33L1947.13,857.19a736.31,736.31,0,0,1-194.24,103.9l-159.33,56.54c-395.9,140.5-594.22,583.22-435.47,972.17h0c132.41,324.42,475.11,510.59,819.34,445.1l333.44-63.44a736.32,736.32,0,0,1,291.82,3.36l367.39,78.68a736.28,736.28,0,0,0,692.07-217.13l139.2-148.92c253.35-271,265.53-688.14,28.4-973.45Z"/><path class="cls-5" d="M3301,751.15c-209.61-252.14-579.63-296-842.38-99.82L2067.26,943.48a609.18,609.18,0,0,1-161,86.09l-132.68,47.09a616.11,616.11,0,0,0,321.22,1185.92l277.65-52.82a606.9,606.9,0,0,1,241.8,2.77l305.93,65.52a616.09,616.09,0,0,0,579.09-181.69l115.92-124A616.11,616.11,0,0,0,3639,1157.81C3530.79,1027.62,3410.92,883.42,3301,751.15ZM3775,1569.4a609.77,609.77,0,0,1-164.17,398.86l-115.92,124a610,610,0,0,1-573.46,179.92l-305.92-65.51a612.88,612.88,0,0,0-244.18-2.81l-277.66,52.82a610.09,610.09,0,0,1-318.08-1174.37l132.67-47.08a615.7,615.7,0,0,0,162.54-86.94l391.32-292.16C2722.36,461.88,3088.78,505.3,3296.34,755c110,132.27,229.83,276.47,338,406.67A609.73,609.73,0,0,1,3775,1569.4Z"/><g class="cls-6"><path class="cls-7" d="M1977.72,876c-245.25,20.43-654-68.13-654-68.13s40.87,347.44,40.87,633.58c102.19,197.56,626.77,170.31,626.77,170.31S1943.66,1407.33,1977.72,876Z"/></g><g class="cls-6"><path class="cls-7" d="M3272.13,848.7c34.06,531.38-13.63,735.76-13.63,735.76s524.58,27.25,626.77-170.31c0-286.14,40.87-633.58,40.87-633.58S3517.38,869.13,3272.13,848.7Z"/></g><g class="cls-8"><path class="cls-5" d="M3714,1144.32a72.39,72.39,0,0,0-32.89,9.39c-3.76-15-6.05-25.33-6.05-25.33l-7.66-34.45-4.54-22.58,2.29-2.8L3662,1057.4s-11.8.73-14.37,2.27c-1.21.73,6.3,37.77,6.3,37.77l-145.73,33.49-10.07-45.82,23-.83c2.68-.1,5.08-2.11,6.31-5.29l1.8-4.69-67.61-7.24a30.61,30.61,0,0,0,3,10.73c2.87,5.38,7.68,8.25,12.54,8.08l11.07-.4,10.66,47.6-1.91.44-18.27,38.85c-14.92-11.84-32.33-18.39-50.7-17.73-51.65,1.86-91.63,60-89.13,129.56s46.57,124.67,98.22,122.81c33.15-1.19,61.49-25.56,76.88-61.25l16.25,4.79c.41.12.81-.23.89-.78l2-13.25a1.08,1.08,0,0,0-.6-1.21l-10.81-3.19,3.11-4.14c5.08,6.4,11.95,10.24,19.36,10,14.76-.53,26.19-17.14,25.47-37,0-1.18-.13-2.34-.25-3.48l5.9-1.13.05,1.31c0,.56.37,1,.79,1l41.62-1.5c.41,0,.74-.48.72-1l-.6-16.38c0-.56-.37-1-.78-1l-41.63,1.5c-.41,0-.73.48-.71,1l.43,12.07-6.21,1.19a43,43,0,0,0-5.45-15c27.55-37.18,82.35-111.47,103.25-139.82,1.54,6.92,3.2,13.65,4.93,20.17-29.38,22.08-48.5,65.22-46.74,114,2.51,69.58,46.57,124.67,98.22,122.81s91.63-60,89.12-129.56S3765.67,1142.46,3714,1144.32ZM3502.91,1326.6l-4.88-1.44c-.41-.12-.8.23-.88.77l-2,13.26a1.07,1.07,0,0,0,.59,1.21l1.14.34c-13.21,26.07-35.21,43.48-60.63,44.39-42.7,1.54-79.13-44-81.2-101.52s31-105.57,73.68-107.11c14.93-.54,29.1,4.69,41.3,14.17l-34.22,72.74a10.29,10.29,0,0,0-4-.65c-7.41.26-13.12,8.57-12.76,18.54s6.65,17.84,14.06,17.58c6.3-.23,11.38-6.29,12.52-14.24l63.26,15.94A128.18,128.18,0,0,1,3502.91,1326.6Zm6.78-33.28-64-15.76a20.51,20.51,0,0,0-4.63-10.46l34.19-72c19.89,18.31,33.49,48.49,34.73,83A138.55,138.55,0,0,1,3509.69,1293.32ZM3483.9,1176.8l15.52-32.7,29.42,126.63a27.8,27.8,0,0,0-2.83,2.62C3523.6,1233.17,3507.33,1198.2,3483.9,1176.8Zm42.4,104.35a25.09,25.09,0,0,1,3.93-4.48l4.31,18.54a15.16,15.16,0,0,0-1.11,4l-7.66-1.89C3526.19,1292,3526.38,1286.61,3526.3,1281.15Zm-6.88,49.69c.77-2.52,1.48-5.07,2.12-7.67.52.92,1.06,1.8,1.63,2.65Zm6.87-9.18a32.93,32.93,0,0,1-3.09-5.9c.72-3.65,1.33-7.36,1.8-11.14l9.09,2.29a14.58,14.58,0,0,0,1.21,2.72Zm38.86-20.57c.6,16.59-8.94,30.45-21.25,30.89-6.13.22-11.81-2.92-16-8.17l9-12a8.28,8.28,0,0,0,6.42,3c5.27-.19,9.35-6.12,9.1-13.22,0-.29,0-.56-.07-.85l12.64-2.41C3565.05,1299.21,3565.12,1300.14,3565.15,1301.09Zm-23.27-29.28a17,17,0,0,1,5.47.75l-4.09,5.58Zm22.65,23.53-12.71,2.44a16,16,0,0,0-.6-1.77c2.25-3,5.36-7.19,9.12-12.26A35.92,35.92,0,0,1,3564.53,1295.34Zm-13.65-27.59a20.65,20.65,0,0,0-9.37-1.91c-.31,0-.61,0-.92.07l-24.77-113.31L3660,1119Zm171.45,107.07c-42.7,1.54-79.12-44-81.2-101.52-1.41-39.13,13.44-73.88,36.52-92.58a521.59,521.59,0,0,0,30.93,77.44,21.52,21.52,0,0,0-3.41,12.83c.35,10,6.65,17.84,14,17.58S3732.34,1280,3732,1270s-6.66-17.84-14.06-17.57a10.26,10.26,0,0,0-4.47,1.21c-9.69-19.12-19.6-51.87-26.92-79.09a60.05,60.05,0,0,1,28.28-8.38c42.7-1.54,79.13,44,81.2,101.53S3765,1373.28,3722.33,1374.82Z"/><path class="cls-5" d="M3689.9,1052.68l-20.5.74c-4.05,8,.45,12.31.45,12.31s18-.6,20.75-.8,11.65,2.7,12,17.09-9.49,13.64-9.49,13.64c-10-.74-9.34,12.75,1.45,11.2,11.79-1.7,18.72-14.16,15.53-33.27C3708.88,1066.54,3703.42,1052.19,3689.9,1052.68Z"/></g><g class="cls-8"><path class="cls-5" d="M1525.91,1272.31a72,72,0,0,0-2.4-6.88,70.54,70.54,0,0,0-3.34-7.1,61.59,61.59,0,0,0-3.82-6.35,10.3,10.3,0,0,0-3.64-3.54c-1-.51-2-.74-2.65-.33s-1.2,1.38-1.44,3c-.39,2.52-.86,4.76-1.29,6.78a13.3,13.3,0,0,1-1.83,4.77,4.2,4.2,0,0,1-3,2,8.81,8.81,0,0,1-4.74-1.13c-6.63-3.29-13.12-10.72-19.43-22.51s-11.94-26.46-16.85-44.23q-7.71-27.94-7-41.3c.5-8.89,3.76-11.72,9.59-8.83a24.4,24.4,0,0,1,5.65,4,38.36,38.36,0,0,1,5.3,6.34c1.81,2.64,3.7,5.55,5.64,9s4.06,7.2,6.46,11.62l.44-1.27a32.09,32.09,0,0,0,4.12,6,11.89,11.89,0,0,0,3.4,2.67,2.8,2.8,0,0,0,2.43.22,3.14,3.14,0,0,0,1.71-2.36,19.71,19.71,0,0,0,.23-5.57,47.2,47.2,0,0,0-1.81-9.06q-1.07-3.87-2.48-7.91c-.94-2.69-2.11-5.5-3.39-8.36-1.13-2.3-2.94-5.67-5.54-10.42a155.32,155.32,0,0,0-9-14.37,137.38,137.38,0,0,0-11.57-14.4,46.25,46.25,0,0,0-13.18-10.26c-5.6-2.79-10-2.76-13.18.13s-5.16,8.06-6,15.3-.37,16.88,1.29,28.58a322.56,322.56,0,0,0,8.73,40.2,421.69,421.69,0,0,0,14.14,42.63,317.81,317.81,0,0,0,16.45,35.62,168.2,168.2,0,0,0,17.46,26.49c5.92,7.14,11.69,12,17.29,14.77,3.66,1.82,6.73,2.61,9.15,2.08a10.65,10.65,0,0,0,5.83-3.54,16.49,16.49,0,0,0,3.28-7,49.58,49.58,0,0,0,1.41-8.44,35.83,35.83,0,0,0-.55-8.44C1527.26,1277.93,1526.7,1275.18,1525.91,1272.31Z"/><path class="cls-5" d="M1567.55,1270.44l-3.17-77.72q-.24-3.48-1-8.67a74.62,74.62,0,0,0-2.06-10.2,62.19,62.19,0,0,0-2.77-7.78,57.9,57.9,0,0,0-3.62-7,32.53,32.53,0,0,0-3.84-5.3,13.14,13.14,0,0,0-3.47-2.89c-2.15-1-3.53-.67-4.1.8s-.82,4.1-.64,7.92l.49,0,3.78,64.07-38.36-82.92a46.79,46.79,0,0,0-5.45-9.3,13.24,13.24,0,0,0-4.31-3.79c-2.83-1.34-4.42-.35-4.69,3.26s.42,8.17,1.95,13.63c.56,2,1.32,4.36,2.18,6.76s1.78,4.58,2.71,6.51l48.88,104.34,13.58,48.52a77,77,0,0,0,6.88,17.2c2.72,4.77,5.43,7.81,8,9s4.2.25,4.66-3-.28-8.35-2.12-15Z"/><path class="cls-5" d="M1670.55,1339.05a71,71,0,0,0-2.44-6.86,67.91,67.91,0,0,0-3.37-7,58.9,58.9,0,0,0-3.83-6.23,9.42,9.42,0,0,0-3.61-3.37,2.64,2.64,0,0,0-2.59-.15c-.65.46-1.15,1.49-1.36,3.16-.34,2.61-.75,4.94-1.14,7a14.73,14.73,0,0,1-1.72,5,4.43,4.43,0,0,1-2.9,2.22,8.08,8.08,0,0,1-4.65-.82c-6.51-2.91-13-10.06-19.31-21.69s-12.06-26.25-17.13-44.08q-8-28.05-7.45-41.77c.35-9.14,3.48-12.26,9.22-9.7a22.27,22.27,0,0,1,5.58,3.74,36.12,36.12,0,0,1,5.27,6.13c1.8,2.57,3.69,5.42,5.64,8.8s4.07,7.09,6.48,11.44l.41-1.33a30.08,30.08,0,0,0,4.12,5.86,10.64,10.64,0,0,0,3.36,2.51,2.61,2.61,0,0,0,2.37,0,3.41,3.41,0,0,0,1.63-2.53,21.8,21.8,0,0,0,.15-5.72,50.11,50.11,0,0,0-1.91-9.15q-1.11-3.87-2.55-7.91c-1-2.69-2.14-5.49-3.44-8.33-1.13-2.26-3-5.59-5.57-10.27a148.55,148.55,0,0,0-9-14.07,127.49,127.49,0,0,0-11.51-13.93,41.81,41.81,0,0,0-13-9.59c-5.5-2.46-9.83-2.13-12.85,1s-4.91,8.6-5.63,16.07-.1,17.29,1.7,29.15a332.78,332.78,0,0,0,9.15,40.51,426.06,426.06,0,0,0,14.47,42.65,312.46,312.46,0,0,0,16.6,35.3,160.52,160.52,0,0,0,17.46,25.89c5.88,6.89,11.6,11.46,17.1,13.91,3.6,1.61,6.61,2.2,9,1.49a11,11,0,0,0,5.63-4,18.47,18.47,0,0,0,3.1-7.4,55.35,55.35,0,0,0,1.24-8.75,38.38,38.38,0,0,0-.67-8.58C1672,1344.71,1671.37,1341.93,1670.55,1339.05Z"/><path class="cls-5" d="M1736.57,1376.79c-2.56-4.11-5.17-6.71-7.73-7.77l-26.79-11-39.54-136.75a76.44,76.44,0,0,0-7-17.12c-2.72-4.68-5.41-7.58-8-8.63s-4.09.09-4.47,3.49.41,8.56,2.33,15.19l44.55,154.07a76.64,76.64,0,0,0,7,17.12c2.72,4.68,5.42,7.57,8.19,8.71l-.19-.33,35.35,14.59c2.55,1,4,.15,4.61-2.67s-.09-7.41-1.84-13.46A62,62,0,0,0,1736.57,1376.79Z"/><path class="cls-5" d="M1723.47,1244.94a76.46,76.46,0,0,0-7.06-17.08c-2.73-4.63-5.41-7.45-7.94-8.42s-4,.26-4.38,3.71.49,8.66,2.44,15.31l45.32,154.37a76.63,76.63,0,0,0,7.07,17.07c2.73,4.64,5.41,7.46,7.94,8.43s4-.25,4.38-3.72-.49-8.65-2.44-15.3Z"/><path class="cls-5" d="M1797.47,1270.72a70,70,0,0,0-7.28-16.79c-2.84-4.6-5.51-7.31-7.89-8.12s-3.84.54-4.24,4,.38,8.73,2.38,15.4l.28-.69,27.75,92.45-59.16-113.68a45.5,45.5,0,0,0-5.61-8.92,10.52,10.52,0,0,0-4.39-3.3c-1.52-.52-2.65-.37-3.3.71a8.45,8.45,0,0,0-.94,4.64,42.79,42.79,0,0,0,.83,7.31c.55,2.79,1.39,6,2.35,9.13l46,153.32a71.7,71.7,0,0,0,7.26,17c2.84,4.6,5.4,7.29,7.78,8.09s3.73-.57,4.13-4.09-.4-8.47-2.4-15.13l-25.49-84.93,56.69,106.09a50.2,50.2,0,0,0,5.71,9,12.41,12.41,0,0,0,4.92,3.74c2.49.83,3.83-.54,3.93-4.42s-.7-8.84-2.53-14.93Z"/><path class="cls-5" d="M1905.19,1384.44a112.61,112.61,0,0,0-8.44-20.55c-2.91-5.24-6.34-8.42-10.19-9.25l-.17-1.12-17.27-3.72c-2.39-.51-3.81.81-4.07,4.28s.58,8.27,2.51,14.39a59.47,59.47,0,0,0,6.8,15c2.56,3.81,5.09,6,7.48,6.5l10.4,2.24c2.72,9.81,3.66,17.07,2.73,21.48s-3.54,6.3-7.91,5.36c-2.6-.57-5.55-2.55-8.67-5.67a67,67,0,0,1-9.53-12.64,156.75,156.75,0,0,1-9.75-19.2,259.81,259.81,0,0,1-9.2-24.78c-6-18.93-9.13-33.45-9.31-43.53s2.74-14.34,8.67-13.06c3.32.71,6.58,3,9.87,7a103.72,103.72,0,0,1,9.58,13.73,41.55,41.55,0,0,0,5.65,7.73c1.71,1.73,3.23,2.87,4.38,3.11,2,.43,3-1.25,3.25-4.72s-.67-8.56-2.89-15.29a110.47,110.47,0,0,0-4.72-12.14,92.33,92.33,0,0,0-7.8-13.62c-6.6-9.84-12.37-17-17.12-21.33s-9.56-6.94-14.45-8-8.64.58-11.34,4.61-4.13,10.24-4.39,18.6.74,18.89,3,31.33a355.72,355.72,0,0,0,10.93,42.52,407.87,407.87,0,0,0,15.87,42.5,300.49,300.49,0,0,0,17.4,33.87c5.88,9.69,11.73,17.46,17.46,23.3s11,9.17,15.93,10.22c5.1,1.1,8.94-.24,11.61-3.74s4.18-8.87,4.5-16.14-.46-15.83-2.32-26A276.52,276.52,0,0,0,1905.19,1384.44Z"/></g><g class="cls-6"><path class="cls-7" d="M2195.73,876,2223,1564s606.32,27.26,817.52-13.62c0-306.57,20.43-674.45,20.43-674.45S2229.79,937.26,2195.73,876Z"/></g><path class="cls-9" d="M2571.2,2225.55l-152.7-93.31s-147.05,251.67-110.28,279.94S2568.37,2531,2591,2519.64s-87.66-127.25-87.66-127.25Z"/><path class="cls-10" d="M2338.38,1402.68s-18.85,144.21,12.25,229,135.73,229,135.73,229l-149.87,296.92,257.33,115.94S2811.56,1787.25,2805.9,1742,2338.38,1402.68,2338.38,1402.68Z"/><g class="cls-11"><g class="cls-12"><path class="cls-5" d="M2831.26,1056.49a29,29,0,1,0,29.19,28.82A29,29,0,0,0,2831.26,1056.49Z"/><path class="cls-5" d="M2832.35,1222a29,29,0,1,0,29.2,28.82A29,29,0,0,0,2832.35,1222Z"/><path class="cls-5" d="M2833.44,1387.49a29,29,0,1,0,29.2,28.81A29,29,0,0,0,2833.44,1387.49Z"/><path class="cls-5" d="M2834.54,1553a29,29,0,1,0,29.19,28.81A29,29,0,0,0,2834.54,1553Z"/><path class="cls-5" d="M2835.63,1718.49a29,29,0,1,0,29.2,28.81A29,29,0,0,0,2835.63,1718.49Z"/><path class="cls-5" d="M2836.72,1884a29,29,0,1,0,29.2,28.81A29,29,0,0,0,2836.72,1884Z"/><path class="cls-5" d="M2837.82,2049.49A29,29,0,1,0,2867,2078.3,29,29,0,0,0,2837.82,2049.49Z"/><path class="cls-5" d="M2838.91,2215a29,29,0,1,0,29.2,28.81A29,29,0,0,0,2838.91,2215Z"/><path class="cls-5" d="M2840,2380.49a29,29,0,1,0,29.2,28.81A29,29,0,0,0,2840,2380.49Z"/><path class="cls-5" d="M2719.79,971.92a29,29,0,1,0,29.2,28.81A29,29,0,0,0,2719.79,971.92Z"/><path class="cls-5" d="M2720.88,1137.42a29,29,0,1,0,29.2,28.81A29,29,0,0,0,2720.88,1137.42Z"/><circle class="cls-5" cx="2722.17" cy="1331.92" r="29.01" transform="translate(471.64 3361.54) rotate(-68.12)"/><path class="cls-5" d="M2723.07,1468.41a29,29,0,1,0,29.2,28.82A29,29,0,0,0,2723.07,1468.41Z"/><path class="cls-5" d="M2724.17,1633.91a29,29,0,1,0,29.19,28.82A29,29,0,0,0,2724.17,1633.91Z"/><path class="cls-5" d="M2725.26,1799.41a29,29,0,1,0,29.2,28.82A29,29,0,0,0,2725.26,1799.41Z"/><path class="cls-5" d="M2726.35,1964.91a29,29,0,1,0,29.2,28.82A29,29,0,0,0,2726.35,1964.91Z"/><path class="cls-5" d="M2727.45,2130.41a29,29,0,1,0,29.19,28.82A29,29,0,0,0,2727.45,2130.41Z"/><path class="cls-5" d="M2728.54,2295.91a29,29,0,1,0,29.2,28.81A29,29,0,0,0,2728.54,2295.91Z"/><path class="cls-5" d="M2602.63,1058a29,29,0,1,0,29.2,28.82A29,29,0,0,0,2602.63,1058Z"/><path class="cls-5" d="M2603.72,1223.5a29,29,0,1,0,29.2,28.82A29,29,0,0,0,2603.72,1223.5Z"/><circle class="cls-5" cx="2605.01" cy="1418.01" r="29.01" transform="translate(-239.69 2257.34) rotate(-45)"/><path class="cls-5" d="M2605.91,1554.5a29,29,0,1,0,29.2,28.81A29,29,0,0,0,2605.91,1554.5Z"/><path class="cls-5" d="M2607,1720a29,29,0,1,0,29.2,28.81A29,29,0,0,0,2607,1720Z"/><path class="cls-5" d="M2608.1,1885.5a29,29,0,1,0,29.19,28.81A29,29,0,0,0,2608.1,1885.5Z"/><path class="cls-5" d="M2609.19,2051a29,29,0,1,0,29.2,28.81A29,29,0,0,0,2609.19,2051Z"/><path class="cls-5" d="M2610.28,2216.5a29,29,0,1,0,29.2,28.81A29,29,0,0,0,2610.28,2216.5Z"/><path class="cls-5" d="M2611.38,2382a29,29,0,1,0,29.19,28.81A29,29,0,0,0,2611.38,2382Z"/><path class="cls-5" d="M2491.16,973.43a29,29,0,1,0,29.2,28.81A29,29,0,0,0,2491.16,973.43Z"/><path class="cls-5" d="M2492.26,1138.93a29,29,0,1,0,29.19,28.81A29,29,0,0,0,2492.26,1138.93Z"/><path class="cls-5" d="M2493.35,1304.43a29,29,0,1,0,29.2,28.81A29,29,0,0,0,2493.35,1304.43Z"/><circle class="cls-5" cx="2494.64" cy="1498.93" r="29.01" transform="translate(173.93 3255.16) rotate(-68.12)"/><path class="cls-5" d="M2495.54,1635.42a29,29,0,1,0,29.19,28.82A29,29,0,0,0,2495.54,1635.42Z"/><path class="cls-5" d="M2496.63,1800.92a29,29,0,1,0,29.2,28.82A29,29,0,0,0,2496.63,1800.92Z"/><circle class="cls-5" cx="2497.92" cy="1995.43" r="29.01" transform="translate(-289.33 3561.49) rotate(-67.95)"/><path class="cls-5" d="M2498.82,2131.92a29,29,0,1,0,29.19,28.82A29,29,0,0,0,2498.82,2131.92Z"/><path class="cls-5" d="M2499.91,2297.42a29,29,0,1,0,29.2,28.81A29,29,0,0,0,2499.91,2297.42Z"/><path class="cls-5" d="M2375.71,1059.5a29,29,0,1,0,29.19,28.82A29,29,0,0,0,2375.71,1059.5Z"/><path class="cls-5" d="M2376.8,1225a29,29,0,1,0,29.2,28.82A29,29,0,0,0,2376.8,1225Z"/><path class="cls-5" d="M2377.89,1390.5a29,29,0,1,0,29.2,28.81A29,29,0,0,0,2377.89,1390.5Z"/><path class="cls-5" d="M2379,1556a29,29,0,1,0,29.19,28.81A29,29,0,0,0,2379,1556Z"/><path class="cls-5" d="M2380.08,1721.5a29,29,0,1,0,29.2,28.81A29,29,0,0,0,2380.08,1721.5Z"/><path class="cls-5" d="M2381.17,1887a29,29,0,1,0,29.2,28.81A29,29,0,0,0,2381.17,1887Z"/><path class="cls-5" d="M2382.27,2052.5a29,29,0,1,0,29.19,28.81A29,29,0,0,0,2382.27,2052.5Z"/><path class="cls-5" d="M2383.36,2218a29,29,0,1,0,29.2,28.81A29,29,0,0,0,2383.36,2218Z"/><circle class="cls-5" cx="2384.65" cy="2412.5" r="29.01" transform="translate(-991.08 2745.97) rotate(-50.97)"/><path class="cls-5" d="M2264.24,974.93a29,29,0,1,0,29.2,28.81A29,29,0,0,0,2264.24,974.93Z"/><path class="cls-5" d="M2265.34,1140.42a29,29,0,1,0,29.19,28.82A29,29,0,0,0,2265.34,1140.42Z"/><path class="cls-5" d="M2266.43,1305.92a29,29,0,1,0,29.2,28.82A29,29,0,0,0,2266.43,1305.92Z"/><path class="cls-5" d="M2267.52,1471.42a29,29,0,1,0,29.2,28.82A29,29,0,0,0,2267.52,1471.42Z"/><path class="cls-5" d="M2268.62,1636.92a29,29,0,1,0,29.19,28.82A29,29,0,0,0,2268.62,1636.92Z"/><circle class="cls-5" cx="2269.9" cy="1831.43" r="29.01" transform="translate(-630.18 2141.47) rotate(-45)"/><path class="cls-5" d="M2270.8,1967.92a29,29,0,1,0,29.2,28.82A29,29,0,0,0,2270.8,1967.92Z"/><path class="cls-5" d="M2271.9,2133.42a29,29,0,1,0,29.19,28.81A29,29,0,0,0,2271.9,2133.42Z"/><path class="cls-5" d="M2273,2298.92a29,29,0,1,0,29.2,28.81A29,29,0,0,0,2273,2298.92Z"/><path class="cls-5" d="M2147.08,1061a29,29,0,1,0,29.2,28.82A29,29,0,0,0,2147.08,1061Z"/><path class="cls-5" d="M2148.17,1226.51a29,29,0,1,0,29.2,28.82A29,29,0,0,0,2148.17,1226.51Z"/><path class="cls-5" d="M2149.27,1392a29,29,0,1,0,29.19,28.81A29,29,0,0,0,2149.27,1392Z"/><path class="cls-5" d="M2150.36,1557.51a29,29,0,1,0,29.2,28.81A29,29,0,0,0,2150.36,1557.51Z"/><path class="cls-5" d="M2151.45,1723a29,29,0,1,0,29.2,28.81A29,29,0,0,0,2151.45,1723Z"/><path class="cls-5" d="M2152.55,1888.51a29,29,0,1,0,29.19,28.81A29,29,0,0,0,2152.55,1888.51Z"/><path class="cls-5" d="M2153.64,2054a29,29,0,1,0,29.2,28.81A29,29,0,0,0,2153.64,2054Z"/><circle class="cls-5" cx="2154.92" cy="2248.51" r="29.01" transform="translate(-958.78 2182.34) rotate(-45)"/><path class="cls-5" d="M2155.83,2385a29,29,0,1,0,29.19,28.81A29,29,0,0,0,2155.83,2385Z"/><path class="cls-5" d="M2035.61,976.44a29,29,0,1,0,29.2,28.81A29,29,0,0,0,2035.61,976.44Z"/><path class="cls-5" d="M2036.71,1141.94a29,29,0,1,0,29.19,28.81A29,29,0,0,0,2036.71,1141.94Z"/><path class="cls-5" d="M2037.8,1307.43a29,29,0,1,0,29.2,28.82A29,29,0,0,0,2037.8,1307.43Z"/><path class="cls-5" d="M2038.89,1472.93a29,29,0,1,0,29.2,28.82A29,29,0,0,0,2038.89,1472.93Z"/><path class="cls-5" d="M2040,1638.43a29,29,0,1,0,29.19,28.82A29,29,0,0,0,2040,1638.43Z"/><path class="cls-5" d="M2041.08,1803.93a29,29,0,1,0,29.2,28.82A29,29,0,0,0,2041.08,1803.93Z"/><circle class="cls-5" cx="2042.37" cy="1998.44" r="29.01" transform="translate(-814.91 2029.5) rotate(-45)"/><path class="cls-5" d="M2043.27,2134.93a29,29,0,1,0,29.19,28.82A29,29,0,0,0,2043.27,2134.93Z"/><path class="cls-5" d="M2044.36,2300.43a29,29,0,1,0,29.2,28.81A29,29,0,0,0,2044.36,2300.43Z"/></g></g><path class="cls-13" d="M2494,2496.5l-166.73-41.35a1.27,1.27,0,0,0-1.54.93l-12.68,51.14a1.27,1.27,0,0,0,.93,1.54l166.72,41.35a1.28,1.28,0,0,0,1.54-.93l12.68-51.14A1.27,1.27,0,0,0,2494,2496.5Z"/><path class="cls-7" d="M2538.1,2379.41,2414.67,2493a5.27,5.27,0,0,0-.31,7.46,5.36,5.36,0,0,0,1.34,1.05,5.26,5.26,0,0,0,6.12-.74l123.43-113.59a5.28,5.28,0,0,0-7.15-7.77Z"/><path class="cls-5" d="M3389.45,1871.81c-230.89,0-418.74,187.85-418.74,418.74s187.85,418.75,418.74,418.75,418.74-187.85,418.74-418.75S3620.35,1871.81,3389.45,1871.81Zm0,788.1c-203.66,0-369.35-165.69-369.35-369.36s165.69-369.35,369.35-369.35,369.35,165.69,369.35,369.35S3593.11,2659.91,3389.45,2659.91Z"/><path class="cls-7" d="M3389.45,1843.77c-246.35,0-446.78,200.43-446.78,446.78s200.43,446.79,446.78,446.79,446.78-200.43,446.78-446.79S3635.81,1843.77,3389.45,1843.77Zm0,840.88c-217.3,0-394.09-176.79-394.09-394.1s176.79-394.09,394.09-394.09,394.09,176.79,394.09,394.09S3606.75,2684.65,3389.45,2684.65Z"/><path class="cls-5" d="M2025.16,1871.81c-230.89,0-418.74,187.85-418.74,418.74s187.85,418.75,418.74,418.75,418.74-187.85,418.74-418.75S2256.05,1871.81,2025.16,1871.81Zm0,788.1c-203.66,0-369.36-165.69-369.36-369.36s165.7-369.35,369.36-369.35,369.35,165.69,369.35,369.35S2228.82,2659.91,2025.16,2659.91Z"/><path class="cls-7" d="M2025.16,1843.77c-246.35,0-446.78,200.43-446.78,446.78s200.43,446.79,446.78,446.79,446.78-200.43,446.78-446.79S2271.52,1843.77,2025.16,1843.77Zm0,840.88c-217.3,0-394.09-176.79-394.09-394.1s176.79-394.09,394.09-394.09,394.09,176.79,394.09,394.09S2242.46,2684.65,2025.16,2684.65Z"/><polygon class="cls-14" points="2317.27 1580.58 2375.43 1812.04 2419.25 1802.36 2363.11 1573.98 2317.27 1580.58"/><path class="cls-15" d="M2212.77,1576.7c12.7,19.39,35.14,30.17,58.33,30.17h209.8a35.72,35.72,0,0,0,31-17.91l9.41-16.36-320.82-34.22C2200.46,1550.33,2207.19,1568.19,2212.77,1576.7Z"/><path class="cls-14" d="M3161.41,1807.31c67.9,285.19,215,487.89,215,487.89l22.06-25c-93.36-91.67-191.82-487.77-191.82-487.77Z"/><path class="cls-7" d="M3158.37,1579.19l11.39-9.61-13.2-39.82s-56.32,1.1-68.85,6.22c-5.87,2.39,23.51,134.33,23.51,134.33l-753.9,107.57L2011,2277l21.52,17,487.77,105.25,47.28-21.33c2.6-.59,639.11-595.46,639.11-595.46l-30.56-122.79Zm-1110.6,693,319.46-456.5,145.51,554.76Zm505.29,23L2443.9,1847.76l692.61-100.44Z"/><circle class="cls-13" cx="3389.45" cy="2290.55" r="63.94"/><circle class="cls-13" cx="2025.16" cy="2290.55" r="63.94" transform="translate(-560.21 3922.65) rotate(-80.78)"/><path class="cls-13" d="M2546.85,2251.49a127.66,127.66,0,1,0,127.65,127.66A127.81,127.81,0,0,0,2546.85,2251.49Zm0,234.19a106.53,106.53,0,1,1,106.53-106.53A106.65,106.65,0,0,1,2546.85,2485.68Z"/><path class="cls-13" d="M2546.85,2333.55a45.6,45.6,0,1,0,45.6,45.6A45.64,45.64,0,0,0,2546.85,2333.55Z"/><path class="cls-5" d="M2546.85,2363.43a15.72,15.72,0,1,0,15.71,15.72A15.74,15.74,0,0,0,2546.85,2363.43Z"/><path class="cls-13" d="M3290.28,1516.62h-97.77c-20.7,27.83,0,43.58,0,43.58s85.64.19,99-.18,55,11,54,62-47.53,47-47.53,47c-47.27-3.87-46.68,43.92,5,39.78,56.44-4.51,91.59-47.68,79.69-115.66C3378.29,1568.06,3354.76,1516.62,3290.28,1516.62Z"/><path class="cls-7" d="M2748.82,2347.59l-200,22.91a5.27,5.27,0,0,0-4.65,5.84,5.4,5.4,0,0,0,.48,1.66,5.28,5.28,0,0,0,5.37,3l200-22.9a5.28,5.28,0,1,0-1.2-10.5Z"/><path class="cls-13" d="M2904.33,2306.61H2705.81a3.6,3.6,0,0,0-3.6,3.59v58a3.59,3.59,0,0,0,3.59,3.59h198.52a3.59,3.59,0,0,0,3.59-3.59v-58A3.59,3.59,0,0,0,2904.33,2306.61Z"/><polygon class="cls-16" points="2732.38 1176.45 3094.33 1546.89 3153.72 1504.47 2811.56 1114.24 2732.38 1176.45"/><path class="cls-5" d="M2462.15,1092.61a1486.12,1486.12,0,0,0-313.2,64.45c-5.18,1.66-3,9.85,2.25,8.18a1476.09,1476.09,0,0,1,311-64.15C2467.54,1100.57,2467.59,1092.09,2462.15,1092.61Z"/><path class="cls-5" d="M2462,1090.62a1491.51,1491.51,0,0,0-313.63,64.53,6.05,6.05,0,0,0-4.18,4.55,6.72,6.72,0,0,0,2,6.32,5.48,5.48,0,0,0,3.74,1.44,6.48,6.48,0,0,0,2-.32,1477.34,1477.34,0,0,1,310.53-64.06,6.54,6.54,0,0,0,5.84-7.29A5.47,5.47,0,0,0,2462,1090.62Zm0,8.48a1481.25,1481.25,0,0,0-311.37,64.23,1.72,1.72,0,0,1-1.8-.27,2.83,2.83,0,0,1-.73-2.52,2.06,2.06,0,0,1,1.5-1.58,1487.38,1487.38,0,0,1,312.78-64.36,1.52,1.52,0,0,1,1.86,1.57A2.56,2.56,0,0,1,2462,1099.1Z"/><path class="cls-17" d="M2960,2243.94c-33.93-17-17-104.63-17-104.63l-181,14.14s-31.11,152.7,36.76,164,270.27-1.19,271.46-11.31C3076,2258.08,2993.94,2260.9,2960,2243.94Z"/><path class="cls-5" d="M2956.93,2194.21a2.84,2.84,0,0,0-3.87-1L2909,2218.61a2.84,2.84,0,0,0-1,3.87l5.18,9a2.84,2.84,0,0,0,3.87,1l44.07-25.45a2.84,2.84,0,0,0,1-3.87Z"/><path class="cls-5" d="M2977.67,2221.54a2.84,2.84,0,0,0-3.87-1L2929.73,2246a2.84,2.84,0,0,0-1,3.87l5.18,9a2.84,2.84,0,0,0,3.87,1l44.07-25.44a2.84,2.84,0,0,0,1-3.87Z"/><path class="cls-18" d="M2637.65,1350.36,2451,1211.8s-141.38,79.18-110.28,240.36,393.06,257.33,393.06,257.33l-39.59,475.06,274.29,8.49s56.56-540.1,0-616.45S2637.65,1350.36,2637.65,1350.36Z"/><g class="cls-19"><g class="cls-8"><path d="M2513.38,1599.38c-186.62-84.83-190.87-347.8-190.87-347.8L2174.06,1646l364.77,657.42,360.52-59.38-127.24-542.9S2700,1684.21,2513.38,1599.38Z"/></g><g class="cls-8"><path class="cls-5" d="M3008.17,1076.66a25.21,25.21,0,1,0,24.9,25.52A25.21,25.21,0,0,0,3008.17,1076.66Z"/><path class="cls-5" d="M3006.4,1220.5a25.21,25.21,0,1,0,24.9,25.52A25.21,25.21,0,0,0,3006.4,1220.5Z"/><path class="cls-5" d="M3004.63,1364.34a25.21,25.21,0,1,0,24.9,25.52A25.21,25.21,0,0,0,3004.63,1364.34Z"/><circle class="cls-5" cx="3002.55" cy="1533.38" r="25.21" transform="translate(1402.25 4500.81) rotate(-88.72)"/><circle class="cls-5" cx="3000.79" cy="1677.22" r="25.21" transform="translate(130.07 3568.47) rotate(-62.58)"/><circle class="cls-5" cx="2999.02" cy="1821.06" r="25.21" transform="translate(1111.19 4778.51) rotate(-88.72)"/><path class="cls-5" d="M2997.56,1939.69a25.21,25.21,0,1,0,24.9,25.52A25.22,25.22,0,0,0,2997.56,1939.69Z"/><path class="cls-5" d="M2995.79,2083.53a25.21,25.21,0,1,0,24.9,25.52A25.21,25.21,0,0,0,2995.79,2083.53Z"/><path class="cls-5" d="M2994,2227.37a25.21,25.21,0,1,0,24.9,25.52A25.21,25.21,0,0,0,2994,2227.37Z"/><path class="cls-5" d="M2912.69,1001.33a25.21,25.21,0,1,0,24.9,25.52A25.22,25.22,0,0,0,2912.69,1001.33Z"/><path class="cls-5" d="M2910.92,1145.17a25.21,25.21,0,1,0,24.9,25.52A25.22,25.22,0,0,0,2910.92,1145.17Z"/><path class="cls-5" d="M2909.16,1289a25.21,25.21,0,1,0,24.89,25.52A25.2,25.2,0,0,0,2909.16,1289Z"/><path class="cls-5" d="M2907.39,1432.85a25.21,25.21,0,1,0,24.9,25.52A25.21,25.21,0,0,0,2907.39,1432.85Z"/><path class="cls-5" d="M2905.62,1576.69a25.21,25.21,0,1,0,24.9,25.51A25.21,25.21,0,0,0,2905.62,1576.69Z"/><path class="cls-5" d="M2903.85,1720.52a25.21,25.21,0,1,0,24.9,25.52A25.22,25.22,0,0,0,2903.85,1720.52Z"/><path class="cls-5" d="M2902.09,1864.36a25.21,25.21,0,1,0,24.9,25.52A25.21,25.21,0,0,0,2902.09,1864.36Z"/><path class="cls-5" d="M2900.32,2008.2a25.21,25.21,0,1,0,24.9,25.52A25.22,25.22,0,0,0,2900.32,2008.2Z"/><path class="cls-5" d="M2898.55,2152a25.21,25.21,0,1,0,24.9,25.52A25.22,25.22,0,0,0,2898.55,2152Z"/><path class="cls-5" d="M2809.46,1074.22a25.21,25.21,0,1,0,24.9,25.52A25.21,25.21,0,0,0,2809.46,1074.22Z"/><path class="cls-5" d="M2807.69,1218.06a25.21,25.21,0,1,0,24.9,25.51A25.21,25.21,0,0,0,2807.69,1218.06Z"/><path class="cls-5" d="M2805.93,1361.89a25.21,25.21,0,1,0,24.89,25.52A25.21,25.21,0,0,0,2805.93,1361.89Z"/><path class="cls-5" d="M2804.16,1505.73a25.21,25.21,0,1,0,24.9,25.52A25.22,25.22,0,0,0,2804.16,1505.73Z"/><path class="cls-5" d="M2802.39,1649.57a25.21,25.21,0,1,0,24.9,25.52A25.22,25.22,0,0,0,2802.39,1649.57Z"/><circle class="cls-5" cx="2800.31" cy="1818.62" r="25.21" transform="translate(603.86 4333.52) rotate(-81.87)"/><circle class="cls-5" cx="2798.55" cy="1962.46" r="25.21" transform="translate(-369.31 3246.13) rotate(-57.1)"/><circle class="cls-5" cx="2796.78" cy="2106.3" r="25.21" transform="translate(161.81 4411.82) rotate(-78.17)"/><path class="cls-5" d="M2795.32,2224.93a25.21,25.21,0,1,0,24.9,25.52A25.21,25.21,0,0,0,2795.32,2224.93Z"/><path class="cls-5" d="M2714,998.89a25.21,25.21,0,1,0,24.9,25.52A25.21,25.21,0,0,0,2714,998.89Z"/><path class="cls-5" d="M2712.22,1142.73a25.21,25.21,0,1,0,24.9,25.52A25.2,25.2,0,0,0,2712.22,1142.73Z"/><path class="cls-5" d="M2710.45,1286.57a25.21,25.21,0,1,0,24.9,25.52A25.21,25.21,0,0,0,2710.45,1286.57Z"/><circle class="cls-5" cx="2708.37" cy="1455.61" r="25.21" transform="translate(1192.41 4130.68) rotate(-88.72)"/><circle class="cls-5" cx="2706.61" cy="1599.45" r="25.21" transform="translate(-3.48 3193) rotate(-61.04)"/><circle class="cls-5" cx="2704.84" cy="1743.29" r="25.21" transform="translate(901.35 4408.37) rotate(-88.72)"/><path class="cls-5" d="M2703.38,1861.92a25.21,25.21,0,1,0,24.9,25.52A25.22,25.22,0,0,0,2703.38,1861.92Z"/><path class="cls-5" d="M2701.61,2005.76a25.21,25.21,0,1,0,24.9,25.52A25.22,25.22,0,0,0,2701.61,2005.76Z"/><path class="cls-5" d="M2699.85,2149.6a25.21,25.21,0,1,0,24.9,25.52A25.21,25.21,0,0,0,2699.85,2149.6Z"/><circle class="cls-5" cx="2611.93" cy="1097" r="25.21" transform="translate(1156.48 3527.49) rotate(-81.87)"/><circle class="cls-5" cx="2610.16" cy="1240.84" r="25.21" transform="translate(-112.91 2209.1) rotate(-45)"/><circle class="cls-5" cx="2608.39" cy="1384.68" r="25.21" transform="translate(868.66 3770.97) rotate(-81.87)"/><path class="cls-5" d="M2606.94,1503.31a25.21,25.21,0,1,0,24.9,25.52A25.21,25.21,0,0,0,2606.94,1503.31Z"/><path class="cls-5" d="M2605.17,1647.15a25.21,25.21,0,1,0,24.9,25.52A25.22,25.22,0,0,0,2605.17,1647.15Z"/><path class="cls-5" d="M2603.4,1791a25.21,25.21,0,1,0,24.9,25.52A25.21,25.21,0,0,0,2603.4,1791Z"/><path class="cls-5" d="M2601.63,1934.83a25.21,25.21,0,1,0,24.9,25.52A25.2,25.2,0,0,0,2601.63,1934.83Z"/><path class="cls-5" d="M2599.87,2078.67a25.21,25.21,0,1,0,24.9,25.51A25.2,25.2,0,0,0,2599.87,2078.67Z"/><path class="cls-5" d="M2598.1,2222.5A25.21,25.21,0,1,0,2623,2248,25.22,25.22,0,0,0,2598.1,2222.5Z"/><circle class="cls-5" cx="2516.45" cy="1021.67" r="25.21" transform="translate(1438.62 3514.59) rotate(-88.72)"/><path class="cls-5" d="M2515,1140.3a25.21,25.21,0,1,0,24.9,25.52A25.21,25.21,0,0,0,2515,1140.3Z"/><path class="cls-5" d="M2513.23,1284.14a25.21,25.21,0,1,0,24.9,25.52A25.22,25.22,0,0,0,2513.23,1284.14Z"/><path class="cls-5" d="M2511.46,1428a25.21,25.21,0,1,0,24.9,25.52A25.22,25.22,0,0,0,2511.46,1428Z"/><path class="cls-5" d="M2509.69,1571.82a25.21,25.21,0,1,0,24.9,25.52A25.22,25.22,0,0,0,2509.69,1571.82Z"/><path class="cls-5" d="M2507.93,1715.66a25.21,25.21,0,1,0,24.89,25.52A25.21,25.21,0,0,0,2507.93,1715.66Z"/><path class="cls-5" d="M2506.16,1859.5a25.21,25.21,0,1,0,24.9,25.52A25.22,25.22,0,0,0,2506.16,1859.5Z"/><path class="cls-5" d="M2504.39,2003.34a25.21,25.21,0,1,0,24.9,25.52A25.21,25.21,0,0,0,2504.39,2003.34Z"/><path class="cls-5" d="M2502.62,2147.18a25.21,25.21,0,1,0,24.9,25.52A25.22,25.22,0,0,0,2502.62,2147.18Z"/><path class="cls-5" d="M2413.53,1069.35a25.21,25.21,0,1,0,24.9,25.52A25.22,25.22,0,0,0,2413.53,1069.35Z"/><path class="cls-5" d="M2411.77,1213.19a25.21,25.21,0,1,0,24.89,25.52A25.21,25.21,0,0,0,2411.77,1213.19Z"/><path class="cls-5" d="M2410,1357a25.21,25.21,0,1,0,24.9,25.52A25.22,25.22,0,0,0,2410,1357Z"/><circle class="cls-5" cx="2407.92" cy="1526.08" r="25.21" transform="translate(420.58 3569.96) rotate(-78.17)"/><path class="cls-5" d="M2406.46,1644.71a25.21,25.21,0,1,0,24.9,25.52A25.2,25.2,0,0,0,2406.46,1644.71Z"/><path class="cls-5" d="M2404.7,1788.55a25.21,25.21,0,1,0,24.9,25.52A25.2,25.2,0,0,0,2404.7,1788.55Z"/><path class="cls-5" d="M2402.93,1932.39a25.21,25.21,0,1,0,24.9,25.51A25.2,25.2,0,0,0,2402.93,1932.39Z"/><path class="cls-5" d="M2401.16,2076.22a25.21,25.21,0,1,0,24.9,25.52A25.22,25.22,0,0,0,2401.16,2076.22Z"/><path class="cls-5" d="M2399.39,2220.06a25.21,25.21,0,1,0,24.9,25.52A25.21,25.21,0,0,0,2399.39,2220.06Z"/><circle class="cls-5" cx="2317.75" cy="1019.23" r="25.21" transform="translate(345.65 2607.2) rotate(-62.58)"/><circle class="cls-5" cx="2315.98" cy="1163.07" r="25.21" transform="translate(1101.28 3452.4) rotate(-88.72)"/><circle class="cls-5" cx="2314.21" cy="1306.91" r="25.21" transform="translate(88.39 2759.25) rotate(-62.58)"/><path class="cls-5" d="M2312.76,1425.54a25.21,25.21,0,1,0,24.89,25.52A25.21,25.21,0,0,0,2312.76,1425.54Z"/><path class="cls-5" d="M2311,1569.38a25.21,25.21,0,1,0,24.9,25.52A25.22,25.22,0,0,0,2311,1569.38Z"/><path class="cls-5" d="M2309.22,1713.22a25.21,25.21,0,1,0,24.9,25.52A25.22,25.22,0,0,0,2309.22,1713.22Z"/><path class="cls-5" d="M2307.45,1857.06a25.21,25.21,0,1,0,24.9,25.52A25.22,25.22,0,0,0,2307.45,1857.06Z"/><path class="cls-5" d="M2305.69,2000.9a25.21,25.21,0,1,0,24.89,25.52A25.2,25.2,0,0,0,2305.69,2000.9Z"/><path class="cls-5" d="M2303.92,2144.74a25.21,25.21,0,1,0,24.9,25.51A25.2,25.2,0,0,0,2303.92,2144.74Z"/></g></g><path class="cls-20" d="M3220.16,1524.74c-33.93-11.31-79.17-47.13-103.68-84.83s-214.91-345-214.91-345l-109.34,111.23,277.12,311s22.62,15.08,33.93,41.48,54.67,35.81,54.67,35.81-32,14.14-17,16c18.85,2.35,11.78,13.19,43.83,0S3254.1,1536.05,3220.16,1524.74Z"/><g class="cls-21"><path class="cls-16" d="M3180.58,1584.18c-7.33-7.85-19.13-9.5-29.85-9s-21.55,2.71-32.09.7c-12.16-2.33-22.72-10.15-30.68-19.63s-13.64-20.63-19.25-31.67l1.35,39.49c11.44,10.59,7.25,30.46,16.46,43,5.07,6.9,13.65,10.58,22.17,11.42s17.09-.84,25.41-2.88a291.63,291.63,0,0,0,36.82-11.7c6.51-2.56,14.18-7.54,12.76-14.39A11.52,11.52,0,0,0,3180.58,1584.18Z"/><path class="cls-16" d="M3231.54,1538.28c-5.52-3-13.21-2.22-17.1,2.69,16,7.08,26.21,25.33,23.9,42.65l2.47-9.42a34.55,34.55,0,0,0,1.29-21C3240.56,1547.11,3237.07,1541.25,3231.54,1538.28Z"/><path class="cls-16" d="M3205.39,1556c-5.53-3-13.21-2.23-17.11,2.68,16,7.08,26.21,25.33,23.91,42.66l2.46-9.43a34.63,34.63,0,0,0,1.3-21C3214.4,1564.79,3210.91,1558.92,3205.39,1556Z"/></g><g class="cls-22"><path class="cls-16" d="M2745,1136.13c-19.26,21.23-37.18,44.27-48,70.84s-13.84,57.18-3.37,83.87c5.54,14.09,15,27,27.85,34.89,25.58,15.77,60.32,9.09,84.39-8.9s39.47-45.12,52.36-72.27c28.25-59.5,47.77-122.79,63.41-186.77l-65-17.24A584.55,584.55,0,0,0,2745,1136.13Z"/></g><path class="cls-17" d="M2863.87,966.73l-101.8-92.37-7.54-20.74L2675.35,897l-90.49,47.13s7.54,99.91-54.67,141.39-121.59,154.58-121.59,154.58,53.73,7.54,89.54,50.9S2667.81,1372,2667.81,1372s20.74-73.52,58.44-109.34S2764,1225,2764,1225l18.85,11.31,118.77-141.39-66-102.27Z"/><g class="cls-23"><path class="cls-24" d="M2870.07,929.49c-12-10-26.39-16.56-38.46-26.36-20.67-16.78-33.17-41.77-53.07-59.45-8.76-7.78-19.4-14.22-31.1-15s-24.36,5.5-28.23,16.56a22.77,22.77,0,0,0-1.24,6.32l-37.7-12.69-37.13,22.21c-17,10.17-34,20.35-50.32,31.63-87.11,60.28-152.47,154.33-168.88,259-.5,3.19-.66,7.12,2,8.94a7.6,7.6,0,0,0,4.71.91c10.37-.53,19.54-6.57,28.13-12.41l121.55-82.6c20-13.62,41.2-28.59,50-51.16,7.4-18.87,5-40.47,12.28-59.4,7.66-19.95,25.15-34.54,43.66-45.24,11.05-6.4,22.83-11.84,32.38-20.31a51.43,51.43,0,0,0,9.6-11.33c15.68,22.05,38.61,37.8,59.91,54.6,22,17.35,43.6,37.69,51.81,64.47l23.9,2.21c4.81,1.86,9.46-2.81,12.52-6.95,5.35-7.24,10.85-14.83,12.46-23.68C2891.68,954.49,2882,939.44,2870.07,929.49Z"/></g><path class="cls-25" d="M2968.49,698.57c-36.76-72.11-111.69-48.08-138.56-19.8-15.55-8.48-70.69,8.48-76.35,53.73s17,56.55,1.68,80.94S2605.13,847,2545.74,842.78,2439.7,895.1,2459.5,970s80.59,26.86,79.18,33.93-82,12.73-106,60.8,48.08,62.21,48.08,62.21,8.48-2.83,46.65-33.93c74.94,14.14,106-52.31,106-52.31s-56.07-19.57-29.2-75a1.41,1.41,0,0,1,2.69.47c1.16,20.71,36.41,32.08,36.41,32.08s-11.31-48.07,22.62-62.21,84.84-60.8,84.84-60.8,7.07,11.31-7.07,39.59c53.72-17,76.35-65,76.35-65l65,43.83-33.94,59.38,17,14.14-32.52,25.45s49.49,74.94,96.14,151.29c127.25-59.38,36.76-152.7,19.8-193.7s53.73-162.6,65-190.88S3010.91,709.88,2968.49,698.57Z"/><g class="cls-26"><path class="cls-27" d="M2999.79,1001.45c-16.36-31-13-69.22-.68-102.06s32.55-61.94,50.08-92.3c1.77-3.07,3.55-6.29,3.75-9.83.7-12.35-15.69-16.82-28-18.45-18.64-2.47-37.35-8.25-51.92-20.13-11.09-9-19.23-21.1-29-31.53s-22.29-19.69-36.58-20.22-29.5,11.05-28.25,25.3c-7.8-13.68-29.21-13.62-41.23-3.46s-16.61,26.54-19.08,42.09-3.6,31.79-11,45.69c-15.31,28.77-51,38-81.4,49.86A281.17,281.17,0,0,0,2666,899.14c-5,3.55-11.23,7.45-16.8,4.88-2.61-1.2-4.41-3.61-6.31-5.76-12.93-14.6-35.66-19.48-53.44-11.46s-29.17,28.3-26.77,47.65c1.91,15.42,11.55,29.78,10,45.24-1.67,16.42-15.95,29.17-31.41,34.95s-32.32,6.22-48.7,8.31c-18.37,2.34-36.94,7.07-52,17.81s-26.2,28.38-25.25,46.88c.6,11.82,5.93,22.93,12.62,32.69a120.87,120.87,0,0,0,31.14,31.23l19.64-10.5c13.43,25.59,46.95,34.38,75.48,29.73s54.16-19.54,80.92-30.46,57.62-17.84,84.13-6.32c27.43,11.92,43.57,40.52,68,57.8,37.58,26.58,88.56,22.6,133.32,11.84,39.55-9.51,79.26-24.16,108.68-52.24,15.51-14.81,28.19-34.63,27.48-56.06C3055.47,1058.16,3017.15,1034.36,2999.79,1001.45Z"/><path class="cls-27" d="M2731.13,772.2c-8.52,20.24-30.87,33.72-52.74,31.84-18.76-1.62-35-13-52-21-61.08-28.66-138.6-11.33-186.76,35.93-24,23.56-41.65,54.47-45.58,87.88s7,69.12,31.85,91.82,63.76,30.09,93.66,14.69c9.13-4.7,17.53-11.65,21.63-21.05-24.24.15-42.4-26.82-39.07-50.82s22.65-43.24,44.45-53.82,46.21-14.18,69.95-19.06a616.48,616.48,0,0,0,87.82-25c14.49-5.31,29.18-11.41,40.25-22.18s17.82-27.27,13.07-42Z"/><path class="cls-27" d="M2925,597c-31.55-18.92-71.87-21-106.44-8.42s-63.34,38.92-81.89,70.69c-8.07,13.83-13.88,32.6-3.48,44.77l7.26,58.14a69,69,0,0,1,99.43-60,87,87,0,0,1,135.94-13.28C2977.85,652.16,2956.6,615.88,2925,597Z"/></g><g class="cls-8"><path class="cls-5" d="M2843.07,721.7a24.09,24.09,0,0,0-6.82,4.71,27.45,27.45,0,0,0-2.73,3.08,29.49,29.49,0,0,0-2.17,3.43,36.59,36.59,0,0,0-4.24,15.13,64.65,64.65,0,0,1,6.91-13.46c.66-1,1.5-1.93,2.24-2.88a32,32,0,0,1,2.56-2.52,24.13,24.13,0,0,1,5.91-3.85,31.08,31.08,0,0,1,14.1-2.44,63.76,63.76,0,0,1,14.94,2.53,36.19,36.19,0,0,0-14.64-5.65A28.39,28.39,0,0,0,2843.07,721.7Z"/></g><g class="cls-8"><path class="cls-5" d="M2927,1050.23a96,96,0,0,0-4.53-14.78l-.69-1.81-.76-1.77-1.53-3.55-1.67-3.48c-.56-1.16-1.11-2.32-1.61-3.44a94.76,94.76,0,0,1-8.38-28.53,148.07,148.07,0,0,1-1-30,231.41,231.41,0,0,1,4-29.94c2-9.9,4.48-19.72,7.45-29.41s6.27-19.28,10.12-28.69a240.39,240.39,0,0,0-12,28.08,263.72,263.72,0,0,0-8.64,29.37,211.91,211.91,0,0,0-4.73,30.33,148.5,148.5,0,0,0,.79,30.82c.14,1.29.4,2.55.63,3.83l.71,3.81.93,3.77c.3,1.26.6,2.52,1,3.75l1.16,3.71c.36,1.24.91,2.43,1.35,3.65s.9,2.43,1.46,3.61l1.68,3.51c.56,1.19,1.12,2.32,1.69,3.43l1.69,3.36,1.55,3.42.77,1.72.7,1.74A105.3,105.3,0,0,1,2924,1051c2.48,9.65,3.37,19.81,1.49,29.64-.18,1.24-.54,2.44-.8,3.66s-.65,2.41-1.09,3.58a47.31,47.31,0,0,1-3,6.91,44.13,44.13,0,0,1-4,6.38,33,33,0,0,1-5.12,5.58,39.41,39.41,0,0,0,10.11-11.42,44.89,44.89,0,0,0,3.45-6.9c.52-1.19.89-2.42,1.33-3.64s.77-2.47,1-3.73a62,62,0,0,0,1.59-15.41A77.92,77.92,0,0,0,2927,1050.23Z"/></g><g class="cls-8"><path class="cls-5" d="M2696.32,874.89c-6.42,1.59-12.87,3-19.36,4.25s-13,2.18-19.57,2.84-13.12,1.13-19.69,1.12c-1.64.06-3.28-.05-4.92-.07s-3.28,0-4.91-.19l-4.91-.34-4.87-.55c-1.6-.17-3.35-.38-5-.54l-2.55-.16c-.86,0-1.71,0-2.57-.06a64.09,64.09,0,0,0-10.25.72,55.66,55.66,0,0,0-19.35,6.82,58.09,58.09,0,0,0-15.52,13.34,66.26,66.26,0,0,0-10.29,17.55,69.21,69.21,0,0,0-3.8,39.85,46.37,46.37,0,0,0,8.29,18.31,35.17,35.17,0,0,0,7.2,7,34.68,34.68,0,0,0,8.87,4.56,35,35,0,0,1-15.21-12.2,44.63,44.63,0,0,1-7.22-18.06,63.08,63.08,0,0,1-.37-19.49,71.34,71.34,0,0,1,5.12-18.78,66,66,0,0,1,10.11-16.51A54.41,54.41,0,0,1,2580.22,892a52.6,52.6,0,0,1,18.06-6.25,61.66,61.66,0,0,1,9.61-.63c.8,0,1.61,0,2.41.07l2.42.17,4.87.54a172.85,172.85,0,0,0,40.22-.19c6.65-.76,13.25-1.88,19.82-3.16s13-2.91,19.48-4.67A348.32,348.32,0,0,0,2735,865q9.24-3.78,18.29-8c6-2.82,12-5.78,17.78-9q-18,8.52-36.77,15.22T2696.32,874.89Z"/></g><path class="cls-28" d="M2988.82,856.1c1.95,6,4.39,13.15,16.84,8.08,16.91-6.9-9.91-38.37-9.91-38.37C2986.38,820.4,2986.86,850.1,2988.82,856.1Z"/><path class="cls-20" d="M2845.49,774.92l-13.12,31.37c-12.24-4.39-24.52-3.12-32.22,4.59-12.13,12.12-8.35,35.56,8.41,52.39l-2.66,6.38-28.28,32.52L2851,952.93c.82-1.52,6-8.81,29.88-39.45,175.32,66.45,106-149.88,106-149.88Z"/><path class="cls-20" d="M2851.14,953.06l-.19-.13C2850.55,953.65,2851.14,953.06,2851.14,953.06Z"/><g class="cls-29"><path class="cls-16" d="M2969.84,749.48c-17.06-4-34.94-2.45-52.21.53a320,320,0,0,0-73.08,21.89l-12.21,30.79c6.75,11.58,20.74,16.4,33.55,20.33,20.75,6.36,41.76,12.77,63.44,13.84,11.7.57,23.42-.42,35.05-1.82q19.35-2.31,38.49-6.1c5-1,10.53-2.48,12.94-6.94,1.2-2.23,1.39-4.85,1.48-7.38.44-12.08-.72-24.54-6.18-35.32C3003.19,763.67,2986.91,753.46,2969.84,749.48Z"/><path class="cls-16" d="M2838.92,893.82a2.34,2.34,0,0,0-.56,1.7c-.87,20.51,9.48,40.4,24.36,54.54a18.77,18.77,0,0,0,6.13,4.3,7.27,7.27,0,0,0,7.14-.87,11,11,0,0,0,2.76-4.91q1.59-4.51,3.17-9l3.89-22.6c-15.9-5.92-28.27-20.12-44.92-23.38A2.32,2.32,0,0,0,2838.92,893.82Z"/></g><path class="cls-16" d="M2828.23,830.1a13.55,13.55,0,0,0-6.25-3.19,8.81,8.81,0,0,0-3.91.11,6.49,6.49,0,0,0-3.64,2.5,6.57,6.57,0,0,0-1,4.31,8.8,8.8,0,0,0,1.31,3.68,13.54,13.54,0,0,0,5.23,4.69,15.37,15.37,0,0,0,6.42,1.74,8.83,8.83,0,0,0,3.2-.45,5.1,5.1,0,0,0,2.54-1.85,4.53,4.53,0,0,1-2.58,1.72,7.05,7.05,0,0,1-3.1,0,11.74,11.74,0,0,1-5.34-2.85,13,13,0,0,1-3.3-4.62,6.83,6.83,0,0,1-.52-2.38,3.15,3.15,0,0,1,.46-1.76,3.1,3.1,0,0,1,1.48-1.07,6.41,6.41,0,0,1,2.4-.37,13,13,0,0,1,5.51,1.4,11.79,11.79,0,0,1,4.58,4,7,7,0,0,1,1.09,2.91,4.58,4.58,0,0,1-.68,3,5.1,5.1,0,0,0,.82-3,8.86,8.86,0,0,0-.75-3.15A15.09,15.09,0,0,0,2828.23,830.1Z"/><path class="cls-30" d="M2976,869.21c-8.6.36-17.94-2.15-29.87-10.46-14.58-10.17-18,23.35,4,30.32,14.81,4.69,24.55-6.23,29.35-13.87A3.92,3.92,0,0,0,2976,869.21Z"/><g class="cls-31"><ellipse class="cls-5" cx="2964.26" cy="861.16" rx="26.16" ry="15.55"/></g><path class="cls-28" d="M2894.19,827.34a20.68,20.68,0,1,0,20.6,20.76A20.68,20.68,0,0,0,2894.19,827.34Z"/><path class="cls-32" d="M2757.58,776.28c.61,26.88-2.32,37.16-2.32,37.16s53.68-11.58,70.63-5.92-.49-40.84-.49-40.84S2772.41,764.43,2757.58,776.28Z"/><polygon class="cls-33" points="2850.74 808.15 2937.42 808.51 2944.8 748.26 2854.82 764.05 2850.74 808.15"/><polygon class="cls-34" points="2860.07 763.13 2854.82 764.05 2861.75 797.2 2937.42 808.51 2938.33 801.08 2865.74 790.23 2860.07 763.13"/><path class="cls-32" d="M3012.85,738.77l-84.72-2.56A10.87,10.87,0,0,0,2917,746.72l-2,68a10.86,10.86,0,0,0,10.5,11.16l84.73,2.56A10.87,10.87,0,0,0,3021.31,818l2.05-68A10.87,10.87,0,0,0,3012.85,738.77Z"/><path class="cls-7" d="M3019.27,748.18l-66.7-2a6,6,0,0,0-6.18,5.81l-1.84,60.94a6,6,0,0,0,5.82,6.18l66.7,2a6,6,0,0,0,6.18-5.82l1.83-60.93A6,6,0,0,0,3019.27,748.18Z"/><g class="cls-35"><rect class="cls-5" x="2927.73" y="773.17" width="116.65" height="12.02" transform="translate(785.5 2942.79) rotate(-59.14)"/><rect class="cls-5" x="2953.13" y="790.86" width="110.28" height="5.66" transform="translate(783.93 2968.99) rotate(-59.14)"/></g><path class="cls-36" d="M2827.15,755.55c-16.82,1.68-27.84,17.3-24.6,34.89s19.49,30.49,36.31,28.81,27.83-17.3,24.6-34.89S2844,753.87,2827.15,755.55Z"/><path class="cls-34" d="M2826.39,773c-7.8.78-12.91,8-11.41,16.18s9,14.14,16.84,13.36,12.9-8,11.4-16.18S2834.19,772.24,2826.39,773Z"/><path class="cls-33" d="M2827.15,755.55a28.13,28.13,0,0,0-3.85.68c15.34.51,29.38,12.71,32.35,28.91s-6.14,30.71-20.75,34.21a30.9,30.9,0,0,0,4-.1c16.82-1.68,27.83-17.3,24.6-34.89S2844,753.87,2827.15,755.55Z"/><g class="cls-8"><polygon points="2696.86 1302.38 2763.82 1225.27 2763.96 1225.01 2674.41 1160.9 2696.86 1302.38"/></g><path class="cls-5" d="M2720,1192.58a1916.76,1916.76,0,0,1-317.82,48.31c-97.46,6.47-207.47,15.35-298.12-28.12-4.89-2.35-9.2,5-4.28,7.33,90.78,43.53,199.24,35.83,296.94,29.63a1930.45,1930.45,0,0,0,325.54-49C2727.59,1199.5,2725.34,1191.32,2720,1192.58Z"/><path class="cls-5" d="M2719.56,1190.64a1921,1921,0,0,1-317.49,48.26l-8.85.59c-94.14,6.29-200.83,13.41-288.27-28.52a6.2,6.2,0,0,0-6.34.46,6.71,6.71,0,0,0-3,5.88,5.55,5.55,0,0,0,3.3,4.59c57.29,27.48,122,34.62,186.14,34.62,36.36,0,72.52-2.3,107-4.49l4.77-.3a1938.43,1938.43,0,0,0,325.87-49,5.7,5.7,0,0,0,4.31-3.94,6.75,6.75,0,0,0-1.58-6.44A6,6,0,0,0,2719.56,1190.64Zm3.66,7a1.73,1.73,0,0,1-1.41,1.2,1934.56,1934.56,0,0,1-325.2,48.92l-4.76.3c-94.85,6-202.34,12.86-291.18-29.75-1-.46-1-1.08-1-1.29a2.77,2.77,0,0,1,1.23-2.27,2.25,2.25,0,0,1,1.28-.42,2.46,2.46,0,0,1,1.08.27c88.39,42.38,195.64,35.22,290.26,28.9l8.86-.59a1925.77,1925.77,0,0,0,318.15-48.36l-.47-2,.47,2a2,2,0,0,1,2.07.55A2.8,2.8,0,0,1,2723.22,1197.62Z"/><path class="cls-32" d="M1938.92,1163.48c-57,15.34-2.58,107.21,58.85,202.43s294-17.13,303.78-74.78-79.26-177.72-79.26-177.72C2195.36,1094.46,1995.91,1148.14,1938.92,1163.48Z"/><path class="cls-5" d="M2280.36,1281.57a4.54,4.54,0,0,0-.63-.53,5.08,5.08,0,0,0-2.5-.56,15.22,15.22,0,0,0-2.18.2,35.32,35.32,0,0,0-4.06,1c-5.24,1.59-10.23,3.65-15.22,5.71-9.94,4.18-19.74,8.6-29.62,12.82s-19.79,8.3-29.86,11.88c-5,1.78-10.12,3.42-15.25,4.77a90.83,90.83,0,0,1-15.52,2.86c-5.15.37-10.43.16-14.63-2.21s-8.09-6.2-11.49-10.17c-6.8-8-12.37-17.21-17.47-26.56a318,318,0,0,1-13.75-29q-6.18-14.8-11-30.12a263.09,263.09,0,0,1-8-31,146,146,0,0,1-2.13-15.79,62,62,0,0,1,.5-15.66,21.65,21.65,0,0,1,2.49-7.06,14.74,14.74,0,0,1,1.06-1.47l1.29-1.39a10.23,10.23,0,0,1,1.39-1.32l1.46-1.26a61.35,61.35,0,0,1,13.72-7.69,133.26,133.26,0,0,1,15.1-5.23c5.14-1.48,10.34-2.74,15.57-3.89,21-4.56,42.37-7.13,63.8-8.8-10.75.34-21.49,1.14-32.2,2.27s-21.38,2.61-32,4.62q-7.93,1.55-15.78,3.64a133,133,0,0,0-15.46,5.07,63.93,63.93,0,0,0-14.47,7.8l-1.62,1.35a12.28,12.28,0,0,0-1.55,1.43l-1.47,1.54a16.82,16.82,0,0,0-1.33,1.78,24.41,24.41,0,0,0-3,8,64.37,64.37,0,0,0-.83,16.48,140.94,140.94,0,0,0,2,16.19,269,269,0,0,0,7.82,31.51c3.19,10.34,6.92,20.5,11,30.49a317.71,317.71,0,0,0,13.84,29.35c5.21,9.5,10.88,18.82,18,27.2,3.59,4.15,7.53,8.16,12.61,11,.65.34,1.31.66,2,1a18.75,18.75,0,0,0,2.1.74,18.34,18.34,0,0,0,2.13.52c.72.16,1.43.24,2.14.33a41,41,0,0,0,8.43,0,92.39,92.39,0,0,0,16.15-3.11c5.26-1.43,10.41-3.14,15.49-5,10.18-3.69,20.09-7.95,29.92-12.36s19.56-9,29.38-13.32c4.91-2.13,9.84-4.26,14.87-5.87a33.16,33.16,0,0,1,3.77-1,15.1,15.1,0,0,1,1.83-.21,3.2,3.2,0,0,1,1.4.24c.07,0,.08.08.15.11s0,.09.08.13a1.28,1.28,0,0,1,.06.53,5.11,5.11,0,0,1-.45,1.62c-.11.29-.21.58-.33.87l-.45.84a13.15,13.15,0,0,1-1,1.64c-2.92,4.27-7.11,7.71-11.42,10.81a131.29,131.29,0,0,1-13.67,8.39c-4.72,2.54-9.55,4.9-14.44,7.11s-9.83,4.35-14.85,6.28a242.87,242.87,0,0,0,29.78-12.45,133.28,133.28,0,0,0,14-8.09c4.47-3,8.87-6.39,12.17-10.94a13.9,13.9,0,0,0,1.14-1.79l.51-.94c.15-.32.27-.66.41-1a6.49,6.49,0,0,0,.61-2.24,3.17,3.17,0,0,0-.19-1.45A3.5,3.5,0,0,0,2280.36,1281.57Z"/><g class="cls-37"><path class="cls-15" d="M1551.84,1372.07c-32-1.08-68.47,8.06-83.22,36.43-15.24,29.33.75,67.09,27.06,87.08s60.13,26.57,92.63,32.57c-181.25,29.72-374.43-20.08-517.68-135C988.28,1327,902.84,1234.41,798.89,1253c-75.33,13.44-131.16,95.17-116.27,170.24,12.48,63,65.77,110.85,123.93,138s122.34,38,183.87,56.26c29.06,8.64,61.85,23.54,68.13,53.2,3.94,18.64-4.28,37.72-14.58,53.75-30.39,47.29-81.87,85.19-88.31,141-7.43,64.44,55.18,121,119.77,127s126.88-25.92,178.62-65c99-74.89,175.48-179.3,283.87-239.88,53-29.63,133.71-40.16,162.56,13.26,5.07,9.39,7.94,20.1,14.76,28.31,20.07,24.21,60.33,13,84.17-7.49,66.48-57.16,85.71-167.91,169-195.41l11.54-6.38C1827.94,1540.39,1705.11,1377.23,1551.84,1372.07Z"/><path class="cls-15" d="M3738.15,1205.15a523.11,523.11,0,0,0-190.36,4c-59.66,12.38-116.69,35.11-175.9,49.51s-123,20.09-180-1.38c-55.58-20.93-102.44-72.93-103.58-132-26.65,53.3,1.12,122.22,49.36,157.7,48.91,36,112.61,44.56,173.31,45.29s122.11-5.18,181.68,6.5c31,6.07,65.6,21.85,71.72,52.8,7.53,38.16-32,67.25-65.34,87.28s-70.46,54.69-56.15,90.85c13.62,34.43,60.82,36.53,97.65,32.77l114.35-11.67q-28.24,46.56-56.47,93.12c-4.89,8.06-10,17.17-8,26.39,2.38,11.14,14.07,17.61,25,20.66,63.57,17.63,125.1-30.63,171.89-77.12,48.95-48.64,96.95-100.74,123.39-164.48s27.64-141.94-13.24-197.53C3861.12,1238.4,3798.73,1215.09,3738.15,1205.15Z"/><path class="cls-15" d="M3088.28,1120.71c0,1.54,0,3.07,0,4.6.36-.73.74-1.47,1.13-2.2Z"/></g></g></svg>