<svg xmlns="http://www.w3.org/2000/svg" xmlns:xlink="http://www.w3.org/1999/xlink" viewBox="0 0 4680 3120"><defs><style>.cls-1{fill:none;}.cls-2,.cls-4{fill:#fff;}.cls-3{fill:#2b39ff;}.cls-4{opacity:0;}.cls-5{fill:#e7e6f6;}.cls-6{fill:#cfcdf1;}.cls-7{fill:#b4b2e3;}.cls-8{opacity:0.15;}.cls-9{fill:#162187;}.cls-10{fill:#1f32a0;}.cls-11{opacity:0.3;}.cls-12{fill:#e5e5e5;}.cls-13{fill:#ffa124;}.cls-14{fill:#ffdbab;}.cls-15{fill:#fab953;}.cls-16{opacity:0.22;}.cls-17{fill:#d82762;}.cls-18{fill:#ff83b3;}.cls-19{fill:#ffc1af;}.cls-20{clip-path:url(#clip-path);}.cls-21{fill:#fc966a;}.cls-22{clip-path:url(#clip-path-2);}.cls-23{opacity:0.5;}.cls-24{clip-path:url(#clip-path-3);}.cls-25{clip-path:url(#clip-path-4);}.cls-26{clip-path:url(#clip-path-5);}.cls-27{fill:#913d1c;}.cls-28{clip-path:url(#clip-path-6);}.cls-29{fill:#702a14;}.cls-30{clip-path:url(#clip-path-7);}.cls-31{fill:#f46938;}.cls-32{clip-path:url(#clip-path-8);}.cls-33{fill:#060946;}.cls-34{fill:#979edd;}.cls-35{fill:#080849;}.cls-36{fill:#2a3cfd;}.cls-37{opacity:0.56;}.cls-38{clip-path:url(#clip-path-9);}.cls-39{opacity:0.31;}.cls-40{clip-path:url(#clip-path-10);}.cls-41{clip-path:url(#clip-path-11);}.cls-42{fill:#ffd092;}.cls-43{fill:#f39e34;}.cls-44{clip-path:url(#clip-path-12);}</style><clipPath id="clip-path"><path class="cls-1" d="M2924.94,886.18c-25.55-16-39.52-11.52-39.52-11.52s25.24-61.42,16.75-73.84c-11.11-16.27-53.46,57.46-68.14,85.25-3.11-2.34-5.1-3.65-5.1-3.65s3.05-53.3-6.17-51.13-15.1,26.92-21.4,49.83,2,50.15,2,50.15l-195.77,153.15-76.76-3.39s-213.25,153.36,24.61,146.14,276.45-199.38,317.71-222.71,68.52-64.8,68.52-64.8l-1,.38C2956.73,919.47,2946.79,899.86,2924.94,886.18Z"/></clipPath><clipPath id="clip-path-2"><path class="cls-1" d="M2545.54,1251.76l-123.41,18.71-11.22,248.7-437.12-.25L1964,1306l-87.87-84.15s58-144,117.8-185.11,172-35.53,172-35.53c145.85-18.71,375.84,63.58,375.84,63.58l3.39,169.46Z"/></clipPath><clipPath id="clip-path-3"><polygon class="cls-1" points="2511.18 2607.14 2309.5 2607.14 2226.45 1996.6 2199.62 1799.36 2139.16 2607.14 1934.29 2607.14 1973.8 1518.93 2388.45 1518.93 2511.18 2607.14"/></clipPath><clipPath id="clip-path-4"><path class="cls-1" d="M2672.09,2758.15h-358a13,13,0,0,1-13-13.82l3.76-61.66h188.23l35.54-62.34L2680,2734.75C2689.91,2742.28,2684.56,2758.15,2672.09,2758.15Z"/></clipPath><clipPath id="clip-path-5"><path class="cls-1" d="M1903,2758.15h220a22.35,22.35,0,0,0,22.3-23.7l-3.57-58.07c-28,0-66.41.27-66.41.27l-46.13-46.14h-103.8l-42.83,96.24A22.33,22.33,0,0,0,1903,2758.15Z"/></clipPath><clipPath id="clip-path-6"><path class="cls-1" d="M2154.67,726.28s12.5-34.3,70.08-27,88.86,10.78,109.95,44.84,32.42,98.88-4.07,106.61-137,59.63-137,59.63L2122.23,898S2004.65,792.77,2154.67,726.28Z"/></clipPath><clipPath id="clip-path-7"><path class="cls-1" d="M2142.33,935.33a41.63,41.63,0,0,0,23-2.14c-2.65,27.25-16.9,76.9-16.9,76.9s-10.12,2.47,14.82,23.54c17.61,14.91,43.76,24.58,53.18,26.21s42.88-25.42,42.88-25.42l-6.47-10.53c-1.46-2.36-2.26-6.16-2.63-10.66-.65-8,0-18.12.88-26.15a93.11,93.11,0,0,0,21-1.14c52.89-9,80.29-60.65,74.35-117.29-1.87-17.85-1.9-27.32-6.86-39,0,0-11.22-2-29.12-33.62s-39-25.93-43.84-12.16c-16.2-15.4-34.62-3.24-37.85,8.92-5.89,22.14-7.59,39.29-26.23,46-4.45,1.07-8,3.74-11.07,7.15-9.85,9.68-14,24.18-20.29,27.59-3.16,1.46-11.65-2.73-11.65-2.73a40.78,40.78,0,0,0-5-1.26c-20.8-3.85-40.39,7.76-43.74,25.93S2121.53,931.49,2142.33,935.33Z"/></clipPath><clipPath id="clip-path-8"><path class="cls-1" d="M2278.32,934.45c-7.31.69-15.77.13-23.56-3.67-9.1-4.45-19,4.37-15,13.67,6.82,15.76,32.49,23.74,47.41,8.25A10.79,10.79,0,0,0,2278.32,934.45Z"/></clipPath><clipPath id="clip-path-9"><circle class="cls-3" cx="2143.25" cy="1290.27" r="20.48" transform="translate(-354.22 1435.12) rotate(-34.37)"/></clipPath><clipPath id="clip-path-10"><path class="cls-1" d="M1980.37,1490.27c15.1-.83,26.94-13.51,27.42-28.63.46-14.48-1.34-30.55-11.44-31.35-18.55-1.46-18.27,35.69-18.27,35.69s-4.73-41-14.83-55.85-24.46,13.21-23.4,36.27,12.05-55-.13-53.15-33.07,42.59-33.07,42.59,23.43-39.48,12.61-46.63-46.37,27.74-42.07,47.63,32.45,21.44,41.31,32.41,50.38,21,60,21.06C1979.09,1490.32,1979.72,1490.3,1980.37,1490.27Z"/></clipPath><clipPath id="clip-path-11"><circle class="cls-2" cx="1843.74" cy="1856.15" r="233.04" transform="translate(-772.48 1847.38) rotate(-45)"/></clipPath><clipPath id="clip-path-12"><path class="cls-1" d="M1998.78,379.66c-3.69,12.72-20.15,100.41-30.16,103.62l86.28-27.61-29,75.12,82,2.77c-87.69,71.05-190.76,131.63-271.57,207.62-47.15,44.33-91.28,92.29-133.05,141.69-27,31.88-95.95,93.55-103.8,134.74C1649.18,757.13,1794.35,540.66,1998.78,379.66Z"/></clipPath></defs><title>02</title><g id="_02" data-name="02"><rect id="_02-2" data-name="02" class="cls-4" width="4680" height="3120"/><path class="cls-5" d="M1244.79,1119.29c102.41-150.64,215.85-317.47,319.92-470.51,197.34-290.2,587.33-375.07,887.44-193.15L2901.47,728a660.05,660.05,0,0,0,182.18,75.91l147,36.69c365.15,91.16,580.16,468.86,472.12,829.39h0c-90.11,300.72-379.67,496.28-692.28,467.54l-302.82-27.82a659.56,659.56,0,0,0-259.93,28.14l-320.85,101.83a659.62,659.62,0,0,1-635.86-134l-137-120.8C1104.74,1765.08,1057.92,1394.15,1244.79,1119.29Z"/><path class="cls-2" d="M2024.07,2081.66a526.71,526.71,0,0,1-348.62-131.77l-108.87-96A527.3,527.3,0,0,1,1479.27,1162L1733.54,788c157.79-232,469.38-299.86,709.35-154.39L2800,850.11a520.55,520.55,0,0,0,144,60l116.8,29.16a527.28,527.28,0,0,1-176,1036.67l-240.67-22.11a518.51,518.51,0,0,0-205.41,22.24l-255,80.93A528,528,0,0,1,2024.07,2081.66Zm-542.32-918,2.49,1.69a521.27,521.27,0,0,0,86.31,684l108.87,96a521.5,521.5,0,0,0,502.47,105.87l255-80.93a524.56,524.56,0,0,1,207.77-22.5L2885.33,1970a521.26,521.26,0,0,0,174-1024.87l-116.79-29.16a527.07,527.07,0,0,1-145.62-60.68L2439.78,638.77C2202.54,495,1894.5,562,1738.5,791.4c-82.71,121.63-172.87,254.23-254.26,373.95Z"/><path class="cls-6" d="M2049.49,1145.15a816.68,816.68,0,0,0-251.89-38.63c-19.25.09-39.48,1.14-55.92,11.16s-27.23,31.92-18.64,49.16c6.4,12.86,20.89,19.18,34.24,24.49l95.7,38c5.94,2.37,12.23,5,15.83,10.28,10.6,15.52-10,33.52-27.77,39.73-68.11,23.82-141.91,23.38-213.4,33.21A741.9,741.9,0,0,0,1346,1412.22c-42.94,25.94-87.33,63.77-87.77,113.94-.32,37.23,25.65,71.28,58.74,88.34s72,19.4,109,15.23c24.62-2.77,51.45-9.91,65-30.65,11.41-17.46,10.39-39.85,11-60.69,2.37-76.69,42.51-159.86,116.31-180.83,47.49-13.49,97.72,1.17,146.68,7.5a433.82,433.82,0,0,0,222.47-30.12c33.34-14,65.8-33,87.51-61.93s30.7-69.39,15.24-102.09c-8.59-18.17-23.63-32.32-35.71-48.39s-21.56-36.45-16.34-55.86,31.33-32.71,46.58-19.62Z"/><path class="cls-6" d="M2896.4,1236.38c-47-6.53-92.59,22.14-104.71,68-.33,1.25-.64,2.5-.91,3.77-7.8,35.37,5.23,74.56,32.65,98.23,48.28,41.66,122.25,29.55,181.57,52.95,34.34,13.54,64.23,40.68,76.07,75.65s3.12,77.32-25,101.24c-19,16.19-44.13,22.74-68,30.23A645.4,645.4,0,0,0,2865,1719.84c-32.23,18.17-65,41.94-75.57,77.41-14.62,49.22,22,102.26,69.16,122.63s101,15.8,151.71,7.7c34.18-5.45,75.79-9.66,97,17.68,6.12,7.89,9.58,17.55,15.43,25.64,16.67,23.06,50.5,28.65,77.22,18.86s47.16-31.81,63-55.44c17.83-26.53,31.48-60,20.57-90-13.31-36.64-57.25-52.29-96.23-53.06-41.27-.82-83,9.61-123.41-.33a31.05,31.05,0,0,1-12.88-6.29c-16.09-13.83-4.85-35.16,8.89-47.11,48.45-42.15,123-35.7,178.78-67.45,52.94-30.11,82.57-96.32,69.76-155.86s-67.05-107.7-127.69-113.38c26.41-11.37,31.81-50.32,15-73.67s-48-32.23-76.75-30.69-56.13,11.72-83.84,19.36c-25.71,7.09-54.57,11.71-77.94-1.13s-33.51-50.07-12.34-66.29C2934.25,1242.72,2914.17,1238.85,2896.4,1236.38Z"/><ellipse class="cls-7" cx="3252.45" cy="2665.24" rx="478.56" ry="81.13"/><ellipse class="cls-7" cx="1877.16" cy="2665.24" rx="478.56" ry="81.13"/><g class="cls-8"><path class="cls-9" d="M2720.78,1825.1h0a10.74,10.74,0,0,0-5.42,13.54L2816.18,2102a10.75,10.75,0,0,0,13.87,6.18l396.36-151.76a10.73,10.73,0,0,0,6.2-13.82l-99.47-263.19a10.74,10.74,0,0,0-11.61-6.83l-2.56.38a10.62,10.62,0,0,0-2.82.82l-194.34,73.42c-.34.16-4.39,1.53-4.75,1.64l-195,75.78A12,12,0,0,0,2720.78,1825.1Z"/></g><path class="cls-10" d="M2705.23,1818.56h0a10.75,10.75,0,0,0-5.42,13.54l100.82,263.32a10.74,10.74,0,0,0,13.87,6.19l396.36-151.77a10.73,10.73,0,0,0,6.2-13.82l-99.47-263.19A10.73,10.73,0,0,0,3106,1666l-2.57.37a11.05,11.05,0,0,0-2.81.82l-194.34,73.43c-.35.15-4.39,1.52-4.75,1.64l-195,75.78A10.17,10.17,0,0,0,2705.23,1818.56Z"/><path class="cls-2" d="M2705.86,1818.26s123.67-80.72,195.8-75.85l105,274.23-196.1,75.08Z"/><path class="cls-3" d="M2810.56,2091.72s86.86-57.68,152.8-74.06c20.3-5,43.3-1,43.3-1Z"/><g class="cls-11"><path d="M2778.72,1948.28a4.19,4.19,0,0,1-2.28-7.71,614.71,614.71,0,0,1,59.5-33c44.85-21.65,80.61-31.58,106.31-29.51a4.2,4.2,0,0,1,3.84,4.52,4.18,4.18,0,0,1-4.52,3.84c-23.67-1.91-58.78,8-101.51,28.54a601.58,601.58,0,0,0-59.06,32.66A4.23,4.23,0,0,1,2778.72,1948.28Zm156.6-66.5c-24.42,0-57.21,9.86-97.64,29.39a610.94,610.94,0,0,0-59.07,32.75.2.2,0,0,0-.06.27.21.21,0,0,0,.28.06c1-.67,103.63-66.62,163.07-61.82a.21.21,0,0,0,.14,0,.16.16,0,0,0,.06-.13.19.19,0,0,0-.17-.21C2939.8,1881.87,2937.59,1881.78,2935.32,1881.78Z"/><path d="M2791,1980.37a4.19,4.19,0,0,1-2.29-7.71,615.61,615.61,0,0,1,59.51-33c44.85-21.65,80.61-31.58,106.31-29.51a4.2,4.2,0,0,1,2.38,7.38h0a4.13,4.13,0,0,1-3.06,1c-58-4.67-159.56,60.54-160.58,61.2A4.19,4.19,0,0,1,2791,1980.37Zm156.59-66.5c-24.41,0-57.2,9.87-97.63,29.39A610.94,610.94,0,0,0,2790.9,1976a.2.2,0,0,0,.21.33c1-.67,103.7-66.61,163.07-61.82a.21.21,0,0,0,.15,0,.16.16,0,0,0,.06-.13.19.19,0,0,0-.17-.21Q2951,1913.88,2947.6,1913.87Z"/><path d="M2753.24,1882.91a4.19,4.19,0,0,1-2.3-7.71,618.36,618.36,0,0,1,59.52-33c44.85-21.65,80.61-31.58,106.31-29.51a4.2,4.2,0,0,1,2.38,7.38,4.12,4.12,0,0,1-3.06,1c-58-4.68-159.56,60.54-160.58,61.2A4.19,4.19,0,0,1,2753.24,1882.91Zm156.59-66.5c-24.41,0-57.2,9.86-97.63,29.39a613.82,613.82,0,0,0-59.07,32.75.2.2,0,0,0-.06.27.2.2,0,0,0,.27.06c1-.67,103.67-66.61,163.07-61.82a.21.21,0,0,0,.14,0h0a.16.16,0,0,0,.06-.13.21.21,0,0,0-.18-.21C2914.32,1816.5,2912.11,1816.41,2909.83,1816.41Z"/><path d="M2737.27,1848.33a4.2,4.2,0,0,1-4.11-5.1,4.12,4.12,0,0,1,1.84-2.62,615,615,0,0,1,59.48-33c44.85-21.66,80.61-31.59,106.31-29.52a4.2,4.2,0,0,1,3.84,4.52,4.1,4.1,0,0,1-1.46,2.86h0a4.16,4.16,0,0,1-3.06,1c-23.67-1.91-58.77,8-101.51,28.54a601.39,601.39,0,0,0-59.06,32.65A4.19,4.19,0,0,1,2737.27,1848.33Zm156.59-66.5c-24.41,0-57.21,9.87-97.64,29.39a614.14,614.14,0,0,0-59.07,32.75.18.18,0,0,0-.08.12.21.21,0,0,0,0,.15.2.2,0,0,0,.27.06c1-.67,103.65-66.61,163.08-61.82a.19.19,0,0,0,.14,0h0a.18.18,0,0,0,.07-.13.19.19,0,0,0-.18-.21C2898.34,1781.92,2896.13,1781.83,2893.86,1781.83Z"/><path d="M2765.53,1915a4.19,4.19,0,0,1-2.3-7.71,616.66,616.66,0,0,1,59.52-33c44.84-21.66,80.61-31.59,106.3-29.52a4.19,4.19,0,0,1,2.38,7.38h0a4.15,4.15,0,0,1-3.06,1c-58-4.67-159.55,60.54-160.57,61.2A4.19,4.19,0,0,1,2765.53,1915Zm156.59-66.5c-24.41,0-57.21,9.87-97.64,29.39a613.85,613.85,0,0,0-59.07,32.75.2.2,0,0,0,0,.27.2.2,0,0,0,.27.06c1-.67,103.72-66.61,163.07-61.82a.21.21,0,0,0,.14-.05h0a.17.17,0,0,0,.07-.13.22.22,0,0,0-.18-.21Q2925.54,1848.51,2922.12,1848.5Z"/><path d="M2803.3,2012.46a4.19,4.19,0,0,1-2.29-7.71,611.83,611.83,0,0,1,59.5-33c44.85-21.65,80.62-31.58,106.32-29.51a4.2,4.2,0,0,1,2.38,7.38h0a4.11,4.11,0,0,1-3.06,1c-58-4.67-159.55,60.54-160.57,61.2A4.19,4.19,0,0,1,2803.3,2012.46Zm156.59-66.5c-24.41,0-57.21,9.87-97.64,29.39a609.51,609.51,0,0,0-59.07,32.75.19.19,0,0,0,0,.27.2.2,0,0,0,.27.06c1-.67,103.73-66.61,163.07-61.82a.19.19,0,0,0,.14,0,.17.17,0,0,0,.07-.12.2.2,0,0,0-.18-.22Q2963.31,1946,2959.89,1946Z"/><path d="M2815.69,2044.82a4.19,4.19,0,0,1-2.3-7.7c1.84-1.19,45.31-29,91.81-47.17a4.2,4.2,0,0,1,4.25,7.1,4.37,4.37,0,0,1-1.19.71c-46.49,18.12-89.86,46.11-90.29,46.39A4.17,4.17,0,0,1,2815.69,2044.82Zm91-51.16h-.08c-46.13,18-89.26,45.63-91.08,46.8a.2.2,0,0,0-.05.27.19.19,0,0,0,.27,0c.43-.28,44.16-28.49,91-46.75l0,0a.19.19,0,0,0,.06-.22A.21.21,0,0,0,2906.73,1993.66Z"/></g><path class="cls-2" d="M3102,1666.6s-146,22.51-196.39,74.32l105,274.22,196.1-75.08Z"/><path class="cls-3" d="M3206.66,1940.06s-103.17,15.08-163.19,46.93c-18.47,9.8-32.91,28.15-32.91,28.15Z"/><g class="cls-11"><path d="M2932.13,1779.79a4.2,4.2,0,0,1-3.05-7.08c17.77-18.71,51-35.21,98.84-49a619.06,619.06,0,0,1,66.32-15.18,4.19,4.19,0,0,1,3.37,7.34h0a4.2,4.2,0,0,1-2.06,1c-1.2.19-120.42,19.55-160.38,61.7A4.17,4.17,0,0,1,2932.13,1779.79Zm162.76-67.35h0a618.18,618.18,0,0,0-65.84,15.07c-47.12,13.63-79.77,29.76-97.05,48a.2.2,0,0,0,0,.28.19.19,0,0,0,.27,0c40.89-43.13,161.45-62.71,162.67-62.9a.2.2,0,0,0,.09,0,.19.19,0,0,0,.07-.18A.24.24,0,0,0,3094.89,1712.44Z"/><path d="M2944.41,1811.87a4.18,4.18,0,0,1-3-7.07c17.76-18.71,51-35.21,98.83-49a611,611,0,0,1,66.33-15.18,4.2,4.2,0,0,1,3.37,7.34h0a4.2,4.2,0,0,1-2.06.95c-1.2.19-120.63,19.76-160.38,61.7A4.2,4.2,0,0,1,2944.41,1811.87Zm162.76-67.34h0a609.16,609.16,0,0,0-65.84,15.07c-47.13,13.64-79.78,29.77-97,48a.19.19,0,1,0,.29.26c17.06-18,49.49-34,96.39-47.65a609.59,609.59,0,0,1,66.26-15.24.31.31,0,0,0,.1-.05.17.17,0,0,0,.06-.17A.21.21,0,0,0,3107.17,1744.53Z"/><path d="M2956.7,1844a4.2,4.2,0,0,1-3-7.08c17.77-18.71,51-35.21,98.84-49a624,624,0,0,1,66.33-15.18,4.2,4.2,0,0,1,1.31,8.29c-1.2.19-120.43,19.52-160.39,61.7a4.14,4.14,0,0,1-2.92,1.31Zm162.76-67.35h0a607.39,607.39,0,0,0-65.84,15.08c-47.13,13.62-79.78,29.76-97,47.94a.21.21,0,0,0,0,.28.2.2,0,0,0,.15,0,.14.14,0,0,0,.12-.06c40.89-43.15,161.46-62.71,162.67-62.9l.1,0a.19.19,0,0,0,.06-.18A.21.21,0,0,0,3119.46,1776.62Z"/><path d="M2969,1876.06a4.15,4.15,0,0,1-2.88-1.15,4.2,4.2,0,0,1-.16-5.93c17.76-18.71,51-35.21,98.84-49a620.2,620.2,0,0,1,66.33-15.18,4.2,4.2,0,0,1,4.79,3.49,4.2,4.2,0,0,1-1.43,3.85,4.12,4.12,0,0,1-2.06,1c-1.19.19-120.39,19.52-160.38,61.7A4.21,4.21,0,0,1,2969,1876.06Zm162.77-67.35h0a616.34,616.34,0,0,0-65.84,15.08c-47.13,13.63-79.78,29.76-97,47.94a.2.2,0,0,0,0,.28.19.19,0,0,0,.28,0c40.91-43.16,161.45-62.71,162.66-62.9l.09,0a.19.19,0,0,0,.07-.18A.21.21,0,0,0,3131.75,1808.71Z"/><path d="M2982.62,1908.83a4.2,4.2,0,0,1-3-7.08c17.76-18.71,51-35.21,98.84-49a624,624,0,0,1,66.33-15.18,4.2,4.2,0,0,1,3.37,7.34h0a4.13,4.13,0,0,1-2,1c-1.2.19-120.42,19.52-160.39,61.7a4.15,4.15,0,0,1-2.91,1.31Zm162.76-67.35h0a608.07,608.07,0,0,0-65.84,15.07c-47.13,13.63-79.78,29.77-97.05,48a.2.2,0,0,0,0,.28.23.23,0,0,0,.15,0,.17.17,0,0,0,.12,0c40.9-43.16,161.46-62.72,162.67-62.91a.19.19,0,0,0,.1,0,.18.18,0,0,0,.06-.18A.22.22,0,0,0,3145.38,1841.48Z"/><path d="M2995.72,1941.89a4.2,4.2,0,0,1-3-7.09c17.77-18.7,51-35.2,98.83-49a619.52,619.52,0,0,1,66.33-15.18,4.19,4.19,0,0,1,3.37,7.34h0a4.14,4.14,0,0,1-2.06.94c-1.2.19-120.41,19.54-160.38,61.71a4.22,4.22,0,0,1-2.93,1.31Zm162.77-67.35h0a618.18,618.18,0,0,0-65.84,15.07c-47.13,13.63-79.78,29.76-97,48a.19.19,0,0,0,0,.27.25.25,0,0,0,.14.06.17.17,0,0,0,.13-.06c40.91-43.14,161.45-62.71,162.67-62.91l.09,0a.19.19,0,0,0,.07-.18.22.22,0,0,0-.08-.13A.2.2,0,0,0,3158.49,1874.54Z"/><path d="M3010.26,1975a4.19,4.19,0,0,1-3-7.08c23.19-24.44,70.23-41.19,105.6-50.94a4.18,4.18,0,0,1,5.16,2.92,4.23,4.23,0,0,1-1.33,4.32h0a4.27,4.27,0,0,1-1.6.85c-34.34,9.46-79.87,25.58-101.74,48.63A4.23,4.23,0,0,1,3010.26,1975Zm103.66-54.17h0c-34.89,9.62-81.21,26.07-103.76,49.85a.19.19,0,0,0,0,.27.19.19,0,0,0,.28,0c22.5-23.71,68.75-40.13,103.58-49.73l.07,0a.2.2,0,0,0,.06-.2A.21.21,0,0,0,3113.92,1920.8Z"/></g><g class="cls-8"><path class="cls-9" d="M1116.74,1654.25h0a10.73,10.73,0,0,0-14.22,3.21L942.8,1889.83a10.74,10.74,0,0,0,2.77,14.93l349.76,240.41a10.74,10.74,0,0,0,14.91-2.73l160.37-231.18a10.73,10.73,0,0,0-1-13.43l-1.77-1.9a10.73,10.73,0,0,0-2.27-1.86l-170.68-118.43c-.32-.2-3.74-2.75-4-3L1117.9,1655A11.1,11.1,0,0,0,1116.74,1654.25Z"/></g><path class="cls-10" d="M1113.31,1637.73h0a10.76,10.76,0,0,0-14.23,3.22L939.37,1873.31a10.73,10.73,0,0,0,2.77,14.93l349.76,240.41a10.74,10.74,0,0,0,14.91-2.73l160.37-231.17a10.77,10.77,0,0,0-1-13.44l-1.77-1.9a10.63,10.63,0,0,0-2.27-1.85L1291.5,1759.12c-.32-.19-3.74-2.75-4-3l-173-117.64A11.52,11.52,0,0,0,1113.31,1637.73Z"/><path class="cls-2" d="M1113.91,1638.08s136.62,56.09,173.51,118.26l-166.33,242-173-118.94Z"/><path class="cls-3" d="M948.05,1879.39s96.76,38.83,147.64,83.86c15.67,13.86,25.4,35.08,25.4,35.08Z"/><g class="cls-11"><path d="M1195.09,1873a4.1,4.1,0,0,1-1.1-.14h0a4.16,4.16,0,0,1-2.55-2c-15-26-52.35-51-81.07-67.43a603.78,603.78,0,0,0-60.39-30.13,4.2,4.2,0,0,1,3.22-7.75,614.7,614.7,0,0,1,60.92,30.3c43.27,24.66,71.73,48.49,84.59,70.82a4.19,4.19,0,0,1-3.62,6.29Zm-143.5-103.73a.18.18,0,0,0-.18.12.21.21,0,0,0,.11.26,607.42,607.42,0,0,1,60.83,30.34c42.4,24.23,70.18,47.41,82.56,68.91a.18.18,0,0,0,.12.09h0a.22.22,0,0,0,.14,0,.2.2,0,0,0,.08-.27c-12.51-21.71-40.47-45-83.11-69.35a610.82,610.82,0,0,0-60.48-30.08Z"/><path d="M1175.62,1901.3a4.08,4.08,0,0,1-1.09-.14h0a4.17,4.17,0,0,1-2.54-2c-15-26-52.35-51-81.07-67.43a603.78,603.78,0,0,0-60.39-30.13,4.19,4.19,0,1,1,3.21-7.75,612.83,612.83,0,0,1,60.93,30.29c43.27,24.67,71.73,48.5,84.59,70.83a4.19,4.19,0,0,1-3.63,6.29Zm-.06-4a.19.19,0,0,0,.15,0,.2.2,0,0,0,.07-.27c-12.5-21.71-40.46-45-83.1-69.35a612,612,0,0,0-60.48-30.08.19.19,0,0,0-.25.11.18.18,0,0,0,.1.25,612.24,612.24,0,0,1,60.84,30.35c42.4,24.23,70.17,47.41,82.56,68.91A.14.14,0,0,0,1175.56,1897.29Z"/><path d="M1234.48,1814.93a4.22,4.22,0,0,1-3.64-2.11c-29-50.41-140.34-97.1-141.46-97.56a4.2,4.2,0,0,1,3.2-7.76,617.18,617.18,0,0,1,60.93,30.31c43.27,24.66,71.73,48.49,84.6,70.83a4.2,4.2,0,0,1-1.54,5.72A4.11,4.11,0,0,1,1234.48,1814.93ZM1091,1711.19a.2.2,0,0,0-.19.12.21.21,0,0,0,.11.26,608.7,608.7,0,0,1,60.84,30.35c42.4,24.22,70.17,47.41,82.55,68.91a.27.27,0,0,0,.12.09h0a.2.2,0,0,0,.15,0,.21.21,0,0,0,.07-.27c-12.5-21.71-40.46-45-83.11-69.35a612.66,612.66,0,0,0-60.47-30.08Z"/><path d="M1253.9,1782.16a4.22,4.22,0,0,1-1.1-.15h0a4.17,4.17,0,0,1-2.54-2c-15-26-52.35-51-81.07-67.42a606.35,606.35,0,0,0-60.39-30.14,4.19,4.19,0,0,1,0-7.76,4.09,4.09,0,0,1,3.2,0,613.8,613.8,0,0,1,60.91,30.29c43.26,24.66,71.73,48.49,84.59,70.83a4.19,4.19,0,0,1-3.63,6.29Zm-.06-4a.16.16,0,0,0,.15,0,.18.18,0,0,0,.07-.26c-12.5-21.72-40.46-45-83.1-69.35a609.82,609.82,0,0,0-60.48-30.08.17.17,0,0,0-.14,0,.2.2,0,0,0-.11.11.19.19,0,0,0,.1.26c1.13.47,113.66,47.63,143.4,99.26A.14.14,0,0,0,1253.84,1778.15Z"/><path d="M1215,1843.24a4.1,4.1,0,0,1-1.1-.14,4.16,4.16,0,0,1-2.55-2c-29-50.44-140.34-97.1-141.46-97.56a4.2,4.2,0,0,1,3.2-7.76,613.06,613.06,0,0,1,60.94,30.31c43.27,24.66,71.73,48.49,84.59,70.82a4.19,4.19,0,0,1-3.62,6.29Zm-143.49-103.73a.2.2,0,0,0-.19.12.19.19,0,0,0,.11.25,613,613,0,0,1,60.83,30.35c42.4,24.23,70.18,47.41,82.56,68.91a.18.18,0,0,0,.12.09h0a.17.17,0,0,0,.14,0,.22.22,0,0,0,.08-.27c-12.51-21.71-40.47-45-83.11-69.35a608.54,608.54,0,0,0-60.48-30.08Z"/><path d="M1156.16,1929.62a4.61,4.61,0,0,1-1.1-.14h0a4.2,4.2,0,0,1-2.55-2c-29-50.43-140.33-97.09-141.46-97.56a4.2,4.2,0,0,1,3.22-7.75,617.31,617.31,0,0,1,60.92,30.3c43.27,24.66,71.73,48.5,84.6,70.83a4.2,4.2,0,0,1-1.55,5.73A4.13,4.13,0,0,1,1156.16,1929.62Zm-.06-4a.17.17,0,0,0,.14,0,.2.2,0,0,0,.08-.27c-12.5-21.71-40.46-45-83.11-69.35a609.91,609.91,0,0,0-60.47-30.08.2.2,0,0,0-.26.1.2.2,0,0,0,.11.26,612.39,612.39,0,0,1,60.84,30.35c42.4,24.23,70.17,47.41,82.55,68.91A.2.2,0,0,0,1156.1,1925.61Z"/><path d="M1083.18,1907.3a4.45,4.45,0,0,1-1.08-.14h0a4.38,4.38,0,0,1-1.26-.58c-41.09-27.88-88.94-47.87-89.42-48.07a4.19,4.19,0,0,1,3.21-7.75c2,.84,49.48,20.76,90.91,48.87a4.2,4.2,0,0,1-2.36,7.67ZM993,1854.44a.21.21,0,0,0-.19.12.2.2,0,0,0,.11.26c.48.2,48.7,20.34,90.12,48.45l.06,0a.18.18,0,0,0,.21-.08.2.2,0,0,0,0-.27c-41.1-27.89-89.71-48.28-90.2-48.48Z"/></g><path class="cls-2" d="M1463.44,1878.33s-101.31-107.46-172.57-119.62l-166.33,242,173,118.94Z"/><path class="cls-3" d="M1297.58,2119.64s-70.92-76.42-131.19-107.8c-18.55-9.66-41.85-11.14-41.85-11.14Z"/><g class="cls-11"><path d="M1421.54,1902.82a4.24,4.24,0,0,1-1.11-.15h0a4.2,4.2,0,0,1-2-1.16c-.83-.88-84.38-88.1-141.77-97.11a4.2,4.2,0,0,1,1.31-8.29c25.48,4,57.93,22.06,96.43,53.6a616.47,616.47,0,0,1,50.12,46,4.2,4.2,0,0,1-3,7.08Zm-.07-4a.19.19,0,0,0,.19,0,.16.16,0,0,0,.06-.13.22.22,0,0,0,0-.14,618.46,618.46,0,0,0-49.75-45.68c-38-31.09-69.75-48.83-94.53-52.75a.2.2,0,0,0-.22.17.21.21,0,0,0,.16.22c24.51,3.85,56.11,21.47,93.92,52.37a613.29,613.29,0,0,1,50.13,45.94Z"/><path d="M1402.07,1931.14a4.11,4.11,0,0,1-1.1-.15h0a4.15,4.15,0,0,1-2-1.16c-.84-.88-84.64-88.15-141.77-97.11a4.2,4.2,0,0,1,1.3-8.29c25.48,4,57.93,22,96.44,53.6a620.84,620.84,0,0,1,50.11,46,4.2,4.2,0,0,1-3,7.09Zm-.06-4a.18.18,0,0,0,.18-.05.21.21,0,0,0,0-.27,603.62,603.62,0,0,0-49.75-45.69c-38-31.09-69.75-48.83-94.52-52.74a.19.19,0,0,0-.22.16.2.2,0,0,0,.17.23c24.5,3.84,56.1,21.46,93.91,52.37a624.79,624.79,0,0,1,50.13,45.93A.18.18,0,0,0,1402,1927.13Z"/><path d="M1382.58,1959.45a4,4,0,0,1-1.08-.14,4.25,4.25,0,0,1-2-1.16c-.83-.88-84.37-88.12-141.77-97.12a4.15,4.15,0,0,1-2.73-1.66,4.19,4.19,0,0,1,4-6.62c25.48,4,57.93,22,96.43,53.6a624.22,624.22,0,0,1,50.12,46,4.2,4.2,0,0,1-.15,5.93A4.23,4.23,0,0,1,1382.58,1959.45Zm-144.14-102.76a.2.2,0,0,0-.2.17.19.19,0,0,0,0,.15.15.15,0,0,0,.12.07c24.52,3.85,56.12,21.47,93.92,52.38a615.52,615.52,0,0,1,50.14,45.93l.08.06a.23.23,0,0,0,.19,0,.21.21,0,0,0,0-.27,603.62,603.62,0,0,0-49.75-45.69c-38-31.09-69.75-48.83-94.53-52.74Z"/><path d="M1363.12,1987.77a4.45,4.45,0,0,1-1.08-.14h0a4.15,4.15,0,0,1-2-1.16c-.83-.88-84.41-88.11-141.77-97.12a4.19,4.19,0,1,1,1.3-8.28c25.48,4,57.93,22,96.44,53.6a617.48,617.48,0,0,1,50.12,46,4.19,4.19,0,0,1-.16,5.93A4.19,4.19,0,0,1,1363.12,1987.77Zm0-4a.24.24,0,0,0,.19,0,.22.22,0,0,0,.06-.14.16.16,0,0,0-.06-.13,613.34,613.34,0,0,0-49.75-45.69c-38-31.09-69.75-48.83-94.52-52.74a.19.19,0,1,0,0,.38c24.51,3.85,56.11,21.47,93.91,52.38a614,614,0,0,1,50.13,45.93l.09.06Z"/><path d="M1343.88,2017.59a4.22,4.22,0,0,1-1.1-.15h0a4.15,4.15,0,0,1-2-1.16c-.83-.88-84.37-88.11-141.77-97.12a4.19,4.19,0,0,1-3.49-4.79,4.2,4.2,0,0,1,4.79-3.5c25.48,4,57.93,22.06,96.44,53.61a619.65,619.65,0,0,1,50.11,46,4.2,4.2,0,0,1-3,7.09Zm-.06-4a.2.2,0,0,0,.19,0,.21.21,0,0,0,0-.27,615,615,0,0,0-49.75-45.69c-38-31.09-69.75-48.84-94.52-52.74a.18.18,0,0,0-.22.16.17.17,0,0,0,0,.15.14.14,0,0,0,.11.07c24.53,3.85,56.13,21.47,93.93,52.38a612.29,612.29,0,0,1,50.13,45.93l.09.06Z"/><path d="M1324.06,2047.11a4,4,0,0,1-1.08-.14,4.15,4.15,0,0,1-2-1.16c-.84-.88-84.38-88.1-141.77-97.11a4.2,4.2,0,0,1,1.3-8.29c25.49,4,57.93,22.06,96.44,53.6a623,623,0,0,1,50.11,46,4.2,4.2,0,0,1-.15,5.93A4.22,4.22,0,0,1,1324.06,2047.11Zm-144.15-102.75a.19.19,0,0,0-.19.16.19.19,0,0,0,0,.15.18.18,0,0,0,.13.07c24.51,3.86,56.11,21.48,93.91,52.38a615.61,615.61,0,0,1,50.14,45.93.18.18,0,0,0,.09.06h0a.2.2,0,0,0,.19-.32,603.62,603.62,0,0,0-49.75-45.69c-38-31.08-69.75-48.83-94.52-52.74Z"/><path d="M1260.7,2036.65a4.46,4.46,0,0,1-1.09-.14h0a4.1,4.1,0,0,1-1.61-.85c-27.26-22.91-66.36-51.27-97.75-56.21a4.2,4.2,0,0,1,1.31-8.29c33.28,5.23,73.75,34.48,101.84,58.09a4.19,4.19,0,0,1-2.7,7.4Zm-99.79-61.54a.2.2,0,0,0-.2.16.21.21,0,0,0,.17.23c32.3,5.08,72,33.86,99.7,57.11l-.45,2,.52-1.94a.18.18,0,0,0,.2-.06.19.19,0,0,0,0-.27c-27.7-23.28-67.52-52.11-99.89-57.2Z"/></g><path class="cls-2" d="M2679.63,2690.05l-6.6-68.12,232.83,71.7,12,54.51-23,9.29a29.9,29.9,0,0,1-21.14.49Z"/><path class="cls-12" d="M2788.52,2685.17a1.88,1.88,0,0,0-.54-3.27l-112.17-38.57a1.89,1.89,0,1,0-1.22,3.57l112.16,38.57A1.88,1.88,0,0,0,2788.52,2685.17Z"/><path class="cls-12" d="M2748.16,2687.76a1.86,1.86,0,0,0,.62-.86,1.89,1.89,0,0,0-1.14-2.41l-71.44-25.65a1.89,1.89,0,1,0-1.27,3.55l71.44,25.65A1.87,1.87,0,0,0,2748.16,2687.76Z"/><path class="cls-13" d="M3172.43,2581.9l-209.06-56.73a12.18,12.18,0,0,0-6.95.16l-287.15,92.47a2.72,2.72,0,0,0,0,5.14L2890,2695.27Z"/><path class="cls-14" d="M2773.89,2584.11l-104.62,33.69a2.72,2.72,0,0,0,0,5.14L2890,2695.27s-71.22-34.42-92.82-64.83S2773.89,2584.11,2773.89,2584.11Z"/><path class="cls-15" d="M2678.55,2683.26c20.8,9.6,149.12,59.92,198.17,69.09,9.6,1.79,20.43-2,24-12.93,6.06-18.31-2-37.55-12.34-43.85-1.83-1.12-.67-4.29,1.3-5.11l282.71-108.56s17.32,5.17,17.4,36.87S3171,2654.1,3171,2654.1,2902.7,2759.69,2888,2760c-43.27.9-209.35-68.65-211.38-71.07C2675.25,2687.32,2675.87,2682,2678.55,2683.26Z"/><path class="cls-2" d="M3170,2583.87c1-.74.88-1.31.74-2.29l-5.75.94,2.86-.53-1.39-2.55c-4.75,2.35-184.79,74-279.33,111.5a2.91,2.91,0,0,0,2.15,5.41s69.93-27.76,139.86-55.61c35-13.92,69.92-27.86,96.14-38.35,13.11-5.25,24-9.64,31.67-12.73C3165.24,2586.31,3168.67,2584.92,3170,2583.87Z"/><path class="cls-12" d="M2739.36,2588.16l-6.6-68.12,232.83,71.71,12,54.5-23,9.29a29.87,29.87,0,0,1-21.13.5Z"/><path class="cls-2" d="M2848.25,2583.29a1.87,1.87,0,0,0,.62-.88,1.89,1.89,0,0,0-1.17-2.4l-112.16-38.56a1.89,1.89,0,1,0-1.23,3.57l112.17,38.56A1.86,1.86,0,0,0,2848.25,2583.29Z"/><path class="cls-2" d="M2807.89,2585.87a1.92,1.92,0,0,0,.62-.85,1.89,1.89,0,0,0-1.14-2.41L2735.93,2557a1.89,1.89,0,0,0-1.28,3.55l71.44,25.66A1.92,1.92,0,0,0,2807.89,2585.87Z"/><path class="cls-3" d="M3232.16,2480l-209.06-56.74a12.27,12.27,0,0,0-6.95.16L2729,2515.91a2.73,2.73,0,0,0,0,5.15l220.74,72.33Z"/><g class="cls-16"><path class="cls-2" d="M2833.62,2482.22,2729,2515.91a2.73,2.73,0,0,0,0,5.15l220.74,72.33s-71.23-34.42-92.82-64.83S2833.62,2482.22,2833.62,2482.22Z"/><path d="M2949.14,2595.29,2728.4,2523a4.63,4.63,0,0,1-3.21-4.51,4.58,4.58,0,0,1,3.2-4.44l107-34.44.26,2.43c0,.23,2.08,16,23,45.4,21,29.64,91.35,63.84,92.06,64.19Zm-117.07-110.47-102.46,33a.61.61,0,0,0-.42.64.69.69,0,0,0,.45.7l198,64.86c-5.24-2.9-11.1-6.26-17.18-9.93-27.45-16.61-46-31.54-55.11-44.37C2838.13,2505.53,2833.35,2490.38,2832.07,2484.82Z"/></g><path class="cls-6" d="M2738.27,2581.38c20.81,9.59,149.12,59.91,198.17,69.08,9.6,1.8,20.44-2,24-12.92,6.06-18.31-2-37.56-12.34-43.86-1.84-1.12-.67-4.29,1.29-5.11L3232.16,2480s17.31,5.17,17.4,36.86-18.82,35.33-18.82,35.33-268.31,105.59-283,105.9c-43.27.89-209.35-68.65-211.38-71.08C2735,2585.44,2735.6,2580.15,2738.27,2581.38Z"/><path class="cls-2" d="M3229.75,2482c1-.74.87-1.32.73-2.3l-5.74.95,2.86-.53-1.4-2.55c-4.74,2.34-184.79,74-279.33,111.49a2.92,2.92,0,0,0,2.15,5.42s69.94-27.77,139.86-55.61c35-13.92,69.93-27.86,96.14-38.36,13.11-5.25,24-9.63,31.68-12.73C3225,2484.42,3228.4,2483,3229.75,2482Z"/><path class="cls-2" d="M3179.71,2430.26l-9.42-61.11-187.82,114.74,1.69,50.38,22.18,3A27,27,0,0,0,3025,2533Z"/><path class="cls-6" d="M3083.3,2450.29a1.7,1.7,0,0,1-.25-3l89.58-58.8a1.7,1.7,0,0,1,1.87,2.85l-89.58,58.8A1.71,1.71,0,0,1,3083.3,2450.29Z"/><path class="cls-6" d="M3119.21,2443.55a1.71,1.71,0,0,1-.27-3l56.81-38.4a1.71,1.71,0,0,1,1.91,2.83l-56.82,38.4A1.7,1.7,0,0,1,3119.21,2443.55Z"/><path class="cls-17" d="M2724.17,2445.57l170.36-96.33a11.05,11.05,0,0,1,6.11-1.41l272,16.87a2.46,2.46,0,0,1,1.13,4.51l-177.1,112.58Z"/><path class="cls-18" d="M3073.56,2358.55l99.1,6.15a2.46,2.46,0,0,1,1.13,4.51l-177.1,112.58s54.67-46,66.79-77.47S3073.56,2358.55,3073.56,2358.55Z"/><path class="cls-18" d="M3179.15,2424.08c-16.07,13-117.17,85.73-158.06,104.7-8,3.72-18.35,2.79-23.94-6-9.39-14.67-6.63-33.32,1-41.14,1.35-1.39-.38-3.91-2.28-4.18l-271.72-31.94s-14,8.39-7,36.15,24.36,26.73,24.36,26.73S3000,2541,3012.94,2538c38.08-8.88,167.95-106.82,169.19-109.4C3182.94,2426.89,3181.22,2422.4,3179.15,2424.08Z"/><path class="cls-2" d="M2726.72,2446.75c-1-.43-1.06-.95-1.15-1.84l5.24-.46-2.63.18.66-2.55c4.67,1,178.27,23.51,269.41,35.27a2.63,2.63,0,0,1-.67,5.22s-67.42-8.7-134.85-17.47c-33.71-4.38-67.43-8.78-92.72-12.12-12.65-1.67-23.19-3.07-30.57-4.08C2731.45,2447.82,2728.14,2447.37,2726.72,2446.75Z"/><path class="cls-12" d="M3165.66,2331.89l-9.42-61.11-187.82,114.74,1.69,50.38,22.18,3a27.05,27.05,0,0,0,18.61-4.29Z"/><path class="cls-2" d="M3069.25,2351.92a1.67,1.67,0,0,1-.74-.63,1.7,1.7,0,0,1,.49-2.36l89.58-58.79a1.7,1.7,0,0,1,1.87,2.85l-89.58,58.79A1.71,1.71,0,0,1,3069.25,2351.92Z"/><path class="cls-2" d="M3105.15,2345.17a1.68,1.68,0,0,1-.73-.6,1.72,1.72,0,0,1,.46-2.37l56.82-38.4a1.7,1.7,0,0,1,1.91,2.82l-56.82,38.4A1.69,1.69,0,0,1,3105.15,2345.17Z"/><path class="cls-10" d="M2710.12,2347.19l170.36-96.32a11.05,11.05,0,0,1,6.11-1.41l272,16.87a2.46,2.46,0,0,1,1.12,4.51l-177.09,112.58Z"/><path class="cls-6" d="M3059.5,2260.18l99.11,6.15a2.46,2.46,0,0,1,1.12,4.51l-177.09,112.58s54.67-46,66.79-77.47S3059.5,2260.18,3059.5,2260.18Z"/><path class="cls-3" d="M3165.1,2325.71c-16.08,13-117.17,85.73-158.07,104.7-8,3.71-18.34,2.78-23.93-5.95-9.39-14.67-6.64-33.32,1-41.15,1.36-1.38-.37-3.9-2.27-4.18l-271.72-31.94s-14,8.4-7,36.16,24.36,26.73,24.36,26.73,258.45,32.55,271.42,29.53c38.08-8.87,167.94-106.81,169.18-109.39C3168.89,2328.52,3167.16,2324,3165.1,2325.71Z"/><path class="cls-2" d="M2712.67,2348.38c-1-.43-1.06-1-1.16-1.84l5.24-.46-2.62.17.65-2.54c4.68,1,178.28,23.51,269.42,35.27a2.63,2.63,0,0,1-.68,5.22s-67.42-8.7-134.84-17.47c-33.72-4.38-67.43-8.78-92.73-12.12-12.64-1.67-23.19-3.07-30.57-4.08C2717.4,2349.45,2714.09,2349,2712.67,2348.38Z"/><path class="cls-19" d="M2924.94,886.18c-25.55-16-39.52-11.52-39.52-11.52s25.24-61.42,16.75-73.84c-11.11-16.27-53.46,57.46-68.14,85.25-3.11-2.34-5.1-3.65-5.1-3.65s3.05-53.3-6.17-51.13-15.1,26.92-21.4,49.83,2,50.15,2,50.15l-195.77,153.15-76.76-3.39s-213.25,153.36,24.61,146.14,276.45-199.38,317.71-222.71,68.52-64.8,68.52-64.8l-1,.38C2956.73,919.47,2946.79,899.86,2924.94,886.18Z"/><g class="cls-20"><path class="cls-21" d="M2600.62,987.49c-51.71,19.46-104.48,39.52-147,74.81s-73.6,89.27-66.91,144.12c2.53,20.79,10.72,41.35,25.52,56.18,27.34,27.41,73.27,29.92,108,12.89s59.42-50.06,75.27-85.38c13.43-29.92,21.49-62.11,36.18-91.42,27.39-54.63,75.61-95.38,122.54-134.53l-91.58,0Z"/><path class="cls-21" d="M2894.27,773c-4.14-1.16-8.57-.23-12.68,1a82.58,82.58,0,0,0-50.28,44.1l-5.65,4.2a122.89,122.89,0,0,1,2.34,43.91c-1,7.75-2.63,16,.86,23,3.36,6.73,10.65,10.49,15.44,16.29,7.67,9.28,8,22.38,8,34.42a102.12,102.12,0,0,0,3.6-47.94c-.85-5.16-2.11-10.31-2-15.54.1-6.77,2.43-13.3,5-19.58a276,276,0,0,1,39-67.29c1.74-2.21,3.58-4.57,3.84-7.37C2902.08,778,2898.41,774.15,2894.27,773Z"/></g><path class="cls-17" d="M2545.54,1251.76l-123.41,18.71-11.22,248.7-437.12-.25L1964,1306l-87.87-84.15s58-144,117.8-185.11,172-35.53,172-35.53c145.85-18.71,375.84,63.58,375.84,63.58l3.39,169.46Z"/><g class="cls-22"><g class="cls-23"><circle class="cls-2" cx="1807.45" cy="1035.05" r="16.83"/><circle class="cls-2" cx="1903.49" cy="1035.05" r="16.83"/><circle class="cls-2" cx="1999.53" cy="1035.05" r="16.83"/><circle class="cls-2" cx="2095.57" cy="1035.05" r="16.83"/><circle class="cls-2" cx="2191.61" cy="1035.05" r="16.83"/><circle class="cls-2" cx="2287.64" cy="1035.05" r="16.83"/><circle class="cls-2" cx="2383.68" cy="1035.05" r="16.83"/><circle class="cls-2" cx="2479.72" cy="1035.05" r="16.83"/><circle class="cls-2" cx="2575.76" cy="1035.05" r="16.83"/><circle class="cls-2" cx="1757.95" cy="1099.4" r="16.83"/><circle class="cls-2" cx="1853.99" cy="1099.4" r="16.83"/><circle class="cls-2" cx="1950.03" cy="1099.4" r="16.83"/><circle class="cls-2" cx="2046.06" cy="1099.4" r="16.83"/><circle class="cls-2" cx="2142.1" cy="1099.4" r="16.83"/><circle class="cls-2" cx="2238.14" cy="1099.4" r="16.83"/><circle class="cls-2" cx="2334.18" cy="1099.4" r="16.83"/><circle class="cls-2" cx="2430.21" cy="1099.4" r="16.83"/><circle class="cls-2" cx="2526.25" cy="1099.4" r="16.83"/><circle class="cls-2" cx="1807.45" cy="1167.72" r="16.83"/><circle class="cls-2" cx="1903.49" cy="1167.72" r="16.83"/><circle class="cls-2" cx="1999.53" cy="1167.72" r="16.83"/><circle class="cls-2" cx="2095.57" cy="1167.72" r="16.83"/><circle class="cls-2" cx="2191.61" cy="1167.72" r="16.83"/><circle class="cls-2" cx="2287.64" cy="1167.72" r="16.83"/><circle class="cls-2" cx="2383.68" cy="1167.72" r="16.83"/><circle class="cls-2" cx="2479.72" cy="1167.72" r="16.83"/><circle class="cls-2" cx="2575.76" cy="1167.72" r="16.83"/><circle class="cls-2" cx="1757.95" cy="1232.07" r="16.83"/><circle class="cls-2" cx="1853.99" cy="1232.07" r="16.83"/><circle class="cls-2" cx="1950.03" cy="1232.07" r="16.83"/><circle class="cls-2" cx="2046.06" cy="1232.07" r="16.83"/><circle class="cls-2" cx="2142.1" cy="1232.07" r="16.83"/><circle class="cls-2" cx="2238.14" cy="1232.07" r="16.83"/><circle class="cls-2" cx="2334.18" cy="1232.07" r="16.83"/><circle class="cls-2" cx="2430.21" cy="1232.07" r="16.83"/><circle class="cls-2" cx="2526.25" cy="1232.07" r="16.83"/><circle class="cls-2" cx="1807.45" cy="1299.4" r="16.83"/><circle class="cls-2" cx="1903.49" cy="1299.4" r="16.83"/><circle class="cls-2" cx="1999.53" cy="1299.4" r="16.83"/><circle class="cls-2" cx="2095.57" cy="1299.4" r="16.83"/><circle class="cls-2" cx="2191.61" cy="1299.4" r="16.83"/><circle class="cls-2" cx="2287.64" cy="1299.4" r="16.83"/><circle class="cls-2" cx="2383.68" cy="1299.4" r="16.83"/><circle class="cls-2" cx="2479.72" cy="1299.4" r="16.83"/><circle class="cls-2" cx="2575.76" cy="1299.4" r="16.83"/><circle class="cls-2" cx="1757.95" cy="1363.75" r="16.83"/><circle class="cls-2" cx="1853.99" cy="1363.75" r="16.83"/><circle class="cls-2" cx="1950.03" cy="1363.75" r="16.83"/><circle class="cls-2" cx="2046.06" cy="1363.75" r="16.83"/><circle class="cls-2" cx="2142.1" cy="1363.75" r="16.83"/><circle class="cls-2" cx="2238.14" cy="1363.75" r="16.83"/><circle class="cls-2" cx="2334.18" cy="1363.75" r="16.83"/><circle class="cls-2" cx="2430.21" cy="1363.75" r="16.83"/><circle class="cls-2" cx="2526.25" cy="1363.75" r="16.83"/><circle class="cls-2" cx="1807.45" cy="1432.07" r="16.83"/><circle class="cls-2" cx="1903.49" cy="1432.07" r="16.83"/><circle class="cls-2" cx="1999.53" cy="1432.07" r="16.83"/><circle class="cls-2" cx="2095.57" cy="1432.07" r="16.83"/><circle class="cls-2" cx="2191.61" cy="1432.07" r="16.83"/><circle class="cls-2" cx="2287.64" cy="1432.07" r="16.83"/><circle class="cls-2" cx="2383.68" cy="1432.07" r="16.83"/><circle class="cls-2" cx="2479.72" cy="1432.07" r="16.83"/><circle class="cls-2" cx="2575.76" cy="1432.07" r="16.83"/><circle class="cls-2" cx="1757.95" cy="1496.43" r="16.83"/><circle class="cls-2" cx="1853.99" cy="1496.43" r="16.83"/><circle class="cls-2" cx="1950.03" cy="1496.43" r="16.83"/><circle class="cls-2" cx="2046.06" cy="1496.43" r="16.83"/><circle class="cls-2" cx="2142.1" cy="1496.43" r="16.83"/><circle class="cls-2" cx="2238.14" cy="1496.43" r="16.83"/><circle class="cls-2" cx="2334.18" cy="1496.43" r="16.83"/><circle class="cls-2" cx="2430.21" cy="1496.43" r="16.83"/><circle class="cls-2" cx="2526.25" cy="1496.43" r="16.83"/></g></g><polygon class="cls-3" points="2511.18 2607.14 2309.5 2607.14 2226.45 1996.6 2199.62 1799.36 2139.16 2607.14 1934.29 2607.14 1973.8 1518.93 2388.45 1518.93 2511.18 2607.14"/><g class="cls-24"><rect class="cls-2" x="1865.58" y="2483.47" width="341.81" height="27.5"/><rect class="cls-2" x="1865.58" y="2538.47" width="341.81" height="27.5"/><rect class="cls-2" x="2242.75" y="2487.4" width="341.81" height="27.5"/><rect class="cls-2" x="2242.75" y="2542.4" width="341.81" height="27.5"/><g class="cls-23"><polygon points="2038.45 2672.05 2199.62 1799.36 2403.83 2668.12 2038.45 2672.05"/></g><g class="cls-23"><path d="M1869.51,1674.13c-1.68,23.51,573.61-157.15,573.61-157.15s-318.24-51.08-345.74-51.08S1885.23,1454.12,1869.51,1674.13Z"/></g></g><path class="cls-10" d="M2672.09,2758.15h-358a13,13,0,0,1-13-13.82l3.76-61.66h188.23l35.54-62.34L2680,2734.75C2689.91,2742.28,2684.56,2758.15,2672.09,2758.15Z"/><g class="cls-25"><path class="cls-2" d="M2273.85,2702.06c6.55-2.62,225.27,6.55,225.27,6.55l74.65-93-265.86,7.86Z"/></g><path class="cls-10" d="M1903,2758.15h220a22.35,22.35,0,0,0,22.3-23.7l-3.57-58.07c-28,0-66.41.27-66.41.27l-46.13-46.14h-103.8l-42.83,96.24A22.33,22.33,0,0,0,1903,2758.15Z"/><g class="cls-26"><polygon class="cls-2" points="1896.67 2658.84 2023.71 2657.53 2072.16 2695.51 2178.25 2691.58 2162.53 2633.95 1928.1 2589.43 1896.67 2658.84"/></g><path class="cls-19" d="M1925.38,2630.51h103.8l46.13,46.14s38.37-.27,66.41-.27l-4.27-69.23H1935.77Z"/><polygon class="cls-19" points="2528.61 2620.33 2493.07 2682.67 2304.84 2682.67 2309.49 2607.14 2511.16 2607.14 2528.61 2620.33"/><path class="cls-27" d="M2154.67,726.28s12.5-34.3,70.08-27,88.86,10.78,109.95,44.84,32.42,98.88-4.07,106.61-137,59.63-137,59.63L2122.23,898S2004.65,792.77,2154.67,726.28Z"/><g class="cls-28"><path class="cls-29" d="M2119.52,910.66c21.49-2.72,39.39-19.16,49.08-38.54s12.38-41.45,13.72-63.07c.95-15.17,1.75-31.6,11.44-43.3,12.86-15.51,37.91-16.34,55.1-5.84,4.95,3,10.21,7,15.91,5.9,2.94-.57,5.44-2.44,7.71-4.39,13-11.16,22.31-26.49,36.58-36,25.07-16.71,61.71-10,82.15,12.12s25,56.34,14.75,84.68c-9.79,27.21-31.49,48.92-56.39,63.6s-53,23-81.09,29.87q-34.41,8.43-69.4,14.24c-15.12,2.51-30.35,4.65-45.68,5-8.69.18-17.78-.32-25.36-4.57Z"/><path class="cls-29" d="M2200.23,747.53c-24.07-5.21-48.55,9.4-63,29.31s-19.59,43.79-14.15,67.79c3.32,14.61,9.69,30.11,3.88,43.92-5.5,13.08-20,19.59-33.29,24.47,8.71-7.27,9.79-20.45,7.13-31.48s-8.28-21.19-10.67-32.27c-3.4-15.73,0-32.47,7.55-46.7s18.12-34.22,48.28-49.3C2179.12,736.68,2200.23,747.53,2200.23,747.53Z"/><path class="cls-29" d="M2213.25,740.29c.11-8.4,6.7-15.7,14.48-18.89s16.51-3,24.86-2,16.67,2.67,25.07,2.33c17.51-.72,34.41-10.93,42.91-26.33a14.41,14.41,0,0,0,1.59-10.19c-1.27-5.4-4.92-6.95-8.78-7.71a183,183,0,0,0-23.58-2.79c-17.67-1.11-37.52-1.95-53.79,6.55-18.57,9.7-28.85,25.14-25.68,45.85Z"/></g><path class="cls-19" d="M2142.33,935.33a41.63,41.63,0,0,0,23-2.14c-2.65,27.25-16.9,76.9-16.9,76.9s-10.12,2.47,14.82,23.54c17.61,14.91,43.76,24.58,53.18,26.21s42.88-25.42,42.88-25.42l-6.47-10.53c-1.46-2.36-2.26-6.16-2.63-10.66-.65-8,0-18.12.88-26.15a93.11,93.11,0,0,0,21-1.14c52.89-9,80.29-60.65,74.35-117.29-1.87-17.85-1.9-27.32-6.86-39,0,0-11.22-2-29.12-33.62s-39-25.93-43.84-12.16c-16.2-15.4-34.62-3.24-37.85,8.92-5.89,22.14-7.59,39.29-26.23,46-4.45,1.07-8,3.74-11.07,7.15-9.85,9.68-14,24.18-20.29,27.59-3.16,1.46-11.65-2.73-11.65-2.73a40.78,40.78,0,0,0-5-1.26c-20.8-3.85-40.39,7.76-43.74,25.93S2121.53,931.49,2142.33,935.33Z"/><g class="cls-30"><path class="cls-21" d="M2349.11,826c.13-.26.28-.52.39-.8,2.81-7-1.45-14.66-5.75-20.84a355,355,0,0,0-33.6-41.41c-6.07-6.43-12.5-12.73-20.35-16.81-10.3-5.36-22.27-6.49-33.89-6.48-21.87,0-44.26,4-63,15.28s-33.29,30.8-35,52.61l-10.86,44.83c3.38,6.21,10.84,9.27,18,9,11.13,12.52,5.53,39.32,20.34,50,4.39,3.18,9.91,4.29,15.25,5.18,44.59,7.37,90.17,3.85,135.23.32,5.4-.43,11.12-1,15.46-4.2,6.39-4.75,7.74-13.61,8.57-21.53C2362.31,868.58,2363.64,842.93,2349.11,826Zm-163.35,26.49c.48-.37.95-.73,1.41-1.11a88.18,88.18,0,0,0,25.59-34.65c4.59-11.23,8.75-25.31,20.52-28.22,4-1,8.25-.39,12.32-1.09,6.92-1.19,13.1-6.08,20.11-5.79,10.88.46,16.94,12.3,22,21.94s11.5,18.83,20.44,25c.93.65,1.9,1.25,2.88,1.82Z"/></g><path class="cls-21" d="M2131.89,901.14a9,9,0,0,0,1.39,5.3,12.53,12.53,0,0,0,3.91,3.86,19.74,19.74,0,0,0,10.37,2.84,20.55,20.55,0,0,0,10-2.5c2.93-1.63,5.1-4.24,5.31-7.09s-1.52-5.75-4.15-7.81a20.78,20.78,0,0,0-9.52-4,19.77,19.77,0,0,0-10.68,1.2,12.55,12.55,0,0,0-4.46,3.2A8.92,8.92,0,0,0,2131.89,901.14Zm0,0A9.59,9.59,0,0,1,2134,896a14.46,14.46,0,0,1,4.32-3.6,22.69,22.69,0,0,1,11.08-2.71,21.59,21.59,0,0,1,11.38,3.21,14.34,14.34,0,0,1,4.47,4.47,10.35,10.35,0,0,1-1,12.62,14.55,14.55,0,0,1-5.1,3.71,21.67,21.67,0,0,1-11.74,1.41,22.8,22.8,0,0,1-10.53-4.39,14.54,14.54,0,0,1-3.71-4.22A9.7,9.7,0,0,1,2131.89,901.14Z"/><path class="cls-31" d="M2287.41,875.29s30.49,36.51,11,44.25c-14.38,5.69-17.1-2.57-19.28-9.5S2276.69,868.94,2287.41,875.29Z"/><circle class="cls-31" cx="2200.54" cy="905.79" r="21.08"/><path class="cls-21" d="M2235.13,1016.62c5.59.19,10.35.15,14.39-.11-.66-8,0-23,.87-31,0,0-23.54-1.51-40.6-15.5S2196.64,1015.18,2235.13,1016.62Z"/><path class="cls-27" d="M2278.32,934.45c-7.31.69-15.77.13-23.56-3.67-9.1-4.45-19,4.37-15,13.67,6.82,15.76,32.49,23.74,47.41,8.25A10.79,10.79,0,0,0,2278.32,934.45Z"/><g class="cls-32"><ellipse class="cls-2" cx="2271.89" cy="931.82" rx="31.65" ry="14.41"/></g><polygon class="cls-33" points="2226.64 815.58 2120.84 815.71 2122.55 871.59 2218.85 911.74 2226.64 815.58"/><polygon class="cls-34" points="2128.41 861.38 2127.01 815.7 2120.84 815.71 2122.55 871.59 2218.85 911.74 2209.36 899.67 2128.41 861.38"/><path class="cls-3" d="M2378.89,839.29l.82,42.25a31.61,31.61,0,0,1-31,32.21l-110.36,2.12-9.32.17-1.77,0a25.41,25.41,0,0,1-4.55-.26,31.18,31.18,0,0,1-15.84-6.68,30.12,30.12,0,0,1-3.76-3.56,31.42,31.42,0,0,1-8.06-20.47l-.82-42.25a31.61,31.61,0,0,1,31-32.21l121.48-2.37a8.42,8.42,0,0,1,.87,0,30,30,0,0,1,7.61,1,30.61,30.61,0,0,1,5,1.75,31,31,0,0,1,9,6.13,28.93,28.93,0,0,1,2.55,2.75,29.74,29.74,0,0,1,2.88,4.17A30.84,30.84,0,0,1,2378.89,839.29Z"/><path class="cls-2" d="M2369.23,817.17l-146.5,98.65a31.19,31.19,0,0,1-12.08-4.08L2360.2,811A31,31,0,0,1,2369.23,817.17Z"/><path class="cls-2" d="M2374.66,824.09l-136.29,91.78-9.32.17,142.73-96.12A29.74,29.74,0,0,1,2374.66,824.09Z"/><path class="cls-2" d="M2355.19,809.29l-148.3,99.85a30.12,30.12,0,0,1-3.76-3.56l144.45-97.29A30,30,0,0,1,2355.19,809.29Z"/><path class="cls-35" d="M2246.69,915.71a31.6,31.6,0,0,1-32.21-31l-.81-42.26a31.59,31.59,0,0,1,31-32.2l-19.41.37a31.6,31.6,0,0,0-31,32.21l.82,42.26a31.59,31.59,0,0,0,32.2,31l23.19-.45Z"/><polygon class="cls-2" points="2346.7 808.29 2346.7 808.29 2282.01 809.54 2346.7 808.29"/><ellipse class="cls-36" cx="2120.29" cy="854.53" rx="31.16" ry="44.23" transform="translate(-93.75 285.41) rotate(-7.53)"/><path class="cls-34" d="M2130.65,853.16c1.49,11.23-3.72,21.18-11.63,22.23s-15.53-7.21-17-18.44,3.72-21.18,11.63-22.23S2129.17,841.93,2130.65,853.16Z"/><path class="cls-33" d="M2114.49,810.69a21.39,21.39,0,0,0-3.91.92c15.55.75,29.73,17.58,32.68,39.89s-6.36,42.23-21.18,47a22.47,22.47,0,0,0,4-.13c17.06-2.26,28.29-23.72,25.09-47.93S2131.55,808.43,2114.49,810.69Z"/><path class="cls-5" d="M1786.77,1142.53l7.36,27.37,207.69,46.69s-6.84-21.22-82.78-51.26S1786.77,1142.53,1786.77,1142.53Z"/><path class="cls-5" d="M2184.42,1096.58l-.9,28.32-191.5,93s1.8-22.23,68.86-68.84S2184.42,1096.58,2184.42,1096.58Z"/><path class="cls-2" d="M1782.82,1164.48l6.3,26,209,20.2s-146.46-54.4-199.82-47.16C1794.66,1164,1782.82,1164.48,1782.82,1164.48Z"/><path class="cls-2" d="M2193.29,1117l.75,26.58-199.72,67.67a1095.34,1095.34,0,0,1,103.57-61.16A350.32,350.32,0,0,1,2193.29,1117Z"/><path class="cls-15" d="M1790.52,1186.63l205.7,23.87a7.86,7.86,0,0,0,3.6-.42c16.81-6.1,150.31-54.54,190.72-69.25a7.9,7.9,0,0,1,10.52,6.22l33.86,223.33a7.92,7.92,0,0,1-4.61,8.45l-156,69.38a7.46,7.46,0,0,1-1.6.51l-39.08,8.15a7.81,7.81,0,0,1-2.64.1l-187-24.44a7.94,7.94,0,0,1-6.67-6l-55.49-230.18A7.92,7.92,0,0,1,1790.52,1186.63Z"/><g class="cls-37"><path class="cls-2" d="M2190.54,1140.83a7.9,7.9,0,0,1,10.52,6.22l33.86,223.33a7.92,7.92,0,0,1-4.61,8.45l-128.1,57s43.66-56.66,64.74-130.8S2190.54,1140.83,2190.54,1140.83Z"/></g><path class="cls-2" d="M2032.06,1457.85a2.1,2.1,0,0,1-2-1.64l-54.57-245.85a2.09,2.09,0,0,1,4.09-.9l54.56,245.84a2.1,2.1,0,0,1-1.58,2.5A2.49,2.49,0,0,1,2032.06,1457.85Z"/><path class="cls-2" d="M2073.43,1449.08a2.09,2.09,0,0,1-2-1.64l-53.42-243a2.09,2.09,0,0,1,4.09-.9l53.42,243a2.1,2.1,0,0,1-1.6,2.49A1.73,1.73,0,0,1,2073.43,1449.08Z"/><path class="cls-2" d="M2117.15,1337.38l64.42-24.45a8.68,8.68,0,0,0,6.55-10.39l-9.47-59a8.68,8.68,0,0,0-10.39-6.55l-67,24.75a8.67,8.67,0,0,0-6.54,10.39l12,58.75A8.68,8.68,0,0,0,2117.15,1337.38Z"/><circle class="cls-2" cx="2143.25" cy="1290.27" r="20.48" transform="translate(-354.22 1435.12) rotate(-34.37)"/><circle class="cls-3" cx="2143.25" cy="1290.27" r="20.48" transform="translate(-354.22 1435.12) rotate(-34.37)"/><g class="cls-38"><g class="cls-39"><path class="cls-2" d="M2145.39,1318.68c-2.06-3.73-.9-8.34.3-12.43a12.48,12.48,0,0,1,1.25-3.15c1.81-2.91,5.53-3.82,8.43-5.65,3.06-1.93,5.31-5,8.52-6.68a11.67,11.67,0,0,1,9.93-.31Z"/><path d="M2144.93,1322l-1.29-2.32c-2.39-4.33-1.25-9.27.13-14a14.41,14.41,0,0,1,1.47-3.64c1.55-2.49,4.12-3.75,6.39-4.86a28.82,28.82,0,0,0,2.67-1.42,26.92,26.92,0,0,0,3.53-2.87A24.46,24.46,0,0,1,2163,1289a13.58,13.58,0,0,1,11.66-.37l2.68,1.18Zm24.27-30.46a9.5,9.5,0,0,0-4.39,1,20.82,20.82,0,0,0-4.28,3.3,30.34,30.34,0,0,1-4.09,3.29,31.12,31.12,0,0,1-3.05,1.63c-2,1-3.81,1.87-4.76,3.39a11.26,11.26,0,0,0-1,2.65c-.82,2.78-1.55,5.64-1.29,8.13l23.58-23.41C2169.67,1291.51,2169.43,1291.5,2169.2,1291.5Z"/></g><g class="cls-39"><path class="cls-2" d="M2129.83,1270.7c2.58,1,3.82,4,4.07,6.83s-.19,5.61.3,8.36c.34,1.93,1.15,3.88.74,5.8-.51,2.4-2.72,4-4.2,5.94-3,4-3,9.68-6.17,13.49,0,0-11-13.23-8-20.63S2129.83,1270.7,2129.83,1270.7Z"/><path d="M2124.57,1314.24l-1.54-1.84c-1.2-1.45-11.66-14.39-8.3-22.66,3.08-7.6,13.13-19.8,13.55-20.32l.94-1.13,1.36.55c3,1.2,4.93,4.38,5.31,8.51a34.79,34.79,0,0,1,.08,3.8,22.43,22.43,0,0,0,.2,4.39c.08.49.2,1,.32,1.47a9,9,0,0,1-2.78,10.24c-.5.55-1,1.06-1.37,1.58a20.2,20.2,0,0,0-2.62,6c-.84,2.62-1.71,5.33-3.61,7.61Zm5.67-40.87c-2.71,3.4-9.53,12.26-11.81,17.87-1.72,4.25,2.86,12,6,16.39a32.67,32.67,0,0,0,1.49-4.06,23.39,23.39,0,0,1,3.24-7.14c.51-.68,1.07-1.29,1.62-1.89a7.83,7.83,0,0,0,2.21-3.27,8.12,8.12,0,0,0-.37-3.31c-.14-.58-.28-1.15-.38-1.72a25.78,25.78,0,0,1-.26-5.15,31.29,31.29,0,0,0-.06-3.38A7.54,7.54,0,0,0,2130.24,1273.37Z"/></g><g class="cls-39"><path class="cls-2" d="M2164.13,1281.46a10.48,10.48,0,0,1-8,.29,31.14,31.14,0,0,1-7.24-3.91,8.73,8.73,0,0,1-2.44-2.08,8.1,8.1,0,0,1-1.17-4.14,48.79,48.79,0,0,1-.08-6.84l14,5.44Z"/><path d="M2160,1284.41a14.44,14.44,0,0,1-4.53-.76,32.82,32.82,0,0,1-7.72-4.14,10.49,10.49,0,0,1-3-2.59,10,10,0,0,1-1.54-5.14,51.26,51.26,0,0,1-.07-7.12l.16-2.74,17.34,6.74,6,13.71-1.67.86A10.88,10.88,0,0,1,2160,1284.41Zm-12.92-16.74c0,1.27,0,2.53.15,3.79a6.47,6.47,0,0,0,.81,3.14,7.19,7.19,0,0,0,1.92,1.57,29.13,29.13,0,0,0,6.76,3.68,9.82,9.82,0,0,0,4.7.43l-3.75-8.49Z"/></g></g><path class="cls-15" d="M2113.4,1302.2a11.68,11.68,0,0,1-3.43-.4,3.1,3.1,0,0,1-1.48-.89,1.93,1.93,0,0,1-.38-1.64,6.2,6.2,0,0,1,2-2.82,24.53,24.53,0,0,1,2.75-2.12,69,69,0,0,1,6-3.52l1.54-.8.77-.39.39-.2.19-.1a1.31,1.31,0,0,1,.28-.09,1.26,1.26,0,0,1,1.51,1.35,1.32,1.32,0,0,1-.64,1l-.79.4a67.52,67.52,0,0,0-6,3.4c-1,.61-1.91,1.25-2.8,1.93a11.94,11.94,0,0,0-2.31,2.21,1.31,1.31,0,0,0-.14.24s0,.07,0,0,0,0,0-.07a.5.5,0,0,0,0-.28c-.07-.23-.17-.23-.12-.22l.21.06a7.59,7.59,0,0,0,1.49.09,25.43,25.43,0,0,0,3.32-.3c2.23-.31,4.46-.78,6.67-1.31,4.43-1.07,8.81-2.42,13.14-3.88s8.62-3.07,12.86-4.77,8.42-3.49,12.5-5.44c2-1,4-2,6-3.08a40.05,40.05,0,0,0,5.4-3.44,7.94,7.94,0,0,0,.82-.74c.05-.05,0,0,0,0a.91.91,0,0,0-.11.22,2,2,0,0,0-.14.62,2.49,2.49,0,0,0,0,.66,3.38,3.38,0,0,0,.08.34,4,4,0,0,0,.21.5,1.9,1.9,0,0,0,.35.49l.22.23a1.78,1.78,0,0,0,.27.21l.15.09.08,0,.05,0a5.44,5.44,0,0,0-.95-.13c-.44,0-.94,0-1.45,0a51.67,51.67,0,0,0-6.46.69c-1.1.18-2.2.37-3.3.59l-.83.15-.51.1a3.63,3.63,0,0,1-1.76-.1,3.7,3.7,0,0,1-.65-6.82,3.61,3.61,0,0,1,.81-.3l.3-.07.87-.16c.57-.12,1.15-.23,1.74-.32,1.17-.2,2.34-.38,3.53-.54a39.47,39.47,0,0,1,7.37-.38,11.2,11.2,0,0,1,4.29,1,5.2,5.2,0,0,1,1.24.87,7.68,7.68,0,0,1,.58.68,6,6,0,0,1,.42.84,3.93,3.93,0,0,1,.22,1.84l-.05.44-.12.37a4.43,4.43,0,0,1-.27.7,9.78,9.78,0,0,1-2.91,3.23,29.9,29.9,0,0,1-3.1,2,67.4,67.4,0,0,1-6.37,3.17c-4.29,1.89-8.65,3.5-13,5s-8.82,2.9-13.28,4.14-8.94,2.4-13.45,3.4c-2.26.49-4.53.93-6.81,1.3A44.28,44.28,0,0,1,2113.4,1302.2Zm0,0a63.88,63.88,0,0,0,13.65-2.17c4.48-1.13,8.9-2.47,13.26-4a172.55,172.55,0,0,0,25.23-11.07c2-1.1,3.94-2.27,5.76-3.53a27.1,27.1,0,0,0,2.53-2,6.65,6.65,0,0,0,1.59-2c.06-.23,0-.16,0,0a.07.07,0,0,0,0,.07s0,0,0,0,0,0-.21-.07a7.54,7.54,0,0,0-2.47-.29,41.21,41.21,0,0,0-6.41.79c-1.1.21-2.19.44-3.29.69l-1.65.39-.82.19-.11,0h0a1.7,1.7,0,0,0,.41-.15,1.81,1.81,0,0,0,.66-.57,1.89,1.89,0,0,0,.25-1.68,1.91,1.91,0,0,0-1.23-1.2,1.84,1.84,0,0,0-.9,0c-.12,0,0,0,0,0l.11,0,.21-.05.87-.21c1.15-.28,2.32-.51,3.49-.73a49.69,49.69,0,0,1,7.3-.92c.64,0,1.3,0,2,0a10.24,10.24,0,0,1,2.47.42c.14,0,.25.08.46.17l.27.14a1.86,1.86,0,0,1,.34.19,4.7,4.7,0,0,1,.44.34,3.32,3.32,0,0,1,1,1.48c0,.14.07.29.1.44a3.31,3.31,0,0,1,0,.88,3.79,3.79,0,0,1-.25,1,5.76,5.76,0,0,1-.3.61,5.6,5.6,0,0,1-.52.73,11.93,11.93,0,0,1-1.7,1.63,47.45,47.45,0,0,1-6.29,4c-2.11,1.13-4.26,2.14-6.41,3.11-4.32,1.91-8.71,3.56-13.15,5a169.16,169.16,0,0,1-27.2,6.73c-2.32.34-4.65.63-7,.75a30.86,30.86,0,0,1-3.6,0,8.51,8.51,0,0,1-1.95-.32,2.88,2.88,0,0,1-.59-.26,1.56,1.56,0,0,1-.73-.8,1.38,1.38,0,0,1-.05-.5.9.9,0,0,1,.06-.28,1.62,1.62,0,0,1,.15-.36,3.46,3.46,0,0,1,.33-.49,13.6,13.6,0,0,1,2.86-2.38c1-.65,2-1.23,3-1.79,2.05-1.12,4.17-2.08,6.29-3l.77-.35a.53.53,0,0,0,.29-.39.58.58,0,0,0-.67-.66l-.14,0-.2.09-.39.17-.79.35-1.56.74a60.35,60.35,0,0,0-6.09,3.27,26.45,26.45,0,0,0-2.78,2,5.83,5.83,0,0,0-2,2.74,1.87,1.87,0,0,0,.36,1.61,3,3,0,0,0,1.45.88A11.59,11.59,0,0,0,2113.4,1302.2Z"/><g class="cls-23"><polygon points="2545.54 1251.76 2422.13 1270.47 2425.86 1208.77 2545.17 1234.26 2545.54 1251.76"/></g><path class="cls-19" d="M1980.37,1490.27c15.1-.83,26.94-13.51,27.42-28.63.46-14.48-1.34-30.55-11.44-31.35-18.55-1.46-18.27,35.69-18.27,35.69s-4.73-41-14.83-55.85-24.46,13.21-23.4,36.27,12.05-55-.13-53.15-33.07,42.59-33.07,42.59,23.43-39.48,12.61-46.63-46.37,27.74-42.07,47.63,32.45,21.44,41.31,32.41,50.38,21,60,21.06C1979.09,1490.32,1979.72,1490.3,1980.37,1490.27Z"/><g class="cls-40"><path class="cls-21" d="M1914.63,1381.36l-3.07-1.53c4.61,7.33,1.55,16.87-1.62,24.93l-10.17,25.89c-.71,1.82-1.44,3.75-1.15,5.69s2,3.8,4,3.5a5.25,5.25,0,0,0,2.51-1.45c4.61-4.13,7.83-9.56,10.56-15.11a124.87,124.87,0,0,0,8.45-22.31c1.16-4.29,2.09-8.9.7-13.13S1918.9,1380.12,1914.63,1381.36Z"/><path class="cls-21" d="M1933.8,1386.35c.65,0,1.31-.06,2-.08a15.1,15.1,0,0,0-1.52-2.2Z"/><path class="cls-21" d="M1943.58,1387.9c-2.25-1.5-5-1.71-7.81-1.63a21.81,21.81,0,0,1,2.59,11.75c-.18,5-1.52,9.79-2.65,14.62a177.92,177.92,0,0,0-4.61,36.77,2.46,2.46,0,0,0,.42,1.77c1,1.1,2.73-.25,3.53-1.51,9-14.26,12.59-31.35,13.08-48.19C1948.27,1396.49,1947.73,1390.68,1943.58,1387.9Z"/><path class="cls-21" d="M2006.56,1429.82c.81-5.42-4.72-6.52-7.87-8a15.17,15.17,0,0,0-6.73-1.69c-10.36.25-11.23,9.94-11,17.64l-.13,1.43c-.59-10.63-3-21.34-5.53-31.75-.85-3.59-1.8-7.35-4.32-10s-7.17-3.76-9.88-1.26l-8.21,6.17c2.46.05,4.57,2,5.59,4.22a20.69,20.69,0,0,1,1.35,7.22,285.27,285.27,0,0,0,6.33,42.83c.61,2.68,1.31,5.47,3.29,7.45a6.6,6.6,0,0,0,7.13.86,16.64,16.64,0,0,0,2.1-1.26,61.54,61.54,0,0,1,24.06-28.4A8,8,0,0,0,2006.56,1429.82Z"/></g><circle class="cls-10" cx="3028.76" cy="939.18" r="224.21" transform="translate(223.01 2416.74) rotate(-45)"/><path d="M3042,1040.09c-111.09,0-215.55-8.24-294.14-23.21-38.3-7.3-68.41-15.81-89.48-25.29-22.44-10.11-33.82-21.09-33.82-32.63s11.38-22.52,33.82-32.63c21.07-9.48,51.18-18,89.48-25.29,78.59-15,183.05-23.21,294.14-23.21s215.56,8.24,294.14,23.21c38.31,7.3,68.42,15.81,89.48,25.29,22.45,10.11,33.83,21.09,33.83,32.63s-11.38,22.52-33.83,32.63c-21.06,9.48-51.17,18-89.48,25.29C3257.51,1031.85,3153.05,1040.09,3042,1040.09Zm0-158.26c-110.84,0-215,8.22-293.39,23.14-76.29,14.53-120,34.21-120,54s43.76,39.46,120,54c78.35,14.92,182.55,23.14,293.39,23.14s215.05-8.22,293.39-23.14c76.3-14.53,120.06-34.21,120.06-54s-43.76-39.46-120.06-54C3257,890.05,3152.8,881.83,3042,881.83Z"/><path class="cls-2" d="M2977.9,1052.58c-42.43,0-42.5,65.94,0,65.94S3020.4,1052.58,2977.9,1052.58Z"/><path class="cls-7" d="M3469.87,943.51a48,48,0,0,0-4.66-6.83,71.56,71.56,0,0,0-14.85-12.81,141.68,141.68,0,0,0-28.61-13.94c-18.72-6.86-37.22-11-55.66-14.61-6.62-1.24-13.23-2.39-19.83-3.41-30.25-4.77-60.4-7.54-90.52-9.59-73.39-4.82-146.37-6.41-219.45-7.41-36.54-.63-73.1-.5-109.7.76s-73.21,2.62-109.85,5.84-73.34,7-110.15,14.28l-1.49.31c-17.91,3.67-35.86,7.73-54.09,14.3a139.94,139.94,0,0,0-28.65,13.68,69.93,69.93,0,0,0-14.91,12.67,48,48,0,0,0-7.41,12.42,39.16,39.16,0,0,0-2.83,13.36c-.08,11.18,4.56,20.17,9.2,26.61a75.39,75.39,0,0,0,14.38,14,151.67,151.67,0,0,0,28.13,16.48c18.49,8.59,36.75,14.72,55.13,20.06a922.65,922.65,0,0,0,110.33,23.65c36.88,5.48,73.81,9.93,110.82,12.68s74,4.19,111.09,5c74.1.71,148.36-4.27,222-16.82,36.82-6.47,73.5-14.17,110.09-24.93,18.36-5.45,36.59-11.58,55.08-20a151,151,0,0,0,28.16-16.24,75.71,75.71,0,0,0,14.43-13.91c4.66-6.39,9.33-15.35,9.3-26.53A40.56,40.56,0,0,0,3469.87,943.51Zm-755.42-15.37a866.26,866.26,0,0,1,105.14-22.71c35.73-5.35,71.75-9.75,107.92-12.45s72.45-4.13,108.78-4.87c72.61-.73,145.43,4.19,216.78,16.5,35.59,6.29,71,13.86,104.93,24a390.45,390.45,0,0,1,38.76,13.59c3.33,1.39,6.61,2.83,9.8,4.32a100,100,0,0,1,19.62,11.5,25.45,25.45,0,0,1,3.82,3.49c.27-.21.5-.4.71-.58.76-.89.34-.37.6,1.6a3,3,0,0,0,.06.57,3.25,3.25,0,0,0,.23.29c.5,1.13,0,1.1-.23-.29a20.57,20.57,0,0,0-1.37-1.59,32.78,32.78,0,0,1-5.1,3.69,108.39,108.39,0,0,1-20.07,9.19c-15.19,5.45-32.14,9.25-49.14,12.52-34.26,6.26-69.7,9.72-105.19,12.05-71.06,4.56-142.62,6.11-214.21,7.1-35.81.63-71.64.5-107.37-.71s-71.48-2.48-106.94-5.58-70.83-6.67-105-13.35c-17-3.36-33.89-7.15-49.09-12.47a110.24,110.24,0,0,1-20.09-9,36,36,0,0,1-5.31-3.69,16.45,16.45,0,0,0-1.29,1.57c-.21,1.62-.86,1.67-.34.44.11-.13.21-.28.34-.44s0-.21,0-.34c.31-2-.08-2.52.68-1.68l.58.45a25.18,25.18,0,0,1,3.72-3.49,100.67,100.67,0,0,1,19.59-11.76c2.51-1.2,5.11-2.38,7.73-3.48A346.94,346.94,0,0,1,2714.45,928.14Z"/><path class="cls-10" d="M3027.29,719.49c-122.62,0-222,99.4-222,222h444C3249.31,818.89,3149.91,719.49,3027.29,719.49Z"/><path class="cls-2" d="M2905,872.44c-34,0-34,52.76,0,52.76S2939,872.44,2905,872.44Z"/><path class="cls-2" d="M3002.71,721.24c-1.05,13.9,7.32,28.62,25.29,28.62,19,0,27.16-16.48,24.88-31C3036.19,720.16,3019.39,720.11,3002.71,721.24Z"/><path class="cls-2" d="M3096.88,792c-13.78,0-13.81,21.43,0,21.43S3110.7,792,3096.88,792Z"/><path class="cls-2" d="M3171.46,897.73c-42.43,0-42.5,65.94,0,65.94S3214,897.73,3171.46,897.73Z"/><path class="cls-2" d="M3057.38,918.92c-24.55,0-24.59,38.16,0,38.16S3082,918.92,3057.38,918.92Z"/><circle class="cls-3" cx="3509.74" cy="1452.67" r="127.88" transform="translate(0.78 2907.24) rotate(-45)"/><path class="cls-15" d="M3738,1634.37c-1.27-3.09-2.69-6.12-4.22-9.09a267.52,267.52,0,0,0-21.41-33.87c-15.75-21.61-33.18-42-51.29-61.63-36.25-39.33-75.22-76.12-115.77-111q-30.45-26.15-62.21-50.74c-21.2-16.34-42.82-32.18-65.12-47q-16.72-11.15-33.94-21.57c-11.51-6.9-23.2-13.53-35.22-19.57A268.76,268.76,0,0,0,3311.5,1264c-3.24-1-6.53-2-9.88-2.76a75.79,75.79,0,0,0-10.28-1.73,39.66,39.66,0,0,0-10.84.35,21.85,21.85,0,0,0-5.51,1.86,15,15,0,0,0-7.79,9.19,22.4,22.4,0,0,0-.93,5.75,39.73,39.73,0,0,0,1.43,10.74,76.9,76.9,0,0,0,3.4,9.86c1.31,3.18,2.78,6.27,4.35,9.29a269.51,269.51,0,0,0,21.74,34.19c15.94,21.68,33.65,41.88,51.94,61.46s37.5,38.28,57.1,56.51,39.73,35.88,60.26,53c41.08,34.28,83.77,66.68,128.52,96,22.37,14.63,45.3,28.48,69.21,40.47a264.46,264.46,0,0,0,36.92,15.56c3.18,1,6.4,1.94,9.66,2.68a75.28,75.28,0,0,0,9.89,1.64,36.35,36.35,0,0,0,10-.34,18.86,18.86,0,0,0,4.73-1.6,13.45,13.45,0,0,0,3.93-3.06,13.46,13.46,0,0,1-3.94,3.05,18.81,18.81,0,0,1-4.73,1.58,36.28,36.28,0,0,1-10,.31,75,75,0,0,1-9.87-1.66c-3.25-.75-6.47-1.67-9.65-2.7a266.54,266.54,0,0,1-36.85-15.66c-12-6-23.57-12.61-35-19.47s-22.71-14.08-33.83-21.5c-22.22-14.83-43.79-30.62-64.95-46.93s-41.83-33.24-62.09-50.64-40.08-35.3-59.38-53.74-38.08-37.42-56.14-57-35.42-39.89-51.05-61.36a263.39,263.39,0,0,1-21.17-33.47c-1.5-2.92-2.89-5.87-4.12-8.87a70.17,70.17,0,0,1-3.11-9.09,33.49,33.49,0,0,1-1.21-9.06,15.93,15.93,0,0,1,.66-4.12,9.12,9.12,0,0,1,4.82-5.68,16.1,16.1,0,0,1,4-1.33,34.21,34.21,0,0,1,9.14-.29,69.56,69.56,0,0,1,9.47,1.58c3.16.71,6.31,1.6,9.43,2.61A262.81,262.81,0,0,1,3346.2,1285c23.74,11.91,46.59,25.71,68.9,40.3,44.61,29.22,87.22,61.56,128.23,95.77q30.74,25.7,60.15,52.93c19.55,18.19,38.67,36.88,57,56.37s35.88,39.65,51.71,61.19a265.85,265.85,0,0,1,21.5,33.79c1.53,3,3,6,4.24,9.07a71.88,71.88,0,0,1,3.26,9.46,36.42,36.42,0,0,1,1.34,9.9,19.16,19.16,0,0,1-.79,4.93,13.39,13.39,0,0,1-2.36,4.38,13.31,13.31,0,0,0,2.37-4.38,18.76,18.76,0,0,0,.81-4.93,36.85,36.85,0,0,0-1.31-9.91A74.21,74.21,0,0,0,3738,1634.37Z"/><path class="cls-3" d="M3592.42,1355.11A127.89,127.89,0,0,0,3412.18,1370l195.13,165.35A127.89,127.89,0,0,0,3592.42,1355.11Z"/><circle class="cls-3" cx="1157.62" cy="1237.34" r="87.61" transform="translate(-449.08 699.19) rotate(-28.39)"/><path class="cls-15" d="M1351,1147.25a9.22,9.22,0,0,1,.9,3.29,13.45,13.45,0,0,1-.24,3.41,25.44,25.44,0,0,1-2.43,6.4,64.55,64.55,0,0,1-7.89,11.19,182.24,182.24,0,0,1-19.59,19.21c-13.91,11.91-28.84,22.56-44,32.74s-30.92,19.58-46.82,28.64-32.06,17.64-48.4,25.85A953.42,953.42,0,0,1,1082,1321.67a480.63,480.63,0,0,1-52.16,16.09,179.82,179.82,0,0,1-26.6,4.57,61.14,61.14,0,0,1-13.06-.14,22.25,22.25,0,0,1-5.79-1.54,10.06,10.06,0,0,1-2.22-1.37,6.17,6.17,0,0,1-1.41-1.73,6.43,6.43,0,0,1-.58-2.16,9.72,9.72,0,0,1,.18-2.59,22.23,22.23,0,0,1,2.12-5.61,61.63,61.63,0,0,1,7.48-10.7,181.12,181.12,0,0,1,19.2-19,483.74,483.74,0,0,1,43.45-33,952.51,952.51,0,0,1,94-56.27q24.27-12.78,49.19-24.32c16.61-7.65,33.42-14.92,50.54-21.41s34.48-12.38,52.26-16.76a182,182,0,0,1,27-4.75,64,64,0,0,1,13.7.1,24.83,24.83,0,0,1,6.61,1.75,12.52,12.52,0,0,1,2.92,1.79,9.31,9.31,0,0,1,2.15,2.64,9,9,0,0,0-2.14-2.65,12.94,12.94,0,0,0-2.92-1.81,25.17,25.17,0,0,0-6.61-1.78,64.87,64.87,0,0,0-13.72-.16,184,184,0,0,0-27.06,4.65,484.46,484.46,0,0,0-52.5,16.19,957.12,957.12,0,0,0-100.81,43.84q-24.59,12.33-48.55,25.91c-15.94,9.09-31.69,18.56-47,28.75s-30.28,20.93-44.33,33a185.34,185.34,0,0,0-19.91,19.54,66.74,66.74,0,0,0-8.26,11.74,27.74,27.74,0,0,0-2.71,7.2,15.56,15.56,0,0,0-.29,4.24,11.19,11.19,0,0,0,4.11,8,15.68,15.68,0,0,0,3.61,2.23,28,28,0,0,0,7.43,2,67,67,0,0,0,14.36.12,184.79,184.79,0,0,0,27.47-4.83,468.08,468.08,0,0,0,52.6-16.86c17.19-6.53,34.06-13.81,50.73-21.48s33.1-15.85,49.33-24.39a955.62,955.62,0,0,0,94.33-56.45,485.49,485.49,0,0,0,43.73-33.26,183.36,183.36,0,0,0,19.52-19.3,64.31,64.31,0,0,0,7.86-11.25,25.06,25.06,0,0,0,2.4-6.41,13.11,13.11,0,0,0,.23-3.42A9,9,0,0,0,1351,1147.25Z"/><path class="cls-3" d="M1117.57,1159.42a87.61,87.61,0,0,0-37.88,118l155.85-80.1A87.61,87.61,0,0,0,1117.57,1159.42Z"/><circle class="cls-2" cx="1843.74" cy="1856.15" r="233.04" transform="translate(-772.48 1847.38) rotate(-45)"/><g class="cls-41"><circle class="cls-18" cx="1843.74" cy="1856.15" r="233.04" transform="translate(-772.48 1847.38) rotate(-45)"/><path class="cls-2" d="M2197.5,1794.77l14.32-9-16.53,3.5c-145.13,30.73-317.38,62.5-494.51,65.22-65.55,1-139.94-3-198.12-39.47,99.92-22.27,212.35-47.52,318.73-80.55,120-37.25,220-80.68,305.82-132.79l-3.12-5.13c-85.4,51.85-185,95.09-304.48,132.18-108.62,33.73-223.68,59.36-325.2,82l-6.78,1.51,5.74,3.9c27.41,18.6,59.93,31,99.45,37.82,38.54,6.69,78,7,108,6.55,170.8-2.62,336.93-32.15,478.73-61.78C1974.67,1922,1724.17,1966.2,1489.43,1920l-1.7,5.72c112.33,45.17,231.84,70.23,355.22,74.51a1057.53,1057.53,0,0,0,241.5-19.11,1582.57,1582.57,0,0,1-287.83,49.74,1574.38,1574.38,0,0,1-412.45-21.4l-1.1,5.89a1572,1572,0,0,0,287.9,26.48q63,0,126.12-5a1579.89,1579.89,0,0,0,405.48-86.37l-1.93-5.68c-114.52,37.06-234.8,53.7-357.48,49.44-111.94-3.88-220.69-25-323.71-62.75a966.79,966.79,0,0,0,155.11,12.44C1858.14,1943.88,2041.66,1892.48,2197.5,1794.77Z"/></g><polygon class="cls-15" points="2582.67 675.7 2507.12 630.73 2529.14 715.85 2484.16 791.41 2569.29 769.39 2644.84 814.36 2622.82 729.24 2667.8 653.68 2582.67 675.7"/><polygon class="cls-42" points="2580.02 697.78 2537.29 672.35 2549.74 720.49 2524.31 763.21 2572.45 750.76 2615.18 776.2 2602.72 728.05 2628.16 685.33 2580.02 697.78"/><polygon class="cls-43" points="2937.69 1652.42 2892.49 1691.91 2832.62 1687.6 2872.11 1732.8 2867.8 1792.66 2913 1753.17 2972.86 1757.48 2933.37 1712.29 2937.69 1652.42"/><polygon class="cls-43" points="1166.98 729.09 1139.97 780.92 1084.14 798.22 1135.97 825.23 1153.27 881.06 1180.28 829.23 1236.11 811.93 1184.28 784.92 1166.98 729.09"/><polygon class="cls-42" points="1232.91 743.02 1205.9 794.85 1150.07 812.15 1201.9 839.16 1219.2 894.99 1246.21 843.16 1302.04 825.86 1250.21 798.85 1232.91 743.02"/><polygon class="cls-43" points="2964.15 534.39 2939.99 555.5 2907.99 553.2 2929.1 577.36 2926.79 609.36 2950.95 588.25 2982.95 590.56 2961.84 566.39 2964.15 534.39"/><polygon class="cls-15" points="3429.9 512.63 3405.83 571.11 3347.35 595.17 3405.83 619.24 3429.9 677.72 3453.97 619.24 3512.45 595.17 3453.97 571.11 3429.9 512.63"/><path class="cls-3" d="M2054.9,455.67l-86.28,27.61c10-3.21,26.47-90.9,30.16-103.62-204.43,161-349.6,377.47-399.23,638,7.85-41.19,76.84-102.86,103.8-134.74,41.77-49.4,85.9-97.36,133.05-141.69,80.81-76,183.88-136.57,271.57-207.62l-82-2.77Z"/><g class="cls-44"><path class="cls-7" d="M2057.07,199.68l-475.5,245.79-81.48,460.64L1575.76,1155l25.49-151.14s87.64-320.65,380.38-525.22C2218.84,312.86,2057.07,199.68,2057.07,199.68Z"/><path class="cls-2" d="M2025.94,530.79c-274.07,168.45-424.69,473.07-424.69,473.07s-60,86.7-66.08,101.7l394.41-205.74L2377.81,539S2302.08,361.07,2025.94,530.79Z"/></g><polygon class="cls-15" points="1605.04 849.25 1576.12 935.18 1494.72 975.11 1580.65 1004.04 1620.58 1085.43 1649.51 999.5 1730.9 959.57 1644.97 930.65 1605.04 849.25"/><polygon class="cls-15" points="1359.28 662.62 1340.63 689.26 1308.59 694.76 1335.22 713.41 1340.72 745.45 1359.37 718.82 1391.41 713.32 1364.78 694.67 1359.28 662.62"/><polygon class="cls-15" points="3016.36 1477.3 3018.02 1549.19 2968.11 1600.98 3040.01 1599.32 3091.8 1649.22 3090.13 1577.32 3140.04 1525.54 3068.14 1527.2 3016.36 1477.3"/></g></svg>